M48
; DRILL file {KiCad 9.0.7} date 2026-03-20T17:42:59+0100
; FORMAT={-:-/ absolute / inch / decimal}
; #@! TF.CreationDate,2026-03-20T17:42:59+01:00
; #@! TF.GenerationSoftware,Kicad,Pcbnew,9.0.7
; #@! TF.FileFunction,NonPlated,1,4,NPTH
FMAT,2
INCH
; #@! TA.AperFunction,NonPlated,NPTH,ComponentDrill
T1C0.0669
; #@! TA.AperFunction,NonPlated,NPTH,ComponentDrill
T2C0.1575
%
G90
G05
T1
X4.4752Y-2.5398
X4.4752Y-3.2949
X4.4752Y-4.05
X4.476Y-4.8043
X4.8752Y-2.5398
X4.8752Y-3.2949
X4.8752Y-4.05
X4.876Y-4.8043
X5.2303Y-4.0496
X5.2311Y-2.5398
X5.2311Y-3.2953
X5.2319Y-4.8051
X5.6303Y-4.0496
X5.6311Y-2.5398
X5.6311Y-3.2953
X5.6319Y-4.8051
X5.9862Y-4.0496
X5.9862Y-4.8051
X5.9866Y-2.5398
X5.987Y-3.2953
X6.3862Y-4.0496
X6.3862Y-4.8051
X6.3866Y-2.5398
X6.387Y-3.2953
X6.7413Y-3.2949
X6.7413Y-4.0492
X6.7413Y-4.8051
X6.7417Y-2.5398
X7.1413Y-3.2949
X7.1413Y-4.0492
X7.1413Y-4.8051
X7.1417Y-2.5398
T2
X4.6752Y-2.5398
X4.6752Y-3.2949
X4.6752Y-4.05
X4.676Y-4.8043
X5.4303Y-4.0496
X5.4311Y-2.5398
X5.4311Y-3.2953
X5.4319Y-4.8051
X6.1862Y-4.0496
X6.1862Y-4.8051
X6.1866Y-2.5398
X6.187Y-3.2953
X6.9413Y-3.2949
X6.9413Y-4.0492
X6.9413Y-4.8051
X6.9417Y-2.5398
M30
