%TF.GenerationSoftware,KiCad,Pcbnew,9.0.7*%
%TF.CreationDate,2026-03-20T17:42:59+01:00*%
%TF.ProjectId,Slaveboard,536c6176-6562-46f6-9172-642e6b696361,rev?*%
%TF.SameCoordinates,Original*%
%TF.FileFunction,Legend,Bot*%
%TF.FilePolarity,Positive*%
%FSLAX46Y46*%
G04 Gerber Fmt 4.6, Leading zero omitted, Abs format (unit mm)*
G04 Created by KiCad (PCBNEW 9.0.7) date 2026-03-20 17:42:59*
%MOMM*%
%LPD*%
G01*
G04 APERTURE LIST*
G04 Aperture macros list*
%AMRoundRect*
0 Rectangle with rounded corners*
0 $1 Rounding radius*
0 $2 $3 $4 $5 $6 $7 $8 $9 X,Y pos of 4 corners*
0 Add a 4 corners polygon primitive as box body*
4,1,4,$2,$3,$4,$5,$6,$7,$8,$9,$2,$3,0*
0 Add four circle primitives for the rounded corners*
1,1,$1+$1,$2,$3*
1,1,$1+$1,$4,$5*
1,1,$1+$1,$6,$7*
1,1,$1+$1,$8,$9*
0 Add four rect primitives between the rounded corners*
20,1,$1+$1,$2,$3,$4,$5,0*
20,1,$1+$1,$4,$5,$6,$7,0*
20,1,$1+$1,$6,$7,$8,$9,0*
20,1,$1+$1,$8,$9,$2,$3,0*%
G04 Aperture macros list end*
%ADD10C,0.200000*%
%ADD11C,0.150000*%
%ADD12C,0.120000*%
%ADD13C,1.700000*%
%ADD14C,4.000000*%
%ADD15C,2.200000*%
%ADD16R,1.000000X0.750000*%
%ADD17RoundRect,0.100000X0.100000X-0.637500X0.100000X0.637500X-0.100000X0.637500X-0.100000X-0.637500X0*%
%ADD18C,1.000000*%
%ADD19R,1.000000X1.000000*%
%ADD20C,3.800000*%
G04 APERTURE END LIST*
D10*
X145419600Y-55022054D02*
X145467219Y-55164911D01*
X145467219Y-55164911D02*
X145467219Y-55403006D01*
X145467219Y-55403006D02*
X145419600Y-55498244D01*
X145419600Y-55498244D02*
X145371980Y-55545863D01*
X145371980Y-55545863D02*
X145276742Y-55593482D01*
X145276742Y-55593482D02*
X145181504Y-55593482D01*
X145181504Y-55593482D02*
X145086266Y-55545863D01*
X145086266Y-55545863D02*
X145038647Y-55498244D01*
X145038647Y-55498244D02*
X144991028Y-55403006D01*
X144991028Y-55403006D02*
X144943409Y-55212530D01*
X144943409Y-55212530D02*
X144895790Y-55117292D01*
X144895790Y-55117292D02*
X144848171Y-55069673D01*
X144848171Y-55069673D02*
X144752933Y-55022054D01*
X144752933Y-55022054D02*
X144657695Y-55022054D01*
X144657695Y-55022054D02*
X144562457Y-55069673D01*
X144562457Y-55069673D02*
X144514838Y-55117292D01*
X144514838Y-55117292D02*
X144467219Y-55212530D01*
X144467219Y-55212530D02*
X144467219Y-55450625D01*
X144467219Y-55450625D02*
X144514838Y-55593482D01*
X145467219Y-56022054D02*
X144467219Y-56022054D01*
X144467219Y-56022054D02*
X144467219Y-56260149D01*
X144467219Y-56260149D02*
X144514838Y-56403006D01*
X144514838Y-56403006D02*
X144610076Y-56498244D01*
X144610076Y-56498244D02*
X144705314Y-56545863D01*
X144705314Y-56545863D02*
X144895790Y-56593482D01*
X144895790Y-56593482D02*
X145038647Y-56593482D01*
X145038647Y-56593482D02*
X145229123Y-56545863D01*
X145229123Y-56545863D02*
X145324361Y-56498244D01*
X145324361Y-56498244D02*
X145419600Y-56403006D01*
X145419600Y-56403006D02*
X145467219Y-56260149D01*
X145467219Y-56260149D02*
X145467219Y-56022054D01*
X145181504Y-56974435D02*
X145181504Y-57450625D01*
X145467219Y-56879197D02*
X144467219Y-57212530D01*
X144467219Y-57212530D02*
X145467219Y-57545863D01*
X146819600Y-54972054D02*
X146867219Y-55114911D01*
X146867219Y-55114911D02*
X146867219Y-55353006D01*
X146867219Y-55353006D02*
X146819600Y-55448244D01*
X146819600Y-55448244D02*
X146771980Y-55495863D01*
X146771980Y-55495863D02*
X146676742Y-55543482D01*
X146676742Y-55543482D02*
X146581504Y-55543482D01*
X146581504Y-55543482D02*
X146486266Y-55495863D01*
X146486266Y-55495863D02*
X146438647Y-55448244D01*
X146438647Y-55448244D02*
X146391028Y-55353006D01*
X146391028Y-55353006D02*
X146343409Y-55162530D01*
X146343409Y-55162530D02*
X146295790Y-55067292D01*
X146295790Y-55067292D02*
X146248171Y-55019673D01*
X146248171Y-55019673D02*
X146152933Y-54972054D01*
X146152933Y-54972054D02*
X146057695Y-54972054D01*
X146057695Y-54972054D02*
X145962457Y-55019673D01*
X145962457Y-55019673D02*
X145914838Y-55067292D01*
X145914838Y-55067292D02*
X145867219Y-55162530D01*
X145867219Y-55162530D02*
X145867219Y-55400625D01*
X145867219Y-55400625D02*
X145914838Y-55543482D01*
X146771980Y-56543482D02*
X146819600Y-56495863D01*
X146819600Y-56495863D02*
X146867219Y-56353006D01*
X146867219Y-56353006D02*
X146867219Y-56257768D01*
X146867219Y-56257768D02*
X146819600Y-56114911D01*
X146819600Y-56114911D02*
X146724361Y-56019673D01*
X146724361Y-56019673D02*
X146629123Y-55972054D01*
X146629123Y-55972054D02*
X146438647Y-55924435D01*
X146438647Y-55924435D02*
X146295790Y-55924435D01*
X146295790Y-55924435D02*
X146105314Y-55972054D01*
X146105314Y-55972054D02*
X146010076Y-56019673D01*
X146010076Y-56019673D02*
X145914838Y-56114911D01*
X145914838Y-56114911D02*
X145867219Y-56257768D01*
X145867219Y-56257768D02*
X145867219Y-56353006D01*
X145867219Y-56353006D02*
X145914838Y-56495863D01*
X145914838Y-56495863D02*
X145962457Y-56543482D01*
X146867219Y-57448244D02*
X146867219Y-56972054D01*
X146867219Y-56972054D02*
X145867219Y-56972054D01*
X148119600Y-54872054D02*
X148167219Y-55014911D01*
X148167219Y-55014911D02*
X148167219Y-55253006D01*
X148167219Y-55253006D02*
X148119600Y-55348244D01*
X148119600Y-55348244D02*
X148071980Y-55395863D01*
X148071980Y-55395863D02*
X147976742Y-55443482D01*
X147976742Y-55443482D02*
X147881504Y-55443482D01*
X147881504Y-55443482D02*
X147786266Y-55395863D01*
X147786266Y-55395863D02*
X147738647Y-55348244D01*
X147738647Y-55348244D02*
X147691028Y-55253006D01*
X147691028Y-55253006D02*
X147643409Y-55062530D01*
X147643409Y-55062530D02*
X147595790Y-54967292D01*
X147595790Y-54967292D02*
X147548171Y-54919673D01*
X147548171Y-54919673D02*
X147452933Y-54872054D01*
X147452933Y-54872054D02*
X147357695Y-54872054D01*
X147357695Y-54872054D02*
X147262457Y-54919673D01*
X147262457Y-54919673D02*
X147214838Y-54967292D01*
X147214838Y-54967292D02*
X147167219Y-55062530D01*
X147167219Y-55062530D02*
X147167219Y-55300625D01*
X147167219Y-55300625D02*
X147214838Y-55443482D01*
X147167219Y-55776816D02*
X148167219Y-56014911D01*
X148167219Y-56014911D02*
X147452933Y-56205387D01*
X147452933Y-56205387D02*
X148167219Y-56395863D01*
X148167219Y-56395863D02*
X147167219Y-56633959D01*
X148167219Y-57014911D02*
X147167219Y-57014911D01*
X147167219Y-57681577D02*
X147167219Y-57872053D01*
X147167219Y-57872053D02*
X147214838Y-57967291D01*
X147214838Y-57967291D02*
X147310076Y-58062529D01*
X147310076Y-58062529D02*
X147500552Y-58110148D01*
X147500552Y-58110148D02*
X147833885Y-58110148D01*
X147833885Y-58110148D02*
X148024361Y-58062529D01*
X148024361Y-58062529D02*
X148119600Y-57967291D01*
X148119600Y-57967291D02*
X148167219Y-57872053D01*
X148167219Y-57872053D02*
X148167219Y-57681577D01*
X148167219Y-57681577D02*
X148119600Y-57586339D01*
X148119600Y-57586339D02*
X148024361Y-57491101D01*
X148024361Y-57491101D02*
X147833885Y-57443482D01*
X147833885Y-57443482D02*
X147500552Y-57443482D01*
X147500552Y-57443482D02*
X147310076Y-57491101D01*
X147310076Y-57491101D02*
X147214838Y-57586339D01*
X147214838Y-57586339D02*
X147167219Y-57681577D01*
X148467219Y-55124435D02*
X148467219Y-55743482D01*
X148467219Y-55743482D02*
X148848171Y-55410149D01*
X148848171Y-55410149D02*
X148848171Y-55553006D01*
X148848171Y-55553006D02*
X148895790Y-55648244D01*
X148895790Y-55648244D02*
X148943409Y-55695863D01*
X148943409Y-55695863D02*
X149038647Y-55743482D01*
X149038647Y-55743482D02*
X149276742Y-55743482D01*
X149276742Y-55743482D02*
X149371980Y-55695863D01*
X149371980Y-55695863D02*
X149419600Y-55648244D01*
X149419600Y-55648244D02*
X149467219Y-55553006D01*
X149467219Y-55553006D02*
X149467219Y-55267292D01*
X149467219Y-55267292D02*
X149419600Y-55172054D01*
X149419600Y-55172054D02*
X149371980Y-55124435D01*
X148467219Y-56029197D02*
X149467219Y-56362530D01*
X149467219Y-56362530D02*
X148467219Y-56695863D01*
X148467219Y-56933959D02*
X148467219Y-57553006D01*
X148467219Y-57553006D02*
X148848171Y-57219673D01*
X148848171Y-57219673D02*
X148848171Y-57362530D01*
X148848171Y-57362530D02*
X148895790Y-57457768D01*
X148895790Y-57457768D02*
X148943409Y-57505387D01*
X148943409Y-57505387D02*
X149038647Y-57553006D01*
X149038647Y-57553006D02*
X149276742Y-57553006D01*
X149276742Y-57553006D02*
X149371980Y-57505387D01*
X149371980Y-57505387D02*
X149419600Y-57457768D01*
X149419600Y-57457768D02*
X149467219Y-57362530D01*
X149467219Y-57362530D02*
X149467219Y-57076816D01*
X149467219Y-57076816D02*
X149419600Y-56981578D01*
X149419600Y-56981578D02*
X149371980Y-56933959D01*
X149814838Y-55443482D02*
X149767219Y-55348244D01*
X149767219Y-55348244D02*
X149767219Y-55205387D01*
X149767219Y-55205387D02*
X149814838Y-55062530D01*
X149814838Y-55062530D02*
X149910076Y-54967292D01*
X149910076Y-54967292D02*
X150005314Y-54919673D01*
X150005314Y-54919673D02*
X150195790Y-54872054D01*
X150195790Y-54872054D02*
X150338647Y-54872054D01*
X150338647Y-54872054D02*
X150529123Y-54919673D01*
X150529123Y-54919673D02*
X150624361Y-54967292D01*
X150624361Y-54967292D02*
X150719600Y-55062530D01*
X150719600Y-55062530D02*
X150767219Y-55205387D01*
X150767219Y-55205387D02*
X150767219Y-55300625D01*
X150767219Y-55300625D02*
X150719600Y-55443482D01*
X150719600Y-55443482D02*
X150671980Y-55491101D01*
X150671980Y-55491101D02*
X150338647Y-55491101D01*
X150338647Y-55491101D02*
X150338647Y-55300625D01*
X150767219Y-55919673D02*
X149767219Y-55919673D01*
X149767219Y-55919673D02*
X150767219Y-56491101D01*
X150767219Y-56491101D02*
X149767219Y-56491101D01*
X150767219Y-56967292D02*
X149767219Y-56967292D01*
X149767219Y-56967292D02*
X149767219Y-57205387D01*
X149767219Y-57205387D02*
X149814838Y-57348244D01*
X149814838Y-57348244D02*
X149910076Y-57443482D01*
X149910076Y-57443482D02*
X150005314Y-57491101D01*
X150005314Y-57491101D02*
X150195790Y-57538720D01*
X150195790Y-57538720D02*
X150338647Y-57538720D01*
X150338647Y-57538720D02*
X150529123Y-57491101D01*
X150529123Y-57491101D02*
X150624361Y-57443482D01*
X150624361Y-57443482D02*
X150719600Y-57348244D01*
X150719600Y-57348244D02*
X150767219Y-57205387D01*
X150767219Y-57205387D02*
X150767219Y-56967292D01*
X166030326Y-54347331D02*
X166030326Y-53347331D01*
X166030326Y-53347331D02*
X165696993Y-54061616D01*
X165696993Y-54061616D02*
X165363660Y-53347331D01*
X165363660Y-53347331D02*
X165363660Y-54347331D01*
X164458898Y-54347331D02*
X164458898Y-53823521D01*
X164458898Y-53823521D02*
X164506517Y-53728283D01*
X164506517Y-53728283D02*
X164601755Y-53680664D01*
X164601755Y-53680664D02*
X164792231Y-53680664D01*
X164792231Y-53680664D02*
X164887469Y-53728283D01*
X164458898Y-54299712D02*
X164554136Y-54347331D01*
X164554136Y-54347331D02*
X164792231Y-54347331D01*
X164792231Y-54347331D02*
X164887469Y-54299712D01*
X164887469Y-54299712D02*
X164935088Y-54204473D01*
X164935088Y-54204473D02*
X164935088Y-54109235D01*
X164935088Y-54109235D02*
X164887469Y-54013997D01*
X164887469Y-54013997D02*
X164792231Y-53966378D01*
X164792231Y-53966378D02*
X164554136Y-53966378D01*
X164554136Y-53966378D02*
X164458898Y-53918759D01*
X163554136Y-53680664D02*
X163554136Y-54490188D01*
X163554136Y-54490188D02*
X163601755Y-54585426D01*
X163601755Y-54585426D02*
X163649374Y-54633045D01*
X163649374Y-54633045D02*
X163744612Y-54680664D01*
X163744612Y-54680664D02*
X163887469Y-54680664D01*
X163887469Y-54680664D02*
X163982707Y-54633045D01*
X163554136Y-54299712D02*
X163649374Y-54347331D01*
X163649374Y-54347331D02*
X163839850Y-54347331D01*
X163839850Y-54347331D02*
X163935088Y-54299712D01*
X163935088Y-54299712D02*
X163982707Y-54252092D01*
X163982707Y-54252092D02*
X164030326Y-54156854D01*
X164030326Y-54156854D02*
X164030326Y-53871140D01*
X164030326Y-53871140D02*
X163982707Y-53775902D01*
X163982707Y-53775902D02*
X163935088Y-53728283D01*
X163935088Y-53728283D02*
X163839850Y-53680664D01*
X163839850Y-53680664D02*
X163649374Y-53680664D01*
X163649374Y-53680664D02*
X163554136Y-53728283D01*
X163077945Y-53680664D02*
X163077945Y-54347331D01*
X163077945Y-53775902D02*
X163030326Y-53728283D01*
X163030326Y-53728283D02*
X162935088Y-53680664D01*
X162935088Y-53680664D02*
X162792231Y-53680664D01*
X162792231Y-53680664D02*
X162696993Y-53728283D01*
X162696993Y-53728283D02*
X162649374Y-53823521D01*
X162649374Y-53823521D02*
X162649374Y-54347331D01*
X161792231Y-54299712D02*
X161887469Y-54347331D01*
X161887469Y-54347331D02*
X162077945Y-54347331D01*
X162077945Y-54347331D02*
X162173183Y-54299712D01*
X162173183Y-54299712D02*
X162220802Y-54204473D01*
X162220802Y-54204473D02*
X162220802Y-53823521D01*
X162220802Y-53823521D02*
X162173183Y-53728283D01*
X162173183Y-53728283D02*
X162077945Y-53680664D01*
X162077945Y-53680664D02*
X161887469Y-53680664D01*
X161887469Y-53680664D02*
X161792231Y-53728283D01*
X161792231Y-53728283D02*
X161744612Y-53823521D01*
X161744612Y-53823521D02*
X161744612Y-53918759D01*
X161744612Y-53918759D02*
X162220802Y-54013997D01*
X161458897Y-53680664D02*
X161077945Y-53680664D01*
X161316040Y-53347331D02*
X161316040Y-54204473D01*
X161316040Y-54204473D02*
X161268421Y-54299712D01*
X161268421Y-54299712D02*
X161173183Y-54347331D01*
X161173183Y-54347331D02*
X161077945Y-54347331D01*
X160744611Y-54347331D02*
X160744611Y-53680664D01*
X160744611Y-53347331D02*
X160792230Y-53394950D01*
X160792230Y-53394950D02*
X160744611Y-53442569D01*
X160744611Y-53442569D02*
X160696992Y-53394950D01*
X160696992Y-53394950D02*
X160744611Y-53347331D01*
X160744611Y-53347331D02*
X160744611Y-53442569D01*
X160125564Y-54347331D02*
X160220802Y-54299712D01*
X160220802Y-54299712D02*
X160268421Y-54204473D01*
X160268421Y-54204473D02*
X160268421Y-53347331D01*
X159363659Y-54299712D02*
X159458897Y-54347331D01*
X159458897Y-54347331D02*
X159649373Y-54347331D01*
X159649373Y-54347331D02*
X159744611Y-54299712D01*
X159744611Y-54299712D02*
X159792230Y-54204473D01*
X159792230Y-54204473D02*
X159792230Y-53823521D01*
X159792230Y-53823521D02*
X159744611Y-53728283D01*
X159744611Y-53728283D02*
X159649373Y-53680664D01*
X159649373Y-53680664D02*
X159458897Y-53680664D01*
X159458897Y-53680664D02*
X159363659Y-53728283D01*
X159363659Y-53728283D02*
X159316040Y-53823521D01*
X159316040Y-53823521D02*
X159316040Y-53918759D01*
X159316040Y-53918759D02*
X159792230Y-54013997D01*
X165601755Y-55290608D02*
X165601755Y-55957275D01*
X165839850Y-54909656D02*
X166077945Y-55623941D01*
X166077945Y-55623941D02*
X165458898Y-55623941D01*
X165173183Y-55957275D02*
X164649374Y-55290608D01*
X165173183Y-55290608D02*
X164649374Y-55957275D01*
X163839850Y-55290608D02*
X163839850Y-55957275D01*
X164077945Y-54909656D02*
X164316040Y-55623941D01*
X164316040Y-55623941D02*
X163696993Y-55623941D01*
X162554135Y-55957275D02*
X162554135Y-54957275D01*
X162554135Y-54957275D02*
X162220802Y-55671560D01*
X162220802Y-55671560D02*
X161887469Y-54957275D01*
X161887469Y-54957275D02*
X161887469Y-55957275D01*
X160982707Y-55957275D02*
X160982707Y-55433465D01*
X160982707Y-55433465D02*
X161030326Y-55338227D01*
X161030326Y-55338227D02*
X161125564Y-55290608D01*
X161125564Y-55290608D02*
X161316040Y-55290608D01*
X161316040Y-55290608D02*
X161411278Y-55338227D01*
X160982707Y-55909656D02*
X161077945Y-55957275D01*
X161077945Y-55957275D02*
X161316040Y-55957275D01*
X161316040Y-55957275D02*
X161411278Y-55909656D01*
X161411278Y-55909656D02*
X161458897Y-55814417D01*
X161458897Y-55814417D02*
X161458897Y-55719179D01*
X161458897Y-55719179D02*
X161411278Y-55623941D01*
X161411278Y-55623941D02*
X161316040Y-55576322D01*
X161316040Y-55576322D02*
X161077945Y-55576322D01*
X161077945Y-55576322D02*
X160982707Y-55528703D01*
X160649373Y-55290608D02*
X160268421Y-55290608D01*
X160506516Y-54957275D02*
X160506516Y-55814417D01*
X160506516Y-55814417D02*
X160458897Y-55909656D01*
X160458897Y-55909656D02*
X160363659Y-55957275D01*
X160363659Y-55957275D02*
X160268421Y-55957275D01*
X159935087Y-55957275D02*
X159935087Y-55290608D01*
X159935087Y-55481084D02*
X159887468Y-55385846D01*
X159887468Y-55385846D02*
X159839849Y-55338227D01*
X159839849Y-55338227D02*
X159744611Y-55290608D01*
X159744611Y-55290608D02*
X159649373Y-55290608D01*
X159316039Y-55957275D02*
X159316039Y-55290608D01*
X159316039Y-54957275D02*
X159363658Y-55004894D01*
X159363658Y-55004894D02*
X159316039Y-55052513D01*
X159316039Y-55052513D02*
X159268420Y-55004894D01*
X159268420Y-55004894D02*
X159316039Y-54957275D01*
X159316039Y-54957275D02*
X159316039Y-55052513D01*
X158935087Y-55957275D02*
X158411278Y-55290608D01*
X158935087Y-55290608D02*
X158411278Y-55957275D01*
X165458898Y-57567219D02*
X165792231Y-57091028D01*
X166030326Y-57567219D02*
X166030326Y-56567219D01*
X166030326Y-56567219D02*
X165649374Y-56567219D01*
X165649374Y-56567219D02*
X165554136Y-56614838D01*
X165554136Y-56614838D02*
X165506517Y-56662457D01*
X165506517Y-56662457D02*
X165458898Y-56757695D01*
X165458898Y-56757695D02*
X165458898Y-56900552D01*
X165458898Y-56900552D02*
X165506517Y-56995790D01*
X165506517Y-56995790D02*
X165554136Y-57043409D01*
X165554136Y-57043409D02*
X165649374Y-57091028D01*
X165649374Y-57091028D02*
X166030326Y-57091028D01*
X164649374Y-57519600D02*
X164744612Y-57567219D01*
X164744612Y-57567219D02*
X164935088Y-57567219D01*
X164935088Y-57567219D02*
X165030326Y-57519600D01*
X165030326Y-57519600D02*
X165077945Y-57424361D01*
X165077945Y-57424361D02*
X165077945Y-57043409D01*
X165077945Y-57043409D02*
X165030326Y-56948171D01*
X165030326Y-56948171D02*
X164935088Y-56900552D01*
X164935088Y-56900552D02*
X164744612Y-56900552D01*
X164744612Y-56900552D02*
X164649374Y-56948171D01*
X164649374Y-56948171D02*
X164601755Y-57043409D01*
X164601755Y-57043409D02*
X164601755Y-57138647D01*
X164601755Y-57138647D02*
X165077945Y-57233885D01*
X164268421Y-56900552D02*
X164030326Y-57567219D01*
X164030326Y-57567219D02*
X163792231Y-56900552D01*
X162887469Y-57567219D02*
X163458897Y-57567219D01*
X163173183Y-57567219D02*
X163173183Y-56567219D01*
X163173183Y-56567219D02*
X163268421Y-56710076D01*
X163268421Y-56710076D02*
X163363659Y-56805314D01*
X163363659Y-56805314D02*
X163458897Y-56852933D01*
D11*
X162892381Y-96024819D02*
X163225714Y-95548628D01*
X163463809Y-96024819D02*
X163463809Y-95024819D01*
X163463809Y-95024819D02*
X163082857Y-95024819D01*
X163082857Y-95024819D02*
X162987619Y-95072438D01*
X162987619Y-95072438D02*
X162940000Y-95120057D01*
X162940000Y-95120057D02*
X162892381Y-95215295D01*
X162892381Y-95215295D02*
X162892381Y-95358152D01*
X162892381Y-95358152D02*
X162940000Y-95453390D01*
X162940000Y-95453390D02*
X162987619Y-95501009D01*
X162987619Y-95501009D02*
X163082857Y-95548628D01*
X163082857Y-95548628D02*
X163463809Y-95548628D01*
X162463809Y-95501009D02*
X162130476Y-95501009D01*
X161987619Y-96024819D02*
X162463809Y-96024819D01*
X162463809Y-96024819D02*
X162463809Y-95024819D01*
X162463809Y-95024819D02*
X161987619Y-95024819D01*
X161606666Y-95977200D02*
X161463809Y-96024819D01*
X161463809Y-96024819D02*
X161225714Y-96024819D01*
X161225714Y-96024819D02*
X161130476Y-95977200D01*
X161130476Y-95977200D02*
X161082857Y-95929580D01*
X161082857Y-95929580D02*
X161035238Y-95834342D01*
X161035238Y-95834342D02*
X161035238Y-95739104D01*
X161035238Y-95739104D02*
X161082857Y-95643866D01*
X161082857Y-95643866D02*
X161130476Y-95596247D01*
X161130476Y-95596247D02*
X161225714Y-95548628D01*
X161225714Y-95548628D02*
X161416190Y-95501009D01*
X161416190Y-95501009D02*
X161511428Y-95453390D01*
X161511428Y-95453390D02*
X161559047Y-95405771D01*
X161559047Y-95405771D02*
X161606666Y-95310533D01*
X161606666Y-95310533D02*
X161606666Y-95215295D01*
X161606666Y-95215295D02*
X161559047Y-95120057D01*
X161559047Y-95120057D02*
X161511428Y-95072438D01*
X161511428Y-95072438D02*
X161416190Y-95024819D01*
X161416190Y-95024819D02*
X161178095Y-95024819D01*
X161178095Y-95024819D02*
X161035238Y-95072438D01*
X160606666Y-95501009D02*
X160273333Y-95501009D01*
X160130476Y-96024819D02*
X160606666Y-96024819D01*
X160606666Y-96024819D02*
X160606666Y-95024819D01*
X160606666Y-95024819D02*
X160130476Y-95024819D01*
X159844761Y-95024819D02*
X159273333Y-95024819D01*
X159559047Y-96024819D02*
X159559047Y-95024819D01*
X151129819Y-92415595D02*
X151939342Y-92415595D01*
X151939342Y-92415595D02*
X152034580Y-92463214D01*
X152034580Y-92463214D02*
X152082200Y-92510833D01*
X152082200Y-92510833D02*
X152129819Y-92606071D01*
X152129819Y-92606071D02*
X152129819Y-92796547D01*
X152129819Y-92796547D02*
X152082200Y-92891785D01*
X152082200Y-92891785D02*
X152034580Y-92939404D01*
X152034580Y-92939404D02*
X151939342Y-92987023D01*
X151939342Y-92987023D02*
X151129819Y-92987023D01*
X152129819Y-93987023D02*
X152129819Y-93415595D01*
X152129819Y-93701309D02*
X151129819Y-93701309D01*
X151129819Y-93701309D02*
X151272676Y-93606071D01*
X151272676Y-93606071D02*
X151367914Y-93510833D01*
X151367914Y-93510833D02*
X151415533Y-93415595D01*
D12*
%TO.C,RESET*%
X158690000Y-92820000D02*
X158690000Y-90820000D01*
X159690000Y-94120000D02*
X160140000Y-94570000D01*
X159690000Y-89520000D02*
X160140000Y-89070000D01*
X160140000Y-94570000D02*
X162740000Y-94570000D01*
X160140000Y-89070000D02*
X162740000Y-89070000D01*
X163190000Y-94120000D02*
X162740000Y-94570000D01*
X163190000Y-89520000D02*
X162740000Y-89070000D01*
X164190000Y-92820000D02*
X164190000Y-90820000D01*
%TO.C,U1*%
X150645000Y-97367500D02*
X150165000Y-97367500D01*
X150405000Y-97037500D01*
X150645000Y-97367500D01*
G36*
X150645000Y-97367500D02*
G01*
X150165000Y-97367500D01*
X150405000Y-97037500D01*
X150645000Y-97367500D01*
G37*
X144090000Y-90867500D02*
X144090000Y-95487500D01*
X150860000Y-95487500D02*
X150860000Y-90867500D01*
%TO.C,J1*%
X149430000Y-51910000D02*
X144415000Y-51910000D01*
X149430000Y-52403292D02*
X149430000Y-51910000D01*
X144415000Y-52752077D02*
X144415000Y-51910000D01*
X144415000Y-54230000D02*
X144415000Y-53387923D01*
X149430000Y-54230000D02*
X149430000Y-53736708D01*
X149430000Y-54230000D02*
X144415000Y-54230000D01*
X150240000Y-54230000D02*
X151050000Y-54230000D01*
X151050000Y-54230000D02*
X151050000Y-53070000D01*
%TD*%
%LPC*%
D13*
%TO.C,MX5*%
X132870000Y-83700000D03*
D14*
X137950000Y-83700000D03*
D13*
X143030000Y-83700000D03*
D15*
X140490000Y-78620000D03*
X134140000Y-81160000D03*
%TD*%
D13*
%TO.C,MX16*%
X113670000Y-64510000D03*
D14*
X118750000Y-64510000D03*
D13*
X123830000Y-64510000D03*
D15*
X121290000Y-59430000D03*
X114940000Y-61970000D03*
%TD*%
D13*
%TO.C,MX15*%
X171230000Y-122050000D03*
D14*
X176310000Y-122050000D03*
D13*
X181390000Y-122050000D03*
D15*
X178850000Y-116970000D03*
X172500000Y-119510000D03*
%TD*%
D13*
%TO.C,MX14*%
X171230000Y-102850000D03*
D14*
X176310000Y-102850000D03*
D13*
X181390000Y-102850000D03*
D15*
X178850000Y-97770000D03*
X172500000Y-100310000D03*
%TD*%
D13*
%TO.C,MX13*%
X152050000Y-122050000D03*
D14*
X157130000Y-122050000D03*
D13*
X162210000Y-122050000D03*
D15*
X159670000Y-116970000D03*
X153320000Y-119510000D03*
%TD*%
D13*
%TO.C,MX12*%
X152050000Y-102860000D03*
D14*
X157130000Y-102860000D03*
D13*
X162210000Y-102860000D03*
D15*
X159670000Y-97780000D03*
X153320000Y-100320000D03*
%TD*%
D13*
%TO.C,MX11*%
X132890000Y-122050000D03*
D14*
X137970000Y-122050000D03*
D13*
X143050000Y-122050000D03*
D15*
X140510000Y-116970000D03*
X134160000Y-119510000D03*
%TD*%
D13*
%TO.C,MX10*%
X132850000Y-102860000D03*
D14*
X137930000Y-102860000D03*
D13*
X143010000Y-102860000D03*
D15*
X140470000Y-97780000D03*
X134120000Y-100320000D03*
%TD*%
%TO.C,MX9*%
X114960000Y-119490000D03*
X121310000Y-116950000D03*
D13*
X123850000Y-122030000D03*
D14*
X118770000Y-122030000D03*
D13*
X113690000Y-122030000D03*
%TD*%
%TO.C,MX8*%
X113670000Y-102870000D03*
D14*
X118750000Y-102870000D03*
D13*
X123830000Y-102870000D03*
D15*
X121290000Y-97790000D03*
X114940000Y-100330000D03*
%TD*%
%TO.C,MX7*%
X172500000Y-81150000D03*
X178850000Y-78610000D03*
D13*
X181390000Y-83690000D03*
D14*
X176310000Y-83690000D03*
D13*
X171230000Y-83690000D03*
%TD*%
D15*
%TO.C,MX6*%
X153340000Y-81160000D03*
X159690000Y-78620000D03*
D13*
X162230000Y-83700000D03*
D14*
X157150000Y-83700000D03*
D13*
X152070000Y-83700000D03*
%TD*%
D15*
%TO.C,MX4*%
X114940000Y-81150000D03*
X121290000Y-78610000D03*
D13*
X123830000Y-83690000D03*
D14*
X118750000Y-83690000D03*
D13*
X113670000Y-83690000D03*
%TD*%
%TO.C,MX3*%
X171240000Y-64510000D03*
D14*
X176320000Y-64510000D03*
D13*
X181400000Y-64510000D03*
D15*
X178860000Y-59430000D03*
X172510000Y-61970000D03*
%TD*%
%TO.C,MX2*%
X153330000Y-61970000D03*
X159680000Y-59430000D03*
D13*
X162220000Y-64510000D03*
D14*
X157140000Y-64510000D03*
D13*
X152060000Y-64510000D03*
%TD*%
D16*
%TO.C,RESET*%
X158440000Y-93695000D03*
X164440000Y-93695000D03*
X158440000Y-89945000D03*
X164440000Y-89945000D03*
%TD*%
D17*
%TO.C,U1*%
X150400000Y-90315000D03*
X149750000Y-90315000D03*
X149100000Y-90315000D03*
X148450000Y-90315000D03*
X147800000Y-90315000D03*
X147150000Y-90315000D03*
X146500000Y-90315000D03*
X145850000Y-90315000D03*
X145200000Y-90315000D03*
X144550000Y-90315000D03*
X144550000Y-96040000D03*
X145200000Y-96040000D03*
X145850000Y-96040000D03*
X146500000Y-96040000D03*
X147150000Y-96040000D03*
X147800000Y-96040000D03*
X148450000Y-96040000D03*
X149100000Y-96040000D03*
X149750000Y-96040000D03*
X150400000Y-96040000D03*
%TD*%
D18*
%TO.C,J1*%
X145160000Y-53070000D03*
X146430000Y-53070000D03*
X147700000Y-53070000D03*
X148970000Y-53070000D03*
D19*
X150240000Y-53070000D03*
%TD*%
D20*
%TO.C,H4*%
X105590000Y-52970000D03*
%TD*%
%TO.C,H3*%
X105590000Y-134070000D03*
%TD*%
%TO.C,H2*%
X189340000Y-134070000D03*
%TD*%
%TO.C,H1*%
X189340000Y-52970000D03*
%TD*%
D13*
%TO.C,MX1*%
X132870000Y-64510000D03*
D14*
X137950000Y-64510000D03*
D13*
X143030000Y-64510000D03*
D15*
X140490000Y-59430000D03*
X134140000Y-61970000D03*
%TD*%
%LPD*%
M02*
