%TF.GenerationSoftware,KiCad,Pcbnew,9.0.7*%
%TF.CreationDate,2026-03-20T17:42:59+01:00*%
%TF.ProjectId,Slaveboard,536c6176-6562-46f6-9172-642e6b696361,rev?*%
%TF.SameCoordinates,Original*%
%TF.FileFunction,Soldermask,Bot*%
%TF.FilePolarity,Negative*%
%FSLAX46Y46*%
G04 Gerber Fmt 4.6, Leading zero omitted, Abs format (unit mm)*
G04 Created by KiCad (PCBNEW 9.0.7) date 2026-03-20 17:42:59*
%MOMM*%
%LPD*%
G01*
G04 APERTURE LIST*
G04 Aperture macros list*
%AMRoundRect*
0 Rectangle with rounded corners*
0 $1 Rounding radius*
0 $2 $3 $4 $5 $6 $7 $8 $9 X,Y pos of 4 corners*
0 Add a 4 corners polygon primitive as box body*
4,1,4,$2,$3,$4,$5,$6,$7,$8,$9,$2,$3,0*
0 Add four circle primitives for the rounded corners*
1,1,$1+$1,$2,$3*
1,1,$1+$1,$4,$5*
1,1,$1+$1,$6,$7*
1,1,$1+$1,$8,$9*
0 Add four rect primitives between the rounded corners*
20,1,$1+$1,$2,$3,$4,$5,0*
20,1,$1+$1,$4,$5,$6,$7,0*
20,1,$1+$1,$6,$7,$8,$9,0*
20,1,$1+$1,$8,$9,$2,$3,0*%
G04 Aperture macros list end*
%ADD10C,1.700000*%
%ADD11C,4.000000*%
%ADD12C,2.200000*%
%ADD13R,1.000000X0.750000*%
%ADD14RoundRect,0.100000X0.100000X-0.637500X0.100000X0.637500X-0.100000X0.637500X-0.100000X-0.637500X0*%
%ADD15C,1.000000*%
%ADD16R,1.000000X1.000000*%
%ADD17C,3.800000*%
G04 APERTURE END LIST*
D10*
%TO.C,MX5*%
X132870000Y-83700000D03*
D11*
X137950000Y-83700000D03*
D10*
X143030000Y-83700000D03*
D12*
X140490000Y-78620000D03*
X134140000Y-81160000D03*
%TD*%
D10*
%TO.C,MX16*%
X113670000Y-64510000D03*
D11*
X118750000Y-64510000D03*
D10*
X123830000Y-64510000D03*
D12*
X121290000Y-59430000D03*
X114940000Y-61970000D03*
%TD*%
D10*
%TO.C,MX15*%
X171230000Y-122050000D03*
D11*
X176310000Y-122050000D03*
D10*
X181390000Y-122050000D03*
D12*
X178850000Y-116970000D03*
X172500000Y-119510000D03*
%TD*%
D10*
%TO.C,MX14*%
X171230000Y-102850000D03*
D11*
X176310000Y-102850000D03*
D10*
X181390000Y-102850000D03*
D12*
X178850000Y-97770000D03*
X172500000Y-100310000D03*
%TD*%
D10*
%TO.C,MX13*%
X152050000Y-122050000D03*
D11*
X157130000Y-122050000D03*
D10*
X162210000Y-122050000D03*
D12*
X159670000Y-116970000D03*
X153320000Y-119510000D03*
%TD*%
D10*
%TO.C,MX12*%
X152050000Y-102860000D03*
D11*
X157130000Y-102860000D03*
D10*
X162210000Y-102860000D03*
D12*
X159670000Y-97780000D03*
X153320000Y-100320000D03*
%TD*%
D10*
%TO.C,MX11*%
X132890000Y-122050000D03*
D11*
X137970000Y-122050000D03*
D10*
X143050000Y-122050000D03*
D12*
X140510000Y-116970000D03*
X134160000Y-119510000D03*
%TD*%
D10*
%TO.C,MX10*%
X132850000Y-102860000D03*
D11*
X137930000Y-102860000D03*
D10*
X143010000Y-102860000D03*
D12*
X140470000Y-97780000D03*
X134120000Y-100320000D03*
%TD*%
%TO.C,MX9*%
X114960000Y-119490000D03*
X121310000Y-116950000D03*
D10*
X123850000Y-122030000D03*
D11*
X118770000Y-122030000D03*
D10*
X113690000Y-122030000D03*
%TD*%
%TO.C,MX8*%
X113670000Y-102870000D03*
D11*
X118750000Y-102870000D03*
D10*
X123830000Y-102870000D03*
D12*
X121290000Y-97790000D03*
X114940000Y-100330000D03*
%TD*%
%TO.C,MX7*%
X172500000Y-81150000D03*
X178850000Y-78610000D03*
D10*
X181390000Y-83690000D03*
D11*
X176310000Y-83690000D03*
D10*
X171230000Y-83690000D03*
%TD*%
D12*
%TO.C,MX6*%
X153340000Y-81160000D03*
X159690000Y-78620000D03*
D10*
X162230000Y-83700000D03*
D11*
X157150000Y-83700000D03*
D10*
X152070000Y-83700000D03*
%TD*%
D12*
%TO.C,MX4*%
X114940000Y-81150000D03*
X121290000Y-78610000D03*
D10*
X123830000Y-83690000D03*
D11*
X118750000Y-83690000D03*
D10*
X113670000Y-83690000D03*
%TD*%
%TO.C,MX3*%
X171240000Y-64510000D03*
D11*
X176320000Y-64510000D03*
D10*
X181400000Y-64510000D03*
D12*
X178860000Y-59430000D03*
X172510000Y-61970000D03*
%TD*%
%TO.C,MX2*%
X153330000Y-61970000D03*
X159680000Y-59430000D03*
D10*
X162220000Y-64510000D03*
D11*
X157140000Y-64510000D03*
D10*
X152060000Y-64510000D03*
%TD*%
D13*
%TO.C,RESET*%
X158440000Y-93695000D03*
X164440000Y-93695000D03*
X158440000Y-89945000D03*
X164440000Y-89945000D03*
%TD*%
D14*
%TO.C,U1*%
X150400000Y-90315000D03*
X149750000Y-90315000D03*
X149100000Y-90315000D03*
X148450000Y-90315000D03*
X147800000Y-90315000D03*
X147150000Y-90315000D03*
X146500000Y-90315000D03*
X145850000Y-90315000D03*
X145200000Y-90315000D03*
X144550000Y-90315000D03*
X144550000Y-96040000D03*
X145200000Y-96040000D03*
X145850000Y-96040000D03*
X146500000Y-96040000D03*
X147150000Y-96040000D03*
X147800000Y-96040000D03*
X148450000Y-96040000D03*
X149100000Y-96040000D03*
X149750000Y-96040000D03*
X150400000Y-96040000D03*
%TD*%
D15*
%TO.C,J1*%
X145160000Y-53070000D03*
X146430000Y-53070000D03*
X147700000Y-53070000D03*
X148970000Y-53070000D03*
D16*
X150240000Y-53070000D03*
%TD*%
D17*
%TO.C,H4*%
X105590000Y-52970000D03*
%TD*%
%TO.C,H3*%
X105590000Y-134070000D03*
%TD*%
%TO.C,H2*%
X189340000Y-134070000D03*
%TD*%
%TO.C,H1*%
X189340000Y-52970000D03*
%TD*%
D10*
%TO.C,MX1*%
X132870000Y-64510000D03*
D11*
X137950000Y-64510000D03*
D10*
X143030000Y-64510000D03*
D12*
X140490000Y-59430000D03*
X134140000Y-61970000D03*
%TD*%
M02*
