M48
; DRILL file {KiCad 9.0.7} date 2026-03-20T17:42:59+0100
; FORMAT={-:-/ absolute / inch / decimal}
; #@! TF.CreationDate,2026-03-20T17:42:59+01:00
; #@! TF.GenerationSoftware,Kicad,Pcbnew,9.0.7
; #@! TF.FileFunction,Plated,1,4,PTH
FMAT,2
INCH
; #@! TA.AperFunction,Plated,PTH,ViaDrill
T1C0.0118
; #@! TA.AperFunction,Plated,PTH,ComponentDrill
T2C0.0256
; #@! TA.AperFunction,Plated,PTH,ComponentDrill
T3C0.0591
; #@! TA.AperFunction,Plated,PTH,ComponentDrill
T4C0.0866
%
G90
G05
T1
X4.2992Y-4.1807
X4.3012Y-2.7043
X4.3012Y-4.9524
X4.3031Y-3.4425
X5.0295Y-4.3453
X5.0531Y-3.4622
X5.0531Y-4.1807
X5.0551Y-2.6984
X5.0551Y-4.9484
X5.0882Y-4.3453
X5.7165Y-3.9051
X5.724Y-3.9366
X5.7402Y-3.4063
X5.7544Y-2.9319
X5.7673Y-3.8984
X5.7854Y-3.0126
X5.8091Y-2.6925
X5.8091Y-3.4701
X5.8091Y-4.1827
X5.8091Y-4.9504
X5.8283Y-3.8413
X5.8579Y-4.048
X5.8736Y-3.424
X5.8874Y-3.6169
X5.8874Y-3.7272
X5.9248Y-3.0539
X5.9543Y-3.5008
X5.9917Y-3.7567
X6.0291Y-3.7055
X6.4858Y-3.4083
X6.561Y-4.1827
X6.563Y-3.4839
X6.563Y-4.9484
X6.565Y-2.7043
T2
X5.715Y-2.0894
X5.765Y-2.0894
X5.815Y-2.0894
X5.865Y-2.0894
X5.915Y-2.0894
T3
X4.5252Y-2.4398
X4.5252Y-3.1949
X4.5252Y-3.95
X4.526Y-4.7043
X4.7752Y-2.3398
X4.7752Y-3.0949
X4.7752Y-3.85
X4.776Y-4.6043
X5.2803Y-3.9496
X5.2811Y-2.4398
X5.2811Y-3.1953
X5.2819Y-4.7051
X5.5303Y-3.8496
X5.5311Y-2.3398
X5.5311Y-3.0953
X5.5319Y-4.6051
X6.0362Y-3.9496
X6.0362Y-4.7051
X6.0366Y-2.4398
X6.037Y-3.1953
X6.2862Y-3.8496
X6.2862Y-4.6051
X6.2866Y-2.3398
X6.287Y-3.0953
X6.7913Y-3.1949
X6.7913Y-3.9492
X6.7913Y-4.7051
X6.7917Y-2.4398
X7.0413Y-3.0949
X7.0413Y-3.8492
X7.0413Y-4.6051
X7.0417Y-2.3398
T4
X4.1571Y-2.0854
X4.1571Y-5.2783
X7.4543Y-2.0854
X7.4543Y-5.2783
M30
