%TF.GenerationSoftware,KiCad,Pcbnew,9.0.7*%
%TF.CreationDate,2026-03-22T17:03:30+01:00*%
%TF.ProjectId,SnapCore-Devboard-Rev1,536e6170-436f-4726-952d-446576626f61,rev?*%
%TF.SameCoordinates,Original*%
%TF.FileFunction,Copper,L2,Inr*%
%TF.FilePolarity,Positive*%
%FSLAX46Y46*%
G04 Gerber Fmt 4.6, Leading zero omitted, Abs format (unit mm)*
G04 Created by KiCad (PCBNEW 9.0.7) date 2026-03-22 17:03:30*
%MOMM*%
%LPD*%
G01*
G04 APERTURE LIST*
G04 Aperture macros list*
%AMRoundRect*
0 Rectangle with rounded corners*
0 $1 Rounding radius*
0 $2 $3 $4 $5 $6 $7 $8 $9 X,Y pos of 4 corners*
0 Add a 4 corners polygon primitive as box body*
4,1,4,$2,$3,$4,$5,$6,$7,$8,$9,$2,$3,0*
0 Add four circle primitives for the rounded corners*
1,1,$1+$1,$2,$3*
1,1,$1+$1,$4,$5*
1,1,$1+$1,$6,$7*
1,1,$1+$1,$8,$9*
0 Add four rect primitives between the rounded corners*
20,1,$1+$1,$2,$3,$4,$5,0*
20,1,$1+$1,$4,$5,$6,$7,0*
20,1,$1+$1,$6,$7,$8,$9,0*
20,1,$1+$1,$8,$9,$2,$3,0*%
G04 Aperture macros list end*
%TA.AperFunction,ComponentPad*%
%ADD10C,3.500000*%
%TD*%
%TA.AperFunction,ComponentPad*%
%ADD11O,2.000000X1.700000*%
%TD*%
%TA.AperFunction,ComponentPad*%
%ADD12RoundRect,0.250000X0.750000X-0.600000X0.750000X0.600000X-0.750000X0.600000X-0.750000X-0.600000X0*%
%TD*%
%TA.AperFunction,HeatsinkPad*%
%ADD13C,0.500000*%
%TD*%
%TA.AperFunction,HeatsinkPad*%
%ADD14O,1.000000X1.800000*%
%TD*%
%TA.AperFunction,HeatsinkPad*%
%ADD15O,1.000000X2.100000*%
%TD*%
%TA.AperFunction,ComponentPad*%
%ADD16C,1.000000*%
%TD*%
%TA.AperFunction,ComponentPad*%
%ADD17R,1.000000X1.000000*%
%TD*%
%TA.AperFunction,ViaPad*%
%ADD18C,0.600000*%
%TD*%
G04 APERTURE END LIST*
D10*
%TO.N,N/C*%
%TO.C,H2*%
X121700000Y-91800000D03*
%TD*%
%TO.N,N/C*%
%TO.C,H3*%
X121700000Y-128000000D03*
%TD*%
D11*
%TO.N,GND*%
%TO.C,BAT*%
X120100000Y-119850000D03*
D12*
%TO.N,Net-(BAT_CONN2-Pin_1)*%
X120100000Y-122350000D03*
%TD*%
D13*
%TO.N,unconnected-(U5-EPAD-Pad9)*%
%TO.C,U5*%
X111620000Y-112770000D03*
X111620000Y-111570000D03*
X111620000Y-110370000D03*
X110220000Y-112770000D03*
X110220000Y-111570000D03*
X110220000Y-110370000D03*
%TD*%
D14*
%TO.N,GND*%
%TO.C,J2*%
X115300000Y-128190000D03*
D15*
X115300000Y-124010000D03*
D14*
X106660000Y-128190000D03*
D15*
X106660000Y-124010000D03*
%TD*%
D10*
%TO.N,N/C*%
%TO.C,H4*%
X101750000Y-91800000D03*
%TD*%
%TO.N,N/C*%
%TO.C,H1*%
X101770000Y-128000000D03*
%TD*%
D16*
%TO.N,GND*%
%TO.C,J3*%
X100050000Y-116800000D03*
%TO.N,P0.24_QSPI_SIO_1*%
X100050000Y-115530000D03*
%TO.N,P0.22_QSPI_SIO_2*%
X100050000Y-114260000D03*
%TO.N,P0.20_QSPI_SIO_0*%
X100050000Y-112990000D03*
%TO.N,P0.21_QSPI_SCK*%
X100050000Y-111720000D03*
%TO.N,P0.25_QSPI_CSN*%
X100050000Y-110450000D03*
%TO.N,P0.23_QSPI_SIO_3*%
X100050000Y-109180000D03*
%TO.N,GND*%
X100050000Y-107910000D03*
%TO.N,3V3*%
X100050000Y-106640000D03*
%TO.N,P0.10{slash}NFC2*%
X100050000Y-105370000D03*
%TO.N,P0.09{slash}NFC1*%
X100050000Y-104100000D03*
%TO.N,SWDIO*%
X100050000Y-102830000D03*
%TO.N,SWDCLK*%
X100050000Y-101560000D03*
%TO.N,P1.00_PDM_CLK*%
X100050000Y-100290000D03*
%TO.N,P0.16_PDM_DATA*%
X100050000Y-99020000D03*
%TO.N,INTERNAL_I2C_SCL*%
X100050000Y-97750000D03*
%TO.N,INTERNAL_I2C_SDA*%
X100050000Y-96480000D03*
D17*
%TO.N,VBUS*%
X100050000Y-95210000D03*
%TD*%
D18*
%TO.N,GND*%
X109975000Y-89650000D03*
X105100000Y-91125000D03*
X107100000Y-91000000D03*
X116400000Y-91175000D03*
X114225000Y-91150000D03*
X108575000Y-89650000D03*
X124100000Y-89700000D03*
X118800000Y-89700000D03*
X116375000Y-89700000D03*
X114200000Y-89700000D03*
X99350000Y-89650000D03*
X103450000Y-89650000D03*
X105350000Y-89650000D03*
X107050000Y-89650000D03*
%TO.N,VIN*%
X109500000Y-115350000D03*
X113753098Y-120808975D03*
X105399000Y-115200000D03*
%TO.N,3V3*%
X120350000Y-98500000D03*
X114080000Y-95010000D03*
X112960000Y-106931000D03*
X115150000Y-100030000D03*
X104235707Y-107175707D03*
X101750000Y-104010000D03*
X107900000Y-104300000D03*
X107100000Y-98450000D03*
X113850000Y-116350000D03*
X113550000Y-104500000D03*
X104100000Y-117550000D03*
%TO.N,VBUS*%
X114629923Y-114581667D03*
X113600000Y-122350000D03*
X114985000Y-109665000D03*
X104401000Y-110194972D03*
X102290000Y-102590000D03*
X123770000Y-108960000D03*
X106850000Y-113900000D03*
X107650000Y-121000000D03*
%TO.N,BAT0*%
X119100000Y-114200000D03*
X117500000Y-119400000D03*
X103389999Y-108021416D03*
X115800000Y-113750000D03*
%TO.N,RESET*%
X118980000Y-95050000D03*
X105780000Y-109680000D03*
X102300000Y-120900000D03*
X118587815Y-108527815D03*
%TO.N,Net-(U1-DEC1)*%
X106550000Y-103900000D03*
X107300000Y-105050000D03*
%TO.N,P0.31_AIN7_BAT*%
X107100000Y-100800000D03*
X120400000Y-99500000D03*
%TO.N,INTERNAL_I2C_SCL*%
X110580000Y-104930000D03*
%TO.N,INTERNAL_I2C_SDA*%
X111800000Y-105070000D03*
%TO.N,DEC4*%
X114170000Y-93110000D03*
X105959998Y-101469998D03*
X109270000Y-96170607D03*
%TO.N,USB_D-*%
X119500000Y-102850000D03*
X110200000Y-124700000D03*
%TO.N,USB_D+*%
X119500000Y-101800000D03*
X110998231Y-124753215D03*
%TO.N,P0.09{slash}NFC1*%
X103233563Y-99005778D03*
X111920000Y-95400000D03*
%TO.N,P1.00_PDM_CLK*%
X115201000Y-95775225D03*
%TO.N,P0.16_PDM_DATA*%
X116400000Y-101050000D03*
%TO.N,P0.22_QSPI_SIO_2*%
X115913397Y-98061927D03*
%TO.N,SWDCLK*%
X105326473Y-98125000D03*
X113200000Y-95850000D03*
%TO.N,SWDIO*%
X103851838Y-98405778D03*
X114000000Y-95850000D03*
%TO.N,P0.20_QSPI_SIO_0*%
X117014316Y-97152690D03*
%TO.N,P0.23_QSPI_SIO_3*%
X114344387Y-107693027D03*
%TO.N,P0.24_QSPI_SIO_1*%
X115797571Y-96308242D03*
%TO.N,P0.21_QSPI_SCK*%
X105070000Y-109160000D03*
%TO.N,P0.25_QSPI_CSN*%
X115272239Y-107425000D03*
%TO.N,P0.10{slash}NFC2*%
X111791932Y-94610316D03*
%TO.N,GND*%
X103700000Y-111930948D03*
X106850000Y-109650000D03*
X109041587Y-108000233D03*
X106950000Y-112250000D03*
X116190000Y-93140000D03*
X117850000Y-106450000D03*
X120630000Y-112410000D03*
X108800000Y-91000000D03*
X105500000Y-108300000D03*
X108650000Y-121450000D03*
X104091000Y-104146627D03*
X109450000Y-119800000D03*
X105600000Y-118900000D03*
X113640000Y-93840000D03*
X102950000Y-94250000D03*
X116000000Y-94750000D03*
X108750000Y-94000000D03*
X112200000Y-91150000D03*
X113350000Y-121500000D03*
X123160000Y-105130000D03*
X118450000Y-115550000D03*
X106080000Y-92050000D03*
X114800000Y-122050000D03*
X108700000Y-116750000D03*
X120100000Y-118450000D03*
X116500000Y-100000000D03*
X112675000Y-89675000D03*
X108750000Y-92600000D03*
X107300000Y-99350000D03*
X114900000Y-110950000D03*
X112200000Y-92650000D03*
X118550000Y-104250000D03*
X114900000Y-117700000D03*
X107169669Y-122180331D03*
X106600000Y-101950000D03*
X105800000Y-95200000D03*
%TD*%
%TA.AperFunction,Conductor*%
%TO.N,GND*%
G36*
X124792539Y-89169685D02*
G01*
X124838294Y-89222489D01*
X124849500Y-89274000D01*
X124849500Y-127496948D01*
X124849351Y-127503033D01*
X124831743Y-127861432D01*
X124830550Y-127873542D01*
X124778347Y-128225467D01*
X124775973Y-128237402D01*
X124689526Y-128582518D01*
X124685994Y-128594162D01*
X124580142Y-128890000D01*
X124566142Y-128929127D01*
X124561485Y-128940370D01*
X124409366Y-129262000D01*
X124403629Y-129272732D01*
X124220729Y-129577881D01*
X124213969Y-129587999D01*
X124002028Y-129873769D01*
X123994308Y-129883175D01*
X123755388Y-130146783D01*
X123746783Y-130155388D01*
X123483175Y-130394308D01*
X123473769Y-130402028D01*
X123187999Y-130613969D01*
X123177881Y-130620729D01*
X122872732Y-130803629D01*
X122862000Y-130809366D01*
X122540370Y-130961485D01*
X122529134Y-130966139D01*
X122405442Y-131010397D01*
X122194162Y-131085994D01*
X122182518Y-131089526D01*
X121837402Y-131175973D01*
X121825467Y-131178347D01*
X121473542Y-131230550D01*
X121461432Y-131231743D01*
X121123927Y-131248324D01*
X121103031Y-131249351D01*
X121096949Y-131249500D01*
X102303051Y-131249500D01*
X102296968Y-131249351D01*
X102274856Y-131248264D01*
X101938567Y-131231743D01*
X101926457Y-131230550D01*
X101574532Y-131178347D01*
X101562597Y-131175973D01*
X101217481Y-131089526D01*
X101205837Y-131085994D01*
X100870858Y-130966136D01*
X100859629Y-130961485D01*
X100537999Y-130809366D01*
X100527272Y-130803631D01*
X100222118Y-130620729D01*
X100212000Y-130613969D01*
X99926230Y-130402028D01*
X99916824Y-130394308D01*
X99722650Y-130218319D01*
X99653209Y-130155381D01*
X99644618Y-130146790D01*
X99405691Y-129883175D01*
X99397971Y-129873769D01*
X99186030Y-129587999D01*
X99179270Y-129577881D01*
X99118316Y-129476185D01*
X98996363Y-129272720D01*
X98990639Y-129262012D01*
X98838511Y-128940363D01*
X98833867Y-128929151D01*
X98714000Y-128594147D01*
X98710473Y-128582518D01*
X98624023Y-128237389D01*
X98621652Y-128225467D01*
X98569449Y-127873542D01*
X98568257Y-127861439D01*
X98567917Y-127854527D01*
X98567917Y-127854525D01*
X98567916Y-127854523D01*
X98567816Y-127852486D01*
X99519500Y-127852486D01*
X99519500Y-128147513D01*
X99531335Y-128237402D01*
X99558007Y-128439993D01*
X99629228Y-128705796D01*
X99634361Y-128724951D01*
X99634364Y-128724961D01*
X99747254Y-128997500D01*
X99747258Y-128997510D01*
X99894761Y-129252993D01*
X100074352Y-129487040D01*
X100074358Y-129487047D01*
X100282952Y-129695641D01*
X100282959Y-129695647D01*
X100517006Y-129875238D01*
X100772489Y-130022741D01*
X100772490Y-130022741D01*
X100772493Y-130022743D01*
X101045048Y-130135639D01*
X101330007Y-130211993D01*
X101622494Y-130250500D01*
X101622501Y-130250500D01*
X101917499Y-130250500D01*
X101917506Y-130250500D01*
X102209993Y-130211993D01*
X102494952Y-130135639D01*
X102767507Y-130022743D01*
X103022994Y-129875238D01*
X103257042Y-129695646D01*
X103465646Y-129487042D01*
X103645238Y-129252994D01*
X103792743Y-128997507D01*
X103905639Y-128724952D01*
X103981993Y-128439993D01*
X104020500Y-128147506D01*
X104020500Y-127852494D01*
X103999964Y-127696512D01*
X103999305Y-127691504D01*
X105660000Y-127691504D01*
X105660000Y-127940000D01*
X106360000Y-127940000D01*
X106360000Y-128440000D01*
X105660000Y-128440000D01*
X105660000Y-128688495D01*
X105698427Y-128881681D01*
X105698430Y-128881693D01*
X105773807Y-129063671D01*
X105773814Y-129063684D01*
X105883248Y-129227462D01*
X105883251Y-129227466D01*
X106022533Y-129366748D01*
X106022537Y-129366751D01*
X106186315Y-129476185D01*
X106186328Y-129476192D01*
X106368308Y-129551569D01*
X106410000Y-129559862D01*
X106410000Y-128756988D01*
X106419940Y-128774205D01*
X106475795Y-128830060D01*
X106544204Y-128869556D01*
X106620504Y-128890000D01*
X106699496Y-128890000D01*
X106775796Y-128869556D01*
X106844205Y-128830060D01*
X106900060Y-128774205D01*
X106910000Y-128756988D01*
X106910000Y-129559862D01*
X106951690Y-129551569D01*
X106951692Y-129551569D01*
X107133671Y-129476192D01*
X107133684Y-129476185D01*
X107297462Y-129366751D01*
X107297466Y-129366748D01*
X107436748Y-129227466D01*
X107436751Y-129227462D01*
X107546185Y-129063684D01*
X107546192Y-129063671D01*
X107621569Y-128881693D01*
X107621572Y-128881681D01*
X107659999Y-128688495D01*
X107660000Y-128688492D01*
X107660000Y-128440000D01*
X106960000Y-128440000D01*
X106960000Y-127940000D01*
X107660000Y-127940000D01*
X107660000Y-127691508D01*
X107659999Y-127691504D01*
X114300000Y-127691504D01*
X114300000Y-127940000D01*
X115000000Y-127940000D01*
X115000000Y-128440000D01*
X114300000Y-128440000D01*
X114300000Y-128688495D01*
X114338427Y-128881681D01*
X114338430Y-128881693D01*
X114413807Y-129063671D01*
X114413814Y-129063684D01*
X114523248Y-129227462D01*
X114523251Y-129227466D01*
X114662533Y-129366748D01*
X114662537Y-129366751D01*
X114826315Y-129476185D01*
X114826328Y-129476192D01*
X115008308Y-129551569D01*
X115050000Y-129559862D01*
X115050000Y-128756988D01*
X115059940Y-128774205D01*
X115115795Y-128830060D01*
X115184204Y-128869556D01*
X115260504Y-128890000D01*
X115339496Y-128890000D01*
X115415796Y-128869556D01*
X115484205Y-128830060D01*
X115540060Y-128774205D01*
X115550000Y-128756988D01*
X115550000Y-129559862D01*
X115591690Y-129551569D01*
X115591692Y-129551569D01*
X115773671Y-129476192D01*
X115773684Y-129476185D01*
X115937462Y-129366751D01*
X115937466Y-129366748D01*
X116076748Y-129227466D01*
X116076751Y-129227462D01*
X116186185Y-129063684D01*
X116186192Y-129063671D01*
X116261569Y-128881693D01*
X116261572Y-128881681D01*
X116299999Y-128688495D01*
X116300000Y-128688492D01*
X116300000Y-128440000D01*
X115600000Y-128440000D01*
X115600000Y-127940000D01*
X116300000Y-127940000D01*
X116300000Y-127852486D01*
X119449500Y-127852486D01*
X119449500Y-128147513D01*
X119461335Y-128237402D01*
X119488007Y-128439993D01*
X119559228Y-128705796D01*
X119564361Y-128724951D01*
X119564364Y-128724961D01*
X119677254Y-128997500D01*
X119677258Y-128997510D01*
X119824761Y-129252993D01*
X120004352Y-129487040D01*
X120004358Y-129487047D01*
X120212952Y-129695641D01*
X120212959Y-129695647D01*
X120447006Y-129875238D01*
X120702489Y-130022741D01*
X120702490Y-130022741D01*
X120702493Y-130022743D01*
X120975048Y-130135639D01*
X121260007Y-130211993D01*
X121552494Y-130250500D01*
X121552501Y-130250500D01*
X121847499Y-130250500D01*
X121847506Y-130250500D01*
X122139993Y-130211993D01*
X122424952Y-130135639D01*
X122697507Y-130022743D01*
X122952994Y-129875238D01*
X123187042Y-129695646D01*
X123395646Y-129487042D01*
X123575238Y-129252994D01*
X123722743Y-128997507D01*
X123835639Y-128724952D01*
X123911993Y-128439993D01*
X123950500Y-128147506D01*
X123950500Y-127852494D01*
X123911993Y-127560007D01*
X123835639Y-127275048D01*
X123722743Y-127002493D01*
X123622247Y-126828429D01*
X123575238Y-126747006D01*
X123395647Y-126512959D01*
X123395641Y-126512952D01*
X123187047Y-126304358D01*
X123187040Y-126304352D01*
X122952993Y-126124761D01*
X122697510Y-125977258D01*
X122697500Y-125977254D01*
X122424961Y-125864364D01*
X122424954Y-125864362D01*
X122424952Y-125864361D01*
X122139993Y-125788007D01*
X122091113Y-125781571D01*
X121847513Y-125749500D01*
X121847506Y-125749500D01*
X121552494Y-125749500D01*
X121552486Y-125749500D01*
X121274085Y-125786153D01*
X121260007Y-125788007D01*
X120975048Y-125864361D01*
X120975038Y-125864364D01*
X120702499Y-125977254D01*
X120702489Y-125977258D01*
X120447006Y-126124761D01*
X120212959Y-126304352D01*
X120212952Y-126304358D01*
X120004358Y-126512952D01*
X120004352Y-126512959D01*
X119824761Y-126747006D01*
X119677258Y-127002489D01*
X119677254Y-127002499D01*
X119564364Y-127275038D01*
X119564361Y-127275048D01*
X119490705Y-127549940D01*
X119488008Y-127560004D01*
X119488006Y-127560015D01*
X119449500Y-127852486D01*
X116300000Y-127852486D01*
X116300000Y-127691508D01*
X116299999Y-127691504D01*
X116261572Y-127498318D01*
X116261569Y-127498306D01*
X116186192Y-127316328D01*
X116186185Y-127316315D01*
X116076751Y-127152537D01*
X116076748Y-127152533D01*
X115937466Y-127013251D01*
X115937462Y-127013248D01*
X115773684Y-126903814D01*
X115773671Y-126903807D01*
X115591691Y-126828429D01*
X115591683Y-126828427D01*
X115550000Y-126820135D01*
X115550000Y-127623011D01*
X115540060Y-127605795D01*
X115484205Y-127549940D01*
X115415796Y-127510444D01*
X115339496Y-127490000D01*
X115260504Y-127490000D01*
X115184204Y-127510444D01*
X115115795Y-127549940D01*
X115059940Y-127605795D01*
X115050000Y-127623011D01*
X115050000Y-126820136D01*
X115049999Y-126820135D01*
X115008316Y-126828427D01*
X115008308Y-126828429D01*
X114826328Y-126903807D01*
X114826315Y-126903814D01*
X114662537Y-127013248D01*
X114662533Y-127013251D01*
X114523251Y-127152533D01*
X114523248Y-127152537D01*
X114413814Y-127316315D01*
X114413807Y-127316328D01*
X114338430Y-127498306D01*
X114338427Y-127498318D01*
X114300000Y-127691504D01*
X107659999Y-127691504D01*
X107621572Y-127498318D01*
X107621569Y-127498306D01*
X107546192Y-127316328D01*
X107546185Y-127316315D01*
X107436751Y-127152537D01*
X107436748Y-127152533D01*
X107297466Y-127013251D01*
X107297462Y-127013248D01*
X107133684Y-126903814D01*
X107133671Y-126903807D01*
X106951691Y-126828429D01*
X106951683Y-126828427D01*
X106910000Y-126820135D01*
X106910000Y-127623011D01*
X106900060Y-127605795D01*
X106844205Y-127549940D01*
X106775796Y-127510444D01*
X106699496Y-127490000D01*
X106620504Y-127490000D01*
X106544204Y-127510444D01*
X106475795Y-127549940D01*
X106419940Y-127605795D01*
X106410000Y-127623011D01*
X106410000Y-126820136D01*
X106409999Y-126820135D01*
X106368316Y-126828427D01*
X106368308Y-126828429D01*
X106186328Y-126903807D01*
X106186315Y-126903814D01*
X106022537Y-127013248D01*
X106022533Y-127013251D01*
X105883251Y-127152533D01*
X105883248Y-127152537D01*
X105773814Y-127316315D01*
X105773807Y-127316328D01*
X105698430Y-127498306D01*
X105698427Y-127498318D01*
X105660000Y-127691504D01*
X103999305Y-127691504D01*
X103988021Y-127605795D01*
X103981993Y-127560007D01*
X103905639Y-127275048D01*
X103792743Y-127002493D01*
X103692247Y-126828429D01*
X103645238Y-126747006D01*
X103465647Y-126512959D01*
X103465641Y-126512952D01*
X103257047Y-126304358D01*
X103257040Y-126304352D01*
X103022993Y-126124761D01*
X102767510Y-125977258D01*
X102767500Y-125977254D01*
X102494961Y-125864364D01*
X102494954Y-125864362D01*
X102494952Y-125864361D01*
X102209993Y-125788007D01*
X102161113Y-125781571D01*
X101917513Y-125749500D01*
X101917506Y-125749500D01*
X101622494Y-125749500D01*
X101622486Y-125749500D01*
X101344085Y-125786153D01*
X101330007Y-125788007D01*
X101045048Y-125864361D01*
X101045038Y-125864364D01*
X100772499Y-125977254D01*
X100772489Y-125977258D01*
X100517006Y-126124761D01*
X100282959Y-126304352D01*
X100282952Y-126304358D01*
X100074358Y-126512952D01*
X100074352Y-126512959D01*
X99894761Y-126747006D01*
X99747258Y-127002489D01*
X99747254Y-127002499D01*
X99634364Y-127275038D01*
X99634361Y-127275048D01*
X99560705Y-127549940D01*
X99558008Y-127560004D01*
X99558006Y-127560015D01*
X99519500Y-127852486D01*
X98567816Y-127852486D01*
X98550649Y-127503032D01*
X98550500Y-127496948D01*
X98550500Y-127445417D01*
X98550432Y-127444666D01*
X98545501Y-123361504D01*
X105660000Y-123361504D01*
X105660000Y-123760000D01*
X106360000Y-123760000D01*
X106360000Y-124260000D01*
X105660000Y-124260000D01*
X105660000Y-124658495D01*
X105698427Y-124851681D01*
X105698430Y-124851693D01*
X105773807Y-125033671D01*
X105773814Y-125033684D01*
X105883248Y-125197462D01*
X105883251Y-125197466D01*
X106022533Y-125336748D01*
X106022537Y-125336751D01*
X106186315Y-125446185D01*
X106186328Y-125446192D01*
X106368308Y-125521569D01*
X106410000Y-125529862D01*
X106410000Y-124726988D01*
X106419940Y-124744205D01*
X106475795Y-124800060D01*
X106544204Y-124839556D01*
X106620504Y-124860000D01*
X106699496Y-124860000D01*
X106775796Y-124839556D01*
X106844205Y-124800060D01*
X106900060Y-124744205D01*
X106910000Y-124726988D01*
X106910000Y-125529862D01*
X106951690Y-125521569D01*
X106951692Y-125521569D01*
X107133671Y-125446192D01*
X107133684Y-125446185D01*
X107297462Y-125336751D01*
X107297466Y-125336748D01*
X107436748Y-125197466D01*
X107436751Y-125197462D01*
X107546185Y-125033684D01*
X107546187Y-125033680D01*
X107592942Y-124920802D01*
X107636783Y-124866399D01*
X107703077Y-124844333D01*
X107770776Y-124861612D01*
X107795185Y-124880573D01*
X107801106Y-124886494D01*
X107908394Y-124948436D01*
X108028057Y-124980500D01*
X108028060Y-124980500D01*
X108151940Y-124980500D01*
X108151943Y-124980500D01*
X108271606Y-124948436D01*
X108378894Y-124886494D01*
X108466494Y-124798894D01*
X108528436Y-124691606D01*
X108547314Y-124621153D01*
X109399500Y-124621153D01*
X109399500Y-124778846D01*
X109430261Y-124933489D01*
X109430264Y-124933501D01*
X109490602Y-125079172D01*
X109490609Y-125079185D01*
X109578210Y-125210288D01*
X109578213Y-125210292D01*
X109689707Y-125321786D01*
X109689711Y-125321789D01*
X109820814Y-125409390D01*
X109820827Y-125409397D01*
X109966498Y-125469735D01*
X109966503Y-125469737D01*
X110121153Y-125500499D01*
X110121156Y-125500500D01*
X110121158Y-125500500D01*
X110278844Y-125500500D01*
X110278845Y-125500499D01*
X110433497Y-125469737D01*
X110493392Y-125444926D01*
X110562861Y-125437457D01*
X110609740Y-125456387D01*
X110619047Y-125462606D01*
X110619058Y-125462612D01*
X110761395Y-125521569D01*
X110764734Y-125522952D01*
X110919384Y-125553714D01*
X110919387Y-125553715D01*
X110919389Y-125553715D01*
X111077075Y-125553715D01*
X111077076Y-125553714D01*
X111231728Y-125522952D01*
X111377410Y-125462609D01*
X111508520Y-125375004D01*
X111620020Y-125263504D01*
X111707625Y-125132394D01*
X111767968Y-124986712D01*
X111798731Y-124832057D01*
X111798731Y-124674373D01*
X111798731Y-124674370D01*
X111798730Y-124674368D01*
X111778356Y-124571943D01*
X111767968Y-124519718D01*
X111727884Y-124422947D01*
X111707628Y-124374042D01*
X111707621Y-124374029D01*
X111620020Y-124242926D01*
X111620017Y-124242922D01*
X111508523Y-124131428D01*
X111508519Y-124131425D01*
X111377416Y-124043824D01*
X111377403Y-124043817D01*
X111231732Y-123983479D01*
X111231720Y-123983476D01*
X111077076Y-123952715D01*
X111077073Y-123952715D01*
X110919389Y-123952715D01*
X110919386Y-123952715D01*
X110764742Y-123983475D01*
X110764737Y-123983477D01*
X110764735Y-123983477D01*
X110764734Y-123983478D01*
X110747518Y-123990609D01*
X110704834Y-124008289D01*
X110635365Y-124015756D01*
X110588491Y-123996828D01*
X110579177Y-123990604D01*
X110433501Y-123930264D01*
X110433489Y-123930261D01*
X110278845Y-123899500D01*
X110278842Y-123899500D01*
X110121158Y-123899500D01*
X110121155Y-123899500D01*
X109966510Y-123930261D01*
X109966498Y-123930264D01*
X109820827Y-123990602D01*
X109820814Y-123990609D01*
X109689711Y-124078210D01*
X109689707Y-124078213D01*
X109578213Y-124189707D01*
X109578210Y-124189711D01*
X109490609Y-124320814D01*
X109490602Y-124320827D01*
X109430264Y-124466498D01*
X109430261Y-124466510D01*
X109399500Y-124621153D01*
X108547314Y-124621153D01*
X108560500Y-124571943D01*
X108560500Y-124448057D01*
X108528436Y-124328394D01*
X108466494Y-124221106D01*
X108378894Y-124133506D01*
X108271606Y-124071564D01*
X108271607Y-124071564D01*
X108241690Y-124063548D01*
X108151943Y-124039500D01*
X108028057Y-124039500D01*
X107938309Y-124063548D01*
X107908393Y-124071564D01*
X107801107Y-124133505D01*
X107801104Y-124133507D01*
X107710931Y-124223681D01*
X107649608Y-124257166D01*
X107623250Y-124260000D01*
X106960000Y-124260000D01*
X106960000Y-123760000D01*
X107660000Y-123760000D01*
X107660000Y-123361508D01*
X107659999Y-123361504D01*
X107621572Y-123168318D01*
X107621569Y-123168306D01*
X107546192Y-122986328D01*
X107546185Y-122986315D01*
X107436751Y-122822537D01*
X107436748Y-122822533D01*
X107297466Y-122683251D01*
X107297462Y-122683248D01*
X107133684Y-122573814D01*
X107133671Y-122573807D01*
X106951691Y-122498429D01*
X106951683Y-122498427D01*
X106910000Y-122490135D01*
X106910000Y-123293011D01*
X106900060Y-123275795D01*
X106844205Y-123219940D01*
X106775796Y-123180444D01*
X106699496Y-123160000D01*
X106620504Y-123160000D01*
X106544204Y-123180444D01*
X106475795Y-123219940D01*
X106419940Y-123275795D01*
X106410000Y-123293011D01*
X106410000Y-122490136D01*
X106409999Y-122490135D01*
X106368316Y-122498427D01*
X106368308Y-122498429D01*
X106186328Y-122573807D01*
X106186315Y-122573814D01*
X106022537Y-122683248D01*
X106022533Y-122683251D01*
X105883251Y-122822533D01*
X105883248Y-122822537D01*
X105773814Y-122986315D01*
X105773807Y-122986328D01*
X105698430Y-123168306D01*
X105698427Y-123168318D01*
X105660000Y-123361504D01*
X98545501Y-123361504D01*
X98544184Y-122271153D01*
X112799500Y-122271153D01*
X112799500Y-122428846D01*
X112830261Y-122583489D01*
X112830264Y-122583501D01*
X112890602Y-122729172D01*
X112890609Y-122729185D01*
X112978210Y-122860288D01*
X112978213Y-122860292D01*
X113089707Y-122971786D01*
X113089711Y-122971789D01*
X113220814Y-123059390D01*
X113220827Y-123059397D01*
X113366498Y-123119735D01*
X113366503Y-123119737D01*
X113521153Y-123150499D01*
X113521156Y-123150500D01*
X113521158Y-123150500D01*
X113678844Y-123150500D01*
X113678845Y-123150499D01*
X113833497Y-123119737D01*
X113979179Y-123059394D01*
X114110289Y-122971789D01*
X114197907Y-122884170D01*
X114259228Y-122850687D01*
X114328920Y-122855671D01*
X114384854Y-122897542D01*
X114409271Y-122963006D01*
X114400148Y-123019305D01*
X114338430Y-123168306D01*
X114338427Y-123168318D01*
X114300000Y-123361504D01*
X114300000Y-123760000D01*
X115000000Y-123760000D01*
X115000000Y-124260000D01*
X114336750Y-124260000D01*
X114269711Y-124240315D01*
X114249069Y-124223681D01*
X114158895Y-124133507D01*
X114158894Y-124133506D01*
X114051606Y-124071564D01*
X114051607Y-124071564D01*
X114021690Y-124063548D01*
X113931943Y-124039500D01*
X113808057Y-124039500D01*
X113718309Y-124063548D01*
X113688393Y-124071564D01*
X113581107Y-124133505D01*
X113581104Y-124133507D01*
X113493507Y-124221104D01*
X113493505Y-124221107D01*
X113431564Y-124328393D01*
X113431564Y-124328394D01*
X113399500Y-124448057D01*
X113399500Y-124571943D01*
X113431564Y-124691606D01*
X113493506Y-124798894D01*
X113581106Y-124886494D01*
X113688394Y-124948436D01*
X113808057Y-124980500D01*
X113808060Y-124980500D01*
X113931940Y-124980500D01*
X113931943Y-124980500D01*
X114051606Y-124948436D01*
X114158894Y-124886494D01*
X114164812Y-124880575D01*
X114226132Y-124847089D01*
X114295824Y-124852070D01*
X114351759Y-124893939D01*
X114367056Y-124920802D01*
X114413807Y-125033671D01*
X114413814Y-125033684D01*
X114523248Y-125197462D01*
X114523251Y-125197466D01*
X114662533Y-125336748D01*
X114662537Y-125336751D01*
X114826315Y-125446185D01*
X114826328Y-125446192D01*
X115008308Y-125521569D01*
X115050000Y-125529862D01*
X115050000Y-124726988D01*
X115059940Y-124744205D01*
X115115795Y-124800060D01*
X115184204Y-124839556D01*
X115260504Y-124860000D01*
X115339496Y-124860000D01*
X115415796Y-124839556D01*
X115484205Y-124800060D01*
X115540060Y-124744205D01*
X115550000Y-124726988D01*
X115550000Y-125529862D01*
X115591690Y-125521569D01*
X115591692Y-125521569D01*
X115773671Y-125446192D01*
X115773684Y-125446185D01*
X115937462Y-125336751D01*
X115937466Y-125336748D01*
X116076748Y-125197466D01*
X116076751Y-125197462D01*
X116186185Y-125033684D01*
X116186192Y-125033671D01*
X116261569Y-124851693D01*
X116261572Y-124851681D01*
X116299999Y-124658495D01*
X116300000Y-124658492D01*
X116300000Y-124260000D01*
X115600000Y-124260000D01*
X115600000Y-123760000D01*
X116300000Y-123760000D01*
X116300000Y-123361508D01*
X116299999Y-123361504D01*
X116261572Y-123168318D01*
X116261569Y-123168306D01*
X116186192Y-122986328D01*
X116186185Y-122986315D01*
X116076751Y-122822537D01*
X116076748Y-122822533D01*
X115937466Y-122683251D01*
X115937462Y-122683248D01*
X115773684Y-122573814D01*
X115773671Y-122573807D01*
X115591691Y-122498429D01*
X115591683Y-122498427D01*
X115550000Y-122490135D01*
X115550000Y-123293011D01*
X115540060Y-123275795D01*
X115484205Y-123219940D01*
X115415796Y-123180444D01*
X115339496Y-123160000D01*
X115260504Y-123160000D01*
X115184204Y-123180444D01*
X115115795Y-123219940D01*
X115059940Y-123275795D01*
X115050000Y-123293011D01*
X115050000Y-122490136D01*
X115049999Y-122490135D01*
X115008316Y-122498427D01*
X115008308Y-122498429D01*
X114826328Y-122573807D01*
X114826315Y-122573814D01*
X114662537Y-122683248D01*
X114532964Y-122812821D01*
X114471641Y-122846305D01*
X114401949Y-122841321D01*
X114346016Y-122799449D01*
X114321599Y-122733985D01*
X114330721Y-122677689D01*
X114369737Y-122583497D01*
X114400500Y-122428842D01*
X114400500Y-122271158D01*
X114400500Y-122271155D01*
X114400499Y-122271153D01*
X114369738Y-122116510D01*
X114369737Y-122116503D01*
X114369735Y-122116498D01*
X114309397Y-121970827D01*
X114309390Y-121970814D01*
X114221789Y-121839711D01*
X114221786Y-121839707D01*
X114167055Y-121784976D01*
X114167003Y-121784925D01*
X114110289Y-121728211D01*
X114106735Y-121725836D01*
X114099427Y-121718671D01*
X114088981Y-121699983D01*
X118599500Y-121699983D01*
X118599500Y-123000001D01*
X118599501Y-123000018D01*
X118610000Y-123102796D01*
X118610001Y-123102799D01*
X118648818Y-123219940D01*
X118665186Y-123269334D01*
X118757288Y-123418656D01*
X118881344Y-123542712D01*
X119030666Y-123634814D01*
X119197203Y-123689999D01*
X119299991Y-123700500D01*
X120900008Y-123700499D01*
X121002797Y-123689999D01*
X121169334Y-123634814D01*
X121318656Y-123542712D01*
X121442712Y-123418656D01*
X121534814Y-123269334D01*
X121589999Y-123102797D01*
X121600500Y-123000009D01*
X121600499Y-121699992D01*
X121597408Y-121669737D01*
X121589999Y-121597203D01*
X121589998Y-121597200D01*
X121561198Y-121510288D01*
X121534814Y-121430666D01*
X121442712Y-121281344D01*
X121318656Y-121157288D01*
X121169334Y-121065186D01*
X121169332Y-121065185D01*
X121163440Y-121061551D01*
X121116716Y-121009603D01*
X121105493Y-120940641D01*
X121133337Y-120876558D01*
X121140856Y-120868330D01*
X121279728Y-120729458D01*
X121404620Y-120557557D01*
X121501095Y-120368217D01*
X121566757Y-120166129D01*
X121566757Y-120166126D01*
X121577231Y-120100000D01*
X120533012Y-120100000D01*
X120565925Y-120042993D01*
X120600000Y-119915826D01*
X120600000Y-119784174D01*
X120565925Y-119657007D01*
X120533012Y-119600000D01*
X121577231Y-119600000D01*
X121566757Y-119533873D01*
X121566757Y-119533870D01*
X121501095Y-119331782D01*
X121404620Y-119142442D01*
X121279727Y-118970540D01*
X121279723Y-118970535D01*
X121129464Y-118820276D01*
X121129459Y-118820272D01*
X120957557Y-118695379D01*
X120768217Y-118598904D01*
X120566129Y-118533242D01*
X120356246Y-118500000D01*
X120350000Y-118500000D01*
X120350000Y-119416988D01*
X120292993Y-119384075D01*
X120165826Y-119350000D01*
X120034174Y-119350000D01*
X119907007Y-119384075D01*
X119850000Y-119416988D01*
X119850000Y-118500000D01*
X119843754Y-118500000D01*
X119633872Y-118533242D01*
X119633869Y-118533242D01*
X119431782Y-118598904D01*
X119242442Y-118695379D01*
X119070540Y-118820272D01*
X119070535Y-118820276D01*
X118920276Y-118970535D01*
X118920272Y-118970540D01*
X118795379Y-119142442D01*
X118698904Y-119331782D01*
X118633242Y-119533870D01*
X118633242Y-119533873D01*
X118622769Y-119600000D01*
X119666988Y-119600000D01*
X119634075Y-119657007D01*
X119600000Y-119784174D01*
X119600000Y-119915826D01*
X119634075Y-120042993D01*
X119666988Y-120100000D01*
X118622769Y-120100000D01*
X118633242Y-120166126D01*
X118633242Y-120166129D01*
X118698904Y-120368217D01*
X118795379Y-120557557D01*
X118920272Y-120729459D01*
X118920276Y-120729464D01*
X119059143Y-120868331D01*
X119092628Y-120929654D01*
X119087644Y-120999346D01*
X119045772Y-121055279D01*
X119036559Y-121061551D01*
X118881342Y-121157289D01*
X118757289Y-121281342D01*
X118665187Y-121430663D01*
X118665185Y-121430668D01*
X118637349Y-121514670D01*
X118610001Y-121597203D01*
X118610001Y-121597204D01*
X118610000Y-121597204D01*
X118599500Y-121699983D01*
X114088981Y-121699983D01*
X114084944Y-121692760D01*
X114068237Y-121668231D01*
X114068086Y-121662599D01*
X114065338Y-121657682D01*
X114067162Y-121628061D01*
X114066369Y-121598386D01*
X114069287Y-121593565D01*
X114069634Y-121587944D01*
X114087181Y-121564013D01*
X114102559Y-121538619D01*
X114109303Y-121533847D01*
X114110951Y-121531600D01*
X114114296Y-121530314D01*
X114127793Y-121520765D01*
X114132266Y-121518373D01*
X114132277Y-121518369D01*
X114263387Y-121430764D01*
X114374887Y-121319264D01*
X114462492Y-121188154D01*
X114522835Y-121042472D01*
X114553598Y-120887817D01*
X114553598Y-120730133D01*
X114553598Y-120730130D01*
X114553597Y-120730128D01*
X114553464Y-120729458D01*
X114522835Y-120575478D01*
X114500193Y-120520814D01*
X114462495Y-120429802D01*
X114462488Y-120429789D01*
X114374887Y-120298686D01*
X114374884Y-120298682D01*
X114263390Y-120187188D01*
X114263386Y-120187185D01*
X114132283Y-120099584D01*
X114132270Y-120099577D01*
X113986599Y-120039239D01*
X113986587Y-120039236D01*
X113831943Y-120008475D01*
X113831940Y-120008475D01*
X113674256Y-120008475D01*
X113674253Y-120008475D01*
X113519608Y-120039236D01*
X113519596Y-120039239D01*
X113373925Y-120099577D01*
X113373912Y-120099584D01*
X113242809Y-120187185D01*
X113242805Y-120187188D01*
X113131311Y-120298682D01*
X113131308Y-120298686D01*
X113043707Y-120429789D01*
X113043700Y-120429802D01*
X112983362Y-120575473D01*
X112983359Y-120575485D01*
X112952598Y-120730128D01*
X112952598Y-120887821D01*
X112983359Y-121042464D01*
X112983362Y-121042476D01*
X113043700Y-121188147D01*
X113043707Y-121188160D01*
X113131308Y-121319263D01*
X113131311Y-121319267D01*
X113242804Y-121430760D01*
X113245526Y-121432994D01*
X113246568Y-121434524D01*
X113247116Y-121435072D01*
X113247012Y-121435175D01*
X113284859Y-121490741D01*
X113286728Y-121560586D01*
X113250539Y-121620353D01*
X113225317Y-121638202D01*
X113220820Y-121640605D01*
X113089711Y-121728210D01*
X113089707Y-121728213D01*
X112978213Y-121839707D01*
X112978210Y-121839711D01*
X112890609Y-121970814D01*
X112890602Y-121970827D01*
X112830264Y-122116498D01*
X112830261Y-122116510D01*
X112799500Y-122271153D01*
X98544184Y-122271153D01*
X98542433Y-120821153D01*
X101499500Y-120821153D01*
X101499500Y-120978846D01*
X101530261Y-121133489D01*
X101530264Y-121133501D01*
X101590602Y-121279172D01*
X101590609Y-121279185D01*
X101678210Y-121410288D01*
X101678213Y-121410292D01*
X101789707Y-121521786D01*
X101789711Y-121521789D01*
X101920814Y-121609390D01*
X101920827Y-121609397D01*
X102037399Y-121657682D01*
X102066503Y-121669737D01*
X102182247Y-121692760D01*
X102221153Y-121700499D01*
X102221156Y-121700500D01*
X102221158Y-121700500D01*
X102378844Y-121700500D01*
X102378845Y-121700499D01*
X102533497Y-121669737D01*
X102679179Y-121609394D01*
X102810289Y-121521789D01*
X102921789Y-121410289D01*
X103009394Y-121279179D01*
X103069737Y-121133497D01*
X103100500Y-120978842D01*
X103100500Y-120921153D01*
X106849500Y-120921153D01*
X106849500Y-121078846D01*
X106880261Y-121233489D01*
X106880264Y-121233501D01*
X106940602Y-121379172D01*
X106940609Y-121379185D01*
X107028210Y-121510288D01*
X107028213Y-121510292D01*
X107139707Y-121621786D01*
X107139711Y-121621789D01*
X107270814Y-121709390D01*
X107270827Y-121709397D01*
X107316254Y-121728213D01*
X107416503Y-121769737D01*
X107571153Y-121800499D01*
X107571156Y-121800500D01*
X107571158Y-121800500D01*
X107728844Y-121800500D01*
X107728845Y-121800499D01*
X107883497Y-121769737D01*
X108029179Y-121709394D01*
X108160289Y-121621789D01*
X108271789Y-121510289D01*
X108359394Y-121379179D01*
X108419737Y-121233497D01*
X108450500Y-121078842D01*
X108450500Y-120921158D01*
X108450500Y-120921155D01*
X108450499Y-120921153D01*
X108439992Y-120868330D01*
X108419737Y-120766503D01*
X108378314Y-120666498D01*
X108359397Y-120620827D01*
X108359390Y-120620814D01*
X108271789Y-120489711D01*
X108271786Y-120489707D01*
X108160292Y-120378213D01*
X108160288Y-120378210D01*
X108029185Y-120290609D01*
X108029172Y-120290602D01*
X107883501Y-120230264D01*
X107883489Y-120230261D01*
X107728845Y-120199500D01*
X107728842Y-120199500D01*
X107571158Y-120199500D01*
X107571155Y-120199500D01*
X107416510Y-120230261D01*
X107416498Y-120230264D01*
X107270827Y-120290602D01*
X107270814Y-120290609D01*
X107139711Y-120378210D01*
X107139707Y-120378213D01*
X107028213Y-120489707D01*
X107028210Y-120489711D01*
X106940609Y-120620814D01*
X106940602Y-120620827D01*
X106880264Y-120766498D01*
X106880261Y-120766510D01*
X106849500Y-120921153D01*
X103100500Y-120921153D01*
X103100500Y-120821158D01*
X103100500Y-120821155D01*
X103100499Y-120821153D01*
X103082260Y-120729459D01*
X103069737Y-120666503D01*
X103050812Y-120620814D01*
X103009397Y-120520827D01*
X103009390Y-120520814D01*
X102921789Y-120389711D01*
X102921786Y-120389707D01*
X102810292Y-120278213D01*
X102810288Y-120278210D01*
X102679185Y-120190609D01*
X102679172Y-120190602D01*
X102533501Y-120130264D01*
X102533489Y-120130261D01*
X102378845Y-120099500D01*
X102378842Y-120099500D01*
X102221158Y-120099500D01*
X102221155Y-120099500D01*
X102066510Y-120130261D01*
X102066498Y-120130264D01*
X101920827Y-120190602D01*
X101920814Y-120190609D01*
X101789711Y-120278210D01*
X101789707Y-120278213D01*
X101678213Y-120389707D01*
X101678210Y-120389711D01*
X101590609Y-120520814D01*
X101590602Y-120520827D01*
X101530264Y-120666498D01*
X101530261Y-120666510D01*
X101499500Y-120821153D01*
X98542433Y-120821153D01*
X98540621Y-119321153D01*
X116699500Y-119321153D01*
X116699500Y-119478846D01*
X116730261Y-119633489D01*
X116730264Y-119633501D01*
X116790602Y-119779172D01*
X116790609Y-119779185D01*
X116878210Y-119910288D01*
X116878213Y-119910292D01*
X116989707Y-120021786D01*
X116989711Y-120021789D01*
X117120814Y-120109390D01*
X117120827Y-120109397D01*
X117257785Y-120166126D01*
X117266503Y-120169737D01*
X117416131Y-120199500D01*
X117421153Y-120200499D01*
X117421156Y-120200500D01*
X117421158Y-120200500D01*
X117578844Y-120200500D01*
X117578845Y-120200499D01*
X117733497Y-120169737D01*
X117879179Y-120109394D01*
X118010289Y-120021789D01*
X118121789Y-119910289D01*
X118209394Y-119779179D01*
X118269737Y-119633497D01*
X118300500Y-119478842D01*
X118300500Y-119321158D01*
X118300500Y-119321155D01*
X118300499Y-119321153D01*
X118269738Y-119166510D01*
X118269737Y-119166503D01*
X118259771Y-119142442D01*
X118209397Y-119020827D01*
X118209390Y-119020814D01*
X118121789Y-118889711D01*
X118121786Y-118889707D01*
X118010292Y-118778213D01*
X118010288Y-118778210D01*
X117879185Y-118690609D01*
X117879172Y-118690602D01*
X117733501Y-118630264D01*
X117733489Y-118630261D01*
X117578845Y-118599500D01*
X117578842Y-118599500D01*
X117421158Y-118599500D01*
X117421155Y-118599500D01*
X117266510Y-118630261D01*
X117266498Y-118630264D01*
X117120827Y-118690602D01*
X117120814Y-118690609D01*
X116989711Y-118778210D01*
X116989707Y-118778213D01*
X116878213Y-118889707D01*
X116878210Y-118889711D01*
X116790609Y-119020814D01*
X116790602Y-119020827D01*
X116730264Y-119166498D01*
X116730261Y-119166510D01*
X116699500Y-119321153D01*
X98540621Y-119321153D01*
X98538618Y-117662572D01*
X99540979Y-117662572D01*
X99576328Y-117686192D01*
X99758306Y-117761569D01*
X99758318Y-117761572D01*
X99951504Y-117799999D01*
X99951508Y-117800000D01*
X100148492Y-117800000D01*
X100148495Y-117799999D01*
X100341681Y-117761572D01*
X100341693Y-117761569D01*
X100523676Y-117686190D01*
X100523680Y-117686187D01*
X100559019Y-117662573D01*
X100559020Y-117662572D01*
X100367601Y-117471153D01*
X103299500Y-117471153D01*
X103299500Y-117628846D01*
X103330261Y-117783489D01*
X103330264Y-117783501D01*
X103390602Y-117929172D01*
X103390609Y-117929185D01*
X103478210Y-118060288D01*
X103478213Y-118060292D01*
X103589707Y-118171786D01*
X103589711Y-118171789D01*
X103720814Y-118259390D01*
X103720827Y-118259397D01*
X103866498Y-118319735D01*
X103866503Y-118319737D01*
X104021153Y-118350499D01*
X104021156Y-118350500D01*
X104021158Y-118350500D01*
X104178844Y-118350500D01*
X104178845Y-118350499D01*
X104333497Y-118319737D01*
X104479179Y-118259394D01*
X104610289Y-118171789D01*
X104721789Y-118060289D01*
X104809394Y-117929179D01*
X104869737Y-117783497D01*
X104900500Y-117628842D01*
X104900500Y-117471158D01*
X104900500Y-117471155D01*
X104900499Y-117471153D01*
X104869738Y-117316510D01*
X104869737Y-117316503D01*
X104869735Y-117316498D01*
X104809397Y-117170827D01*
X104809390Y-117170814D01*
X104721789Y-117039711D01*
X104721786Y-117039707D01*
X104610292Y-116928213D01*
X104610288Y-116928210D01*
X104479185Y-116840609D01*
X104479172Y-116840602D01*
X104333501Y-116780264D01*
X104333489Y-116780261D01*
X104178845Y-116749500D01*
X104178842Y-116749500D01*
X104021158Y-116749500D01*
X104021155Y-116749500D01*
X103866510Y-116780261D01*
X103866498Y-116780264D01*
X103720827Y-116840602D01*
X103720814Y-116840609D01*
X103589711Y-116928210D01*
X103589707Y-116928213D01*
X103478213Y-117039707D01*
X103478210Y-117039711D01*
X103390609Y-117170814D01*
X103390602Y-117170827D01*
X103330264Y-117316498D01*
X103330261Y-117316510D01*
X103299500Y-117471153D01*
X100367601Y-117471153D01*
X100050001Y-117153553D01*
X100050000Y-117153553D01*
X99540979Y-117662572D01*
X98538618Y-117662572D01*
X98513155Y-96578543D01*
X99049499Y-96578543D01*
X99087947Y-96771829D01*
X99087950Y-96771839D01*
X99163365Y-96953907D01*
X99163368Y-96953914D01*
X99174856Y-96971107D01*
X99224971Y-97046110D01*
X99245848Y-97112787D01*
X99227363Y-97180167D01*
X99224971Y-97183890D01*
X99163366Y-97276089D01*
X99087950Y-97458160D01*
X99087947Y-97458170D01*
X99049500Y-97651456D01*
X99049500Y-97651459D01*
X99049500Y-97848541D01*
X99049500Y-97848543D01*
X99049499Y-97848543D01*
X99087947Y-98041829D01*
X99087950Y-98041839D01*
X99162441Y-98221677D01*
X99163368Y-98223914D01*
X99191822Y-98266498D01*
X99224971Y-98316110D01*
X99245848Y-98382787D01*
X99227363Y-98450167D01*
X99224971Y-98453890D01*
X99163366Y-98546089D01*
X99087950Y-98728160D01*
X99087947Y-98728170D01*
X99049500Y-98921456D01*
X99049500Y-98921459D01*
X99049500Y-99118541D01*
X99049500Y-99118543D01*
X99049499Y-99118543D01*
X99087947Y-99311829D01*
X99087950Y-99311839D01*
X99163365Y-99493907D01*
X99163368Y-99493914D01*
X99180605Y-99519711D01*
X99224971Y-99586110D01*
X99245848Y-99652787D01*
X99227363Y-99720167D01*
X99224971Y-99723890D01*
X99163366Y-99816089D01*
X99087950Y-99998160D01*
X99087947Y-99998170D01*
X99049500Y-100191456D01*
X99049500Y-100191459D01*
X99049500Y-100388541D01*
X99049500Y-100388543D01*
X99049499Y-100388543D01*
X99087947Y-100581829D01*
X99087950Y-100581839D01*
X99155189Y-100744169D01*
X99163368Y-100763914D01*
X99207352Y-100829740D01*
X99224971Y-100856110D01*
X99245848Y-100922787D01*
X99227363Y-100990167D01*
X99224971Y-100993890D01*
X99163366Y-101086089D01*
X99087950Y-101268160D01*
X99087947Y-101268170D01*
X99049500Y-101461456D01*
X99049500Y-101461457D01*
X99049500Y-101461459D01*
X99049500Y-101658541D01*
X99049500Y-101658543D01*
X99049499Y-101658543D01*
X99087947Y-101851829D01*
X99087950Y-101851839D01*
X99141155Y-101980287D01*
X99163368Y-102033914D01*
X99207352Y-102099740D01*
X99224971Y-102126110D01*
X99245848Y-102192787D01*
X99227363Y-102260167D01*
X99224971Y-102263890D01*
X99163366Y-102356089D01*
X99087950Y-102538160D01*
X99087947Y-102538170D01*
X99049500Y-102731456D01*
X99049500Y-102731459D01*
X99049500Y-102928541D01*
X99049500Y-102928543D01*
X99049499Y-102928543D01*
X99087947Y-103121829D01*
X99087950Y-103121839D01*
X99161999Y-103300609D01*
X99163368Y-103303914D01*
X99205246Y-103366589D01*
X99224971Y-103396110D01*
X99245848Y-103462787D01*
X99227363Y-103530167D01*
X99224971Y-103533890D01*
X99163366Y-103626089D01*
X99087950Y-103808160D01*
X99087947Y-103808170D01*
X99049500Y-104001456D01*
X99049500Y-104001459D01*
X99049500Y-104198541D01*
X99049500Y-104198543D01*
X99049499Y-104198543D01*
X99087947Y-104391829D01*
X99087950Y-104391839D01*
X99157483Y-104559707D01*
X99163368Y-104573914D01*
X99187075Y-104609394D01*
X99224971Y-104666110D01*
X99245848Y-104732787D01*
X99227363Y-104800167D01*
X99224971Y-104803890D01*
X99163366Y-104896089D01*
X99087950Y-105078160D01*
X99087947Y-105078170D01*
X99049500Y-105271456D01*
X99049500Y-105271459D01*
X99049500Y-105468541D01*
X99049500Y-105468543D01*
X99049499Y-105468543D01*
X99087947Y-105661829D01*
X99087950Y-105661839D01*
X99161638Y-105839738D01*
X99163368Y-105843914D01*
X99207352Y-105909740D01*
X99224971Y-105936110D01*
X99245848Y-106002787D01*
X99227363Y-106070167D01*
X99224971Y-106073890D01*
X99163366Y-106166089D01*
X99087950Y-106348160D01*
X99087947Y-106348170D01*
X99049500Y-106541456D01*
X99049500Y-106541459D01*
X99049500Y-106738541D01*
X99049500Y-106738543D01*
X99049499Y-106738543D01*
X99087947Y-106931829D01*
X99087950Y-106931839D01*
X99158816Y-107102925D01*
X99163368Y-107113914D01*
X99197169Y-107164501D01*
X99225271Y-107206559D01*
X99246148Y-107273236D01*
X99227663Y-107340616D01*
X99225271Y-107344339D01*
X99163809Y-107436325D01*
X99088430Y-107618306D01*
X99088427Y-107618318D01*
X99050000Y-107811504D01*
X99050000Y-108008495D01*
X99088427Y-108201681D01*
X99088430Y-108201693D01*
X99163807Y-108383671D01*
X99163814Y-108383684D01*
X99225270Y-108475659D01*
X99246148Y-108542337D01*
X99227663Y-108609717D01*
X99225271Y-108613440D01*
X99163370Y-108706082D01*
X99163364Y-108706093D01*
X99087950Y-108888160D01*
X99087947Y-108888170D01*
X99049500Y-109081456D01*
X99049500Y-109081459D01*
X99049500Y-109278541D01*
X99049500Y-109278543D01*
X99049499Y-109278543D01*
X99087947Y-109471829D01*
X99087950Y-109471839D01*
X99149113Y-109619500D01*
X99163368Y-109653914D01*
X99207352Y-109719740D01*
X99224971Y-109746110D01*
X99245848Y-109812787D01*
X99227363Y-109880167D01*
X99224971Y-109883890D01*
X99163366Y-109976089D01*
X99087950Y-110158160D01*
X99087947Y-110158170D01*
X99049500Y-110351456D01*
X99049500Y-110351459D01*
X99049500Y-110548541D01*
X99049500Y-110548543D01*
X99049499Y-110548543D01*
X99087947Y-110741829D01*
X99087950Y-110741839D01*
X99132097Y-110848419D01*
X99163368Y-110923914D01*
X99190627Y-110964710D01*
X99224971Y-111016110D01*
X99245848Y-111082787D01*
X99227363Y-111150167D01*
X99224971Y-111153890D01*
X99163366Y-111246089D01*
X99087950Y-111428160D01*
X99087947Y-111428170D01*
X99049500Y-111621456D01*
X99049500Y-111621459D01*
X99049500Y-111818541D01*
X99049500Y-111818543D01*
X99049499Y-111818543D01*
X99087947Y-112011829D01*
X99087950Y-112011839D01*
X99160524Y-112187049D01*
X99163368Y-112193914D01*
X99176344Y-112213334D01*
X99224971Y-112286110D01*
X99245848Y-112352787D01*
X99227363Y-112420167D01*
X99224971Y-112423890D01*
X99163366Y-112516089D01*
X99087950Y-112698160D01*
X99087947Y-112698170D01*
X99049500Y-112891456D01*
X99049500Y-112891459D01*
X99049500Y-113088541D01*
X99049500Y-113088543D01*
X99049499Y-113088543D01*
X99087947Y-113281829D01*
X99087950Y-113281839D01*
X99163365Y-113463907D01*
X99163368Y-113463914D01*
X99201387Y-113520814D01*
X99224971Y-113556110D01*
X99245848Y-113622787D01*
X99227363Y-113690167D01*
X99224971Y-113693890D01*
X99163366Y-113786089D01*
X99087950Y-113968160D01*
X99087947Y-113968170D01*
X99049500Y-114161456D01*
X99049500Y-114161459D01*
X99049500Y-114358541D01*
X99049500Y-114358543D01*
X99049499Y-114358543D01*
X99087947Y-114551829D01*
X99087950Y-114551839D01*
X99163365Y-114733907D01*
X99163368Y-114733914D01*
X99207352Y-114799740D01*
X99224971Y-114826110D01*
X99245848Y-114892787D01*
X99227363Y-114960167D01*
X99224971Y-114963890D01*
X99163366Y-115056089D01*
X99087950Y-115238160D01*
X99087947Y-115238170D01*
X99049500Y-115431456D01*
X99049500Y-115431459D01*
X99049500Y-115628541D01*
X99049500Y-115628543D01*
X99049499Y-115628543D01*
X99087947Y-115821829D01*
X99087950Y-115821839D01*
X99149663Y-115970827D01*
X99163368Y-116003914D01*
X99200436Y-116059390D01*
X99225271Y-116096559D01*
X99246148Y-116163236D01*
X99227663Y-116230616D01*
X99225271Y-116234339D01*
X99163809Y-116326325D01*
X99088430Y-116508306D01*
X99088427Y-116508318D01*
X99050000Y-116701504D01*
X99050000Y-116898495D01*
X99088427Y-117091681D01*
X99088430Y-117091693D01*
X99163808Y-117273673D01*
X99163809Y-117273675D01*
X99187426Y-117309019D01*
X99725000Y-116771445D01*
X99725000Y-116842787D01*
X99747149Y-116925445D01*
X99789936Y-116999554D01*
X99850446Y-117060064D01*
X99924555Y-117102851D01*
X100007213Y-117125000D01*
X100092787Y-117125000D01*
X100175445Y-117102851D01*
X100249554Y-117060064D01*
X100310064Y-116999554D01*
X100352851Y-116925445D01*
X100375000Y-116842787D01*
X100375000Y-116771447D01*
X100912572Y-117309020D01*
X100912573Y-117309019D01*
X100936187Y-117273680D01*
X100936190Y-117273676D01*
X101011569Y-117091693D01*
X101011572Y-117091681D01*
X101049999Y-116898495D01*
X101050000Y-116898492D01*
X101050000Y-116701508D01*
X101049999Y-116701504D01*
X101011572Y-116508318D01*
X101011569Y-116508306D01*
X100936192Y-116326328D01*
X100936188Y-116326321D01*
X100899325Y-116271153D01*
X113049500Y-116271153D01*
X113049500Y-116428846D01*
X113080261Y-116583489D01*
X113080264Y-116583501D01*
X113140602Y-116729172D01*
X113140609Y-116729185D01*
X113228210Y-116860288D01*
X113228213Y-116860292D01*
X113339707Y-116971786D01*
X113339711Y-116971789D01*
X113470814Y-117059390D01*
X113470827Y-117059397D01*
X113548769Y-117091681D01*
X113616503Y-117119737D01*
X113771153Y-117150499D01*
X113771156Y-117150500D01*
X113771158Y-117150500D01*
X113928844Y-117150500D01*
X113928845Y-117150499D01*
X114083497Y-117119737D01*
X114196166Y-117073067D01*
X114229172Y-117059397D01*
X114229172Y-117059396D01*
X114229179Y-117059394D01*
X114360289Y-116971789D01*
X114471789Y-116860289D01*
X114559394Y-116729179D01*
X114619737Y-116583497D01*
X114650500Y-116428842D01*
X114650500Y-116271158D01*
X114650500Y-116271155D01*
X114650499Y-116271153D01*
X114619737Y-116116503D01*
X114573105Y-116003922D01*
X114559397Y-115970827D01*
X114559390Y-115970814D01*
X114471789Y-115839711D01*
X114471786Y-115839707D01*
X114360292Y-115728213D01*
X114360288Y-115728210D01*
X114229185Y-115640609D01*
X114229172Y-115640602D01*
X114083501Y-115580264D01*
X114083489Y-115580261D01*
X113928845Y-115549500D01*
X113928842Y-115549500D01*
X113771158Y-115549500D01*
X113771155Y-115549500D01*
X113616510Y-115580261D01*
X113616498Y-115580264D01*
X113470827Y-115640602D01*
X113470814Y-115640609D01*
X113339711Y-115728210D01*
X113339707Y-115728213D01*
X113228213Y-115839707D01*
X113228210Y-115839711D01*
X113140609Y-115970814D01*
X113140602Y-115970827D01*
X113080264Y-116116498D01*
X113080261Y-116116510D01*
X113049500Y-116271153D01*
X100899325Y-116271153D01*
X100874728Y-116234341D01*
X100853850Y-116167663D01*
X100872334Y-116100283D01*
X100874704Y-116096595D01*
X100936632Y-116003914D01*
X101012051Y-115821835D01*
X101024632Y-115758582D01*
X101050500Y-115628543D01*
X101050500Y-115431456D01*
X101012052Y-115238170D01*
X101012051Y-115238169D01*
X101012051Y-115238165D01*
X101012049Y-115238160D01*
X100983010Y-115168051D01*
X100983005Y-115168043D01*
X100963583Y-115121153D01*
X104598500Y-115121153D01*
X104598500Y-115278846D01*
X104629261Y-115433489D01*
X104629264Y-115433501D01*
X104689602Y-115579172D01*
X104689609Y-115579185D01*
X104777210Y-115710288D01*
X104777213Y-115710292D01*
X104888707Y-115821786D01*
X104888711Y-115821789D01*
X105019814Y-115909390D01*
X105019827Y-115909397D01*
X105165498Y-115969735D01*
X105165503Y-115969737D01*
X105320153Y-116000499D01*
X105320156Y-116000500D01*
X105320158Y-116000500D01*
X105477844Y-116000500D01*
X105477845Y-116000499D01*
X105632497Y-115969737D01*
X105778179Y-115909394D01*
X105909289Y-115821789D01*
X106020789Y-115710289D01*
X106108394Y-115579179D01*
X106168737Y-115433497D01*
X106199500Y-115278842D01*
X106199500Y-115271153D01*
X108699500Y-115271153D01*
X108699500Y-115428846D01*
X108730261Y-115583489D01*
X108730264Y-115583501D01*
X108790602Y-115729172D01*
X108790609Y-115729185D01*
X108878210Y-115860288D01*
X108878213Y-115860292D01*
X108989707Y-115971786D01*
X108989711Y-115971789D01*
X109120814Y-116059390D01*
X109120827Y-116059397D01*
X109258683Y-116116498D01*
X109266503Y-116119737D01*
X109421153Y-116150499D01*
X109421156Y-116150500D01*
X109421158Y-116150500D01*
X109578844Y-116150500D01*
X109578845Y-116150499D01*
X109589179Y-116148443D01*
X109614287Y-116143450D01*
X109614292Y-116143449D01*
X109699800Y-116126439D01*
X109733497Y-116119737D01*
X109879179Y-116059394D01*
X110010289Y-115971789D01*
X110121789Y-115860289D01*
X110209394Y-115729179D01*
X110269737Y-115583497D01*
X110300500Y-115428842D01*
X110300500Y-115271158D01*
X110300500Y-115271155D01*
X110300499Y-115271153D01*
X110287033Y-115203456D01*
X110269737Y-115116503D01*
X110259571Y-115091959D01*
X110209397Y-114970827D01*
X110209390Y-114970814D01*
X110121789Y-114839711D01*
X110121786Y-114839707D01*
X110010292Y-114728213D01*
X110010288Y-114728210D01*
X109879185Y-114640609D01*
X109879172Y-114640602D01*
X109808414Y-114611294D01*
X109733501Y-114580264D01*
X109733489Y-114580261D01*
X109578845Y-114549500D01*
X109578842Y-114549500D01*
X109421158Y-114549500D01*
X109421155Y-114549500D01*
X109266510Y-114580261D01*
X109266498Y-114580264D01*
X109120827Y-114640602D01*
X109120814Y-114640609D01*
X108989711Y-114728210D01*
X108989707Y-114728213D01*
X108878213Y-114839707D01*
X108878210Y-114839711D01*
X108790609Y-114970814D01*
X108790602Y-114970827D01*
X108730264Y-115116498D01*
X108730261Y-115116510D01*
X108699500Y-115271153D01*
X106199500Y-115271153D01*
X106199500Y-115121158D01*
X106199500Y-115121155D01*
X106199499Y-115121153D01*
X106169596Y-114970821D01*
X106168737Y-114966503D01*
X106163255Y-114953268D01*
X106108397Y-114820827D01*
X106108390Y-114820814D01*
X106020789Y-114689711D01*
X106020786Y-114689707D01*
X105909292Y-114578213D01*
X105909288Y-114578210D01*
X105778185Y-114490609D01*
X105778172Y-114490602D01*
X105632501Y-114430264D01*
X105632489Y-114430261D01*
X105477845Y-114399500D01*
X105477842Y-114399500D01*
X105320158Y-114399500D01*
X105320155Y-114399500D01*
X105165510Y-114430261D01*
X105165498Y-114430264D01*
X105019827Y-114490602D01*
X105019814Y-114490609D01*
X104888711Y-114578210D01*
X104888707Y-114578213D01*
X104777213Y-114689707D01*
X104777210Y-114689711D01*
X104689609Y-114820814D01*
X104689602Y-114820827D01*
X104629264Y-114966498D01*
X104629261Y-114966510D01*
X104598500Y-115121153D01*
X100963583Y-115121153D01*
X100936632Y-115056086D01*
X100871586Y-114958739D01*
X100868674Y-114953268D01*
X100862813Y-114924878D01*
X100854151Y-114897214D01*
X100855835Y-114891075D01*
X100854548Y-114884841D01*
X100864965Y-114857790D01*
X100872635Y-114829834D01*
X100875029Y-114826109D01*
X100887872Y-114806887D01*
X100936632Y-114733914D01*
X100946417Y-114710292D01*
X101000276Y-114580263D01*
X101012051Y-114551835D01*
X101030440Y-114459390D01*
X101050500Y-114358543D01*
X101050500Y-114161456D01*
X101012052Y-113968170D01*
X101012051Y-113968169D01*
X101012051Y-113968165D01*
X100951157Y-113821153D01*
X106049500Y-113821153D01*
X106049500Y-113978846D01*
X106080261Y-114133489D01*
X106080264Y-114133501D01*
X106140602Y-114279172D01*
X106140609Y-114279185D01*
X106228210Y-114410288D01*
X106228213Y-114410292D01*
X106339707Y-114521786D01*
X106339711Y-114521789D01*
X106470814Y-114609390D01*
X106470827Y-114609397D01*
X106594224Y-114660509D01*
X106616503Y-114669737D01*
X106771153Y-114700499D01*
X106771156Y-114700500D01*
X106771158Y-114700500D01*
X106928844Y-114700500D01*
X106928845Y-114700499D01*
X107083497Y-114669737D01*
X107229179Y-114609394D01*
X107360289Y-114521789D01*
X107379258Y-114502820D01*
X113829423Y-114502820D01*
X113829423Y-114660513D01*
X113860184Y-114815156D01*
X113860187Y-114815168D01*
X113920525Y-114960839D01*
X113920532Y-114960852D01*
X114008133Y-115091955D01*
X114008136Y-115091959D01*
X114119630Y-115203453D01*
X114119634Y-115203456D01*
X114250737Y-115291057D01*
X114250750Y-115291064D01*
X114396421Y-115351402D01*
X114396426Y-115351404D01*
X114551076Y-115382166D01*
X114551079Y-115382167D01*
X114551081Y-115382167D01*
X114708767Y-115382167D01*
X114708768Y-115382166D01*
X114863420Y-115351404D01*
X115009102Y-115291061D01*
X115140212Y-115203456D01*
X115251712Y-115091956D01*
X115339317Y-114960846D01*
X115399660Y-114815164D01*
X115430423Y-114660509D01*
X115430423Y-114643763D01*
X115450108Y-114576724D01*
X115502912Y-114530969D01*
X115572070Y-114521025D01*
X115578606Y-114522144D01*
X115619846Y-114530347D01*
X115721155Y-114550500D01*
X115721158Y-114550500D01*
X115878844Y-114550500D01*
X115878845Y-114550499D01*
X116033497Y-114519737D01*
X116179179Y-114459394D01*
X116310289Y-114371789D01*
X116421789Y-114260289D01*
X116509394Y-114129179D01*
X116509395Y-114129176D01*
X116509397Y-114129173D01*
X116512719Y-114121153D01*
X118299500Y-114121153D01*
X118299500Y-114278846D01*
X118330261Y-114433489D01*
X118330264Y-114433501D01*
X118390602Y-114579172D01*
X118390609Y-114579185D01*
X118478210Y-114710288D01*
X118478213Y-114710292D01*
X118589707Y-114821786D01*
X118589711Y-114821789D01*
X118720814Y-114909390D01*
X118720827Y-114909397D01*
X118852387Y-114963890D01*
X118866503Y-114969737D01*
X119021153Y-115000499D01*
X119021156Y-115000500D01*
X119021158Y-115000500D01*
X119178844Y-115000500D01*
X119178845Y-115000499D01*
X119333497Y-114969737D01*
X119479179Y-114909394D01*
X119610289Y-114821789D01*
X119721789Y-114710289D01*
X119809394Y-114579179D01*
X119869737Y-114433497D01*
X119900500Y-114278842D01*
X119900500Y-114121158D01*
X119900500Y-114121155D01*
X119900499Y-114121153D01*
X119873117Y-113983497D01*
X119869737Y-113966503D01*
X119866993Y-113959878D01*
X119809397Y-113820827D01*
X119809390Y-113820814D01*
X119721789Y-113689711D01*
X119721786Y-113689707D01*
X119610292Y-113578213D01*
X119610288Y-113578210D01*
X119479185Y-113490609D01*
X119479172Y-113490602D01*
X119333501Y-113430264D01*
X119333489Y-113430261D01*
X119178845Y-113399500D01*
X119178842Y-113399500D01*
X119021158Y-113399500D01*
X119021155Y-113399500D01*
X118866510Y-113430261D01*
X118866498Y-113430264D01*
X118720827Y-113490602D01*
X118720814Y-113490609D01*
X118589711Y-113578210D01*
X118589707Y-113578213D01*
X118478213Y-113689707D01*
X118478210Y-113689711D01*
X118390609Y-113820814D01*
X118390602Y-113820827D01*
X118330264Y-113966498D01*
X118330261Y-113966510D01*
X118299500Y-114121153D01*
X116512719Y-114121153D01*
X116534895Y-114067614D01*
X116534895Y-114067613D01*
X116569737Y-113983497D01*
X116600500Y-113828842D01*
X116600500Y-113671158D01*
X116600500Y-113671155D01*
X116600499Y-113671153D01*
X116591759Y-113627214D01*
X116569737Y-113516503D01*
X116569735Y-113516498D01*
X116509397Y-113370827D01*
X116509390Y-113370814D01*
X116421789Y-113239711D01*
X116421786Y-113239707D01*
X116310292Y-113128213D01*
X116310288Y-113128210D01*
X116179185Y-113040609D01*
X116179172Y-113040602D01*
X116033501Y-112980264D01*
X116033489Y-112980261D01*
X115878845Y-112949500D01*
X115878842Y-112949500D01*
X115721158Y-112949500D01*
X115721155Y-112949500D01*
X115566510Y-112980261D01*
X115566498Y-112980264D01*
X115420827Y-113040602D01*
X115420814Y-113040609D01*
X115289711Y-113128210D01*
X115289707Y-113128213D01*
X115178213Y-113239707D01*
X115178210Y-113239711D01*
X115090609Y-113370814D01*
X115090602Y-113370827D01*
X115030264Y-113516498D01*
X115030261Y-113516510D01*
X114999500Y-113671153D01*
X114999500Y-113687903D01*
X114979815Y-113754942D01*
X114927011Y-113800697D01*
X114857853Y-113810641D01*
X114851309Y-113809520D01*
X114708769Y-113781167D01*
X114708765Y-113781167D01*
X114551081Y-113781167D01*
X114551078Y-113781167D01*
X114396433Y-113811928D01*
X114396421Y-113811931D01*
X114250750Y-113872269D01*
X114250737Y-113872276D01*
X114119634Y-113959877D01*
X114119630Y-113959880D01*
X114008136Y-114071374D01*
X114008133Y-114071378D01*
X113920532Y-114202481D01*
X113920525Y-114202494D01*
X113860187Y-114348165D01*
X113860184Y-114348177D01*
X113829423Y-114502820D01*
X107379258Y-114502820D01*
X107471789Y-114410289D01*
X107559394Y-114279179D01*
X107619737Y-114133497D01*
X107650500Y-113978842D01*
X107650500Y-113821158D01*
X107650500Y-113821155D01*
X107650499Y-113821153D01*
X107637329Y-113754942D01*
X107619737Y-113666503D01*
X107602546Y-113625000D01*
X107559397Y-113520827D01*
X107559390Y-113520814D01*
X107471789Y-113389711D01*
X107471786Y-113389707D01*
X107360292Y-113278213D01*
X107360288Y-113278210D01*
X107229185Y-113190609D01*
X107229172Y-113190602D01*
X107083501Y-113130264D01*
X107083489Y-113130261D01*
X106928845Y-113099500D01*
X106928842Y-113099500D01*
X106771158Y-113099500D01*
X106771155Y-113099500D01*
X106616510Y-113130261D01*
X106616498Y-113130264D01*
X106470827Y-113190602D01*
X106470814Y-113190609D01*
X106339711Y-113278210D01*
X106339707Y-113278213D01*
X106228213Y-113389707D01*
X106228210Y-113389711D01*
X106140609Y-113520814D01*
X106140602Y-113520827D01*
X106080264Y-113666498D01*
X106080261Y-113666510D01*
X106049500Y-113821153D01*
X100951157Y-113821153D01*
X100936632Y-113786086D01*
X100872084Y-113689485D01*
X100869525Y-113684839D01*
X100863069Y-113655696D01*
X100854151Y-113627214D01*
X100855594Y-113621952D01*
X100854414Y-113616623D01*
X100864739Y-113588615D01*
X100872635Y-113559834D01*
X100875029Y-113556109D01*
X100918095Y-113491656D01*
X100936632Y-113463914D01*
X101012051Y-113281835D01*
X101042201Y-113130263D01*
X101050500Y-113088543D01*
X101050500Y-112891456D01*
X101012052Y-112698170D01*
X101012051Y-112698169D01*
X101012051Y-112698165D01*
X100951128Y-112551082D01*
X100936635Y-112516092D01*
X100936633Y-112516088D01*
X100936632Y-112516086D01*
X100875029Y-112423891D01*
X100854151Y-112357214D01*
X100872635Y-112289834D01*
X100875029Y-112286109D01*
X100894024Y-112257681D01*
X100936632Y-112193914D01*
X101012051Y-112011835D01*
X101050500Y-111818541D01*
X101050500Y-111621459D01*
X101050500Y-111621456D01*
X101012052Y-111428170D01*
X101012051Y-111428169D01*
X101012051Y-111428165D01*
X100980127Y-111351092D01*
X100936635Y-111246092D01*
X100936633Y-111246088D01*
X100936632Y-111246086D01*
X100875029Y-111153891D01*
X100854151Y-111087214D01*
X100872635Y-111019834D01*
X100875029Y-111016109D01*
X100905838Y-110970000D01*
X100936632Y-110923914D01*
X101012051Y-110741835D01*
X101042469Y-110588917D01*
X101050500Y-110548543D01*
X101050500Y-110351456D01*
X101012052Y-110158170D01*
X101012051Y-110158169D01*
X101012051Y-110158165D01*
X101012048Y-110158157D01*
X101011770Y-110157485D01*
X100994638Y-110116125D01*
X103600500Y-110116125D01*
X103600500Y-110273818D01*
X103631261Y-110428461D01*
X103631264Y-110428473D01*
X103691602Y-110574144D01*
X103691609Y-110574157D01*
X103779210Y-110705260D01*
X103779213Y-110705264D01*
X103890707Y-110816758D01*
X103890711Y-110816761D01*
X104021814Y-110904362D01*
X104021827Y-110904369D01*
X104069014Y-110923914D01*
X104167503Y-110964709D01*
X104322153Y-110995471D01*
X104322156Y-110995472D01*
X104322158Y-110995472D01*
X104479844Y-110995472D01*
X104479845Y-110995471D01*
X104634497Y-110964709D01*
X104780179Y-110904366D01*
X104911289Y-110816761D01*
X105022789Y-110705261D01*
X105110394Y-110574151D01*
X105170737Y-110428469D01*
X105170739Y-110428457D01*
X105170833Y-110428150D01*
X105170931Y-110427999D01*
X105173068Y-110422842D01*
X105174045Y-110423247D01*
X105209129Y-110369710D01*
X105272941Y-110341252D01*
X105342008Y-110351810D01*
X105358386Y-110361040D01*
X105400821Y-110389394D01*
X105400823Y-110389395D01*
X105400827Y-110389397D01*
X105532459Y-110443920D01*
X105546503Y-110449737D01*
X105701153Y-110480499D01*
X105701156Y-110480500D01*
X105701158Y-110480500D01*
X105858844Y-110480500D01*
X105858845Y-110480499D01*
X106013497Y-110449737D01*
X106027541Y-110443920D01*
X109469499Y-110443920D01*
X109498340Y-110588907D01*
X109498343Y-110588917D01*
X109554912Y-110725488D01*
X109554919Y-110725501D01*
X109637048Y-110848415D01*
X109637051Y-110848419D01*
X109670951Y-110882319D01*
X109704436Y-110943642D01*
X109699452Y-111013334D01*
X109670951Y-111057681D01*
X109637051Y-111091580D01*
X109637048Y-111091584D01*
X109554919Y-111214498D01*
X109554912Y-111214511D01*
X109498343Y-111351082D01*
X109498340Y-111351092D01*
X109469500Y-111496079D01*
X109469500Y-111496082D01*
X109469500Y-111643918D01*
X109469500Y-111643920D01*
X109469499Y-111643920D01*
X109498340Y-111788907D01*
X109498343Y-111788917D01*
X109554912Y-111925488D01*
X109554919Y-111925501D01*
X109637048Y-112048415D01*
X109637051Y-112048419D01*
X109670951Y-112082319D01*
X109704436Y-112143642D01*
X109699452Y-112213334D01*
X109670951Y-112257681D01*
X109637051Y-112291580D01*
X109637048Y-112291584D01*
X109554919Y-112414498D01*
X109554912Y-112414511D01*
X109498343Y-112551082D01*
X109498340Y-112551092D01*
X109469500Y-112696079D01*
X109469500Y-112696082D01*
X109469500Y-112843918D01*
X109469500Y-112843920D01*
X109469499Y-112843920D01*
X109498340Y-112988907D01*
X109498343Y-112988917D01*
X109554912Y-113125488D01*
X109554919Y-113125501D01*
X109637048Y-113248415D01*
X109637051Y-113248419D01*
X109741580Y-113352948D01*
X109741584Y-113352951D01*
X109864498Y-113435080D01*
X109864511Y-113435087D01*
X109998547Y-113490606D01*
X110001087Y-113491658D01*
X110001091Y-113491658D01*
X110001092Y-113491659D01*
X110146079Y-113520500D01*
X110146082Y-113520500D01*
X110293920Y-113520500D01*
X110391462Y-113501096D01*
X110438913Y-113491658D01*
X110575495Y-113435084D01*
X110698416Y-113352951D01*
X110802951Y-113248416D01*
X110816897Y-113227543D01*
X110870509Y-113182738D01*
X110939834Y-113174031D01*
X111002862Y-113204185D01*
X111023103Y-113227544D01*
X111037050Y-113248418D01*
X111141580Y-113352948D01*
X111141584Y-113352951D01*
X111264498Y-113435080D01*
X111264511Y-113435087D01*
X111398547Y-113490606D01*
X111401087Y-113491658D01*
X111401091Y-113491658D01*
X111401092Y-113491659D01*
X111546079Y-113520500D01*
X111546082Y-113520500D01*
X111693920Y-113520500D01*
X111791462Y-113501096D01*
X111838913Y-113491658D01*
X111975495Y-113435084D01*
X112098416Y-113352951D01*
X112202951Y-113248416D01*
X112285084Y-113125495D01*
X112341658Y-112988913D01*
X112370500Y-112843918D01*
X112370500Y-112696082D01*
X112370500Y-112696079D01*
X112341659Y-112551092D01*
X112341658Y-112551091D01*
X112341658Y-112551087D01*
X112327163Y-112516092D01*
X112285087Y-112414511D01*
X112285080Y-112414498D01*
X112202951Y-112291584D01*
X112202948Y-112291580D01*
X112169049Y-112257681D01*
X112135564Y-112196358D01*
X112140548Y-112126666D01*
X112169049Y-112082319D01*
X112202948Y-112048419D01*
X112202951Y-112048416D01*
X112285084Y-111925495D01*
X112341658Y-111788913D01*
X112370500Y-111643918D01*
X112370500Y-111496082D01*
X112370500Y-111496079D01*
X112341659Y-111351092D01*
X112341658Y-111351091D01*
X112341658Y-111351087D01*
X112298168Y-111246092D01*
X112285087Y-111214511D01*
X112285080Y-111214498D01*
X112202951Y-111091584D01*
X112202948Y-111091580D01*
X112169049Y-111057681D01*
X112135564Y-110996358D01*
X112140548Y-110926666D01*
X112169049Y-110882319D01*
X112202948Y-110848419D01*
X112202951Y-110848416D01*
X112285084Y-110725495D01*
X112341658Y-110588913D01*
X112363223Y-110480500D01*
X112370500Y-110443920D01*
X112370500Y-110296079D01*
X112341659Y-110151092D01*
X112341658Y-110151091D01*
X112341658Y-110151087D01*
X112341656Y-110151082D01*
X112285087Y-110014511D01*
X112285080Y-110014498D01*
X112202951Y-109891584D01*
X112202948Y-109891580D01*
X112098419Y-109787051D01*
X112098415Y-109787048D01*
X111975501Y-109704919D01*
X111975488Y-109704912D01*
X111950656Y-109694627D01*
X111950655Y-109694627D01*
X111838913Y-109648342D01*
X111838907Y-109648340D01*
X111693920Y-109619500D01*
X111693918Y-109619500D01*
X111546082Y-109619500D01*
X111546080Y-109619500D01*
X111401092Y-109648340D01*
X111401082Y-109648343D01*
X111264511Y-109704912D01*
X111264498Y-109704919D01*
X111141584Y-109787048D01*
X111141580Y-109787051D01*
X111037051Y-109891580D01*
X111037046Y-109891586D01*
X111023101Y-109912457D01*
X110969489Y-109957261D01*
X110900164Y-109965968D01*
X110837136Y-109935813D01*
X110816899Y-109912457D01*
X110802953Y-109891586D01*
X110802948Y-109891580D01*
X110698419Y-109787051D01*
X110698415Y-109787048D01*
X110575501Y-109704919D01*
X110575488Y-109704912D01*
X110438917Y-109648343D01*
X110438907Y-109648340D01*
X110293920Y-109619500D01*
X110293918Y-109619500D01*
X110146082Y-109619500D01*
X110146080Y-109619500D01*
X110001092Y-109648340D01*
X110001082Y-109648343D01*
X109864511Y-109704912D01*
X109864498Y-109704919D01*
X109741584Y-109787048D01*
X109741580Y-109787051D01*
X109637051Y-109891580D01*
X109637048Y-109891584D01*
X109554919Y-110014498D01*
X109554912Y-110014511D01*
X109498343Y-110151082D01*
X109498340Y-110151092D01*
X109469500Y-110296079D01*
X109469500Y-110296082D01*
X109469500Y-110443918D01*
X109469500Y-110443920D01*
X109469499Y-110443920D01*
X106027541Y-110443920D01*
X106159179Y-110389394D01*
X106290289Y-110301789D01*
X106318264Y-110273814D01*
X106389770Y-110202309D01*
X106401786Y-110190292D01*
X106401789Y-110190289D01*
X106489394Y-110059179D01*
X106549737Y-109913497D01*
X106580500Y-109758842D01*
X106580500Y-109601158D01*
X106580500Y-109601155D01*
X106580499Y-109601153D01*
X106577515Y-109586153D01*
X114184500Y-109586153D01*
X114184500Y-109743846D01*
X114215261Y-109898489D01*
X114215264Y-109898501D01*
X114275602Y-110044172D01*
X114275609Y-110044185D01*
X114363210Y-110175288D01*
X114363213Y-110175292D01*
X114474707Y-110286786D01*
X114474711Y-110286789D01*
X114605814Y-110374390D01*
X114605827Y-110374397D01*
X114736380Y-110428473D01*
X114751503Y-110434737D01*
X114906153Y-110465499D01*
X114906156Y-110465500D01*
X114906158Y-110465500D01*
X115063844Y-110465500D01*
X115063845Y-110465499D01*
X115218497Y-110434737D01*
X115364179Y-110374394D01*
X115495289Y-110286789D01*
X115606789Y-110175289D01*
X115694394Y-110044179D01*
X115754737Y-109898497D01*
X115785500Y-109743842D01*
X115785500Y-109586158D01*
X115785500Y-109586155D01*
X115785499Y-109586153D01*
X115762760Y-109471839D01*
X115754737Y-109431503D01*
X115738995Y-109393497D01*
X115694397Y-109285827D01*
X115694390Y-109285814D01*
X115606789Y-109154711D01*
X115606786Y-109154707D01*
X115495292Y-109043213D01*
X115495288Y-109043210D01*
X115364185Y-108955609D01*
X115364172Y-108955602D01*
X115218501Y-108895264D01*
X115218489Y-108895261D01*
X115063845Y-108864500D01*
X115063842Y-108864500D01*
X114906158Y-108864500D01*
X114906155Y-108864500D01*
X114751510Y-108895261D01*
X114751498Y-108895264D01*
X114605827Y-108955602D01*
X114605814Y-108955609D01*
X114474711Y-109043210D01*
X114474707Y-109043213D01*
X114363213Y-109154707D01*
X114363210Y-109154711D01*
X114275609Y-109285814D01*
X114275602Y-109285827D01*
X114215264Y-109431498D01*
X114215261Y-109431510D01*
X114184500Y-109586153D01*
X106577515Y-109586153D01*
X106557510Y-109485581D01*
X106549737Y-109446503D01*
X106529821Y-109398421D01*
X106489397Y-109300827D01*
X106489390Y-109300814D01*
X106401789Y-109169711D01*
X106401786Y-109169707D01*
X106290292Y-109058213D01*
X106290288Y-109058210D01*
X106159185Y-108970609D01*
X106159172Y-108970602D01*
X106013501Y-108910264D01*
X106013489Y-108910261D01*
X105881810Y-108884068D01*
X105819899Y-108851683D01*
X105791440Y-108809904D01*
X105779394Y-108780821D01*
X105779390Y-108780814D01*
X105691789Y-108649711D01*
X105691786Y-108649707D01*
X105580292Y-108538213D01*
X105580288Y-108538210D01*
X105449185Y-108450609D01*
X105449172Y-108450602D01*
X105303501Y-108390264D01*
X105303489Y-108390261D01*
X105148845Y-108359500D01*
X105148842Y-108359500D01*
X104991158Y-108359500D01*
X104991155Y-108359500D01*
X104836510Y-108390261D01*
X104836498Y-108390264D01*
X104690827Y-108450602D01*
X104690814Y-108450609D01*
X104559711Y-108538210D01*
X104559707Y-108538213D01*
X104448213Y-108649707D01*
X104448210Y-108649711D01*
X104360609Y-108780814D01*
X104360602Y-108780827D01*
X104300264Y-108926498D01*
X104300261Y-108926510D01*
X104269500Y-109081153D01*
X104269500Y-109238843D01*
X104277091Y-109277009D01*
X104270862Y-109346600D01*
X104227998Y-109401777D01*
X104179668Y-109422815D01*
X104167504Y-109425234D01*
X104167498Y-109425236D01*
X104021827Y-109485574D01*
X104021814Y-109485581D01*
X103890711Y-109573182D01*
X103890707Y-109573185D01*
X103779213Y-109684679D01*
X103779210Y-109684683D01*
X103691609Y-109815786D01*
X103691602Y-109815799D01*
X103631264Y-109961470D01*
X103631261Y-109961482D01*
X103600500Y-110116125D01*
X100994638Y-110116125D01*
X100936635Y-109976092D01*
X100936633Y-109976088D01*
X100936632Y-109976086D01*
X100884783Y-109898489D01*
X100875029Y-109883891D01*
X100854151Y-109817214D01*
X100872635Y-109749834D01*
X100875029Y-109746109D01*
X100909428Y-109694627D01*
X100936632Y-109653914D01*
X101012051Y-109471835D01*
X101040599Y-109328315D01*
X101050500Y-109278543D01*
X101050500Y-109081456D01*
X101012052Y-108888170D01*
X101012051Y-108888169D01*
X101012051Y-108888165D01*
X100971867Y-108791151D01*
X100936635Y-108706092D01*
X100936628Y-108706079D01*
X100874728Y-108613440D01*
X100853850Y-108546763D01*
X100872334Y-108479383D01*
X100874729Y-108475657D01*
X100936189Y-108383676D01*
X100936191Y-108383673D01*
X101011569Y-108201693D01*
X101011572Y-108201681D01*
X101049999Y-108008495D01*
X101050000Y-108008492D01*
X101050000Y-107942569D01*
X102589499Y-107942569D01*
X102589499Y-108100262D01*
X102620260Y-108254905D01*
X102620263Y-108254917D01*
X102680601Y-108400588D01*
X102680608Y-108400601D01*
X102768209Y-108531704D01*
X102768212Y-108531708D01*
X102879706Y-108643202D01*
X102879710Y-108643205D01*
X103010813Y-108730806D01*
X103010826Y-108730813D01*
X103156497Y-108791151D01*
X103156502Y-108791153D01*
X103311152Y-108821915D01*
X103311155Y-108821916D01*
X103311157Y-108821916D01*
X103468843Y-108821916D01*
X103468844Y-108821915D01*
X103623496Y-108791153D01*
X103769178Y-108730810D01*
X103900288Y-108643205D01*
X104011788Y-108531705D01*
X104099393Y-108400595D01*
X104103674Y-108390261D01*
X104125233Y-108338211D01*
X104159736Y-108254913D01*
X104190499Y-108100258D01*
X104190499Y-108100207D01*
X104190506Y-108100180D01*
X104191096Y-108094198D01*
X104192230Y-108094309D01*
X104210184Y-108033168D01*
X104262988Y-107987413D01*
X104308557Y-107977499D01*
X104308489Y-107976804D01*
X104314455Y-107976216D01*
X104314499Y-107976207D01*
X104314551Y-107976207D01*
X104314552Y-107976206D01*
X104469204Y-107945444D01*
X104614886Y-107885101D01*
X104745996Y-107797496D01*
X104857496Y-107685996D01*
X104945101Y-107554886D01*
X105005444Y-107409204D01*
X105036207Y-107254549D01*
X105036207Y-107096865D01*
X105036207Y-107096862D01*
X105036206Y-107096860D01*
X105013684Y-106983635D01*
X105005444Y-106942210D01*
X104968142Y-106852153D01*
X112159500Y-106852153D01*
X112159500Y-107009846D01*
X112190261Y-107164489D01*
X112190264Y-107164501D01*
X112250602Y-107310172D01*
X112250609Y-107310185D01*
X112338210Y-107441288D01*
X112338213Y-107441292D01*
X112449707Y-107552786D01*
X112449711Y-107552789D01*
X112580814Y-107640390D01*
X112580827Y-107640397D01*
X112690922Y-107685999D01*
X112726503Y-107700737D01*
X112860119Y-107727315D01*
X112881153Y-107731499D01*
X112881156Y-107731500D01*
X112881158Y-107731500D01*
X113038844Y-107731500D01*
X113038845Y-107731499D01*
X113193497Y-107700737D01*
X113334730Y-107642237D01*
X113339172Y-107640397D01*
X113339172Y-107640396D01*
X113339179Y-107640394D01*
X113350993Y-107632499D01*
X113417670Y-107611620D01*
X113485050Y-107630102D01*
X113531742Y-107682080D01*
X113543887Y-107735600D01*
X113543887Y-107771873D01*
X113574648Y-107926516D01*
X113574651Y-107926528D01*
X113634989Y-108072199D01*
X113634996Y-108072212D01*
X113722597Y-108203315D01*
X113722600Y-108203319D01*
X113834094Y-108314813D01*
X113834098Y-108314816D01*
X113965201Y-108402417D01*
X113965214Y-108402424D01*
X114081545Y-108450609D01*
X114110890Y-108462764D01*
X114265540Y-108493526D01*
X114265543Y-108493527D01*
X114265545Y-108493527D01*
X114423231Y-108493527D01*
X114423232Y-108493526D01*
X114577884Y-108462764D01*
X114611191Y-108448968D01*
X117787315Y-108448968D01*
X117787315Y-108606661D01*
X117818076Y-108761304D01*
X117818079Y-108761316D01*
X117878417Y-108906987D01*
X117878424Y-108907000D01*
X117966025Y-109038103D01*
X117966028Y-109038107D01*
X118077522Y-109149601D01*
X118077526Y-109149604D01*
X118208629Y-109237205D01*
X118208642Y-109237212D01*
X118326011Y-109285827D01*
X118354318Y-109297552D01*
X118508968Y-109328314D01*
X118508971Y-109328315D01*
X118508973Y-109328315D01*
X118666659Y-109328315D01*
X118666660Y-109328314D01*
X118821312Y-109297552D01*
X118966994Y-109237209D01*
X119098104Y-109149604D01*
X119209604Y-109038104D01*
X119297209Y-108906994D01*
X119297210Y-108906991D01*
X119297212Y-108906988D01*
X119307913Y-108881153D01*
X122969500Y-108881153D01*
X122969500Y-109038846D01*
X123000261Y-109193489D01*
X123000264Y-109193501D01*
X123060602Y-109339172D01*
X123060609Y-109339185D01*
X123148210Y-109470288D01*
X123148213Y-109470292D01*
X123259707Y-109581786D01*
X123259711Y-109581789D01*
X123390814Y-109669390D01*
X123390827Y-109669397D01*
X123536498Y-109729735D01*
X123536503Y-109729737D01*
X123637537Y-109749834D01*
X123691153Y-109760499D01*
X123691156Y-109760500D01*
X123691158Y-109760500D01*
X123848844Y-109760500D01*
X123848845Y-109760499D01*
X124003497Y-109729737D01*
X124149179Y-109669394D01*
X124280289Y-109581789D01*
X124391789Y-109470289D01*
X124479394Y-109339179D01*
X124539737Y-109193497D01*
X124570500Y-109038842D01*
X124570500Y-108881158D01*
X124570500Y-108881155D01*
X124570499Y-108881153D01*
X124550543Y-108780827D01*
X124539737Y-108726503D01*
X124531280Y-108706086D01*
X124479397Y-108580827D01*
X124479390Y-108580814D01*
X124391789Y-108449711D01*
X124391786Y-108449707D01*
X124280292Y-108338213D01*
X124280288Y-108338210D01*
X124149185Y-108250609D01*
X124149172Y-108250602D01*
X124003501Y-108190264D01*
X124003489Y-108190261D01*
X123848845Y-108159500D01*
X123848842Y-108159500D01*
X123691158Y-108159500D01*
X123691155Y-108159500D01*
X123536510Y-108190261D01*
X123536498Y-108190264D01*
X123390827Y-108250602D01*
X123390814Y-108250609D01*
X123259711Y-108338210D01*
X123259707Y-108338213D01*
X123148213Y-108449707D01*
X123148210Y-108449711D01*
X123060609Y-108580814D01*
X123060602Y-108580827D01*
X123000264Y-108726498D01*
X123000261Y-108726510D01*
X122969500Y-108881153D01*
X119307913Y-108881153D01*
X119330089Y-108827614D01*
X119330089Y-108827613D01*
X119332449Y-108821916D01*
X119357552Y-108761312D01*
X119388315Y-108606657D01*
X119388315Y-108448973D01*
X119388315Y-108448970D01*
X119388314Y-108448968D01*
X119378692Y-108400595D01*
X119357552Y-108294318D01*
X119339446Y-108250606D01*
X119297212Y-108148642D01*
X119297205Y-108148629D01*
X119209604Y-108017526D01*
X119209601Y-108017522D01*
X119098107Y-107906028D01*
X119098103Y-107906025D01*
X118967000Y-107818424D01*
X118966987Y-107818417D01*
X118821316Y-107758079D01*
X118821304Y-107758076D01*
X118666660Y-107727315D01*
X118666657Y-107727315D01*
X118508973Y-107727315D01*
X118508970Y-107727315D01*
X118354325Y-107758076D01*
X118354313Y-107758079D01*
X118208642Y-107818417D01*
X118208629Y-107818424D01*
X118077526Y-107906025D01*
X118077522Y-107906028D01*
X117966028Y-108017522D01*
X117966025Y-108017526D01*
X117878424Y-108148629D01*
X117878417Y-108148642D01*
X117818079Y-108294313D01*
X117818076Y-108294325D01*
X117787315Y-108448968D01*
X114611191Y-108448968D01*
X114723566Y-108402421D01*
X114854676Y-108314816D01*
X114941129Y-108228362D01*
X114943882Y-108225920D01*
X114972278Y-108212544D01*
X114999826Y-108197502D01*
X115004299Y-108197462D01*
X115007091Y-108196147D01*
X115016262Y-108197355D01*
X115050375Y-108197051D01*
X115104286Y-108207774D01*
X115193394Y-108225500D01*
X115193397Y-108225500D01*
X115351083Y-108225500D01*
X115351084Y-108225499D01*
X115505736Y-108194737D01*
X115651418Y-108134394D01*
X115782528Y-108046789D01*
X115894028Y-107935289D01*
X115981633Y-107804179D01*
X115989762Y-107784555D01*
X116000728Y-107758079D01*
X116041976Y-107658497D01*
X116072739Y-107503842D01*
X116072739Y-107346158D01*
X116072739Y-107346155D01*
X116072738Y-107346153D01*
X116058234Y-107273236D01*
X116041976Y-107191503D01*
X116039025Y-107184378D01*
X115981636Y-107045827D01*
X115981629Y-107045814D01*
X115894028Y-106914711D01*
X115894025Y-106914707D01*
X115782531Y-106803213D01*
X115782527Y-106803210D01*
X115651424Y-106715609D01*
X115651411Y-106715602D01*
X115505740Y-106655264D01*
X115505728Y-106655261D01*
X115351084Y-106624500D01*
X115351081Y-106624500D01*
X115193397Y-106624500D01*
X115193394Y-106624500D01*
X115038749Y-106655261D01*
X115038737Y-106655264D01*
X114893066Y-106715602D01*
X114893053Y-106715609D01*
X114761950Y-106803210D01*
X114678120Y-106887040D01*
X114616796Y-106920524D01*
X114566247Y-106920975D01*
X114423231Y-106892527D01*
X114423229Y-106892527D01*
X114265545Y-106892527D01*
X114265542Y-106892527D01*
X114110897Y-106923288D01*
X114110885Y-106923291D01*
X113965214Y-106983629D01*
X113965203Y-106983635D01*
X113953390Y-106991529D01*
X113886712Y-107012406D01*
X113819332Y-106993921D01*
X113772643Y-106941942D01*
X113760500Y-106888426D01*
X113760500Y-106852155D01*
X113760499Y-106852153D01*
X113750764Y-106803211D01*
X113729737Y-106697503D01*
X113716447Y-106665418D01*
X113669397Y-106551827D01*
X113669390Y-106551814D01*
X113581789Y-106420711D01*
X113581786Y-106420707D01*
X113470292Y-106309213D01*
X113470288Y-106309210D01*
X113339185Y-106221609D01*
X113339172Y-106221602D01*
X113193501Y-106161264D01*
X113193489Y-106161261D01*
X113038845Y-106130500D01*
X113038842Y-106130500D01*
X112881158Y-106130500D01*
X112881155Y-106130500D01*
X112726510Y-106161261D01*
X112726498Y-106161264D01*
X112580827Y-106221602D01*
X112580814Y-106221609D01*
X112449711Y-106309210D01*
X112449707Y-106309213D01*
X112338213Y-106420707D01*
X112338210Y-106420711D01*
X112250609Y-106551814D01*
X112250602Y-106551827D01*
X112190264Y-106697498D01*
X112190261Y-106697510D01*
X112159500Y-106852153D01*
X104968142Y-106852153D01*
X104947869Y-106803210D01*
X104945102Y-106796530D01*
X104945097Y-106796521D01*
X104857496Y-106665418D01*
X104857493Y-106665414D01*
X104745999Y-106553920D01*
X104745995Y-106553917D01*
X104614892Y-106466316D01*
X104614879Y-106466309D01*
X104469208Y-106405971D01*
X104469196Y-106405968D01*
X104314552Y-106375207D01*
X104314549Y-106375207D01*
X104156865Y-106375207D01*
X104156862Y-106375207D01*
X104002217Y-106405968D01*
X104002205Y-106405971D01*
X103856534Y-106466309D01*
X103856521Y-106466316D01*
X103725418Y-106553917D01*
X103725414Y-106553920D01*
X103613920Y-106665414D01*
X103613917Y-106665418D01*
X103526316Y-106796521D01*
X103526309Y-106796534D01*
X103465971Y-106942205D01*
X103465968Y-106942217D01*
X103435207Y-107096860D01*
X103435207Y-107096916D01*
X103435199Y-107096942D01*
X103434610Y-107102925D01*
X103433475Y-107102813D01*
X103415522Y-107163955D01*
X103362718Y-107209710D01*
X103317148Y-107219623D01*
X103317217Y-107220319D01*
X103311250Y-107220906D01*
X103311207Y-107220916D01*
X103311154Y-107220916D01*
X103156509Y-107251677D01*
X103156497Y-107251680D01*
X103010826Y-107312018D01*
X103010813Y-107312025D01*
X102879710Y-107399626D01*
X102879706Y-107399629D01*
X102768212Y-107511123D01*
X102768209Y-107511127D01*
X102680608Y-107642230D01*
X102680601Y-107642243D01*
X102620263Y-107787914D01*
X102620260Y-107787926D01*
X102589499Y-107942569D01*
X101050000Y-107942569D01*
X101050000Y-107811508D01*
X101049999Y-107811504D01*
X101011572Y-107618318D01*
X101011569Y-107618306D01*
X100936192Y-107436328D01*
X100936188Y-107436321D01*
X100874728Y-107344341D01*
X100853850Y-107277663D01*
X100872334Y-107210283D01*
X100874704Y-107206595D01*
X100936632Y-107113914D01*
X101012051Y-106931835D01*
X101037636Y-106803211D01*
X101050500Y-106738543D01*
X101050500Y-106541456D01*
X101012052Y-106348170D01*
X101012051Y-106348169D01*
X101012051Y-106348165D01*
X100995916Y-106309211D01*
X100936635Y-106166092D01*
X100936633Y-106166088D01*
X100936632Y-106166086D01*
X100875029Y-106073891D01*
X100854151Y-106007214D01*
X100872635Y-105939834D01*
X100875029Y-105936109D01*
X100887872Y-105916887D01*
X100936632Y-105843914D01*
X101012051Y-105661835D01*
X101031582Y-105563647D01*
X101050500Y-105468543D01*
X101050500Y-105271456D01*
X101012052Y-105078170D01*
X101012051Y-105078169D01*
X101012051Y-105078165D01*
X101012049Y-105078160D01*
X100936635Y-104896092D01*
X100936633Y-104896088D01*
X100936632Y-104896086D01*
X100875029Y-104803891D01*
X100869423Y-104785987D01*
X100859242Y-104770232D01*
X100859199Y-104753337D01*
X100854151Y-104737214D01*
X100859113Y-104719122D01*
X100859067Y-104700363D01*
X100871692Y-104673268D01*
X100872635Y-104669834D01*
X100873648Y-104668222D01*
X100874331Y-104667153D01*
X100936632Y-104573914D01*
X100941620Y-104561871D01*
X100947510Y-104552656D01*
X100965933Y-104536611D01*
X100981263Y-104517585D01*
X100991814Y-104514071D01*
X101000200Y-104506769D01*
X101024372Y-104503231D01*
X101047555Y-104495513D01*
X101058330Y-104498262D01*
X101069333Y-104496652D01*
X101091583Y-104506746D01*
X101115256Y-104512786D01*
X101129802Y-104524084D01*
X101132961Y-104525518D01*
X101134285Y-104527567D01*
X101139674Y-104531753D01*
X101239707Y-104631786D01*
X101239711Y-104631789D01*
X101370814Y-104719390D01*
X101370827Y-104719397D01*
X101516498Y-104779735D01*
X101516503Y-104779737D01*
X101637928Y-104803890D01*
X101671153Y-104810499D01*
X101671156Y-104810500D01*
X101671158Y-104810500D01*
X101828844Y-104810500D01*
X101828845Y-104810499D01*
X101983497Y-104779737D01*
X102129179Y-104719394D01*
X102260289Y-104631789D01*
X102371789Y-104520289D01*
X102459394Y-104389179D01*
X102519737Y-104243497D01*
X102550500Y-104088842D01*
X102550500Y-103931158D01*
X102550500Y-103931155D01*
X102532220Y-103839258D01*
X102532220Y-103839257D01*
X102528619Y-103821153D01*
X105749500Y-103821153D01*
X105749500Y-103978846D01*
X105780261Y-104133489D01*
X105780264Y-104133501D01*
X105840602Y-104279172D01*
X105840609Y-104279185D01*
X105928210Y-104410288D01*
X105928213Y-104410292D01*
X106039707Y-104521786D01*
X106039711Y-104521789D01*
X106170814Y-104609390D01*
X106170827Y-104609397D01*
X106311008Y-104667461D01*
X106316503Y-104669737D01*
X106396135Y-104685576D01*
X106428591Y-104692033D01*
X106490502Y-104724418D01*
X106525076Y-104785133D01*
X106526017Y-104837841D01*
X106499500Y-104971153D01*
X106499500Y-105128846D01*
X106530261Y-105283489D01*
X106530264Y-105283501D01*
X106590602Y-105429172D01*
X106590609Y-105429185D01*
X106678210Y-105560288D01*
X106678213Y-105560292D01*
X106789707Y-105671786D01*
X106789711Y-105671789D01*
X106920814Y-105759390D01*
X106920827Y-105759397D01*
X107066498Y-105819735D01*
X107066503Y-105819737D01*
X107221153Y-105850499D01*
X107221156Y-105850500D01*
X107221158Y-105850500D01*
X107378844Y-105850500D01*
X107378845Y-105850499D01*
X107533497Y-105819737D01*
X107679179Y-105759394D01*
X107810289Y-105671789D01*
X107921789Y-105560289D01*
X108009394Y-105429179D01*
X108069737Y-105283497D01*
X108097419Y-105144330D01*
X108129804Y-105082420D01*
X108171584Y-105053961D01*
X108279172Y-105009397D01*
X108279172Y-105009396D01*
X108279179Y-105009394D01*
X108410289Y-104921789D01*
X108480925Y-104851153D01*
X109779500Y-104851153D01*
X109779500Y-105008846D01*
X109810261Y-105163489D01*
X109810264Y-105163501D01*
X109870602Y-105309172D01*
X109870609Y-105309185D01*
X109958210Y-105440288D01*
X109958213Y-105440292D01*
X110069707Y-105551786D01*
X110069711Y-105551789D01*
X110200814Y-105639390D01*
X110200827Y-105639397D01*
X110346498Y-105699735D01*
X110346503Y-105699737D01*
X110501153Y-105730499D01*
X110501156Y-105730500D01*
X110501158Y-105730500D01*
X110658844Y-105730500D01*
X110658845Y-105730499D01*
X110813497Y-105699737D01*
X110959179Y-105639394D01*
X110959184Y-105639390D01*
X110959187Y-105639389D01*
X111018217Y-105599946D01*
X111041295Y-105584525D01*
X111107971Y-105563647D01*
X111175352Y-105582131D01*
X111197867Y-105599946D01*
X111289707Y-105691786D01*
X111289711Y-105691789D01*
X111420814Y-105779390D01*
X111420827Y-105779397D01*
X111566498Y-105839735D01*
X111566503Y-105839737D01*
X111721153Y-105870499D01*
X111721156Y-105870500D01*
X111721158Y-105870500D01*
X111878844Y-105870500D01*
X111878845Y-105870499D01*
X112033497Y-105839737D01*
X112179179Y-105779394D01*
X112310289Y-105691789D01*
X112421789Y-105580289D01*
X112509394Y-105449179D01*
X112569737Y-105303497D01*
X112600500Y-105148842D01*
X112600500Y-104991158D01*
X112600500Y-104991155D01*
X112582872Y-104902536D01*
X112582871Y-104902534D01*
X112569737Y-104836503D01*
X112509394Y-104690821D01*
X112509390Y-104690814D01*
X112421789Y-104559711D01*
X112421786Y-104559707D01*
X112310292Y-104448213D01*
X112310288Y-104448210D01*
X112269795Y-104421153D01*
X112749500Y-104421153D01*
X112749500Y-104578846D01*
X112767126Y-104667461D01*
X112767129Y-104667473D01*
X112780263Y-104733497D01*
X112819459Y-104828127D01*
X112819463Y-104828137D01*
X112840602Y-104879172D01*
X112840609Y-104879185D01*
X112928210Y-105010288D01*
X112928213Y-105010292D01*
X113039707Y-105121786D01*
X113039711Y-105121789D01*
X113170814Y-105209390D01*
X113170827Y-105209397D01*
X113316498Y-105269735D01*
X113316503Y-105269737D01*
X113471153Y-105300499D01*
X113471156Y-105300500D01*
X113471158Y-105300500D01*
X113628844Y-105300500D01*
X113628845Y-105300499D01*
X113783497Y-105269737D01*
X113929179Y-105209394D01*
X114060289Y-105121789D01*
X114171789Y-105010289D01*
X114259394Y-104879179D01*
X114319737Y-104733497D01*
X114350500Y-104578842D01*
X114350500Y-104421158D01*
X114350500Y-104421155D01*
X114350499Y-104421153D01*
X114344139Y-104389179D01*
X114319737Y-104266503D01*
X114310208Y-104243497D01*
X114259397Y-104120827D01*
X114259390Y-104120814D01*
X114171789Y-103989711D01*
X114171786Y-103989707D01*
X114060292Y-103878213D01*
X114060288Y-103878210D01*
X113929185Y-103790609D01*
X113929172Y-103790602D01*
X113783501Y-103730264D01*
X113783489Y-103730261D01*
X113628845Y-103699500D01*
X113628842Y-103699500D01*
X113471158Y-103699500D01*
X113471155Y-103699500D01*
X113316510Y-103730261D01*
X113316498Y-103730264D01*
X113170827Y-103790602D01*
X113170814Y-103790609D01*
X113039711Y-103878210D01*
X113039707Y-103878213D01*
X112928213Y-103989707D01*
X112928210Y-103989711D01*
X112840609Y-104120814D01*
X112840602Y-104120827D01*
X112780264Y-104266498D01*
X112780261Y-104266510D01*
X112749500Y-104421153D01*
X112269795Y-104421153D01*
X112179185Y-104360609D01*
X112179172Y-104360602D01*
X112033501Y-104300264D01*
X112033489Y-104300261D01*
X111878845Y-104269500D01*
X111878842Y-104269500D01*
X111721158Y-104269500D01*
X111721155Y-104269500D01*
X111566510Y-104300261D01*
X111566498Y-104300264D01*
X111420827Y-104360602D01*
X111420814Y-104360609D01*
X111338704Y-104415474D01*
X111272026Y-104436352D01*
X111204646Y-104417867D01*
X111182132Y-104400053D01*
X111090292Y-104308213D01*
X111090288Y-104308210D01*
X110959185Y-104220609D01*
X110959172Y-104220602D01*
X110813501Y-104160264D01*
X110813489Y-104160261D01*
X110658845Y-104129500D01*
X110658842Y-104129500D01*
X110501158Y-104129500D01*
X110501155Y-104129500D01*
X110346510Y-104160261D01*
X110346498Y-104160264D01*
X110200827Y-104220602D01*
X110200814Y-104220609D01*
X110069711Y-104308210D01*
X110069707Y-104308213D01*
X109958213Y-104419707D01*
X109958210Y-104419711D01*
X109870609Y-104550814D01*
X109870602Y-104550827D01*
X109810264Y-104696498D01*
X109810261Y-104696510D01*
X109779500Y-104851153D01*
X108480925Y-104851153D01*
X108521789Y-104810289D01*
X108542203Y-104779738D01*
X108544584Y-104776175D01*
X108609390Y-104679185D01*
X108609390Y-104679184D01*
X108609394Y-104679179D01*
X108669737Y-104533497D01*
X108700500Y-104378842D01*
X108700500Y-104221158D01*
X108700500Y-104221155D01*
X108700499Y-104221153D01*
X108680543Y-104120827D01*
X108669737Y-104066503D01*
X108637929Y-103989711D01*
X108609397Y-103920827D01*
X108609390Y-103920814D01*
X108521789Y-103789711D01*
X108521786Y-103789707D01*
X108410292Y-103678213D01*
X108410288Y-103678210D01*
X108279185Y-103590609D01*
X108279172Y-103590602D01*
X108133501Y-103530264D01*
X108133489Y-103530261D01*
X107978845Y-103499500D01*
X107978842Y-103499500D01*
X107821158Y-103499500D01*
X107821155Y-103499500D01*
X107666510Y-103530261D01*
X107666498Y-103530264D01*
X107520827Y-103590602D01*
X107520816Y-103590608D01*
X107464333Y-103628349D01*
X107397655Y-103649226D01*
X107330275Y-103630741D01*
X107283586Y-103578762D01*
X107280889Y-103572715D01*
X107259394Y-103520821D01*
X107259390Y-103520814D01*
X107171789Y-103389711D01*
X107171786Y-103389707D01*
X107060292Y-103278213D01*
X107060288Y-103278210D01*
X106929185Y-103190609D01*
X106929172Y-103190602D01*
X106783501Y-103130264D01*
X106783489Y-103130261D01*
X106628845Y-103099500D01*
X106628842Y-103099500D01*
X106471158Y-103099500D01*
X106471155Y-103099500D01*
X106316510Y-103130261D01*
X106316498Y-103130264D01*
X106170827Y-103190602D01*
X106170814Y-103190609D01*
X106039711Y-103278210D01*
X106039707Y-103278213D01*
X105928213Y-103389707D01*
X105928210Y-103389711D01*
X105840609Y-103520814D01*
X105840602Y-103520827D01*
X105780264Y-103666498D01*
X105780261Y-103666510D01*
X105749500Y-103821153D01*
X102528619Y-103821153D01*
X102519738Y-103776510D01*
X102519737Y-103776503D01*
X102502394Y-103734633D01*
X102459397Y-103630827D01*
X102459390Y-103630814D01*
X102410134Y-103557098D01*
X102389256Y-103490421D01*
X102407740Y-103423041D01*
X102459719Y-103376350D01*
X102489040Y-103366590D01*
X102523497Y-103359737D01*
X102669179Y-103299394D01*
X102800289Y-103211789D01*
X102911789Y-103100289D01*
X102999394Y-102969179D01*
X103059737Y-102823497D01*
X103090500Y-102668842D01*
X103090500Y-102511158D01*
X103090500Y-102511155D01*
X103090499Y-102511153D01*
X103067174Y-102393891D01*
X103059737Y-102356503D01*
X103046688Y-102325000D01*
X102999397Y-102210827D01*
X102999390Y-102210814D01*
X102911789Y-102079711D01*
X102911786Y-102079707D01*
X102800292Y-101968213D01*
X102800288Y-101968210D01*
X102669185Y-101880609D01*
X102669172Y-101880602D01*
X102523501Y-101820264D01*
X102523489Y-101820261D01*
X102368845Y-101789500D01*
X102368842Y-101789500D01*
X102211158Y-101789500D01*
X102211155Y-101789500D01*
X102056510Y-101820261D01*
X102056498Y-101820264D01*
X101910827Y-101880602D01*
X101910814Y-101880609D01*
X101779711Y-101968210D01*
X101779707Y-101968213D01*
X101668213Y-102079707D01*
X101668210Y-102079711D01*
X101580609Y-102210814D01*
X101580602Y-102210827D01*
X101520264Y-102356498D01*
X101520261Y-102356510D01*
X101489500Y-102511153D01*
X101489500Y-102668846D01*
X101520261Y-102823489D01*
X101520264Y-102823501D01*
X101580602Y-102969172D01*
X101580609Y-102969185D01*
X101629865Y-103042901D01*
X101650743Y-103109578D01*
X101632259Y-103176959D01*
X101580280Y-103223649D01*
X101550956Y-103233409D01*
X101516507Y-103240261D01*
X101516498Y-103240264D01*
X101370827Y-103300602D01*
X101370814Y-103300609D01*
X101239711Y-103388210D01*
X101239707Y-103388213D01*
X101128213Y-103499707D01*
X101128208Y-103499713D01*
X101093301Y-103551955D01*
X101068131Y-103572989D01*
X101043715Y-103594921D01*
X101041449Y-103595288D01*
X101039689Y-103596759D01*
X101007142Y-103600846D01*
X100974745Y-103606096D01*
X100972640Y-103605180D01*
X100970364Y-103605466D01*
X100940755Y-103591300D01*
X100910682Y-103578209D01*
X100908638Y-103575934D01*
X100907336Y-103575311D01*
X100887097Y-103551952D01*
X100875028Y-103533889D01*
X100854151Y-103467212D01*
X100872636Y-103399832D01*
X100875029Y-103396109D01*
X100899333Y-103359735D01*
X100936632Y-103303914D01*
X101012051Y-103121835D01*
X101027752Y-103042901D01*
X101050500Y-102928543D01*
X101050500Y-102731456D01*
X101012052Y-102538170D01*
X101012051Y-102538169D01*
X101012051Y-102538165D01*
X101012049Y-102538160D01*
X100936635Y-102356092D01*
X100936633Y-102356088D01*
X100936632Y-102356086D01*
X100936628Y-102356080D01*
X100875029Y-102263891D01*
X100854151Y-102197214D01*
X100872635Y-102129834D01*
X100875029Y-102126109D01*
X100906034Y-102079707D01*
X100936632Y-102033914D01*
X101012051Y-101851835D01*
X101047865Y-101671789D01*
X101050500Y-101658543D01*
X101050500Y-101461457D01*
X101042418Y-101420827D01*
X101036515Y-101391151D01*
X105159498Y-101391151D01*
X105159498Y-101548844D01*
X105190259Y-101703487D01*
X105190262Y-101703499D01*
X105250600Y-101849170D01*
X105250607Y-101849183D01*
X105338208Y-101980286D01*
X105338211Y-101980290D01*
X105449705Y-102091784D01*
X105449709Y-102091787D01*
X105580812Y-102179388D01*
X105580825Y-102179395D01*
X105656710Y-102210827D01*
X105726501Y-102239735D01*
X105847936Y-102263890D01*
X105881151Y-102270497D01*
X105881154Y-102270498D01*
X105881156Y-102270498D01*
X106038842Y-102270498D01*
X106038843Y-102270497D01*
X106193495Y-102239735D01*
X106339177Y-102179392D01*
X106470287Y-102091787D01*
X106581787Y-101980287D01*
X106669392Y-101849177D01*
X106729735Y-101703495D01*
X106736042Y-101671789D01*
X106736343Y-101670276D01*
X106768727Y-101608365D01*
X106829443Y-101573791D01*
X106882152Y-101572850D01*
X107021155Y-101600500D01*
X107021158Y-101600500D01*
X107178844Y-101600500D01*
X107178845Y-101600499D01*
X107333497Y-101569737D01*
X107479179Y-101509394D01*
X107610289Y-101421789D01*
X107721789Y-101310289D01*
X107809394Y-101179179D01*
X107869737Y-101033497D01*
X107900500Y-100878842D01*
X107900500Y-100721158D01*
X107900500Y-100721155D01*
X107900499Y-100721153D01*
X107888660Y-100661634D01*
X107869737Y-100566503D01*
X107858879Y-100540289D01*
X107809397Y-100420827D01*
X107809390Y-100420814D01*
X107721789Y-100289711D01*
X107721786Y-100289707D01*
X107610292Y-100178213D01*
X107610288Y-100178210D01*
X107479185Y-100090609D01*
X107479172Y-100090602D01*
X107404389Y-100059627D01*
X107333501Y-100030264D01*
X107333489Y-100030261D01*
X107178845Y-99999500D01*
X107178842Y-99999500D01*
X107021158Y-99999500D01*
X107021155Y-99999500D01*
X106866510Y-100030261D01*
X106866498Y-100030264D01*
X106720827Y-100090602D01*
X106720814Y-100090609D01*
X106589711Y-100178210D01*
X106589707Y-100178213D01*
X106478213Y-100289707D01*
X106478210Y-100289711D01*
X106390609Y-100420814D01*
X106390602Y-100420827D01*
X106330264Y-100566498D01*
X106330262Y-100566506D01*
X106323654Y-100599724D01*
X106291267Y-100661634D01*
X106230551Y-100696207D01*
X106177846Y-100697147D01*
X106038844Y-100669498D01*
X106038840Y-100669498D01*
X105881156Y-100669498D01*
X105881153Y-100669498D01*
X105726508Y-100700259D01*
X105726496Y-100700262D01*
X105580825Y-100760600D01*
X105580812Y-100760607D01*
X105449709Y-100848208D01*
X105449705Y-100848211D01*
X105338211Y-100959705D01*
X105338208Y-100959709D01*
X105250607Y-101090812D01*
X105250600Y-101090825D01*
X105190262Y-101236496D01*
X105190259Y-101236508D01*
X105159498Y-101391151D01*
X101036515Y-101391151D01*
X101012051Y-101268165D01*
X100998938Y-101236508D01*
X100936635Y-101086092D01*
X100936633Y-101086088D01*
X100936632Y-101086086D01*
X100875029Y-100993891D01*
X100854151Y-100927214D01*
X100872635Y-100859834D01*
X100875029Y-100856109D01*
X100912695Y-100799738D01*
X100936632Y-100763914D01*
X101012051Y-100581835D01*
X101042609Y-100428211D01*
X101050500Y-100388543D01*
X101050500Y-100191456D01*
X101012052Y-99998170D01*
X101012051Y-99998169D01*
X101012051Y-99998165D01*
X100992578Y-99951153D01*
X114349500Y-99951153D01*
X114349500Y-100108846D01*
X114380261Y-100263489D01*
X114380264Y-100263501D01*
X114440602Y-100409172D01*
X114440609Y-100409185D01*
X114528210Y-100540288D01*
X114528213Y-100540292D01*
X114639707Y-100651786D01*
X114639711Y-100651789D01*
X114770814Y-100739390D01*
X114770827Y-100739397D01*
X114840242Y-100768149D01*
X114916503Y-100799737D01*
X115071153Y-100830499D01*
X115071156Y-100830500D01*
X115071158Y-100830500D01*
X115228844Y-100830500D01*
X115228845Y-100830499D01*
X115383497Y-100799737D01*
X115441726Y-100775617D01*
X115511195Y-100768149D01*
X115573674Y-100799424D01*
X115609326Y-100859513D01*
X115610795Y-100914370D01*
X115599500Y-100971153D01*
X115599500Y-101128846D01*
X115630261Y-101283489D01*
X115630264Y-101283501D01*
X115690602Y-101429172D01*
X115690609Y-101429185D01*
X115778210Y-101560288D01*
X115778213Y-101560292D01*
X115889707Y-101671786D01*
X115889711Y-101671789D01*
X116020814Y-101759390D01*
X116020827Y-101759397D01*
X116166498Y-101819735D01*
X116166503Y-101819737D01*
X116314472Y-101849170D01*
X116321153Y-101850499D01*
X116321156Y-101850500D01*
X116321158Y-101850500D01*
X116478844Y-101850500D01*
X116478845Y-101850499D01*
X116633497Y-101819737D01*
X116779179Y-101759394D01*
X116836411Y-101721153D01*
X118699500Y-101721153D01*
X118699500Y-101878846D01*
X118730261Y-102033489D01*
X118730264Y-102033501D01*
X118790602Y-102179172D01*
X118790612Y-102179190D01*
X118842008Y-102256110D01*
X118862886Y-102322787D01*
X118844401Y-102390167D01*
X118842008Y-102393890D01*
X118790612Y-102470809D01*
X118790602Y-102470827D01*
X118730264Y-102616498D01*
X118730261Y-102616510D01*
X118699500Y-102771153D01*
X118699500Y-102928846D01*
X118730261Y-103083489D01*
X118730264Y-103083501D01*
X118790602Y-103229172D01*
X118790609Y-103229185D01*
X118878210Y-103360288D01*
X118878213Y-103360292D01*
X118989707Y-103471786D01*
X118989711Y-103471789D01*
X119120814Y-103559390D01*
X119120827Y-103559397D01*
X119231359Y-103605180D01*
X119266503Y-103619737D01*
X119414753Y-103649226D01*
X119421153Y-103650499D01*
X119421156Y-103650500D01*
X119421158Y-103650500D01*
X119578844Y-103650500D01*
X119578845Y-103650499D01*
X119733497Y-103619737D01*
X119879179Y-103559394D01*
X120010289Y-103471789D01*
X120121789Y-103360289D01*
X120209394Y-103229179D01*
X120269737Y-103083497D01*
X120300500Y-102928842D01*
X120300500Y-102771158D01*
X120300500Y-102771155D01*
X120300499Y-102771153D01*
X120292603Y-102731456D01*
X120269737Y-102616503D01*
X120226100Y-102511153D01*
X120209397Y-102470827D01*
X120209395Y-102470823D01*
X120209394Y-102470821D01*
X120157991Y-102393891D01*
X120137113Y-102327214D01*
X120155597Y-102259834D01*
X120157991Y-102256109D01*
X120197343Y-102197214D01*
X120209394Y-102179179D01*
X120269737Y-102033497D01*
X120300500Y-101878842D01*
X120300500Y-101721158D01*
X120300500Y-101721155D01*
X120300499Y-101721153D01*
X120288045Y-101658543D01*
X120269737Y-101566503D01*
X120267163Y-101560288D01*
X120209397Y-101420827D01*
X120209390Y-101420814D01*
X120121789Y-101289711D01*
X120121786Y-101289707D01*
X120010292Y-101178213D01*
X120010288Y-101178210D01*
X119879185Y-101090609D01*
X119879172Y-101090602D01*
X119733501Y-101030264D01*
X119733489Y-101030261D01*
X119578845Y-100999500D01*
X119578842Y-100999500D01*
X119421158Y-100999500D01*
X119421155Y-100999500D01*
X119266510Y-101030261D01*
X119266498Y-101030264D01*
X119120827Y-101090602D01*
X119120814Y-101090609D01*
X118989711Y-101178210D01*
X118989707Y-101178213D01*
X118878213Y-101289707D01*
X118878210Y-101289711D01*
X118790609Y-101420814D01*
X118790602Y-101420827D01*
X118730264Y-101566498D01*
X118730261Y-101566510D01*
X118699500Y-101721153D01*
X116836411Y-101721153D01*
X116910289Y-101671789D01*
X116923537Y-101658541D01*
X116954694Y-101627385D01*
X117021786Y-101560292D01*
X117021789Y-101560289D01*
X117109394Y-101429179D01*
X117112854Y-101420827D01*
X117167163Y-101289711D01*
X117169737Y-101283497D01*
X117200500Y-101128842D01*
X117200500Y-100971158D01*
X117200500Y-100971155D01*
X117200499Y-100971153D01*
X117191759Y-100927214D01*
X117169737Y-100816503D01*
X117147954Y-100763914D01*
X117109397Y-100670827D01*
X117109390Y-100670814D01*
X117021789Y-100539711D01*
X117021786Y-100539707D01*
X116910292Y-100428213D01*
X116910288Y-100428210D01*
X116779185Y-100340609D01*
X116779172Y-100340602D01*
X116633501Y-100280264D01*
X116633489Y-100280261D01*
X116478845Y-100249500D01*
X116478842Y-100249500D01*
X116321158Y-100249500D01*
X116321155Y-100249500D01*
X116166510Y-100280261D01*
X116166502Y-100280263D01*
X116108272Y-100304382D01*
X116038802Y-100311849D01*
X115976323Y-100280573D01*
X115940672Y-100220484D01*
X115939204Y-100165630D01*
X115950500Y-100108842D01*
X115950500Y-99951158D01*
X115950500Y-99951155D01*
X115950499Y-99951153D01*
X115919737Y-99796503D01*
X115893641Y-99733501D01*
X115859397Y-99650827D01*
X115859390Y-99650814D01*
X115771789Y-99519711D01*
X115771786Y-99519707D01*
X115660292Y-99408213D01*
X115660288Y-99408210D01*
X115529185Y-99320609D01*
X115529172Y-99320602D01*
X115383501Y-99260264D01*
X115383489Y-99260261D01*
X115228845Y-99229500D01*
X115228842Y-99229500D01*
X115071158Y-99229500D01*
X115071155Y-99229500D01*
X114916510Y-99260261D01*
X114916498Y-99260264D01*
X114770827Y-99320602D01*
X114770814Y-99320609D01*
X114639711Y-99408210D01*
X114639707Y-99408213D01*
X114528213Y-99519707D01*
X114528210Y-99519711D01*
X114440609Y-99650814D01*
X114440602Y-99650827D01*
X114380264Y-99796498D01*
X114380261Y-99796510D01*
X114349500Y-99951153D01*
X100992578Y-99951153D01*
X100936635Y-99816092D01*
X100936633Y-99816088D01*
X100936632Y-99816086D01*
X100881450Y-99733501D01*
X100875029Y-99723891D01*
X100854151Y-99657214D01*
X100872635Y-99589834D01*
X100875029Y-99586109D01*
X100887872Y-99566887D01*
X100936632Y-99493914D01*
X101012051Y-99311835D01*
X101028429Y-99229500D01*
X101050500Y-99118543D01*
X101050500Y-98926931D01*
X102433063Y-98926931D01*
X102433063Y-99084624D01*
X102463824Y-99239267D01*
X102463827Y-99239279D01*
X102524165Y-99384950D01*
X102524172Y-99384963D01*
X102611773Y-99516066D01*
X102611776Y-99516070D01*
X102723270Y-99627564D01*
X102723274Y-99627567D01*
X102854377Y-99715168D01*
X102854390Y-99715175D01*
X102898634Y-99733501D01*
X103000066Y-99775515D01*
X103154716Y-99806277D01*
X103154719Y-99806278D01*
X103154721Y-99806278D01*
X103312407Y-99806278D01*
X103312408Y-99806277D01*
X103467060Y-99775515D01*
X103612742Y-99715172D01*
X103743852Y-99627567D01*
X103855352Y-99516067D01*
X103942957Y-99384957D01*
X103973245Y-99311835D01*
X103999352Y-99248807D01*
X104043193Y-99194403D01*
X104079960Y-99178796D01*
X104079502Y-99177284D01*
X104085324Y-99175517D01*
X104085335Y-99175515D01*
X104222879Y-99118543D01*
X104231010Y-99115175D01*
X104231010Y-99115174D01*
X104231017Y-99115172D01*
X104362127Y-99027567D01*
X104473627Y-98916067D01*
X104561232Y-98784957D01*
X104576066Y-98749143D01*
X104619904Y-98694741D01*
X104686198Y-98672674D01*
X104753898Y-98689952D01*
X104778308Y-98708914D01*
X104816180Y-98746786D01*
X104816184Y-98746789D01*
X104947287Y-98834390D01*
X104947300Y-98834397D01*
X105090451Y-98893691D01*
X105092976Y-98894737D01*
X105200224Y-98916070D01*
X105247626Y-98925499D01*
X105247629Y-98925500D01*
X105247631Y-98925500D01*
X105405317Y-98925500D01*
X105405318Y-98925499D01*
X105559970Y-98894737D01*
X105705652Y-98834394D01*
X105836762Y-98746789D01*
X105948262Y-98635289D01*
X106035867Y-98504179D01*
X106035870Y-98504172D01*
X106060939Y-98443650D01*
X106104779Y-98389246D01*
X106171073Y-98367181D01*
X106238773Y-98384460D01*
X106286384Y-98435597D01*
X106299500Y-98491102D01*
X106299500Y-98528846D01*
X106330261Y-98683489D01*
X106330264Y-98683501D01*
X106390602Y-98829172D01*
X106390609Y-98829185D01*
X106478210Y-98960288D01*
X106478213Y-98960292D01*
X106589707Y-99071786D01*
X106589711Y-99071789D01*
X106720814Y-99159390D01*
X106720827Y-99159397D01*
X106866498Y-99219735D01*
X106866503Y-99219737D01*
X106964747Y-99239279D01*
X107021153Y-99250499D01*
X107021156Y-99250500D01*
X107021158Y-99250500D01*
X107178844Y-99250500D01*
X107178845Y-99250499D01*
X107333497Y-99219737D01*
X107479179Y-99159394D01*
X107610289Y-99071789D01*
X107721789Y-98960289D01*
X107809394Y-98829179D01*
X107869737Y-98683497D01*
X107900500Y-98528842D01*
X107900500Y-98371158D01*
X107900500Y-98371155D01*
X107900499Y-98371153D01*
X107885626Y-98296384D01*
X107869737Y-98216503D01*
X107864493Y-98203842D01*
X107809397Y-98070827D01*
X107809390Y-98070814D01*
X107721789Y-97939711D01*
X107721786Y-97939707D01*
X107610292Y-97828213D01*
X107610288Y-97828210D01*
X107479185Y-97740609D01*
X107479172Y-97740602D01*
X107333501Y-97680264D01*
X107333489Y-97680261D01*
X107178845Y-97649500D01*
X107178842Y-97649500D01*
X107021158Y-97649500D01*
X107021155Y-97649500D01*
X106866510Y-97680261D01*
X106866498Y-97680264D01*
X106720827Y-97740602D01*
X106720814Y-97740609D01*
X106589711Y-97828210D01*
X106589707Y-97828213D01*
X106478213Y-97939707D01*
X106478210Y-97939711D01*
X106390609Y-98070814D01*
X106390604Y-98070823D01*
X106365534Y-98131350D01*
X106321693Y-98185753D01*
X106255399Y-98207818D01*
X106187700Y-98190539D01*
X106140089Y-98139402D01*
X106126973Y-98083897D01*
X106126973Y-98046155D01*
X106126972Y-98046153D01*
X106102361Y-97922427D01*
X106096210Y-97891503D01*
X106084026Y-97862087D01*
X106035870Y-97745827D01*
X106035863Y-97745814D01*
X105948262Y-97614711D01*
X105948259Y-97614707D01*
X105836765Y-97503213D01*
X105836761Y-97503210D01*
X105705658Y-97415609D01*
X105705645Y-97415602D01*
X105559974Y-97355264D01*
X105559962Y-97355261D01*
X105405318Y-97324500D01*
X105405315Y-97324500D01*
X105247631Y-97324500D01*
X105247628Y-97324500D01*
X105092983Y-97355261D01*
X105092971Y-97355264D01*
X104947300Y-97415602D01*
X104947287Y-97415609D01*
X104816184Y-97503210D01*
X104816180Y-97503213D01*
X104704686Y-97614707D01*
X104704683Y-97614711D01*
X104617082Y-97745814D01*
X104617077Y-97745824D01*
X104602244Y-97781635D01*
X104558403Y-97836038D01*
X104492108Y-97858103D01*
X104424409Y-97840824D01*
X104400002Y-97821863D01*
X104362130Y-97783991D01*
X104362126Y-97783988D01*
X104231023Y-97696387D01*
X104231010Y-97696380D01*
X104085339Y-97636042D01*
X104085327Y-97636039D01*
X103930683Y-97605278D01*
X103930680Y-97605278D01*
X103772996Y-97605278D01*
X103772993Y-97605278D01*
X103618348Y-97636039D01*
X103618336Y-97636042D01*
X103472665Y-97696380D01*
X103472652Y-97696387D01*
X103341549Y-97783988D01*
X103341545Y-97783991D01*
X103230051Y-97895485D01*
X103230048Y-97895489D01*
X103142447Y-98026592D01*
X103142442Y-98026601D01*
X103086049Y-98162748D01*
X103042208Y-98217151D01*
X103005446Y-98232776D01*
X103005900Y-98234271D01*
X103000063Y-98236041D01*
X102854390Y-98296380D01*
X102854377Y-98296387D01*
X102723274Y-98383988D01*
X102723270Y-98383991D01*
X102611776Y-98495485D01*
X102611773Y-98495489D01*
X102524172Y-98626592D01*
X102524165Y-98626605D01*
X102463827Y-98772276D01*
X102463824Y-98772288D01*
X102433063Y-98926931D01*
X101050500Y-98926931D01*
X101050500Y-98921456D01*
X101012052Y-98728170D01*
X101012051Y-98728169D01*
X101012051Y-98728165D01*
X101004077Y-98708914D01*
X100936635Y-98546092D01*
X100936633Y-98546088D01*
X100936632Y-98546086D01*
X100925110Y-98528842D01*
X100875029Y-98453891D01*
X100854151Y-98387214D01*
X100872635Y-98319834D01*
X100875029Y-98316109D01*
X100908170Y-98266510D01*
X100936632Y-98223914D01*
X101012051Y-98041835D01*
X101035803Y-97922427D01*
X101050500Y-97848543D01*
X101050500Y-97651456D01*
X101012052Y-97458170D01*
X101012051Y-97458169D01*
X101012051Y-97458165D01*
X100982234Y-97386179D01*
X100936635Y-97276092D01*
X100936633Y-97276088D01*
X100936632Y-97276086D01*
X100916636Y-97246160D01*
X100875029Y-97183891D01*
X100854151Y-97117214D01*
X100872635Y-97049834D01*
X100875029Y-97046109D01*
X100918897Y-96980456D01*
X100936632Y-96953914D01*
X101012051Y-96771835D01*
X101028843Y-96687417D01*
X101050500Y-96578543D01*
X101050500Y-96381456D01*
X101012052Y-96188170D01*
X101012051Y-96188169D01*
X101012051Y-96188165D01*
X100972119Y-96091760D01*
X108469500Y-96091760D01*
X108469500Y-96249453D01*
X108500261Y-96404096D01*
X108500264Y-96404108D01*
X108560602Y-96549779D01*
X108560609Y-96549792D01*
X108648210Y-96680895D01*
X108648213Y-96680899D01*
X108759707Y-96792393D01*
X108759711Y-96792396D01*
X108890814Y-96879997D01*
X108890827Y-96880004D01*
X109011605Y-96930031D01*
X109036503Y-96940344D01*
X109191153Y-96971106D01*
X109191156Y-96971107D01*
X109191158Y-96971107D01*
X109348844Y-96971107D01*
X109348845Y-96971106D01*
X109503497Y-96940344D01*
X109649179Y-96880001D01*
X109780289Y-96792396D01*
X109891789Y-96680896D01*
X109979394Y-96549786D01*
X109980660Y-96546731D01*
X110006387Y-96484619D01*
X110039737Y-96404104D01*
X110070500Y-96249449D01*
X110070500Y-96091765D01*
X110070500Y-96091762D01*
X110070499Y-96091760D01*
X110042765Y-95952335D01*
X110039737Y-95937110D01*
X110028629Y-95910292D01*
X109979397Y-95791434D01*
X109979390Y-95791421D01*
X109891789Y-95660318D01*
X109891786Y-95660314D01*
X109780292Y-95548820D01*
X109780288Y-95548817D01*
X109649185Y-95461216D01*
X109649172Y-95461209D01*
X109503501Y-95400871D01*
X109503489Y-95400868D01*
X109348845Y-95370107D01*
X109348842Y-95370107D01*
X109191158Y-95370107D01*
X109191155Y-95370107D01*
X109036510Y-95400868D01*
X109036498Y-95400871D01*
X108890827Y-95461209D01*
X108890814Y-95461216D01*
X108759711Y-95548817D01*
X108759707Y-95548820D01*
X108648213Y-95660314D01*
X108648210Y-95660318D01*
X108560609Y-95791421D01*
X108560602Y-95791434D01*
X108500264Y-95937105D01*
X108500261Y-95937117D01*
X108469500Y-96091760D01*
X100972119Y-96091760D01*
X100969680Y-96085872D01*
X100962212Y-96016407D01*
X100984977Y-95964111D01*
X100993796Y-95952331D01*
X101044091Y-95817483D01*
X101050500Y-95757873D01*
X101050499Y-94662128D01*
X101044091Y-94602517D01*
X101020664Y-94539707D01*
X101017592Y-94531469D01*
X110991432Y-94531469D01*
X110991432Y-94689162D01*
X111022193Y-94843805D01*
X111022196Y-94843817D01*
X111082534Y-94989487D01*
X111082540Y-94989498D01*
X111133463Y-95065710D01*
X111154340Y-95132387D01*
X111150458Y-95160332D01*
X111151451Y-95160530D01*
X111119500Y-95321155D01*
X111119500Y-95478846D01*
X111150261Y-95633489D01*
X111150264Y-95633501D01*
X111210602Y-95779172D01*
X111210609Y-95779185D01*
X111298210Y-95910288D01*
X111298213Y-95910292D01*
X111409707Y-96021786D01*
X111409711Y-96021789D01*
X111540814Y-96109390D01*
X111540827Y-96109397D01*
X111686498Y-96169735D01*
X111686503Y-96169737D01*
X111841153Y-96200499D01*
X111841156Y-96200500D01*
X111841158Y-96200500D01*
X111998844Y-96200500D01*
X111998845Y-96200499D01*
X112153497Y-96169737D01*
X112209120Y-96146697D01*
X112304808Y-96107063D01*
X112305823Y-96109514D01*
X112362937Y-96097579D01*
X112428199Y-96122531D01*
X112467639Y-96173733D01*
X112490604Y-96229175D01*
X112490609Y-96229185D01*
X112578210Y-96360288D01*
X112578213Y-96360292D01*
X112689707Y-96471786D01*
X112689711Y-96471789D01*
X112820814Y-96559390D01*
X112820827Y-96559397D01*
X112966083Y-96619563D01*
X112966503Y-96619737D01*
X113080422Y-96642397D01*
X113121153Y-96650499D01*
X113121156Y-96650500D01*
X113121158Y-96650500D01*
X113278844Y-96650500D01*
X113278845Y-96650499D01*
X113433497Y-96619737D01*
X113552548Y-96570425D01*
X113622017Y-96562956D01*
X113647453Y-96570425D01*
X113766503Y-96619737D01*
X113880422Y-96642397D01*
X113921153Y-96650499D01*
X113921156Y-96650500D01*
X113921158Y-96650500D01*
X114078844Y-96650500D01*
X114078845Y-96650499D01*
X114233497Y-96619737D01*
X114379179Y-96559394D01*
X114510289Y-96471789D01*
X114555421Y-96426657D01*
X114616744Y-96393171D01*
X114686435Y-96398155D01*
X114711994Y-96411235D01*
X114821814Y-96484615D01*
X114821827Y-96484622D01*
X114909230Y-96520824D01*
X114967503Y-96544962D01*
X114969699Y-96545398D01*
X114970741Y-96545943D01*
X114973336Y-96546731D01*
X114973186Y-96547222D01*
X115031609Y-96577783D01*
X115060069Y-96619563D01*
X115088175Y-96687417D01*
X115088180Y-96687427D01*
X115175781Y-96818530D01*
X115175784Y-96818534D01*
X115287278Y-96930028D01*
X115287282Y-96930031D01*
X115418385Y-97017632D01*
X115418398Y-97017639D01*
X115554101Y-97073848D01*
X115564074Y-97077979D01*
X115590778Y-97083290D01*
X115652689Y-97115675D01*
X115687263Y-97176390D01*
X115683524Y-97246160D01*
X115642658Y-97302832D01*
X115614040Y-97319469D01*
X115534221Y-97352531D01*
X115534211Y-97352536D01*
X115403108Y-97440137D01*
X115403104Y-97440140D01*
X115291610Y-97551634D01*
X115291607Y-97551638D01*
X115204006Y-97682741D01*
X115203999Y-97682754D01*
X115143661Y-97828425D01*
X115143658Y-97828437D01*
X115112897Y-97983080D01*
X115112897Y-98140773D01*
X115143658Y-98295416D01*
X115143661Y-98295428D01*
X115203999Y-98441099D01*
X115204006Y-98441112D01*
X115291607Y-98572215D01*
X115291610Y-98572219D01*
X115403104Y-98683713D01*
X115403108Y-98683716D01*
X115534211Y-98771317D01*
X115534224Y-98771324D01*
X115673915Y-98829185D01*
X115679900Y-98831664D01*
X115834550Y-98862426D01*
X115834553Y-98862427D01*
X115834555Y-98862427D01*
X115992241Y-98862427D01*
X115992242Y-98862426D01*
X116146894Y-98831664D01*
X116259665Y-98784953D01*
X116292569Y-98771324D01*
X116292569Y-98771323D01*
X116292576Y-98771321D01*
X116423686Y-98683716D01*
X116535186Y-98572216D01*
X116622791Y-98441106D01*
X116631056Y-98421153D01*
X119549500Y-98421153D01*
X119549500Y-98578846D01*
X119580261Y-98733489D01*
X119580264Y-98733501D01*
X119640602Y-98879172D01*
X119640609Y-98879185D01*
X119700304Y-98968524D01*
X119721182Y-99035201D01*
X119702698Y-99102582D01*
X119700306Y-99106304D01*
X119690607Y-99120819D01*
X119690602Y-99120828D01*
X119630264Y-99266498D01*
X119630261Y-99266510D01*
X119599500Y-99421153D01*
X119599500Y-99578846D01*
X119630261Y-99733489D01*
X119630264Y-99733501D01*
X119690602Y-99879172D01*
X119690609Y-99879185D01*
X119778210Y-100010288D01*
X119778213Y-100010292D01*
X119889707Y-100121786D01*
X119889711Y-100121789D01*
X120020814Y-100209390D01*
X120020827Y-100209397D01*
X120117646Y-100249500D01*
X120166503Y-100269737D01*
X120321153Y-100300499D01*
X120321156Y-100300500D01*
X120321158Y-100300500D01*
X120478844Y-100300500D01*
X120478845Y-100300499D01*
X120633497Y-100269737D01*
X120779179Y-100209394D01*
X120910289Y-100121789D01*
X121021789Y-100010289D01*
X121109394Y-99879179D01*
X121169737Y-99733497D01*
X121200500Y-99578842D01*
X121200500Y-99421158D01*
X121200500Y-99421155D01*
X121200499Y-99421153D01*
X121169738Y-99266510D01*
X121169737Y-99266503D01*
X121167152Y-99260263D01*
X121109397Y-99120827D01*
X121109390Y-99120814D01*
X121049695Y-99031475D01*
X121028817Y-98964798D01*
X121047301Y-98897418D01*
X121049697Y-98893691D01*
X121059394Y-98879179D01*
X121119737Y-98733497D01*
X121150500Y-98578842D01*
X121150500Y-98421158D01*
X121150500Y-98421155D01*
X121150499Y-98421153D01*
X121143107Y-98383991D01*
X121119737Y-98266503D01*
X121099295Y-98217151D01*
X121059397Y-98120827D01*
X121059390Y-98120814D01*
X120971789Y-97989711D01*
X120971786Y-97989707D01*
X120860292Y-97878213D01*
X120860288Y-97878210D01*
X120729185Y-97790609D01*
X120729172Y-97790602D01*
X120583501Y-97730264D01*
X120583489Y-97730261D01*
X120428845Y-97699500D01*
X120428842Y-97699500D01*
X120271158Y-97699500D01*
X120271155Y-97699500D01*
X120116510Y-97730261D01*
X120116498Y-97730264D01*
X119970827Y-97790602D01*
X119970814Y-97790609D01*
X119839711Y-97878210D01*
X119839707Y-97878213D01*
X119728213Y-97989707D01*
X119728210Y-97989711D01*
X119640609Y-98120814D01*
X119640602Y-98120827D01*
X119580264Y-98266498D01*
X119580261Y-98266510D01*
X119549500Y-98421153D01*
X116631056Y-98421153D01*
X116683134Y-98295424D01*
X116713897Y-98140769D01*
X116713897Y-98060210D01*
X116733582Y-97993171D01*
X116786386Y-97947416D01*
X116855544Y-97937472D01*
X116862089Y-97938593D01*
X116935471Y-97953190D01*
X116935474Y-97953190D01*
X117093160Y-97953190D01*
X117093161Y-97953189D01*
X117247813Y-97922427D01*
X117393495Y-97862084D01*
X117524605Y-97774479D01*
X117636105Y-97662979D01*
X117723710Y-97531869D01*
X117784053Y-97386187D01*
X117814816Y-97231532D01*
X117814816Y-97073848D01*
X117814816Y-97073845D01*
X117814815Y-97073843D01*
X117810039Y-97049834D01*
X117784053Y-96919193D01*
X117742358Y-96818531D01*
X117723713Y-96773517D01*
X117723706Y-96773504D01*
X117636105Y-96642401D01*
X117636102Y-96642397D01*
X117524608Y-96530903D01*
X117524604Y-96530900D01*
X117393501Y-96443299D01*
X117393488Y-96443292D01*
X117247817Y-96382954D01*
X117247805Y-96382951D01*
X117093161Y-96352190D01*
X117093158Y-96352190D01*
X116935474Y-96352190D01*
X116935471Y-96352190D01*
X116780826Y-96382951D01*
X116780815Y-96382954D01*
X116769519Y-96387633D01*
X116700050Y-96395099D01*
X116637572Y-96363822D01*
X116601922Y-96303732D01*
X116598071Y-96273070D01*
X116598071Y-96229397D01*
X116598070Y-96229395D01*
X116589869Y-96188165D01*
X116567308Y-96074745D01*
X116567306Y-96074740D01*
X116506968Y-95929069D01*
X116506961Y-95929056D01*
X116419360Y-95797953D01*
X116419357Y-95797949D01*
X116307863Y-95686455D01*
X116307859Y-95686452D01*
X116176756Y-95598851D01*
X116176743Y-95598844D01*
X116031072Y-95538506D01*
X116031061Y-95538503D01*
X116028864Y-95538066D01*
X116027820Y-95537520D01*
X116025236Y-95536736D01*
X116025384Y-95536245D01*
X115966955Y-95505677D01*
X115938501Y-95463902D01*
X115910397Y-95396052D01*
X115910390Y-95396039D01*
X115822789Y-95264936D01*
X115822786Y-95264932D01*
X115711292Y-95153438D01*
X115711288Y-95153435D01*
X115583678Y-95068168D01*
X115583677Y-95068167D01*
X115580186Y-95065835D01*
X115580172Y-95065827D01*
X115434501Y-95005489D01*
X115434489Y-95005486D01*
X115279845Y-94974725D01*
X115279842Y-94974725D01*
X115122158Y-94974725D01*
X115122153Y-94974725D01*
X115019651Y-94995114D01*
X114950059Y-94988887D01*
X114927230Y-94971153D01*
X118179500Y-94971153D01*
X118179500Y-95128846D01*
X118210261Y-95283489D01*
X118210264Y-95283501D01*
X118270602Y-95429172D01*
X118270609Y-95429185D01*
X118358210Y-95560288D01*
X118358213Y-95560292D01*
X118469707Y-95671786D01*
X118469711Y-95671789D01*
X118600814Y-95759390D01*
X118600827Y-95759397D01*
X118693911Y-95797953D01*
X118746503Y-95819737D01*
X118901153Y-95850499D01*
X118901156Y-95850500D01*
X118901158Y-95850500D01*
X119058844Y-95850500D01*
X119058845Y-95850499D01*
X119213497Y-95819737D01*
X119359179Y-95759394D01*
X119490289Y-95671789D01*
X119601789Y-95560289D01*
X119689394Y-95429179D01*
X119749737Y-95283497D01*
X119780500Y-95128842D01*
X119780500Y-94971158D01*
X119780500Y-94971155D01*
X119780499Y-94971153D01*
X119749737Y-94816503D01*
X119749735Y-94816498D01*
X119689397Y-94670827D01*
X119689390Y-94670814D01*
X119601789Y-94539711D01*
X119601786Y-94539707D01*
X119490292Y-94428213D01*
X119490288Y-94428210D01*
X119359185Y-94340609D01*
X119359172Y-94340602D01*
X119213501Y-94280264D01*
X119213489Y-94280261D01*
X119058845Y-94249500D01*
X119058842Y-94249500D01*
X118901158Y-94249500D01*
X118901155Y-94249500D01*
X118746510Y-94280261D01*
X118746498Y-94280264D01*
X118600827Y-94340602D01*
X118600814Y-94340609D01*
X118469711Y-94428210D01*
X118469707Y-94428213D01*
X118358213Y-94539707D01*
X118358210Y-94539711D01*
X118270609Y-94670814D01*
X118270602Y-94670827D01*
X118210264Y-94816498D01*
X118210261Y-94816510D01*
X118179500Y-94971153D01*
X114927230Y-94971153D01*
X114894882Y-94946024D01*
X114873843Y-94897688D01*
X114857695Y-94816510D01*
X114849737Y-94776503D01*
X114849735Y-94776498D01*
X114789397Y-94630827D01*
X114789390Y-94630814D01*
X114701789Y-94499711D01*
X114701786Y-94499707D01*
X114590292Y-94388213D01*
X114590288Y-94388210D01*
X114459185Y-94300609D01*
X114459172Y-94300602D01*
X114313501Y-94240264D01*
X114313489Y-94240261D01*
X114158845Y-94209500D01*
X114158842Y-94209500D01*
X114001158Y-94209500D01*
X114001155Y-94209500D01*
X113846510Y-94240261D01*
X113846498Y-94240264D01*
X113700827Y-94300602D01*
X113700814Y-94300609D01*
X113569711Y-94388210D01*
X113569707Y-94388213D01*
X113458213Y-94499707D01*
X113458210Y-94499711D01*
X113370609Y-94630814D01*
X113370602Y-94630827D01*
X113310264Y-94776498D01*
X113310261Y-94776510D01*
X113279500Y-94931153D01*
X113278903Y-94937218D01*
X113276139Y-94936945D01*
X113259815Y-94992539D01*
X113207011Y-95038294D01*
X113155500Y-95049500D01*
X113121155Y-95049500D01*
X112966510Y-95080261D01*
X112966498Y-95080264D01*
X112815193Y-95142937D01*
X112814778Y-95141937D01*
X112811272Y-95144611D01*
X112783858Y-95146813D01*
X112756936Y-95152411D01*
X112749532Y-95149571D01*
X112741627Y-95150207D01*
X112717375Y-95137239D01*
X112691700Y-95127393D01*
X112685436Y-95120161D01*
X112680012Y-95117261D01*
X112669757Y-95102058D01*
X112658614Y-95089193D01*
X112655113Y-95082913D01*
X112629394Y-95020821D01*
X112575695Y-94940455D01*
X112573264Y-94936094D01*
X112566597Y-94906693D01*
X112557591Y-94877929D01*
X112558536Y-94871141D01*
X112557814Y-94867954D01*
X112559707Y-94862738D01*
X112561483Y-94849987D01*
X112560481Y-94849788D01*
X112592431Y-94689162D01*
X112592432Y-94689160D01*
X112592432Y-94531471D01*
X112592431Y-94531469D01*
X112571892Y-94428213D01*
X112561669Y-94376819D01*
X112551576Y-94352452D01*
X112501329Y-94231143D01*
X112501322Y-94231130D01*
X112413721Y-94100027D01*
X112413718Y-94100023D01*
X112302224Y-93988529D01*
X112302220Y-93988526D01*
X112171117Y-93900925D01*
X112171104Y-93900918D01*
X112025433Y-93840580D01*
X112025421Y-93840577D01*
X111870777Y-93809816D01*
X111870774Y-93809816D01*
X111713090Y-93809816D01*
X111713087Y-93809816D01*
X111558442Y-93840577D01*
X111558430Y-93840580D01*
X111412759Y-93900918D01*
X111412746Y-93900925D01*
X111281643Y-93988526D01*
X111281639Y-93988529D01*
X111170145Y-94100023D01*
X111170142Y-94100027D01*
X111082541Y-94231130D01*
X111082534Y-94231143D01*
X111022196Y-94376814D01*
X111022193Y-94376826D01*
X110991432Y-94531469D01*
X101017592Y-94531469D01*
X100993797Y-94467671D01*
X100993793Y-94467664D01*
X100907547Y-94352455D01*
X100907544Y-94352452D01*
X100792335Y-94266206D01*
X100792328Y-94266202D01*
X100657482Y-94215908D01*
X100657483Y-94215908D01*
X100597883Y-94209501D01*
X100597881Y-94209500D01*
X100597873Y-94209500D01*
X100597864Y-94209500D01*
X99502129Y-94209500D01*
X99502123Y-94209501D01*
X99442516Y-94215908D01*
X99307671Y-94266202D01*
X99307664Y-94266206D01*
X99192455Y-94352452D01*
X99192452Y-94352455D01*
X99106206Y-94467664D01*
X99106202Y-94467671D01*
X99055908Y-94602517D01*
X99052865Y-94630827D01*
X99049501Y-94662123D01*
X99049500Y-94662135D01*
X99049500Y-95757870D01*
X99049501Y-95757876D01*
X99055908Y-95817483D01*
X99106202Y-95952328D01*
X99106206Y-95952335D01*
X99115023Y-95964113D01*
X99139440Y-96029578D01*
X99130318Y-96085874D01*
X99115135Y-96122531D01*
X99087950Y-96188164D01*
X99087948Y-96188168D01*
X99087947Y-96188171D01*
X99049500Y-96381456D01*
X99049500Y-96381459D01*
X99049500Y-96578541D01*
X99049500Y-96578543D01*
X99049499Y-96578543D01*
X98513155Y-96578543D01*
X98507205Y-91652486D01*
X99499500Y-91652486D01*
X99499500Y-91947513D01*
X99531571Y-92191113D01*
X99538007Y-92239993D01*
X99604517Y-92488213D01*
X99614361Y-92524951D01*
X99614364Y-92524961D01*
X99727254Y-92797500D01*
X99727258Y-92797510D01*
X99874761Y-93052993D01*
X100054352Y-93287040D01*
X100054358Y-93287047D01*
X100262952Y-93495641D01*
X100262959Y-93495647D01*
X100497006Y-93675238D01*
X100752489Y-93822741D01*
X100752490Y-93822741D01*
X100752493Y-93822743D01*
X101025048Y-93935639D01*
X101310007Y-94011993D01*
X101602494Y-94050500D01*
X101602501Y-94050500D01*
X101897499Y-94050500D01*
X101897506Y-94050500D01*
X102189993Y-94011993D01*
X102474952Y-93935639D01*
X102747507Y-93822743D01*
X103002994Y-93675238D01*
X103237042Y-93495646D01*
X103445646Y-93287042D01*
X103625238Y-93052994D01*
X103637848Y-93031153D01*
X113369500Y-93031153D01*
X113369500Y-93188846D01*
X113400261Y-93343489D01*
X113400264Y-93343501D01*
X113460602Y-93489172D01*
X113460609Y-93489185D01*
X113548210Y-93620288D01*
X113548213Y-93620292D01*
X113659707Y-93731786D01*
X113659711Y-93731789D01*
X113790814Y-93819390D01*
X113790827Y-93819397D01*
X113936498Y-93879735D01*
X113936503Y-93879737D01*
X114043022Y-93900925D01*
X114091153Y-93910499D01*
X114091156Y-93910500D01*
X114091158Y-93910500D01*
X114248844Y-93910500D01*
X114248845Y-93910499D01*
X114403497Y-93879737D01*
X114549179Y-93819394D01*
X114680289Y-93731789D01*
X114791789Y-93620289D01*
X114879394Y-93489179D01*
X114939737Y-93343497D01*
X114970500Y-93188842D01*
X114970500Y-93031158D01*
X114970500Y-93031155D01*
X114970499Y-93031153D01*
X114939737Y-92876503D01*
X114939735Y-92876498D01*
X114879397Y-92730827D01*
X114879390Y-92730814D01*
X114791789Y-92599711D01*
X114791786Y-92599707D01*
X114680292Y-92488213D01*
X114680288Y-92488210D01*
X114549185Y-92400609D01*
X114549172Y-92400602D01*
X114403501Y-92340264D01*
X114403489Y-92340261D01*
X114248845Y-92309500D01*
X114248842Y-92309500D01*
X114091158Y-92309500D01*
X114091155Y-92309500D01*
X113936510Y-92340261D01*
X113936498Y-92340264D01*
X113790827Y-92400602D01*
X113790814Y-92400609D01*
X113659711Y-92488210D01*
X113659707Y-92488213D01*
X113548213Y-92599707D01*
X113548210Y-92599711D01*
X113460609Y-92730814D01*
X113460602Y-92730827D01*
X113400264Y-92876498D01*
X113400261Y-92876510D01*
X113369500Y-93031153D01*
X103637848Y-93031153D01*
X103772743Y-92797507D01*
X103885639Y-92524952D01*
X103961993Y-92239993D01*
X104000500Y-91947506D01*
X104000500Y-91652494D01*
X104000499Y-91652486D01*
X119449500Y-91652486D01*
X119449500Y-91947513D01*
X119481571Y-92191113D01*
X119488007Y-92239993D01*
X119554517Y-92488213D01*
X119564361Y-92524951D01*
X119564364Y-92524961D01*
X119677254Y-92797500D01*
X119677258Y-92797510D01*
X119824761Y-93052993D01*
X120004352Y-93287040D01*
X120004358Y-93287047D01*
X120212952Y-93495641D01*
X120212959Y-93495647D01*
X120447006Y-93675238D01*
X120702489Y-93822741D01*
X120702490Y-93822741D01*
X120702493Y-93822743D01*
X120975048Y-93935639D01*
X121260007Y-94011993D01*
X121552494Y-94050500D01*
X121552501Y-94050500D01*
X121847499Y-94050500D01*
X121847506Y-94050500D01*
X122139993Y-94011993D01*
X122424952Y-93935639D01*
X122697507Y-93822743D01*
X122952994Y-93675238D01*
X123187042Y-93495646D01*
X123395646Y-93287042D01*
X123575238Y-93052994D01*
X123722743Y-92797507D01*
X123835639Y-92524952D01*
X123911993Y-92239993D01*
X123950500Y-91947506D01*
X123950500Y-91652494D01*
X123911993Y-91360007D01*
X123835639Y-91075048D01*
X123722743Y-90802493D01*
X123575238Y-90547006D01*
X123395646Y-90312958D01*
X123395641Y-90312952D01*
X123187047Y-90104358D01*
X123187040Y-90104352D01*
X122952993Y-89924761D01*
X122697510Y-89777258D01*
X122697500Y-89777254D01*
X122424961Y-89664364D01*
X122424954Y-89664362D01*
X122424952Y-89664361D01*
X122139993Y-89588007D01*
X122091113Y-89581571D01*
X121847513Y-89549500D01*
X121847506Y-89549500D01*
X121552494Y-89549500D01*
X121552486Y-89549500D01*
X121274085Y-89586153D01*
X121260007Y-89588007D01*
X120975048Y-89664361D01*
X120975038Y-89664364D01*
X120702499Y-89777254D01*
X120702489Y-89777258D01*
X120447006Y-89924761D01*
X120212959Y-90104352D01*
X120212952Y-90104358D01*
X120004358Y-90312952D01*
X120004352Y-90312959D01*
X119824761Y-90547006D01*
X119677258Y-90802489D01*
X119677254Y-90802499D01*
X119564364Y-91075038D01*
X119564361Y-91075048D01*
X119488008Y-91360004D01*
X119488006Y-91360015D01*
X119449500Y-91652486D01*
X104000499Y-91652486D01*
X103961993Y-91360007D01*
X103885639Y-91075048D01*
X103772743Y-90802493D01*
X103625238Y-90547006D01*
X103445646Y-90312958D01*
X103445641Y-90312952D01*
X103237047Y-90104358D01*
X103237040Y-90104352D01*
X103002993Y-89924761D01*
X102747510Y-89777258D01*
X102747500Y-89777254D01*
X102474961Y-89664364D01*
X102474954Y-89664362D01*
X102474952Y-89664361D01*
X102189993Y-89588007D01*
X102141113Y-89581571D01*
X101897513Y-89549500D01*
X101897506Y-89549500D01*
X101602494Y-89549500D01*
X101602486Y-89549500D01*
X101324085Y-89586153D01*
X101310007Y-89588007D01*
X101025048Y-89664361D01*
X101025038Y-89664364D01*
X100752499Y-89777254D01*
X100752489Y-89777258D01*
X100497006Y-89924761D01*
X100262959Y-90104352D01*
X100262952Y-90104358D01*
X100054358Y-90312952D01*
X100054352Y-90312959D01*
X99874761Y-90547006D01*
X99727258Y-90802489D01*
X99727254Y-90802499D01*
X99614364Y-91075038D01*
X99614361Y-91075048D01*
X99538008Y-91360004D01*
X99538006Y-91360015D01*
X99499500Y-91652486D01*
X98507205Y-91652486D01*
X98504333Y-89274149D01*
X98523937Y-89207087D01*
X98576685Y-89161268D01*
X98628333Y-89150000D01*
X124725500Y-89150000D01*
X124792539Y-89169685D01*
G37*
%TD.AperFunction*%
%TD*%
M02*
