%TF.GenerationSoftware,KiCad,Pcbnew,9.0.7*%
%TF.CreationDate,2026-03-25T18:13:14+01:00*%
%TF.ProjectId,SnapCore-Devboard-Rev1,536e6170-436f-4726-952d-446576626f61,rev?*%
%TF.SameCoordinates,Original*%
%TF.FileFunction,Copper,L1,Top*%
%TF.FilePolarity,Positive*%
%FSLAX46Y46*%
G04 Gerber Fmt 4.6, Leading zero omitted, Abs format (unit mm)*
G04 Created by KiCad (PCBNEW 9.0.7) date 2026-03-25 18:13:14*
%MOMM*%
%LPD*%
G01*
G04 APERTURE LIST*
G04 Aperture macros list*
%AMRoundRect*
0 Rectangle with rounded corners*
0 $1 Rounding radius*
0 $2 $3 $4 $5 $6 $7 $8 $9 X,Y pos of 4 corners*
0 Add a 4 corners polygon primitive as box body*
4,1,4,$2,$3,$4,$5,$6,$7,$8,$9,$2,$3,0*
0 Add four circle primitives for the rounded corners*
1,1,$1+$1,$2,$3*
1,1,$1+$1,$4,$5*
1,1,$1+$1,$6,$7*
1,1,$1+$1,$8,$9*
0 Add four rect primitives between the rounded corners*
20,1,$1+$1,$2,$3,$4,$5,0*
20,1,$1+$1,$4,$5,$6,$7,0*
20,1,$1+$1,$6,$7,$8,$9,0*
20,1,$1+$1,$8,$9,$2,$3,0*%
G04 Aperture macros list end*
%TA.AperFunction,SMDPad,CuDef*%
%ADD10C,2.000000*%
%TD*%
%TA.AperFunction,SMDPad,CuDef*%
%ADD11RoundRect,0.135000X-0.185000X0.135000X-0.185000X-0.135000X0.185000X-0.135000X0.185000X0.135000X0*%
%TD*%
%TA.AperFunction,SMDPad,CuDef*%
%ADD12RoundRect,0.135000X0.185000X-0.135000X0.185000X0.135000X-0.185000X0.135000X-0.185000X-0.135000X0*%
%TD*%
%TA.AperFunction,SMDPad,CuDef*%
%ADD13RoundRect,0.140000X-0.170000X0.140000X-0.170000X-0.140000X0.170000X-0.140000X0.170000X0.140000X0*%
%TD*%
%TA.AperFunction,SMDPad,CuDef*%
%ADD14RoundRect,0.150000X-0.587500X-0.150000X0.587500X-0.150000X0.587500X0.150000X-0.587500X0.150000X0*%
%TD*%
%TA.AperFunction,SMDPad,CuDef*%
%ADD15RoundRect,0.250000X-0.475000X0.250000X-0.475000X-0.250000X0.475000X-0.250000X0.475000X0.250000X0*%
%TD*%
%TA.AperFunction,SMDPad,CuDef*%
%ADD16RoundRect,0.218750X-0.256250X0.218750X-0.256250X-0.218750X0.256250X-0.218750X0.256250X0.218750X0*%
%TD*%
%TA.AperFunction,SMDPad,CuDef*%
%ADD17RoundRect,0.243750X0.243750X0.456250X-0.243750X0.456250X-0.243750X-0.456250X0.243750X-0.456250X0*%
%TD*%
%TA.AperFunction,BGAPad,CuDef*%
%ADD18C,0.250000*%
%TD*%
%TA.AperFunction,SMDPad,CuDef*%
%ADD19R,4.850000X4.850000*%
%TD*%
%TA.AperFunction,ComponentPad*%
%ADD20C,3.500000*%
%TD*%
%TA.AperFunction,SMDPad,CuDef*%
%ADD21RoundRect,0.140000X0.140000X0.170000X-0.140000X0.170000X-0.140000X-0.170000X0.140000X-0.170000X0*%
%TD*%
%TA.AperFunction,SMDPad,CuDef*%
%ADD22RoundRect,0.200000X-0.275000X0.200000X-0.275000X-0.200000X0.275000X-0.200000X0.275000X0.200000X0*%
%TD*%
%TA.AperFunction,SMDPad,CuDef*%
%ADD23RoundRect,0.150000X0.150000X0.200000X-0.150000X0.200000X-0.150000X-0.200000X0.150000X-0.200000X0*%
%TD*%
%TA.AperFunction,SMDPad,CuDef*%
%ADD24RoundRect,0.140000X-0.140000X-0.170000X0.140000X-0.170000X0.140000X0.170000X-0.140000X0.170000X0*%
%TD*%
%TA.AperFunction,SMDPad,CuDef*%
%ADD25RoundRect,0.147500X-0.147500X-0.172500X0.147500X-0.172500X0.147500X0.172500X-0.147500X0.172500X0*%
%TD*%
%TA.AperFunction,SMDPad,CuDef*%
%ADD26RoundRect,0.150000X-0.512500X-0.150000X0.512500X-0.150000X0.512500X0.150000X-0.512500X0.150000X0*%
%TD*%
%TA.AperFunction,SMDPad,CuDef*%
%ADD27RoundRect,0.200000X-0.200000X-0.275000X0.200000X-0.275000X0.200000X0.275000X-0.200000X0.275000X0*%
%TD*%
%TA.AperFunction,SMDPad,CuDef*%
%ADD28RoundRect,0.250000X0.375000X0.625000X-0.375000X0.625000X-0.375000X-0.625000X0.375000X-0.625000X0*%
%TD*%
%TA.AperFunction,SMDPad,CuDef*%
%ADD29RoundRect,0.140000X0.170000X-0.140000X0.170000X0.140000X-0.170000X0.140000X-0.170000X-0.140000X0*%
%TD*%
%TA.AperFunction,SMDPad,CuDef*%
%ADD30RoundRect,0.225000X0.250000X-0.225000X0.250000X0.225000X-0.250000X0.225000X-0.250000X-0.225000X0*%
%TD*%
%TA.AperFunction,SMDPad,CuDef*%
%ADD31R,1.000000X1.800000*%
%TD*%
%TA.AperFunction,SMDPad,CuDef*%
%ADD32R,0.750000X1.000000*%
%TD*%
%TA.AperFunction,SMDPad,CuDef*%
%ADD33RoundRect,0.135000X-0.135000X-0.185000X0.135000X-0.185000X0.135000X0.185000X-0.135000X0.185000X0*%
%TD*%
%TA.AperFunction,ComponentPad*%
%ADD34RoundRect,0.250000X0.750000X-0.600000X0.750000X0.600000X-0.750000X0.600000X-0.750000X-0.600000X0*%
%TD*%
%TA.AperFunction,ComponentPad*%
%ADD35O,2.000000X1.700000*%
%TD*%
%TA.AperFunction,SMDPad,CuDef*%
%ADD36RoundRect,0.225000X0.225000X0.250000X-0.225000X0.250000X-0.225000X-0.250000X0.225000X-0.250000X0*%
%TD*%
%TA.AperFunction,SMDPad,CuDef*%
%ADD37RoundRect,0.200000X0.053033X-0.335876X0.335876X-0.053033X-0.053033X0.335876X-0.335876X0.053033X0*%
%TD*%
%TA.AperFunction,SMDPad,CuDef*%
%ADD38RoundRect,0.150000X-0.150000X-0.425000X0.150000X-0.425000X0.150000X0.425000X-0.150000X0.425000X0*%
%TD*%
%TA.AperFunction,SMDPad,CuDef*%
%ADD39RoundRect,0.075000X-0.075000X-0.500000X0.075000X-0.500000X0.075000X0.500000X-0.075000X0.500000X0*%
%TD*%
%TA.AperFunction,HeatsinkPad*%
%ADD40O,1.000000X2.100000*%
%TD*%
%TA.AperFunction,HeatsinkPad*%
%ADD41O,1.000000X1.800000*%
%TD*%
%TA.AperFunction,SMDPad,CuDef*%
%ADD42RoundRect,0.135000X0.135000X0.185000X-0.135000X0.185000X-0.135000X-0.185000X0.135000X-0.185000X0*%
%TD*%
%TA.AperFunction,SMDPad,CuDef*%
%ADD43R,1.600000X0.800000*%
%TD*%
%TA.AperFunction,SMDPad,CuDef*%
%ADD44RoundRect,0.250000X-0.250000X-0.475000X0.250000X-0.475000X0.250000X0.475000X-0.250000X0.475000X0*%
%TD*%
%TA.AperFunction,SMDPad,CuDef*%
%ADD45RoundRect,0.147500X0.172500X-0.147500X0.172500X0.147500X-0.172500X0.147500X-0.172500X-0.147500X0*%
%TD*%
%TA.AperFunction,SMDPad,CuDef*%
%ADD46RoundRect,0.200000X0.250000X0.200000X-0.250000X0.200000X-0.250000X-0.200000X0.250000X-0.200000X0*%
%TD*%
%TA.AperFunction,ComponentPad*%
%ADD47R,1.000000X1.000000*%
%TD*%
%TA.AperFunction,ComponentPad*%
%ADD48C,1.000000*%
%TD*%
%TA.AperFunction,SMDPad,CuDef*%
%ADD49RoundRect,0.225000X-0.225000X-0.250000X0.225000X-0.250000X0.225000X0.250000X-0.225000X0.250000X0*%
%TD*%
%TA.AperFunction,ViaPad*%
%ADD50C,0.600000*%
%TD*%
%TA.AperFunction,Conductor*%
%ADD51C,0.400000*%
%TD*%
%TA.AperFunction,Conductor*%
%ADD52C,0.200000*%
%TD*%
%TA.AperFunction,Conductor*%
%ADD53C,0.350000*%
%TD*%
%TA.AperFunction,Conductor*%
%ADD54C,0.500000*%
%TD*%
%TA.AperFunction,Conductor*%
%ADD55C,0.150000*%
%TD*%
%TA.AperFunction,Conductor*%
%ADD56C,0.300000*%
%TD*%
G04 APERTURE END LIST*
D10*
%TO.P,TP2,1,1*%
%TO.N,BAT0*%
X123100000Y-107500000D03*
%TD*%
D11*
%TO.P,R17,1*%
%TO.N,INTERNAL_I2C_SDA*%
X112200000Y-106040000D03*
%TO.P,R17,2*%
%TO.N,3V3*%
X112200000Y-107060000D03*
%TD*%
D12*
%TO.P,R9,1*%
%TO.N,3V3*%
X104100000Y-116650000D03*
%TO.P,R9,2*%
%TO.N,Net-(RED1-A)*%
X104100000Y-115630000D03*
%TD*%
D13*
%TO.P,C19,1*%
%TO.N,GND*%
X106100000Y-92845000D03*
%TO.P,C19,2*%
%TO.N,DEC3*%
X106100000Y-93805000D03*
%TD*%
D14*
%TO.P,Q1,1,G*%
%TO.N,VBUS*%
X114962500Y-119350000D03*
%TO.P,Q1,2,D*%
%TO.N,VIN*%
X114962500Y-121250000D03*
%TO.P,Q1,3,S*%
%TO.N,BAT0*%
X116837500Y-120300000D03*
%TD*%
D15*
%TO.P,C7,1*%
%TO.N,GND*%
X117570000Y-93150000D03*
%TO.P,C7,2*%
%TO.N,RESET*%
X117570000Y-95050000D03*
%TD*%
D16*
%TO.P,RED1,1,K*%
%TO.N,GND*%
X104090000Y-112782500D03*
%TO.P,RED1,2,A*%
%TO.N,Net-(RED1-A)*%
X104090000Y-114357500D03*
%TD*%
D17*
%TO.P,D4,1,K*%
%TO.N,Net-(D4-K)*%
X122137500Y-121800000D03*
%TO.P,D4,2,A*%
%TO.N,Net-(D3-A)*%
X120262500Y-121800000D03*
%TD*%
D13*
%TO.P,C21,1*%
%TO.N,GND*%
X105800000Y-95970000D03*
%TO.P,C21,2*%
%TO.N,XC2*%
X105800000Y-96930000D03*
%TD*%
D18*
%TO.P,U1,A8,P0.31*%
%TO.N,P0.31_AIN7_BAT*%
X107892500Y-101837500D03*
%TO.P,U1,A10,P0.29*%
%TO.N,P0.29_AIN5_LOW_A3_D3*%
X107892500Y-101337500D03*
%TO.P,U1,A12,P0.02*%
%TO.N,P0.02_AIN0_LOW_A0_D0*%
X107892500Y-100837500D03*
%TO.P,U1,A14,P1.15*%
%TO.N,P1.15_MOSI_D10*%
X107892500Y-100337500D03*
%TO.P,U1,A16,P1.13*%
%TO.N,P1.13_SCK_D8*%
X107892500Y-99837500D03*
%TO.P,U1,A18,DEC2*%
%TO.N,GND*%
X107892500Y-99337500D03*
%TO.P,U1,A20,P1.10*%
%TO.N,unconnected-(U1-P1.10-PadA20)*%
X107892500Y-98837500D03*
%TO.P,U1,A22,VDD*%
%TO.N,3V3*%
X107892500Y-98337500D03*
%TO.P,U1,A23,XC2*%
%TO.N,XC2*%
X107892500Y-97837500D03*
%TO.P,U1,AA24,SWDCLK*%
%TO.N,SWDCLK*%
X113392500Y-97337500D03*
%TO.P,U1,AB2,DCCH*%
%TO.N,unconnected-(U1-DCCH-PadAB2)*%
X113642500Y-103337500D03*
%TO.P,U1,AC5,DECUSB*%
%TO.N,Net-(U1-DECUSB)*%
X113892500Y-102587500D03*
%TO.P,U1,AC9,P0.14*%
%TO.N,unconnected-(U1-P0.14-PadAC9)*%
X113892500Y-101587500D03*
%TO.P,U1,AC11,P0.16*%
%TO.N,unconnected-(U1-P0.16-PadAC11)*%
X113892500Y-101087500D03*
%TO.P,U1,AC13,~{RESET}*%
%TO.N,RESET*%
X113892500Y-100587500D03*
%TO.P,U1,AC15,P0.19*%
%TO.N,unconnected-(U1-P0.19-PadAC15)*%
X113892500Y-100087500D03*
%TO.P,U1,AC17,P0.21*%
%TO.N,unconnected-(U1-P0.21-PadAC17)*%
X113892500Y-99587500D03*
%TO.P,U1,AC19,P0.23*%
%TO.N,unconnected-(U1-P0.23-PadAC19)*%
X113892500Y-99087500D03*
%TO.P,U1,AC21,P0.25*%
%TO.N,unconnected-(U1-P0.25-PadAC21)*%
X113892500Y-98587500D03*
%TO.P,U1,AC24,SWDIO*%
%TO.N,SWDIO*%
X113892500Y-97337500D03*
%TO.P,U1,AD2,VBUS*%
%TO.N,VBUS*%
X114392500Y-103337500D03*
%TO.P,U1,AD4,D-*%
%TO.N,Net-(U1-D-)*%
X114392500Y-102837500D03*
%TO.P,U1,AD6,D+*%
%TO.N,Net-(U1-D+)*%
X114392500Y-102337500D03*
%TO.P,U1,AD8,P0.13*%
%TO.N,P0.14_READ_BAT*%
X114392500Y-101837500D03*
%TO.P,U1,AD10,P0.15*%
%TO.N,P0.16_PDM_DATA*%
X114392500Y-101337500D03*
%TO.P,U1,AD12,P0.17*%
%TO.N,GND*%
X114392500Y-100837500D03*
%TO.P,U1,AD14,VDD*%
%TO.N,3V3*%
X114392500Y-100337500D03*
%TO.P,U1,AD16,P0.20*%
%TO.N,P0.20_QSPI_SIO_0*%
X114392500Y-99837500D03*
%TO.P,U1,AD18,P0.22*%
%TO.N,P0.22_QSPI_SIO_2*%
X114392500Y-99337500D03*
%TO.P,U1,AD20,P0.24*%
%TO.N,P0.24_QSPI_SIO_1*%
X114392500Y-98837500D03*
%TO.P,U1,AD22,P1.00*%
%TO.N,P1.00_PDM_CLK*%
X114392500Y-98337500D03*
%TO.P,U1,AD23,VDD*%
%TO.N,3V3*%
X114392500Y-97837500D03*
%TO.P,U1,B1,VDD*%
X108392500Y-103837500D03*
%TO.P,U1,B3,DCC*%
%TO.N,DCC*%
X108392500Y-103087500D03*
%TO.P,U1,B5,DEC4*%
%TO.N,DEC4*%
X108392500Y-102587500D03*
%TO.P,U1,B7,VSS*%
%TO.N,GND*%
X108392500Y-102087500D03*
%TO.P,U1,B9,P0.30*%
%TO.N,unconnected-(U1-P0.30-PadB9)*%
X108392500Y-101587500D03*
%TO.P,U1,B11,P0.28*%
%TO.N,P0.28_AIN4_LOW_A2_D2*%
X108392500Y-101087500D03*
%TO.P,U1,B13,P0.03*%
%TO.N,unconnected-(U1-P0.03-PadB13)*%
X108392500Y-100587500D03*
%TO.P,U1,B15,P1.14*%
%TO.N,P1.14_MISO_D9*%
X108392500Y-100087500D03*
%TO.P,U1,B17,P1.12*%
%TO.N,P1.12_RX_D7*%
X108392500Y-99587500D03*
%TO.P,U1,B19,P1.11*%
%TO.N,P1.11_TX_D6*%
X108392500Y-99087500D03*
%TO.P,U1,B24,XC1*%
%TO.N,XC1*%
X108392500Y-97337500D03*
%TO.P,U1,C1,DEC1*%
%TO.N,Net-(U1-DEC1)*%
X108892500Y-103837500D03*
%TO.P,U1,D2,P0.00*%
%TO.N,Net-(U1-P0.00)*%
X109142500Y-103337500D03*
%TO.P,U1,D23,DEC3*%
%TO.N,DEC3*%
X109142500Y-97837500D03*
%TO.P,U1,E24,DEC6*%
%TO.N,DEC4*%
X109392500Y-97337500D03*
D19*
%TO.P,U1,EP,VSS*%
%TO.N,GND*%
X111142500Y-100587500D03*
D18*
%TO.P,U1,F2,P0.01*%
%TO.N,Net-(U1-P0.01)*%
X109642500Y-103337500D03*
%TO.P,U1,F23,VSS_PA*%
%TO.N,GND*%
X109642500Y-97837500D03*
%TO.P,U1,G1,P0.26*%
%TO.N,P0.21_QSPI_SCK*%
X109892500Y-103837500D03*
%TO.P,U1,H2,P0.27*%
%TO.N,unconnected-(U1-P0.27-PadH2)*%
X110142500Y-103337500D03*
%TO.P,U1,H23,ANT*%
%TO.N,ANT_H23*%
X110142500Y-97837500D03*
%TO.P,U1,J1,P0.04*%
%TO.N,P0.04_AIN2_A4_D4*%
X110392500Y-103837500D03*
%TO.P,U1,J24,P0.10*%
%TO.N,P0.10{slash}NFC2*%
X110392500Y-97337500D03*
%TO.P,U1,K2,P0.05*%
%TO.N,unconnected-(U1-P0.05-PadK2)*%
X110642500Y-103337500D03*
%TO.P,U1,L1,P0.06*%
%TO.N,INTERNAL_I2C_SCL*%
X110892500Y-103837500D03*
%TO.P,U1,L24,P0.09*%
%TO.N,P0.09{slash}NFC1*%
X110892500Y-97337500D03*
%TO.P,U1,M2,P0.07*%
%TO.N,unconnected-(U1-P0.07-PadM2)*%
X111142500Y-103337500D03*
%TO.P,U1,N1,P0.08*%
%TO.N,INTERNAL_I2C_SDA*%
X111392500Y-103837500D03*
%TO.P,U1,N24,DEC5*%
%TO.N,Net-(U1-DEC5)*%
X111392500Y-97337500D03*
%TO.P,U1,P2,P1.08*%
%TO.N,unconnected-(U1-P1.08-PadP2)*%
X111642500Y-103337500D03*
%TO.P,U1,P23,P1.07*%
%TO.N,unconnected-(U1-P1.07-PadP23)*%
X111642500Y-97837500D03*
%TO.P,U1,R1,P1.09*%
%TO.N,P0.23_QSPI_SIO_3*%
X111892500Y-103837500D03*
%TO.P,U1,R24,P1.06*%
%TO.N,unconnected-(U1-P1.06-PadR24)*%
X111892500Y-97337500D03*
%TO.P,U1,T2,P0.11*%
%TO.N,unconnected-(U1-P0.11-PadT2)*%
X112142500Y-103337500D03*
%TO.P,U1,T23,P1.05*%
%TO.N,unconnected-(U1-P1.05-PadT23)*%
X112142500Y-97837500D03*
%TO.P,U1,U1,P0.12*%
%TO.N,P0.25_QSPI_CSN*%
X112392500Y-103837500D03*
%TO.P,U1,U24,P1.04*%
%TO.N,unconnected-(U1-P1.04-PadU24)*%
X112392500Y-97337500D03*
%TO.P,U1,V23,P1.03*%
%TO.N,unconnected-(U1-P1.03-PadV23)*%
X112642500Y-97837500D03*
%TO.P,U1,W1,VDD*%
%TO.N,3V3*%
X112892500Y-103837500D03*
%TO.P,U1,W24,P1.02*%
%TO.N,unconnected-(U1-P1.02-PadW24)*%
X112892500Y-97337500D03*
%TO.P,U1,Y2,VDDH*%
%TO.N,3V3*%
X113142500Y-103337500D03*
%TO.P,U1,Y23,P1.01*%
%TO.N,unconnected-(U1-P1.01-PadY23)*%
X113142500Y-97837500D03*
%TD*%
D20*
%TO.P,H2,1*%
%TO.N,N/C*%
X121700000Y-91800000D03*
%TD*%
D21*
%TO.P,C16,1*%
%TO.N,Net-(AE2-A)*%
X110885000Y-90850000D03*
%TO.P,C16,2*%
%TO.N,GND*%
X109925000Y-90850000D03*
%TD*%
D22*
%TO.P,R7,1*%
%TO.N,VBUS*%
X117600000Y-122875000D03*
%TO.P,R7,2*%
%TO.N,Net-(D3-A)*%
X117600000Y-124525000D03*
%TD*%
D23*
%TO.P,D5,1,K*%
%TO.N,VIN*%
X112650000Y-115150000D03*
%TO.P,D5,2,A*%
%TO.N,VBUS*%
X114050000Y-115150000D03*
%TD*%
D24*
%TO.P,C20,1*%
%TO.N,GND*%
X103690000Y-94200000D03*
%TO.P,C20,2*%
%TO.N,XC1*%
X104650000Y-94200000D03*
%TD*%
D25*
%TO.P,L1,1,1*%
%TO.N,ANT_H23*%
X109930000Y-92300000D03*
%TO.P,L1,2,2*%
%TO.N,Net-(AE2-A)*%
X110900000Y-92300000D03*
%TD*%
D26*
%TO.P,U4,1,~{CHRG}*%
%TO.N,Net-(D4-K)*%
X109962500Y-111550000D03*
%TO.P,U4,2,GND*%
%TO.N,GND*%
X109962500Y-112500000D03*
%TO.P,U4,3,BAT*%
%TO.N,BAT0*%
X109962500Y-113450000D03*
%TO.P,U4,4,V_{CC}*%
%TO.N,VBUS*%
X112237500Y-113450000D03*
%TO.P,U4,5,STDBY*%
%TO.N,Net-(D3-K)*%
X112237500Y-112500000D03*
%TO.P,U4,6,PROG*%
%TO.N,Net-(U4-PROG)*%
X112237500Y-111550000D03*
%TD*%
D27*
%TO.P,R11,1*%
%TO.N,P0.14_READ_BAT*%
X117875000Y-100300000D03*
%TO.P,R11,2*%
%TO.N,P0.31_AIN7_BAT*%
X119525000Y-100300000D03*
%TD*%
D28*
%TO.P,F1,1*%
%TO.N,Net-(BAT_CONN1-Pin_1)*%
X123200000Y-119300000D03*
%TO.P,F1,2*%
%TO.N,BAT0*%
X120400000Y-119300000D03*
%TD*%
D29*
%TO.P,C3,1*%
%TO.N,VIN*%
X107900000Y-117780000D03*
%TO.P,C3,2*%
%TO.N,GND*%
X107900000Y-116820000D03*
%TD*%
%TO.P,C5,1*%
%TO.N,BAT0*%
X118900000Y-115780000D03*
%TO.P,C5,2*%
%TO.N,GND*%
X118900000Y-114820000D03*
%TD*%
D30*
%TO.P,C18,1*%
%TO.N,DEC4*%
X107410000Y-93960000D03*
%TO.P,C18,2*%
%TO.N,GND*%
X107410000Y-92410000D03*
%TD*%
D17*
%TO.P,D3,1,K*%
%TO.N,Net-(D3-K)*%
X122137500Y-124100000D03*
%TO.P,D3,2,A*%
%TO.N,Net-(D3-A)*%
X120262500Y-124100000D03*
%TD*%
D31*
%TO.P,Y1,1,1*%
%TO.N,Net-(U1-P0.01)*%
X108950000Y-106670000D03*
%TO.P,Y1,2,2*%
%TO.N,Net-(U1-P0.00)*%
X106450000Y-106670000D03*
%TD*%
D24*
%TO.P,C15,1*%
%TO.N,ANT_H23*%
X109920000Y-93775000D03*
%TO.P,C15,2*%
%TO.N,GND*%
X110880000Y-93775000D03*
%TD*%
D32*
%TO.P,SW2,1,1*%
%TO.N,RESET*%
X100715000Y-124960000D03*
X100715000Y-118960000D03*
%TO.P,SW2,2,2*%
%TO.N,GND*%
X104465000Y-124960000D03*
X104465000Y-118960000D03*
%TD*%
D20*
%TO.P,H3,1*%
%TO.N,N/C*%
X121700000Y-128000000D03*
%TD*%
D33*
%TO.P,R6,1*%
%TO.N,VBUS*%
X107630000Y-119800000D03*
%TO.P,R6,2*%
%TO.N,GND*%
X108650000Y-119800000D03*
%TD*%
D21*
%TO.P,C13,1*%
%TO.N,GND*%
X117730000Y-104250000D03*
%TO.P,C13,2*%
%TO.N,VBUS*%
X116770000Y-104250000D03*
%TD*%
D34*
%TO.P,BAT,1,Pin_1*%
%TO.N,Net-(BAT_CONN1-Pin_1)*%
X121600000Y-114850000D03*
D35*
%TO.P,BAT,2,Pin_2*%
%TO.N,GND*%
X121600000Y-112350000D03*
%TD*%
D21*
%TO.P,C10,1*%
%TO.N,Net-(U1-P0.01)*%
X108780000Y-108500000D03*
%TO.P,C10,2*%
%TO.N,GND*%
X107820000Y-108500000D03*
%TD*%
D36*
%TO.P,C11,1*%
%TO.N,GND*%
X116725000Y-106450000D03*
%TO.P,C11,2*%
%TO.N,Net-(U1-DECUSB)*%
X115175000Y-106450000D03*
%TD*%
D37*
%TO.P,R10,1*%
%TO.N,BAT0*%
X103216637Y-100883363D03*
%TO.P,R10,2*%
%TO.N,P0.31_AIN7_BAT*%
X104383363Y-99716637D03*
%TD*%
D13*
%TO.P,C14,1*%
%TO.N,GND*%
X112800000Y-93890000D03*
%TO.P,C14,2*%
%TO.N,Net-(U1-DEC5)*%
X112800000Y-94850000D03*
%TD*%
D36*
%TO.P,C6,1*%
%TO.N,GND*%
X117375000Y-114500000D03*
%TO.P,C6,2*%
%TO.N,VBUS*%
X115825000Y-114500000D03*
%TD*%
D38*
%TO.P,J2,A1,GND*%
%TO.N,GND*%
X107780000Y-123435000D03*
%TO.P,J2,A4,VBUS*%
%TO.N,VBUS*%
X108580000Y-123435000D03*
D39*
%TO.P,J2,A5,CC1*%
%TO.N,Net-(J2-CC1)*%
X109730000Y-123435000D03*
%TO.P,J2,A6,D+*%
%TO.N,USB_D+*%
X110730000Y-123435000D03*
%TO.P,J2,A7,D-*%
%TO.N,USB_D-*%
X111230000Y-123435000D03*
%TO.P,J2,A8,SBU1*%
%TO.N,unconnected-(J2-SBU1-PadA8)*%
X112230000Y-123435000D03*
D38*
%TO.P,J2,A9,VBUS*%
%TO.N,VBUS*%
X113380000Y-123435000D03*
%TO.P,J2,A12,GND*%
%TO.N,GND*%
X114180000Y-123435000D03*
%TO.P,J2,B1,GND*%
X114180000Y-123435000D03*
%TO.P,J2,B4,VBUS*%
%TO.N,VBUS*%
X113380000Y-123435000D03*
D39*
%TO.P,J2,B5,CC2*%
%TO.N,Net-(J2-CC2)*%
X112730000Y-123435000D03*
%TO.P,J2,B6,D+*%
%TO.N,USB_D+*%
X111730000Y-123435000D03*
%TO.P,J2,B7,D-*%
%TO.N,USB_D-*%
X110230000Y-123435000D03*
%TO.P,J2,B8,SBU2*%
%TO.N,unconnected-(J2-SBU2-PadB8)*%
X109230000Y-123435000D03*
D38*
%TO.P,J2,B9,VBUS*%
%TO.N,VBUS*%
X108580000Y-123435000D03*
%TO.P,J2,B12,GND*%
%TO.N,GND*%
X107780000Y-123435000D03*
D40*
%TO.P,J2,S1,SHIELD*%
X106660000Y-124010000D03*
D41*
X106660000Y-128190000D03*
D40*
X115300000Y-124010000D03*
D41*
X115300000Y-128190000D03*
%TD*%
D20*
%TO.P,H4,1*%
%TO.N,N/C*%
X101750000Y-91800000D03*
%TD*%
D42*
%TO.P,R2,1*%
%TO.N,GND*%
X112470000Y-121670000D03*
%TO.P,R2,2*%
%TO.N,Net-(J2-CC2)*%
X111450000Y-121670000D03*
%TD*%
D13*
%TO.P,C1,1*%
%TO.N,3V3*%
X114000000Y-117240000D03*
%TO.P,C1,2*%
%TO.N,GND*%
X114000000Y-118200000D03*
%TD*%
D42*
%TO.P,R19,1*%
%TO.N,USB_D+*%
X118510000Y-101810000D03*
%TO.P,R19,2*%
%TO.N,Net-(U1-D+)*%
X117490000Y-101810000D03*
%TD*%
D20*
%TO.P,H1,1*%
%TO.N,N/C*%
X101770000Y-128000000D03*
%TD*%
D42*
%TO.P,R20,1*%
%TO.N,USB_D-*%
X118510000Y-102850000D03*
%TO.P,R20,2*%
%TO.N,Net-(U1-D-)*%
X117490000Y-102850000D03*
%TD*%
D26*
%TO.P,U2,1,VIN*%
%TO.N,VIN*%
X109872500Y-116610000D03*
%TO.P,U2,2,GND*%
%TO.N,GND*%
X109872500Y-117560000D03*
%TO.P,U2,3,CE*%
%TO.N,VIN*%
X109872500Y-118510000D03*
%TO.P,U2,4,NC*%
%TO.N,unconnected-(U2-NC-Pad4)*%
X112147500Y-118510000D03*
%TO.P,U2,5,VOUT*%
%TO.N,3V3*%
X112147500Y-116610000D03*
%TD*%
D43*
%TO.P,AE2,1,A*%
%TO.N,Net-(AE2-A)*%
X111700000Y-88150000D03*
%TO.P,AE2,2*%
%TO.N,N/C*%
X111700000Y-84750000D03*
%TD*%
D44*
%TO.P,C4,1*%
%TO.N,BAT0*%
X116550000Y-117600000D03*
%TO.P,C4,2*%
%TO.N,GND*%
X118450000Y-117600000D03*
%TD*%
D33*
%TO.P,R1,1*%
%TO.N,GND*%
X109470000Y-121680000D03*
%TO.P,R1,2*%
%TO.N,Net-(J2-CC1)*%
X110490000Y-121680000D03*
%TD*%
D45*
%TO.P,L2,1,1*%
%TO.N,DCC*%
X105250000Y-102935000D03*
%TO.P,L2,2,2*%
%TO.N,DEC4*%
X105250000Y-101965000D03*
%TD*%
D29*
%TO.P,C22,1*%
%TO.N,GND*%
X115070000Y-94370000D03*
%TO.P,C22,2*%
%TO.N,DEC4*%
X115070000Y-93410000D03*
%TD*%
D27*
%TO.P,R8,1*%
%TO.N,Net-(U4-PROG)*%
X114275000Y-111500000D03*
%TO.P,R8,2*%
%TO.N,GND*%
X115925000Y-111500000D03*
%TD*%
D11*
%TO.P,R18,1*%
%TO.N,3V3*%
X119400000Y-95830000D03*
%TO.P,R18,2*%
%TO.N,RESET*%
X119400000Y-96850000D03*
%TD*%
D46*
%TO.P,Y2,1,1*%
%TO.N,XC1*%
X104300000Y-95600000D03*
%TO.P,Y2,2,G*%
%TO.N,GND*%
X102900000Y-95600000D03*
%TO.P,Y2,3,G*%
X102900000Y-96700000D03*
%TO.P,Y2,4,4*%
%TO.N,XC2*%
X104300000Y-96700000D03*
%TD*%
D24*
%TO.P,C8,1*%
%TO.N,GND*%
X104870000Y-104050000D03*
%TO.P,C8,2*%
%TO.N,Net-(U1-DEC1)*%
X105830000Y-104050000D03*
%TD*%
D11*
%TO.P,R16,1*%
%TO.N,INTERNAL_I2C_SCL*%
X111050000Y-106040000D03*
%TO.P,R16,2*%
%TO.N,3V3*%
X111050000Y-107060000D03*
%TD*%
D13*
%TO.P,C9,1*%
%TO.N,Net-(U1-P0.00)*%
X105100000Y-107120000D03*
%TO.P,C9,2*%
%TO.N,GND*%
X105100000Y-108080000D03*
%TD*%
D47*
%TO.P,J3,1,Pin_1*%
%TO.N,VBUS*%
X100050000Y-95210000D03*
D48*
%TO.P,J3,2,Pin_2*%
%TO.N,INTERNAL_I2C_SDA*%
X100050000Y-96480000D03*
%TO.P,J3,3,Pin_3*%
%TO.N,INTERNAL_I2C_SCL*%
X100050000Y-97750000D03*
%TO.P,J3,4,Pin_4*%
%TO.N,P0.16_PDM_DATA*%
X100050000Y-99020000D03*
%TO.P,J3,5,Pin_5*%
%TO.N,P1.00_PDM_CLK*%
X100050000Y-100290000D03*
%TO.P,J3,6,Pin_6*%
%TO.N,SWDCLK*%
X100050000Y-101560000D03*
%TO.P,J3,7,Pin_7*%
%TO.N,SWDIO*%
X100050000Y-102830000D03*
%TO.P,J3,8,Pin_8*%
%TO.N,P0.09{slash}NFC1*%
X100050000Y-104100000D03*
%TO.P,J3,9,Pin_9*%
%TO.N,P0.10{slash}NFC2*%
X100050000Y-105370000D03*
%TO.P,J3,10,Pin_10*%
%TO.N,3V3*%
X100050000Y-106640000D03*
%TO.P,J3,11,Pin_11*%
%TO.N,GND*%
X100050000Y-107910000D03*
%TO.P,J3,12,Pin_12*%
%TO.N,P0.23_QSPI_SIO_3*%
X100050000Y-109180000D03*
%TO.P,J3,13,Pin_13*%
%TO.N,P0.25_QSPI_CSN*%
X100050000Y-110450000D03*
%TO.P,J3,14,Pin_14*%
%TO.N,P0.21_QSPI_SCK*%
X100050000Y-111720000D03*
%TO.P,J3,15,Pin_15*%
%TO.N,P0.20_QSPI_SIO_0*%
X100050000Y-112990000D03*
%TO.P,J3,16,Pin_16*%
%TO.N,P0.22_QSPI_SIO_2*%
X100050000Y-114260000D03*
%TO.P,J3,17,Pin_17*%
%TO.N,P0.24_QSPI_SIO_1*%
X100050000Y-115530000D03*
%TO.P,J3,18,Pin_18*%
%TO.N,P0.04_AIN2_A4_D4*%
X100050000Y-116800000D03*
%TD*%
D49*
%TO.P,C12,1*%
%TO.N,GND*%
X117775000Y-98550000D03*
%TO.P,C12,2*%
%TO.N,3V3*%
X119325000Y-98550000D03*
%TD*%
D50*
%TO.N,Net-(U4-PROG)*%
X115100000Y-112800000D03*
%TO.N,ANT_H23*%
X108800000Y-94399000D03*
%TO.N,BAT0*%
X121200000Y-108500000D03*
%TO.N,RESET*%
X118980000Y-95050000D03*
%TO.N,VBUS*%
X121032080Y-106932080D03*
%TO.N,VIN*%
X109500000Y-115350000D03*
X113753098Y-120808975D03*
%TO.N,3V3*%
X120350000Y-98500000D03*
X114080000Y-95010000D03*
X112960000Y-106931000D03*
X115150000Y-100030000D03*
X104235707Y-107175707D03*
X101750000Y-104010000D03*
X107900000Y-104300000D03*
X107100000Y-98450000D03*
X113850000Y-116350000D03*
X113550000Y-104500000D03*
X104100000Y-117550000D03*
%TO.N,VBUS*%
X114629923Y-114581667D03*
X113600000Y-122350000D03*
X104401000Y-110194972D03*
X102290000Y-102590000D03*
X117600000Y-121600000D03*
X115800000Y-109500000D03*
X107650000Y-121000000D03*
%TO.N,BAT0*%
X106800000Y-113900000D03*
X117500000Y-119400000D03*
X103389999Y-108021416D03*
X115100000Y-116200000D03*
%TO.N,RESET*%
X102300000Y-120900000D03*
X107600000Y-110500000D03*
X118587815Y-108527815D03*
%TO.N,Net-(U1-DEC1)*%
X106550000Y-103900000D03*
X107300000Y-105050000D03*
%TO.N,P0.31_AIN7_BAT*%
X107100000Y-100800000D03*
X120400000Y-99500000D03*
%TO.N,INTERNAL_I2C_SCL*%
X111210878Y-105249407D03*
%TO.N,P0.04_AIN2_A4_D4*%
X105400000Y-109900000D03*
%TO.N,INTERNAL_I2C_SDA*%
X112114429Y-105330000D03*
%TO.N,DEC4*%
X114170000Y-93110000D03*
X105959998Y-101469998D03*
X109270000Y-96170607D03*
%TO.N,USB_D-*%
X119500000Y-102850000D03*
X110200000Y-124700000D03*
%TO.N,USB_D+*%
X119500000Y-101800000D03*
X110998231Y-124753215D03*
%TO.N,P0.09{slash}NFC1*%
X103233563Y-99005778D03*
X111920000Y-95400000D03*
%TO.N,P1.00_PDM_CLK*%
X115201000Y-95775225D03*
%TO.N,P0.16_PDM_DATA*%
X116400000Y-101050000D03*
%TO.N,P0.22_QSPI_SIO_2*%
X115913397Y-98061927D03*
%TO.N,SWDCLK*%
X105326473Y-98125000D03*
X113200000Y-95850000D03*
%TO.N,SWDIO*%
X103851838Y-98405778D03*
X114000000Y-95850000D03*
%TO.N,P0.20_QSPI_SIO_0*%
X117014316Y-97152690D03*
%TO.N,P0.23_QSPI_SIO_3*%
X114344387Y-107693027D03*
%TO.N,P0.24_QSPI_SIO_1*%
X115797571Y-96308242D03*
%TO.N,P0.21_QSPI_SCK*%
X105070000Y-109160000D03*
%TO.N,P0.25_QSPI_CSN*%
X115272239Y-107425000D03*
%TO.N,P0.10{slash}NFC2*%
X111791932Y-94610316D03*
%TO.N,GND*%
X103700000Y-111930948D03*
X118750000Y-91175000D03*
X116190000Y-93140000D03*
X124100000Y-89700000D03*
X105800000Y-95200000D03*
X117850000Y-106450000D03*
X108800000Y-91000000D03*
X108650000Y-121450000D03*
X118800000Y-89700000D03*
X104091000Y-104146627D03*
X114225000Y-91150000D03*
X105100000Y-91125000D03*
X105350000Y-89650000D03*
X109450000Y-119800000D03*
X116375000Y-89700000D03*
X105600000Y-118900000D03*
X113640000Y-93840000D03*
X108500000Y-112300000D03*
X118800000Y-113300000D03*
X102950000Y-94250000D03*
X103450000Y-89650000D03*
X116000000Y-94750000D03*
X112200000Y-91150000D03*
X113350000Y-121500000D03*
X107100000Y-91000000D03*
X106080000Y-92050000D03*
X114800000Y-122050000D03*
X114200000Y-89700000D03*
X106000000Y-108400000D03*
X108700000Y-116750000D03*
X107050000Y-89650000D03*
X115900000Y-112800000D03*
X116500000Y-100000000D03*
X112675000Y-89675000D03*
X108750000Y-92600000D03*
X108575000Y-89650000D03*
X109975000Y-89650000D03*
X107300000Y-99350000D03*
X112200000Y-92650000D03*
X118550000Y-104250000D03*
X114900000Y-117700000D03*
X116400000Y-91175000D03*
X107169669Y-122180331D03*
X106600000Y-101950000D03*
X99350000Y-89650000D03*
%TO.N,Net-(D3-K)*%
X117600000Y-113100000D03*
X123800000Y-124100000D03*
%TO.N,Net-(D4-K)*%
X123700000Y-121800000D03*
X118300000Y-112500000D03*
%TD*%
D51*
%TO.N,Net-(U4-PROG)*%
X113500000Y-111550000D02*
X114225000Y-111550000D01*
D52*
X114751000Y-112801000D02*
X115099000Y-112801000D01*
X113500000Y-111550000D02*
X114751000Y-112801000D01*
X115099000Y-112801000D02*
X115100000Y-112800000D01*
%TO.N,ANT_H23*%
X109101000Y-94700000D02*
X108800000Y-94399000D01*
X109920000Y-94700000D02*
X109101000Y-94700000D01*
D53*
X109920000Y-95120000D02*
X109920000Y-94700000D01*
D54*
%TO.N,BAT0*%
X122200000Y-107500000D02*
X121200000Y-108500000D01*
X123100000Y-107500000D02*
X122200000Y-107500000D01*
D52*
%TO.N,RESET*%
X118600000Y-96080000D02*
X118600000Y-95430000D01*
X118600000Y-95430000D02*
X118980000Y-95050000D01*
D54*
%TO.N,VBUS*%
X117909001Y-105699000D02*
X119799000Y-105699000D01*
X119799000Y-105699000D02*
X121032080Y-106932080D01*
D53*
%TO.N,ANT_H23*%
X109900000Y-95140000D02*
X109920000Y-95120000D01*
X109920000Y-94700000D02*
X109920000Y-93775000D01*
X109930000Y-92300000D02*
X109930000Y-93765000D01*
X109930000Y-93765000D02*
X109920000Y-93775000D01*
%TO.N,Net-(AE2-A)*%
X111700000Y-88150000D02*
X111700000Y-89200000D01*
X110885000Y-90015000D02*
X110885000Y-90850000D01*
X111700000Y-89200000D02*
X110885000Y-90015000D01*
X110900000Y-92300000D02*
X110900000Y-90865000D01*
X110900000Y-90865000D02*
X110885000Y-90850000D01*
D54*
%TO.N,VIN*%
X109500000Y-115350000D02*
X112450000Y-115350000D01*
X109872500Y-118510000D02*
X108630000Y-118510000D01*
X109872500Y-116610000D02*
X109012500Y-115750000D01*
X106650000Y-116250000D02*
X106650000Y-117650000D01*
X107150000Y-115750000D02*
X106650000Y-116250000D01*
X114194123Y-121250000D02*
X113753098Y-120808975D01*
X109012500Y-115750000D02*
X107150000Y-115750000D01*
X109012500Y-115750000D02*
X109100000Y-115750000D01*
X109100000Y-115750000D02*
X109500000Y-115350000D01*
X112450000Y-115350000D02*
X112650000Y-115150000D01*
X106650000Y-117650000D02*
X107510000Y-118510000D01*
X107510000Y-118510000D02*
X108630000Y-118510000D01*
X114962500Y-121250000D02*
X114194123Y-121250000D01*
X108630000Y-118510000D02*
X107900000Y-117780000D01*
%TO.N,3V3*%
X113370000Y-116610000D02*
X113630000Y-116350000D01*
D52*
X113142500Y-103542500D02*
X113550000Y-103950000D01*
D54*
X111050000Y-107060000D02*
X111050000Y-107400000D01*
X120500000Y-96400000D02*
X120500000Y-98350000D01*
D52*
X113550000Y-103950000D02*
X113550000Y-104500000D01*
D54*
X112200000Y-107650000D02*
X112200000Y-107060000D01*
X112147500Y-116610000D02*
X113370000Y-116610000D01*
X111050000Y-107400000D02*
X111550000Y-107900000D01*
D55*
X114842500Y-100337500D02*
X115150000Y-100030000D01*
D52*
X107892500Y-98337500D02*
X107212500Y-98337500D01*
X112892500Y-103837500D02*
X112892500Y-103842500D01*
D54*
X119930000Y-95830000D02*
X120500000Y-96400000D01*
X112200000Y-107650000D02*
X112919000Y-106931000D01*
D52*
X108392500Y-103837500D02*
X108362500Y-103837500D01*
D54*
X119325000Y-98550000D02*
X120300000Y-98550000D01*
X120300000Y-98550000D02*
X120350000Y-98500000D01*
D52*
X114601000Y-95531000D02*
X114080000Y-95010000D01*
X113142500Y-103337500D02*
X113142500Y-103542500D01*
X108362500Y-103837500D02*
X107900000Y-104300000D01*
D54*
X111950000Y-107900000D02*
X112200000Y-107650000D01*
D52*
X114392500Y-97007500D02*
X114601000Y-96799000D01*
X115150000Y-100090000D02*
X115150000Y-100030000D01*
X112892500Y-103842500D02*
X113550000Y-104500000D01*
X114601000Y-96799000D02*
X114601000Y-95531000D01*
D55*
X114392500Y-100337500D02*
X114842500Y-100337500D01*
D52*
X114392500Y-97837500D02*
X114392500Y-97007500D01*
D54*
X119400000Y-95830000D02*
X119930000Y-95830000D01*
X120500000Y-98350000D02*
X120350000Y-98500000D01*
X111550000Y-107900000D02*
X111950000Y-107900000D01*
X113630000Y-116350000D02*
X113850000Y-116350000D01*
D56*
X114392500Y-100307500D02*
X114392500Y-100312500D01*
D54*
X112919000Y-106931000D02*
X112960000Y-106931000D01*
X113370000Y-116610000D02*
X114000000Y-117240000D01*
D52*
X107212500Y-98337500D02*
X107100000Y-98450000D01*
D54*
X104100000Y-116650000D02*
X104100000Y-117550000D01*
%TO.N,VBUS*%
X114061590Y-115150000D02*
X114629923Y-114581667D01*
X116770000Y-104250000D02*
X116770000Y-104559999D01*
D52*
X114392500Y-103337500D02*
X115137500Y-103337500D01*
D54*
X113380000Y-123435000D02*
X113380000Y-122570000D01*
X107650000Y-121600000D02*
X107650000Y-121000000D01*
X111350000Y-119350000D02*
X110001000Y-120699000D01*
X102640000Y-108433972D02*
X104401000Y-110194972D01*
X115743333Y-114581667D02*
X115825000Y-114500000D01*
X108580000Y-122530000D02*
X107650000Y-121600000D01*
X112237500Y-113450000D02*
X113498256Y-113450000D01*
X107630000Y-119800000D02*
X107630000Y-120980000D01*
D56*
X116050000Y-104250000D02*
X116770000Y-104250000D01*
D54*
X113380000Y-122570000D02*
X113600000Y-122350000D01*
X116770000Y-104559999D02*
X117909001Y-105699000D01*
X114050000Y-115150000D02*
X114061590Y-115150000D01*
X107951000Y-120699000D02*
X107650000Y-121000000D01*
X110001000Y-120699000D02*
X107951000Y-120699000D01*
X102290000Y-102590000D02*
X102640000Y-102940000D01*
X108580000Y-123435000D02*
X108580000Y-122530000D01*
X114629923Y-114581667D02*
X115743333Y-114581667D01*
X113498256Y-113450000D02*
X114629923Y-114581667D01*
D52*
X115137500Y-103337500D02*
X115400000Y-103600000D01*
D54*
X107630000Y-120980000D02*
X107650000Y-121000000D01*
X117600000Y-122875000D02*
X117600000Y-121600000D01*
D56*
X115400000Y-103600000D02*
X116050000Y-104250000D01*
D54*
X114962500Y-119350000D02*
X111350000Y-119350000D01*
X102640000Y-102940000D02*
X102640000Y-108433972D01*
%TO.N,BAT0*%
X103341000Y-102634000D02*
X103341000Y-107451000D01*
X118250000Y-119300000D02*
X117500000Y-118550000D01*
X103216637Y-100883363D02*
X103216637Y-102509637D01*
X120400000Y-119300000D02*
X118250000Y-119300000D01*
X116837500Y-120062500D02*
X117500000Y-119400000D01*
X118900000Y-115780000D02*
X115520000Y-115780000D01*
X103341000Y-107972417D02*
X103389999Y-108021416D01*
X109962500Y-113450000D02*
X107250000Y-113450000D01*
X115520000Y-115780000D02*
X115100000Y-116200000D01*
X103341000Y-107451000D02*
X103341000Y-107972417D01*
X107250000Y-113450000D02*
X106800000Y-113900000D01*
X116837500Y-120300000D02*
X116837500Y-120062500D01*
X117500000Y-119400000D02*
X117500000Y-118550000D01*
X103216637Y-102509637D02*
X103341000Y-102634000D01*
X117500000Y-118550000D02*
X116550000Y-117600000D01*
D52*
%TO.N,RESET*%
X118279815Y-108527815D02*
X118276000Y-108524000D01*
D55*
X115212500Y-100587500D02*
X115950000Y-99850000D01*
D52*
X118587815Y-108527815D02*
X118279815Y-108527815D01*
X118600000Y-97250000D02*
X119000000Y-97250000D01*
X100715000Y-118960000D02*
X100715000Y-119315000D01*
X118200000Y-97650000D02*
X118600000Y-97250000D01*
X101865000Y-120465000D02*
X102300000Y-120900000D01*
X115950000Y-99850000D02*
X115950000Y-99701471D01*
X114676000Y-108524000D02*
X113001000Y-110199000D01*
X100715000Y-119315000D02*
X101865000Y-120465000D01*
X115950000Y-99701471D02*
X117024000Y-98627471D01*
X113001000Y-110199000D02*
X108801000Y-110199000D01*
X118600000Y-96130000D02*
X118600000Y-96080000D01*
X101635000Y-120465000D02*
X100715000Y-121385000D01*
X118600000Y-96130000D02*
X118600000Y-97250000D01*
D55*
X113892500Y-100587500D02*
X115212500Y-100587500D01*
D52*
X101865000Y-120465000D02*
X101635000Y-120465000D01*
X118600000Y-96080000D02*
X117570000Y-95050000D01*
X117024000Y-97976000D02*
X117350000Y-97650000D01*
X118276000Y-108524000D02*
X114676000Y-108524000D01*
X108500000Y-110500000D02*
X108801000Y-110199000D01*
X119000000Y-97250000D02*
X119400000Y-96850000D01*
X117350000Y-97650000D02*
X118200000Y-97650000D01*
X107600000Y-110500000D02*
X108500000Y-110500000D01*
X117024000Y-98627471D02*
X117024000Y-97976000D01*
X100715000Y-121385000D02*
X100715000Y-124960000D01*
%TO.N,Net-(U1-DEC1)*%
X108250000Y-105050000D02*
X107300000Y-105050000D01*
X108892500Y-104407500D02*
X108250000Y-105050000D01*
X105980000Y-103900000D02*
X105830000Y-104050000D01*
X108892500Y-103837500D02*
X108892500Y-104407500D01*
X106550000Y-103900000D02*
X105980000Y-103900000D01*
%TO.N,Net-(U1-P0.00)*%
X109142500Y-103337500D02*
X109030000Y-103450000D01*
X106450000Y-106670000D02*
X105550000Y-106670000D01*
X109030000Y-103450000D02*
X107850000Y-103450000D01*
X106450000Y-104850000D02*
X106450000Y-106670000D01*
X107850000Y-103450000D02*
X106450000Y-104850000D01*
X105550000Y-106670000D02*
X105100000Y-107120000D01*
%TO.N,Net-(U1-P0.01)*%
X109642500Y-103337500D02*
X109642500Y-103438541D01*
X109130000Y-106120000D02*
X109330000Y-105920000D01*
X109400000Y-103681041D02*
X109400000Y-104500000D01*
X109400000Y-104500000D02*
X108950000Y-104950000D01*
X108950000Y-108330000D02*
X108780000Y-108500000D01*
X109642500Y-103438541D02*
X109400000Y-103681041D01*
X108950000Y-106670000D02*
X108950000Y-108330000D01*
X108950000Y-104950000D02*
X108950000Y-106670000D01*
X109130000Y-106120000D02*
X109260000Y-106120000D01*
%TO.N,Net-(RED1-A)*%
X104090000Y-114357500D02*
X104090000Y-115620000D01*
X104090000Y-115620000D02*
X104100000Y-115630000D01*
%TO.N,P0.31_AIN7_BAT*%
X107892500Y-101837500D02*
X107337500Y-101837500D01*
X106850000Y-101050000D02*
X107100000Y-100800000D01*
X120325000Y-99500000D02*
X119525000Y-100300000D01*
X106500000Y-100225000D02*
X105991637Y-99716637D01*
X105991637Y-99716637D02*
X104383363Y-99716637D01*
X120400000Y-99500000D02*
X120325000Y-99500000D01*
X106500000Y-101000000D02*
X106550000Y-101050000D01*
X106550000Y-101050000D02*
X106850000Y-101050000D01*
X106500000Y-101000000D02*
X106500000Y-100225000D01*
X107337500Y-101837500D02*
X106500000Y-101000000D01*
%TO.N,P0.14_READ_BAT*%
X117875000Y-100300000D02*
X117875000Y-100484660D01*
X117875000Y-100484660D02*
X116522160Y-101837500D01*
X114392500Y-101837500D02*
X116522160Y-101837500D01*
%TO.N,INTERNAL_I2C_SCL*%
X110892500Y-103837500D02*
X110892500Y-104931029D01*
X111210878Y-105249407D02*
X111210878Y-105879122D01*
X110892500Y-104931029D02*
X111210878Y-105249407D01*
X111210878Y-105879122D02*
X111050000Y-106040000D01*
%TO.N,P0.04_AIN2_A4_D4*%
X106800000Y-109900000D02*
X105400000Y-109900000D01*
X110392500Y-108663600D02*
X109258100Y-109798000D01*
X109258100Y-109798000D02*
X106902000Y-109798000D01*
X106902000Y-109798000D02*
X106800000Y-109900000D01*
X110392500Y-103837500D02*
X110392500Y-108663600D01*
%TO.N,INTERNAL_I2C_SDA*%
X112114429Y-105048572D02*
X112114429Y-105330000D01*
X111392500Y-103837500D02*
X111392500Y-104326643D01*
X112114429Y-105330000D02*
X112114429Y-105954429D01*
X112114429Y-105954429D02*
X112200000Y-106040000D01*
X111392500Y-104326643D02*
X112114429Y-105048572D01*
%TO.N,Net-(U1-DECUSB)*%
X114000000Y-103100001D02*
X114000000Y-103750000D01*
X114003021Y-103096980D02*
X114000000Y-103100001D01*
X113892500Y-102587500D02*
X113892500Y-102986459D01*
X113892500Y-102986459D02*
X114003021Y-103096980D01*
X114000000Y-103750000D02*
X115175000Y-104925000D01*
X115175000Y-104925000D02*
X115175000Y-106450000D01*
%TO.N,Net-(U1-DEC5)*%
X111392500Y-97147500D02*
X112550000Y-95990000D01*
X112550000Y-95100000D02*
X112800000Y-94850000D01*
X112550000Y-95990000D02*
X112550000Y-95100000D01*
X111392500Y-97337500D02*
X111392500Y-97147500D01*
D51*
%TO.N,ANT_H23*%
X109900000Y-93795000D02*
X109920000Y-93775000D01*
D52*
X109870000Y-95170000D02*
X109900000Y-95140000D01*
X110142500Y-97689955D02*
X109870000Y-97417455D01*
D54*
X109920000Y-92310000D02*
X109930000Y-92300000D01*
D52*
X109870000Y-97417455D02*
X109870000Y-95170000D01*
X110142500Y-97837500D02*
X110142500Y-97689955D01*
%TO.N,DEC4*%
X108855000Y-95945000D02*
X107410000Y-94500000D01*
X106387557Y-102587500D02*
X105959998Y-102159941D01*
X109270000Y-96170607D02*
X109270000Y-96870000D01*
X108855000Y-96455000D02*
X108855000Y-95945000D01*
X108392500Y-102587500D02*
X106500000Y-102587500D01*
X114170000Y-93110000D02*
X114770000Y-93110000D01*
X107410000Y-94500000D02*
X107410000Y-93960000D01*
X106500000Y-102587500D02*
X106387557Y-102587500D01*
X105959998Y-102159941D02*
X105959998Y-101469998D01*
X105872500Y-102587500D02*
X105250000Y-101965000D01*
X109270000Y-96870000D02*
X108855000Y-96455000D01*
X109392500Y-96992500D02*
X109270000Y-96870000D01*
X106500000Y-102587500D02*
X105872500Y-102587500D01*
X114770000Y-93110000D02*
X115070000Y-93410000D01*
X109392500Y-97337500D02*
X109392500Y-96992500D01*
%TO.N,DEC3*%
X109142500Y-97792500D02*
X108850000Y-97500000D01*
X109142500Y-97837500D02*
X109142500Y-97792500D01*
X108109000Y-96452959D02*
X108109000Y-95814000D01*
X108850000Y-97193959D02*
X108109000Y-96452959D01*
X108109000Y-95814000D02*
X106100000Y-93805000D01*
X108850000Y-97500000D02*
X108850000Y-97193959D01*
%TO.N,XC1*%
X106450000Y-96900000D02*
X106887500Y-97337500D01*
X104650000Y-95000000D02*
X104750000Y-95000000D01*
X106887500Y-97337500D02*
X108392500Y-97337500D01*
X106450000Y-95000000D02*
X106450000Y-96900000D01*
X106050000Y-94600000D02*
X106450000Y-95000000D01*
X105150000Y-94600000D02*
X106050000Y-94600000D01*
X104650000Y-95250000D02*
X104300000Y-95600000D01*
X104650000Y-95000000D02*
X104650000Y-95250000D01*
X104650000Y-94200000D02*
X104650000Y-95000000D01*
X104750000Y-95000000D02*
X105150000Y-94600000D01*
%TO.N,XC2*%
X104900000Y-96930000D02*
X104980000Y-96930000D01*
X104530000Y-96930000D02*
X104300000Y-96700000D01*
D55*
X107892500Y-97837500D02*
X106712500Y-97837500D01*
D52*
X104980000Y-96930000D02*
X105887500Y-97837500D01*
X105887500Y-97837500D02*
X106712500Y-97837500D01*
X105800000Y-96930000D02*
X104900000Y-96930000D01*
X104900000Y-96930000D02*
X104530000Y-96930000D01*
%TO.N,USB_D-*%
X110230000Y-124670000D02*
X110200000Y-124700000D01*
X110230000Y-122728176D02*
X110230000Y-123435000D01*
X110230000Y-123435000D02*
X110230000Y-124670000D01*
X111230000Y-123435000D02*
X111230000Y-122826176D01*
X110399176Y-122559000D02*
X110230000Y-122728176D01*
X111230000Y-122826176D02*
X110962824Y-122559000D01*
X110962824Y-122559000D02*
X110399176Y-122559000D01*
X118510000Y-102850000D02*
X119500000Y-102850000D01*
%TO.N,USB_D+*%
X110730000Y-123435000D02*
X110730000Y-124043824D01*
X110997176Y-124752160D02*
X110998231Y-124753215D01*
X118510000Y-101810000D02*
X118520000Y-101800000D01*
X110730000Y-124043824D02*
X110997176Y-124311000D01*
X111730000Y-124043824D02*
X111730000Y-123435000D01*
X111462824Y-124311000D02*
X111730000Y-124043824D01*
X118520000Y-101800000D02*
X119500000Y-101800000D01*
X110997176Y-124311000D02*
X110997176Y-124752160D01*
X110997176Y-124311000D02*
X111462824Y-124311000D01*
%TO.N,P0.09{slash}NFC1*%
X110892500Y-97037500D02*
X111300000Y-96630000D01*
X101662000Y-100523628D02*
X101662000Y-102488000D01*
X103009341Y-99230000D02*
X103233563Y-99005778D01*
X111920000Y-96010000D02*
X111920000Y-95400000D01*
X111300000Y-96630000D02*
X111920000Y-96010000D01*
X101662000Y-102488000D02*
X100050000Y-104100000D01*
X102955628Y-99230000D02*
X101662000Y-100523628D01*
X102955628Y-99230000D02*
X103009341Y-99230000D01*
X110892500Y-97337500D02*
X110892500Y-97037500D01*
%TO.N,Net-(J2-CC2)*%
X112071000Y-122291000D02*
X111450000Y-121670000D01*
X112194824Y-122291000D02*
X112071000Y-122291000D01*
X112730000Y-122826176D02*
X112194824Y-122291000D01*
X112730000Y-123435000D02*
X112730000Y-122826176D01*
%TO.N,Net-(J2-CC1)*%
X109730000Y-122440000D02*
X109730000Y-123435000D01*
X110490000Y-121680000D02*
X109730000Y-122440000D01*
%TO.N,DCC*%
X108392500Y-103087500D02*
X105402500Y-103087500D01*
X105402500Y-103087500D02*
X105250000Y-102935000D01*
%TO.N,Net-(U1-D+)*%
X114392500Y-102337500D02*
X116962500Y-102337500D01*
X116962500Y-102337500D02*
X117490000Y-101810000D01*
%TO.N,Net-(U1-D-)*%
X117477500Y-102837500D02*
X117490000Y-102850000D01*
X114392500Y-102837500D02*
X117477500Y-102837500D01*
%TO.N,P1.00_PDM_CLK*%
X114494955Y-98337500D02*
X114818500Y-98013955D01*
X114818500Y-97418966D02*
X115002000Y-97235466D01*
X115002000Y-95974225D02*
X115201000Y-95775225D01*
X114818500Y-98013955D02*
X114818500Y-97418966D01*
X115002000Y-96270000D02*
X115002000Y-95974225D01*
X115002000Y-97235466D02*
X115002000Y-96270000D01*
X114392500Y-98337500D02*
X114494955Y-98337500D01*
%TO.N,P0.16_PDM_DATA*%
X114392500Y-101337500D02*
X116112500Y-101337500D01*
X116112500Y-101337500D02*
X116400000Y-101050000D01*
%TO.N,P0.22_QSPI_SIO_2*%
X115621948Y-98353376D02*
X115913397Y-98061927D01*
X114636376Y-99337500D02*
X115620500Y-98353376D01*
X115620500Y-98353376D02*
X115621948Y-98353376D01*
X114392500Y-99337500D02*
X114636376Y-99337500D01*
%TO.N,SWDCLK*%
X100860000Y-99910000D02*
X100860000Y-100750000D01*
X113392500Y-97337500D02*
X113392500Y-96042500D01*
X104931473Y-97730000D02*
X103040000Y-97730000D01*
X105326473Y-98125000D02*
X104931473Y-97730000D01*
X113392500Y-96042500D02*
X113200000Y-95850000D01*
X103040000Y-97730000D02*
X100860000Y-99910000D01*
X100860000Y-100750000D02*
X100050000Y-101560000D01*
%TO.N,SWDIO*%
X103851838Y-98405778D02*
X102931322Y-98405778D01*
X102931322Y-98405778D02*
X101261000Y-100076100D01*
X113892500Y-97337500D02*
X113892500Y-95957500D01*
X101261000Y-101619000D02*
X100050000Y-102830000D01*
X113892500Y-95957500D02*
X114000000Y-95850000D01*
X101261000Y-100076100D02*
X101261000Y-101619000D01*
%TO.N,P0.20_QSPI_SIO_0*%
X116623000Y-97544006D02*
X117014316Y-97152690D01*
X115060000Y-99430000D02*
X115450000Y-99430000D01*
X116623000Y-98257000D02*
X116623000Y-97544006D01*
X115450000Y-99430000D02*
X115820000Y-99060000D01*
X114652500Y-99837500D02*
X115060000Y-99430000D01*
X114392500Y-99837500D02*
X114652500Y-99837500D01*
X115820000Y-99060000D02*
X116623000Y-98257000D01*
%TO.N,P0.23_QSPI_SIO_3*%
X113801000Y-106168043D02*
X113801000Y-107149640D01*
X113801000Y-107149640D02*
X114344387Y-107693027D01*
X111892500Y-104259543D02*
X113801000Y-106168043D01*
X111892500Y-103837500D02*
X111892500Y-104259543D01*
%TO.N,P0.24_QSPI_SIO_1*%
X115403000Y-97746500D02*
X115403000Y-96840000D01*
X114392500Y-98837500D02*
X114569276Y-98837500D01*
X115219500Y-98187276D02*
X115219500Y-97930000D01*
X114569276Y-98837500D02*
X115219500Y-98187276D01*
X115219500Y-97930000D02*
X115403000Y-97746500D01*
X115403000Y-96840000D02*
X115403000Y-96702813D01*
X115403000Y-96702813D02*
X115797571Y-96308242D01*
%TO.N,P0.21_QSPI_SCK*%
X109892500Y-103837500D02*
X109892500Y-107707500D01*
X106600000Y-109200000D02*
X106479000Y-109079000D01*
X109289000Y-109200000D02*
X106600000Y-109200000D01*
X109600000Y-108889000D02*
X109289000Y-109200000D01*
X109892500Y-107707500D02*
X109600000Y-108000000D01*
X106479000Y-109079000D02*
X105151000Y-109079000D01*
X105151000Y-109079000D02*
X105070000Y-109160000D01*
X109600000Y-108000000D02*
X109600000Y-108889000D01*
%TO.N,P0.25_QSPI_CSN*%
X114202000Y-106001943D02*
X112392500Y-104192443D01*
X114202000Y-106001943D02*
X114202000Y-106702110D01*
X112392500Y-104192443D02*
X112392500Y-103837500D01*
X114924890Y-107425000D02*
X115272239Y-107425000D01*
X114202000Y-106702110D02*
X114924890Y-107425000D01*
%TO.N,P0.10{slash}NFC2*%
X110392500Y-97337500D02*
X110392500Y-96687500D01*
X110392500Y-96009748D02*
X111791932Y-94610316D01*
X110392500Y-96687500D02*
X110392500Y-96009748D01*
D54*
%TO.N,Net-(BAT_CONN1-Pin_1)*%
X123200000Y-119300000D02*
X123200000Y-116450000D01*
X123200000Y-116450000D02*
X121600000Y-114850000D01*
D52*
%TO.N,GND*%
X108090520Y-102240521D02*
X106890521Y-102240521D01*
D54*
X108650000Y-119800000D02*
X109450000Y-119800000D01*
X107410000Y-92410000D02*
X106440000Y-92410000D01*
D52*
X107312500Y-99337500D02*
X107300000Y-99350000D01*
D54*
X108700000Y-112500000D02*
X108500000Y-112300000D01*
X104465000Y-118960000D02*
X105540000Y-118960000D01*
X104090000Y-112320948D02*
X103700000Y-111930948D01*
D52*
X108243541Y-102087500D02*
X108090520Y-102240521D01*
D54*
X109240000Y-121450000D02*
X109470000Y-121680000D01*
X109962500Y-112500000D02*
X108700000Y-112500000D01*
X113180000Y-121670000D02*
X113350000Y-121500000D01*
X115620000Y-94370000D02*
X116000000Y-94750000D01*
X117775000Y-98550000D02*
X117775000Y-98725000D01*
X105540000Y-118960000D02*
X105600000Y-118900000D01*
X103000000Y-94200000D02*
X102950000Y-94250000D01*
D52*
X109642500Y-97837500D02*
X109642500Y-99087500D01*
D54*
X108534841Y-117265159D02*
X108829682Y-117560000D01*
X108829682Y-117560000D02*
X109872500Y-117560000D01*
D52*
X107892500Y-99337500D02*
X107312500Y-99337500D01*
D54*
X104187627Y-104050000D02*
X104091000Y-104146627D01*
D51*
X115925000Y-111500000D02*
X115925000Y-112775000D01*
X115925000Y-112775000D02*
X115900000Y-112800000D01*
D52*
X107780000Y-123435000D02*
X107780000Y-122790662D01*
D54*
X108534841Y-117265159D02*
X108534841Y-116915159D01*
X102700000Y-96700000D02*
X102900000Y-96700000D01*
D52*
X106890521Y-102240521D02*
X106600000Y-101950000D01*
D54*
X107900000Y-116820000D02*
X108089682Y-116820000D01*
X104090000Y-112782500D02*
X104090000Y-112320948D01*
X118900000Y-114820000D02*
X118900000Y-114100000D01*
X108089682Y-116820000D02*
X108534841Y-117265159D01*
D52*
X107780000Y-122790662D02*
X107169669Y-122180331D01*
D54*
X106440000Y-92410000D02*
X106080000Y-92050000D01*
D52*
X114392500Y-100837500D02*
X115662500Y-100837500D01*
D54*
X118900000Y-114100000D02*
X118450000Y-113650000D01*
X118450000Y-113650000D02*
X118800000Y-113300000D01*
D51*
X105680000Y-108080000D02*
X106000000Y-108400000D01*
D54*
X100050000Y-107910000D02*
X100757106Y-107910000D01*
D51*
X105100000Y-108080000D02*
X105680000Y-108080000D01*
D54*
X108534841Y-116915159D02*
X108700000Y-116750000D01*
D52*
X108392500Y-102087500D02*
X109642500Y-102087500D01*
D54*
X114400000Y-118200000D02*
X114900000Y-117700000D01*
X100757106Y-107910000D02*
X103700000Y-110852894D01*
D52*
X108392500Y-102087500D02*
X108243541Y-102087500D01*
D54*
X106100000Y-92845000D02*
X106100000Y-92070000D01*
X105800000Y-95970000D02*
X105800000Y-95200000D01*
X103690000Y-94200000D02*
X103000000Y-94200000D01*
X112800000Y-93890000D02*
X113590000Y-93890000D01*
X117375000Y-114500000D02*
X117600000Y-114500000D01*
D51*
X107820000Y-108500000D02*
X106100000Y-108500000D01*
D54*
X117775000Y-98725000D02*
X116500000Y-100000000D01*
X104870000Y-104050000D02*
X104187627Y-104050000D01*
X106100000Y-92070000D02*
X106080000Y-92050000D01*
D52*
X109642500Y-102087500D02*
X111142500Y-100587500D01*
D54*
X114000000Y-118200000D02*
X114400000Y-118200000D01*
X116200000Y-93150000D02*
X116190000Y-93140000D01*
X117570000Y-93150000D02*
X116200000Y-93150000D01*
D52*
X115662500Y-100837500D02*
X116500000Y-100000000D01*
X109642500Y-99087500D02*
X111142500Y-100587500D01*
X114180000Y-122670000D02*
X114800000Y-122050000D01*
D54*
X108650000Y-121450000D02*
X109240000Y-121450000D01*
X117730000Y-104250000D02*
X118550000Y-104250000D01*
X115070000Y-94370000D02*
X115620000Y-94370000D01*
X117600000Y-114500000D02*
X118450000Y-113650000D01*
D51*
X106100000Y-108500000D02*
X106000000Y-108400000D01*
D54*
X116725000Y-106450000D02*
X117850000Y-106450000D01*
X112470000Y-121670000D02*
X113180000Y-121670000D01*
X103700000Y-110852894D02*
X103700000Y-111930948D01*
D52*
X114180000Y-123435000D02*
X114180000Y-122670000D01*
D54*
X113590000Y-93890000D02*
X113640000Y-93840000D01*
D52*
%TO.N,Net-(D3-K)*%
X117299000Y-113401000D02*
X114228488Y-113401000D01*
X113327488Y-112500000D02*
X112237500Y-112500000D01*
X117600000Y-113100000D02*
X117299000Y-113401000D01*
X114228488Y-113401000D02*
X113327488Y-112500000D01*
X122137500Y-124100000D02*
X123800000Y-124100000D01*
D54*
%TO.N,Net-(D3-A)*%
X118700000Y-124100000D02*
X118025000Y-124100000D01*
X120262500Y-124100000D02*
X118700000Y-124100000D01*
X118700000Y-123362500D02*
X120262500Y-121800000D01*
X118025000Y-124100000D02*
X117600000Y-124525000D01*
X118700000Y-124100000D02*
X118700000Y-123362500D01*
D52*
%TO.N,Net-(D4-K)*%
X118300000Y-112500000D02*
X116400000Y-110600000D01*
X116400000Y-110600000D02*
X109000000Y-110600000D01*
X108750000Y-111550000D02*
X109962500Y-111550000D01*
X122137500Y-121800000D02*
X123700000Y-121800000D01*
X109000000Y-110600000D02*
X108500000Y-111100000D01*
X108500000Y-111300000D02*
X108750000Y-111550000D01*
X108500000Y-111100000D02*
X108500000Y-111300000D01*
D51*
%TO.N,Net-(U4-PROG)*%
X114225000Y-111550000D02*
X114275000Y-111500000D01*
X112237500Y-111550000D02*
X113500000Y-111550000D01*
%TD*%
%TA.AperFunction,Conductor*%
%TO.N,GND*%
G36*
X110562375Y-89169685D02*
G01*
X110608130Y-89222489D01*
X110618074Y-89291647D01*
X110589049Y-89355203D01*
X110583017Y-89361681D01*
X110360307Y-89584390D01*
X110360304Y-89584394D01*
X110286383Y-89695024D01*
X110286378Y-89695034D01*
X110235459Y-89817963D01*
X110235457Y-89817970D01*
X110215094Y-89920343D01*
X110215092Y-89920356D01*
X110214216Y-89924762D01*
X110209500Y-89948469D01*
X110209500Y-89965311D01*
X110208551Y-89972940D01*
X110197579Y-89998226D01*
X110189815Y-90024670D01*
X110182860Y-90032150D01*
X110180741Y-90037036D01*
X110175000Y-90040881D01*
X110175000Y-90351645D01*
X110157734Y-90414763D01*
X110152507Y-90423600D01*
X110152504Y-90423608D01*
X110107357Y-90579002D01*
X110107356Y-90579008D01*
X110104500Y-90615302D01*
X110104500Y-90726000D01*
X110084815Y-90793039D01*
X110032011Y-90838794D01*
X109980500Y-90850000D01*
X109925000Y-90850000D01*
X109925000Y-90976000D01*
X109905315Y-91043039D01*
X109852511Y-91088794D01*
X109801000Y-91100000D01*
X109146210Y-91100000D01*
X109147854Y-91120910D01*
X109192968Y-91276195D01*
X109275278Y-91415374D01*
X109275285Y-91415383D01*
X109339064Y-91479162D01*
X109372549Y-91540485D01*
X109367565Y-91610177D01*
X109339065Y-91654524D01*
X109266411Y-91727178D01*
X109266408Y-91727182D01*
X109183068Y-91868104D01*
X109183066Y-91868107D01*
X109137391Y-92025320D01*
X109137390Y-92025326D01*
X109134500Y-92062052D01*
X109134500Y-92537947D01*
X109137390Y-92574673D01*
X109137391Y-92574676D01*
X109183066Y-92731892D01*
X109183068Y-92731895D01*
X109183069Y-92731897D01*
X109221872Y-92797510D01*
X109237232Y-92823482D01*
X109254500Y-92886603D01*
X109254500Y-93201401D01*
X109237232Y-93264521D01*
X109187507Y-93348602D01*
X109187504Y-93348609D01*
X109142357Y-93504002D01*
X109142355Y-93504016D01*
X109141920Y-93509545D01*
X109117034Y-93574832D01*
X109060801Y-93616301D01*
X108994112Y-93621428D01*
X108878845Y-93598500D01*
X108878842Y-93598500D01*
X108721158Y-93598500D01*
X108721155Y-93598500D01*
X108566510Y-93629261D01*
X108566502Y-93629263D01*
X108533857Y-93642785D01*
X108464387Y-93650252D01*
X108401909Y-93618976D01*
X108368700Y-93567227D01*
X108358421Y-93536206D01*
X108322003Y-93426303D01*
X108321999Y-93426297D01*
X108321998Y-93426294D01*
X108232970Y-93281959D01*
X108232967Y-93281955D01*
X108223339Y-93272327D01*
X108189854Y-93211004D01*
X108194838Y-93141312D01*
X108223345Y-93096959D01*
X108232573Y-93087731D01*
X108321542Y-92943492D01*
X108321547Y-92943481D01*
X108374855Y-92782606D01*
X108384999Y-92683322D01*
X108385000Y-92683309D01*
X108385000Y-92660000D01*
X107534000Y-92660000D01*
X107466961Y-92640315D01*
X107421206Y-92587511D01*
X107410000Y-92536000D01*
X107410000Y-92410000D01*
X107284000Y-92410000D01*
X107216961Y-92390315D01*
X107171206Y-92337511D01*
X107160000Y-92286000D01*
X107160000Y-92160000D01*
X107660000Y-92160000D01*
X108384999Y-92160000D01*
X108384999Y-92136692D01*
X108384998Y-92136677D01*
X108374855Y-92037392D01*
X108321547Y-91876518D01*
X108321542Y-91876507D01*
X108232575Y-91732271D01*
X108232572Y-91732267D01*
X108112732Y-91612427D01*
X108112728Y-91612424D01*
X107968492Y-91523457D01*
X107968481Y-91523452D01*
X107807606Y-91470144D01*
X107708322Y-91460000D01*
X107660000Y-91460000D01*
X107660000Y-92160000D01*
X107160000Y-92160000D01*
X107160000Y-91460000D01*
X107159999Y-91459999D01*
X107111693Y-91460000D01*
X107111675Y-91460001D01*
X107012392Y-91470144D01*
X106851518Y-91523452D01*
X106851507Y-91523457D01*
X106707271Y-91612424D01*
X106707267Y-91612427D01*
X106587427Y-91732267D01*
X106587424Y-91732271D01*
X106498457Y-91876507D01*
X106498453Y-91876516D01*
X106463984Y-91980537D01*
X106424211Y-92037981D01*
X106359695Y-92064804D01*
X106351386Y-92064928D01*
X106350000Y-92066210D01*
X106350000Y-92721000D01*
X106330315Y-92788039D01*
X106277511Y-92833794D01*
X106226000Y-92845000D01*
X106100000Y-92845000D01*
X106100000Y-92900500D01*
X106080315Y-92967539D01*
X106027511Y-93013294D01*
X105976000Y-93024500D01*
X105865302Y-93024500D01*
X105829008Y-93027356D01*
X105829002Y-93027357D01*
X105673610Y-93072503D01*
X105673605Y-93072506D01*
X105664766Y-93077732D01*
X105601648Y-93095000D01*
X105295496Y-93095000D01*
X105337968Y-93241194D01*
X105349911Y-93261389D01*
X105351402Y-93267267D01*
X105355421Y-93271807D01*
X105359893Y-93300739D01*
X105367092Y-93329113D01*
X105365406Y-93336395D01*
X105366096Y-93340857D01*
X105360893Y-93355889D01*
X105356511Y-93374825D01*
X105353582Y-93381420D01*
X105337506Y-93408605D01*
X105329916Y-93434726D01*
X105326512Y-93442396D01*
X105309117Y-93462904D01*
X105294647Y-93485562D01*
X105286862Y-93489143D01*
X105281318Y-93495681D01*
X105255596Y-93503529D01*
X105231174Y-93514767D01*
X105222688Y-93513571D01*
X105214491Y-93516073D01*
X105188612Y-93508770D01*
X105161988Y-93505020D01*
X105150058Y-93498812D01*
X105089341Y-93462904D01*
X105046395Y-93437506D01*
X105046394Y-93437505D01*
X105046393Y-93437505D01*
X105046390Y-93437504D01*
X104890997Y-93392357D01*
X104890991Y-93392356D01*
X104854697Y-93389500D01*
X104854690Y-93389500D01*
X104445310Y-93389500D01*
X104445302Y-93389500D01*
X104409008Y-93392356D01*
X104409002Y-93392357D01*
X104253609Y-93437504D01*
X104253604Y-93437506D01*
X104232628Y-93449911D01*
X104164903Y-93467092D01*
X104106389Y-93449911D01*
X104086191Y-93437966D01*
X104086190Y-93437965D01*
X103940001Y-93395493D01*
X103940000Y-93395494D01*
X103940000Y-93701645D01*
X103922734Y-93764763D01*
X103917507Y-93773600D01*
X103917504Y-93773608D01*
X103872357Y-93929002D01*
X103872356Y-93929008D01*
X103869500Y-93965302D01*
X103869500Y-94076000D01*
X103849815Y-94143039D01*
X103797011Y-94188794D01*
X103745500Y-94200000D01*
X103690000Y-94200000D01*
X103690000Y-94326000D01*
X103670315Y-94393039D01*
X103617511Y-94438794D01*
X103566000Y-94450000D01*
X102911210Y-94450000D01*
X102912854Y-94470910D01*
X102941642Y-94570000D01*
X103026000Y-94570000D01*
X103093039Y-94589685D01*
X103138794Y-94642489D01*
X103150000Y-94694000D01*
X103150000Y-96576000D01*
X103130315Y-96643039D01*
X103077511Y-96688794D01*
X103026000Y-96700000D01*
X102900000Y-96700000D01*
X102900000Y-96826000D01*
X102880315Y-96893039D01*
X102827511Y-96938794D01*
X102776000Y-96950000D01*
X101950001Y-96950000D01*
X101950001Y-96956582D01*
X101956408Y-97027102D01*
X101956409Y-97027107D01*
X102006981Y-97189396D01*
X102094927Y-97334877D01*
X102215121Y-97455071D01*
X102215125Y-97455074D01*
X102235837Y-97467595D01*
X102283025Y-97519122D01*
X102294864Y-97587981D01*
X102267596Y-97652310D01*
X102259369Y-97661393D01*
X101196156Y-98724607D01*
X101134833Y-98758092D01*
X101065141Y-98753108D01*
X101009208Y-98711236D01*
X100993914Y-98684378D01*
X100936635Y-98546092D01*
X100936633Y-98546088D01*
X100936632Y-98546086D01*
X100912847Y-98510489D01*
X100875029Y-98453891D01*
X100854151Y-98387214D01*
X100872635Y-98319834D01*
X100875029Y-98316109D01*
X100918867Y-98250501D01*
X100936632Y-98223914D01*
X101012051Y-98041835D01*
X101050500Y-97848541D01*
X101050500Y-97651459D01*
X101050500Y-97651456D01*
X101012052Y-97458170D01*
X101012051Y-97458169D01*
X101012051Y-97458165D01*
X101010771Y-97455074D01*
X100936635Y-97276092D01*
X100936633Y-97276088D01*
X100936632Y-97276086D01*
X100875029Y-97183891D01*
X100854151Y-97117214D01*
X100872635Y-97049834D01*
X100875029Y-97046109D01*
X100918897Y-96980456D01*
X100936632Y-96953914D01*
X101012051Y-96771835D01*
X101036034Y-96651265D01*
X101050500Y-96578543D01*
X101050500Y-96443427D01*
X101950000Y-96443427D01*
X101950000Y-96450000D01*
X102650000Y-96450000D01*
X102650000Y-95850000D01*
X101950001Y-95850000D01*
X101950001Y-95856582D01*
X101956408Y-95927102D01*
X101956409Y-95927107D01*
X102006981Y-96089398D01*
X102010061Y-96096241D01*
X102007845Y-96097237D01*
X102022672Y-96153423D01*
X102008144Y-96202896D01*
X102010061Y-96203759D01*
X102006980Y-96210603D01*
X101956409Y-96372893D01*
X101950000Y-96443427D01*
X101050500Y-96443427D01*
X101050500Y-96381456D01*
X101012052Y-96188170D01*
X101012051Y-96188169D01*
X101012051Y-96188165D01*
X100969680Y-96085873D01*
X100962212Y-96016407D01*
X100984977Y-95964111D01*
X100993796Y-95952331D01*
X101044091Y-95817483D01*
X101050500Y-95757873D01*
X101050499Y-95343427D01*
X101950000Y-95343427D01*
X101950000Y-95350000D01*
X102650000Y-95350000D01*
X102650000Y-94700000D01*
X102649999Y-94699999D01*
X102593418Y-94700000D01*
X102593417Y-94700001D01*
X102522897Y-94706408D01*
X102522892Y-94706409D01*
X102360603Y-94756981D01*
X102215122Y-94844927D01*
X102094927Y-94965122D01*
X102006980Y-95110604D01*
X101956409Y-95272893D01*
X101950000Y-95343427D01*
X101050499Y-95343427D01*
X101050499Y-95200500D01*
X101050499Y-94662129D01*
X101050498Y-94662123D01*
X101050497Y-94662116D01*
X101045299Y-94613757D01*
X101044091Y-94602516D01*
X100993797Y-94467671D01*
X100993793Y-94467664D01*
X100907547Y-94352455D01*
X100907544Y-94352452D01*
X100792335Y-94266206D01*
X100792328Y-94266202D01*
X100657482Y-94215908D01*
X100657483Y-94215908D01*
X100597883Y-94209501D01*
X100597881Y-94209500D01*
X100597873Y-94209500D01*
X100597864Y-94209500D01*
X99502129Y-94209500D01*
X99502123Y-94209501D01*
X99442516Y-94215908D01*
X99307671Y-94266202D01*
X99307664Y-94266206D01*
X99192455Y-94352452D01*
X99192452Y-94352455D01*
X99106206Y-94467664D01*
X99106202Y-94467671D01*
X99055908Y-94602517D01*
X99051104Y-94647204D01*
X99049501Y-94662123D01*
X99049500Y-94662135D01*
X99049500Y-95757870D01*
X99049501Y-95757876D01*
X99055908Y-95817483D01*
X99106202Y-95952328D01*
X99106206Y-95952335D01*
X99115023Y-95964113D01*
X99139440Y-96029578D01*
X99130318Y-96085874D01*
X99118628Y-96114097D01*
X99087950Y-96188164D01*
X99087948Y-96188168D01*
X99087947Y-96188171D01*
X99049500Y-96381456D01*
X99049500Y-96381459D01*
X99049500Y-96578541D01*
X99049500Y-96578543D01*
X99049499Y-96578543D01*
X99087947Y-96771829D01*
X99087950Y-96771839D01*
X99163365Y-96953907D01*
X99163368Y-96953914D01*
X99181103Y-96980456D01*
X99224971Y-97046110D01*
X99245848Y-97112787D01*
X99227363Y-97180167D01*
X99224971Y-97183890D01*
X99163366Y-97276089D01*
X99087950Y-97458160D01*
X99087947Y-97458170D01*
X99049500Y-97651456D01*
X99049500Y-97651459D01*
X99049500Y-97848541D01*
X99049500Y-97848543D01*
X99049499Y-97848543D01*
X99087947Y-98041829D01*
X99087950Y-98041839D01*
X99126036Y-98133786D01*
X99163368Y-98223914D01*
X99181133Y-98250501D01*
X99224971Y-98316110D01*
X99245848Y-98382787D01*
X99227363Y-98450167D01*
X99224971Y-98453890D01*
X99163366Y-98546089D01*
X99087950Y-98728160D01*
X99087947Y-98728170D01*
X99049500Y-98921456D01*
X99049500Y-98921459D01*
X99049500Y-99118541D01*
X99049500Y-99118543D01*
X99049499Y-99118543D01*
X99087947Y-99311829D01*
X99087950Y-99311839D01*
X99163366Y-99493910D01*
X99163368Y-99493914D01*
X99194973Y-99541214D01*
X99224971Y-99586110D01*
X99245848Y-99652787D01*
X99227363Y-99720167D01*
X99224971Y-99723890D01*
X99163366Y-99816089D01*
X99087950Y-99998160D01*
X99087947Y-99998170D01*
X99049500Y-100191456D01*
X99049500Y-100191459D01*
X99049500Y-100388541D01*
X99049500Y-100388543D01*
X99049499Y-100388543D01*
X99087947Y-100581829D01*
X99087950Y-100581839D01*
X99161995Y-100760600D01*
X99163368Y-100763914D01*
X99194144Y-100809974D01*
X99224971Y-100856110D01*
X99245848Y-100922787D01*
X99227363Y-100990167D01*
X99224971Y-100993890D01*
X99163366Y-101086089D01*
X99087950Y-101268160D01*
X99087947Y-101268170D01*
X99049500Y-101461456D01*
X99049500Y-101461459D01*
X99049500Y-101658541D01*
X99049500Y-101658543D01*
X99049499Y-101658543D01*
X99087947Y-101851829D01*
X99087950Y-101851839D01*
X99163192Y-102033489D01*
X99163368Y-102033914D01*
X99189724Y-102073358D01*
X99224971Y-102126110D01*
X99245848Y-102192787D01*
X99227363Y-102260167D01*
X99224971Y-102263890D01*
X99163366Y-102356089D01*
X99087950Y-102538160D01*
X99087947Y-102538170D01*
X99049500Y-102731456D01*
X99049500Y-102731459D01*
X99049500Y-102928541D01*
X99049500Y-102928543D01*
X99049499Y-102928543D01*
X99087947Y-103121829D01*
X99087950Y-103121839D01*
X99163366Y-103303910D01*
X99163368Y-103303914D01*
X99207352Y-103369740D01*
X99224971Y-103396110D01*
X99245848Y-103462787D01*
X99227363Y-103530167D01*
X99224971Y-103533890D01*
X99163366Y-103626089D01*
X99087950Y-103808160D01*
X99087947Y-103808170D01*
X99049500Y-104001456D01*
X99049500Y-104001459D01*
X99049500Y-104198541D01*
X99049500Y-104198543D01*
X99049499Y-104198543D01*
X99087947Y-104391829D01*
X99087950Y-104391839D01*
X99163366Y-104573910D01*
X99163368Y-104573914D01*
X99191280Y-104615687D01*
X99224971Y-104666110D01*
X99245848Y-104732787D01*
X99227363Y-104800167D01*
X99224971Y-104803890D01*
X99163366Y-104896089D01*
X99087950Y-105078160D01*
X99087947Y-105078170D01*
X99049500Y-105271456D01*
X99049500Y-105271459D01*
X99049500Y-105468541D01*
X99049500Y-105468543D01*
X99049499Y-105468543D01*
X99087947Y-105661829D01*
X99087950Y-105661839D01*
X99163365Y-105843907D01*
X99163368Y-105843914D01*
X99195032Y-105891303D01*
X99224971Y-105936110D01*
X99245848Y-106002787D01*
X99227363Y-106070167D01*
X99224971Y-106073890D01*
X99163366Y-106166089D01*
X99087950Y-106348160D01*
X99087947Y-106348170D01*
X99049500Y-106541456D01*
X99049500Y-106541459D01*
X99049500Y-106738541D01*
X99049500Y-106738543D01*
X99049499Y-106738543D01*
X99087947Y-106931829D01*
X99087950Y-106931839D01*
X99119701Y-107008492D01*
X99163368Y-107113914D01*
X99203885Y-107174552D01*
X99225271Y-107206559D01*
X99246148Y-107273236D01*
X99227663Y-107340616D01*
X99225271Y-107344339D01*
X99163809Y-107436325D01*
X99088430Y-107618306D01*
X99088427Y-107618318D01*
X99050000Y-107811504D01*
X99050000Y-108008495D01*
X99088427Y-108201681D01*
X99088430Y-108201693D01*
X99163807Y-108383671D01*
X99163814Y-108383684D01*
X99225270Y-108475659D01*
X99246148Y-108542337D01*
X99227663Y-108609717D01*
X99225271Y-108613440D01*
X99163370Y-108706082D01*
X99163364Y-108706093D01*
X99087950Y-108888160D01*
X99087947Y-108888170D01*
X99049500Y-109081456D01*
X99049500Y-109081459D01*
X99049500Y-109278541D01*
X99049500Y-109278543D01*
X99049499Y-109278543D01*
X99087947Y-109471829D01*
X99087950Y-109471839D01*
X99110389Y-109526011D01*
X99163368Y-109653914D01*
X99207352Y-109719740D01*
X99224971Y-109746110D01*
X99245848Y-109812787D01*
X99227363Y-109880167D01*
X99224971Y-109883890D01*
X99163366Y-109976089D01*
X99087950Y-110158160D01*
X99087947Y-110158170D01*
X99049500Y-110351456D01*
X99049500Y-110351459D01*
X99049500Y-110548541D01*
X99049500Y-110548543D01*
X99049499Y-110548543D01*
X99087947Y-110741829D01*
X99087950Y-110741839D01*
X99155269Y-110904362D01*
X99163368Y-110923914D01*
X99190627Y-110964710D01*
X99224971Y-111016110D01*
X99245848Y-111082787D01*
X99227363Y-111150167D01*
X99224971Y-111153890D01*
X99163366Y-111246089D01*
X99087950Y-111428160D01*
X99087947Y-111428170D01*
X99049500Y-111621456D01*
X99049500Y-111621459D01*
X99049500Y-111818541D01*
X99049500Y-111818543D01*
X99049499Y-111818543D01*
X99087947Y-112011829D01*
X99087950Y-112011839D01*
X99163365Y-112193907D01*
X99163368Y-112193914D01*
X99191426Y-112235906D01*
X99224971Y-112286110D01*
X99245848Y-112352787D01*
X99227363Y-112420167D01*
X99224971Y-112423890D01*
X99163366Y-112516089D01*
X99087950Y-112698160D01*
X99087947Y-112698170D01*
X99049500Y-112891456D01*
X99049500Y-112891459D01*
X99049500Y-113088541D01*
X99049500Y-113088543D01*
X99049499Y-113088543D01*
X99087947Y-113281829D01*
X99087950Y-113281839D01*
X99163365Y-113463907D01*
X99163368Y-113463914D01*
X99194162Y-113510001D01*
X99224971Y-113556110D01*
X99245848Y-113622787D01*
X99227363Y-113690167D01*
X99224971Y-113693890D01*
X99163366Y-113786089D01*
X99087950Y-113968160D01*
X99087947Y-113968170D01*
X99049500Y-114161456D01*
X99049500Y-114161459D01*
X99049500Y-114358541D01*
X99049500Y-114358543D01*
X99049499Y-114358543D01*
X99087947Y-114551829D01*
X99087950Y-114551839D01*
X99163365Y-114733907D01*
X99163368Y-114733914D01*
X99206419Y-114798345D01*
X99224971Y-114826110D01*
X99245848Y-114892787D01*
X99227363Y-114960167D01*
X99224971Y-114963890D01*
X99163366Y-115056089D01*
X99087950Y-115238160D01*
X99087947Y-115238170D01*
X99049500Y-115431456D01*
X99049500Y-115431459D01*
X99049500Y-115628541D01*
X99049500Y-115628543D01*
X99049499Y-115628543D01*
X99087947Y-115821829D01*
X99087950Y-115821839D01*
X99155402Y-115984682D01*
X99163368Y-116003914D01*
X99181528Y-116031092D01*
X99224971Y-116096110D01*
X99245848Y-116162787D01*
X99227363Y-116230167D01*
X99224971Y-116233890D01*
X99163366Y-116326089D01*
X99087950Y-116508160D01*
X99087947Y-116508170D01*
X99049500Y-116701456D01*
X99049500Y-116701459D01*
X99049500Y-116898541D01*
X99049500Y-116898543D01*
X99049499Y-116898543D01*
X99087947Y-117091829D01*
X99087950Y-117091839D01*
X99163364Y-117273907D01*
X99163371Y-117273920D01*
X99272860Y-117437781D01*
X99272863Y-117437785D01*
X99412214Y-117577136D01*
X99412218Y-117577139D01*
X99576079Y-117686628D01*
X99576092Y-117686635D01*
X99749003Y-117758256D01*
X99758165Y-117762051D01*
X99758169Y-117762051D01*
X99758170Y-117762052D01*
X99951456Y-117800500D01*
X100013255Y-117800500D01*
X100080294Y-117820185D01*
X100126049Y-117872989D01*
X100135993Y-117942147D01*
X100106968Y-118005703D01*
X100087567Y-118023766D01*
X99982452Y-118102455D01*
X99896206Y-118217664D01*
X99896202Y-118217671D01*
X99845908Y-118352517D01*
X99841413Y-118394334D01*
X99839501Y-118412123D01*
X99839500Y-118412135D01*
X99839500Y-119507870D01*
X99839501Y-119507876D01*
X99845908Y-119567483D01*
X99896202Y-119702328D01*
X99896206Y-119702335D01*
X99982452Y-119817544D01*
X99982455Y-119817547D01*
X100097664Y-119903793D01*
X100097671Y-119903797D01*
X100120150Y-119912181D01*
X100232517Y-119954091D01*
X100292127Y-119960500D01*
X100459901Y-119960499D01*
X100526941Y-119980183D01*
X100547582Y-119996817D01*
X100813083Y-120262319D01*
X100846568Y-120323641D01*
X100841584Y-120393333D01*
X100813083Y-120437680D01*
X100346286Y-120904478D01*
X100234481Y-121016282D01*
X100234479Y-121016285D01*
X100197984Y-121079498D01*
X100197983Y-121079500D01*
X100155423Y-121153214D01*
X100148725Y-121178211D01*
X100114499Y-121305943D01*
X100114499Y-121305945D01*
X100114499Y-121474046D01*
X100114500Y-121474059D01*
X100114500Y-123941534D01*
X100094815Y-124008573D01*
X100064812Y-124040800D01*
X99982452Y-124102455D01*
X99896206Y-124217664D01*
X99896202Y-124217671D01*
X99845908Y-124352517D01*
X99839501Y-124412116D01*
X99839501Y-124412123D01*
X99839500Y-124412135D01*
X99839500Y-125507870D01*
X99839501Y-125507876D01*
X99845908Y-125567483D01*
X99896202Y-125702328D01*
X99896206Y-125702335D01*
X99982452Y-125817544D01*
X99982455Y-125817547D01*
X100097664Y-125903793D01*
X100097671Y-125903797D01*
X100142618Y-125920561D01*
X100232517Y-125954091D01*
X100292127Y-125960500D01*
X100365784Y-125960499D01*
X100432822Y-125980183D01*
X100478578Y-126032986D01*
X100488522Y-126102144D01*
X100459498Y-126165701D01*
X100441271Y-126182874D01*
X100282962Y-126304350D01*
X100282952Y-126304358D01*
X100074358Y-126512952D01*
X100074352Y-126512959D01*
X99894761Y-126747006D01*
X99747258Y-127002489D01*
X99747254Y-127002499D01*
X99634364Y-127275038D01*
X99634361Y-127275048D01*
X99560705Y-127549940D01*
X99558008Y-127560004D01*
X99558006Y-127560015D01*
X99519500Y-127852486D01*
X99519500Y-128147513D01*
X99531335Y-128237402D01*
X99558007Y-128439993D01*
X99629228Y-128705796D01*
X99634361Y-128724951D01*
X99634364Y-128724961D01*
X99747254Y-128997500D01*
X99747258Y-128997510D01*
X99894761Y-129252993D01*
X100074352Y-129487040D01*
X100074358Y-129487047D01*
X100282952Y-129695641D01*
X100282959Y-129695647D01*
X100517006Y-129875238D01*
X100772489Y-130022741D01*
X100772490Y-130022741D01*
X100772493Y-130022743D01*
X101045048Y-130135639D01*
X101330007Y-130211993D01*
X101622494Y-130250500D01*
X101622501Y-130250500D01*
X101917499Y-130250500D01*
X101917506Y-130250500D01*
X102209993Y-130211993D01*
X102494952Y-130135639D01*
X102767507Y-130022743D01*
X103022994Y-129875238D01*
X103257042Y-129695646D01*
X103465646Y-129487042D01*
X103645238Y-129252994D01*
X103792743Y-128997507D01*
X103905639Y-128724952D01*
X103981993Y-128439993D01*
X104020500Y-128147506D01*
X104020500Y-127852494D01*
X103999964Y-127696512D01*
X103999305Y-127691504D01*
X105660000Y-127691504D01*
X105660000Y-127940000D01*
X106360000Y-127940000D01*
X106360000Y-128440000D01*
X105660000Y-128440000D01*
X105660000Y-128688495D01*
X105698427Y-128881681D01*
X105698430Y-128881693D01*
X105773807Y-129063671D01*
X105773814Y-129063684D01*
X105883248Y-129227462D01*
X105883251Y-129227466D01*
X106022533Y-129366748D01*
X106022537Y-129366751D01*
X106186315Y-129476185D01*
X106186328Y-129476192D01*
X106368308Y-129551569D01*
X106410000Y-129559862D01*
X106410000Y-128756988D01*
X106419940Y-128774205D01*
X106475795Y-128830060D01*
X106544204Y-128869556D01*
X106620504Y-128890000D01*
X106699496Y-128890000D01*
X106775796Y-128869556D01*
X106844205Y-128830060D01*
X106900060Y-128774205D01*
X106910000Y-128756988D01*
X106910000Y-129559862D01*
X106951690Y-129551569D01*
X106951692Y-129551569D01*
X107133671Y-129476192D01*
X107133684Y-129476185D01*
X107297462Y-129366751D01*
X107297466Y-129366748D01*
X107436748Y-129227466D01*
X107436751Y-129227462D01*
X107546185Y-129063684D01*
X107546192Y-129063671D01*
X107621569Y-128881693D01*
X107621572Y-128881681D01*
X107659999Y-128688495D01*
X107660000Y-128688492D01*
X107660000Y-128440000D01*
X106960000Y-128440000D01*
X106960000Y-127940000D01*
X107660000Y-127940000D01*
X107660000Y-127691508D01*
X107659999Y-127691504D01*
X114300000Y-127691504D01*
X114300000Y-127940000D01*
X115000000Y-127940000D01*
X115000000Y-128440000D01*
X114300000Y-128440000D01*
X114300000Y-128688495D01*
X114338427Y-128881681D01*
X114338430Y-128881693D01*
X114413807Y-129063671D01*
X114413814Y-129063684D01*
X114523248Y-129227462D01*
X114523251Y-129227466D01*
X114662533Y-129366748D01*
X114662537Y-129366751D01*
X114826315Y-129476185D01*
X114826328Y-129476192D01*
X115008308Y-129551569D01*
X115050000Y-129559862D01*
X115050000Y-128756988D01*
X115059940Y-128774205D01*
X115115795Y-128830060D01*
X115184204Y-128869556D01*
X115260504Y-128890000D01*
X115339496Y-128890000D01*
X115415796Y-128869556D01*
X115484205Y-128830060D01*
X115540060Y-128774205D01*
X115550000Y-128756988D01*
X115550000Y-129559862D01*
X115591690Y-129551569D01*
X115591692Y-129551569D01*
X115773671Y-129476192D01*
X115773684Y-129476185D01*
X115937462Y-129366751D01*
X115937466Y-129366748D01*
X116076748Y-129227466D01*
X116076751Y-129227462D01*
X116186185Y-129063684D01*
X116186192Y-129063671D01*
X116261569Y-128881693D01*
X116261572Y-128881681D01*
X116299999Y-128688495D01*
X116300000Y-128688492D01*
X116300000Y-128440000D01*
X115600000Y-128440000D01*
X115600000Y-127940000D01*
X116300000Y-127940000D01*
X116300000Y-127852486D01*
X119449500Y-127852486D01*
X119449500Y-128147513D01*
X119461335Y-128237402D01*
X119488007Y-128439993D01*
X119559228Y-128705796D01*
X119564361Y-128724951D01*
X119564364Y-128724961D01*
X119677254Y-128997500D01*
X119677258Y-128997510D01*
X119824761Y-129252993D01*
X120004352Y-129487040D01*
X120004358Y-129487047D01*
X120212952Y-129695641D01*
X120212959Y-129695647D01*
X120447006Y-129875238D01*
X120702489Y-130022741D01*
X120702490Y-130022741D01*
X120702493Y-130022743D01*
X120975048Y-130135639D01*
X121260007Y-130211993D01*
X121552494Y-130250500D01*
X121552501Y-130250500D01*
X121847499Y-130250500D01*
X121847506Y-130250500D01*
X122139993Y-130211993D01*
X122424952Y-130135639D01*
X122697507Y-130022743D01*
X122952994Y-129875238D01*
X123187042Y-129695646D01*
X123395646Y-129487042D01*
X123575238Y-129252994D01*
X123722743Y-128997507D01*
X123835639Y-128724952D01*
X123911993Y-128439993D01*
X123950500Y-128147506D01*
X123950500Y-127852494D01*
X123911993Y-127560007D01*
X123835639Y-127275048D01*
X123722743Y-127002493D01*
X123622247Y-126828429D01*
X123575238Y-126747006D01*
X123395647Y-126512959D01*
X123395641Y-126512952D01*
X123187047Y-126304358D01*
X123187040Y-126304352D01*
X122952993Y-126124761D01*
X122697510Y-125977258D01*
X122697500Y-125977254D01*
X122424961Y-125864364D01*
X122424954Y-125864362D01*
X122424952Y-125864361D01*
X122139993Y-125788007D01*
X122091113Y-125781571D01*
X121847513Y-125749500D01*
X121847506Y-125749500D01*
X121552494Y-125749500D01*
X121552486Y-125749500D01*
X121274085Y-125786153D01*
X121260007Y-125788007D01*
X120975048Y-125864361D01*
X120975038Y-125864364D01*
X120702499Y-125977254D01*
X120702489Y-125977258D01*
X120447006Y-126124761D01*
X120212959Y-126304352D01*
X120212952Y-126304358D01*
X120004358Y-126512952D01*
X120004352Y-126512959D01*
X119824761Y-126747006D01*
X119677258Y-127002489D01*
X119677254Y-127002499D01*
X119564364Y-127275038D01*
X119564361Y-127275048D01*
X119490705Y-127549940D01*
X119488008Y-127560004D01*
X119488006Y-127560015D01*
X119449500Y-127852486D01*
X116300000Y-127852486D01*
X116300000Y-127691508D01*
X116299999Y-127691504D01*
X116261572Y-127498318D01*
X116261569Y-127498306D01*
X116186192Y-127316328D01*
X116186185Y-127316315D01*
X116076751Y-127152537D01*
X116076748Y-127152533D01*
X115937466Y-127013251D01*
X115937462Y-127013248D01*
X115773684Y-126903814D01*
X115773671Y-126903807D01*
X115591691Y-126828429D01*
X115591683Y-126828427D01*
X115550000Y-126820135D01*
X115550000Y-127623011D01*
X115540060Y-127605795D01*
X115484205Y-127549940D01*
X115415796Y-127510444D01*
X115339496Y-127490000D01*
X115260504Y-127490000D01*
X115184204Y-127510444D01*
X115115795Y-127549940D01*
X115059940Y-127605795D01*
X115050000Y-127623011D01*
X115050000Y-126820136D01*
X115049999Y-126820135D01*
X115008316Y-126828427D01*
X115008308Y-126828429D01*
X114826328Y-126903807D01*
X114826315Y-126903814D01*
X114662537Y-127013248D01*
X114662533Y-127013251D01*
X114523251Y-127152533D01*
X114523248Y-127152537D01*
X114413814Y-127316315D01*
X114413807Y-127316328D01*
X114338430Y-127498306D01*
X114338427Y-127498318D01*
X114300000Y-127691504D01*
X107659999Y-127691504D01*
X107621572Y-127498318D01*
X107621569Y-127498306D01*
X107546192Y-127316328D01*
X107546185Y-127316315D01*
X107436751Y-127152537D01*
X107436748Y-127152533D01*
X107297466Y-127013251D01*
X107297462Y-127013248D01*
X107133684Y-126903814D01*
X107133671Y-126903807D01*
X106951691Y-126828429D01*
X106951683Y-126828427D01*
X106910000Y-126820135D01*
X106910000Y-127623011D01*
X106900060Y-127605795D01*
X106844205Y-127549940D01*
X106775796Y-127510444D01*
X106699496Y-127490000D01*
X106620504Y-127490000D01*
X106544204Y-127510444D01*
X106475795Y-127549940D01*
X106419940Y-127605795D01*
X106410000Y-127623011D01*
X106410000Y-126820136D01*
X106409999Y-126820135D01*
X106368316Y-126828427D01*
X106368308Y-126828429D01*
X106186328Y-126903807D01*
X106186315Y-126903814D01*
X106022537Y-127013248D01*
X106022533Y-127013251D01*
X105883251Y-127152533D01*
X105883248Y-127152537D01*
X105773814Y-127316315D01*
X105773807Y-127316328D01*
X105698430Y-127498306D01*
X105698427Y-127498318D01*
X105660000Y-127691504D01*
X103999305Y-127691504D01*
X103988021Y-127605795D01*
X103981993Y-127560007D01*
X103905639Y-127275048D01*
X103792743Y-127002493D01*
X103692247Y-126828429D01*
X103645238Y-126747006D01*
X103465647Y-126512959D01*
X103465641Y-126512952D01*
X103257047Y-126304358D01*
X103257040Y-126304352D01*
X103022993Y-126124761D01*
X102767510Y-125977258D01*
X102767500Y-125977254D01*
X102494961Y-125864364D01*
X102494954Y-125864362D01*
X102494952Y-125864361D01*
X102209993Y-125788007D01*
X102161113Y-125781571D01*
X101917513Y-125749500D01*
X101917506Y-125749500D01*
X101694796Y-125749500D01*
X101627757Y-125729815D01*
X101582002Y-125677011D01*
X101572058Y-125607853D01*
X101578615Y-125582165D01*
X101584091Y-125567483D01*
X101585571Y-125553714D01*
X101590500Y-125507873D01*
X101590500Y-125507844D01*
X103590000Y-125507844D01*
X103596401Y-125567372D01*
X103596403Y-125567379D01*
X103646645Y-125702086D01*
X103646649Y-125702093D01*
X103732809Y-125817187D01*
X103732812Y-125817190D01*
X103847906Y-125903350D01*
X103847913Y-125903354D01*
X103982620Y-125953596D01*
X103982627Y-125953598D01*
X104042155Y-125959999D01*
X104042172Y-125960000D01*
X104215000Y-125960000D01*
X104715000Y-125960000D01*
X104887828Y-125960000D01*
X104887844Y-125959999D01*
X104947372Y-125953598D01*
X104947379Y-125953596D01*
X105082086Y-125903354D01*
X105082093Y-125903350D01*
X105197187Y-125817190D01*
X105197190Y-125817187D01*
X105283350Y-125702093D01*
X105283354Y-125702086D01*
X105333596Y-125567379D01*
X105333598Y-125567372D01*
X105339999Y-125507844D01*
X105340000Y-125507827D01*
X105340000Y-125210000D01*
X104715000Y-125210000D01*
X104715000Y-125960000D01*
X104215000Y-125960000D01*
X104215000Y-125210000D01*
X103590000Y-125210000D01*
X103590000Y-125507844D01*
X101590500Y-125507844D01*
X101590499Y-124948436D01*
X101590499Y-124412155D01*
X103590000Y-124412155D01*
X103590000Y-124710000D01*
X104215000Y-124710000D01*
X104715000Y-124710000D01*
X105340000Y-124710000D01*
X105340000Y-124412172D01*
X105339999Y-124412155D01*
X105333598Y-124352627D01*
X105333596Y-124352620D01*
X105296057Y-124251971D01*
X105283354Y-124217913D01*
X105283350Y-124217906D01*
X105197190Y-124102812D01*
X105197187Y-124102809D01*
X105082093Y-124016649D01*
X105082086Y-124016645D01*
X104947379Y-123966403D01*
X104947372Y-123966401D01*
X104887844Y-123960000D01*
X104715000Y-123960000D01*
X104715000Y-124710000D01*
X104215000Y-124710000D01*
X104215000Y-123960000D01*
X104042155Y-123960000D01*
X103982627Y-123966401D01*
X103982620Y-123966403D01*
X103847913Y-124016645D01*
X103847906Y-124016649D01*
X103732812Y-124102809D01*
X103732809Y-124102812D01*
X103646649Y-124217906D01*
X103646645Y-124217913D01*
X103596403Y-124352620D01*
X103596401Y-124352627D01*
X103590000Y-124412155D01*
X101590499Y-124412155D01*
X101590499Y-124412129D01*
X101590498Y-124412123D01*
X101590497Y-124412116D01*
X101584091Y-124352517D01*
X101576998Y-124333501D01*
X101533797Y-124217671D01*
X101533793Y-124217664D01*
X101447547Y-124102455D01*
X101365188Y-124040800D01*
X101323318Y-123984866D01*
X101315500Y-123941534D01*
X101315500Y-121685096D01*
X101324144Y-121655655D01*
X101330668Y-121625669D01*
X101334422Y-121620653D01*
X101335185Y-121618057D01*
X101351810Y-121597424D01*
X101520900Y-121428334D01*
X101582219Y-121394852D01*
X101651910Y-121399836D01*
X101696258Y-121428337D01*
X101789707Y-121521786D01*
X101789711Y-121521789D01*
X101920814Y-121609390D01*
X101920827Y-121609397D01*
X102043956Y-121660398D01*
X102066503Y-121669737D01*
X102221153Y-121700499D01*
X102221156Y-121700500D01*
X102221158Y-121700500D01*
X102378844Y-121700500D01*
X102378845Y-121700499D01*
X102533497Y-121669737D01*
X102679179Y-121609394D01*
X102810289Y-121521789D01*
X102921789Y-121410289D01*
X103009394Y-121279179D01*
X103069737Y-121133497D01*
X103100500Y-120978842D01*
X103100500Y-120821158D01*
X103100500Y-120821155D01*
X103100499Y-120821153D01*
X103094036Y-120788661D01*
X103069737Y-120666503D01*
X103068966Y-120664642D01*
X103009397Y-120520827D01*
X103009390Y-120520814D01*
X102921789Y-120389711D01*
X102921786Y-120389707D01*
X102810292Y-120278213D01*
X102810288Y-120278210D01*
X102679185Y-120190609D01*
X102679172Y-120190602D01*
X102533501Y-120130264D01*
X102533491Y-120130261D01*
X102378151Y-120099362D01*
X102316241Y-120066977D01*
X102314662Y-120065426D01*
X101757080Y-119507844D01*
X103590000Y-119507844D01*
X103596401Y-119567372D01*
X103596403Y-119567379D01*
X103646645Y-119702086D01*
X103646649Y-119702093D01*
X103732809Y-119817187D01*
X103732812Y-119817190D01*
X103847906Y-119903350D01*
X103847913Y-119903354D01*
X103982620Y-119953596D01*
X103982627Y-119953598D01*
X104042155Y-119959999D01*
X104042172Y-119960000D01*
X104215000Y-119960000D01*
X104715000Y-119960000D01*
X104887828Y-119960000D01*
X104887844Y-119959999D01*
X104947372Y-119953598D01*
X104947379Y-119953596D01*
X105082086Y-119903354D01*
X105082093Y-119903350D01*
X105197187Y-119817190D01*
X105197190Y-119817187D01*
X105283350Y-119702093D01*
X105283354Y-119702086D01*
X105333596Y-119567379D01*
X105333598Y-119567372D01*
X105339999Y-119507844D01*
X105340000Y-119507827D01*
X105340000Y-119210000D01*
X104715000Y-119210000D01*
X104715000Y-119960000D01*
X104215000Y-119960000D01*
X104215000Y-119210000D01*
X103590000Y-119210000D01*
X103590000Y-119507844D01*
X101757080Y-119507844D01*
X101626818Y-119377582D01*
X101612114Y-119350654D01*
X101595522Y-119324836D01*
X101594630Y-119318635D01*
X101593333Y-119316259D01*
X101590499Y-119289901D01*
X101590499Y-118412129D01*
X101590498Y-118412123D01*
X101590497Y-118412116D01*
X101584091Y-118352517D01*
X101549358Y-118259394D01*
X101533797Y-118217671D01*
X101533793Y-118217664D01*
X101447547Y-118102455D01*
X101447544Y-118102452D01*
X101332335Y-118016206D01*
X101332328Y-118016202D01*
X101197482Y-117965908D01*
X101197483Y-117965908D01*
X101137883Y-117959501D01*
X101137881Y-117959500D01*
X101137873Y-117959500D01*
X101137865Y-117959500D01*
X100488540Y-117959500D01*
X100421501Y-117939815D01*
X100375746Y-117887011D01*
X100365802Y-117817853D01*
X100394827Y-117754297D01*
X100441085Y-117720940D01*
X100523914Y-117686632D01*
X100687782Y-117577139D01*
X100827139Y-117437782D01*
X100936632Y-117273914D01*
X100947414Y-117247885D01*
X101012049Y-117091839D01*
X101012051Y-117091835D01*
X101026261Y-117020398D01*
X101050500Y-116898543D01*
X101050500Y-116701456D01*
X101012052Y-116508170D01*
X101012051Y-116508169D01*
X101012051Y-116508165D01*
X100988298Y-116450819D01*
X100936635Y-116326092D01*
X100936633Y-116326088D01*
X100936632Y-116326086D01*
X100875029Y-116233891D01*
X100854151Y-116167214D01*
X100872635Y-116099834D01*
X100875029Y-116096109D01*
X100918476Y-116031086D01*
X100936632Y-116003914D01*
X101012051Y-115821835D01*
X101050500Y-115628541D01*
X101050500Y-115431459D01*
X101050500Y-115431456D01*
X101012052Y-115238170D01*
X101012051Y-115238169D01*
X101012051Y-115238165D01*
X101007322Y-115226747D01*
X100936635Y-115056092D01*
X100936633Y-115056088D01*
X100936632Y-115056086D01*
X100916122Y-115025391D01*
X100875029Y-114963891D01*
X100854151Y-114897214D01*
X100872635Y-114829834D01*
X100875029Y-114826109D01*
X100893580Y-114798345D01*
X100936632Y-114733914D01*
X101012051Y-114551835D01*
X101037518Y-114423804D01*
X101050500Y-114358543D01*
X101050500Y-114161456D01*
X101050499Y-114161454D01*
X101040635Y-114111860D01*
X101036449Y-114090818D01*
X103114500Y-114090818D01*
X103114500Y-114624181D01*
X103124563Y-114722683D01*
X103177450Y-114882284D01*
X103177455Y-114882295D01*
X103265716Y-115025387D01*
X103265719Y-115025391D01*
X103316275Y-115075947D01*
X103349760Y-115137270D01*
X103344776Y-115206962D01*
X103335327Y-115226747D01*
X103327133Y-115240601D01*
X103327129Y-115240611D01*
X103282335Y-115394791D01*
X103282334Y-115394797D01*
X103279500Y-115430811D01*
X103279500Y-115829169D01*
X103279501Y-115829179D01*
X103282335Y-115865205D01*
X103327129Y-116019388D01*
X103327132Y-116019395D01*
X103361128Y-116076881D01*
X103378309Y-116144605D01*
X103361128Y-116203119D01*
X103327132Y-116260604D01*
X103327129Y-116260611D01*
X103282335Y-116414791D01*
X103282334Y-116414797D01*
X103279500Y-116450811D01*
X103279500Y-116849169D01*
X103279501Y-116849191D01*
X103282335Y-116885205D01*
X103327129Y-117039388D01*
X103327131Y-117039393D01*
X103332232Y-117048018D01*
X103336582Y-117063919D01*
X103344477Y-117076204D01*
X103349500Y-117111139D01*
X103349500Y-117245396D01*
X103340062Y-117292844D01*
X103332957Y-117310000D01*
X103330262Y-117316506D01*
X103330260Y-117316511D01*
X103299500Y-117471153D01*
X103299500Y-117628846D01*
X103330261Y-117783489D01*
X103330264Y-117783501D01*
X103390602Y-117929172D01*
X103390609Y-117929185D01*
X103478210Y-118060288D01*
X103478213Y-118060292D01*
X103587359Y-118169438D01*
X103620844Y-118230761D01*
X103615860Y-118300451D01*
X103596404Y-118352616D01*
X103596401Y-118352627D01*
X103590000Y-118412155D01*
X103590000Y-118710000D01*
X105340000Y-118710000D01*
X105340000Y-118412172D01*
X105339999Y-118412155D01*
X105333598Y-118352627D01*
X105333596Y-118352620D01*
X105283354Y-118217913D01*
X105283350Y-118217906D01*
X105197190Y-118102812D01*
X105197187Y-118102809D01*
X105082093Y-118016649D01*
X105082086Y-118016645D01*
X104940108Y-117963691D01*
X104940760Y-117961941D01*
X104888743Y-117932321D01*
X104856356Y-117870411D01*
X104862582Y-117800819D01*
X104863377Y-117798849D01*
X104869737Y-117783497D01*
X104900500Y-117628842D01*
X104900500Y-117471158D01*
X104900500Y-117471155D01*
X104900499Y-117471153D01*
X104869739Y-117316511D01*
X104869738Y-117316508D01*
X104869737Y-117316503D01*
X104859937Y-117292844D01*
X104858311Y-117284670D01*
X104855523Y-117280331D01*
X104850500Y-117245396D01*
X104850500Y-117111139D01*
X104867768Y-117048018D01*
X104868071Y-117047506D01*
X104872869Y-117039393D01*
X104917665Y-116885204D01*
X104920500Y-116849181D01*
X104920499Y-116450820D01*
X104917665Y-116414796D01*
X104872869Y-116260607D01*
X104838869Y-116203117D01*
X104821688Y-116135398D01*
X104838869Y-116076882D01*
X104872869Y-116019393D01*
X104882954Y-115984682D01*
X104917664Y-115865208D01*
X104917664Y-115865206D01*
X104917665Y-115865204D01*
X104920500Y-115829181D01*
X104920499Y-115430820D01*
X104917665Y-115394796D01*
X104872869Y-115240607D01*
X104857240Y-115214181D01*
X104840058Y-115146458D01*
X104862218Y-115080196D01*
X104876293Y-115063379D01*
X104892169Y-115047503D01*
X104914281Y-115025391D01*
X105002549Y-114882287D01*
X105055436Y-114722685D01*
X105065500Y-114624174D01*
X105065500Y-114090826D01*
X105055436Y-113992315D01*
X105002549Y-113832713D01*
X105002545Y-113832707D01*
X105002544Y-113832704D01*
X104914283Y-113689612D01*
X104914280Y-113689608D01*
X104882000Y-113657328D01*
X104848515Y-113596005D01*
X104853499Y-113526313D01*
X104882000Y-113481966D01*
X104913885Y-113450080D01*
X105002091Y-113307077D01*
X105002093Y-113307072D01*
X105054942Y-113147583D01*
X105064999Y-113049150D01*
X105065000Y-113049137D01*
X105065000Y-113032500D01*
X103115001Y-113032500D01*
X103115001Y-113049152D01*
X103125056Y-113147583D01*
X103177906Y-113307072D01*
X103177908Y-113307077D01*
X103266114Y-113450080D01*
X103298000Y-113481967D01*
X103331485Y-113543291D01*
X103326499Y-113612982D01*
X103298000Y-113657327D01*
X103265719Y-113689607D01*
X103265716Y-113689612D01*
X103177455Y-113832704D01*
X103177451Y-113832713D01*
X103124564Y-113992315D01*
X103124564Y-113992316D01*
X103124563Y-113992316D01*
X103114500Y-114090818D01*
X101036449Y-114090818D01*
X101012052Y-113968170D01*
X101012051Y-113968169D01*
X101012051Y-113968165D01*
X101000949Y-113941362D01*
X100936635Y-113786092D01*
X100936633Y-113786088D01*
X100936632Y-113786086D01*
X100875029Y-113693891D01*
X100854151Y-113627214D01*
X100872635Y-113559834D01*
X100875029Y-113556109D01*
X100912957Y-113499346D01*
X100936632Y-113463914D01*
X101012051Y-113281835D01*
X101038756Y-113147583D01*
X101050500Y-113088543D01*
X101050500Y-112891456D01*
X101012052Y-112698170D01*
X101012051Y-112698169D01*
X101012051Y-112698165D01*
X100995003Y-112657007D01*
X100958025Y-112567733D01*
X100958024Y-112567731D01*
X100936632Y-112516086D01*
X100936474Y-112515849D01*
X103115000Y-112515849D01*
X103115000Y-112532500D01*
X103840000Y-112532500D01*
X104340000Y-112532500D01*
X105064999Y-112532500D01*
X105064999Y-112515864D01*
X105064998Y-112515847D01*
X105054943Y-112417416D01*
X105002093Y-112257927D01*
X105002091Y-112257922D01*
X104913885Y-112114919D01*
X104795080Y-111996114D01*
X104652077Y-111907908D01*
X104652072Y-111907906D01*
X104492583Y-111855057D01*
X104394150Y-111845000D01*
X104340000Y-111845000D01*
X104340000Y-112532500D01*
X103840000Y-112532500D01*
X103840000Y-111845000D01*
X103839999Y-111844999D01*
X103785864Y-111845000D01*
X103785847Y-111845001D01*
X103687415Y-111855057D01*
X103527927Y-111907906D01*
X103527922Y-111907908D01*
X103384919Y-111996114D01*
X103266114Y-112114919D01*
X103177908Y-112257922D01*
X103177906Y-112257927D01*
X103125057Y-112417416D01*
X103115000Y-112515849D01*
X100936474Y-112515849D01*
X100872822Y-112420588D01*
X100870823Y-112417136D01*
X100863449Y-112386909D01*
X100854151Y-112357214D01*
X100855238Y-112353250D01*
X100854264Y-112349257D01*
X100864404Y-112319836D01*
X100872635Y-112289834D01*
X100875029Y-112286109D01*
X100888133Y-112266498D01*
X100936632Y-112193914D01*
X100937608Y-112191559D01*
X100966911Y-112120814D01*
X101012051Y-112011835D01*
X101031435Y-111914385D01*
X101050500Y-111818543D01*
X101050500Y-111621456D01*
X101012052Y-111428170D01*
X101012051Y-111428169D01*
X101012051Y-111428165D01*
X100986831Y-111367278D01*
X100936635Y-111246092D01*
X100936633Y-111246088D01*
X100936632Y-111246086D01*
X100906172Y-111200500D01*
X100875029Y-111153891D01*
X100854151Y-111087214D01*
X100872635Y-111019834D01*
X100875029Y-111016109D01*
X100888819Y-110995471D01*
X100936632Y-110923914D01*
X101012051Y-110741835D01*
X101038395Y-110609397D01*
X101050500Y-110548543D01*
X101050500Y-110351456D01*
X101012052Y-110158170D01*
X101012051Y-110158169D01*
X101012051Y-110158165D01*
X100950081Y-110008554D01*
X100936635Y-109976092D01*
X100936633Y-109976088D01*
X100936632Y-109976086D01*
X100894919Y-109913659D01*
X100875029Y-109883891D01*
X100854151Y-109817214D01*
X100872635Y-109749834D01*
X100875029Y-109746109D01*
X100887872Y-109726887D01*
X100936632Y-109653914D01*
X101012051Y-109471835D01*
X101040599Y-109328315D01*
X101050500Y-109278543D01*
X101050500Y-109081456D01*
X101012052Y-108888170D01*
X101012051Y-108888169D01*
X101012051Y-108888165D01*
X101009893Y-108882956D01*
X100936635Y-108706092D01*
X100936628Y-108706079D01*
X100874728Y-108613440D01*
X100853850Y-108546763D01*
X100872334Y-108479383D01*
X100874729Y-108475657D01*
X100936189Y-108383676D01*
X100936191Y-108383673D01*
X101011569Y-108201693D01*
X101011572Y-108201681D01*
X101049999Y-108008495D01*
X101050000Y-108008492D01*
X101050000Y-107811508D01*
X101049999Y-107811504D01*
X101011572Y-107618318D01*
X101011569Y-107618306D01*
X100936192Y-107436328D01*
X100936188Y-107436321D01*
X100874728Y-107344341D01*
X100853850Y-107277663D01*
X100872334Y-107210283D01*
X100874704Y-107206595D01*
X100936632Y-107113914D01*
X101012051Y-106931835D01*
X101048550Y-106748345D01*
X101050500Y-106738543D01*
X101050500Y-106541456D01*
X101012052Y-106348170D01*
X101012051Y-106348169D01*
X101012051Y-106348165D01*
X100993428Y-106303204D01*
X100936635Y-106166092D01*
X100936633Y-106166088D01*
X100936632Y-106166086D01*
X100926990Y-106151656D01*
X100875029Y-106073891D01*
X100854151Y-106007214D01*
X100872635Y-105939834D01*
X100875029Y-105936109D01*
X100919309Y-105869839D01*
X100936632Y-105843914D01*
X101012051Y-105661835D01*
X101038740Y-105527664D01*
X101050500Y-105468543D01*
X101050500Y-105271456D01*
X101012052Y-105078170D01*
X101012051Y-105078169D01*
X101012051Y-105078165D01*
X100983936Y-105010289D01*
X100936635Y-104896092D01*
X100936633Y-104896088D01*
X100936632Y-104896086D01*
X100903127Y-104845943D01*
X100875029Y-104803891D01*
X100869423Y-104785987D01*
X100859242Y-104770232D01*
X100859199Y-104753337D01*
X100854151Y-104737214D01*
X100859113Y-104719122D01*
X100859067Y-104700363D01*
X100871692Y-104673268D01*
X100872635Y-104669834D01*
X100873648Y-104668222D01*
X100874331Y-104667153D01*
X100936632Y-104573914D01*
X100941620Y-104561871D01*
X100947510Y-104552656D01*
X100965933Y-104536611D01*
X100981263Y-104517585D01*
X100991814Y-104514071D01*
X101000200Y-104506769D01*
X101024372Y-104503231D01*
X101047555Y-104495513D01*
X101058330Y-104498262D01*
X101069333Y-104496652D01*
X101091583Y-104506746D01*
X101115256Y-104512786D01*
X101129802Y-104524084D01*
X101132961Y-104525518D01*
X101134285Y-104527567D01*
X101139674Y-104531753D01*
X101239707Y-104631786D01*
X101239711Y-104631789D01*
X101370814Y-104719390D01*
X101370827Y-104719397D01*
X101516498Y-104779735D01*
X101516503Y-104779737D01*
X101671153Y-104810499D01*
X101671156Y-104810500D01*
X101765500Y-104810500D01*
X101832539Y-104830185D01*
X101878294Y-104882989D01*
X101889500Y-104934500D01*
X101889500Y-108507890D01*
X101889500Y-108507892D01*
X101889499Y-108507892D01*
X101918340Y-108652879D01*
X101918343Y-108652889D01*
X101974913Y-108789462D01*
X101974914Y-108789463D01*
X101974916Y-108789467D01*
X101996598Y-108821916D01*
X102053439Y-108906987D01*
X102057051Y-108912392D01*
X102057052Y-108912393D01*
X103654926Y-110510265D01*
X103681806Y-110550492D01*
X103691606Y-110574150D01*
X103691609Y-110574157D01*
X103779210Y-110705260D01*
X103779213Y-110705264D01*
X103890707Y-110816758D01*
X103890711Y-110816761D01*
X104021814Y-110904362D01*
X104021827Y-110904369D01*
X104069014Y-110923914D01*
X104167503Y-110964709D01*
X104322153Y-110995471D01*
X104322156Y-110995472D01*
X104322158Y-110995472D01*
X104479844Y-110995472D01*
X104479845Y-110995471D01*
X104634497Y-110964709D01*
X104780179Y-110904366D01*
X104911289Y-110816761D01*
X104911292Y-110816758D01*
X105027097Y-110700954D01*
X105027957Y-110701814D01*
X105080384Y-110666086D01*
X105150228Y-110664200D01*
X105165967Y-110669515D01*
X105166503Y-110669737D01*
X105321153Y-110700499D01*
X105321156Y-110700500D01*
X105321158Y-110700500D01*
X105478844Y-110700500D01*
X105478845Y-110700499D01*
X105633497Y-110669737D01*
X105779179Y-110609394D01*
X105792777Y-110600308D01*
X105910875Y-110521398D01*
X105977553Y-110500520D01*
X105979766Y-110500500D01*
X106682152Y-110500500D01*
X106749191Y-110520185D01*
X106794946Y-110572989D01*
X106803769Y-110600308D01*
X106830261Y-110733491D01*
X106830264Y-110733501D01*
X106890602Y-110879172D01*
X106890609Y-110879185D01*
X106978210Y-111010288D01*
X106978213Y-111010292D01*
X107089707Y-111121786D01*
X107089711Y-111121789D01*
X107220814Y-111209390D01*
X107220827Y-111209397D01*
X107309411Y-111246089D01*
X107366503Y-111269737D01*
X107521153Y-111300499D01*
X107521156Y-111300500D01*
X107521158Y-111300500D01*
X107678843Y-111300500D01*
X107699722Y-111296346D01*
X107754441Y-111285462D01*
X107755236Y-111285533D01*
X107755951Y-111285171D01*
X107789985Y-111288642D01*
X107824032Y-111291689D01*
X107824663Y-111292179D01*
X107825460Y-111292261D01*
X107852212Y-111313579D01*
X107879210Y-111334551D01*
X107879683Y-111335470D01*
X107880102Y-111335804D01*
X107882499Y-111340935D01*
X107896072Y-111367278D01*
X107899499Y-111377389D01*
X107899499Y-111379057D01*
X107940423Y-111531785D01*
X107961906Y-111568994D01*
X108004311Y-111642442D01*
X108019479Y-111668714D01*
X108019481Y-111668717D01*
X108138349Y-111787585D01*
X108138355Y-111787590D01*
X108265139Y-111914374D01*
X108265149Y-111914385D01*
X108269479Y-111918715D01*
X108269480Y-111918716D01*
X108381284Y-112030520D01*
X108381286Y-112030521D01*
X108381290Y-112030524D01*
X108483618Y-112089602D01*
X108518216Y-112109577D01*
X108630019Y-112139534D01*
X108670942Y-112150500D01*
X108670943Y-112150500D01*
X108688285Y-112150500D01*
X108699963Y-112152761D01*
X108720863Y-112163558D01*
X108743432Y-112170185D01*
X108751325Y-112179294D01*
X108762039Y-112184829D01*
X108773785Y-112205214D01*
X108789187Y-112222989D01*
X108791470Y-112235906D01*
X108794437Y-112241056D01*
X108802705Y-112250000D01*
X109068185Y-112250000D01*
X109083527Y-112254505D01*
X109099509Y-112254022D01*
X109131306Y-112267268D01*
X109189602Y-112301744D01*
X109231224Y-112313836D01*
X109347426Y-112347597D01*
X109347429Y-112347597D01*
X109347431Y-112347598D01*
X109384306Y-112350500D01*
X109384314Y-112350500D01*
X109838500Y-112350500D01*
X109847185Y-112353050D01*
X109856147Y-112351762D01*
X109880187Y-112362740D01*
X109905539Y-112370185D01*
X109911466Y-112377025D01*
X109919703Y-112380787D01*
X109933992Y-112403021D01*
X109951294Y-112422989D01*
X109953581Y-112433503D01*
X109957477Y-112439565D01*
X109962500Y-112474500D01*
X109962500Y-112525500D01*
X109942815Y-112592539D01*
X109890011Y-112638294D01*
X109838500Y-112649500D01*
X109384298Y-112649500D01*
X109347432Y-112652401D01*
X109347426Y-112652402D01*
X109202267Y-112694576D01*
X109167672Y-112699500D01*
X107176080Y-112699500D01*
X107031092Y-112728340D01*
X107031082Y-112728343D01*
X106894507Y-112784914D01*
X106809936Y-112841423D01*
X106809935Y-112841424D01*
X106771581Y-112867050D01*
X106484704Y-113153927D01*
X106444478Y-113180806D01*
X106420826Y-113190603D01*
X106420814Y-113190609D01*
X106289711Y-113278210D01*
X106289707Y-113278213D01*
X106178213Y-113389707D01*
X106178210Y-113389711D01*
X106090609Y-113520814D01*
X106090602Y-113520827D01*
X106030264Y-113666498D01*
X106030261Y-113666510D01*
X105999500Y-113821153D01*
X105999500Y-113978846D01*
X106030261Y-114133489D01*
X106030264Y-114133501D01*
X106090602Y-114279172D01*
X106090609Y-114279185D01*
X106178210Y-114410288D01*
X106178213Y-114410292D01*
X106289707Y-114521786D01*
X106289711Y-114521789D01*
X106420814Y-114609390D01*
X106420827Y-114609397D01*
X106496181Y-114640609D01*
X106566503Y-114669737D01*
X106698535Y-114696000D01*
X106721153Y-114700499D01*
X106721156Y-114700500D01*
X106721158Y-114700500D01*
X106878844Y-114700500D01*
X106878845Y-114700499D01*
X107033497Y-114669737D01*
X107179179Y-114609394D01*
X107310289Y-114521789D01*
X107421789Y-114410289D01*
X107509394Y-114279179D01*
X107510275Y-114277051D01*
X107511035Y-114276108D01*
X107512267Y-114273804D01*
X107512703Y-114274037D01*
X107554113Y-114222647D01*
X107620406Y-114200579D01*
X107624838Y-114200500D01*
X109167672Y-114200500D01*
X109202267Y-114205424D01*
X109347426Y-114247597D01*
X109347429Y-114247597D01*
X109347431Y-114247598D01*
X109384306Y-114250500D01*
X109384314Y-114250500D01*
X110540686Y-114250500D01*
X110540694Y-114250500D01*
X110577569Y-114247598D01*
X110577571Y-114247597D01*
X110577573Y-114247597D01*
X110628724Y-114232736D01*
X110735398Y-114201744D01*
X110876865Y-114118081D01*
X110993081Y-114001865D01*
X110993267Y-114001549D01*
X110993477Y-114001353D01*
X110997861Y-113995702D01*
X110998772Y-113996409D01*
X111044336Y-113953866D01*
X111113077Y-113941362D01*
X111177667Y-113968006D01*
X111201855Y-113995921D01*
X111202139Y-113995702D01*
X111206179Y-114000911D01*
X111206732Y-114001548D01*
X111206919Y-114001865D01*
X111206921Y-114001867D01*
X111206923Y-114001870D01*
X111323129Y-114118076D01*
X111323133Y-114118079D01*
X111323135Y-114118081D01*
X111464602Y-114201744D01*
X111477269Y-114205424D01*
X111622426Y-114247597D01*
X111622429Y-114247597D01*
X111622431Y-114247598D01*
X111659306Y-114250500D01*
X111659314Y-114250500D01*
X111980191Y-114250500D01*
X112000818Y-114256556D01*
X112022279Y-114257861D01*
X112033678Y-114266205D01*
X112047230Y-114270185D01*
X112061306Y-114286430D01*
X112078658Y-114299132D01*
X112083736Y-114312315D01*
X112092985Y-114322989D01*
X112096044Y-114344268D01*
X112103773Y-114364331D01*
X112100918Y-114378164D01*
X112102929Y-114392147D01*
X112093997Y-114411703D01*
X112089653Y-114432759D01*
X112075894Y-114451343D01*
X112073904Y-114455703D01*
X112068805Y-114461238D01*
X112068296Y-114461757D01*
X111981919Y-114548135D01*
X111979127Y-114552854D01*
X111969943Y-114562238D01*
X111945439Y-114575960D01*
X111922667Y-114592407D01*
X111913157Y-114594038D01*
X111908982Y-114596377D01*
X111902001Y-114595952D01*
X111881329Y-114599500D01*
X109804604Y-114599500D01*
X109757155Y-114590062D01*
X109733497Y-114580263D01*
X109733493Y-114580262D01*
X109733488Y-114580260D01*
X109578845Y-114549500D01*
X109578842Y-114549500D01*
X109421158Y-114549500D01*
X109421155Y-114549500D01*
X109266510Y-114580261D01*
X109266498Y-114580264D01*
X109120827Y-114640602D01*
X109120814Y-114640609D01*
X108989711Y-114728210D01*
X108989707Y-114728213D01*
X108878210Y-114839710D01*
X108808266Y-114944391D01*
X108754654Y-114989196D01*
X108705164Y-114999500D01*
X107076080Y-114999500D01*
X106931092Y-115028340D01*
X106931082Y-115028343D01*
X106794511Y-115084912D01*
X106794499Y-115084919D01*
X106749608Y-115114915D01*
X106749606Y-115114916D01*
X106671589Y-115167043D01*
X106671584Y-115167047D01*
X106067048Y-115771583D01*
X106047742Y-115800477D01*
X106028565Y-115829180D01*
X106028564Y-115829181D01*
X105984919Y-115894499D01*
X105984912Y-115894511D01*
X105928343Y-116031082D01*
X105928340Y-116031092D01*
X105899500Y-116176079D01*
X105899500Y-116176082D01*
X105899500Y-117723918D01*
X105899500Y-117723920D01*
X105899499Y-117723920D01*
X105928340Y-117868907D01*
X105928343Y-117868917D01*
X105984914Y-118005492D01*
X105984915Y-118005494D01*
X105984916Y-118005495D01*
X105997834Y-118024829D01*
X106002347Y-118031582D01*
X106002348Y-118031585D01*
X106067046Y-118128414D01*
X106067052Y-118128421D01*
X106987268Y-119048636D01*
X107020753Y-119109959D01*
X107015769Y-119179650D01*
X106992718Y-119215522D01*
X106993645Y-119216241D01*
X106988861Y-119222407D01*
X106907131Y-119360606D01*
X106907129Y-119360611D01*
X106862335Y-119514791D01*
X106862334Y-119514797D01*
X106859500Y-119550811D01*
X106859500Y-120049169D01*
X106859501Y-120049191D01*
X106860486Y-120061706D01*
X106862335Y-120085204D01*
X106870263Y-120112493D01*
X106874576Y-120127336D01*
X106879500Y-120161932D01*
X106879500Y-120758126D01*
X106877117Y-120782318D01*
X106849500Y-120921155D01*
X106849500Y-121078846D01*
X106880261Y-121233489D01*
X106880263Y-121233497D01*
X106890061Y-121257151D01*
X106899500Y-121304604D01*
X106899500Y-121673918D01*
X106899500Y-121673920D01*
X106899499Y-121673920D01*
X106928340Y-121818907D01*
X106928343Y-121818917D01*
X106984914Y-121955491D01*
X106984916Y-121955495D01*
X107002370Y-121981617D01*
X107010981Y-121994505D01*
X107067049Y-122078418D01*
X107067052Y-122078421D01*
X107274074Y-122285442D01*
X107307559Y-122346765D01*
X107302575Y-122416456D01*
X107264153Y-122469712D01*
X107191727Y-122528019D01*
X107165361Y-122538925D01*
X107140321Y-122552597D01*
X107133491Y-122552108D01*
X107127163Y-122554726D01*
X107099085Y-122549646D01*
X107070630Y-122547610D01*
X107066514Y-122545991D01*
X106951687Y-122498428D01*
X106951683Y-122498427D01*
X106910000Y-122490135D01*
X106910000Y-123185000D01*
X107655500Y-123185000D01*
X107722539Y-123204685D01*
X107768294Y-123257489D01*
X107779500Y-123309000D01*
X107779500Y-123925701D01*
X107782401Y-123962567D01*
X107804635Y-124039096D01*
X107804435Y-124108965D01*
X107773241Y-124161370D01*
X107741683Y-124192929D01*
X107680360Y-124226415D01*
X107610668Y-124221431D01*
X107554734Y-124179561D01*
X107530316Y-124114097D01*
X107530000Y-124105249D01*
X107530000Y-123685000D01*
X106960000Y-123685000D01*
X106960000Y-123420504D01*
X106939556Y-123344204D01*
X106900060Y-123275795D01*
X106844205Y-123219940D01*
X106775796Y-123180444D01*
X106699496Y-123160000D01*
X106620504Y-123160000D01*
X106544204Y-123180444D01*
X106475795Y-123219940D01*
X106419940Y-123275795D01*
X106410000Y-123293011D01*
X106410000Y-122490136D01*
X106409999Y-122490135D01*
X106368316Y-122498427D01*
X106368308Y-122498429D01*
X106186328Y-122573807D01*
X106186315Y-122573814D01*
X106022537Y-122683248D01*
X106022533Y-122683251D01*
X105883251Y-122822533D01*
X105883248Y-122822537D01*
X105773814Y-122986315D01*
X105773807Y-122986328D01*
X105698430Y-123168306D01*
X105698427Y-123168318D01*
X105660000Y-123361504D01*
X105660000Y-123760000D01*
X106360000Y-123760000D01*
X106360000Y-124260000D01*
X105660000Y-124260000D01*
X105660000Y-124658495D01*
X105698427Y-124851681D01*
X105698430Y-124851693D01*
X105773807Y-125033671D01*
X105773814Y-125033684D01*
X105883248Y-125197462D01*
X105883251Y-125197466D01*
X106022533Y-125336748D01*
X106022537Y-125336751D01*
X106186315Y-125446185D01*
X106186328Y-125446192D01*
X106368308Y-125521569D01*
X106410000Y-125529862D01*
X106410000Y-124726988D01*
X106419940Y-124744205D01*
X106475795Y-124800060D01*
X106544204Y-124839556D01*
X106620504Y-124860000D01*
X106699496Y-124860000D01*
X106775796Y-124839556D01*
X106844205Y-124800060D01*
X106900060Y-124744205D01*
X106910000Y-124726988D01*
X106910000Y-125529862D01*
X106951690Y-125521569D01*
X106951692Y-125521569D01*
X107133671Y-125446192D01*
X107133684Y-125446185D01*
X107297462Y-125336751D01*
X107297466Y-125336748D01*
X107436748Y-125197466D01*
X107436751Y-125197462D01*
X107546185Y-125033684D01*
X107546187Y-125033680D01*
X107592942Y-124920802D01*
X107636783Y-124866399D01*
X107703077Y-124844333D01*
X107770776Y-124861612D01*
X107795185Y-124880573D01*
X107801106Y-124886494D01*
X107908394Y-124948436D01*
X108028057Y-124980500D01*
X108028060Y-124980500D01*
X108151940Y-124980500D01*
X108151943Y-124980500D01*
X108271606Y-124948436D01*
X108378894Y-124886494D01*
X108466494Y-124798894D01*
X108528436Y-124691606D01*
X108552337Y-124602404D01*
X108588703Y-124542746D01*
X108651550Y-124512217D01*
X108672112Y-124510500D01*
X108795686Y-124510500D01*
X108795694Y-124510500D01*
X108832569Y-124507598D01*
X108908862Y-124485432D01*
X108978728Y-124485631D01*
X108990898Y-124489943D01*
X109004764Y-124495687D01*
X109117280Y-124510500D01*
X109117287Y-124510500D01*
X109275500Y-124510500D01*
X109342539Y-124530185D01*
X109388294Y-124582989D01*
X109399500Y-124634500D01*
X109399500Y-124778846D01*
X109430261Y-124933489D01*
X109430264Y-124933501D01*
X109490602Y-125079172D01*
X109490609Y-125079185D01*
X109578210Y-125210288D01*
X109578213Y-125210292D01*
X109689707Y-125321786D01*
X109689711Y-125321789D01*
X109820814Y-125409390D01*
X109820827Y-125409397D01*
X109966498Y-125469735D01*
X109966503Y-125469737D01*
X110121153Y-125500499D01*
X110121156Y-125500500D01*
X110121158Y-125500500D01*
X110278844Y-125500500D01*
X110278845Y-125500499D01*
X110433497Y-125469737D01*
X110493392Y-125444926D01*
X110562861Y-125437457D01*
X110609740Y-125456387D01*
X110619047Y-125462606D01*
X110619058Y-125462612D01*
X110761395Y-125521569D01*
X110764734Y-125522952D01*
X110919384Y-125553714D01*
X110919387Y-125553715D01*
X110919389Y-125553715D01*
X111077075Y-125553715D01*
X111077076Y-125553714D01*
X111231728Y-125522952D01*
X111377410Y-125462609D01*
X111508520Y-125375004D01*
X111620020Y-125263504D01*
X111707625Y-125132394D01*
X111767968Y-124986712D01*
X111789081Y-124880573D01*
X111793312Y-124859301D01*
X111802076Y-124842546D01*
X111806096Y-124824066D01*
X111824842Y-124799023D01*
X111825697Y-124797390D01*
X111827247Y-124795811D01*
X111831535Y-124791522D01*
X111831540Y-124791520D01*
X111943344Y-124679716D01*
X111943345Y-124679713D01*
X112076241Y-124546816D01*
X112137562Y-124513334D01*
X112163920Y-124510500D01*
X112342713Y-124510500D01*
X112342720Y-124510500D01*
X112455236Y-124495687D01*
X112455236Y-124495686D01*
X112463295Y-124494626D01*
X112463698Y-124497689D01*
X112496302Y-124497689D01*
X112496705Y-124494626D01*
X112504763Y-124495686D01*
X112504764Y-124495687D01*
X112617280Y-124510500D01*
X112617287Y-124510500D01*
X112842713Y-124510500D01*
X112842720Y-124510500D01*
X112955236Y-124495687D01*
X112969086Y-124489949D01*
X113038553Y-124482477D01*
X113051120Y-124485427D01*
X113127431Y-124507598D01*
X113164306Y-124510500D01*
X113287888Y-124510500D01*
X113354927Y-124530185D01*
X113400682Y-124582989D01*
X113407661Y-124602402D01*
X113431564Y-124691606D01*
X113493506Y-124798894D01*
X113581106Y-124886494D01*
X113688394Y-124948436D01*
X113808057Y-124980500D01*
X113808060Y-124980500D01*
X113931940Y-124980500D01*
X113931943Y-124980500D01*
X114051606Y-124948436D01*
X114158894Y-124886494D01*
X114164812Y-124880575D01*
X114226132Y-124847089D01*
X114295824Y-124852070D01*
X114351759Y-124893939D01*
X114367056Y-124920802D01*
X114413807Y-125033671D01*
X114413814Y-125033684D01*
X114523248Y-125197462D01*
X114523251Y-125197466D01*
X114662533Y-125336748D01*
X114662537Y-125336751D01*
X114826315Y-125446185D01*
X114826328Y-125446192D01*
X115008308Y-125521569D01*
X115050000Y-125529862D01*
X115050000Y-124726988D01*
X115059940Y-124744205D01*
X115115795Y-124800060D01*
X115184204Y-124839556D01*
X115260504Y-124860000D01*
X115339496Y-124860000D01*
X115415796Y-124839556D01*
X115484205Y-124800060D01*
X115540060Y-124744205D01*
X115550000Y-124726988D01*
X115550000Y-125529862D01*
X115591690Y-125521569D01*
X115591692Y-125521569D01*
X115773671Y-125446192D01*
X115773684Y-125446185D01*
X115937462Y-125336751D01*
X115937466Y-125336748D01*
X116076748Y-125197466D01*
X116076751Y-125197462D01*
X116186185Y-125033684D01*
X116186192Y-125033671D01*
X116261569Y-124851693D01*
X116261572Y-124851681D01*
X116299999Y-124658495D01*
X116300000Y-124658492D01*
X116300000Y-124260000D01*
X115600000Y-124260000D01*
X115600000Y-123760000D01*
X116300000Y-123760000D01*
X116300000Y-123361508D01*
X116299999Y-123361504D01*
X116261572Y-123168318D01*
X116261569Y-123168306D01*
X116186192Y-122986328D01*
X116186185Y-122986315D01*
X116076751Y-122822537D01*
X116076748Y-122822533D01*
X115937466Y-122683251D01*
X115937462Y-122683248D01*
X115773684Y-122573814D01*
X115773671Y-122573807D01*
X115591691Y-122498429D01*
X115591683Y-122498427D01*
X115550000Y-122490135D01*
X115550000Y-123293011D01*
X115540060Y-123275795D01*
X115484205Y-123219940D01*
X115415796Y-123180444D01*
X115339496Y-123160000D01*
X115260504Y-123160000D01*
X115184204Y-123180444D01*
X115115795Y-123219940D01*
X115059940Y-123275795D01*
X115050000Y-123293011D01*
X115050000Y-122490136D01*
X115049999Y-122490135D01*
X115008316Y-122498427D01*
X115008308Y-122498429D01*
X114893483Y-122545991D01*
X114824013Y-122553460D01*
X114761534Y-122522184D01*
X114758348Y-122519110D01*
X114731556Y-122492317D01*
X114731552Y-122492314D01*
X114590196Y-122408717D01*
X114590193Y-122408716D01*
X114489442Y-122379445D01*
X114476588Y-122371236D01*
X114461777Y-122367605D01*
X114447742Y-122352814D01*
X114430556Y-122341839D01*
X114423445Y-122327208D01*
X114413684Y-122316922D01*
X114406401Y-122292143D01*
X114402221Y-122283541D01*
X114400500Y-122274493D01*
X114400500Y-122271158D01*
X114385982Y-122198175D01*
X114385887Y-122197672D01*
X114389248Y-122163345D01*
X114392313Y-122129100D01*
X114392644Y-122128673D01*
X114392697Y-122128135D01*
X114414061Y-122101102D01*
X114435176Y-122073922D01*
X114435685Y-122073742D01*
X114436021Y-122073318D01*
X114468587Y-122062135D01*
X114501066Y-122050678D01*
X114502029Y-122050652D01*
X114502103Y-122050627D01*
X114502188Y-122050647D01*
X114507703Y-122050500D01*
X115615686Y-122050500D01*
X115615694Y-122050500D01*
X115652569Y-122047598D01*
X115652571Y-122047597D01*
X115652573Y-122047597D01*
X115701132Y-122033489D01*
X115810398Y-122001744D01*
X115951865Y-121918081D01*
X116068081Y-121801865D01*
X116151744Y-121660398D01*
X116197598Y-121502569D01*
X116200500Y-121465694D01*
X116200500Y-121224500D01*
X116220185Y-121157461D01*
X116272989Y-121111706D01*
X116324500Y-121100500D01*
X116754866Y-121100500D01*
X116821905Y-121120185D01*
X116867660Y-121172989D01*
X116877604Y-121242147D01*
X116869427Y-121271950D01*
X116866434Y-121279179D01*
X116830263Y-121366502D01*
X116830261Y-121366510D01*
X116799500Y-121521153D01*
X116799500Y-121678846D01*
X116830261Y-121833489D01*
X116830263Y-121833497D01*
X116840061Y-121857151D01*
X116841687Y-121865328D01*
X116844477Y-121869669D01*
X116849500Y-121904604D01*
X116849500Y-122108480D01*
X116829815Y-122175519D01*
X116813181Y-122196161D01*
X116769531Y-122239810D01*
X116769530Y-122239811D01*
X116681522Y-122385393D01*
X116630913Y-122547807D01*
X116624500Y-122618386D01*
X116624500Y-123131613D01*
X116630913Y-123202192D01*
X116630913Y-123202194D01*
X116630914Y-123202196D01*
X116648144Y-123257489D01*
X116681522Y-123364606D01*
X116769530Y-123510188D01*
X116871661Y-123612319D01*
X116905146Y-123673642D01*
X116900162Y-123743334D01*
X116871661Y-123787681D01*
X116769531Y-123889810D01*
X116769530Y-123889811D01*
X116681522Y-124035393D01*
X116630913Y-124197807D01*
X116628345Y-124226071D01*
X116624500Y-124268384D01*
X116624500Y-124781616D01*
X116626070Y-124798892D01*
X116630913Y-124852192D01*
X116630913Y-124852194D01*
X116630914Y-124852196D01*
X116681522Y-125014606D01*
X116759759Y-125144026D01*
X116769530Y-125160188D01*
X116889811Y-125280469D01*
X116889813Y-125280470D01*
X116889815Y-125280472D01*
X117035394Y-125368478D01*
X117197804Y-125419086D01*
X117268384Y-125425500D01*
X117268387Y-125425500D01*
X117931613Y-125425500D01*
X117931616Y-125425500D01*
X118002196Y-125419086D01*
X118164606Y-125368478D01*
X118310185Y-125280472D01*
X118430472Y-125160185D01*
X118518478Y-125014606D01*
X118542470Y-124937608D01*
X118581208Y-124879462D01*
X118645233Y-124851488D01*
X118660856Y-124850500D01*
X118773918Y-124850500D01*
X119256600Y-124850500D01*
X119323639Y-124870185D01*
X119362136Y-124909400D01*
X119430972Y-125020999D01*
X119430975Y-125021004D01*
X119553996Y-125144025D01*
X119554000Y-125144028D01*
X119702066Y-125235357D01*
X119702069Y-125235358D01*
X119702075Y-125235362D01*
X119867225Y-125290087D01*
X119969152Y-125300500D01*
X119969157Y-125300500D01*
X120555843Y-125300500D01*
X120555848Y-125300500D01*
X120657775Y-125290087D01*
X120822925Y-125235362D01*
X120971003Y-125144026D01*
X121094026Y-125021003D01*
X121094458Y-125020301D01*
X121094881Y-125019921D01*
X121098507Y-125015336D01*
X121099290Y-125015955D01*
X121146402Y-124973575D01*
X121215364Y-124962349D01*
X121279448Y-124990188D01*
X121301342Y-125015455D01*
X121301493Y-125015336D01*
X121304143Y-125018687D01*
X121305540Y-125020299D01*
X121305972Y-125020999D01*
X121305975Y-125021004D01*
X121428996Y-125144025D01*
X121429000Y-125144028D01*
X121577066Y-125235357D01*
X121577069Y-125235358D01*
X121577075Y-125235362D01*
X121742225Y-125290087D01*
X121844152Y-125300500D01*
X121844157Y-125300500D01*
X122430843Y-125300500D01*
X122430848Y-125300500D01*
X122532775Y-125290087D01*
X122697925Y-125235362D01*
X122846003Y-125144026D01*
X122969026Y-125021003D01*
X123060362Y-124872925D01*
X123089333Y-124785496D01*
X123103203Y-124765463D01*
X123113326Y-124743297D01*
X123122738Y-124737248D01*
X123129106Y-124728051D01*
X123151604Y-124718697D01*
X123172104Y-124705523D01*
X123189205Y-124703064D01*
X123193622Y-124701228D01*
X123207039Y-124700500D01*
X123220234Y-124700500D01*
X123287273Y-124720185D01*
X123289125Y-124721398D01*
X123420814Y-124809390D01*
X123420827Y-124809397D01*
X123546887Y-124861612D01*
X123566503Y-124869737D01*
X123650736Y-124886492D01*
X123721153Y-124900499D01*
X123721156Y-124900500D01*
X123721158Y-124900500D01*
X123878844Y-124900500D01*
X123878845Y-124900499D01*
X124033497Y-124869737D01*
X124179179Y-124809394D01*
X124310289Y-124721789D01*
X124421789Y-124610289D01*
X124509394Y-124479179D01*
X124569737Y-124333497D01*
X124600500Y-124178842D01*
X124600500Y-124021158D01*
X124600500Y-124021155D01*
X124600499Y-124021153D01*
X124588335Y-123960000D01*
X124569737Y-123866503D01*
X124529569Y-123769528D01*
X124509397Y-123720827D01*
X124509390Y-123720814D01*
X124421789Y-123589711D01*
X124421786Y-123589707D01*
X124310292Y-123478213D01*
X124310288Y-123478210D01*
X124179185Y-123390609D01*
X124179172Y-123390602D01*
X124033501Y-123330264D01*
X124033489Y-123330261D01*
X123878845Y-123299500D01*
X123878842Y-123299500D01*
X123721158Y-123299500D01*
X123721155Y-123299500D01*
X123566510Y-123330261D01*
X123566498Y-123330264D01*
X123420827Y-123390602D01*
X123420814Y-123390609D01*
X123289125Y-123478602D01*
X123271078Y-123484252D01*
X123255169Y-123494477D01*
X123224207Y-123498928D01*
X123222447Y-123499480D01*
X123220234Y-123499500D01*
X123207039Y-123499500D01*
X123140000Y-123479815D01*
X123094245Y-123427011D01*
X123089333Y-123414504D01*
X123081413Y-123390602D01*
X123060362Y-123327075D01*
X123060358Y-123327069D01*
X123060357Y-123327066D01*
X122969028Y-123179000D01*
X122969025Y-123178996D01*
X122846004Y-123055975D01*
X122846003Y-123055974D01*
X122845301Y-123055541D01*
X122844921Y-123055118D01*
X122840336Y-123051493D01*
X122840955Y-123050709D01*
X122798575Y-123003598D01*
X122787349Y-122934636D01*
X122815188Y-122870552D01*
X122840455Y-122848657D01*
X122840336Y-122848507D01*
X122843687Y-122845856D01*
X122845299Y-122844459D01*
X122846003Y-122844026D01*
X122969026Y-122721003D01*
X123060362Y-122572925D01*
X123073597Y-122532981D01*
X123113369Y-122475538D01*
X123177885Y-122448714D01*
X123246661Y-122461029D01*
X123260184Y-122468877D01*
X123320821Y-122509394D01*
X123320823Y-122509395D01*
X123320827Y-122509397D01*
X123430263Y-122554726D01*
X123466503Y-122569737D01*
X123621153Y-122600499D01*
X123621156Y-122600500D01*
X123621158Y-122600500D01*
X123778844Y-122600500D01*
X123778845Y-122600499D01*
X123933497Y-122569737D01*
X124079179Y-122509394D01*
X124210289Y-122421789D01*
X124321789Y-122310289D01*
X124409394Y-122179179D01*
X124469737Y-122033497D01*
X124500500Y-121878842D01*
X124500500Y-121721158D01*
X124500500Y-121721155D01*
X124500499Y-121721153D01*
X124493327Y-121685096D01*
X124469737Y-121566503D01*
X124464842Y-121554685D01*
X124409397Y-121420827D01*
X124409390Y-121420814D01*
X124321789Y-121289711D01*
X124321786Y-121289707D01*
X124210292Y-121178213D01*
X124210288Y-121178210D01*
X124079185Y-121090609D01*
X124079172Y-121090602D01*
X123933501Y-121030264D01*
X123933489Y-121030261D01*
X123778845Y-120999500D01*
X123778842Y-120999500D01*
X123621158Y-120999500D01*
X123621155Y-120999500D01*
X123466510Y-121030261D01*
X123466498Y-121030264D01*
X123320827Y-121090602D01*
X123320814Y-121090609D01*
X123260194Y-121131115D01*
X123193516Y-121151993D01*
X123126136Y-121133508D01*
X123079446Y-121081530D01*
X123073597Y-121067017D01*
X123060362Y-121027075D01*
X123060358Y-121027069D01*
X123060357Y-121027066D01*
X122981693Y-120899534D01*
X122969026Y-120878997D01*
X122969023Y-120878994D01*
X122966982Y-120876412D01*
X122966130Y-120874302D01*
X122965235Y-120872850D01*
X122965483Y-120872696D01*
X122940840Y-120811618D01*
X122953878Y-120742975D01*
X123001958Y-120692279D01*
X123064243Y-120675499D01*
X123625008Y-120675499D01*
X123625016Y-120675498D01*
X123625019Y-120675498D01*
X123696265Y-120668220D01*
X123727797Y-120664999D01*
X123894334Y-120609814D01*
X124043656Y-120517712D01*
X124167712Y-120393656D01*
X124259814Y-120244334D01*
X124314999Y-120077797D01*
X124325500Y-119975009D01*
X124325499Y-118624992D01*
X124314999Y-118522203D01*
X124259814Y-118355666D01*
X124167712Y-118206344D01*
X124043656Y-118082288D01*
X124043653Y-118082285D01*
X124009401Y-118061158D01*
X123962678Y-118009210D01*
X123950500Y-117955621D01*
X123950500Y-116376080D01*
X123947467Y-116360839D01*
X123940555Y-116326086D01*
X123921659Y-116231088D01*
X123882243Y-116135931D01*
X123865084Y-116094505D01*
X123822710Y-116031087D01*
X123822710Y-116031086D01*
X123782950Y-115971581D01*
X123136818Y-115325449D01*
X123103333Y-115264126D01*
X123100499Y-115237768D01*
X123100499Y-114199998D01*
X123100498Y-114199981D01*
X123089999Y-114097203D01*
X123089998Y-114097200D01*
X123034814Y-113930666D01*
X122942712Y-113781344D01*
X122818656Y-113657288D01*
X122669334Y-113565186D01*
X122669332Y-113565185D01*
X122663440Y-113561551D01*
X122616716Y-113509603D01*
X122605493Y-113440641D01*
X122633337Y-113376558D01*
X122640856Y-113368330D01*
X122779728Y-113229458D01*
X122904620Y-113057557D01*
X123001095Y-112868217D01*
X123066757Y-112666129D01*
X123066757Y-112666126D01*
X123077231Y-112600000D01*
X122033012Y-112600000D01*
X122065925Y-112542993D01*
X122100000Y-112415826D01*
X122100000Y-112284174D01*
X122065925Y-112157007D01*
X122033012Y-112100000D01*
X123077231Y-112100000D01*
X123066757Y-112033873D01*
X123066757Y-112033870D01*
X123001095Y-111831782D01*
X122904620Y-111642442D01*
X122779727Y-111470540D01*
X122779723Y-111470535D01*
X122629464Y-111320276D01*
X122629459Y-111320272D01*
X122457557Y-111195379D01*
X122268217Y-111098904D01*
X122066129Y-111033242D01*
X121856246Y-111000000D01*
X121850000Y-111000000D01*
X121850000Y-111916988D01*
X121792993Y-111884075D01*
X121665826Y-111850000D01*
X121534174Y-111850000D01*
X121407007Y-111884075D01*
X121350000Y-111916988D01*
X121350000Y-111000000D01*
X121343754Y-111000000D01*
X121133872Y-111033242D01*
X121133869Y-111033242D01*
X120931782Y-111098904D01*
X120742442Y-111195379D01*
X120570540Y-111320272D01*
X120570535Y-111320276D01*
X120420276Y-111470535D01*
X120420272Y-111470540D01*
X120295379Y-111642442D01*
X120198904Y-111831782D01*
X120133242Y-112033870D01*
X120133242Y-112033873D01*
X120122769Y-112100000D01*
X121166988Y-112100000D01*
X121134075Y-112157007D01*
X121100000Y-112284174D01*
X121100000Y-112415826D01*
X121134075Y-112542993D01*
X121166988Y-112600000D01*
X120122769Y-112600000D01*
X120133242Y-112666126D01*
X120133242Y-112666129D01*
X120198904Y-112868217D01*
X120295379Y-113057557D01*
X120420272Y-113229459D01*
X120420276Y-113229464D01*
X120559143Y-113368331D01*
X120592628Y-113429654D01*
X120587644Y-113499346D01*
X120545772Y-113555279D01*
X120536559Y-113561551D01*
X120381342Y-113657289D01*
X120257289Y-113781342D01*
X120165187Y-113930663D01*
X120165185Y-113930668D01*
X120144757Y-113992316D01*
X120110001Y-114097203D01*
X120110001Y-114097204D01*
X120110000Y-114097204D01*
X120099500Y-114199983D01*
X120099500Y-115500001D01*
X120099501Y-115500018D01*
X120110000Y-115602796D01*
X120110001Y-115602799D01*
X120118532Y-115628543D01*
X120165186Y-115769334D01*
X120257288Y-115918656D01*
X120381344Y-116042712D01*
X120530666Y-116134814D01*
X120697203Y-116189999D01*
X120799991Y-116200500D01*
X121837769Y-116200499D01*
X121904808Y-116220183D01*
X121925450Y-116236818D01*
X122413181Y-116724549D01*
X122446666Y-116785872D01*
X122449500Y-116812230D01*
X122449500Y-117955621D01*
X122429815Y-118022660D01*
X122390599Y-118061158D01*
X122356346Y-118082285D01*
X122232289Y-118206342D01*
X122140187Y-118355663D01*
X122140185Y-118355668D01*
X122126331Y-118397478D01*
X122085001Y-118522203D01*
X122085001Y-118522204D01*
X122085000Y-118522204D01*
X122074500Y-118624983D01*
X122074500Y-119975001D01*
X122074501Y-119975018D01*
X122085000Y-120077796D01*
X122085001Y-120077799D01*
X122140185Y-120244331D01*
X122140187Y-120244336D01*
X122169671Y-120292137D01*
X122232288Y-120393656D01*
X122232289Y-120393657D01*
X122236188Y-120398587D01*
X122262329Y-120463382D01*
X122249290Y-120532025D01*
X122201211Y-120582721D01*
X122138923Y-120599500D01*
X121844144Y-120599500D01*
X121742223Y-120609913D01*
X121577077Y-120664637D01*
X121577066Y-120664642D01*
X121429000Y-120755971D01*
X121428996Y-120755974D01*
X121305974Y-120878996D01*
X121305971Y-120879000D01*
X121305538Y-120879703D01*
X121305114Y-120880083D01*
X121301493Y-120884664D01*
X121300710Y-120884045D01*
X121253590Y-120926428D01*
X121184628Y-120937649D01*
X121120546Y-120909806D01*
X121109649Y-120899534D01*
X121101052Y-120890388D01*
X121094026Y-120878997D01*
X121032698Y-120817669D01*
X121031399Y-120816287D01*
X121016442Y-120786759D01*
X121000584Y-120757717D01*
X121000725Y-120755731D01*
X120999827Y-120753957D01*
X121003206Y-120721044D01*
X121005568Y-120688025D01*
X121006760Y-120686431D01*
X121006964Y-120684453D01*
X121027608Y-120658582D01*
X121047440Y-120632092D01*
X121049683Y-120630920D01*
X121050545Y-120629841D01*
X121053963Y-120628685D01*
X121082741Y-120613655D01*
X121094334Y-120609814D01*
X121243656Y-120517712D01*
X121367712Y-120393656D01*
X121459814Y-120244334D01*
X121514999Y-120077797D01*
X121525500Y-119975009D01*
X121525499Y-118624992D01*
X121514999Y-118522203D01*
X121459814Y-118355666D01*
X121367712Y-118206344D01*
X121243656Y-118082288D01*
X121143481Y-118020500D01*
X121094336Y-117990187D01*
X121094331Y-117990185D01*
X121092862Y-117989698D01*
X120927797Y-117935001D01*
X120927795Y-117935000D01*
X120825010Y-117924500D01*
X119974998Y-117924500D01*
X119974980Y-117924501D01*
X119872203Y-117935000D01*
X119872200Y-117935001D01*
X119705668Y-117990185D01*
X119705659Y-117990189D01*
X119639096Y-118031246D01*
X119571704Y-118049686D01*
X119505040Y-118028763D01*
X119460271Y-117975121D01*
X119450000Y-117925707D01*
X119450000Y-117850000D01*
X118574000Y-117850000D01*
X118506961Y-117830315D01*
X118461206Y-117777511D01*
X118450000Y-117726000D01*
X118450000Y-117474000D01*
X118469685Y-117406961D01*
X118522489Y-117361206D01*
X118574000Y-117350000D01*
X119449999Y-117350000D01*
X119449999Y-117075028D01*
X119449998Y-117075013D01*
X119439505Y-116972302D01*
X119384358Y-116805880D01*
X119384356Y-116805875D01*
X119302591Y-116673314D01*
X119284151Y-116605922D01*
X119305073Y-116539258D01*
X119345006Y-116501486D01*
X119465687Y-116430117D01*
X119580117Y-116315687D01*
X119662494Y-116176395D01*
X119704709Y-116031092D01*
X119707642Y-116020997D01*
X119707643Y-116020991D01*
X119707769Y-116019387D01*
X119710500Y-115984690D01*
X119710500Y-115575310D01*
X119707643Y-115539007D01*
X119662494Y-115383605D01*
X119650089Y-115362630D01*
X119632906Y-115294909D01*
X119650091Y-115236384D01*
X119662032Y-115216194D01*
X119704504Y-115070000D01*
X119398352Y-115070000D01*
X119335233Y-115052732D01*
X119326395Y-115047506D01*
X119326393Y-115047505D01*
X119326389Y-115047503D01*
X119170997Y-115002357D01*
X119170991Y-115002356D01*
X119134697Y-114999500D01*
X119134690Y-114999500D01*
X119024000Y-114999500D01*
X118956961Y-114979815D01*
X118911206Y-114927011D01*
X118900000Y-114875500D01*
X118900000Y-114820000D01*
X118774000Y-114820000D01*
X118706961Y-114800315D01*
X118661206Y-114747511D01*
X118650000Y-114696000D01*
X118650000Y-114570000D01*
X119150000Y-114570000D01*
X119704504Y-114570000D01*
X119662031Y-114423804D01*
X119579721Y-114284625D01*
X119579714Y-114284616D01*
X119465383Y-114170285D01*
X119465374Y-114170278D01*
X119326195Y-114087968D01*
X119326190Y-114087966D01*
X119170918Y-114042855D01*
X119170912Y-114042854D01*
X119150000Y-114041209D01*
X119150000Y-114570000D01*
X118650000Y-114570000D01*
X118650000Y-114041210D01*
X118649999Y-114041209D01*
X118629087Y-114042854D01*
X118629081Y-114042855D01*
X118473809Y-114087966D01*
X118473806Y-114087967D01*
X118469335Y-114090612D01*
X118401611Y-114107793D01*
X118335348Y-114085633D01*
X118291586Y-114031167D01*
X118288509Y-114022883D01*
X118261547Y-113941518D01*
X118261542Y-113941507D01*
X118171489Y-113795510D01*
X118153048Y-113728118D01*
X118173970Y-113661454D01*
X118189347Y-113642731D01*
X118221786Y-113610292D01*
X118221789Y-113610289D01*
X118309394Y-113479179D01*
X118358452Y-113360740D01*
X118402290Y-113306342D01*
X118448815Y-113286581D01*
X118533497Y-113269737D01*
X118679179Y-113209394D01*
X118810289Y-113121789D01*
X118921789Y-113010289D01*
X119009394Y-112879179D01*
X119069737Y-112733497D01*
X119100500Y-112578842D01*
X119100500Y-112421158D01*
X119100500Y-112421155D01*
X119100499Y-112421153D01*
X119088880Y-112362740D01*
X119069737Y-112266503D01*
X119064567Y-112254022D01*
X119035778Y-112184516D01*
X119009395Y-112120824D01*
X119009394Y-112120821D01*
X119009392Y-112120818D01*
X119009390Y-112120814D01*
X118921789Y-111989711D01*
X118921786Y-111989707D01*
X118810292Y-111878213D01*
X118810288Y-111878210D01*
X118679185Y-111790609D01*
X118679172Y-111790602D01*
X118533501Y-111730264D01*
X118533491Y-111730261D01*
X118378151Y-111699362D01*
X118316241Y-111666977D01*
X118314662Y-111665426D01*
X116887590Y-110238355D01*
X116887588Y-110238352D01*
X116768717Y-110119481D01*
X116768709Y-110119475D01*
X116683185Y-110070098D01*
X116683178Y-110070094D01*
X116677180Y-110066632D01*
X116631785Y-110040423D01*
X116589074Y-110028978D01*
X116580527Y-110025244D01*
X116560612Y-110008554D01*
X116538419Y-109995026D01*
X116534263Y-109986471D01*
X116526977Y-109980365D01*
X116519246Y-109955555D01*
X116507891Y-109932179D01*
X116508978Y-109922603D01*
X116506191Y-109913659D01*
X116512653Y-109890227D01*
X116515613Y-109864164D01*
X116530573Y-109828047D01*
X116569737Y-109733497D01*
X116600500Y-109578842D01*
X116600500Y-109421158D01*
X116600500Y-109421155D01*
X116572132Y-109278543D01*
X116570968Y-109272691D01*
X116577195Y-109203100D01*
X116620058Y-109147923D01*
X116685947Y-109124678D01*
X116692585Y-109124500D01*
X118002568Y-109124500D01*
X118069607Y-109144185D01*
X118072442Y-109146248D01*
X118072461Y-109146220D01*
X118208629Y-109237205D01*
X118208642Y-109237212D01*
X118354313Y-109297550D01*
X118354318Y-109297552D01*
X118494273Y-109325391D01*
X118508968Y-109328314D01*
X118508971Y-109328315D01*
X118508973Y-109328315D01*
X118666659Y-109328315D01*
X118666660Y-109328314D01*
X118821312Y-109297552D01*
X118966994Y-109237209D01*
X119098104Y-109149604D01*
X119209604Y-109038104D01*
X119297209Y-108906994D01*
X119298040Y-108904989D01*
X119345890Y-108789467D01*
X119357552Y-108761312D01*
X119388315Y-108606657D01*
X119388315Y-108448973D01*
X119388315Y-108448970D01*
X119388314Y-108448968D01*
X119375328Y-108383684D01*
X119357552Y-108294318D01*
X119330500Y-108229007D01*
X119297212Y-108148642D01*
X119297205Y-108148629D01*
X119209604Y-108017526D01*
X119209601Y-108017522D01*
X119098107Y-107906028D01*
X119098103Y-107906025D01*
X118967000Y-107818424D01*
X118966987Y-107818417D01*
X118821316Y-107758079D01*
X118821304Y-107758076D01*
X118666660Y-107727315D01*
X118666657Y-107727315D01*
X118508973Y-107727315D01*
X118508970Y-107727315D01*
X118354325Y-107758076D01*
X118354313Y-107758079D01*
X118208642Y-107818417D01*
X118208629Y-107818424D01*
X118082650Y-107902602D01*
X118015973Y-107923480D01*
X118013759Y-107923500D01*
X116117788Y-107923500D01*
X116050749Y-107903815D01*
X116004994Y-107851011D01*
X115995050Y-107781853D01*
X116003227Y-107752048D01*
X116041974Y-107658501D01*
X116041976Y-107658497D01*
X116072739Y-107503842D01*
X116072739Y-107493907D01*
X116092424Y-107426868D01*
X116145228Y-107381113D01*
X116214386Y-107371169D01*
X116235744Y-107376201D01*
X116352394Y-107414856D01*
X116451683Y-107424999D01*
X116975000Y-107424999D01*
X116998308Y-107424999D01*
X116998322Y-107424998D01*
X117097607Y-107414855D01*
X117258481Y-107361547D01*
X117258492Y-107361542D01*
X117402728Y-107272575D01*
X117402732Y-107272572D01*
X117522572Y-107152732D01*
X117522575Y-107152728D01*
X117611542Y-107008492D01*
X117611547Y-107008481D01*
X117664855Y-106847606D01*
X117674999Y-106748322D01*
X117675000Y-106748309D01*
X117675000Y-106700000D01*
X116975000Y-106700000D01*
X116975000Y-107424999D01*
X116451683Y-107424999D01*
X116475000Y-107424998D01*
X116475000Y-106574000D01*
X116494685Y-106506961D01*
X116547489Y-106461206D01*
X116599000Y-106450000D01*
X116725000Y-106450000D01*
X116725000Y-106324000D01*
X116744685Y-106256961D01*
X116797489Y-106211206D01*
X116849000Y-106200000D01*
X117297272Y-106200000D01*
X117364311Y-106219685D01*
X117384954Y-106236320D01*
X117430580Y-106281947D01*
X117430583Y-106281950D01*
X117459520Y-106301285D01*
X117553499Y-106364080D01*
X117553512Y-106364087D01*
X117580359Y-106375207D01*
X117610052Y-106387506D01*
X117690089Y-106420659D01*
X117806242Y-106443763D01*
X117827510Y-106447993D01*
X117835082Y-106449500D01*
X117835083Y-106449500D01*
X117835084Y-106449500D01*
X117982919Y-106449500D01*
X119436770Y-106449500D01*
X119503809Y-106469185D01*
X119524451Y-106485819D01*
X120286007Y-107247375D01*
X120312886Y-107287601D01*
X120322686Y-107311259D01*
X120322687Y-107311261D01*
X120410287Y-107442364D01*
X120410293Y-107442372D01*
X120521787Y-107553866D01*
X120521791Y-107553869D01*
X120652894Y-107641470D01*
X120652898Y-107641472D01*
X120652901Y-107641474D01*
X120680010Y-107652702D01*
X120734413Y-107696542D01*
X120756480Y-107762835D01*
X120739202Y-107830535D01*
X120701454Y-107870364D01*
X120689708Y-107878212D01*
X120578213Y-107989707D01*
X120578210Y-107989711D01*
X120490609Y-108120814D01*
X120490602Y-108120827D01*
X120430264Y-108266498D01*
X120430261Y-108266510D01*
X120399500Y-108421153D01*
X120399500Y-108578846D01*
X120430261Y-108733489D01*
X120430264Y-108733501D01*
X120490602Y-108879172D01*
X120490609Y-108879185D01*
X120578210Y-109010288D01*
X120578213Y-109010292D01*
X120689707Y-109121786D01*
X120689711Y-109121789D01*
X120820814Y-109209390D01*
X120820827Y-109209397D01*
X120942819Y-109259927D01*
X120966503Y-109269737D01*
X121106338Y-109297552D01*
X121121153Y-109300499D01*
X121121156Y-109300500D01*
X121121158Y-109300500D01*
X121278844Y-109300500D01*
X121278845Y-109300499D01*
X121433497Y-109269737D01*
X121579179Y-109209394D01*
X121710289Y-109121789D01*
X121821789Y-109010289D01*
X121909394Y-108879179D01*
X121919191Y-108855524D01*
X121923823Y-108848591D01*
X121924921Y-108843548D01*
X121946069Y-108815297D01*
X122044338Y-108717028D01*
X122105659Y-108683545D01*
X122175351Y-108688529D01*
X122204899Y-108704390D01*
X122313567Y-108783343D01*
X122389267Y-108821914D01*
X122524003Y-108890566D01*
X122524005Y-108890566D01*
X122524008Y-108890568D01*
X122634604Y-108926503D01*
X122748631Y-108963553D01*
X122981903Y-109000500D01*
X122981908Y-109000500D01*
X123218097Y-109000500D01*
X123451368Y-108963553D01*
X123675992Y-108890568D01*
X123886433Y-108783343D01*
X124077510Y-108644517D01*
X124244517Y-108477510D01*
X124383343Y-108286433D01*
X124490568Y-108075992D01*
X124563553Y-107851368D01*
X124574563Y-107781853D01*
X124600500Y-107618097D01*
X124600500Y-107381902D01*
X124563553Y-107148631D01*
X124518085Y-107008697D01*
X124490568Y-106924008D01*
X124490566Y-106924005D01*
X124490566Y-106924003D01*
X124401063Y-106748345D01*
X124383343Y-106713567D01*
X124244517Y-106522490D01*
X124077510Y-106355483D01*
X123886433Y-106216657D01*
X123853742Y-106200000D01*
X123675996Y-106109433D01*
X123451368Y-106036446D01*
X123218097Y-105999500D01*
X123218092Y-105999500D01*
X122981908Y-105999500D01*
X122981903Y-105999500D01*
X122748631Y-106036446D01*
X122524003Y-106109433D01*
X122313566Y-106216657D01*
X122305267Y-106222687D01*
X122122490Y-106355483D01*
X122122488Y-106355485D01*
X122122487Y-106355485D01*
X121955485Y-106522487D01*
X121955480Y-106522493D01*
X121937989Y-106546567D01*
X121882658Y-106589231D01*
X121813044Y-106595209D01*
X121751250Y-106562601D01*
X121734571Y-106542570D01*
X121653869Y-106421790D01*
X121542372Y-106310293D01*
X121542364Y-106310287D01*
X121411261Y-106222687D01*
X121411259Y-106222686D01*
X121387601Y-106212886D01*
X121347375Y-106186007D01*
X120277421Y-105116052D01*
X120277414Y-105116046D01*
X120190005Y-105057642D01*
X120190004Y-105057642D01*
X120154500Y-105033919D01*
X120154488Y-105033912D01*
X120017917Y-104977343D01*
X120017907Y-104977340D01*
X119872920Y-104948500D01*
X119872918Y-104948500D01*
X118518386Y-104948500D01*
X118451347Y-104928815D01*
X118405592Y-104876011D01*
X118395648Y-104806853D01*
X118411654Y-104761379D01*
X118462031Y-104676195D01*
X118462033Y-104676190D01*
X118507144Y-104520918D01*
X118507145Y-104520912D01*
X118508790Y-104500000D01*
X117854000Y-104500000D01*
X117786961Y-104480315D01*
X117741206Y-104427511D01*
X117730000Y-104376000D01*
X117730000Y-104124000D01*
X117749685Y-104056961D01*
X117802489Y-104011206D01*
X117854000Y-104000000D01*
X118508790Y-104000000D01*
X118507145Y-103979089D01*
X118463568Y-103829093D01*
X118463768Y-103759224D01*
X118501711Y-103700554D01*
X118565349Y-103671711D01*
X118582640Y-103670499D01*
X118709180Y-103670499D01*
X118745204Y-103667665D01*
X118899393Y-103622869D01*
X119000844Y-103562870D01*
X119068564Y-103545689D01*
X119114732Y-103558172D01*
X119115192Y-103557063D01*
X119215449Y-103598590D01*
X119266503Y-103619737D01*
X119421153Y-103650499D01*
X119421156Y-103650500D01*
X119421158Y-103650500D01*
X119578844Y-103650500D01*
X119578845Y-103650499D01*
X119733497Y-103619737D01*
X119879179Y-103559394D01*
X120010289Y-103471789D01*
X120121789Y-103360289D01*
X120209394Y-103229179D01*
X120269737Y-103083497D01*
X120300500Y-102928842D01*
X120300500Y-102771158D01*
X120300500Y-102771155D01*
X120300499Y-102771153D01*
X120283427Y-102685326D01*
X120269737Y-102616503D01*
X120232206Y-102525894D01*
X120209397Y-102470827D01*
X120209395Y-102470823D01*
X120209394Y-102470821D01*
X120157991Y-102393891D01*
X120137113Y-102327214D01*
X120155597Y-102259834D01*
X120157991Y-102256109D01*
X120181974Y-102220216D01*
X120209394Y-102179179D01*
X120269737Y-102033497D01*
X120300500Y-101878842D01*
X120300500Y-101721158D01*
X120300500Y-101721155D01*
X120300499Y-101721153D01*
X120288045Y-101658543D01*
X120269737Y-101566503D01*
X120266258Y-101558103D01*
X120209397Y-101420827D01*
X120209390Y-101420814D01*
X120129018Y-101300529D01*
X120108140Y-101233851D01*
X120126625Y-101166471D01*
X120155646Y-101134028D01*
X120160178Y-101130475D01*
X120160185Y-101130472D01*
X120280472Y-101010185D01*
X120368478Y-100864606D01*
X120419086Y-100702196D01*
X120425500Y-100631616D01*
X120425500Y-100412874D01*
X120445185Y-100345835D01*
X120497989Y-100300080D01*
X120525309Y-100291257D01*
X120633497Y-100269737D01*
X120779179Y-100209394D01*
X120910289Y-100121789D01*
X121021789Y-100010289D01*
X121109394Y-99879179D01*
X121109407Y-99879149D01*
X121130187Y-99828980D01*
X121169737Y-99733497D01*
X121200500Y-99578842D01*
X121200500Y-99421158D01*
X121200500Y-99421155D01*
X121200499Y-99421153D01*
X121169737Y-99266503D01*
X121164162Y-99253044D01*
X121109397Y-99120827D01*
X121109390Y-99120814D01*
X121049695Y-99031475D01*
X121045861Y-99019232D01*
X121037886Y-99009183D01*
X121035620Y-98986525D01*
X121028817Y-98964798D01*
X121032047Y-98950799D01*
X121030934Y-98939660D01*
X121039414Y-98918883D01*
X121042329Y-98906256D01*
X121045639Y-98899763D01*
X121059394Y-98879179D01*
X121073494Y-98845136D01*
X121075710Y-98840791D01*
X121077207Y-98839205D01*
X121083066Y-98828244D01*
X121135013Y-98750500D01*
X121165084Y-98705495D01*
X121221658Y-98568913D01*
X121236650Y-98493545D01*
X121250500Y-98423920D01*
X121250500Y-96326081D01*
X121250499Y-96326080D01*
X121235267Y-96249500D01*
X121221659Y-96181088D01*
X121177610Y-96074745D01*
X121175720Y-96070183D01*
X121165085Y-96044507D01*
X121165083Y-96044504D01*
X121162073Y-96039999D01*
X121111940Y-95964969D01*
X121103494Y-95952328D01*
X121082957Y-95921590D01*
X121082952Y-95921584D01*
X120408421Y-95247052D01*
X120408414Y-95247046D01*
X120308848Y-95180519D01*
X120308847Y-95180519D01*
X120285495Y-95164916D01*
X120285488Y-95164912D01*
X120148917Y-95108343D01*
X120148907Y-95108340D01*
X120003920Y-95079500D01*
X120003918Y-95079500D01*
X119903558Y-95079500D01*
X119836519Y-95059815D01*
X119790764Y-95007011D01*
X119782658Y-94976939D01*
X119781689Y-94977132D01*
X119755391Y-94844927D01*
X119749737Y-94816503D01*
X119728899Y-94766195D01*
X119689397Y-94670827D01*
X119689390Y-94670814D01*
X119601789Y-94539711D01*
X119601786Y-94539707D01*
X119490292Y-94428213D01*
X119490288Y-94428210D01*
X119359185Y-94340609D01*
X119359172Y-94340602D01*
X119213501Y-94280264D01*
X119213489Y-94280261D01*
X119058845Y-94249500D01*
X119058842Y-94249500D01*
X118901158Y-94249500D01*
X118901155Y-94249500D01*
X118746511Y-94280260D01*
X118746497Y-94280264D01*
X118709999Y-94295382D01*
X118692270Y-94297287D01*
X118675796Y-94304110D01*
X118658253Y-94300943D01*
X118640530Y-94302849D01*
X118624585Y-94294867D01*
X118607037Y-94291700D01*
X118581571Y-94273335D01*
X118578052Y-94271573D01*
X118578048Y-94271569D01*
X118576435Y-94270067D01*
X118513656Y-94207288D01*
X118499910Y-94198809D01*
X118490938Y-94190455D01*
X118479117Y-94170528D01*
X118463618Y-94153297D01*
X118461623Y-94141039D01*
X118455290Y-94130363D01*
X118456118Y-94107205D01*
X118452397Y-94084334D01*
X118457344Y-94072948D01*
X118457788Y-94060538D01*
X118471006Y-94041502D01*
X118480240Y-94020252D01*
X118494108Y-94008235D01*
X118497641Y-94003149D01*
X118502119Y-94001294D01*
X118510348Y-93994165D01*
X118513342Y-93992318D01*
X118637315Y-93868345D01*
X118729356Y-93719124D01*
X118729358Y-93719119D01*
X118784505Y-93552697D01*
X118784506Y-93552690D01*
X118794999Y-93449986D01*
X118795000Y-93449973D01*
X118795000Y-93400000D01*
X116345001Y-93400000D01*
X116345001Y-93449986D01*
X116355494Y-93552697D01*
X116410641Y-93719119D01*
X116410643Y-93719124D01*
X116502684Y-93868345D01*
X116626655Y-93992316D01*
X116626659Y-93992319D01*
X116629656Y-93994168D01*
X116631279Y-93995972D01*
X116632323Y-93996798D01*
X116632181Y-93996976D01*
X116676381Y-94046116D01*
X116687602Y-94115079D01*
X116659759Y-94179161D01*
X116629661Y-94205241D01*
X116626349Y-94207283D01*
X116626343Y-94207288D01*
X116502289Y-94331342D01*
X116410187Y-94480663D01*
X116410186Y-94480666D01*
X116355001Y-94647203D01*
X116355001Y-94647204D01*
X116355000Y-94647204D01*
X116344500Y-94749983D01*
X116344500Y-94749996D01*
X116344501Y-95350000D01*
X116344501Y-95350019D01*
X116355000Y-95452796D01*
X116356419Y-95459422D01*
X116354808Y-95459766D01*
X116355107Y-95468453D01*
X116360683Y-95484645D01*
X116356284Y-95502650D01*
X116356922Y-95521172D01*
X116348166Y-95535886D01*
X116344103Y-95552519D01*
X116330670Y-95565286D01*
X116321192Y-95581215D01*
X116305869Y-95588859D01*
X116293460Y-95600655D01*
X116275255Y-95604133D01*
X116258672Y-95612408D01*
X116241310Y-95610620D01*
X116224832Y-95613770D01*
X116200559Y-95606425D01*
X116190546Y-95605395D01*
X116180504Y-95601356D01*
X116176750Y-95598848D01*
X116031068Y-95538505D01*
X116017526Y-95535811D01*
X116006794Y-95531495D01*
X115988074Y-95516726D01*
X115966955Y-95505677D01*
X115958690Y-95493542D01*
X115951941Y-95488218D01*
X115948748Y-95478947D01*
X115938501Y-95463902D01*
X115910397Y-95396052D01*
X115910390Y-95396039D01*
X115822789Y-95264936D01*
X115822786Y-95264932D01*
X115711291Y-95153437D01*
X115711262Y-95153418D01*
X115711250Y-95153403D01*
X115706581Y-95149572D01*
X115707307Y-95148686D01*
X115666454Y-95099808D01*
X115657743Y-95030483D01*
X115687894Y-94967454D01*
X115692466Y-94962630D01*
X115749717Y-94905379D01*
X115749721Y-94905374D01*
X115832031Y-94766195D01*
X115874504Y-94620000D01*
X115194000Y-94620000D01*
X115185314Y-94617449D01*
X115176353Y-94618738D01*
X115152312Y-94607759D01*
X115126961Y-94600315D01*
X115121033Y-94593474D01*
X115112797Y-94589713D01*
X115098507Y-94567478D01*
X115081206Y-94547511D01*
X115078918Y-94536996D01*
X115075023Y-94530935D01*
X115070000Y-94496000D01*
X115070000Y-94314500D01*
X115089685Y-94247461D01*
X115142489Y-94201706D01*
X115194000Y-94190500D01*
X115304682Y-94190500D01*
X115304690Y-94190500D01*
X115340993Y-94187643D01*
X115340995Y-94187642D01*
X115340997Y-94187642D01*
X115496389Y-94142496D01*
X115496389Y-94142495D01*
X115496395Y-94142494D01*
X115505233Y-94137267D01*
X115568352Y-94120000D01*
X115874504Y-94120000D01*
X115832031Y-93973803D01*
X115820090Y-93953613D01*
X115802906Y-93885889D01*
X115820089Y-93827369D01*
X115832494Y-93806395D01*
X115877643Y-93650993D01*
X115880500Y-93614690D01*
X115880500Y-93205310D01*
X115877643Y-93169007D01*
X115874435Y-93157966D01*
X115835659Y-93024500D01*
X115832494Y-93013605D01*
X115750117Y-92874313D01*
X115750114Y-92874310D01*
X115750112Y-92874307D01*
X115725818Y-92850013D01*
X116345000Y-92850013D01*
X116345000Y-92900000D01*
X117320000Y-92900000D01*
X117820000Y-92900000D01*
X118794999Y-92900000D01*
X118794999Y-92850028D01*
X118794998Y-92850013D01*
X118784505Y-92747302D01*
X118729358Y-92580880D01*
X118729356Y-92580875D01*
X118637315Y-92431654D01*
X118513345Y-92307684D01*
X118364124Y-92215643D01*
X118364119Y-92215641D01*
X118197697Y-92160494D01*
X118197690Y-92160493D01*
X118094986Y-92150000D01*
X117820000Y-92150000D01*
X117820000Y-92900000D01*
X117320000Y-92900000D01*
X117320000Y-92150000D01*
X117045029Y-92150000D01*
X117045012Y-92150001D01*
X116942302Y-92160494D01*
X116775880Y-92215641D01*
X116775875Y-92215643D01*
X116626654Y-92307684D01*
X116502684Y-92431654D01*
X116410643Y-92580875D01*
X116410641Y-92580880D01*
X116355494Y-92747302D01*
X116355493Y-92747309D01*
X116345000Y-92850013D01*
X115725818Y-92850013D01*
X115635692Y-92759887D01*
X115635684Y-92759881D01*
X115496393Y-92677505D01*
X115496390Y-92677504D01*
X115340997Y-92632357D01*
X115340991Y-92632356D01*
X115304697Y-92629500D01*
X115304690Y-92629500D01*
X115171976Y-92629500D01*
X115156487Y-92625350D01*
X115142743Y-92626005D01*
X115109978Y-92612888D01*
X115043790Y-92574675D01*
X115043789Y-92574674D01*
X115001783Y-92550422D01*
X114945881Y-92535443D01*
X114849057Y-92509499D01*
X114849054Y-92509499D01*
X114749764Y-92509499D01*
X114682725Y-92489814D01*
X114680873Y-92488601D01*
X114549185Y-92400609D01*
X114549172Y-92400602D01*
X114403501Y-92340264D01*
X114403489Y-92340261D01*
X114248845Y-92309500D01*
X114248842Y-92309500D01*
X114091158Y-92309500D01*
X114091155Y-92309500D01*
X113936510Y-92340261D01*
X113936498Y-92340264D01*
X113790827Y-92400602D01*
X113790814Y-92400609D01*
X113659711Y-92488210D01*
X113659707Y-92488213D01*
X113548213Y-92599707D01*
X113548210Y-92599711D01*
X113460609Y-92730814D01*
X113460602Y-92730827D01*
X113400264Y-92876498D01*
X113400261Y-92876510D01*
X113369500Y-93031153D01*
X113369500Y-93034449D01*
X113369012Y-93036110D01*
X113368903Y-93037218D01*
X113368692Y-93037197D01*
X113349815Y-93101488D01*
X113297011Y-93147243D01*
X113227853Y-93157187D01*
X113210906Y-93153526D01*
X113070912Y-93112854D01*
X113050000Y-93111209D01*
X113050000Y-93640000D01*
X113516560Y-93640000D01*
X113583599Y-93659685D01*
X113604236Y-93676314D01*
X113641129Y-93713207D01*
X113659712Y-93731790D01*
X113790814Y-93819390D01*
X113790827Y-93819397D01*
X113909000Y-93868345D01*
X113936503Y-93879737D01*
X114043022Y-93900925D01*
X114091153Y-93910499D01*
X114091156Y-93910500D01*
X114161208Y-93910500D01*
X114186397Y-93917896D01*
X114212397Y-93921559D01*
X114219391Y-93927584D01*
X114228247Y-93930185D01*
X114245436Y-93950023D01*
X114265332Y-93967163D01*
X114267958Y-93976014D01*
X114274002Y-93982989D01*
X114277738Y-94008975D01*
X114285207Y-94034146D01*
X114283302Y-94047668D01*
X114283946Y-94052147D01*
X114280284Y-94069095D01*
X114265467Y-94120095D01*
X114227861Y-94178981D01*
X114164388Y-94208187D01*
X114146391Y-94209500D01*
X114001155Y-94209500D01*
X113846510Y-94240261D01*
X113846502Y-94240263D01*
X113776855Y-94269111D01*
X113707385Y-94276578D01*
X113644907Y-94245302D01*
X113609255Y-94185213D01*
X113609880Y-94147159D01*
X113604505Y-94140000D01*
X113298352Y-94140000D01*
X113235233Y-94122732D01*
X113226395Y-94117506D01*
X113226393Y-94117505D01*
X113226389Y-94117503D01*
X113070997Y-94072357D01*
X113070991Y-94072356D01*
X113034697Y-94069500D01*
X113034690Y-94069500D01*
X112924000Y-94069500D01*
X112856961Y-94049815D01*
X112811206Y-93997011D01*
X112800000Y-93945500D01*
X112800000Y-93890000D01*
X112674000Y-93890000D01*
X112606961Y-93870315D01*
X112561206Y-93817511D01*
X112550000Y-93766000D01*
X112550000Y-93111210D01*
X112549999Y-93111209D01*
X112529087Y-93112854D01*
X112529081Y-93112855D01*
X112373809Y-93157966D01*
X112373804Y-93157968D01*
X112234625Y-93240278D01*
X112234616Y-93240285D01*
X112120285Y-93354616D01*
X112120278Y-93354625D01*
X112037969Y-93493803D01*
X111992854Y-93649089D01*
X111992854Y-93649092D01*
X111990000Y-93685355D01*
X111990000Y-93685816D01*
X111989979Y-93685884D01*
X111989905Y-93687791D01*
X111989809Y-93687787D01*
X111989809Y-93687790D01*
X111989738Y-93687784D01*
X111989425Y-93687772D01*
X111970315Y-93752855D01*
X111917511Y-93798610D01*
X111866000Y-93809816D01*
X111713087Y-93809816D01*
X111558442Y-93840577D01*
X111558430Y-93840580D01*
X111412759Y-93900918D01*
X111412746Y-93900925D01*
X111281643Y-93988526D01*
X111281639Y-93988529D01*
X111281488Y-93988681D01*
X111281389Y-93988734D01*
X111276933Y-93992392D01*
X111276239Y-93991546D01*
X111254560Y-94003384D01*
X111228742Y-94019977D01*
X111222541Y-94020868D01*
X111220165Y-94022166D01*
X111193807Y-94025000D01*
X111004000Y-94025000D01*
X110936961Y-94005315D01*
X110891206Y-93952511D01*
X110880000Y-93901000D01*
X110880000Y-93649000D01*
X110899685Y-93581961D01*
X110952489Y-93536206D01*
X111004000Y-93525000D01*
X111658790Y-93525000D01*
X111657145Y-93504089D01*
X111612031Y-93348804D01*
X111529721Y-93209625D01*
X111529714Y-93209616D01*
X111465935Y-93145837D01*
X111432450Y-93084514D01*
X111437434Y-93014822D01*
X111465933Y-92970476D01*
X111563590Y-92872820D01*
X111646931Y-92731897D01*
X111646932Y-92731893D01*
X111646933Y-92731892D01*
X111692609Y-92574676D01*
X111692609Y-92574673D01*
X111692784Y-92572452D01*
X111695500Y-92537940D01*
X111695500Y-92062060D01*
X111692609Y-92025325D01*
X111679597Y-91980537D01*
X111646933Y-91868107D01*
X111646932Y-91868106D01*
X111646931Y-91868104D01*
X111646931Y-91868103D01*
X111592766Y-91776514D01*
X111588416Y-91760614D01*
X111580523Y-91748331D01*
X111575500Y-91713396D01*
X111575500Y-91652486D01*
X119449500Y-91652486D01*
X119449500Y-91947513D01*
X119477541Y-92160494D01*
X119488007Y-92239993D01*
X119564361Y-92524951D01*
X119564364Y-92524961D01*
X119677254Y-92797500D01*
X119677258Y-92797510D01*
X119824761Y-93052993D01*
X120004352Y-93287040D01*
X120004358Y-93287047D01*
X120212952Y-93495641D01*
X120212959Y-93495647D01*
X120447006Y-93675238D01*
X120702489Y-93822741D01*
X120702490Y-93822741D01*
X120702493Y-93822743D01*
X120864866Y-93890000D01*
X120955601Y-93927584D01*
X120975048Y-93935639D01*
X121260007Y-94011993D01*
X121552494Y-94050500D01*
X121552501Y-94050500D01*
X121847499Y-94050500D01*
X121847506Y-94050500D01*
X122139993Y-94011993D01*
X122424952Y-93935639D01*
X122697507Y-93822743D01*
X122952994Y-93675238D01*
X123187042Y-93495646D01*
X123395646Y-93287042D01*
X123575238Y-93052994D01*
X123722743Y-92797507D01*
X123835639Y-92524952D01*
X123911993Y-92239993D01*
X123950500Y-91947506D01*
X123950500Y-91652494D01*
X123911993Y-91360007D01*
X123835639Y-91075048D01*
X123822380Y-91043039D01*
X123722745Y-90802499D01*
X123722741Y-90802489D01*
X123575238Y-90547006D01*
X123395647Y-90312959D01*
X123395641Y-90312952D01*
X123187047Y-90104358D01*
X123187040Y-90104352D01*
X122952993Y-89924761D01*
X122697510Y-89777258D01*
X122697500Y-89777254D01*
X122424961Y-89664364D01*
X122424954Y-89664362D01*
X122424952Y-89664361D01*
X122139993Y-89588007D01*
X122091113Y-89581571D01*
X121847513Y-89549500D01*
X121847506Y-89549500D01*
X121552494Y-89549500D01*
X121552486Y-89549500D01*
X121287450Y-89584394D01*
X121260007Y-89588007D01*
X121101013Y-89630609D01*
X120975048Y-89664361D01*
X120975038Y-89664364D01*
X120702499Y-89777254D01*
X120702489Y-89777258D01*
X120447006Y-89924761D01*
X120212959Y-90104352D01*
X120212952Y-90104358D01*
X120004358Y-90312952D01*
X120004352Y-90312959D01*
X119824761Y-90547006D01*
X119677258Y-90802489D01*
X119677254Y-90802499D01*
X119564364Y-91075038D01*
X119564361Y-91075048D01*
X119488008Y-91360004D01*
X119488006Y-91360015D01*
X119449500Y-91652486D01*
X111575500Y-91652486D01*
X111575500Y-91381325D01*
X111592768Y-91318204D01*
X111617494Y-91276395D01*
X111662643Y-91120993D01*
X111665500Y-91084690D01*
X111665500Y-90615310D01*
X111662643Y-90579007D01*
X111617494Y-90423605D01*
X111597408Y-90389642D01*
X111580225Y-90321921D01*
X111602384Y-90255658D01*
X111616453Y-90238847D01*
X112224695Y-89630606D01*
X112298620Y-89519969D01*
X112349540Y-89397036D01*
X112375500Y-89266531D01*
X112375500Y-89266519D01*
X112375960Y-89261853D01*
X112402118Y-89197064D01*
X112459150Y-89156702D01*
X112499364Y-89150000D01*
X124725500Y-89150000D01*
X124792539Y-89169685D01*
X124838294Y-89222489D01*
X124849500Y-89274000D01*
X124849500Y-127496948D01*
X124849351Y-127503033D01*
X124831743Y-127861432D01*
X124830550Y-127873542D01*
X124778347Y-128225467D01*
X124775973Y-128237402D01*
X124689526Y-128582518D01*
X124685994Y-128594162D01*
X124580142Y-128890000D01*
X124566142Y-128929127D01*
X124561485Y-128940370D01*
X124409366Y-129262000D01*
X124403629Y-129272732D01*
X124220729Y-129577881D01*
X124213969Y-129587999D01*
X124002028Y-129873769D01*
X123994308Y-129883175D01*
X123755388Y-130146783D01*
X123746783Y-130155388D01*
X123483175Y-130394308D01*
X123473769Y-130402028D01*
X123187999Y-130613969D01*
X123177881Y-130620729D01*
X122872732Y-130803629D01*
X122862000Y-130809366D01*
X122540370Y-130961485D01*
X122529134Y-130966139D01*
X122405442Y-131010397D01*
X122194162Y-131085994D01*
X122182518Y-131089526D01*
X121837402Y-131175973D01*
X121825467Y-131178347D01*
X121473542Y-131230550D01*
X121461432Y-131231743D01*
X121123927Y-131248324D01*
X121103031Y-131249351D01*
X121096949Y-131249500D01*
X102303051Y-131249500D01*
X102296968Y-131249351D01*
X102274856Y-131248264D01*
X101938567Y-131231743D01*
X101926457Y-131230550D01*
X101574532Y-131178347D01*
X101562597Y-131175973D01*
X101217481Y-131089526D01*
X101205837Y-131085994D01*
X100870858Y-130966136D01*
X100859629Y-130961485D01*
X100537999Y-130809366D01*
X100527272Y-130803631D01*
X100222118Y-130620729D01*
X100212000Y-130613969D01*
X99926230Y-130402028D01*
X99916824Y-130394308D01*
X99722650Y-130218319D01*
X99653209Y-130155381D01*
X99644618Y-130146790D01*
X99405691Y-129883175D01*
X99397971Y-129873769D01*
X99186030Y-129587999D01*
X99179270Y-129577881D01*
X99118316Y-129476185D01*
X98996363Y-129272720D01*
X98990639Y-129262012D01*
X98838511Y-128940363D01*
X98833867Y-128929151D01*
X98714000Y-128594147D01*
X98710473Y-128582518D01*
X98624023Y-128237389D01*
X98621652Y-128225467D01*
X98569449Y-127873542D01*
X98568256Y-127861431D01*
X98567816Y-127852483D01*
X98550649Y-127503032D01*
X98550500Y-127497109D01*
X98550500Y-127496948D01*
X98550500Y-127455830D01*
X98550446Y-127455683D01*
X98510788Y-94618738D01*
X98507206Y-91652486D01*
X99499500Y-91652486D01*
X99499500Y-91947513D01*
X99527541Y-92160494D01*
X99538007Y-92239993D01*
X99614361Y-92524951D01*
X99614364Y-92524961D01*
X99727254Y-92797500D01*
X99727258Y-92797510D01*
X99874761Y-93052993D01*
X100054352Y-93287040D01*
X100054358Y-93287047D01*
X100262952Y-93495641D01*
X100262959Y-93495647D01*
X100497006Y-93675238D01*
X100752489Y-93822741D01*
X100752490Y-93822741D01*
X100752493Y-93822743D01*
X100914866Y-93890000D01*
X101005601Y-93927584D01*
X101025048Y-93935639D01*
X101310007Y-94011993D01*
X101602494Y-94050500D01*
X101602501Y-94050500D01*
X101897499Y-94050500D01*
X101897506Y-94050500D01*
X102189993Y-94011993D01*
X102474952Y-93935639D01*
X102740131Y-93825797D01*
X102809600Y-93818329D01*
X102872080Y-93849604D01*
X102907732Y-93909693D01*
X102911192Y-93949981D01*
X102911210Y-93950000D01*
X103440000Y-93950000D01*
X103440000Y-93336491D01*
X103459685Y-93269452D01*
X103465616Y-93261015D01*
X103625238Y-93052994D01*
X103772743Y-92797507D01*
X103856624Y-92595000D01*
X105295496Y-92595000D01*
X105850000Y-92595000D01*
X105850000Y-92066210D01*
X105849999Y-92066209D01*
X105829087Y-92067854D01*
X105829081Y-92067855D01*
X105673809Y-92112966D01*
X105673804Y-92112968D01*
X105534625Y-92195278D01*
X105534616Y-92195285D01*
X105420285Y-92309616D01*
X105420278Y-92309625D01*
X105337968Y-92448804D01*
X105295496Y-92595000D01*
X103856624Y-92595000D01*
X103865043Y-92574675D01*
X103865964Y-92572452D01*
X103880259Y-92537940D01*
X103885639Y-92524952D01*
X103961993Y-92239993D01*
X104000500Y-91947506D01*
X104000500Y-91652494D01*
X103961993Y-91360007D01*
X103885639Y-91075048D01*
X103872380Y-91043039D01*
X103772745Y-90802499D01*
X103772743Y-90802494D01*
X103772743Y-90802493D01*
X103655833Y-90599999D01*
X109146209Y-90599999D01*
X109146210Y-90600000D01*
X109675000Y-90600000D01*
X109675000Y-90045494D01*
X109674998Y-90045493D01*
X109528809Y-90087965D01*
X109528806Y-90087967D01*
X109389625Y-90170278D01*
X109389616Y-90170285D01*
X109275285Y-90284616D01*
X109275278Y-90284625D01*
X109192968Y-90423804D01*
X109192966Y-90423809D01*
X109147855Y-90579081D01*
X109147854Y-90579087D01*
X109146209Y-90599999D01*
X103655833Y-90599999D01*
X103625238Y-90547006D01*
X103445647Y-90312959D01*
X103445641Y-90312952D01*
X103237047Y-90104358D01*
X103237040Y-90104352D01*
X103002993Y-89924761D01*
X102747510Y-89777258D01*
X102747500Y-89777254D01*
X102474961Y-89664364D01*
X102474954Y-89664362D01*
X102474952Y-89664361D01*
X102189993Y-89588007D01*
X102141113Y-89581571D01*
X101897513Y-89549500D01*
X101897506Y-89549500D01*
X101602494Y-89549500D01*
X101602486Y-89549500D01*
X101337450Y-89584394D01*
X101310007Y-89588007D01*
X101151013Y-89630609D01*
X101025048Y-89664361D01*
X101025038Y-89664364D01*
X100752499Y-89777254D01*
X100752489Y-89777258D01*
X100497006Y-89924761D01*
X100262959Y-90104352D01*
X100262952Y-90104358D01*
X100054358Y-90312952D01*
X100054352Y-90312959D01*
X99874761Y-90547006D01*
X99727258Y-90802489D01*
X99727254Y-90802499D01*
X99614364Y-91075038D01*
X99614361Y-91075048D01*
X99538008Y-91360004D01*
X99538006Y-91360015D01*
X99499500Y-91652486D01*
X98507206Y-91652486D01*
X98507201Y-91648585D01*
X98505953Y-90615302D01*
X98504333Y-89274149D01*
X98523937Y-89207087D01*
X98576685Y-89161268D01*
X98628333Y-89150000D01*
X110495336Y-89150000D01*
X110562375Y-89169685D01*
G37*
%TD.AperFunction*%
%TA.AperFunction,Conductor*%
G36*
X114373039Y-123454685D02*
G01*
X114418794Y-123507489D01*
X114430000Y-123559000D01*
X114430000Y-124105250D01*
X114423761Y-124126495D01*
X114422182Y-124148584D01*
X114414109Y-124159367D01*
X114410315Y-124172289D01*
X114393581Y-124186788D01*
X114380310Y-124204517D01*
X114367689Y-124209224D01*
X114357511Y-124218044D01*
X114335593Y-124221195D01*
X114314846Y-124228934D01*
X114301685Y-124226071D01*
X114288353Y-124227988D01*
X114268209Y-124218788D01*
X114246573Y-124214082D01*
X114228847Y-124200813D01*
X114224797Y-124198963D01*
X114218319Y-124192931D01*
X114186759Y-124161371D01*
X114153274Y-124100048D01*
X114155364Y-124039096D01*
X114177598Y-123962569D01*
X114180500Y-123925694D01*
X114180500Y-123559000D01*
X114183050Y-123550314D01*
X114181762Y-123541353D01*
X114192740Y-123517312D01*
X114200185Y-123491961D01*
X114207025Y-123486033D01*
X114210787Y-123477797D01*
X114233021Y-123463507D01*
X114252989Y-123446206D01*
X114263503Y-123443918D01*
X114269565Y-123440023D01*
X114304500Y-123435000D01*
X114306000Y-123435000D01*
X114373039Y-123454685D01*
G37*
%TD.AperFunction*%
%TA.AperFunction,Conductor*%
G36*
X113098819Y-120120185D02*
G01*
X113144574Y-120172989D01*
X113154518Y-120242147D01*
X113132472Y-120292137D01*
X113134693Y-120293621D01*
X113043707Y-120429789D01*
X113043700Y-120429802D01*
X112983362Y-120575473D01*
X112983359Y-120575485D01*
X112952598Y-120730128D01*
X112952598Y-120759577D01*
X112932913Y-120826616D01*
X112880109Y-120872371D01*
X112810951Y-120882315D01*
X112794003Y-120878653D01*
X112720001Y-120857153D01*
X112720000Y-120857154D01*
X112720000Y-121546000D01*
X112717449Y-121554685D01*
X112718738Y-121563647D01*
X112707759Y-121587687D01*
X112700315Y-121613039D01*
X112693474Y-121618966D01*
X112689713Y-121627203D01*
X112667478Y-121641492D01*
X112647511Y-121658794D01*
X112636996Y-121661081D01*
X112630935Y-121664977D01*
X112596000Y-121670000D01*
X112350598Y-121670000D01*
X112283559Y-121650315D01*
X112262917Y-121633681D01*
X112256818Y-121627582D01*
X112244817Y-121605605D01*
X112237804Y-121597511D01*
X112236876Y-121591062D01*
X112223333Y-121566259D01*
X112220499Y-121539901D01*
X112220499Y-121420831D01*
X112220498Y-121420814D01*
X112220382Y-121419332D01*
X112220000Y-121409607D01*
X112220000Y-120857154D01*
X112219998Y-120857153D01*
X112080811Y-120897591D01*
X112080810Y-120897592D01*
X112023611Y-120931419D01*
X111955886Y-120948600D01*
X111897371Y-120931419D01*
X111888932Y-120926428D01*
X111839393Y-120897131D01*
X111839392Y-120897130D01*
X111839391Y-120897130D01*
X111839388Y-120897129D01*
X111685208Y-120852335D01*
X111685202Y-120852334D01*
X111649181Y-120849500D01*
X111250830Y-120849500D01*
X111250798Y-120849502D01*
X111217984Y-120852083D01*
X111149608Y-120837716D01*
X111099854Y-120788661D01*
X111084518Y-120720495D01*
X111108471Y-120654860D01*
X111120572Y-120640793D01*
X111624548Y-120136819D01*
X111685871Y-120103334D01*
X111712229Y-120100500D01*
X113031780Y-120100500D01*
X113098819Y-120120185D01*
G37*
%TD.AperFunction*%
%TA.AperFunction,Conductor*%
G36*
X110095810Y-119330185D02*
G01*
X110141565Y-119382989D01*
X110151509Y-119452147D01*
X110122484Y-119515703D01*
X110116456Y-119522176D01*
X109821445Y-119817187D01*
X109726451Y-119912181D01*
X109665128Y-119945666D01*
X109638770Y-119948500D01*
X108774000Y-119948500D01*
X108706961Y-119928815D01*
X108661206Y-119876011D01*
X108650000Y-119824500D01*
X108650000Y-119674000D01*
X108669685Y-119606961D01*
X108722489Y-119561206D01*
X108774000Y-119550000D01*
X109419931Y-119550000D01*
X109417167Y-119514878D01*
X109403866Y-119469095D01*
X109404066Y-119399225D01*
X109442009Y-119340555D01*
X109505647Y-119311712D01*
X109522943Y-119310500D01*
X110028771Y-119310500D01*
X110095810Y-119330185D01*
G37*
%TD.AperFunction*%
%TA.AperFunction,Conductor*%
G36*
X115510306Y-116974959D02*
G01*
X115545959Y-117035047D01*
X115549651Y-117072009D01*
X115549500Y-117074979D01*
X115549500Y-118125001D01*
X115549501Y-118125019D01*
X115560000Y-118227796D01*
X115560001Y-118227799D01*
X115570471Y-118259394D01*
X115609611Y-118377511D01*
X115612589Y-118386496D01*
X115614991Y-118456324D01*
X115579259Y-118516366D01*
X115516739Y-118547559D01*
X115494883Y-118549500D01*
X114940749Y-118549500D01*
X114873710Y-118529815D01*
X114845205Y-118496919D01*
X114841706Y-118499547D01*
X114804505Y-118450000D01*
X114124000Y-118450000D01*
X114115314Y-118447449D01*
X114106353Y-118448738D01*
X114082312Y-118437759D01*
X114056961Y-118430315D01*
X114051033Y-118423474D01*
X114042797Y-118419713D01*
X114028507Y-118397478D01*
X114011206Y-118377511D01*
X114008918Y-118366996D01*
X114005023Y-118360935D01*
X114000000Y-118326000D01*
X114000000Y-118144500D01*
X114019685Y-118077461D01*
X114072489Y-118031706D01*
X114124000Y-118020500D01*
X114234682Y-118020500D01*
X114234690Y-118020500D01*
X114270993Y-118017643D01*
X114270995Y-118017642D01*
X114270997Y-118017642D01*
X114426389Y-117972496D01*
X114426389Y-117972495D01*
X114426395Y-117972494D01*
X114435233Y-117967267D01*
X114498352Y-117950000D01*
X114804504Y-117950000D01*
X114762031Y-117803803D01*
X114750090Y-117783613D01*
X114732906Y-117715889D01*
X114750089Y-117657369D01*
X114762494Y-117636395D01*
X114796002Y-117521061D01*
X114807642Y-117480997D01*
X114807643Y-117480991D01*
X114810499Y-117444697D01*
X114810500Y-117444690D01*
X114810500Y-117109692D01*
X114830185Y-117042653D01*
X114882989Y-116996898D01*
X114952147Y-116986954D01*
X114958692Y-116988075D01*
X115021155Y-117000500D01*
X115021158Y-117000500D01*
X115178844Y-117000500D01*
X115178845Y-117000499D01*
X115333497Y-116969737D01*
X115378358Y-116951154D01*
X115447826Y-116943685D01*
X115510306Y-116974959D01*
G37*
%TD.AperFunction*%
%TA.AperFunction,Conductor*%
G36*
X111186352Y-117250129D02*
G01*
X111226012Y-117274530D01*
X111226969Y-117273298D01*
X111233132Y-117278078D01*
X111233135Y-117278081D01*
X111374602Y-117361744D01*
X111387269Y-117365424D01*
X111532426Y-117407597D01*
X111532429Y-117407597D01*
X111532431Y-117407598D01*
X111569306Y-117410500D01*
X111569314Y-117410500D01*
X112725686Y-117410500D01*
X112725694Y-117410500D01*
X112762569Y-117407598D01*
X112762571Y-117407597D01*
X112762573Y-117407597D01*
X112907733Y-117365424D01*
X112942328Y-117360500D01*
X113007770Y-117360500D01*
X113074809Y-117380185D01*
X113095451Y-117396819D01*
X113175057Y-117476425D01*
X113206452Y-117529510D01*
X113237504Y-117636392D01*
X113237507Y-117636398D01*
X113249909Y-117657368D01*
X113253177Y-117670251D01*
X113260776Y-117681161D01*
X113261604Y-117703461D01*
X113267093Y-117725092D01*
X113262934Y-117739255D01*
X113263370Y-117750982D01*
X113249911Y-117783609D01*
X113238734Y-117802509D01*
X113187666Y-117850194D01*
X113118924Y-117862699D01*
X113070211Y-117843131D01*
X113068580Y-117845890D01*
X112978694Y-117792732D01*
X112920398Y-117758256D01*
X112920397Y-117758255D01*
X112920396Y-117758255D01*
X112920393Y-117758254D01*
X112762573Y-117712402D01*
X112762567Y-117712401D01*
X112725701Y-117709500D01*
X112725694Y-117709500D01*
X111569306Y-117709500D01*
X111569298Y-117709500D01*
X111532432Y-117712401D01*
X111532426Y-117712402D01*
X111374606Y-117758254D01*
X111374603Y-117758255D01*
X111233137Y-117841917D01*
X111226969Y-117846702D01*
X111225664Y-117845019D01*
X111173954Y-117873246D01*
X111104263Y-117868251D01*
X111056558Y-117836247D01*
X111032296Y-117810000D01*
X110766815Y-117810000D01*
X110703694Y-117792732D01*
X110699594Y-117790307D01*
X110645398Y-117758256D01*
X110645397Y-117758255D01*
X110645396Y-117758255D01*
X110645393Y-117758254D01*
X110487573Y-117712402D01*
X110487567Y-117712401D01*
X110450701Y-117709500D01*
X110450694Y-117709500D01*
X109996500Y-117709500D01*
X109987814Y-117706949D01*
X109978853Y-117708238D01*
X109954812Y-117697259D01*
X109929461Y-117689815D01*
X109923533Y-117682974D01*
X109915297Y-117679213D01*
X109901007Y-117656978D01*
X109883706Y-117637011D01*
X109881418Y-117626496D01*
X109877523Y-117620435D01*
X109872500Y-117585500D01*
X109872500Y-117534500D01*
X109892185Y-117467461D01*
X109944989Y-117421706D01*
X109996500Y-117410500D01*
X110450686Y-117410500D01*
X110450694Y-117410500D01*
X110487569Y-117407598D01*
X110487571Y-117407597D01*
X110487573Y-117407597D01*
X110529191Y-117395505D01*
X110645398Y-117361744D01*
X110703694Y-117327268D01*
X110766815Y-117310000D01*
X111032294Y-117310000D01*
X111056557Y-117283752D01*
X111116518Y-117247885D01*
X111186352Y-117250129D01*
G37*
%TD.AperFunction*%
%TA.AperFunction,Conductor*%
G36*
X116118039Y-111519685D02*
G01*
X116163794Y-111572489D01*
X116175000Y-111624000D01*
X116175000Y-112474999D01*
X116181581Y-112474999D01*
X116252102Y-112468591D01*
X116252107Y-112468590D01*
X116414396Y-112418018D01*
X116559877Y-112330072D01*
X116680072Y-112209877D01*
X116768018Y-112064398D01*
X116770994Y-112057785D01*
X116816455Y-112004728D01*
X116883384Y-111984672D01*
X116950532Y-112003984D01*
X116971753Y-112020989D01*
X117186244Y-112235480D01*
X117219729Y-112296803D01*
X117214745Y-112366495D01*
X117172873Y-112422428D01*
X117167455Y-112426262D01*
X117089713Y-112478208D01*
X117089707Y-112478213D01*
X116978213Y-112589707D01*
X116978210Y-112589711D01*
X116890609Y-112720814D01*
X116890603Y-112720825D01*
X116889311Y-112723947D01*
X116888195Y-112725331D01*
X116887736Y-112726191D01*
X116887573Y-112726103D01*
X116845473Y-112778353D01*
X116779180Y-112800421D01*
X116774748Y-112800500D01*
X116018046Y-112800500D01*
X115951007Y-112780815D01*
X115905252Y-112728011D01*
X115896429Y-112700691D01*
X115874353Y-112589711D01*
X115869737Y-112566503D01*
X115848755Y-112515847D01*
X115809397Y-112420827D01*
X115809390Y-112420814D01*
X115721789Y-112289711D01*
X115721786Y-112289707D01*
X115711319Y-112279240D01*
X115677834Y-112217917D01*
X115675000Y-112191559D01*
X115675000Y-111624000D01*
X115694685Y-111556961D01*
X115747489Y-111511206D01*
X115799000Y-111500000D01*
X116051000Y-111500000D01*
X116118039Y-111519685D01*
G37*
%TD.AperFunction*%
%TA.AperFunction,Conductor*%
G36*
X107890666Y-105705263D02*
G01*
X107937357Y-105757242D01*
X107949500Y-105810759D01*
X107949500Y-107617870D01*
X107949501Y-107617876D01*
X107955908Y-107677483D01*
X108006202Y-107812328D01*
X108006204Y-107812331D01*
X108045266Y-107864512D01*
X108053004Y-107885258D01*
X108064977Y-107903887D01*
X108068128Y-107925802D01*
X108069684Y-107929974D01*
X108070000Y-107938822D01*
X108070000Y-108001645D01*
X108052734Y-108064763D01*
X108047507Y-108073600D01*
X108047504Y-108073608D01*
X108002357Y-108229002D01*
X108002356Y-108229008D01*
X107999500Y-108265302D01*
X107999500Y-108376000D01*
X107979815Y-108443039D01*
X107935617Y-108484452D01*
X107756117Y-108583952D01*
X107751266Y-108585039D01*
X107747511Y-108588294D01*
X107696000Y-108599500D01*
X106882708Y-108599500D01*
X106820709Y-108582887D01*
X106760904Y-108548359D01*
X106760900Y-108548358D01*
X106710785Y-108519423D01*
X106558057Y-108478499D01*
X106399943Y-108478499D01*
X106392347Y-108478499D01*
X106392331Y-108478500D01*
X106026514Y-108478500D01*
X105959475Y-108458815D01*
X105913720Y-108406011D01*
X105903776Y-108336853D01*
X105905088Y-108330777D01*
X105904505Y-108330000D01*
X105224000Y-108330000D01*
X105156961Y-108310315D01*
X105111206Y-108257511D01*
X105100000Y-108206000D01*
X105100000Y-108024500D01*
X105119685Y-107957461D01*
X105172489Y-107911706D01*
X105224000Y-107900500D01*
X105334682Y-107900500D01*
X105334690Y-107900500D01*
X105370993Y-107897643D01*
X105452082Y-107874084D01*
X105521949Y-107874283D01*
X105580619Y-107912224D01*
X105585939Y-107918844D01*
X105592454Y-107927546D01*
X105607517Y-107938822D01*
X105707664Y-108013793D01*
X105707671Y-108013797D01*
X105842517Y-108064091D01*
X105842516Y-108064091D01*
X105848767Y-108064763D01*
X105902127Y-108070500D01*
X106923776Y-108070499D01*
X106990815Y-108090183D01*
X107036570Y-108142987D01*
X107046514Y-108212146D01*
X107042856Y-108229080D01*
X107042854Y-108229087D01*
X107041209Y-108249999D01*
X107041210Y-108250000D01*
X107570000Y-108250000D01*
X107570000Y-107695494D01*
X107554664Y-107683980D01*
X107539223Y-107683936D01*
X107480554Y-107645993D01*
X107451711Y-107582354D01*
X107450499Y-107565072D01*
X107450499Y-105936877D01*
X107470184Y-105869839D01*
X107522988Y-105824084D01*
X107527930Y-105822216D01*
X107527869Y-105822068D01*
X107679172Y-105759397D01*
X107679172Y-105759396D01*
X107679179Y-105759394D01*
X107756609Y-105707657D01*
X107823286Y-105686779D01*
X107890666Y-105705263D01*
G37*
%TD.AperFunction*%
%TA.AperFunction,Conductor*%
G36*
X104992539Y-104069685D02*
G01*
X105038294Y-104122489D01*
X105049500Y-104174000D01*
X105049500Y-104284697D01*
X105052356Y-104320991D01*
X105052357Y-104320997D01*
X105097503Y-104476389D01*
X105097505Y-104476393D01*
X105097506Y-104476395D01*
X105102732Y-104485233D01*
X105120000Y-104548352D01*
X105120000Y-104854503D01*
X105266194Y-104812032D01*
X105286384Y-104800091D01*
X105354108Y-104782906D01*
X105412629Y-104800089D01*
X105433605Y-104812494D01*
X105474587Y-104824400D01*
X105589002Y-104857642D01*
X105589005Y-104857642D01*
X105589007Y-104857643D01*
X105625310Y-104860500D01*
X105725500Y-104860500D01*
X105734185Y-104863050D01*
X105743147Y-104861762D01*
X105767187Y-104872740D01*
X105792539Y-104880185D01*
X105798466Y-104887025D01*
X105806703Y-104890787D01*
X105820992Y-104913021D01*
X105838294Y-104932989D01*
X105840581Y-104943503D01*
X105844477Y-104949565D01*
X105849500Y-104984500D01*
X105849500Y-105187209D01*
X105829815Y-105254248D01*
X105777011Y-105300003D01*
X105768833Y-105303391D01*
X105707671Y-105326202D01*
X105707664Y-105326206D01*
X105592455Y-105412452D01*
X105592452Y-105412455D01*
X105506206Y-105527664D01*
X105506202Y-105527671D01*
X105455908Y-105662517D01*
X105449501Y-105722116D01*
X105449500Y-105722135D01*
X105449500Y-105980096D01*
X105429815Y-106047135D01*
X105377011Y-106092890D01*
X105374911Y-106093826D01*
X105366471Y-106097492D01*
X105318215Y-106110423D01*
X105268095Y-106139360D01*
X105261985Y-106142887D01*
X105261984Y-106142888D01*
X105181285Y-106189479D01*
X105181282Y-106189481D01*
X105069480Y-106301284D01*
X105069457Y-106301307D01*
X105067559Y-106303204D01*
X105048475Y-106313617D01*
X105048472Y-106313619D01*
X105036940Y-106319912D01*
X105006259Y-106336666D01*
X105006235Y-106336668D01*
X105006227Y-106336673D01*
X105006207Y-106336671D01*
X104979901Y-106339500D01*
X104865302Y-106339500D01*
X104829008Y-106342356D01*
X104829002Y-106342357D01*
X104673609Y-106387504D01*
X104673604Y-106387506D01*
X104624379Y-106416617D01*
X104556655Y-106433798D01*
X104513809Y-106424446D01*
X104469204Y-106405970D01*
X104469200Y-106405969D01*
X104469195Y-106405967D01*
X104314552Y-106375207D01*
X104314549Y-106375207D01*
X104215500Y-106375207D01*
X104148461Y-106355522D01*
X104102706Y-106302718D01*
X104091500Y-106251207D01*
X104091500Y-104785960D01*
X104111185Y-104718921D01*
X104163989Y-104673166D01*
X104233147Y-104663222D01*
X104296703Y-104692247D01*
X104303181Y-104698279D01*
X104334616Y-104729714D01*
X104334625Y-104729721D01*
X104473804Y-104812031D01*
X104620000Y-104854504D01*
X104620000Y-104174000D01*
X104622550Y-104165314D01*
X104621262Y-104156353D01*
X104632240Y-104132312D01*
X104639685Y-104106961D01*
X104646525Y-104101033D01*
X104650287Y-104092797D01*
X104672521Y-104078507D01*
X104692489Y-104061206D01*
X104703003Y-104058918D01*
X104709065Y-104055023D01*
X104744000Y-104050000D01*
X104925500Y-104050000D01*
X104992539Y-104069685D01*
G37*
%TD.AperFunction*%
%TA.AperFunction,Conductor*%
G36*
X116897677Y-99673791D02*
G01*
X116927306Y-99675910D01*
X116931796Y-99679271D01*
X116937334Y-99680161D01*
X116959457Y-99699978D01*
X116983240Y-99717781D01*
X116985200Y-99723036D01*
X116989377Y-99726778D01*
X116997275Y-99755410D01*
X117007657Y-99783246D01*
X117006857Y-99790149D01*
X117007956Y-99794132D01*
X117002359Y-99828980D01*
X116982365Y-99893147D01*
X116980914Y-99897804D01*
X116975449Y-99957947D01*
X116974500Y-99968386D01*
X116974500Y-100239127D01*
X116954815Y-100306166D01*
X116902011Y-100351921D01*
X116832853Y-100361865D01*
X116784607Y-100343378D01*
X116784554Y-100343479D01*
X116783750Y-100343049D01*
X116781609Y-100342229D01*
X116779185Y-100340609D01*
X116779172Y-100340602D01*
X116633501Y-100280264D01*
X116633491Y-100280261D01*
X116589270Y-100271465D01*
X116527359Y-100239080D01*
X116492785Y-100178364D01*
X116496526Y-100108594D01*
X116506072Y-100087854D01*
X116509577Y-100081784D01*
X116534159Y-99990040D01*
X116566251Y-99934453D01*
X116796296Y-99704408D01*
X116801213Y-99701723D01*
X116804323Y-99697056D01*
X116831546Y-99685160D01*
X116857615Y-99670926D01*
X116863207Y-99671325D01*
X116868348Y-99669080D01*
X116897677Y-99673791D01*
G37*
%TD.AperFunction*%
%TA.AperFunction,Conductor*%
G36*
X106246705Y-98457685D02*
G01*
X106292460Y-98510489D01*
X106301283Y-98537809D01*
X106330261Y-98683489D01*
X106330264Y-98683501D01*
X106390602Y-98829172D01*
X106390609Y-98829185D01*
X106478210Y-98960288D01*
X106478213Y-98960292D01*
X106589707Y-99071786D01*
X106589711Y-99071789D01*
X106720814Y-99159390D01*
X106720827Y-99159397D01*
X106866498Y-99219735D01*
X106866503Y-99219737D01*
X107021153Y-99250499D01*
X107021156Y-99250500D01*
X107143500Y-99250500D01*
X107210539Y-99270185D01*
X107256294Y-99322989D01*
X107265190Y-99350677D01*
X107306760Y-99563021D01*
X107304637Y-99585959D01*
X107307099Y-99608865D01*
X107300409Y-99631648D01*
X107300322Y-99632593D01*
X107300017Y-99632981D01*
X107299633Y-99634293D01*
X107291038Y-99655042D01*
X107291035Y-99655053D01*
X107267000Y-99775889D01*
X107267000Y-99875500D01*
X107264449Y-99884185D01*
X107265738Y-99893147D01*
X107254759Y-99917187D01*
X107247315Y-99942539D01*
X107240474Y-99948466D01*
X107236713Y-99956703D01*
X107214478Y-99970992D01*
X107194511Y-99988294D01*
X107183996Y-99990581D01*
X107177935Y-99994477D01*
X107143000Y-99999500D01*
X107134797Y-99999500D01*
X107067758Y-99979815D01*
X107027410Y-99937501D01*
X107025649Y-99934451D01*
X107009588Y-99906632D01*
X106980520Y-99856284D01*
X106868716Y-99744480D01*
X106868715Y-99744479D01*
X106864385Y-99740149D01*
X106864374Y-99740139D01*
X106479227Y-99354992D01*
X106479225Y-99354989D01*
X106360354Y-99236118D01*
X106360353Y-99236117D01*
X106273541Y-99185997D01*
X106273541Y-99185996D01*
X106273537Y-99185995D01*
X106223422Y-99157060D01*
X106070694Y-99116136D01*
X105912580Y-99116136D01*
X105904984Y-99116136D01*
X105904968Y-99116137D01*
X105648853Y-99116137D01*
X105581814Y-99096452D01*
X105536059Y-99043648D01*
X105526115Y-98974490D01*
X105555140Y-98910934D01*
X105601401Y-98877576D01*
X105705645Y-98834397D01*
X105705645Y-98834396D01*
X105705652Y-98834394D01*
X105836762Y-98746789D01*
X105948262Y-98635289D01*
X106035867Y-98504179D01*
X106035867Y-98504178D01*
X106035869Y-98504176D01*
X106036208Y-98503543D01*
X106036472Y-98503273D01*
X106039252Y-98499114D01*
X106040040Y-98499641D01*
X106046028Y-98493545D01*
X106051851Y-98480797D01*
X106070029Y-98469114D01*
X106085172Y-98453700D01*
X106100022Y-98449839D01*
X106110629Y-98443023D01*
X106145564Y-98438000D01*
X106179666Y-98438000D01*
X106246705Y-98457685D01*
G37*
%TD.AperFunction*%
%TD*%
M02*
