M48
; DRILL file {KiCad 9.0.7} date 2026-03-27T10:11:44+0100
; FORMAT={-:-/ absolute / inch / decimal}
; #@! TF.CreationDate,2026-03-27T10:11:44+01:00
; #@! TF.GenerationSoftware,Kicad,Pcbnew,9.0.7
; #@! TF.FileFunction,Plated,1,4,PTH
FMAT,2
INCH
; #@! TA.AperFunction,Plated,PTH,ViaDrill
T1C0.0118
; #@! TA.AperFunction,Plated,PTH,ComponentDrill
T2C0.0236
; #@! TA.AperFunction,Plated,PTH,ComponentDrill
T3C0.0256
; #@! TA.AperFunction,Plated,PTH,ComponentDrill
T4C0.0295
; #@! TA.AperFunction,Plated,PTH,ComponentDrill
T5C0.0866
%
G90
G05
T1
X3.9114Y-3.5295
X4.0059Y-4.0949
X4.0272Y-4.039
X4.0276Y-4.7598
X4.0472Y-3.7107
X4.0643Y-3.8979
X4.0705Y-4.2528
X4.0728Y-3.5295
X4.0827Y-4.4067
X4.0887Y-3.8742
X4.0981Y-4.1003
X4.0984Y-4.628
X4.1038Y-4.2195
X4.1103Y-4.3384
X4.1366Y-4.2976
X4.1378Y-3.5876
X4.1467Y-3.8632
X4.1476Y-3.5295
X4.1496Y-4.3268
X4.1575Y-4.6811
X4.1717Y-3.9949
X4.1732Y-4.2677
X4.1764Y-3.624
X4.1949Y-4.0906
X4.1969Y-4.0138
X4.2047Y-4.4843
X4.2127Y-3.8109
X4.2146Y-3.5295
X4.2165Y-3.5827
X4.2165Y-3.876
X4.2165Y-3.9685
X4.2193Y-4.8102
X4.2244Y-3.9114
X4.2244Y-4.1358
X4.2362Y-4.3504
X4.2382Y-4.7638
X4.248Y-4.1063
X4.2717Y-4.4213
X4.2746Y-3.5295
X4.2776Y-4.7815
X4.2795Y-4.5965
X4.2815Y-3.6457
X4.2835Y-3.5827
X4.2835Y-3.7165
X4.302Y-3.7862
X4.3091Y-4.7165
X4.311Y-4.5413
X4.3185Y-3.6256
X4.3297Y-3.5295
X4.3386Y-4.9094
X4.37Y-4.9115
X4.3784Y-4.1437
X4.4013Y-3.7248
X4.4063Y-3.7559
X4.414Y-4.1469
X4.4173Y-3.5886
X4.4173Y-3.6476
X4.436Y-3.5305
X4.4472Y-4.2099
X4.4567Y-3.7736
X4.4626Y-4.7835
X4.4705Y-4.1142
X4.4724Y-4.8169
X4.474Y-3.6945
X4.4785Y-4.7563
X4.4823Y-4.5807
X4.4882Y-3.7736
X4.4913Y-3.7406
X4.4949Y-3.6657
X4.4961Y-3.5315
X4.497Y-3.5886
X4.5017Y-4.2399
X4.513Y-4.5111
X4.5197Y-4.8051
X4.5236Y-4.6339
X4.5315Y-4.4409
X4.5315Y-4.5748
X4.5335Y-3.9382
X4.5355Y-3.7707
X4.5383Y-4.2293
X4.559Y-3.7917
X4.5591Y-4.311
X4.563Y-4.4409
X4.5635Y-3.8607
X4.5669Y-3.7303
X4.5744Y-3.6669
X4.5817Y-3.5315
X4.5827Y-3.5896
X4.5827Y-3.9783
X4.5866Y-3.937
X4.6069Y-3.8249
X4.626Y-4.7008
X4.6299Y-4.4528
X4.6299Y-4.7874
X4.6398Y-4.1909
X4.6575Y-4.4291
X4.6673Y-4.1043
X4.6688Y-4.2727
X4.6752Y-3.5896
X4.6772Y-3.5315
X4.6772Y-4.4606
X4.6843Y-3.7421
X4.7047Y-4.0079
X4.7047Y-4.0492
X4.7382Y-3.878
X4.7402Y-3.9173
X4.765Y-4.2099
X4.7717Y-4.2717
X4.815Y-4.3071
X4.8701Y-4.7953
X4.874Y-4.8858
X4.8858Y-3.5315
T3
X3.939Y-3.7484
X3.939Y-3.7984
X3.939Y-3.8484
X3.939Y-3.8984
X3.939Y-3.9484
X3.939Y-3.9984
X3.939Y-4.0484
X3.939Y-4.0984
X3.939Y-4.1484
X3.939Y-4.1984
X3.939Y-4.2484
X3.939Y-4.2984
X3.939Y-4.3484
X3.939Y-4.3984
X3.939Y-4.4484
X3.939Y-4.4984
X3.939Y-4.5484
X3.939Y-4.5984
T4
X4.7874Y-4.4429
X4.7874Y-4.5217
T5
X4.0059Y-3.6142
X4.0067Y-5.0394
X4.7913Y-3.6142
X4.7913Y-5.0394
T2
G00X4.1992Y-4.8606
M15
G01X4.1992Y-4.9039
M16
G05
G00X4.1992Y-5.0311
M15
G01X4.1992Y-5.0626
M16
G05
G00X4.5394Y-4.8606
M15
G01X4.5394Y-4.9039
M16
G05
G00X4.5394Y-5.0311
M15
G01X4.5394Y-5.0626
M16
G05
M30
