%TF.GenerationSoftware,KiCad,Pcbnew,9.0.7*%
%TF.CreationDate,2026-03-22T15:46:58+01:00*%
%TF.ProjectId,SnapCore-Devboard-Rev1,536e6170-436f-4726-952d-446576626f61,rev?*%
%TF.SameCoordinates,Original*%
%TF.FileFunction,Copper,L3,Inr*%
%TF.FilePolarity,Positive*%
%FSLAX46Y46*%
G04 Gerber Fmt 4.6, Leading zero omitted, Abs format (unit mm)*
G04 Created by KiCad (PCBNEW 9.0.7) date 2026-03-22 15:46:58*
%MOMM*%
%LPD*%
G01*
G04 APERTURE LIST*
G04 Aperture macros list*
%AMRoundRect*
0 Rectangle with rounded corners*
0 $1 Rounding radius*
0 $2 $3 $4 $5 $6 $7 $8 $9 X,Y pos of 4 corners*
0 Add a 4 corners polygon primitive as box body*
4,1,4,$2,$3,$4,$5,$6,$7,$8,$9,$2,$3,0*
0 Add four circle primitives for the rounded corners*
1,1,$1+$1,$2,$3*
1,1,$1+$1,$4,$5*
1,1,$1+$1,$6,$7*
1,1,$1+$1,$8,$9*
0 Add four rect primitives between the rounded corners*
20,1,$1+$1,$2,$3,$4,$5,0*
20,1,$1+$1,$4,$5,$6,$7,0*
20,1,$1+$1,$6,$7,$8,$9,0*
20,1,$1+$1,$8,$9,$2,$3,0*%
G04 Aperture macros list end*
%TA.AperFunction,ComponentPad*%
%ADD10C,3.500000*%
%TD*%
%TA.AperFunction,ComponentPad*%
%ADD11RoundRect,0.250000X0.750000X-0.600000X0.750000X0.600000X-0.750000X0.600000X-0.750000X-0.600000X0*%
%TD*%
%TA.AperFunction,ComponentPad*%
%ADD12O,2.000000X1.700000*%
%TD*%
%TA.AperFunction,HeatsinkPad*%
%ADD13C,0.500000*%
%TD*%
%TA.AperFunction,HeatsinkPad*%
%ADD14O,1.000000X2.100000*%
%TD*%
%TA.AperFunction,HeatsinkPad*%
%ADD15O,1.000000X1.800000*%
%TD*%
%TA.AperFunction,ComponentPad*%
%ADD16R,1.000000X1.000000*%
%TD*%
%TA.AperFunction,ComponentPad*%
%ADD17C,1.000000*%
%TD*%
%TA.AperFunction,ViaPad*%
%ADD18C,0.600000*%
%TD*%
%TA.AperFunction,Conductor*%
%ADD19C,0.500000*%
%TD*%
%TA.AperFunction,Conductor*%
%ADD20C,0.200000*%
%TD*%
G04 APERTURE END LIST*
D10*
%TO.N,N/C*%
%TO.C,H2*%
X121700000Y-91800000D03*
%TD*%
%TO.N,N/C*%
%TO.C,H3*%
X121700000Y-128000000D03*
%TD*%
D11*
%TO.N,Net-(BAT_CONN2-Pin_1)*%
%TO.C,BAT*%
X120100000Y-122350000D03*
D12*
%TO.N,GND*%
X120100000Y-119850000D03*
%TD*%
D13*
%TO.N,unconnected-(U5-EPAD-Pad9)*%
%TO.C,U5*%
X110220000Y-110370000D03*
X110220000Y-111570000D03*
X110220000Y-112770000D03*
X111620000Y-110370000D03*
X111620000Y-111570000D03*
X111620000Y-112770000D03*
%TD*%
D14*
%TO.N,GND*%
%TO.C,J2*%
X106660000Y-124010000D03*
D15*
X106660000Y-128190000D03*
D14*
X115300000Y-124010000D03*
D15*
X115300000Y-128190000D03*
%TD*%
D10*
%TO.N,N/C*%
%TO.C,H4*%
X101750000Y-91800000D03*
%TD*%
%TO.N,N/C*%
%TO.C,H1*%
X101770000Y-128000000D03*
%TD*%
D16*
%TO.N,VBUS*%
%TO.C,J3*%
X100050000Y-95210000D03*
D17*
%TO.N,INTERNAL_I2C_SDA*%
X100050000Y-96480000D03*
%TO.N,INTERNAL_I2C_SCL*%
X100050000Y-97750000D03*
%TO.N,P0.16_PDM_DATA*%
X100050000Y-99020000D03*
%TO.N,P1.00_PDM_CLK*%
X100050000Y-100290000D03*
%TO.N,SWDCLK*%
X100050000Y-101560000D03*
%TO.N,SWDIO*%
X100050000Y-102830000D03*
%TO.N,P0.09{slash}NFC1*%
X100050000Y-104100000D03*
%TO.N,P0.10{slash}NFC2*%
X100050000Y-105370000D03*
%TO.N,3V3*%
X100050000Y-106640000D03*
%TO.N,GND*%
X100050000Y-107910000D03*
%TO.N,P0.23_QSPI_SIO_3*%
X100050000Y-109180000D03*
%TO.N,P0.25_QSPI_CSN*%
X100050000Y-110450000D03*
%TO.N,P0.21_QSPI_SCK*%
X100050000Y-111720000D03*
%TO.N,P0.20_QSPI_SIO_0*%
X100050000Y-112990000D03*
%TO.N,P0.22_QSPI_SIO_2*%
X100050000Y-114260000D03*
%TO.N,P0.24_QSPI_SIO_1*%
X100050000Y-115530000D03*
%TO.N,GND*%
X100050000Y-116800000D03*
%TD*%
D18*
%TO.N,GND*%
X105100000Y-91125000D03*
X107100000Y-91000000D03*
X116400000Y-91175000D03*
X114225000Y-91150000D03*
X108725000Y-89650000D03*
X124100000Y-89700000D03*
X118800000Y-89700000D03*
X116375000Y-89700000D03*
X114200000Y-89700000D03*
X99350000Y-89650000D03*
X103450000Y-89650000D03*
X105350000Y-89650000D03*
X107200000Y-89650000D03*
%TO.N,VIN*%
X109500000Y-115350000D03*
X113753098Y-120808975D03*
X105399000Y-115200000D03*
%TO.N,3V3*%
X120350000Y-98500000D03*
X114080000Y-95010000D03*
X112960000Y-106931000D03*
X115150000Y-100030000D03*
X104235707Y-107175707D03*
X101750000Y-104010000D03*
X107900000Y-104300000D03*
X107100000Y-98450000D03*
X113850000Y-116350000D03*
X113550000Y-104500000D03*
X104100000Y-117550000D03*
%TO.N,VBUS*%
X114629923Y-114581667D03*
X113600000Y-122350000D03*
X114985000Y-109665000D03*
X104401000Y-110194972D03*
X102290000Y-102590000D03*
X123770000Y-108960000D03*
X106850000Y-113900000D03*
X107650000Y-121000000D03*
%TO.N,BAT0*%
X119100000Y-114200000D03*
X117500000Y-119400000D03*
X103389999Y-108021416D03*
X115800000Y-113750000D03*
%TO.N,RESET*%
X118980000Y-95050000D03*
X105780000Y-109680000D03*
X102300000Y-120900000D03*
X118587815Y-108527815D03*
%TO.N,Net-(U1-DEC1)*%
X106550000Y-103900000D03*
X107300000Y-105050000D03*
%TO.N,P0.31_AIN7_BAT*%
X107100000Y-100800000D03*
X120400000Y-99500000D03*
%TO.N,INTERNAL_I2C_SCL*%
X110580000Y-104930000D03*
%TO.N,INTERNAL_I2C_SDA*%
X111800000Y-105070000D03*
%TO.N,DEC4*%
X114170000Y-93110000D03*
X105959998Y-101469998D03*
X109270000Y-96170607D03*
%TO.N,USB_D-*%
X119500000Y-102850000D03*
X110200000Y-124700000D03*
%TO.N,USB_D+*%
X119500000Y-101800000D03*
X110998231Y-124753215D03*
%TO.N,P0.09{slash}NFC1*%
X103233563Y-99005778D03*
X111920000Y-95400000D03*
%TO.N,P1.00_PDM_CLK*%
X115201000Y-95775225D03*
%TO.N,P0.16_PDM_DATA*%
X116400000Y-101050000D03*
%TO.N,P0.22_QSPI_SIO_2*%
X115913397Y-98061927D03*
%TO.N,SWDCLK*%
X105326473Y-98125000D03*
X113200000Y-95850000D03*
%TO.N,SWDIO*%
X103851838Y-98405778D03*
X114000000Y-95850000D03*
%TO.N,P0.20_QSPI_SIO_0*%
X117014316Y-97152690D03*
%TO.N,P0.23_QSPI_SIO_3*%
X114344387Y-107693027D03*
%TO.N,P0.24_QSPI_SIO_1*%
X115797571Y-96308242D03*
%TO.N,P0.21_QSPI_SCK*%
X105070000Y-109160000D03*
%TO.N,P0.25_QSPI_CSN*%
X115272239Y-107425000D03*
%TO.N,P0.10{slash}NFC2*%
X111791932Y-94610316D03*
%TO.N,GND*%
X103700000Y-111930948D03*
X106850000Y-109650000D03*
X109041587Y-108000233D03*
X106950000Y-112250000D03*
X116190000Y-93140000D03*
X117850000Y-106450000D03*
X120630000Y-112410000D03*
X108800000Y-91000000D03*
X105500000Y-108300000D03*
X108650000Y-121450000D03*
X104091000Y-104146627D03*
X109450000Y-119800000D03*
X105600000Y-118900000D03*
X113640000Y-93840000D03*
X102950000Y-94250000D03*
X116000000Y-94750000D03*
X108750000Y-94000000D03*
X112200000Y-91150000D03*
X113350000Y-121500000D03*
X123160000Y-105130000D03*
X118450000Y-115550000D03*
X106080000Y-92050000D03*
X114800000Y-122050000D03*
X108700000Y-116750000D03*
X120100000Y-118450000D03*
X116500000Y-100000000D03*
X112675000Y-89675000D03*
X108750000Y-92600000D03*
X107300000Y-99350000D03*
X114900000Y-110950000D03*
X112200000Y-92650000D03*
X118550000Y-104250000D03*
X114900000Y-117700000D03*
X107169669Y-122180331D03*
X106600000Y-101950000D03*
X105800000Y-95200000D03*
%TD*%
D19*
%TO.N,VIN*%
X113753098Y-120808975D02*
X109500000Y-116555877D01*
X109500000Y-116555877D02*
X109500000Y-115350000D01*
%TO.N,3V3*%
X113550000Y-104500000D02*
X113550000Y-105900000D01*
X103615918Y-103149000D02*
X107881000Y-103149000D01*
X113253691Y-95010000D02*
X112103007Y-93859316D01*
X111480857Y-93859316D02*
X110021000Y-95319173D01*
X104100000Y-117550000D02*
X102638999Y-116088999D01*
X115649000Y-99601000D02*
X116750000Y-98500000D01*
X112103007Y-93859316D02*
X111480857Y-93859316D01*
X114080000Y-95010000D02*
X113253691Y-95010000D01*
X102522459Y-104242459D02*
X103615918Y-103149000D01*
X109000000Y-98950000D02*
X109000000Y-102030000D01*
X117620000Y-98500000D02*
X120350000Y-98500000D01*
X113550000Y-105900000D02*
X113100000Y-106350000D01*
X109700000Y-106100000D02*
X112850000Y-106100000D01*
X109000000Y-103200000D02*
X107900000Y-104300000D01*
X100050000Y-106640000D02*
X100124918Y-106640000D01*
X113100000Y-106791000D02*
X112960000Y-106931000D01*
X102638999Y-116088999D02*
X102638999Y-107710341D01*
X112850000Y-106100000D02*
X113100000Y-106350000D01*
X113100000Y-106350000D02*
X113100000Y-106791000D01*
X115649000Y-101351000D02*
X115649000Y-99601000D01*
X117620000Y-98500000D02*
X117730000Y-98500000D01*
X109000000Y-102030000D02*
X109000000Y-103200000D01*
X107900000Y-104300000D02*
X109700000Y-106100000D01*
X114300000Y-105150000D02*
X114300000Y-102700000D01*
X107100000Y-98450000D02*
X108500000Y-98450000D01*
X115150000Y-100030000D02*
X115220000Y-100030000D01*
X116750000Y-98500000D02*
X117620000Y-98500000D01*
X102638999Y-107710341D02*
X103173633Y-107175707D01*
X113550000Y-105900000D02*
X114300000Y-105150000D01*
X114300000Y-102700000D02*
X115649000Y-101351000D01*
X107881000Y-103149000D02*
X109000000Y-102030000D01*
X115220000Y-100030000D02*
X115649000Y-99601000D01*
X110021000Y-96929000D02*
X108500000Y-98450000D01*
X101982459Y-104242459D02*
X102522459Y-104242459D01*
X110021000Y-95319173D02*
X110021000Y-96929000D01*
X103173633Y-107175707D02*
X104235707Y-107175707D01*
X108500000Y-98450000D02*
X109000000Y-98950000D01*
X101750000Y-104010000D02*
X101982459Y-104242459D01*
X100124918Y-106640000D02*
X102522459Y-104242459D01*
%TO.N,VBUS*%
X109168636Y-110430000D02*
X104636028Y-110430000D01*
X102030000Y-102330000D02*
X102290000Y-102590000D01*
X114745000Y-109665000D02*
X115450000Y-110370000D01*
X115450000Y-110370000D02*
X122360000Y-110370000D01*
X100050000Y-95210000D02*
X100124918Y-95210000D01*
X108487925Y-122350000D02*
X107650000Y-121512075D01*
X114985000Y-109665000D02*
X113990000Y-109665000D01*
X107400000Y-114450000D02*
X114498256Y-114450000D01*
X106850000Y-113900000D02*
X107400000Y-114450000D01*
X109933636Y-109665000D02*
X109168636Y-110430000D01*
X107650000Y-121512075D02*
X107650000Y-121000000D01*
X113990000Y-109665000D02*
X114745000Y-109665000D01*
X104636028Y-110430000D02*
X104401000Y-110194972D01*
X106850000Y-113900000D02*
X106850000Y-114400000D01*
X122360000Y-110370000D02*
X123770000Y-108960000D01*
X102030000Y-97115082D02*
X102030000Y-102330000D01*
X113990000Y-109665000D02*
X109933636Y-109665000D01*
X114498256Y-114450000D02*
X114629923Y-114581667D01*
X106850000Y-120200000D02*
X107650000Y-121000000D01*
X113600000Y-122350000D02*
X108487925Y-122350000D01*
X106850000Y-114400000D02*
X106850000Y-120200000D01*
X100124918Y-95210000D02*
X102030000Y-97115082D01*
%TO.N,BAT0*%
X103389999Y-108021416D02*
X103389999Y-110489999D01*
X115651000Y-117551000D02*
X115651000Y-115199000D01*
X103389999Y-110489999D02*
X106049000Y-113149000D01*
X117500000Y-119400000D02*
X115651000Y-117551000D01*
X110208636Y-113750000D02*
X115800000Y-113750000D01*
X118650000Y-113750000D02*
X119100000Y-114200000D01*
X117100000Y-113750000D02*
X118650000Y-113750000D01*
X115651000Y-115199000D02*
X117100000Y-113750000D01*
X115800000Y-113750000D02*
X117100000Y-113750000D01*
X106049000Y-113149000D02*
X109607636Y-113149000D01*
X109607636Y-113149000D02*
X110208636Y-113750000D01*
D20*
%TO.N,DEC4*%
X109270000Y-96170607D02*
X109270000Y-95290941D01*
X108529450Y-96170607D02*
X109270000Y-96170607D01*
X109270000Y-95290941D02*
X111450941Y-93110000D01*
X105959998Y-98740059D02*
X108529450Y-96170607D01*
X105959998Y-101469998D02*
X105959998Y-98740059D01*
X111450941Y-93110000D02*
X114170000Y-93110000D01*
%TO.N,P0.22_QSPI_SIO_2*%
X109290530Y-108601233D02*
X108671233Y-108601233D01*
X116765373Y-96551690D02*
X119818733Y-96551690D01*
X116487182Y-107060000D02*
X115253155Y-108294027D01*
X119818733Y-96551690D02*
X121402000Y-98134957D01*
X106771000Y-106061000D02*
X102356100Y-106061000D01*
X102356100Y-106061000D02*
X101611000Y-106806100D01*
X118089943Y-107060000D02*
X116487182Y-107060000D01*
X121402000Y-98134957D02*
X121402000Y-102815043D01*
X109597736Y-108294027D02*
X109290530Y-108601233D01*
X121402000Y-102815043D02*
X118998521Y-105218522D01*
X101611000Y-112699000D02*
X100050000Y-114260000D01*
X108671233Y-108601233D02*
X108440587Y-108370587D01*
X101611000Y-106806100D02*
X101611000Y-112699000D01*
X118998521Y-106151422D02*
X118089943Y-107060000D01*
X108440587Y-107730587D02*
X106771000Y-106061000D01*
X115253155Y-108294027D02*
X109597736Y-108294027D01*
X115913397Y-97403666D02*
X116765373Y-96551690D01*
X118998521Y-105218522D02*
X118998521Y-106151422D01*
X115913397Y-98061927D02*
X115913397Y-97403666D01*
X108440587Y-108370587D02*
X108440587Y-107730587D01*
%TO.N,P0.20_QSPI_SIO_0*%
X119852633Y-97152690D02*
X117014316Y-97152690D01*
X101210000Y-106640000D02*
X102190000Y-105660000D01*
X100050000Y-112990000D02*
X101210000Y-111830000D01*
X121001000Y-102648943D02*
X121001000Y-98301057D01*
X114760000Y-106950000D02*
X116460000Y-105250000D01*
X113656885Y-107532000D02*
X114238885Y-106950000D01*
X109423297Y-107532000D02*
X113656885Y-107532000D01*
X101210000Y-111830000D02*
X101210000Y-106640000D01*
X116460000Y-105250000D02*
X118399943Y-105250000D01*
X102190000Y-105660000D02*
X107551297Y-105660000D01*
X118399943Y-105250000D02*
X121001000Y-102648943D01*
X114238885Y-106950000D02*
X114760000Y-106950000D01*
X107551297Y-105660000D02*
X109423297Y-107532000D01*
X121001000Y-98301057D02*
X119852633Y-97152690D01*
%TO.N,P0.24_QSPI_SIO_1*%
X115797571Y-96308242D02*
X115955123Y-96150690D01*
X106604900Y-106462000D02*
X102558000Y-106462000D01*
X110697767Y-109002233D02*
X108505133Y-109002233D01*
X107921450Y-108418550D02*
X107921450Y-107778550D01*
X102012000Y-113568000D02*
X100050000Y-115530000D01*
X119442071Y-106274972D02*
X116847043Y-108870000D01*
X119442071Y-105342072D02*
X119442071Y-106274972D01*
X116847043Y-108870000D02*
X110830000Y-108870000D01*
X115955123Y-96150690D02*
X119984833Y-96150690D01*
X110830000Y-108870000D02*
X110697767Y-109002233D01*
X121803000Y-102981143D02*
X119442071Y-105342072D01*
X121803000Y-97968857D02*
X121803000Y-102981143D01*
X107921450Y-107778550D02*
X106604900Y-106462000D01*
X108505133Y-109002233D02*
X107921450Y-108418550D01*
X102558000Y-106462000D02*
X102012000Y-107008000D01*
X119984833Y-96150690D02*
X121803000Y-97968857D01*
X102012000Y-107008000D02*
X102012000Y-113568000D01*
%TD*%
%TA.AperFunction,Conductor*%
%TO.N,GND*%
G36*
X108642539Y-115220185D02*
G01*
X108688294Y-115272989D01*
X108699500Y-115324500D01*
X108699500Y-115428846D01*
X108730261Y-115583489D01*
X108730263Y-115583497D01*
X108740061Y-115607151D01*
X108749500Y-115654604D01*
X108749500Y-116629795D01*
X108749500Y-116629797D01*
X108749499Y-116629797D01*
X108778340Y-116774784D01*
X108778343Y-116774794D01*
X108834914Y-116911369D01*
X108834915Y-116911371D01*
X108834916Y-116911372D01*
X108846167Y-116928211D01*
X108867812Y-116960604D01*
X108867813Y-116960607D01*
X108917046Y-117034291D01*
X108917052Y-117034298D01*
X113007025Y-121124270D01*
X113033905Y-121164498D01*
X113043702Y-121188150D01*
X113043707Y-121188160D01*
X113131308Y-121319263D01*
X113131311Y-121319267D01*
X113199863Y-121387819D01*
X113233348Y-121449142D01*
X113228364Y-121518834D01*
X113186492Y-121574767D01*
X113121028Y-121599184D01*
X113112182Y-121599500D01*
X108850155Y-121599500D01*
X108783116Y-121579815D01*
X108762474Y-121563181D01*
X108468769Y-121269476D01*
X108435284Y-121208153D01*
X108434833Y-121157602D01*
X108434896Y-121157288D01*
X108450500Y-121078842D01*
X108450500Y-120921158D01*
X108450500Y-120921155D01*
X108450499Y-120921153D01*
X108439992Y-120868330D01*
X108419737Y-120766503D01*
X108383252Y-120678420D01*
X108359397Y-120620827D01*
X108359390Y-120620814D01*
X108271789Y-120489711D01*
X108271786Y-120489707D01*
X108160292Y-120378213D01*
X108160288Y-120378210D01*
X108029185Y-120290609D01*
X108029175Y-120290604D01*
X108005523Y-120280807D01*
X107965295Y-120253927D01*
X107636819Y-119925451D01*
X107603334Y-119864128D01*
X107600500Y-119837770D01*
X107600500Y-115324500D01*
X107620185Y-115257461D01*
X107672989Y-115211706D01*
X107724500Y-115200500D01*
X108575500Y-115200500D01*
X108642539Y-115220185D01*
G37*
%TD.AperFunction*%
%TA.AperFunction,Conductor*%
G36*
X109440373Y-111161220D02*
G01*
X109495551Y-111204082D01*
X109518796Y-111269972D01*
X109509536Y-111324060D01*
X109498343Y-111351082D01*
X109498340Y-111351092D01*
X109469500Y-111496079D01*
X109469500Y-111496082D01*
X109469500Y-111643918D01*
X109469500Y-111643920D01*
X109469499Y-111643920D01*
X109498340Y-111788907D01*
X109498343Y-111788917D01*
X109554912Y-111925488D01*
X109554919Y-111925501D01*
X109637048Y-112048415D01*
X109637051Y-112048419D01*
X109670951Y-112082319D01*
X109672002Y-112084244D01*
X109673891Y-112085361D01*
X109688670Y-112114769D01*
X109704436Y-112143642D01*
X109704279Y-112145829D01*
X109705265Y-112147790D01*
X109701799Y-112180512D01*
X109699452Y-112213334D01*
X109698064Y-112215775D01*
X109697906Y-112217271D01*
X109693227Y-112224284D01*
X109679945Y-112247653D01*
X109675719Y-112252913D01*
X109637049Y-112291584D01*
X109599408Y-112347917D01*
X109596006Y-112352153D01*
X109571624Y-112369138D01*
X109548822Y-112388195D01*
X109542329Y-112389546D01*
X109538676Y-112392092D01*
X109528235Y-112392481D01*
X109499331Y-112398500D01*
X106411229Y-112398500D01*
X106344190Y-112378815D01*
X106323548Y-112362181D01*
X105353549Y-111392181D01*
X105320064Y-111330858D01*
X105325048Y-111261166D01*
X105366920Y-111205233D01*
X105432384Y-111180816D01*
X105441230Y-111180500D01*
X109242555Y-111180500D01*
X109300043Y-111169064D01*
X109370782Y-111154993D01*
X109440373Y-111161220D01*
G37*
%TD.AperFunction*%
%TA.AperFunction,Conductor*%
G36*
X106371842Y-107082185D02*
G01*
X106392484Y-107098819D01*
X107284631Y-107990966D01*
X107318116Y-108052289D01*
X107320950Y-108078647D01*
X107320950Y-108331880D01*
X107320949Y-108331898D01*
X107320949Y-108497604D01*
X107320948Y-108497604D01*
X107361873Y-108650335D01*
X107390808Y-108700450D01*
X107390809Y-108700454D01*
X107390810Y-108700454D01*
X107440929Y-108787264D01*
X107440931Y-108787267D01*
X107559799Y-108906135D01*
X107559805Y-108906140D01*
X108024611Y-109370946D01*
X108024613Y-109370949D01*
X108121484Y-109467820D01*
X108154968Y-109529141D01*
X108154967Y-109529142D01*
X108154968Y-109529143D01*
X108149984Y-109598834D01*
X108136635Y-109616666D01*
X108108113Y-109654767D01*
X108042649Y-109679184D01*
X108033802Y-109679500D01*
X106697848Y-109679500D01*
X106630809Y-109659815D01*
X106585054Y-109607011D01*
X106576231Y-109579692D01*
X106549738Y-109446508D01*
X106549737Y-109446507D01*
X106549737Y-109446503D01*
X106529821Y-109398421D01*
X106489397Y-109300827D01*
X106489390Y-109300814D01*
X106401789Y-109169711D01*
X106401786Y-109169707D01*
X106290292Y-109058213D01*
X106290288Y-109058210D01*
X106159185Y-108970609D01*
X106159172Y-108970602D01*
X106013501Y-108910264D01*
X106013489Y-108910261D01*
X105881810Y-108884068D01*
X105819899Y-108851683D01*
X105791440Y-108809904D01*
X105779394Y-108780821D01*
X105779392Y-108780818D01*
X105779391Y-108780815D01*
X105779390Y-108780814D01*
X105691789Y-108649711D01*
X105691786Y-108649707D01*
X105580292Y-108538213D01*
X105580288Y-108538210D01*
X105449185Y-108450609D01*
X105449172Y-108450602D01*
X105303501Y-108390264D01*
X105303489Y-108390261D01*
X105148845Y-108359500D01*
X105148842Y-108359500D01*
X104991158Y-108359500D01*
X104991155Y-108359500D01*
X104836510Y-108390261D01*
X104836498Y-108390264D01*
X104690827Y-108450602D01*
X104690814Y-108450609D01*
X104559711Y-108538210D01*
X104559707Y-108538213D01*
X104448213Y-108649707D01*
X104448210Y-108649711D01*
X104367601Y-108770351D01*
X104313989Y-108815156D01*
X104244664Y-108823863D01*
X104181636Y-108793708D01*
X104144917Y-108734265D01*
X104140499Y-108701460D01*
X104140499Y-108326020D01*
X104143431Y-108299213D01*
X104145779Y-108288607D01*
X104159736Y-108254913D01*
X104190499Y-108100258D01*
X104190499Y-108086641D01*
X104193431Y-108073400D01*
X104204009Y-108054196D01*
X104210184Y-108033168D01*
X104220532Y-108024200D01*
X104227143Y-108012201D01*
X104246424Y-108001765D01*
X104262988Y-107987413D01*
X104279632Y-107983792D01*
X104288590Y-107978944D01*
X104298492Y-107979689D01*
X104308557Y-107977499D01*
X104308489Y-107976804D01*
X104314455Y-107976216D01*
X104314499Y-107976207D01*
X104314551Y-107976207D01*
X104314552Y-107976206D01*
X104469204Y-107945444D01*
X104614886Y-107885101D01*
X104745996Y-107797496D01*
X104857496Y-107685996D01*
X104945101Y-107554886D01*
X105005444Y-107409204D01*
X105036207Y-107254549D01*
X105036207Y-107186500D01*
X105055892Y-107119461D01*
X105108696Y-107073706D01*
X105160207Y-107062500D01*
X106304803Y-107062500D01*
X106371842Y-107082185D01*
G37*
%TD.AperFunction*%
%TA.AperFunction,Conductor*%
G36*
X118217885Y-105870185D02*
G01*
X118263640Y-105922989D01*
X118273584Y-105992147D01*
X118244559Y-106055703D01*
X118238527Y-106062181D01*
X117877527Y-106423181D01*
X117816204Y-106456666D01*
X117789846Y-106459500D01*
X116566244Y-106459500D01*
X116566240Y-106459499D01*
X116408125Y-106459499D01*
X116407642Y-106459628D01*
X116399057Y-106459635D01*
X116372948Y-106451990D01*
X116346069Y-106447789D01*
X116339908Y-106442316D01*
X116332002Y-106440002D01*
X116314168Y-106419453D01*
X116293831Y-106401389D01*
X116291607Y-106393457D01*
X116286206Y-106387234D01*
X116282313Y-106360307D01*
X116274970Y-106334113D01*
X116277388Y-106326235D01*
X116276210Y-106318083D01*
X116287490Y-106293331D01*
X116295476Y-106267320D01*
X116304237Y-106256583D01*
X116305185Y-106254505D01*
X116306762Y-106253489D01*
X116311277Y-106247957D01*
X116672416Y-105886819D01*
X116733739Y-105853334D01*
X116760097Y-105850500D01*
X118150846Y-105850500D01*
X118217885Y-105870185D01*
G37*
%TD.AperFunction*%
%TA.AperFunction,Conductor*%
G36*
X119502565Y-99256435D02*
G01*
X119523603Y-99257563D01*
X119535416Y-99266082D01*
X119549390Y-99270185D01*
X119563185Y-99286105D01*
X119580275Y-99298429D01*
X119585607Y-99311982D01*
X119595145Y-99322989D01*
X119598143Y-99343842D01*
X119605857Y-99363447D01*
X119604528Y-99388248D01*
X119605089Y-99392147D01*
X119603969Y-99398690D01*
X119599500Y-99421158D01*
X119599500Y-99578846D01*
X119630261Y-99733489D01*
X119630264Y-99733501D01*
X119690602Y-99879172D01*
X119690609Y-99879185D01*
X119778210Y-100010288D01*
X119778213Y-100010292D01*
X119889707Y-100121786D01*
X119889711Y-100121789D01*
X120020814Y-100209390D01*
X120020827Y-100209397D01*
X120117646Y-100249500D01*
X120166503Y-100269737D01*
X120260645Y-100288463D01*
X120300691Y-100296429D01*
X120362602Y-100328814D01*
X120397176Y-100389529D01*
X120400500Y-100418046D01*
X120400500Y-101298057D01*
X120380815Y-101365096D01*
X120328011Y-101410851D01*
X120258853Y-101420795D01*
X120195297Y-101391770D01*
X120173398Y-101366948D01*
X120121789Y-101289711D01*
X120121786Y-101289707D01*
X120010292Y-101178213D01*
X120010288Y-101178210D01*
X119879185Y-101090609D01*
X119879172Y-101090602D01*
X119733501Y-101030264D01*
X119733489Y-101030261D01*
X119578845Y-100999500D01*
X119578842Y-100999500D01*
X119421158Y-100999500D01*
X119421155Y-100999500D01*
X119266510Y-101030261D01*
X119266498Y-101030264D01*
X119120827Y-101090602D01*
X119120814Y-101090609D01*
X118989711Y-101178210D01*
X118989707Y-101178213D01*
X118878213Y-101289707D01*
X118878210Y-101289711D01*
X118790609Y-101420814D01*
X118790602Y-101420827D01*
X118730264Y-101566498D01*
X118730261Y-101566510D01*
X118699500Y-101721153D01*
X118699500Y-101878846D01*
X118730261Y-102033489D01*
X118730264Y-102033501D01*
X118790602Y-102179172D01*
X118790612Y-102179190D01*
X118842008Y-102256110D01*
X118862886Y-102322787D01*
X118844401Y-102390167D01*
X118842008Y-102393890D01*
X118790612Y-102470809D01*
X118790602Y-102470827D01*
X118730264Y-102616498D01*
X118730261Y-102616510D01*
X118699500Y-102771153D01*
X118699500Y-102928846D01*
X118730261Y-103083489D01*
X118730264Y-103083501D01*
X118790602Y-103229172D01*
X118790609Y-103229185D01*
X118878210Y-103360288D01*
X118878213Y-103360292D01*
X118989707Y-103471786D01*
X118989711Y-103471789D01*
X119067420Y-103523713D01*
X119112225Y-103577325D01*
X119120932Y-103646650D01*
X119090778Y-103709678D01*
X119086210Y-103714496D01*
X118187527Y-104613181D01*
X118126204Y-104646666D01*
X118099846Y-104649500D01*
X116539057Y-104649500D01*
X116380943Y-104649500D01*
X116228215Y-104690423D01*
X116228214Y-104690423D01*
X116228212Y-104690424D01*
X116228209Y-104690425D01*
X116186221Y-104714668D01*
X116186219Y-104714669D01*
X116091290Y-104769475D01*
X116091282Y-104769481D01*
X115068695Y-105792069D01*
X115007372Y-105825554D01*
X114937680Y-105820570D01*
X114881747Y-105778698D01*
X114857330Y-105713234D01*
X114872182Y-105644961D01*
X114879816Y-105633647D01*
X114879567Y-105633481D01*
X114965080Y-105505501D01*
X114965080Y-105505500D01*
X114965084Y-105505495D01*
X115021658Y-105368913D01*
X115050500Y-105223918D01*
X115050500Y-105076083D01*
X115050500Y-103062228D01*
X115070185Y-102995189D01*
X115086814Y-102974551D01*
X116182299Y-101879066D01*
X116243620Y-101845583D01*
X116294170Y-101845132D01*
X116321155Y-101850500D01*
X116321158Y-101850500D01*
X116478844Y-101850500D01*
X116478845Y-101850499D01*
X116633497Y-101819737D01*
X116746166Y-101773067D01*
X116779172Y-101759397D01*
X116779172Y-101759396D01*
X116779179Y-101759394D01*
X116910289Y-101671789D01*
X117021789Y-101560289D01*
X117109394Y-101429179D01*
X117112854Y-101420827D01*
X117167163Y-101289711D01*
X117169737Y-101283497D01*
X117200500Y-101128842D01*
X117200500Y-100971158D01*
X117200500Y-100971155D01*
X117200499Y-100971153D01*
X117191759Y-100927214D01*
X117169737Y-100816503D01*
X117147954Y-100763914D01*
X117109397Y-100670827D01*
X117109390Y-100670814D01*
X117021789Y-100539711D01*
X117021786Y-100539707D01*
X116910292Y-100428213D01*
X116910288Y-100428210D01*
X116779185Y-100340609D01*
X116779172Y-100340602D01*
X116633501Y-100280264D01*
X116633491Y-100280261D01*
X116499308Y-100253570D01*
X116437397Y-100221185D01*
X116402823Y-100160469D01*
X116399500Y-100131953D01*
X116399500Y-99963229D01*
X116419185Y-99896190D01*
X116435819Y-99875548D01*
X117024548Y-99286819D01*
X117085871Y-99253334D01*
X117112229Y-99250500D01*
X117546082Y-99250500D01*
X117803918Y-99250500D01*
X119482351Y-99250500D01*
X119502565Y-99256435D01*
G37*
%TD.AperFunction*%
%TA.AperFunction,Conductor*%
G36*
X105698993Y-103919185D02*
G01*
X105744748Y-103971989D01*
X105753571Y-103999309D01*
X105780261Y-104133489D01*
X105780264Y-104133501D01*
X105840602Y-104279172D01*
X105840609Y-104279185D01*
X105928210Y-104410288D01*
X105928213Y-104410292D01*
X106039707Y-104521786D01*
X106039711Y-104521789D01*
X106170814Y-104609390D01*
X106170827Y-104609397D01*
X106316498Y-104669735D01*
X106316503Y-104669737D01*
X106396135Y-104685576D01*
X106428591Y-104692033D01*
X106436611Y-104696228D01*
X106445652Y-104696713D01*
X106467089Y-104712170D01*
X106490502Y-104724418D01*
X106494980Y-104732283D01*
X106502325Y-104737579D01*
X106512001Y-104762172D01*
X106525076Y-104785133D01*
X106525268Y-104795892D01*
X106527906Y-104802597D01*
X106526017Y-104837841D01*
X106501780Y-104959691D01*
X106469396Y-105021602D01*
X106408680Y-105056176D01*
X106380163Y-105059500D01*
X103066148Y-105059500D01*
X102999109Y-105039815D01*
X102953354Y-104987011D01*
X102943410Y-104917853D01*
X102972435Y-104854297D01*
X102978467Y-104847819D01*
X103046347Y-104779939D01*
X103105411Y-104720875D01*
X103105411Y-104720874D01*
X103890466Y-103935819D01*
X103951789Y-103902334D01*
X103978147Y-103899500D01*
X105631954Y-103899500D01*
X105698993Y-103919185D01*
G37*
%TD.AperFunction*%
%TA.AperFunction,Conductor*%
G36*
X106731950Y-99164004D02*
G01*
X106842846Y-99209938D01*
X106866503Y-99219737D01*
X107012647Y-99248807D01*
X107021153Y-99250499D01*
X107021156Y-99250500D01*
X107021158Y-99250500D01*
X107178844Y-99250500D01*
X107178845Y-99250499D01*
X107300639Y-99226273D01*
X107333488Y-99219739D01*
X107333489Y-99219738D01*
X107333497Y-99219737D01*
X107357155Y-99209937D01*
X107404604Y-99200500D01*
X108125500Y-99200500D01*
X108192539Y-99220185D01*
X108238294Y-99272989D01*
X108249500Y-99324500D01*
X108249500Y-101667770D01*
X108229815Y-101734809D01*
X108213181Y-101755451D01*
X107606451Y-102362181D01*
X107545128Y-102395666D01*
X107518770Y-102398500D01*
X106420033Y-102398500D01*
X106352994Y-102378815D01*
X106307239Y-102326011D01*
X106297295Y-102256853D01*
X106326320Y-102193297D01*
X106351142Y-102171398D01*
X106418919Y-102126110D01*
X106470287Y-102091787D01*
X106581787Y-101980287D01*
X106669392Y-101849177D01*
X106671068Y-101845132D01*
X106708214Y-101755451D01*
X106729735Y-101703495D01*
X106736042Y-101671789D01*
X106736343Y-101670276D01*
X106768727Y-101608365D01*
X106829443Y-101573791D01*
X106882152Y-101572850D01*
X107021155Y-101600500D01*
X107021158Y-101600500D01*
X107178844Y-101600500D01*
X107178845Y-101600499D01*
X107333497Y-101569737D01*
X107479179Y-101509394D01*
X107610289Y-101421789D01*
X107721789Y-101310289D01*
X107809394Y-101179179D01*
X107869737Y-101033497D01*
X107900500Y-100878842D01*
X107900500Y-100721158D01*
X107900500Y-100721155D01*
X107900499Y-100721153D01*
X107890486Y-100670814D01*
X107869737Y-100566503D01*
X107858879Y-100540289D01*
X107809397Y-100420827D01*
X107809390Y-100420814D01*
X107721789Y-100289711D01*
X107721786Y-100289707D01*
X107610292Y-100178213D01*
X107610288Y-100178210D01*
X107479185Y-100090609D01*
X107479172Y-100090602D01*
X107333501Y-100030264D01*
X107333489Y-100030261D01*
X107178845Y-99999500D01*
X107178842Y-99999500D01*
X107021158Y-99999500D01*
X107021155Y-99999500D01*
X106866510Y-100030261D01*
X106866498Y-100030264D01*
X106731950Y-100085995D01*
X106662480Y-100093464D01*
X106600001Y-100062188D01*
X106564350Y-100002099D01*
X106560498Y-99971434D01*
X106560498Y-99278565D01*
X106580183Y-99211526D01*
X106632987Y-99165771D01*
X106702145Y-99155827D01*
X106731950Y-99164004D01*
G37*
%TD.AperFunction*%
%TA.AperFunction,Conductor*%
G36*
X124792539Y-89169685D02*
G01*
X124838294Y-89222489D01*
X124849500Y-89274000D01*
X124849500Y-127496948D01*
X124849351Y-127503033D01*
X124831743Y-127861432D01*
X124830550Y-127873542D01*
X124778347Y-128225467D01*
X124775973Y-128237402D01*
X124689526Y-128582518D01*
X124685994Y-128594162D01*
X124580142Y-128890000D01*
X124566142Y-128929127D01*
X124561485Y-128940370D01*
X124409366Y-129262000D01*
X124403629Y-129272732D01*
X124220729Y-129577881D01*
X124213969Y-129587999D01*
X124002028Y-129873769D01*
X123994308Y-129883175D01*
X123755388Y-130146783D01*
X123746783Y-130155388D01*
X123483175Y-130394308D01*
X123473769Y-130402028D01*
X123187999Y-130613969D01*
X123177881Y-130620729D01*
X122872732Y-130803629D01*
X122862000Y-130809366D01*
X122540370Y-130961485D01*
X122529134Y-130966139D01*
X122405442Y-131010397D01*
X122194162Y-131085994D01*
X122182518Y-131089526D01*
X121837402Y-131175973D01*
X121825467Y-131178347D01*
X121473542Y-131230550D01*
X121461432Y-131231743D01*
X121123927Y-131248324D01*
X121103031Y-131249351D01*
X121096949Y-131249500D01*
X102303051Y-131249500D01*
X102296968Y-131249351D01*
X102274856Y-131248264D01*
X101938567Y-131231743D01*
X101926457Y-131230550D01*
X101574532Y-131178347D01*
X101562597Y-131175973D01*
X101217481Y-131089526D01*
X101205837Y-131085994D01*
X100870858Y-130966136D01*
X100859629Y-130961485D01*
X100537999Y-130809366D01*
X100527272Y-130803631D01*
X100222118Y-130620729D01*
X100212000Y-130613969D01*
X99926230Y-130402028D01*
X99916824Y-130394308D01*
X99722650Y-130218319D01*
X99653209Y-130155381D01*
X99644618Y-130146790D01*
X99405691Y-129883175D01*
X99397971Y-129873769D01*
X99186030Y-129587999D01*
X99179270Y-129577881D01*
X99118316Y-129476185D01*
X98996363Y-129272720D01*
X98990639Y-129262012D01*
X98838511Y-128940363D01*
X98833867Y-128929151D01*
X98714000Y-128594147D01*
X98710473Y-128582518D01*
X98624023Y-128237389D01*
X98621652Y-128225467D01*
X98569449Y-127873542D01*
X98568257Y-127861439D01*
X98567917Y-127854527D01*
X98567917Y-127854525D01*
X98567916Y-127854523D01*
X98567816Y-127852486D01*
X99519500Y-127852486D01*
X99519500Y-128147513D01*
X99531335Y-128237402D01*
X99558007Y-128439993D01*
X99629228Y-128705796D01*
X99634361Y-128724951D01*
X99634364Y-128724961D01*
X99747254Y-128997500D01*
X99747258Y-128997510D01*
X99894761Y-129252993D01*
X100074352Y-129487040D01*
X100074358Y-129487047D01*
X100282952Y-129695641D01*
X100282959Y-129695647D01*
X100517006Y-129875238D01*
X100772489Y-130022741D01*
X100772490Y-130022741D01*
X100772493Y-130022743D01*
X101045048Y-130135639D01*
X101330007Y-130211993D01*
X101622494Y-130250500D01*
X101622501Y-130250500D01*
X101917499Y-130250500D01*
X101917506Y-130250500D01*
X102209993Y-130211993D01*
X102494952Y-130135639D01*
X102767507Y-130022743D01*
X103022994Y-129875238D01*
X103257042Y-129695646D01*
X103465646Y-129487042D01*
X103645238Y-129252994D01*
X103792743Y-128997507D01*
X103905639Y-128724952D01*
X103981993Y-128439993D01*
X104020500Y-128147506D01*
X104020500Y-127852494D01*
X103999964Y-127696512D01*
X103999305Y-127691504D01*
X105660000Y-127691504D01*
X105660000Y-127940000D01*
X106360000Y-127940000D01*
X106360000Y-128440000D01*
X105660000Y-128440000D01*
X105660000Y-128688495D01*
X105698427Y-128881681D01*
X105698430Y-128881693D01*
X105773807Y-129063671D01*
X105773814Y-129063684D01*
X105883248Y-129227462D01*
X105883251Y-129227466D01*
X106022533Y-129366748D01*
X106022537Y-129366751D01*
X106186315Y-129476185D01*
X106186328Y-129476192D01*
X106368308Y-129551569D01*
X106410000Y-129559862D01*
X106410000Y-128756988D01*
X106419940Y-128774205D01*
X106475795Y-128830060D01*
X106544204Y-128869556D01*
X106620504Y-128890000D01*
X106699496Y-128890000D01*
X106775796Y-128869556D01*
X106844205Y-128830060D01*
X106900060Y-128774205D01*
X106910000Y-128756988D01*
X106910000Y-129559862D01*
X106951690Y-129551569D01*
X106951692Y-129551569D01*
X107133671Y-129476192D01*
X107133684Y-129476185D01*
X107297462Y-129366751D01*
X107297466Y-129366748D01*
X107436748Y-129227466D01*
X107436751Y-129227462D01*
X107546185Y-129063684D01*
X107546192Y-129063671D01*
X107621569Y-128881693D01*
X107621572Y-128881681D01*
X107659999Y-128688495D01*
X107660000Y-128688492D01*
X107660000Y-128440000D01*
X106960000Y-128440000D01*
X106960000Y-127940000D01*
X107660000Y-127940000D01*
X107660000Y-127691508D01*
X107659999Y-127691504D01*
X114300000Y-127691504D01*
X114300000Y-127940000D01*
X115000000Y-127940000D01*
X115000000Y-128440000D01*
X114300000Y-128440000D01*
X114300000Y-128688495D01*
X114338427Y-128881681D01*
X114338430Y-128881693D01*
X114413807Y-129063671D01*
X114413814Y-129063684D01*
X114523248Y-129227462D01*
X114523251Y-129227466D01*
X114662533Y-129366748D01*
X114662537Y-129366751D01*
X114826315Y-129476185D01*
X114826328Y-129476192D01*
X115008308Y-129551569D01*
X115050000Y-129559862D01*
X115050000Y-128756988D01*
X115059940Y-128774205D01*
X115115795Y-128830060D01*
X115184204Y-128869556D01*
X115260504Y-128890000D01*
X115339496Y-128890000D01*
X115415796Y-128869556D01*
X115484205Y-128830060D01*
X115540060Y-128774205D01*
X115550000Y-128756988D01*
X115550000Y-129559862D01*
X115591690Y-129551569D01*
X115591692Y-129551569D01*
X115773671Y-129476192D01*
X115773684Y-129476185D01*
X115937462Y-129366751D01*
X115937466Y-129366748D01*
X116076748Y-129227466D01*
X116076751Y-129227462D01*
X116186185Y-129063684D01*
X116186192Y-129063671D01*
X116261569Y-128881693D01*
X116261572Y-128881681D01*
X116299999Y-128688495D01*
X116300000Y-128688492D01*
X116300000Y-128440000D01*
X115600000Y-128440000D01*
X115600000Y-127940000D01*
X116300000Y-127940000D01*
X116300000Y-127852486D01*
X119449500Y-127852486D01*
X119449500Y-128147513D01*
X119461335Y-128237402D01*
X119488007Y-128439993D01*
X119559228Y-128705796D01*
X119564361Y-128724951D01*
X119564364Y-128724961D01*
X119677254Y-128997500D01*
X119677258Y-128997510D01*
X119824761Y-129252993D01*
X120004352Y-129487040D01*
X120004358Y-129487047D01*
X120212952Y-129695641D01*
X120212959Y-129695647D01*
X120447006Y-129875238D01*
X120702489Y-130022741D01*
X120702490Y-130022741D01*
X120702493Y-130022743D01*
X120975048Y-130135639D01*
X121260007Y-130211993D01*
X121552494Y-130250500D01*
X121552501Y-130250500D01*
X121847499Y-130250500D01*
X121847506Y-130250500D01*
X122139993Y-130211993D01*
X122424952Y-130135639D01*
X122697507Y-130022743D01*
X122952994Y-129875238D01*
X123187042Y-129695646D01*
X123395646Y-129487042D01*
X123575238Y-129252994D01*
X123722743Y-128997507D01*
X123835639Y-128724952D01*
X123911993Y-128439993D01*
X123950500Y-128147506D01*
X123950500Y-127852494D01*
X123911993Y-127560007D01*
X123835639Y-127275048D01*
X123722743Y-127002493D01*
X123622247Y-126828429D01*
X123575238Y-126747006D01*
X123395647Y-126512959D01*
X123395641Y-126512952D01*
X123187047Y-126304358D01*
X123187040Y-126304352D01*
X122952993Y-126124761D01*
X122697510Y-125977258D01*
X122697500Y-125977254D01*
X122424961Y-125864364D01*
X122424954Y-125864362D01*
X122424952Y-125864361D01*
X122139993Y-125788007D01*
X122091113Y-125781571D01*
X121847513Y-125749500D01*
X121847506Y-125749500D01*
X121552494Y-125749500D01*
X121552486Y-125749500D01*
X121274085Y-125786153D01*
X121260007Y-125788007D01*
X120975048Y-125864361D01*
X120975038Y-125864364D01*
X120702499Y-125977254D01*
X120702489Y-125977258D01*
X120447006Y-126124761D01*
X120212959Y-126304352D01*
X120212952Y-126304358D01*
X120004358Y-126512952D01*
X120004352Y-126512959D01*
X119824761Y-126747006D01*
X119677258Y-127002489D01*
X119677254Y-127002499D01*
X119564364Y-127275038D01*
X119564361Y-127275048D01*
X119490705Y-127549940D01*
X119488008Y-127560004D01*
X119488006Y-127560015D01*
X119449500Y-127852486D01*
X116300000Y-127852486D01*
X116300000Y-127691508D01*
X116299999Y-127691504D01*
X116261572Y-127498318D01*
X116261569Y-127498306D01*
X116186192Y-127316328D01*
X116186185Y-127316315D01*
X116076751Y-127152537D01*
X116076748Y-127152533D01*
X115937466Y-127013251D01*
X115937462Y-127013248D01*
X115773684Y-126903814D01*
X115773671Y-126903807D01*
X115591691Y-126828429D01*
X115591683Y-126828427D01*
X115550000Y-126820135D01*
X115550000Y-127623011D01*
X115540060Y-127605795D01*
X115484205Y-127549940D01*
X115415796Y-127510444D01*
X115339496Y-127490000D01*
X115260504Y-127490000D01*
X115184204Y-127510444D01*
X115115795Y-127549940D01*
X115059940Y-127605795D01*
X115050000Y-127623011D01*
X115050000Y-126820136D01*
X115049999Y-126820135D01*
X115008316Y-126828427D01*
X115008308Y-126828429D01*
X114826328Y-126903807D01*
X114826315Y-126903814D01*
X114662537Y-127013248D01*
X114662533Y-127013251D01*
X114523251Y-127152533D01*
X114523248Y-127152537D01*
X114413814Y-127316315D01*
X114413807Y-127316328D01*
X114338430Y-127498306D01*
X114338427Y-127498318D01*
X114300000Y-127691504D01*
X107659999Y-127691504D01*
X107621572Y-127498318D01*
X107621569Y-127498306D01*
X107546192Y-127316328D01*
X107546185Y-127316315D01*
X107436751Y-127152537D01*
X107436748Y-127152533D01*
X107297466Y-127013251D01*
X107297462Y-127013248D01*
X107133684Y-126903814D01*
X107133671Y-126903807D01*
X106951691Y-126828429D01*
X106951683Y-126828427D01*
X106910000Y-126820135D01*
X106910000Y-127623011D01*
X106900060Y-127605795D01*
X106844205Y-127549940D01*
X106775796Y-127510444D01*
X106699496Y-127490000D01*
X106620504Y-127490000D01*
X106544204Y-127510444D01*
X106475795Y-127549940D01*
X106419940Y-127605795D01*
X106410000Y-127623011D01*
X106410000Y-126820136D01*
X106409999Y-126820135D01*
X106368316Y-126828427D01*
X106368308Y-126828429D01*
X106186328Y-126903807D01*
X106186315Y-126903814D01*
X106022537Y-127013248D01*
X106022533Y-127013251D01*
X105883251Y-127152533D01*
X105883248Y-127152537D01*
X105773814Y-127316315D01*
X105773807Y-127316328D01*
X105698430Y-127498306D01*
X105698427Y-127498318D01*
X105660000Y-127691504D01*
X103999305Y-127691504D01*
X103988021Y-127605795D01*
X103981993Y-127560007D01*
X103905639Y-127275048D01*
X103792743Y-127002493D01*
X103692247Y-126828429D01*
X103645238Y-126747006D01*
X103465647Y-126512959D01*
X103465641Y-126512952D01*
X103257047Y-126304358D01*
X103257040Y-126304352D01*
X103022993Y-126124761D01*
X102767510Y-125977258D01*
X102767500Y-125977254D01*
X102494961Y-125864364D01*
X102494954Y-125864362D01*
X102494952Y-125864361D01*
X102209993Y-125788007D01*
X102161113Y-125781571D01*
X101917513Y-125749500D01*
X101917506Y-125749500D01*
X101622494Y-125749500D01*
X101622486Y-125749500D01*
X101344085Y-125786153D01*
X101330007Y-125788007D01*
X101045048Y-125864361D01*
X101045038Y-125864364D01*
X100772499Y-125977254D01*
X100772489Y-125977258D01*
X100517006Y-126124761D01*
X100282959Y-126304352D01*
X100282952Y-126304358D01*
X100074358Y-126512952D01*
X100074352Y-126512959D01*
X99894761Y-126747006D01*
X99747258Y-127002489D01*
X99747254Y-127002499D01*
X99634364Y-127275038D01*
X99634361Y-127275048D01*
X99560705Y-127549940D01*
X99558008Y-127560004D01*
X99558006Y-127560015D01*
X99519500Y-127852486D01*
X98567816Y-127852486D01*
X98550649Y-127503032D01*
X98550500Y-127496948D01*
X98550500Y-127445417D01*
X98550432Y-127444666D01*
X98545501Y-123361504D01*
X105660000Y-123361504D01*
X105660000Y-123760000D01*
X106360000Y-123760000D01*
X106360000Y-124260000D01*
X105660000Y-124260000D01*
X105660000Y-124658495D01*
X105698427Y-124851681D01*
X105698430Y-124851693D01*
X105773807Y-125033671D01*
X105773814Y-125033684D01*
X105883248Y-125197462D01*
X105883251Y-125197466D01*
X106022533Y-125336748D01*
X106022537Y-125336751D01*
X106186315Y-125446185D01*
X106186328Y-125446192D01*
X106368308Y-125521569D01*
X106410000Y-125529862D01*
X106410000Y-124726988D01*
X106419940Y-124744205D01*
X106475795Y-124800060D01*
X106544204Y-124839556D01*
X106620504Y-124860000D01*
X106699496Y-124860000D01*
X106775796Y-124839556D01*
X106844205Y-124800060D01*
X106900060Y-124744205D01*
X106910000Y-124726988D01*
X106910000Y-125529862D01*
X106951690Y-125521569D01*
X106951692Y-125521569D01*
X107133671Y-125446192D01*
X107133684Y-125446185D01*
X107297462Y-125336751D01*
X107297466Y-125336748D01*
X107436748Y-125197466D01*
X107436751Y-125197462D01*
X107546185Y-125033684D01*
X107546187Y-125033680D01*
X107592942Y-124920802D01*
X107636783Y-124866399D01*
X107703077Y-124844333D01*
X107770776Y-124861612D01*
X107795185Y-124880573D01*
X107801106Y-124886494D01*
X107908394Y-124948436D01*
X108028057Y-124980500D01*
X108028060Y-124980500D01*
X108151940Y-124980500D01*
X108151943Y-124980500D01*
X108271606Y-124948436D01*
X108378894Y-124886494D01*
X108466494Y-124798894D01*
X108528436Y-124691606D01*
X108547314Y-124621153D01*
X109399500Y-124621153D01*
X109399500Y-124778846D01*
X109430261Y-124933489D01*
X109430264Y-124933501D01*
X109490602Y-125079172D01*
X109490609Y-125079185D01*
X109578210Y-125210288D01*
X109578213Y-125210292D01*
X109689707Y-125321786D01*
X109689711Y-125321789D01*
X109820814Y-125409390D01*
X109820827Y-125409397D01*
X109966498Y-125469735D01*
X109966503Y-125469737D01*
X110121153Y-125500499D01*
X110121156Y-125500500D01*
X110121158Y-125500500D01*
X110278844Y-125500500D01*
X110278845Y-125500499D01*
X110433497Y-125469737D01*
X110493392Y-125444926D01*
X110562861Y-125437457D01*
X110609740Y-125456387D01*
X110619047Y-125462606D01*
X110619058Y-125462612D01*
X110761395Y-125521569D01*
X110764734Y-125522952D01*
X110919384Y-125553714D01*
X110919387Y-125553715D01*
X110919389Y-125553715D01*
X111077075Y-125553715D01*
X111077076Y-125553714D01*
X111231728Y-125522952D01*
X111377410Y-125462609D01*
X111508520Y-125375004D01*
X111620020Y-125263504D01*
X111707625Y-125132394D01*
X111767968Y-124986712D01*
X111798731Y-124832057D01*
X111798731Y-124674373D01*
X111798731Y-124674370D01*
X111798730Y-124674368D01*
X111778356Y-124571943D01*
X111767968Y-124519718D01*
X111727884Y-124422947D01*
X111707628Y-124374042D01*
X111707621Y-124374029D01*
X111620020Y-124242926D01*
X111620017Y-124242922D01*
X111508523Y-124131428D01*
X111508519Y-124131425D01*
X111377416Y-124043824D01*
X111377403Y-124043817D01*
X111231732Y-123983479D01*
X111231720Y-123983476D01*
X111077076Y-123952715D01*
X111077073Y-123952715D01*
X110919389Y-123952715D01*
X110919386Y-123952715D01*
X110764742Y-123983475D01*
X110764737Y-123983477D01*
X110764735Y-123983477D01*
X110764734Y-123983478D01*
X110747518Y-123990609D01*
X110704834Y-124008289D01*
X110635365Y-124015756D01*
X110588491Y-123996828D01*
X110579177Y-123990604D01*
X110433501Y-123930264D01*
X110433489Y-123930261D01*
X110278845Y-123899500D01*
X110278842Y-123899500D01*
X110121158Y-123899500D01*
X110121155Y-123899500D01*
X109966510Y-123930261D01*
X109966498Y-123930264D01*
X109820827Y-123990602D01*
X109820814Y-123990609D01*
X109689711Y-124078210D01*
X109689707Y-124078213D01*
X109578213Y-124189707D01*
X109578210Y-124189711D01*
X109490609Y-124320814D01*
X109490602Y-124320827D01*
X109430264Y-124466498D01*
X109430261Y-124466510D01*
X109399500Y-124621153D01*
X108547314Y-124621153D01*
X108560500Y-124571943D01*
X108560500Y-124448057D01*
X108528436Y-124328394D01*
X108466494Y-124221106D01*
X108378894Y-124133506D01*
X108271606Y-124071564D01*
X108271607Y-124071564D01*
X108241690Y-124063548D01*
X108151943Y-124039500D01*
X108028057Y-124039500D01*
X107938309Y-124063548D01*
X107908393Y-124071564D01*
X107801107Y-124133505D01*
X107801104Y-124133507D01*
X107710931Y-124223681D01*
X107649608Y-124257166D01*
X107623250Y-124260000D01*
X106960000Y-124260000D01*
X106960000Y-123760000D01*
X107660000Y-123760000D01*
X107660000Y-123361508D01*
X107659999Y-123361504D01*
X107621572Y-123168318D01*
X107621569Y-123168306D01*
X107546192Y-122986328D01*
X107546185Y-122986315D01*
X107436751Y-122822537D01*
X107436748Y-122822533D01*
X107297466Y-122683251D01*
X107297462Y-122683248D01*
X107133684Y-122573814D01*
X107133671Y-122573807D01*
X106951691Y-122498429D01*
X106951683Y-122498427D01*
X106910000Y-122490135D01*
X106910000Y-123293011D01*
X106900060Y-123275795D01*
X106844205Y-123219940D01*
X106775796Y-123180444D01*
X106699496Y-123160000D01*
X106620504Y-123160000D01*
X106544204Y-123180444D01*
X106475795Y-123219940D01*
X106419940Y-123275795D01*
X106410000Y-123293011D01*
X106410000Y-122490136D01*
X106409999Y-122490135D01*
X106368316Y-122498427D01*
X106368308Y-122498429D01*
X106186328Y-122573807D01*
X106186315Y-122573814D01*
X106022537Y-122683248D01*
X106022533Y-122683251D01*
X105883251Y-122822533D01*
X105883248Y-122822537D01*
X105773814Y-122986315D01*
X105773807Y-122986328D01*
X105698430Y-123168306D01*
X105698427Y-123168318D01*
X105660000Y-123361504D01*
X98545501Y-123361504D01*
X98542433Y-120821153D01*
X101499500Y-120821153D01*
X101499500Y-120978846D01*
X101530261Y-121133489D01*
X101530264Y-121133501D01*
X101590602Y-121279172D01*
X101590609Y-121279185D01*
X101678210Y-121410288D01*
X101678213Y-121410292D01*
X101789707Y-121521786D01*
X101789711Y-121521789D01*
X101920814Y-121609390D01*
X101920827Y-121609397D01*
X102037399Y-121657682D01*
X102066503Y-121669737D01*
X102182247Y-121692760D01*
X102221153Y-121700499D01*
X102221156Y-121700500D01*
X102221158Y-121700500D01*
X102378844Y-121700500D01*
X102378845Y-121700499D01*
X102533497Y-121669737D01*
X102679179Y-121609394D01*
X102810289Y-121521789D01*
X102921789Y-121410289D01*
X103009394Y-121279179D01*
X103069737Y-121133497D01*
X103100500Y-120978842D01*
X103100500Y-120821158D01*
X103100500Y-120821155D01*
X103100499Y-120821153D01*
X103082260Y-120729459D01*
X103069737Y-120666503D01*
X103036114Y-120585329D01*
X103009397Y-120520827D01*
X103009390Y-120520814D01*
X102921789Y-120389711D01*
X102921786Y-120389707D01*
X102810292Y-120278213D01*
X102810288Y-120278210D01*
X102679185Y-120190609D01*
X102679172Y-120190602D01*
X102533501Y-120130264D01*
X102533489Y-120130261D01*
X102378845Y-120099500D01*
X102378842Y-120099500D01*
X102221158Y-120099500D01*
X102221155Y-120099500D01*
X102066510Y-120130261D01*
X102066498Y-120130264D01*
X101920827Y-120190602D01*
X101920814Y-120190609D01*
X101789711Y-120278210D01*
X101789707Y-120278213D01*
X101678213Y-120389707D01*
X101678210Y-120389711D01*
X101590609Y-120520814D01*
X101590602Y-120520827D01*
X101530264Y-120666498D01*
X101530261Y-120666510D01*
X101499500Y-120821153D01*
X98542433Y-120821153D01*
X98538618Y-117662572D01*
X99540979Y-117662572D01*
X99576328Y-117686192D01*
X99758306Y-117761569D01*
X99758318Y-117761572D01*
X99951504Y-117799999D01*
X99951508Y-117800000D01*
X100148492Y-117800000D01*
X100148495Y-117799999D01*
X100341681Y-117761572D01*
X100341693Y-117761569D01*
X100523676Y-117686190D01*
X100523680Y-117686187D01*
X100559019Y-117662573D01*
X100559020Y-117662572D01*
X100050001Y-117153553D01*
X100050000Y-117153553D01*
X99540979Y-117662572D01*
X98538618Y-117662572D01*
X98513155Y-96578543D01*
X99049499Y-96578543D01*
X99087947Y-96771829D01*
X99087950Y-96771839D01*
X99153474Y-96930028D01*
X99163368Y-96953914D01*
X99196113Y-97002920D01*
X99224971Y-97046110D01*
X99245848Y-97112787D01*
X99227363Y-97180167D01*
X99224971Y-97183890D01*
X99163366Y-97276089D01*
X99087950Y-97458160D01*
X99087947Y-97458170D01*
X99049500Y-97651456D01*
X99049500Y-97651459D01*
X99049500Y-97848541D01*
X99049500Y-97848543D01*
X99049499Y-97848543D01*
X99087947Y-98041829D01*
X99087950Y-98041839D01*
X99162441Y-98221677D01*
X99163368Y-98223914D01*
X99178955Y-98247241D01*
X99224971Y-98316110D01*
X99245848Y-98382787D01*
X99227363Y-98450167D01*
X99224971Y-98453890D01*
X99163366Y-98546089D01*
X99087950Y-98728160D01*
X99087947Y-98728170D01*
X99049500Y-98921456D01*
X99049500Y-98921459D01*
X99049500Y-99118541D01*
X99049500Y-99118543D01*
X99049499Y-99118543D01*
X99087947Y-99311829D01*
X99087950Y-99311839D01*
X99163365Y-99493907D01*
X99163368Y-99493914D01*
X99180605Y-99519711D01*
X99224971Y-99586110D01*
X99245848Y-99652787D01*
X99227363Y-99720167D01*
X99224971Y-99723890D01*
X99163366Y-99816089D01*
X99087950Y-99998160D01*
X99087947Y-99998170D01*
X99049500Y-100191456D01*
X99049500Y-100191459D01*
X99049500Y-100388541D01*
X99049500Y-100388543D01*
X99049499Y-100388543D01*
X99087947Y-100581829D01*
X99087950Y-100581839D01*
X99153212Y-100739395D01*
X99163368Y-100763914D01*
X99203102Y-100823380D01*
X99224971Y-100856110D01*
X99245848Y-100922787D01*
X99227363Y-100990167D01*
X99224971Y-100993890D01*
X99163366Y-101086089D01*
X99087950Y-101268160D01*
X99087947Y-101268170D01*
X99049500Y-101461456D01*
X99049500Y-101461459D01*
X99049500Y-101658541D01*
X99049500Y-101658543D01*
X99049499Y-101658543D01*
X99087947Y-101851829D01*
X99087950Y-101851839D01*
X99163192Y-102033489D01*
X99163368Y-102033914D01*
X99207352Y-102099740D01*
X99224971Y-102126110D01*
X99245848Y-102192787D01*
X99227363Y-102260167D01*
X99224971Y-102263890D01*
X99163366Y-102356089D01*
X99087950Y-102538160D01*
X99087947Y-102538170D01*
X99049500Y-102731456D01*
X99049500Y-102731459D01*
X99049500Y-102928541D01*
X99049500Y-102928543D01*
X99049499Y-102928543D01*
X99087947Y-103121829D01*
X99087950Y-103121839D01*
X99161999Y-103300609D01*
X99163368Y-103303914D01*
X99207352Y-103369740D01*
X99224971Y-103396110D01*
X99245848Y-103462787D01*
X99227363Y-103530167D01*
X99224971Y-103533890D01*
X99163366Y-103626089D01*
X99087950Y-103808160D01*
X99087947Y-103808170D01*
X99049500Y-104001456D01*
X99049500Y-104001459D01*
X99049500Y-104198541D01*
X99049500Y-104198543D01*
X99049499Y-104198543D01*
X99087947Y-104391829D01*
X99087950Y-104391839D01*
X99153805Y-104550827D01*
X99163368Y-104573914D01*
X99207352Y-104639740D01*
X99224971Y-104666110D01*
X99245848Y-104732787D01*
X99227363Y-104800167D01*
X99224971Y-104803890D01*
X99163366Y-104896089D01*
X99087950Y-105078160D01*
X99087947Y-105078170D01*
X99049500Y-105271456D01*
X99049500Y-105271459D01*
X99049500Y-105468541D01*
X99049500Y-105468543D01*
X99049499Y-105468543D01*
X99087947Y-105661829D01*
X99087950Y-105661839D01*
X99155763Y-105825554D01*
X99163368Y-105843914D01*
X99180922Y-105870185D01*
X99224971Y-105936110D01*
X99245848Y-106002787D01*
X99227363Y-106070167D01*
X99224971Y-106073890D01*
X99163366Y-106166089D01*
X99087950Y-106348160D01*
X99087947Y-106348170D01*
X99049500Y-106541456D01*
X99049500Y-106541459D01*
X99049500Y-106738541D01*
X99049500Y-106738543D01*
X99049499Y-106738543D01*
X99087947Y-106931829D01*
X99087950Y-106931839D01*
X99156306Y-107096865D01*
X99163368Y-107113914D01*
X99203885Y-107174552D01*
X99225271Y-107206559D01*
X99246148Y-107273236D01*
X99227663Y-107340616D01*
X99225271Y-107344339D01*
X99163809Y-107436325D01*
X99088430Y-107618306D01*
X99088427Y-107618318D01*
X99050000Y-107811504D01*
X99050000Y-108008495D01*
X99088427Y-108201681D01*
X99088430Y-108201693D01*
X99163807Y-108383671D01*
X99163814Y-108383684D01*
X99225270Y-108475659D01*
X99246148Y-108542337D01*
X99227663Y-108609717D01*
X99225271Y-108613440D01*
X99163370Y-108706082D01*
X99163364Y-108706093D01*
X99087950Y-108888160D01*
X99087947Y-108888170D01*
X99049500Y-109081456D01*
X99049500Y-109081459D01*
X99049500Y-109278541D01*
X99049500Y-109278543D01*
X99049499Y-109278543D01*
X99087947Y-109471829D01*
X99087950Y-109471839D01*
X99142168Y-109602733D01*
X99163368Y-109653914D01*
X99207352Y-109719740D01*
X99224971Y-109746110D01*
X99245848Y-109812787D01*
X99227363Y-109880167D01*
X99224971Y-109883890D01*
X99163366Y-109976089D01*
X99087950Y-110158160D01*
X99087947Y-110158170D01*
X99049500Y-110351456D01*
X99049500Y-110351459D01*
X99049500Y-110548541D01*
X99049500Y-110548543D01*
X99049499Y-110548543D01*
X99087947Y-110741829D01*
X99087950Y-110741839D01*
X99132097Y-110848419D01*
X99163368Y-110923914D01*
X99182770Y-110952951D01*
X99224971Y-111016110D01*
X99245848Y-111082787D01*
X99227363Y-111150167D01*
X99224971Y-111153890D01*
X99163366Y-111246089D01*
X99087950Y-111428160D01*
X99087947Y-111428170D01*
X99049500Y-111621456D01*
X99049500Y-111621459D01*
X99049500Y-111818541D01*
X99049500Y-111818543D01*
X99049499Y-111818543D01*
X99087947Y-112011829D01*
X99087950Y-112011839D01*
X99160524Y-112187049D01*
X99163368Y-112193914D01*
X99176344Y-112213334D01*
X99224971Y-112286110D01*
X99245848Y-112352787D01*
X99227363Y-112420167D01*
X99224971Y-112423890D01*
X99163366Y-112516089D01*
X99087950Y-112698160D01*
X99087947Y-112698170D01*
X99049500Y-112891456D01*
X99049500Y-112891459D01*
X99049500Y-113088541D01*
X99049500Y-113088543D01*
X99049499Y-113088543D01*
X99087947Y-113281829D01*
X99087950Y-113281839D01*
X99159231Y-113453927D01*
X99163368Y-113463914D01*
X99174656Y-113480807D01*
X99224971Y-113556110D01*
X99245848Y-113622787D01*
X99227363Y-113690167D01*
X99224971Y-113693890D01*
X99163366Y-113786089D01*
X99087950Y-113968160D01*
X99087947Y-113968170D01*
X99049500Y-114161456D01*
X99049500Y-114161459D01*
X99049500Y-114358541D01*
X99049500Y-114358543D01*
X99049499Y-114358543D01*
X99087947Y-114551829D01*
X99087950Y-114551839D01*
X99157162Y-114718931D01*
X99163368Y-114733914D01*
X99175731Y-114752416D01*
X99224971Y-114826110D01*
X99245848Y-114892787D01*
X99227363Y-114960167D01*
X99224971Y-114963890D01*
X99163366Y-115056089D01*
X99087950Y-115238160D01*
X99087947Y-115238170D01*
X99049500Y-115431456D01*
X99049500Y-115431459D01*
X99049500Y-115628541D01*
X99049500Y-115628543D01*
X99049499Y-115628543D01*
X99087947Y-115821829D01*
X99087950Y-115821839D01*
X99149663Y-115970827D01*
X99163368Y-116003914D01*
X99203885Y-116064552D01*
X99225271Y-116096559D01*
X99246148Y-116163236D01*
X99227663Y-116230616D01*
X99225271Y-116234339D01*
X99163809Y-116326325D01*
X99088430Y-116508306D01*
X99088427Y-116508318D01*
X99050000Y-116701504D01*
X99050000Y-116898495D01*
X99088427Y-117091681D01*
X99088430Y-117091693D01*
X99163808Y-117273673D01*
X99163809Y-117273675D01*
X99187426Y-117309019D01*
X99725000Y-116771445D01*
X99725000Y-116842787D01*
X99747149Y-116925445D01*
X99789936Y-116999554D01*
X99850446Y-117060064D01*
X99924555Y-117102851D01*
X100007213Y-117125000D01*
X100092787Y-117125000D01*
X100175445Y-117102851D01*
X100249554Y-117060064D01*
X100310064Y-116999554D01*
X100352851Y-116925445D01*
X100375000Y-116842787D01*
X100375000Y-116771447D01*
X100912572Y-117309020D01*
X100912573Y-117309019D01*
X100936187Y-117273680D01*
X100936190Y-117273676D01*
X101011569Y-117091693D01*
X101011572Y-117091681D01*
X101049999Y-116898495D01*
X101050000Y-116898492D01*
X101050000Y-116701508D01*
X101049999Y-116701504D01*
X101011572Y-116508318D01*
X101011569Y-116508306D01*
X100936192Y-116326328D01*
X100936188Y-116326321D01*
X100874728Y-116234341D01*
X100853850Y-116167663D01*
X100872334Y-116100283D01*
X100874704Y-116096595D01*
X100936632Y-116003914D01*
X101012051Y-115821835D01*
X101045316Y-115654604D01*
X101050500Y-115628543D01*
X101050500Y-115430096D01*
X101070185Y-115363057D01*
X101086819Y-115342415D01*
X101462736Y-114966498D01*
X101676819Y-114752415D01*
X101738141Y-114718931D01*
X101807833Y-114723915D01*
X101863766Y-114765787D01*
X101888183Y-114831251D01*
X101888499Y-114840097D01*
X101888499Y-116162917D01*
X101888499Y-116162919D01*
X101888498Y-116162919D01*
X101917339Y-116307906D01*
X101917342Y-116307916D01*
X101973913Y-116444491D01*
X101973914Y-116444493D01*
X101973915Y-116444494D01*
X102005691Y-116492051D01*
X102006811Y-116493726D01*
X102006812Y-116493729D01*
X102056045Y-116567413D01*
X102056051Y-116567420D01*
X103353926Y-117865293D01*
X103380806Y-117905520D01*
X103390604Y-117929175D01*
X103390609Y-117929185D01*
X103478210Y-118060288D01*
X103478213Y-118060292D01*
X103589707Y-118171786D01*
X103589711Y-118171789D01*
X103720814Y-118259390D01*
X103720827Y-118259397D01*
X103866498Y-118319735D01*
X103866503Y-118319737D01*
X104021153Y-118350499D01*
X104021156Y-118350500D01*
X104021158Y-118350500D01*
X104178844Y-118350500D01*
X104178845Y-118350499D01*
X104333497Y-118319737D01*
X104479179Y-118259394D01*
X104610289Y-118171789D01*
X104721789Y-118060289D01*
X104809394Y-117929179D01*
X104869737Y-117783497D01*
X104900500Y-117628842D01*
X104900500Y-117471158D01*
X104900500Y-117471155D01*
X104900499Y-117471153D01*
X104869738Y-117316510D01*
X104869737Y-117316503D01*
X104869735Y-117316498D01*
X104809397Y-117170827D01*
X104809390Y-117170814D01*
X104721789Y-117039711D01*
X104721786Y-117039707D01*
X104610292Y-116928213D01*
X104610288Y-116928210D01*
X104479185Y-116840609D01*
X104479180Y-116840607D01*
X104479179Y-116840606D01*
X104455519Y-116830805D01*
X104415293Y-116803926D01*
X103425818Y-115814450D01*
X103392333Y-115753127D01*
X103389499Y-115726769D01*
X103389499Y-111850228D01*
X103409184Y-111783189D01*
X103461988Y-111737434D01*
X103531146Y-111727490D01*
X103594702Y-111756515D01*
X103601180Y-111762547D01*
X105466049Y-113627416D01*
X105528340Y-113689707D01*
X105570585Y-113731952D01*
X105693498Y-113814080D01*
X105693511Y-113814087D01*
X105830082Y-113870656D01*
X105830087Y-113870658D01*
X105830091Y-113870658D01*
X105830092Y-113870659D01*
X105954871Y-113895480D01*
X105970528Y-113903670D01*
X105987870Y-113907073D01*
X106000844Y-113919528D01*
X106016782Y-113927865D01*
X106025584Y-113943277D01*
X106038274Y-113955459D01*
X106049187Y-113984603D01*
X106051281Y-113988269D01*
X106051841Y-113990615D01*
X106080263Y-114133497D01*
X106093818Y-114166222D01*
X106096102Y-114175776D01*
X106095625Y-114185124D01*
X106099500Y-114204604D01*
X106099500Y-114473317D01*
X106079815Y-114540356D01*
X106027011Y-114586111D01*
X105957853Y-114596055D01*
X105906610Y-114576419D01*
X105778190Y-114490612D01*
X105778172Y-114490602D01*
X105632501Y-114430264D01*
X105632489Y-114430261D01*
X105477845Y-114399500D01*
X105477842Y-114399500D01*
X105320158Y-114399500D01*
X105320155Y-114399500D01*
X105165510Y-114430261D01*
X105165498Y-114430264D01*
X105019827Y-114490602D01*
X105019814Y-114490609D01*
X104888711Y-114578210D01*
X104888707Y-114578213D01*
X104777213Y-114689707D01*
X104777210Y-114689711D01*
X104689609Y-114820814D01*
X104689602Y-114820827D01*
X104629264Y-114966498D01*
X104629261Y-114966510D01*
X104598500Y-115121153D01*
X104598500Y-115278846D01*
X104629261Y-115433489D01*
X104629264Y-115433501D01*
X104689602Y-115579172D01*
X104689609Y-115579185D01*
X104777210Y-115710288D01*
X104777213Y-115710292D01*
X104888707Y-115821786D01*
X104888711Y-115821789D01*
X105019814Y-115909390D01*
X105019827Y-115909397D01*
X105165498Y-115969735D01*
X105165503Y-115969737D01*
X105320153Y-116000499D01*
X105320156Y-116000500D01*
X105320158Y-116000500D01*
X105477844Y-116000500D01*
X105477845Y-116000499D01*
X105632497Y-115969737D01*
X105778179Y-115909394D01*
X105778185Y-115909390D01*
X105906609Y-115823580D01*
X105973286Y-115802702D01*
X106040667Y-115821186D01*
X106087357Y-115873165D01*
X106099500Y-115926682D01*
X106099500Y-120273918D01*
X106099500Y-120273920D01*
X106099499Y-120273920D01*
X106128340Y-120418907D01*
X106128343Y-120418917D01*
X106184913Y-120555490D01*
X106184914Y-120555491D01*
X106184916Y-120555495D01*
X106204852Y-120585331D01*
X106228560Y-120620814D01*
X106267051Y-120678420D01*
X106267052Y-120678421D01*
X106863181Y-121274549D01*
X106896666Y-121335872D01*
X106899500Y-121362230D01*
X106899500Y-121585993D01*
X106899500Y-121585995D01*
X106899499Y-121585995D01*
X106928340Y-121730982D01*
X106928343Y-121730992D01*
X106984914Y-121867567D01*
X107017812Y-121916802D01*
X107017813Y-121916805D01*
X107067046Y-121990489D01*
X107067052Y-121990496D01*
X108009503Y-122932947D01*
X108009510Y-122932953D01*
X108067629Y-122971786D01*
X108067631Y-122971787D01*
X108067634Y-122971789D01*
X108132430Y-123015084D01*
X108269012Y-123071658D01*
X108269016Y-123071658D01*
X108269017Y-123071659D01*
X108414004Y-123100500D01*
X108414007Y-123100500D01*
X108414008Y-123100500D01*
X108561842Y-123100500D01*
X113295396Y-123100500D01*
X113342844Y-123109937D01*
X113366503Y-123119737D01*
X113366508Y-123119738D01*
X113366511Y-123119739D01*
X113521153Y-123150499D01*
X113521156Y-123150500D01*
X113521158Y-123150500D01*
X113678844Y-123150500D01*
X113678845Y-123150499D01*
X113833497Y-123119737D01*
X113979179Y-123059394D01*
X114110289Y-122971789D01*
X114197907Y-122884170D01*
X114259228Y-122850687D01*
X114328920Y-122855671D01*
X114384854Y-122897542D01*
X114409271Y-122963006D01*
X114400148Y-123019305D01*
X114338430Y-123168306D01*
X114338427Y-123168318D01*
X114300000Y-123361504D01*
X114300000Y-123760000D01*
X115000000Y-123760000D01*
X115000000Y-124260000D01*
X114336750Y-124260000D01*
X114269711Y-124240315D01*
X114249069Y-124223681D01*
X114158895Y-124133507D01*
X114158894Y-124133506D01*
X114051606Y-124071564D01*
X114051607Y-124071564D01*
X114021690Y-124063548D01*
X113931943Y-124039500D01*
X113808057Y-124039500D01*
X113718309Y-124063548D01*
X113688393Y-124071564D01*
X113581107Y-124133505D01*
X113581104Y-124133507D01*
X113493507Y-124221104D01*
X113493505Y-124221107D01*
X113431564Y-124328393D01*
X113431564Y-124328394D01*
X113399500Y-124448057D01*
X113399500Y-124571943D01*
X113431564Y-124691606D01*
X113493506Y-124798894D01*
X113581106Y-124886494D01*
X113688394Y-124948436D01*
X113808057Y-124980500D01*
X113808060Y-124980500D01*
X113931940Y-124980500D01*
X113931943Y-124980500D01*
X114051606Y-124948436D01*
X114158894Y-124886494D01*
X114164812Y-124880575D01*
X114226132Y-124847089D01*
X114295824Y-124852070D01*
X114351759Y-124893939D01*
X114367056Y-124920802D01*
X114413807Y-125033671D01*
X114413814Y-125033684D01*
X114523248Y-125197462D01*
X114523251Y-125197466D01*
X114662533Y-125336748D01*
X114662537Y-125336751D01*
X114826315Y-125446185D01*
X114826328Y-125446192D01*
X115008308Y-125521569D01*
X115050000Y-125529862D01*
X115050000Y-124726988D01*
X115059940Y-124744205D01*
X115115795Y-124800060D01*
X115184204Y-124839556D01*
X115260504Y-124860000D01*
X115339496Y-124860000D01*
X115415796Y-124839556D01*
X115484205Y-124800060D01*
X115540060Y-124744205D01*
X115550000Y-124726988D01*
X115550000Y-125529862D01*
X115591690Y-125521569D01*
X115591692Y-125521569D01*
X115773671Y-125446192D01*
X115773684Y-125446185D01*
X115937462Y-125336751D01*
X115937466Y-125336748D01*
X116076748Y-125197466D01*
X116076751Y-125197462D01*
X116186185Y-125033684D01*
X116186192Y-125033671D01*
X116261569Y-124851693D01*
X116261572Y-124851681D01*
X116299999Y-124658495D01*
X116300000Y-124658492D01*
X116300000Y-124260000D01*
X115600000Y-124260000D01*
X115600000Y-123760000D01*
X116300000Y-123760000D01*
X116300000Y-123361508D01*
X116299999Y-123361504D01*
X116261572Y-123168318D01*
X116261569Y-123168306D01*
X116186192Y-122986328D01*
X116186185Y-122986315D01*
X116076751Y-122822537D01*
X116076748Y-122822533D01*
X115937466Y-122683251D01*
X115937462Y-122683248D01*
X115773684Y-122573814D01*
X115773671Y-122573807D01*
X115591691Y-122498429D01*
X115591683Y-122498427D01*
X115550000Y-122490135D01*
X115550000Y-123293011D01*
X115540060Y-123275795D01*
X115484205Y-123219940D01*
X115415796Y-123180444D01*
X115339496Y-123160000D01*
X115260504Y-123160000D01*
X115184204Y-123180444D01*
X115115795Y-123219940D01*
X115059940Y-123275795D01*
X115050000Y-123293011D01*
X115050000Y-122490136D01*
X115049999Y-122490135D01*
X115008316Y-122498427D01*
X115008308Y-122498429D01*
X114826328Y-122573807D01*
X114826315Y-122573814D01*
X114662537Y-122683248D01*
X114532964Y-122812821D01*
X114471641Y-122846305D01*
X114401949Y-122841321D01*
X114346016Y-122799449D01*
X114321599Y-122733985D01*
X114330721Y-122677689D01*
X114369737Y-122583497D01*
X114400500Y-122428842D01*
X114400500Y-122271158D01*
X114400500Y-122271155D01*
X114400499Y-122271153D01*
X114369738Y-122116510D01*
X114369737Y-122116503D01*
X114317541Y-121990489D01*
X114309397Y-121970827D01*
X114309390Y-121970814D01*
X114221789Y-121839711D01*
X114221786Y-121839707D01*
X114167055Y-121784976D01*
X114167003Y-121784925D01*
X114110289Y-121728211D01*
X114106735Y-121725836D01*
X114099427Y-121718671D01*
X114088981Y-121699983D01*
X118599500Y-121699983D01*
X118599500Y-123000001D01*
X118599501Y-123000018D01*
X118610000Y-123102796D01*
X118610001Y-123102799D01*
X118648818Y-123219940D01*
X118665186Y-123269334D01*
X118757288Y-123418656D01*
X118881344Y-123542712D01*
X119030666Y-123634814D01*
X119197203Y-123689999D01*
X119299991Y-123700500D01*
X120900008Y-123700499D01*
X121002797Y-123689999D01*
X121169334Y-123634814D01*
X121318656Y-123542712D01*
X121442712Y-123418656D01*
X121534814Y-123269334D01*
X121589999Y-123102797D01*
X121600500Y-123000009D01*
X121600499Y-121699992D01*
X121597408Y-121669737D01*
X121589999Y-121597203D01*
X121589998Y-121597200D01*
X121534845Y-121430761D01*
X121534814Y-121430666D01*
X121442712Y-121281344D01*
X121318656Y-121157288D01*
X121169334Y-121065186D01*
X121169332Y-121065185D01*
X121163440Y-121061551D01*
X121116716Y-121009603D01*
X121105493Y-120940641D01*
X121133337Y-120876558D01*
X121140856Y-120868330D01*
X121279728Y-120729458D01*
X121404620Y-120557557D01*
X121501095Y-120368217D01*
X121566757Y-120166129D01*
X121566757Y-120166126D01*
X121577231Y-120100000D01*
X120533012Y-120100000D01*
X120565925Y-120042993D01*
X120600000Y-119915826D01*
X120600000Y-119784174D01*
X120565925Y-119657007D01*
X120533012Y-119600000D01*
X121577231Y-119600000D01*
X121566757Y-119533873D01*
X121566757Y-119533870D01*
X121501095Y-119331782D01*
X121404620Y-119142442D01*
X121279727Y-118970540D01*
X121279723Y-118970535D01*
X121129464Y-118820276D01*
X121129459Y-118820272D01*
X120957557Y-118695379D01*
X120768217Y-118598904D01*
X120566129Y-118533242D01*
X120356246Y-118500000D01*
X120350000Y-118500000D01*
X120350000Y-119416988D01*
X120292993Y-119384075D01*
X120165826Y-119350000D01*
X120034174Y-119350000D01*
X119907007Y-119384075D01*
X119850000Y-119416988D01*
X119850000Y-118500000D01*
X119843754Y-118500000D01*
X119633872Y-118533242D01*
X119633869Y-118533242D01*
X119431782Y-118598904D01*
X119242442Y-118695379D01*
X119070540Y-118820272D01*
X119070535Y-118820276D01*
X118920276Y-118970535D01*
X118920272Y-118970540D01*
X118795379Y-119142442D01*
X118698904Y-119331782D01*
X118633242Y-119533870D01*
X118633242Y-119533873D01*
X118622769Y-119600000D01*
X119666988Y-119600000D01*
X119634075Y-119657007D01*
X119600000Y-119784174D01*
X119600000Y-119915826D01*
X119634075Y-120042993D01*
X119666988Y-120100000D01*
X118622769Y-120100000D01*
X118633242Y-120166126D01*
X118633242Y-120166129D01*
X118698904Y-120368217D01*
X118795379Y-120557557D01*
X118920272Y-120729459D01*
X118920276Y-120729464D01*
X119059143Y-120868331D01*
X119092628Y-120929654D01*
X119087644Y-120999346D01*
X119045772Y-121055279D01*
X119036559Y-121061551D01*
X118881342Y-121157289D01*
X118757289Y-121281342D01*
X118665187Y-121430663D01*
X118665185Y-121430668D01*
X118637349Y-121514670D01*
X118610001Y-121597203D01*
X118610001Y-121597204D01*
X118610000Y-121597204D01*
X118599500Y-121699983D01*
X114088981Y-121699983D01*
X114084944Y-121692760D01*
X114068237Y-121668231D01*
X114068086Y-121662599D01*
X114065338Y-121657682D01*
X114067162Y-121628061D01*
X114066369Y-121598386D01*
X114069287Y-121593565D01*
X114069634Y-121587944D01*
X114087181Y-121564013D01*
X114102559Y-121538619D01*
X114109303Y-121533847D01*
X114110951Y-121531600D01*
X114114296Y-121530314D01*
X114127793Y-121520765D01*
X114132266Y-121518373D01*
X114132277Y-121518369D01*
X114263387Y-121430764D01*
X114374887Y-121319264D01*
X114462492Y-121188154D01*
X114522835Y-121042472D01*
X114553598Y-120887817D01*
X114553598Y-120730133D01*
X114553598Y-120730130D01*
X114553597Y-120730128D01*
X114543312Y-120678421D01*
X114522835Y-120575478D01*
X114500193Y-120520814D01*
X114462495Y-120429802D01*
X114462488Y-120429789D01*
X114374887Y-120298686D01*
X114374884Y-120298682D01*
X114263390Y-120187188D01*
X114263386Y-120187185D01*
X114132283Y-120099584D01*
X114132273Y-120099579D01*
X114108621Y-120089782D01*
X114068393Y-120062902D01*
X110286819Y-116281328D01*
X110281263Y-116271153D01*
X113049500Y-116271153D01*
X113049500Y-116428846D01*
X113080261Y-116583489D01*
X113080264Y-116583501D01*
X113140602Y-116729172D01*
X113140609Y-116729185D01*
X113228210Y-116860288D01*
X113228213Y-116860292D01*
X113339707Y-116971786D01*
X113339711Y-116971789D01*
X113470814Y-117059390D01*
X113470827Y-117059397D01*
X113548769Y-117091681D01*
X113616503Y-117119737D01*
X113771153Y-117150499D01*
X113771156Y-117150500D01*
X113771158Y-117150500D01*
X113928844Y-117150500D01*
X113928845Y-117150499D01*
X114083497Y-117119737D01*
X114196166Y-117073067D01*
X114229172Y-117059397D01*
X114229172Y-117059396D01*
X114229179Y-117059394D01*
X114360289Y-116971789D01*
X114471789Y-116860289D01*
X114559394Y-116729179D01*
X114619737Y-116583497D01*
X114650500Y-116428842D01*
X114650500Y-116271158D01*
X114650500Y-116271155D01*
X114650499Y-116271153D01*
X114645299Y-116245009D01*
X114619737Y-116116503D01*
X114573105Y-116003922D01*
X114559397Y-115970827D01*
X114559390Y-115970814D01*
X114471789Y-115839711D01*
X114471786Y-115839707D01*
X114360292Y-115728213D01*
X114360288Y-115728210D01*
X114229185Y-115640609D01*
X114229172Y-115640602D01*
X114083501Y-115580264D01*
X114083489Y-115580261D01*
X113928845Y-115549500D01*
X113928842Y-115549500D01*
X113771158Y-115549500D01*
X113771155Y-115549500D01*
X113616510Y-115580261D01*
X113616498Y-115580264D01*
X113470827Y-115640602D01*
X113470814Y-115640609D01*
X113339711Y-115728210D01*
X113339707Y-115728213D01*
X113228213Y-115839707D01*
X113228210Y-115839711D01*
X113140609Y-115970814D01*
X113140602Y-115970827D01*
X113080264Y-116116498D01*
X113080261Y-116116510D01*
X113049500Y-116271153D01*
X110281263Y-116271153D01*
X110253334Y-116220005D01*
X110250500Y-116193647D01*
X110250500Y-115654604D01*
X110259939Y-115607151D01*
X110266012Y-115592489D01*
X110269737Y-115583497D01*
X110300500Y-115428842D01*
X110300500Y-115324500D01*
X110320185Y-115257461D01*
X110372989Y-115211706D01*
X110424500Y-115200500D01*
X114077594Y-115200500D01*
X114144633Y-115220185D01*
X114146485Y-115221398D01*
X114250737Y-115291057D01*
X114250750Y-115291064D01*
X114374724Y-115342415D01*
X114396426Y-115351404D01*
X114507540Y-115373506D01*
X114551076Y-115382166D01*
X114551079Y-115382167D01*
X114551081Y-115382167D01*
X114708767Y-115382167D01*
X114752308Y-115373506D01*
X114821900Y-115379733D01*
X114877077Y-115422596D01*
X114900322Y-115488485D01*
X114900500Y-115495123D01*
X114900500Y-117624918D01*
X114900500Y-117624920D01*
X114900499Y-117624920D01*
X114929340Y-117769907D01*
X114929343Y-117769917D01*
X114985912Y-117906488D01*
X114985921Y-117906504D01*
X115001070Y-117929175D01*
X115001071Y-117929179D01*
X115001072Y-117929179D01*
X115068046Y-118029414D01*
X115068052Y-118029421D01*
X116753927Y-119715295D01*
X116780807Y-119755523D01*
X116790604Y-119779175D01*
X116790609Y-119779185D01*
X116878210Y-119910288D01*
X116878213Y-119910292D01*
X116989707Y-120021786D01*
X116989711Y-120021789D01*
X117120814Y-120109390D01*
X117120827Y-120109397D01*
X117257785Y-120166126D01*
X117266503Y-120169737D01*
X117421153Y-120200499D01*
X117421156Y-120200500D01*
X117421158Y-120200500D01*
X117578844Y-120200500D01*
X117578845Y-120200499D01*
X117733497Y-120169737D01*
X117879179Y-120109394D01*
X118010289Y-120021789D01*
X118121789Y-119910289D01*
X118209394Y-119779179D01*
X118269737Y-119633497D01*
X118300500Y-119478842D01*
X118300500Y-119321158D01*
X118300500Y-119321155D01*
X118300499Y-119321153D01*
X118269738Y-119166510D01*
X118269737Y-119166503D01*
X118259771Y-119142442D01*
X118209397Y-119020827D01*
X118209390Y-119020814D01*
X118121789Y-118889711D01*
X118121786Y-118889707D01*
X118010292Y-118778213D01*
X118010288Y-118778210D01*
X117879185Y-118690609D01*
X117879175Y-118690604D01*
X117855523Y-118680807D01*
X117815295Y-118653927D01*
X116437819Y-117276451D01*
X116404334Y-117215128D01*
X116401500Y-117188770D01*
X116401500Y-115561229D01*
X116421185Y-115494190D01*
X116437819Y-115473548D01*
X117374548Y-114536819D01*
X117435871Y-114503334D01*
X117462229Y-114500500D01*
X118275162Y-114500500D01*
X118342201Y-114520185D01*
X118387956Y-114572989D01*
X118389722Y-114577046D01*
X118390604Y-114579177D01*
X118390607Y-114579182D01*
X118478210Y-114710288D01*
X118478213Y-114710292D01*
X118589707Y-114821786D01*
X118589711Y-114821789D01*
X118720814Y-114909390D01*
X118720827Y-114909397D01*
X118852387Y-114963890D01*
X118866503Y-114969737D01*
X119021153Y-115000499D01*
X119021156Y-115000500D01*
X119021158Y-115000500D01*
X119178844Y-115000500D01*
X119178845Y-115000499D01*
X119333497Y-114969737D01*
X119479179Y-114909394D01*
X119610289Y-114821789D01*
X119721789Y-114710289D01*
X119809394Y-114579179D01*
X119869737Y-114433497D01*
X119900500Y-114278842D01*
X119900500Y-114121158D01*
X119900500Y-114121155D01*
X119900499Y-114121153D01*
X119869737Y-113966503D01*
X119869735Y-113966498D01*
X119809397Y-113820827D01*
X119809390Y-113820814D01*
X119721789Y-113689711D01*
X119721786Y-113689707D01*
X119610292Y-113578213D01*
X119610288Y-113578210D01*
X119479182Y-113490607D01*
X119455522Y-113480807D01*
X119415296Y-113453929D01*
X119128416Y-113167048D01*
X119128415Y-113167047D01*
X119128414Y-113167046D01*
X119054729Y-113117812D01*
X119054729Y-113117813D01*
X119005491Y-113084913D01*
X118868917Y-113028343D01*
X118868907Y-113028340D01*
X118723920Y-112999500D01*
X118723918Y-112999500D01*
X117173918Y-112999500D01*
X116104604Y-112999500D01*
X116057155Y-112990062D01*
X116033497Y-112980263D01*
X116033493Y-112980262D01*
X116033488Y-112980260D01*
X115878845Y-112949500D01*
X115878842Y-112949500D01*
X115721158Y-112949500D01*
X115721155Y-112949500D01*
X115566511Y-112980260D01*
X115566506Y-112980262D01*
X115566504Y-112980262D01*
X115566503Y-112980263D01*
X115542844Y-112990062D01*
X115495396Y-112999500D01*
X112490647Y-112999500D01*
X112423608Y-112979815D01*
X112377853Y-112927011D01*
X112367909Y-112857853D01*
X112369031Y-112851304D01*
X112370500Y-112843920D01*
X112370500Y-112696079D01*
X112341659Y-112551092D01*
X112341658Y-112551091D01*
X112341658Y-112551087D01*
X112341656Y-112551082D01*
X112285087Y-112414511D01*
X112285080Y-112414498D01*
X112202951Y-112291584D01*
X112202948Y-112291580D01*
X112169049Y-112257681D01*
X112135564Y-112196358D01*
X112140548Y-112126666D01*
X112169049Y-112082319D01*
X112202948Y-112048419D01*
X112202951Y-112048416D01*
X112285084Y-111925495D01*
X112341658Y-111788913D01*
X112370500Y-111643918D01*
X112370500Y-111496082D01*
X112370500Y-111496079D01*
X112341659Y-111351092D01*
X112341658Y-111351091D01*
X112341658Y-111351087D01*
X112304412Y-111261166D01*
X112285087Y-111214511D01*
X112285080Y-111214498D01*
X112202951Y-111091584D01*
X112202948Y-111091580D01*
X112169049Y-111057681D01*
X112135564Y-110996358D01*
X112140548Y-110926666D01*
X112169049Y-110882319D01*
X112202948Y-110848419D01*
X112202951Y-110848416D01*
X112285084Y-110725495D01*
X112341658Y-110588913D01*
X112344832Y-110572953D01*
X112356300Y-110515308D01*
X112388685Y-110453397D01*
X112449402Y-110418823D01*
X112477917Y-110415500D01*
X113916082Y-110415500D01*
X114382770Y-110415500D01*
X114449809Y-110435185D01*
X114470451Y-110451819D01*
X114971583Y-110952951D01*
X114977659Y-110957010D01*
X114996351Y-110969500D01*
X115094505Y-111035084D01*
X115151080Y-111058518D01*
X115231088Y-111091659D01*
X115347241Y-111114763D01*
X115366468Y-111118587D01*
X115376081Y-111120500D01*
X115376082Y-111120500D01*
X122433920Y-111120500D01*
X122531462Y-111101096D01*
X122578913Y-111091658D01*
X122715495Y-111035084D01*
X122787385Y-110987049D01*
X122838416Y-110952952D01*
X124085295Y-109706070D01*
X124125519Y-109679193D01*
X124149179Y-109669394D01*
X124280289Y-109581789D01*
X124391789Y-109470289D01*
X124479394Y-109339179D01*
X124539737Y-109193497D01*
X124570500Y-109038842D01*
X124570500Y-108881158D01*
X124570500Y-108881155D01*
X124570499Y-108881153D01*
X124551824Y-108787267D01*
X124539737Y-108726503D01*
X124531280Y-108706086D01*
X124479397Y-108580827D01*
X124479390Y-108580814D01*
X124391789Y-108449711D01*
X124391786Y-108449707D01*
X124280292Y-108338213D01*
X124280288Y-108338210D01*
X124149185Y-108250609D01*
X124149172Y-108250602D01*
X124003501Y-108190264D01*
X124003489Y-108190261D01*
X123848845Y-108159500D01*
X123848842Y-108159500D01*
X123691158Y-108159500D01*
X123691155Y-108159500D01*
X123536510Y-108190261D01*
X123536498Y-108190264D01*
X123390827Y-108250602D01*
X123390814Y-108250609D01*
X123259711Y-108338210D01*
X123259707Y-108338213D01*
X123148213Y-108449707D01*
X123148207Y-108449715D01*
X123060607Y-108580818D01*
X123060605Y-108580822D01*
X123050805Y-108604480D01*
X123023927Y-108644704D01*
X122085451Y-109583181D01*
X122024128Y-109616666D01*
X121997770Y-109619500D01*
X117212646Y-109619500D01*
X117145607Y-109599815D01*
X117099852Y-109547011D01*
X117089908Y-109477853D01*
X117118933Y-109414297D01*
X117150646Y-109388113D01*
X117187895Y-109366607D01*
X117215759Y-109350520D01*
X117327563Y-109238716D01*
X117327563Y-109238714D01*
X117337767Y-109228511D01*
X117337771Y-109228506D01*
X117683866Y-108882410D01*
X117745187Y-108848927D01*
X117814879Y-108853911D01*
X117870812Y-108895783D01*
X117874818Y-108902074D01*
X117875036Y-108901929D01*
X117966025Y-109038103D01*
X117966028Y-109038107D01*
X118077522Y-109149601D01*
X118077526Y-109149604D01*
X118208629Y-109237205D01*
X118208642Y-109237212D01*
X118354313Y-109297550D01*
X118354318Y-109297552D01*
X118508968Y-109328314D01*
X118508971Y-109328315D01*
X118508973Y-109328315D01*
X118666659Y-109328315D01*
X118666660Y-109328314D01*
X118821312Y-109297552D01*
X118966994Y-109237209D01*
X119098104Y-109149604D01*
X119209604Y-109038104D01*
X119297209Y-108906994D01*
X119357552Y-108761312D01*
X119388315Y-108606657D01*
X119388315Y-108448973D01*
X119388315Y-108448970D01*
X119388314Y-108448968D01*
X119375328Y-108383684D01*
X119357552Y-108294318D01*
X119339446Y-108250606D01*
X119297212Y-108148642D01*
X119297205Y-108148629D01*
X119209604Y-108017526D01*
X119209601Y-108017522D01*
X119098107Y-107906028D01*
X119098103Y-107906025D01*
X118961929Y-107815036D01*
X118963404Y-107812828D01*
X118921769Y-107771893D01*
X118906338Y-107703749D01*
X118930199Y-107638080D01*
X118942404Y-107623872D01*
X119922591Y-106643688D01*
X120001648Y-106506757D01*
X120042572Y-106354029D01*
X120042572Y-106195914D01*
X120042572Y-106188319D01*
X120042571Y-106188301D01*
X120042571Y-105642168D01*
X120062256Y-105575129D01*
X120078885Y-105554492D01*
X122161506Y-103471870D01*
X122161511Y-103471867D01*
X122171714Y-103461663D01*
X122171716Y-103461663D01*
X122283520Y-103349859D01*
X122353198Y-103229172D01*
X122356808Y-103222920D01*
X122356809Y-103222919D01*
X122359149Y-103218864D01*
X122362577Y-103212928D01*
X122403501Y-103060200D01*
X122403501Y-102902086D01*
X122403501Y-102894491D01*
X122403500Y-102894473D01*
X122403500Y-97889800D01*
X122401995Y-97884186D01*
X122401992Y-97884175D01*
X122387826Y-97831305D01*
X122375148Y-97783991D01*
X122362577Y-97737073D01*
X122346325Y-97708924D01*
X122283524Y-97600147D01*
X122283521Y-97600143D01*
X122283520Y-97600141D01*
X122171716Y-97488337D01*
X122171715Y-97488336D01*
X122167385Y-97484006D01*
X122167374Y-97483996D01*
X120472423Y-95789045D01*
X120472421Y-95789042D01*
X120353550Y-95670171D01*
X120353542Y-95670165D01*
X120251116Y-95611030D01*
X120251114Y-95611029D01*
X120216623Y-95591115D01*
X120216622Y-95591114D01*
X120204096Y-95587757D01*
X120063890Y-95550189D01*
X119905776Y-95550189D01*
X119898180Y-95550189D01*
X119898164Y-95550190D01*
X119824849Y-95550190D01*
X119757810Y-95530505D01*
X119712055Y-95477701D01*
X119702111Y-95408543D01*
X119710288Y-95378738D01*
X119749735Y-95283501D01*
X119749737Y-95283497D01*
X119780500Y-95128842D01*
X119780500Y-94971158D01*
X119780500Y-94971155D01*
X119780499Y-94971153D01*
X119749737Y-94816503D01*
X119747217Y-94810419D01*
X119689397Y-94670827D01*
X119689390Y-94670814D01*
X119601789Y-94539711D01*
X119601786Y-94539707D01*
X119490292Y-94428213D01*
X119490288Y-94428210D01*
X119359185Y-94340609D01*
X119359172Y-94340602D01*
X119213501Y-94280264D01*
X119213489Y-94280261D01*
X119058845Y-94249500D01*
X119058842Y-94249500D01*
X118901158Y-94249500D01*
X118901155Y-94249500D01*
X118746510Y-94280261D01*
X118746498Y-94280264D01*
X118600827Y-94340602D01*
X118600814Y-94340609D01*
X118469711Y-94428210D01*
X118469707Y-94428213D01*
X118358213Y-94539707D01*
X118358210Y-94539711D01*
X118270609Y-94670814D01*
X118270602Y-94670827D01*
X118210264Y-94816498D01*
X118210261Y-94816510D01*
X118179500Y-94971153D01*
X118179500Y-95128846D01*
X118210261Y-95283489D01*
X118210264Y-95283501D01*
X118249712Y-95378738D01*
X118257181Y-95448208D01*
X118225905Y-95510687D01*
X118165816Y-95546338D01*
X118135151Y-95550190D01*
X116083943Y-95550190D01*
X116082306Y-95549937D01*
X116081472Y-95550165D01*
X116075045Y-95548820D01*
X116046644Y-95544447D01*
X116041484Y-95542819D01*
X116031068Y-95538505D01*
X116022231Y-95536747D01*
X116015763Y-95534707D01*
X115992151Y-95518859D01*
X115966957Y-95505679D01*
X115962276Y-95498808D01*
X115957749Y-95495769D01*
X115953465Y-95485871D01*
X115938501Y-95463902D01*
X115910397Y-95396052D01*
X115910390Y-95396039D01*
X115822789Y-95264936D01*
X115822786Y-95264932D01*
X115711292Y-95153438D01*
X115711288Y-95153435D01*
X115580185Y-95065834D01*
X115580172Y-95065827D01*
X115434501Y-95005489D01*
X115434489Y-95005486D01*
X115279845Y-94974725D01*
X115279842Y-94974725D01*
X115122158Y-94974725D01*
X115122153Y-94974725D01*
X115019651Y-94995114D01*
X114950059Y-94988887D01*
X114894882Y-94946024D01*
X114873843Y-94897688D01*
X114857695Y-94816510D01*
X114849737Y-94776503D01*
X114805965Y-94670827D01*
X114789397Y-94630827D01*
X114789390Y-94630814D01*
X114701789Y-94499711D01*
X114701786Y-94499707D01*
X114590292Y-94388213D01*
X114590288Y-94388210D01*
X114459185Y-94300609D01*
X114459172Y-94300602D01*
X114313501Y-94240264D01*
X114313489Y-94240261D01*
X114158845Y-94209500D01*
X114158842Y-94209500D01*
X114001158Y-94209500D01*
X114001155Y-94209500D01*
X113846511Y-94240260D01*
X113846506Y-94240262D01*
X113846504Y-94240262D01*
X113846503Y-94240263D01*
X113822844Y-94250062D01*
X113814670Y-94251688D01*
X113810331Y-94254477D01*
X113775396Y-94259500D01*
X113615921Y-94259500D01*
X113548882Y-94239815D01*
X113528240Y-94223181D01*
X113227240Y-93922181D01*
X113193755Y-93860858D01*
X113198739Y-93791166D01*
X113240611Y-93735233D01*
X113306075Y-93710816D01*
X113314921Y-93710500D01*
X113590234Y-93710500D01*
X113657273Y-93730185D01*
X113659125Y-93731398D01*
X113790814Y-93819390D01*
X113790827Y-93819397D01*
X113936498Y-93879735D01*
X113936503Y-93879737D01*
X114091153Y-93910499D01*
X114091156Y-93910500D01*
X114091158Y-93910500D01*
X114248844Y-93910500D01*
X114248845Y-93910499D01*
X114403497Y-93879737D01*
X114549179Y-93819394D01*
X114680289Y-93731789D01*
X114791789Y-93620289D01*
X114879394Y-93489179D01*
X114939737Y-93343497D01*
X114970500Y-93188842D01*
X114970500Y-93031158D01*
X114970500Y-93031155D01*
X114970499Y-93031153D01*
X114939738Y-92876510D01*
X114939737Y-92876503D01*
X114939735Y-92876498D01*
X114879397Y-92730827D01*
X114879390Y-92730814D01*
X114791789Y-92599711D01*
X114791786Y-92599707D01*
X114680292Y-92488213D01*
X114680288Y-92488210D01*
X114549185Y-92400609D01*
X114549172Y-92400602D01*
X114403501Y-92340264D01*
X114403489Y-92340261D01*
X114248845Y-92309500D01*
X114248842Y-92309500D01*
X114091158Y-92309500D01*
X114091155Y-92309500D01*
X113936510Y-92340261D01*
X113936498Y-92340264D01*
X113790827Y-92400602D01*
X113790814Y-92400609D01*
X113659125Y-92488602D01*
X113592447Y-92509480D01*
X113590234Y-92509500D01*
X111371881Y-92509500D01*
X111330960Y-92520464D01*
X111330960Y-92520465D01*
X111293692Y-92530451D01*
X111219155Y-92550423D01*
X111219150Y-92550426D01*
X111082231Y-92629475D01*
X111082223Y-92629481D01*
X108789481Y-94922223D01*
X108789479Y-94922226D01*
X108741409Y-95005488D01*
X108741408Y-95005489D01*
X108716166Y-95049209D01*
X108710423Y-95059156D01*
X108669499Y-95211884D01*
X108669499Y-95211886D01*
X108669499Y-95379987D01*
X108669500Y-95380000D01*
X108669500Y-95446106D01*
X108649815Y-95513145D01*
X108597011Y-95558900D01*
X108545500Y-95570106D01*
X108450393Y-95570106D01*
X108343037Y-95598872D01*
X108297660Y-95611031D01*
X108297659Y-95611032D01*
X108247546Y-95639966D01*
X108247545Y-95639967D01*
X108204139Y-95665027D01*
X108160735Y-95690086D01*
X108160732Y-95690088D01*
X108048928Y-95801893D01*
X106170397Y-97680423D01*
X106109074Y-97713908D01*
X106039382Y-97708924D01*
X105983449Y-97667052D01*
X105979624Y-97661648D01*
X105948262Y-97614711D01*
X105948260Y-97614708D01*
X105836765Y-97503213D01*
X105836761Y-97503210D01*
X105705658Y-97415609D01*
X105705645Y-97415602D01*
X105559974Y-97355264D01*
X105559962Y-97355261D01*
X105405318Y-97324500D01*
X105405315Y-97324500D01*
X105247631Y-97324500D01*
X105247628Y-97324500D01*
X105092983Y-97355261D01*
X105092971Y-97355264D01*
X104947300Y-97415602D01*
X104947287Y-97415609D01*
X104816184Y-97503210D01*
X104816180Y-97503213D01*
X104704686Y-97614707D01*
X104704683Y-97614711D01*
X104617082Y-97745814D01*
X104617077Y-97745824D01*
X104602244Y-97781635D01*
X104558403Y-97836038D01*
X104492108Y-97858103D01*
X104424409Y-97840824D01*
X104400002Y-97821863D01*
X104362130Y-97783991D01*
X104362126Y-97783988D01*
X104231023Y-97696387D01*
X104231010Y-97696380D01*
X104085339Y-97636042D01*
X104085327Y-97636039D01*
X103930683Y-97605278D01*
X103930680Y-97605278D01*
X103772996Y-97605278D01*
X103772993Y-97605278D01*
X103618348Y-97636039D01*
X103618336Y-97636042D01*
X103472665Y-97696380D01*
X103472652Y-97696387D01*
X103341549Y-97783988D01*
X103341545Y-97783991D01*
X103230051Y-97895485D01*
X103230048Y-97895489D01*
X103142447Y-98026592D01*
X103142442Y-98026601D01*
X103086049Y-98162748D01*
X103042208Y-98217151D01*
X103016526Y-98230827D01*
X103006365Y-98234787D01*
X103000066Y-98236041D01*
X102950736Y-98256473D01*
X102949538Y-98256941D01*
X102915967Y-98259838D01*
X102882483Y-98263439D01*
X102881273Y-98262833D01*
X102879927Y-98262950D01*
X102850124Y-98247241D01*
X102820004Y-98232164D01*
X102819314Y-98231001D01*
X102818118Y-98230371D01*
X102801538Y-98201042D01*
X102784352Y-98172075D01*
X102784120Y-98170228D01*
X102783735Y-98169547D01*
X102783828Y-98167904D01*
X102780500Y-98141409D01*
X102780500Y-97041161D01*
X102751659Y-96896174D01*
X102751658Y-96896173D01*
X102751658Y-96896169D01*
X102719501Y-96818534D01*
X102695087Y-96759593D01*
X102695083Y-96759586D01*
X102662009Y-96710087D01*
X102662008Y-96710085D01*
X102612956Y-96636671D01*
X102612952Y-96636666D01*
X101086818Y-95110532D01*
X101053333Y-95049209D01*
X101050499Y-95022851D01*
X101050499Y-94662129D01*
X101050498Y-94662123D01*
X101050497Y-94662116D01*
X101044091Y-94602517D01*
X101020664Y-94539707D01*
X100993797Y-94467671D01*
X100993793Y-94467664D01*
X100907547Y-94352455D01*
X100907544Y-94352452D01*
X100792335Y-94266206D01*
X100792328Y-94266202D01*
X100657482Y-94215908D01*
X100657483Y-94215908D01*
X100597883Y-94209501D01*
X100597881Y-94209500D01*
X100597873Y-94209500D01*
X100597864Y-94209500D01*
X99502129Y-94209500D01*
X99502123Y-94209501D01*
X99442516Y-94215908D01*
X99307671Y-94266202D01*
X99307664Y-94266206D01*
X99192455Y-94352452D01*
X99192452Y-94352455D01*
X99106206Y-94467664D01*
X99106202Y-94467671D01*
X99055908Y-94602517D01*
X99052865Y-94630827D01*
X99049501Y-94662123D01*
X99049500Y-94662135D01*
X99049500Y-95757870D01*
X99049501Y-95757876D01*
X99055908Y-95817483D01*
X99106202Y-95952328D01*
X99106206Y-95952335D01*
X99115023Y-95964113D01*
X99139440Y-96029578D01*
X99130318Y-96085874D01*
X99087948Y-96188168D01*
X99087947Y-96188171D01*
X99049500Y-96381456D01*
X99049500Y-96381459D01*
X99049500Y-96578541D01*
X99049500Y-96578543D01*
X99049499Y-96578543D01*
X98513155Y-96578543D01*
X98507205Y-91652486D01*
X99499500Y-91652486D01*
X99499500Y-91947513D01*
X99531571Y-92191113D01*
X99538007Y-92239993D01*
X99613159Y-92520465D01*
X99614361Y-92524951D01*
X99614364Y-92524961D01*
X99727254Y-92797500D01*
X99727258Y-92797510D01*
X99874761Y-93052993D01*
X100054352Y-93287040D01*
X100054358Y-93287047D01*
X100262952Y-93495641D01*
X100262959Y-93495647D01*
X100497006Y-93675238D01*
X100752489Y-93822741D01*
X100752490Y-93822741D01*
X100752493Y-93822743D01*
X100844511Y-93860858D01*
X100992557Y-93922181D01*
X101025048Y-93935639D01*
X101310007Y-94011993D01*
X101602494Y-94050500D01*
X101602501Y-94050500D01*
X101897499Y-94050500D01*
X101897506Y-94050500D01*
X102189993Y-94011993D01*
X102474952Y-93935639D01*
X102747507Y-93822743D01*
X103002994Y-93675238D01*
X103237042Y-93495646D01*
X103445646Y-93287042D01*
X103625238Y-93052994D01*
X103772743Y-92797507D01*
X103885639Y-92524952D01*
X103961993Y-92239993D01*
X104000500Y-91947506D01*
X104000500Y-91652494D01*
X104000499Y-91652486D01*
X119449500Y-91652486D01*
X119449500Y-91947513D01*
X119481571Y-92191113D01*
X119488007Y-92239993D01*
X119563159Y-92520465D01*
X119564361Y-92524951D01*
X119564364Y-92524961D01*
X119677254Y-92797500D01*
X119677258Y-92797510D01*
X119824761Y-93052993D01*
X120004352Y-93287040D01*
X120004358Y-93287047D01*
X120212952Y-93495641D01*
X120212959Y-93495647D01*
X120447006Y-93675238D01*
X120702489Y-93822741D01*
X120702490Y-93822741D01*
X120702493Y-93822743D01*
X120794511Y-93860858D01*
X120942557Y-93922181D01*
X120975048Y-93935639D01*
X121260007Y-94011993D01*
X121552494Y-94050500D01*
X121552501Y-94050500D01*
X121847499Y-94050500D01*
X121847506Y-94050500D01*
X122139993Y-94011993D01*
X122424952Y-93935639D01*
X122697507Y-93822743D01*
X122952994Y-93675238D01*
X123187042Y-93495646D01*
X123395646Y-93287042D01*
X123575238Y-93052994D01*
X123722743Y-92797507D01*
X123835639Y-92524952D01*
X123911993Y-92239993D01*
X123950500Y-91947506D01*
X123950500Y-91652494D01*
X123911993Y-91360007D01*
X123835639Y-91075048D01*
X123722743Y-90802493D01*
X123575238Y-90547006D01*
X123395646Y-90312958D01*
X123395641Y-90312952D01*
X123187047Y-90104358D01*
X123187040Y-90104352D01*
X122952993Y-89924761D01*
X122697510Y-89777258D01*
X122697500Y-89777254D01*
X122424961Y-89664364D01*
X122424954Y-89664362D01*
X122424952Y-89664361D01*
X122139993Y-89588007D01*
X122091113Y-89581571D01*
X121847513Y-89549500D01*
X121847506Y-89549500D01*
X121552494Y-89549500D01*
X121552486Y-89549500D01*
X121274085Y-89586153D01*
X121260007Y-89588007D01*
X120975048Y-89664361D01*
X120975038Y-89664364D01*
X120702499Y-89777254D01*
X120702489Y-89777258D01*
X120447006Y-89924761D01*
X120212959Y-90104352D01*
X120212952Y-90104358D01*
X120004358Y-90312952D01*
X120004352Y-90312959D01*
X119824761Y-90547006D01*
X119677258Y-90802489D01*
X119677254Y-90802499D01*
X119564364Y-91075038D01*
X119564361Y-91075048D01*
X119488008Y-91360004D01*
X119488006Y-91360015D01*
X119449500Y-91652486D01*
X104000499Y-91652486D01*
X103961993Y-91360007D01*
X103885639Y-91075048D01*
X103772743Y-90802493D01*
X103625238Y-90547006D01*
X103445646Y-90312958D01*
X103445641Y-90312952D01*
X103237047Y-90104358D01*
X103237040Y-90104352D01*
X103002993Y-89924761D01*
X102747510Y-89777258D01*
X102747500Y-89777254D01*
X102474961Y-89664364D01*
X102474954Y-89664362D01*
X102474952Y-89664361D01*
X102189993Y-89588007D01*
X102141113Y-89581571D01*
X101897513Y-89549500D01*
X101897506Y-89549500D01*
X101602494Y-89549500D01*
X101602486Y-89549500D01*
X101324085Y-89586153D01*
X101310007Y-89588007D01*
X101025048Y-89664361D01*
X101025038Y-89664364D01*
X100752499Y-89777254D01*
X100752489Y-89777258D01*
X100497006Y-89924761D01*
X100262959Y-90104352D01*
X100262952Y-90104358D01*
X100054358Y-90312952D01*
X100054352Y-90312959D01*
X99874761Y-90547006D01*
X99727258Y-90802489D01*
X99727254Y-90802499D01*
X99614364Y-91075038D01*
X99614361Y-91075048D01*
X99538008Y-91360004D01*
X99538006Y-91360015D01*
X99499500Y-91652486D01*
X98507205Y-91652486D01*
X98504333Y-89274149D01*
X98523937Y-89207087D01*
X98576685Y-89161268D01*
X98628333Y-89150000D01*
X124725500Y-89150000D01*
X124792539Y-89169685D01*
G37*
%TD.AperFunction*%
%TD*%
M02*
