%TF.GenerationSoftware,KiCad,Pcbnew,9.0.7*%
%TF.CreationDate,2026-03-25T18:17:34+01:00*%
%TF.ProjectId,SnapCore-Devboard-Rev1,536e6170-436f-4726-952d-446576626f61,rev?*%
%TF.SameCoordinates,Original*%
%TF.FileFunction,Copper,L3,Inr*%
%TF.FilePolarity,Positive*%
%FSLAX46Y46*%
G04 Gerber Fmt 4.6, Leading zero omitted, Abs format (unit mm)*
G04 Created by KiCad (PCBNEW 9.0.7) date 2026-03-25 18:17:34*
%MOMM*%
%LPD*%
G01*
G04 APERTURE LIST*
G04 Aperture macros list*
%AMRoundRect*
0 Rectangle with rounded corners*
0 $1 Rounding radius*
0 $2 $3 $4 $5 $6 $7 $8 $9 X,Y pos of 4 corners*
0 Add a 4 corners polygon primitive as box body*
4,1,4,$2,$3,$4,$5,$6,$7,$8,$9,$2,$3,0*
0 Add four circle primitives for the rounded corners*
1,1,$1+$1,$2,$3*
1,1,$1+$1,$4,$5*
1,1,$1+$1,$6,$7*
1,1,$1+$1,$8,$9*
0 Add four rect primitives between the rounded corners*
20,1,$1+$1,$2,$3,$4,$5,0*
20,1,$1+$1,$4,$5,$6,$7,0*
20,1,$1+$1,$6,$7,$8,$9,0*
20,1,$1+$1,$8,$9,$2,$3,0*%
G04 Aperture macros list end*
%TA.AperFunction,ComponentPad*%
%ADD10C,3.500000*%
%TD*%
%TA.AperFunction,ComponentPad*%
%ADD11RoundRect,0.250000X0.750000X-0.600000X0.750000X0.600000X-0.750000X0.600000X-0.750000X-0.600000X0*%
%TD*%
%TA.AperFunction,ComponentPad*%
%ADD12O,2.000000X1.700000*%
%TD*%
%TA.AperFunction,HeatsinkPad*%
%ADD13O,1.000000X2.100000*%
%TD*%
%TA.AperFunction,HeatsinkPad*%
%ADD14O,1.000000X1.800000*%
%TD*%
%TA.AperFunction,ComponentPad*%
%ADD15R,1.000000X1.000000*%
%TD*%
%TA.AperFunction,ComponentPad*%
%ADD16C,1.000000*%
%TD*%
%TA.AperFunction,ViaPad*%
%ADD17C,0.600000*%
%TD*%
%TA.AperFunction,Conductor*%
%ADD18C,0.500000*%
%TD*%
%TA.AperFunction,Conductor*%
%ADD19C,0.200000*%
%TD*%
G04 APERTURE END LIST*
D10*
%TO.N,N/C*%
%TO.C,H2*%
X121700000Y-91800000D03*
%TD*%
%TO.N,N/C*%
%TO.C,H3*%
X121700000Y-128000000D03*
%TD*%
D11*
%TO.N,Net-(BAT_CONN1-Pin_1)*%
%TO.C,BAT*%
X121600000Y-114850000D03*
D12*
%TO.N,GND*%
X121600000Y-112350000D03*
%TD*%
D13*
%TO.N,GND*%
%TO.C,J2*%
X106660000Y-124010000D03*
D14*
X106660000Y-128190000D03*
D13*
X115300000Y-124010000D03*
D14*
X115300000Y-128190000D03*
%TD*%
D10*
%TO.N,N/C*%
%TO.C,H4*%
X101750000Y-91800000D03*
%TD*%
%TO.N,N/C*%
%TO.C,H1*%
X101770000Y-128000000D03*
%TD*%
D15*
%TO.N,VBUS*%
%TO.C,J3*%
X100050000Y-95210000D03*
D16*
%TO.N,INTERNAL_I2C_SDA*%
X100050000Y-96480000D03*
%TO.N,INTERNAL_I2C_SCL*%
X100050000Y-97750000D03*
%TO.N,P0.16_PDM_DATA*%
X100050000Y-99020000D03*
%TO.N,P1.00_PDM_CLK*%
X100050000Y-100290000D03*
%TO.N,SWDCLK*%
X100050000Y-101560000D03*
%TO.N,SWDIO*%
X100050000Y-102830000D03*
%TO.N,P0.09{slash}NFC1*%
X100050000Y-104100000D03*
%TO.N,P0.10{slash}NFC2*%
X100050000Y-105370000D03*
%TO.N,3V3*%
X100050000Y-106640000D03*
%TO.N,GND*%
X100050000Y-107910000D03*
%TO.N,P0.23_QSPI_SIO_3*%
X100050000Y-109180000D03*
%TO.N,P0.25_QSPI_CSN*%
X100050000Y-110450000D03*
%TO.N,P0.21_QSPI_SCK*%
X100050000Y-111720000D03*
%TO.N,P0.20_QSPI_SIO_0*%
X100050000Y-112990000D03*
%TO.N,P0.22_QSPI_SIO_2*%
X100050000Y-114260000D03*
%TO.N,P0.24_QSPI_SIO_1*%
X100050000Y-115530000D03*
%TO.N,P0.04_AIN2_A4_D4*%
X100050000Y-116800000D03*
%TD*%
D17*
%TO.N,Net-(U4-PROG)*%
X115100000Y-112800000D03*
%TO.N,ANT_H23*%
X108800000Y-94399000D03*
%TO.N,BAT0*%
X121200000Y-108500000D03*
%TO.N,RESET*%
X118980000Y-95050000D03*
%TO.N,VBUS*%
X121032080Y-106932080D03*
%TO.N,VIN*%
X109500000Y-115350000D03*
X113753098Y-120808975D03*
%TO.N,3V3*%
X120350000Y-98500000D03*
X114080000Y-95010000D03*
X112960000Y-106931000D03*
X115150000Y-100030000D03*
X104235707Y-107175707D03*
X101750000Y-104010000D03*
X107900000Y-104300000D03*
X107100000Y-98450000D03*
X113850000Y-116350000D03*
X113550000Y-104500000D03*
X104100000Y-117550000D03*
%TO.N,VBUS*%
X114629923Y-114581667D03*
X113600000Y-122350000D03*
X104401000Y-110194972D03*
X102290000Y-102590000D03*
X117600000Y-121600000D03*
X115800000Y-109500000D03*
X107650000Y-121000000D03*
%TO.N,BAT0*%
X106800000Y-113900000D03*
X117500000Y-119400000D03*
X103389999Y-108021416D03*
X115100000Y-116200000D03*
%TO.N,RESET*%
X102300000Y-120900000D03*
X107600000Y-110500000D03*
X118587815Y-108527815D03*
%TO.N,Net-(U1-DEC1)*%
X106550000Y-103900000D03*
X107300000Y-105050000D03*
%TO.N,P0.31_AIN7_BAT*%
X107100000Y-100800000D03*
X120400000Y-99500000D03*
%TO.N,INTERNAL_I2C_SCL*%
X111210878Y-105249407D03*
%TO.N,P0.04_AIN2_A4_D4*%
X105400000Y-109900000D03*
%TO.N,INTERNAL_I2C_SDA*%
X112114429Y-105330000D03*
%TO.N,DEC4*%
X114170000Y-93110000D03*
X105959998Y-101469998D03*
X109270000Y-96170607D03*
%TO.N,USB_D-*%
X119500000Y-102850000D03*
X110200000Y-124700000D03*
%TO.N,USB_D+*%
X119500000Y-101800000D03*
X110998231Y-124753215D03*
%TO.N,P0.09{slash}NFC1*%
X103233563Y-99005778D03*
X111920000Y-95400000D03*
%TO.N,P1.00_PDM_CLK*%
X115201000Y-95775225D03*
%TO.N,P0.16_PDM_DATA*%
X116400000Y-101050000D03*
%TO.N,P0.22_QSPI_SIO_2*%
X115913397Y-98061927D03*
%TO.N,SWDCLK*%
X105326473Y-98125000D03*
X113200000Y-95850000D03*
%TO.N,SWDIO*%
X103851838Y-98405778D03*
X114000000Y-95850000D03*
%TO.N,P0.20_QSPI_SIO_0*%
X117014316Y-97152690D03*
%TO.N,P0.23_QSPI_SIO_3*%
X114344387Y-107693027D03*
%TO.N,P0.24_QSPI_SIO_1*%
X115797571Y-96308242D03*
%TO.N,P0.21_QSPI_SCK*%
X105070000Y-109160000D03*
%TO.N,P0.25_QSPI_CSN*%
X115272239Y-107425000D03*
%TO.N,P0.10{slash}NFC2*%
X111791932Y-94610316D03*
%TO.N,GND*%
X103700000Y-111930948D03*
X118750000Y-91175000D03*
X116190000Y-93140000D03*
X124100000Y-89700000D03*
X105800000Y-95200000D03*
X117850000Y-106450000D03*
X108800000Y-91000000D03*
X108650000Y-121450000D03*
X118800000Y-89700000D03*
X104091000Y-104146627D03*
X114225000Y-91150000D03*
X105100000Y-91125000D03*
X105350000Y-89650000D03*
X109450000Y-119800000D03*
X116375000Y-89700000D03*
X105600000Y-118900000D03*
X113640000Y-93840000D03*
X108500000Y-112300000D03*
X118800000Y-113300000D03*
X102950000Y-94250000D03*
X103450000Y-89650000D03*
X116000000Y-94750000D03*
X112200000Y-91150000D03*
X113350000Y-121500000D03*
X107100000Y-91000000D03*
X106080000Y-92050000D03*
X114800000Y-122050000D03*
X114200000Y-89700000D03*
X106000000Y-108400000D03*
X108700000Y-116750000D03*
X107050000Y-89650000D03*
X115900000Y-112800000D03*
X116500000Y-100000000D03*
X112675000Y-89675000D03*
X108750000Y-92600000D03*
X108575000Y-89650000D03*
X109975000Y-89650000D03*
X107300000Y-99350000D03*
X112200000Y-92650000D03*
X118550000Y-104250000D03*
X114900000Y-117700000D03*
X116400000Y-91175000D03*
X107169669Y-122180331D03*
X106600000Y-101950000D03*
X99350000Y-89650000D03*
%TO.N,Net-(D3-K)*%
X117600000Y-113100000D03*
X123800000Y-124100000D03*
%TO.N,Net-(D4-K)*%
X123700000Y-121800000D03*
X118300000Y-112500000D03*
%TD*%
D18*
%TO.N,BAT0*%
X121200000Y-108500000D02*
X119551000Y-110149000D01*
X119551000Y-113611075D02*
X118621406Y-114540669D01*
X119551000Y-110149000D02*
X119551000Y-113611075D01*
X118621406Y-114540669D02*
X115651000Y-114540669D01*
%TO.N,VBUS*%
X117807705Y-110370000D02*
X121032080Y-107145625D01*
X115450000Y-110370000D02*
X117807705Y-110370000D01*
X121032080Y-107145625D02*
X121032080Y-106932080D01*
%TO.N,VIN*%
X113753098Y-120808975D02*
X109500000Y-116555877D01*
X109500000Y-116555877D02*
X109500000Y-115350000D01*
%TO.N,3V3*%
X113550000Y-104500000D02*
X113550000Y-105900000D01*
X103615918Y-103149000D02*
X107881000Y-103149000D01*
X113253691Y-95010000D02*
X112103007Y-93859316D01*
X111480857Y-93859316D02*
X110021000Y-95319173D01*
X104100000Y-117550000D02*
X102638999Y-116088999D01*
X115649000Y-99601000D02*
X116750000Y-98500000D01*
X112103007Y-93859316D02*
X111480857Y-93859316D01*
X114080000Y-95010000D02*
X113253691Y-95010000D01*
X102522459Y-104242459D02*
X103615918Y-103149000D01*
X109000000Y-98950000D02*
X109000000Y-102030000D01*
X117620000Y-98500000D02*
X120350000Y-98500000D01*
X113550000Y-105900000D02*
X113100000Y-106350000D01*
X109700000Y-106100000D02*
X112850000Y-106100000D01*
X109000000Y-103200000D02*
X107900000Y-104300000D01*
X100050000Y-106640000D02*
X100124918Y-106640000D01*
X113100000Y-106791000D02*
X112960000Y-106931000D01*
X102638999Y-116088999D02*
X102638999Y-107710341D01*
X112850000Y-106100000D02*
X113100000Y-106350000D01*
X113100000Y-106350000D02*
X113100000Y-106791000D01*
X115649000Y-101351000D02*
X115649000Y-99601000D01*
X109000000Y-102030000D02*
X109000000Y-103200000D01*
X107900000Y-104300000D02*
X109700000Y-106100000D01*
X114300000Y-105150000D02*
X114300000Y-102700000D01*
X107100000Y-98450000D02*
X108500000Y-98450000D01*
X115150000Y-100030000D02*
X115220000Y-100030000D01*
X116750000Y-98500000D02*
X117620000Y-98500000D01*
X102638999Y-107710341D02*
X103173633Y-107175707D01*
X113550000Y-105900000D02*
X114300000Y-105150000D01*
X114300000Y-102700000D02*
X115649000Y-101351000D01*
X107881000Y-103149000D02*
X109000000Y-102030000D01*
X115220000Y-100030000D02*
X115649000Y-99601000D01*
X110021000Y-96929000D02*
X108500000Y-98450000D01*
X101982459Y-104242459D02*
X102522459Y-104242459D01*
X110021000Y-95319173D02*
X110021000Y-96929000D01*
X103173633Y-107175707D02*
X104235707Y-107175707D01*
X108500000Y-98450000D02*
X109000000Y-98950000D01*
X101750000Y-104010000D02*
X101982459Y-104242459D01*
X100124918Y-106640000D02*
X102522459Y-104242459D01*
%TO.N,VBUS*%
X102030000Y-102330000D02*
X102290000Y-102590000D01*
X107898636Y-111700000D02*
X109933636Y-109665000D01*
X100050000Y-95210000D02*
X100124918Y-95210000D01*
X108487925Y-122350000D02*
X107650000Y-121512075D01*
X114910000Y-109500000D02*
X114745000Y-109665000D01*
X113000000Y-116100000D02*
X111350000Y-114450000D01*
X111350000Y-114450000D02*
X114498256Y-114450000D01*
X107650000Y-121512075D02*
X107650000Y-121000000D01*
X115450000Y-110370000D02*
X114745000Y-109665000D01*
X104636028Y-110430000D02*
X104636028Y-110436028D01*
X105900000Y-111700000D02*
X107898636Y-111700000D01*
X113000000Y-117000000D02*
X113000000Y-116100000D01*
X106850000Y-115000000D02*
X107400000Y-114450000D01*
X102030000Y-97115082D02*
X102030000Y-102330000D01*
X104401000Y-110194972D02*
X104636028Y-110430000D01*
X114498256Y-114450000D02*
X114629923Y-114581667D01*
X106850000Y-120200000D02*
X107650000Y-121000000D01*
X113600000Y-122350000D02*
X108487925Y-122350000D01*
X106850000Y-120200000D02*
X106850000Y-115000000D01*
X115800000Y-109500000D02*
X114910000Y-109500000D01*
X107400000Y-114450000D02*
X111350000Y-114450000D01*
X104636028Y-110436028D02*
X105900000Y-111700000D01*
X117600000Y-121600000D02*
X113000000Y-117000000D01*
X109933636Y-109665000D02*
X114745000Y-109665000D01*
X100124918Y-95210000D02*
X102030000Y-97115082D01*
%TO.N,BAT0*%
X103389999Y-110489999D02*
X106049000Y-113149000D01*
X115651000Y-116800000D02*
X115651000Y-117551000D01*
X106800000Y-113900000D02*
X106049000Y-113149000D01*
X115651000Y-116800000D02*
X115651000Y-116751000D01*
X114259331Y-113149000D02*
X115651000Y-114540669D01*
X115651000Y-114540669D02*
X115651000Y-116800000D01*
X106049000Y-113149000D02*
X114259331Y-113149000D01*
X115651000Y-116751000D02*
X115100000Y-116200000D01*
X103389999Y-108021416D02*
X103389999Y-110489999D01*
X115651000Y-117551000D02*
X117500000Y-119400000D01*
D19*
%TO.N,DEC4*%
X109270000Y-96170607D02*
X109270000Y-95290941D01*
X108529450Y-96170607D02*
X109270000Y-96170607D01*
X109270000Y-95290941D02*
X111450941Y-93110000D01*
X105959998Y-98740059D02*
X108529450Y-96170607D01*
X105959998Y-101469998D02*
X105959998Y-98740059D01*
X111450941Y-93110000D02*
X114170000Y-93110000D01*
%TO.N,P0.22_QSPI_SIO_2*%
X118998521Y-106151422D02*
X118998521Y-105218522D01*
X110533466Y-108469000D02*
X115078182Y-108469000D01*
X101611000Y-112699000D02*
X101611000Y-106806100D01*
X108671233Y-108601233D02*
X110401233Y-108601233D01*
X116765373Y-96551690D02*
X115913397Y-97403666D01*
X108440587Y-107730587D02*
X108440587Y-108370587D01*
X115913397Y-97403666D02*
X115913397Y-98061927D01*
X121402000Y-98134957D02*
X119818733Y-96551690D01*
X102356100Y-106061000D02*
X106771000Y-106061000D01*
X108440587Y-108370587D02*
X108671233Y-108601233D01*
X115078182Y-108469000D02*
X116487182Y-107060000D01*
X101611000Y-106806100D02*
X102356100Y-106061000D01*
X121402000Y-102815043D02*
X121402000Y-98134957D01*
X106771000Y-106061000D02*
X108440587Y-107730587D01*
X119818733Y-96551690D02*
X116765373Y-96551690D01*
X116487182Y-107060000D02*
X118089943Y-107060000D01*
X118998521Y-105218522D02*
X121402000Y-102815043D01*
X118089943Y-107060000D02*
X118998521Y-106151422D01*
X110401233Y-108601233D02*
X110533466Y-108469000D01*
X100050000Y-114260000D02*
X101611000Y-112699000D01*
%TO.N,P0.20_QSPI_SIO_0*%
X118399943Y-105250000D02*
X116460000Y-105250000D01*
X111900000Y-106900000D02*
X108791296Y-106900000D01*
X114238885Y-106950000D02*
X113656885Y-107532000D01*
X108791296Y-106900000D02*
X108445648Y-106554352D01*
X112532000Y-107532000D02*
X111900000Y-106900000D01*
X121001000Y-102648943D02*
X118399943Y-105250000D01*
X114760000Y-106950000D02*
X114238885Y-106950000D01*
X101210000Y-106640000D02*
X102190000Y-105660000D01*
X100050000Y-112990000D02*
X101210000Y-111830000D01*
X101210000Y-111830000D02*
X101210000Y-106640000D01*
X117014316Y-97152690D02*
X119852633Y-97152690D01*
X102190000Y-105660000D02*
X107551297Y-105660000D01*
X113656885Y-107532000D02*
X112532000Y-107532000D01*
X119852633Y-97152690D02*
X121001000Y-98301057D01*
X116460000Y-105250000D02*
X114760000Y-106950000D01*
X121001000Y-98301057D02*
X121001000Y-102648943D01*
X107551297Y-105660000D02*
X108445648Y-106554352D01*
%TO.N,P0.24_QSPI_SIO_1*%
X115797571Y-96308242D02*
X115955123Y-96150690D01*
X106604900Y-106462000D02*
X102558000Y-106462000D01*
X110697767Y-109002233D02*
X108505133Y-109002233D01*
X107921450Y-108418550D02*
X107921450Y-107778550D01*
X102012000Y-113568000D02*
X100050000Y-115530000D01*
X119442071Y-106274972D02*
X116847043Y-108870000D01*
X119442071Y-105342072D02*
X119442071Y-106274972D01*
X116847043Y-108870000D02*
X110830000Y-108870000D01*
X115955123Y-96150690D02*
X119984833Y-96150690D01*
X110830000Y-108870000D02*
X110697767Y-109002233D01*
X121803000Y-102981143D02*
X119442071Y-105342072D01*
X121803000Y-97968857D02*
X121803000Y-102981143D01*
X107921450Y-107778550D02*
X106604900Y-106462000D01*
X108505133Y-109002233D02*
X107921450Y-108418550D01*
X102558000Y-106462000D02*
X102012000Y-107008000D01*
X119984833Y-96150690D02*
X121803000Y-97968857D01*
X102012000Y-107008000D02*
X102012000Y-113568000D01*
%TD*%
%TA.AperFunction,Conductor*%
%TO.N,GND*%
G36*
X108642539Y-115220185D02*
G01*
X108688294Y-115272989D01*
X108699500Y-115324500D01*
X108699500Y-115428846D01*
X108730261Y-115583489D01*
X108730263Y-115583497D01*
X108740061Y-115607151D01*
X108749500Y-115654604D01*
X108749500Y-116629795D01*
X108749500Y-116629797D01*
X108749499Y-116629797D01*
X108778340Y-116774784D01*
X108778343Y-116774794D01*
X108834914Y-116911369D01*
X108834915Y-116911371D01*
X108834916Y-116911372D01*
X108846447Y-116928630D01*
X108867812Y-116960604D01*
X108867813Y-116960607D01*
X108917046Y-117034291D01*
X108917052Y-117034298D01*
X113007025Y-121124270D01*
X113033905Y-121164498D01*
X113043702Y-121188150D01*
X113043707Y-121188160D01*
X113131308Y-121319263D01*
X113131311Y-121319267D01*
X113199863Y-121387819D01*
X113233348Y-121449142D01*
X113228364Y-121518834D01*
X113186492Y-121574767D01*
X113121028Y-121599184D01*
X113112182Y-121599500D01*
X108850155Y-121599500D01*
X108783116Y-121579815D01*
X108762474Y-121563181D01*
X108468769Y-121269476D01*
X108435284Y-121208153D01*
X108434833Y-121157602D01*
X108450500Y-121078843D01*
X108450500Y-120921155D01*
X108450499Y-120921153D01*
X108440596Y-120871368D01*
X108419737Y-120766503D01*
X108383252Y-120678420D01*
X108359397Y-120620827D01*
X108359390Y-120620814D01*
X108271789Y-120489711D01*
X108271786Y-120489707D01*
X108160292Y-120378213D01*
X108160288Y-120378210D01*
X108029185Y-120290609D01*
X108029175Y-120290604D01*
X108005523Y-120280807D01*
X107965295Y-120253927D01*
X107636819Y-119925451D01*
X107603334Y-119864128D01*
X107600500Y-119837770D01*
X107600500Y-115362229D01*
X107609144Y-115332788D01*
X107615668Y-115302802D01*
X107619422Y-115297786D01*
X107620185Y-115295190D01*
X107636819Y-115274548D01*
X107674548Y-115236819D01*
X107735871Y-115203334D01*
X107762229Y-115200500D01*
X108575500Y-115200500D01*
X108642539Y-115220185D01*
G37*
%TD.AperFunction*%
%TA.AperFunction,Conductor*%
G36*
X114601157Y-116833434D02*
G01*
X114626713Y-116846512D01*
X114720821Y-116909394D01*
X114720826Y-116909396D01*
X114720828Y-116909397D01*
X114744473Y-116919191D01*
X114751406Y-116923823D01*
X114756451Y-116924921D01*
X114784705Y-116946072D01*
X114864181Y-117025548D01*
X114897666Y-117086871D01*
X114900500Y-117113229D01*
X114900500Y-117539770D01*
X114880815Y-117606809D01*
X114828011Y-117652564D01*
X114758853Y-117662508D01*
X114695297Y-117633483D01*
X114688819Y-117627451D01*
X114271027Y-117209659D01*
X114237542Y-117148336D01*
X114242526Y-117078644D01*
X114284398Y-117022711D01*
X114289785Y-117018897D01*
X114360289Y-116971789D01*
X114470144Y-116861933D01*
X114531465Y-116828450D01*
X114601157Y-116833434D01*
G37*
%TD.AperFunction*%
%TA.AperFunction,Conductor*%
G36*
X114449809Y-110435185D02*
G01*
X114470451Y-110451819D01*
X114971582Y-110952950D01*
X115006417Y-110976226D01*
X115006416Y-110976226D01*
X115094502Y-111035083D01*
X115094506Y-111035085D01*
X115144665Y-111055861D01*
X115151080Y-111058518D01*
X115231088Y-111091659D01*
X115347241Y-111114763D01*
X115370380Y-111119365D01*
X115376081Y-111120500D01*
X115376082Y-111120500D01*
X117881625Y-111120500D01*
X117990191Y-111098904D01*
X118026618Y-111091658D01*
X118163200Y-111035084D01*
X118248121Y-110978342D01*
X118286121Y-110952952D01*
X118588819Y-110650254D01*
X118650142Y-110616769D01*
X118719834Y-110621753D01*
X118775767Y-110663625D01*
X118800184Y-110729089D01*
X118800500Y-110737935D01*
X118800500Y-111655279D01*
X118780815Y-111722318D01*
X118728011Y-111768073D01*
X118658853Y-111778017D01*
X118629049Y-111769841D01*
X118550809Y-111737434D01*
X118533497Y-111730263D01*
X118533493Y-111730262D01*
X118533489Y-111730261D01*
X118378845Y-111699500D01*
X118378842Y-111699500D01*
X118221158Y-111699500D01*
X118221155Y-111699500D01*
X118066510Y-111730261D01*
X118066498Y-111730264D01*
X117920827Y-111790602D01*
X117920814Y-111790609D01*
X117789711Y-111878210D01*
X117789707Y-111878213D01*
X117678213Y-111989707D01*
X117678210Y-111989711D01*
X117590609Y-112120814D01*
X117590604Y-112120823D01*
X117541549Y-112239255D01*
X117497708Y-112293658D01*
X117451180Y-112313419D01*
X117366508Y-112330261D01*
X117366498Y-112330264D01*
X117220827Y-112390602D01*
X117220814Y-112390609D01*
X117089711Y-112478210D01*
X117089707Y-112478213D01*
X116978213Y-112589707D01*
X116978210Y-112589711D01*
X116890609Y-112720814D01*
X116890602Y-112720827D01*
X116830264Y-112866498D01*
X116830261Y-112866510D01*
X116799500Y-113021153D01*
X116799500Y-113178846D01*
X116830261Y-113333489D01*
X116830264Y-113333501D01*
X116890602Y-113479172D01*
X116890609Y-113479185D01*
X116969517Y-113597278D01*
X116990395Y-113663955D01*
X116971911Y-113731336D01*
X116919932Y-113778026D01*
X116866415Y-113790169D01*
X116013229Y-113790169D01*
X115946190Y-113770484D01*
X115925548Y-113753850D01*
X115689569Y-113517870D01*
X115656084Y-113456547D01*
X115661068Y-113386855D01*
X115689567Y-113342510D01*
X115721789Y-113310289D01*
X115809394Y-113179179D01*
X115869737Y-113033497D01*
X115900500Y-112878842D01*
X115900500Y-112721158D01*
X115900500Y-112721155D01*
X115900499Y-112721153D01*
X115874353Y-112589711D01*
X115869737Y-112566503D01*
X115848854Y-112516086D01*
X115809397Y-112420827D01*
X115809390Y-112420814D01*
X115721789Y-112289711D01*
X115721786Y-112289707D01*
X115610292Y-112178213D01*
X115610288Y-112178210D01*
X115479185Y-112090609D01*
X115479172Y-112090602D01*
X115333501Y-112030264D01*
X115333489Y-112030261D01*
X115178845Y-111999500D01*
X115178842Y-111999500D01*
X115021158Y-111999500D01*
X115021155Y-111999500D01*
X114866510Y-112030261D01*
X114866498Y-112030264D01*
X114720827Y-112090602D01*
X114720814Y-112090609D01*
X114589711Y-112178210D01*
X114589707Y-112178213D01*
X114478210Y-112289710D01*
X114442343Y-112343391D01*
X114388731Y-112388196D01*
X114339241Y-112398500D01*
X108560866Y-112398500D01*
X108493827Y-112378815D01*
X108448072Y-112326011D01*
X108438128Y-112256853D01*
X108467153Y-112193297D01*
X108473185Y-112186819D01*
X110208184Y-110451819D01*
X110269507Y-110418334D01*
X110295865Y-110415500D01*
X114382770Y-110415500D01*
X114449809Y-110435185D01*
G37*
%TD.AperFunction*%
%TA.AperFunction,Conductor*%
G36*
X106371842Y-107082185D02*
G01*
X106392484Y-107098819D01*
X107284631Y-107990966D01*
X107318116Y-108052289D01*
X107320950Y-108078647D01*
X107320950Y-108331880D01*
X107320949Y-108331898D01*
X107320949Y-108497604D01*
X107320948Y-108497604D01*
X107361874Y-108650339D01*
X107361875Y-108650340D01*
X107384625Y-108689743D01*
X107384626Y-108689745D01*
X107440925Y-108787259D01*
X107440931Y-108787267D01*
X107559799Y-108906135D01*
X107559805Y-108906140D01*
X108020272Y-109366607D01*
X108020282Y-109366618D01*
X108024612Y-109370948D01*
X108024613Y-109370949D01*
X108136417Y-109482753D01*
X108136419Y-109482754D01*
X108136423Y-109482757D01*
X108247716Y-109547011D01*
X108273349Y-109561810D01*
X108382594Y-109591082D01*
X108426075Y-109602733D01*
X108426076Y-109602733D01*
X108635174Y-109602733D01*
X108702213Y-109622418D01*
X108747968Y-109675222D01*
X108757912Y-109744380D01*
X108728887Y-109807936D01*
X108722873Y-109814395D01*
X108492904Y-110044363D01*
X108459113Y-110078155D01*
X108397790Y-110111639D01*
X108328098Y-110106655D01*
X108272165Y-110064783D01*
X108268330Y-110059364D01*
X108221789Y-109989711D01*
X108221786Y-109989707D01*
X108110292Y-109878213D01*
X108110288Y-109878210D01*
X107979185Y-109790609D01*
X107979172Y-109790602D01*
X107833501Y-109730264D01*
X107833489Y-109730261D01*
X107678845Y-109699500D01*
X107678842Y-109699500D01*
X107521158Y-109699500D01*
X107521155Y-109699500D01*
X107366510Y-109730261D01*
X107366498Y-109730264D01*
X107220827Y-109790602D01*
X107220814Y-109790609D01*
X107089711Y-109878210D01*
X107089707Y-109878213D01*
X106978213Y-109989707D01*
X106978210Y-109989711D01*
X106890609Y-110120814D01*
X106890602Y-110120827D01*
X106830264Y-110266498D01*
X106830261Y-110266510D01*
X106799500Y-110421153D01*
X106799500Y-110578846D01*
X106830261Y-110733489D01*
X106830264Y-110733501D01*
X106848716Y-110778048D01*
X106856185Y-110847517D01*
X106824909Y-110909996D01*
X106764820Y-110945648D01*
X106734155Y-110949500D01*
X106262229Y-110949500D01*
X106195190Y-110929815D01*
X106174548Y-110913181D01*
X105934404Y-110673037D01*
X105900919Y-110611714D01*
X105905903Y-110542022D01*
X105934404Y-110497675D01*
X106021786Y-110410292D01*
X106021789Y-110410289D01*
X106109394Y-110279179D01*
X106169737Y-110133497D01*
X106200500Y-109978842D01*
X106200500Y-109821158D01*
X106200500Y-109821155D01*
X106200499Y-109821153D01*
X106182419Y-109730261D01*
X106169737Y-109666503D01*
X106143323Y-109602733D01*
X106109397Y-109520827D01*
X106109390Y-109520814D01*
X106021789Y-109389711D01*
X106021786Y-109389707D01*
X105906819Y-109274740D01*
X105873334Y-109213417D01*
X105870500Y-109187059D01*
X105870500Y-109081155D01*
X105870499Y-109081153D01*
X105839738Y-108926510D01*
X105839737Y-108926503D01*
X105831656Y-108906994D01*
X105779397Y-108780827D01*
X105779390Y-108780814D01*
X105691789Y-108649711D01*
X105691786Y-108649707D01*
X105580292Y-108538213D01*
X105580288Y-108538210D01*
X105449185Y-108450609D01*
X105449172Y-108450602D01*
X105303501Y-108390264D01*
X105303489Y-108390261D01*
X105148845Y-108359500D01*
X105148842Y-108359500D01*
X104991158Y-108359500D01*
X104991155Y-108359500D01*
X104836510Y-108390261D01*
X104836498Y-108390264D01*
X104690827Y-108450602D01*
X104690814Y-108450609D01*
X104559711Y-108538210D01*
X104559707Y-108538213D01*
X104448213Y-108649707D01*
X104448210Y-108649711D01*
X104367601Y-108770351D01*
X104313989Y-108815156D01*
X104244664Y-108823863D01*
X104181636Y-108793708D01*
X104144917Y-108734265D01*
X104140499Y-108701460D01*
X104140499Y-108326020D01*
X104143431Y-108299213D01*
X104145779Y-108288607D01*
X104159736Y-108254913D01*
X104190499Y-108100258D01*
X104190499Y-108086641D01*
X104193431Y-108073400D01*
X104204009Y-108054196D01*
X104210184Y-108033168D01*
X104220532Y-108024200D01*
X104227143Y-108012201D01*
X104246424Y-108001765D01*
X104262988Y-107987413D01*
X104279632Y-107983792D01*
X104288590Y-107978944D01*
X104298492Y-107979689D01*
X104308557Y-107977499D01*
X104308489Y-107976804D01*
X104314455Y-107976216D01*
X104314499Y-107976207D01*
X104314551Y-107976207D01*
X104314552Y-107976206D01*
X104469204Y-107945444D01*
X104614886Y-107885101D01*
X104745996Y-107797496D01*
X104857496Y-107685996D01*
X104945101Y-107554886D01*
X105005444Y-107409204D01*
X105036207Y-107254549D01*
X105036207Y-107186500D01*
X105055892Y-107119461D01*
X105108696Y-107073706D01*
X105160207Y-107062500D01*
X106304803Y-107062500D01*
X106371842Y-107082185D01*
G37*
%TD.AperFunction*%
%TA.AperFunction,Conductor*%
G36*
X118217885Y-105870185D02*
G01*
X118263640Y-105922989D01*
X118273584Y-105992147D01*
X118244559Y-106055703D01*
X118238527Y-106062181D01*
X117877527Y-106423181D01*
X117816204Y-106456666D01*
X117789846Y-106459500D01*
X116566243Y-106459500D01*
X116566239Y-106459499D01*
X116408125Y-106459499D01*
X116407642Y-106459628D01*
X116399057Y-106459635D01*
X116372948Y-106451990D01*
X116346069Y-106447789D01*
X116339908Y-106442316D01*
X116332002Y-106440002D01*
X116314168Y-106419453D01*
X116293831Y-106401389D01*
X116291607Y-106393457D01*
X116286206Y-106387234D01*
X116282313Y-106360307D01*
X116274970Y-106334113D01*
X116277388Y-106326235D01*
X116276210Y-106318083D01*
X116287490Y-106293331D01*
X116295476Y-106267320D01*
X116304237Y-106256583D01*
X116305185Y-106254505D01*
X116306762Y-106253489D01*
X116311277Y-106247957D01*
X116672416Y-105886819D01*
X116733739Y-105853334D01*
X116760097Y-105850500D01*
X118150846Y-105850500D01*
X118217885Y-105870185D01*
G37*
%TD.AperFunction*%
%TA.AperFunction,Conductor*%
G36*
X119502565Y-99256435D02*
G01*
X119523603Y-99257563D01*
X119535416Y-99266082D01*
X119549390Y-99270185D01*
X119563185Y-99286105D01*
X119580275Y-99298429D01*
X119585607Y-99311982D01*
X119595145Y-99322989D01*
X119598143Y-99343842D01*
X119605857Y-99363447D01*
X119604528Y-99388248D01*
X119605089Y-99392147D01*
X119603969Y-99398690D01*
X119599500Y-99421158D01*
X119599500Y-99578846D01*
X119630261Y-99733489D01*
X119630264Y-99733501D01*
X119690602Y-99879172D01*
X119690609Y-99879185D01*
X119778210Y-100010288D01*
X119778213Y-100010292D01*
X119889707Y-100121786D01*
X119889711Y-100121789D01*
X120020814Y-100209390D01*
X120020827Y-100209397D01*
X120117646Y-100249500D01*
X120166503Y-100269737D01*
X120260645Y-100288463D01*
X120300691Y-100296429D01*
X120362602Y-100328814D01*
X120397176Y-100389529D01*
X120400500Y-100418046D01*
X120400500Y-101298057D01*
X120380815Y-101365096D01*
X120328011Y-101410851D01*
X120258853Y-101420795D01*
X120195297Y-101391770D01*
X120173398Y-101366948D01*
X120121789Y-101289711D01*
X120121786Y-101289707D01*
X120010292Y-101178213D01*
X120010288Y-101178210D01*
X119879185Y-101090609D01*
X119879172Y-101090602D01*
X119733501Y-101030264D01*
X119733489Y-101030261D01*
X119578845Y-100999500D01*
X119578842Y-100999500D01*
X119421158Y-100999500D01*
X119421155Y-100999500D01*
X119266510Y-101030261D01*
X119266498Y-101030264D01*
X119120827Y-101090602D01*
X119120814Y-101090609D01*
X118989711Y-101178210D01*
X118989707Y-101178213D01*
X118878213Y-101289707D01*
X118878210Y-101289711D01*
X118790609Y-101420814D01*
X118790602Y-101420827D01*
X118730264Y-101566498D01*
X118730261Y-101566510D01*
X118699500Y-101721153D01*
X118699500Y-101878846D01*
X118730261Y-102033489D01*
X118730264Y-102033501D01*
X118790602Y-102179172D01*
X118790612Y-102179190D01*
X118842008Y-102256110D01*
X118862886Y-102322787D01*
X118844401Y-102390167D01*
X118842008Y-102393890D01*
X118790612Y-102470809D01*
X118790602Y-102470827D01*
X118730264Y-102616498D01*
X118730261Y-102616510D01*
X118699500Y-102771153D01*
X118699500Y-102928846D01*
X118730261Y-103083489D01*
X118730264Y-103083501D01*
X118790602Y-103229172D01*
X118790609Y-103229185D01*
X118878210Y-103360288D01*
X118878213Y-103360292D01*
X118989707Y-103471786D01*
X118989711Y-103471789D01*
X119067420Y-103523713D01*
X119112225Y-103577325D01*
X119120932Y-103646650D01*
X119090778Y-103709678D01*
X119086210Y-103714496D01*
X118187527Y-104613181D01*
X118126204Y-104646666D01*
X118099846Y-104649500D01*
X116380943Y-104649500D01*
X116228213Y-104690423D01*
X116203835Y-104704499D01*
X116203834Y-104704499D01*
X116091287Y-104769477D01*
X116091282Y-104769481D01*
X115068695Y-105792069D01*
X115007372Y-105825554D01*
X114937680Y-105820570D01*
X114881747Y-105778698D01*
X114857330Y-105713234D01*
X114872182Y-105644961D01*
X114879816Y-105633647D01*
X114879567Y-105633481D01*
X114965080Y-105505501D01*
X114965080Y-105505500D01*
X114965084Y-105505495D01*
X115021658Y-105368913D01*
X115048458Y-105234185D01*
X115050500Y-105223920D01*
X115050500Y-103062228D01*
X115070185Y-102995189D01*
X115086814Y-102974551D01*
X116182299Y-101879066D01*
X116243620Y-101845583D01*
X116294170Y-101845132D01*
X116321155Y-101850500D01*
X116321158Y-101850500D01*
X116478844Y-101850500D01*
X116478845Y-101850499D01*
X116633497Y-101819737D01*
X116746166Y-101773067D01*
X116779172Y-101759397D01*
X116779172Y-101759396D01*
X116779179Y-101759394D01*
X116910289Y-101671789D01*
X117021789Y-101560289D01*
X117109394Y-101429179D01*
X117112854Y-101420827D01*
X117167163Y-101289711D01*
X117169737Y-101283497D01*
X117200500Y-101128842D01*
X117200500Y-100971158D01*
X117200500Y-100971155D01*
X117200499Y-100971153D01*
X117191759Y-100927214D01*
X117169737Y-100816503D01*
X117147954Y-100763914D01*
X117109397Y-100670827D01*
X117109390Y-100670814D01*
X117021789Y-100539711D01*
X117021786Y-100539707D01*
X116910292Y-100428213D01*
X116910288Y-100428210D01*
X116779185Y-100340609D01*
X116779172Y-100340602D01*
X116633501Y-100280264D01*
X116633491Y-100280261D01*
X116499308Y-100253570D01*
X116437397Y-100221185D01*
X116402823Y-100160469D01*
X116399500Y-100131953D01*
X116399500Y-99963229D01*
X116419185Y-99896190D01*
X116435819Y-99875548D01*
X117024548Y-99286819D01*
X117085871Y-99253334D01*
X117112229Y-99250500D01*
X117546082Y-99250500D01*
X119482351Y-99250500D01*
X119502565Y-99256435D01*
G37*
%TD.AperFunction*%
%TA.AperFunction,Conductor*%
G36*
X105698993Y-103919185D02*
G01*
X105744748Y-103971989D01*
X105753571Y-103999309D01*
X105780261Y-104133489D01*
X105780264Y-104133501D01*
X105840602Y-104279172D01*
X105840609Y-104279185D01*
X105928210Y-104410288D01*
X105928213Y-104410292D01*
X106039707Y-104521786D01*
X106039711Y-104521789D01*
X106170814Y-104609390D01*
X106170827Y-104609397D01*
X106316498Y-104669735D01*
X106316503Y-104669737D01*
X106379847Y-104682337D01*
X106428591Y-104692033D01*
X106436611Y-104696228D01*
X106445652Y-104696713D01*
X106467089Y-104712170D01*
X106490502Y-104724418D01*
X106494980Y-104732283D01*
X106502325Y-104737579D01*
X106512001Y-104762172D01*
X106525076Y-104785133D01*
X106525268Y-104795892D01*
X106527906Y-104802597D01*
X106526017Y-104837841D01*
X106501780Y-104959691D01*
X106469396Y-105021602D01*
X106408680Y-105056176D01*
X106380163Y-105059500D01*
X103066148Y-105059500D01*
X102999109Y-105039815D01*
X102953354Y-104987011D01*
X102943410Y-104917853D01*
X102972435Y-104854297D01*
X102978467Y-104847819D01*
X103046347Y-104779939D01*
X103105411Y-104720875D01*
X103105411Y-104720874D01*
X103890466Y-103935819D01*
X103951789Y-103902334D01*
X103978147Y-103899500D01*
X105631954Y-103899500D01*
X105698993Y-103919185D01*
G37*
%TD.AperFunction*%
%TA.AperFunction,Conductor*%
G36*
X106731950Y-99164004D02*
G01*
X106842846Y-99209938D01*
X106866503Y-99219737D01*
X107012647Y-99248807D01*
X107021153Y-99250499D01*
X107021156Y-99250500D01*
X107021158Y-99250500D01*
X107178844Y-99250500D01*
X107178845Y-99250499D01*
X107300639Y-99226273D01*
X107333488Y-99219739D01*
X107333489Y-99219738D01*
X107333497Y-99219737D01*
X107357155Y-99209937D01*
X107404604Y-99200500D01*
X108125500Y-99200500D01*
X108192539Y-99220185D01*
X108238294Y-99272989D01*
X108249500Y-99324500D01*
X108249500Y-101667770D01*
X108229815Y-101734809D01*
X108213181Y-101755451D01*
X107606451Y-102362181D01*
X107545128Y-102395666D01*
X107518770Y-102398500D01*
X106420033Y-102398500D01*
X106352994Y-102378815D01*
X106307239Y-102326011D01*
X106297295Y-102256853D01*
X106326320Y-102193297D01*
X106351142Y-102171398D01*
X106418919Y-102126110D01*
X106470287Y-102091787D01*
X106581787Y-101980287D01*
X106669392Y-101849177D01*
X106671068Y-101845132D01*
X106708214Y-101755451D01*
X106729735Y-101703495D01*
X106736042Y-101671789D01*
X106736343Y-101670276D01*
X106768727Y-101608365D01*
X106829443Y-101573791D01*
X106882152Y-101572850D01*
X107021155Y-101600500D01*
X107021158Y-101600500D01*
X107178844Y-101600500D01*
X107178845Y-101600499D01*
X107333497Y-101569737D01*
X107479179Y-101509394D01*
X107610289Y-101421789D01*
X107721789Y-101310289D01*
X107809394Y-101179179D01*
X107869737Y-101033497D01*
X107900500Y-100878842D01*
X107900500Y-100721158D01*
X107900500Y-100721155D01*
X107900499Y-100721153D01*
X107890486Y-100670814D01*
X107869737Y-100566503D01*
X107858879Y-100540289D01*
X107809397Y-100420827D01*
X107809390Y-100420814D01*
X107721789Y-100289711D01*
X107721786Y-100289707D01*
X107610292Y-100178213D01*
X107610288Y-100178210D01*
X107479185Y-100090609D01*
X107479172Y-100090602D01*
X107333501Y-100030264D01*
X107333489Y-100030261D01*
X107178845Y-99999500D01*
X107178842Y-99999500D01*
X107021158Y-99999500D01*
X107021155Y-99999500D01*
X106866510Y-100030261D01*
X106866498Y-100030264D01*
X106731950Y-100085995D01*
X106662480Y-100093464D01*
X106600001Y-100062188D01*
X106564350Y-100002099D01*
X106560498Y-99971434D01*
X106560498Y-99278565D01*
X106580183Y-99211526D01*
X106632987Y-99165771D01*
X106702145Y-99155827D01*
X106731950Y-99164004D01*
G37*
%TD.AperFunction*%
%TA.AperFunction,Conductor*%
G36*
X124792539Y-89169685D02*
G01*
X124838294Y-89222489D01*
X124849500Y-89274000D01*
X124849500Y-127496948D01*
X124849351Y-127503033D01*
X124831743Y-127861432D01*
X124830550Y-127873542D01*
X124778347Y-128225467D01*
X124775973Y-128237402D01*
X124689526Y-128582518D01*
X124685994Y-128594162D01*
X124580142Y-128890000D01*
X124566142Y-128929127D01*
X124561485Y-128940370D01*
X124409366Y-129262000D01*
X124403629Y-129272732D01*
X124220729Y-129577881D01*
X124213969Y-129587999D01*
X124002028Y-129873769D01*
X123994308Y-129883175D01*
X123755388Y-130146783D01*
X123746783Y-130155388D01*
X123483175Y-130394308D01*
X123473769Y-130402028D01*
X123187999Y-130613969D01*
X123177881Y-130620729D01*
X122872732Y-130803629D01*
X122862000Y-130809366D01*
X122540370Y-130961485D01*
X122529134Y-130966139D01*
X122405442Y-131010397D01*
X122194162Y-131085994D01*
X122182518Y-131089526D01*
X121837402Y-131175973D01*
X121825467Y-131178347D01*
X121473542Y-131230550D01*
X121461432Y-131231743D01*
X121123927Y-131248324D01*
X121103031Y-131249351D01*
X121096949Y-131249500D01*
X102303051Y-131249500D01*
X102296968Y-131249351D01*
X102274856Y-131248264D01*
X101938567Y-131231743D01*
X101926457Y-131230550D01*
X101574532Y-131178347D01*
X101562597Y-131175973D01*
X101217481Y-131089526D01*
X101205837Y-131085994D01*
X100870858Y-130966136D01*
X100859629Y-130961485D01*
X100537999Y-130809366D01*
X100527272Y-130803631D01*
X100222118Y-130620729D01*
X100212000Y-130613969D01*
X99926230Y-130402028D01*
X99916824Y-130394308D01*
X99722650Y-130218319D01*
X99653209Y-130155381D01*
X99644618Y-130146790D01*
X99405691Y-129883175D01*
X99397971Y-129873769D01*
X99186030Y-129587999D01*
X99179270Y-129577881D01*
X99118316Y-129476185D01*
X98996363Y-129272720D01*
X98990639Y-129262012D01*
X98838511Y-128940363D01*
X98833867Y-128929151D01*
X98714000Y-128594147D01*
X98710473Y-128582518D01*
X98624023Y-128237389D01*
X98621652Y-128225467D01*
X98569449Y-127873542D01*
X98568257Y-127861439D01*
X98567917Y-127854527D01*
X98567917Y-127854525D01*
X98567916Y-127854523D01*
X98567816Y-127852486D01*
X99519500Y-127852486D01*
X99519500Y-128147513D01*
X99531335Y-128237402D01*
X99558007Y-128439993D01*
X99629228Y-128705796D01*
X99634361Y-128724951D01*
X99634364Y-128724961D01*
X99747254Y-128997500D01*
X99747258Y-128997510D01*
X99894761Y-129252993D01*
X100074352Y-129487040D01*
X100074358Y-129487047D01*
X100282952Y-129695641D01*
X100282959Y-129695647D01*
X100517006Y-129875238D01*
X100772489Y-130022741D01*
X100772490Y-130022741D01*
X100772493Y-130022743D01*
X101045048Y-130135639D01*
X101330007Y-130211993D01*
X101622494Y-130250500D01*
X101622501Y-130250500D01*
X101917499Y-130250500D01*
X101917506Y-130250500D01*
X102209993Y-130211993D01*
X102494952Y-130135639D01*
X102767507Y-130022743D01*
X103022994Y-129875238D01*
X103257042Y-129695646D01*
X103465646Y-129487042D01*
X103645238Y-129252994D01*
X103792743Y-128997507D01*
X103905639Y-128724952D01*
X103981993Y-128439993D01*
X104020500Y-128147506D01*
X104020500Y-127852494D01*
X103999964Y-127696512D01*
X103999305Y-127691504D01*
X105660000Y-127691504D01*
X105660000Y-127940000D01*
X106360000Y-127940000D01*
X106360000Y-128440000D01*
X105660000Y-128440000D01*
X105660000Y-128688495D01*
X105698427Y-128881681D01*
X105698430Y-128881693D01*
X105773807Y-129063671D01*
X105773814Y-129063684D01*
X105883248Y-129227462D01*
X105883251Y-129227466D01*
X106022533Y-129366748D01*
X106022537Y-129366751D01*
X106186315Y-129476185D01*
X106186328Y-129476192D01*
X106368308Y-129551569D01*
X106410000Y-129559862D01*
X106410000Y-128756988D01*
X106419940Y-128774205D01*
X106475795Y-128830060D01*
X106544204Y-128869556D01*
X106620504Y-128890000D01*
X106699496Y-128890000D01*
X106775796Y-128869556D01*
X106844205Y-128830060D01*
X106900060Y-128774205D01*
X106910000Y-128756988D01*
X106910000Y-129559862D01*
X106951690Y-129551569D01*
X106951692Y-129551569D01*
X107133671Y-129476192D01*
X107133684Y-129476185D01*
X107297462Y-129366751D01*
X107297466Y-129366748D01*
X107436748Y-129227466D01*
X107436751Y-129227462D01*
X107546185Y-129063684D01*
X107546192Y-129063671D01*
X107621569Y-128881693D01*
X107621572Y-128881681D01*
X107659999Y-128688495D01*
X107660000Y-128688492D01*
X107660000Y-128440000D01*
X106960000Y-128440000D01*
X106960000Y-127940000D01*
X107660000Y-127940000D01*
X107660000Y-127691508D01*
X107659999Y-127691504D01*
X114300000Y-127691504D01*
X114300000Y-127940000D01*
X115000000Y-127940000D01*
X115000000Y-128440000D01*
X114300000Y-128440000D01*
X114300000Y-128688495D01*
X114338427Y-128881681D01*
X114338430Y-128881693D01*
X114413807Y-129063671D01*
X114413814Y-129063684D01*
X114523248Y-129227462D01*
X114523251Y-129227466D01*
X114662533Y-129366748D01*
X114662537Y-129366751D01*
X114826315Y-129476185D01*
X114826328Y-129476192D01*
X115008308Y-129551569D01*
X115050000Y-129559862D01*
X115050000Y-128756988D01*
X115059940Y-128774205D01*
X115115795Y-128830060D01*
X115184204Y-128869556D01*
X115260504Y-128890000D01*
X115339496Y-128890000D01*
X115415796Y-128869556D01*
X115484205Y-128830060D01*
X115540060Y-128774205D01*
X115550000Y-128756988D01*
X115550000Y-129559862D01*
X115591690Y-129551569D01*
X115591692Y-129551569D01*
X115773671Y-129476192D01*
X115773684Y-129476185D01*
X115937462Y-129366751D01*
X115937466Y-129366748D01*
X116076748Y-129227466D01*
X116076751Y-129227462D01*
X116186185Y-129063684D01*
X116186192Y-129063671D01*
X116261569Y-128881693D01*
X116261572Y-128881681D01*
X116299999Y-128688495D01*
X116300000Y-128688492D01*
X116300000Y-128440000D01*
X115600000Y-128440000D01*
X115600000Y-127940000D01*
X116300000Y-127940000D01*
X116300000Y-127852486D01*
X119449500Y-127852486D01*
X119449500Y-128147513D01*
X119461335Y-128237402D01*
X119488007Y-128439993D01*
X119559228Y-128705796D01*
X119564361Y-128724951D01*
X119564364Y-128724961D01*
X119677254Y-128997500D01*
X119677258Y-128997510D01*
X119824761Y-129252993D01*
X120004352Y-129487040D01*
X120004358Y-129487047D01*
X120212952Y-129695641D01*
X120212959Y-129695647D01*
X120447006Y-129875238D01*
X120702489Y-130022741D01*
X120702490Y-130022741D01*
X120702493Y-130022743D01*
X120975048Y-130135639D01*
X121260007Y-130211993D01*
X121552494Y-130250500D01*
X121552501Y-130250500D01*
X121847499Y-130250500D01*
X121847506Y-130250500D01*
X122139993Y-130211993D01*
X122424952Y-130135639D01*
X122697507Y-130022743D01*
X122952994Y-129875238D01*
X123187042Y-129695646D01*
X123395646Y-129487042D01*
X123575238Y-129252994D01*
X123722743Y-128997507D01*
X123835639Y-128724952D01*
X123911993Y-128439993D01*
X123950500Y-128147506D01*
X123950500Y-127852494D01*
X123911993Y-127560007D01*
X123835639Y-127275048D01*
X123722743Y-127002493D01*
X123622247Y-126828429D01*
X123575238Y-126747006D01*
X123395647Y-126512959D01*
X123395641Y-126512952D01*
X123187047Y-126304358D01*
X123187040Y-126304352D01*
X122952993Y-126124761D01*
X122697510Y-125977258D01*
X122697500Y-125977254D01*
X122424961Y-125864364D01*
X122424954Y-125864362D01*
X122424952Y-125864361D01*
X122139993Y-125788007D01*
X122091113Y-125781571D01*
X121847513Y-125749500D01*
X121847506Y-125749500D01*
X121552494Y-125749500D01*
X121552486Y-125749500D01*
X121274085Y-125786153D01*
X121260007Y-125788007D01*
X120975048Y-125864361D01*
X120975038Y-125864364D01*
X120702499Y-125977254D01*
X120702489Y-125977258D01*
X120447006Y-126124761D01*
X120212959Y-126304352D01*
X120212952Y-126304358D01*
X120004358Y-126512952D01*
X120004352Y-126512959D01*
X119824761Y-126747006D01*
X119677258Y-127002489D01*
X119677254Y-127002499D01*
X119564364Y-127275038D01*
X119564361Y-127275048D01*
X119490705Y-127549940D01*
X119488008Y-127560004D01*
X119488006Y-127560015D01*
X119449500Y-127852486D01*
X116300000Y-127852486D01*
X116300000Y-127691508D01*
X116299999Y-127691504D01*
X116261572Y-127498318D01*
X116261569Y-127498306D01*
X116186192Y-127316328D01*
X116186185Y-127316315D01*
X116076751Y-127152537D01*
X116076748Y-127152533D01*
X115937466Y-127013251D01*
X115937462Y-127013248D01*
X115773684Y-126903814D01*
X115773671Y-126903807D01*
X115591691Y-126828429D01*
X115591683Y-126828427D01*
X115550000Y-126820135D01*
X115550000Y-127623011D01*
X115540060Y-127605795D01*
X115484205Y-127549940D01*
X115415796Y-127510444D01*
X115339496Y-127490000D01*
X115260504Y-127490000D01*
X115184204Y-127510444D01*
X115115795Y-127549940D01*
X115059940Y-127605795D01*
X115050000Y-127623011D01*
X115050000Y-126820136D01*
X115049999Y-126820135D01*
X115008316Y-126828427D01*
X115008308Y-126828429D01*
X114826328Y-126903807D01*
X114826315Y-126903814D01*
X114662537Y-127013248D01*
X114662533Y-127013251D01*
X114523251Y-127152533D01*
X114523248Y-127152537D01*
X114413814Y-127316315D01*
X114413807Y-127316328D01*
X114338430Y-127498306D01*
X114338427Y-127498318D01*
X114300000Y-127691504D01*
X107659999Y-127691504D01*
X107621572Y-127498318D01*
X107621569Y-127498306D01*
X107546192Y-127316328D01*
X107546185Y-127316315D01*
X107436751Y-127152537D01*
X107436748Y-127152533D01*
X107297466Y-127013251D01*
X107297462Y-127013248D01*
X107133684Y-126903814D01*
X107133671Y-126903807D01*
X106951691Y-126828429D01*
X106951683Y-126828427D01*
X106910000Y-126820135D01*
X106910000Y-127623011D01*
X106900060Y-127605795D01*
X106844205Y-127549940D01*
X106775796Y-127510444D01*
X106699496Y-127490000D01*
X106620504Y-127490000D01*
X106544204Y-127510444D01*
X106475795Y-127549940D01*
X106419940Y-127605795D01*
X106410000Y-127623011D01*
X106410000Y-126820136D01*
X106409999Y-126820135D01*
X106368316Y-126828427D01*
X106368308Y-126828429D01*
X106186328Y-126903807D01*
X106186315Y-126903814D01*
X106022537Y-127013248D01*
X106022533Y-127013251D01*
X105883251Y-127152533D01*
X105883248Y-127152537D01*
X105773814Y-127316315D01*
X105773807Y-127316328D01*
X105698430Y-127498306D01*
X105698427Y-127498318D01*
X105660000Y-127691504D01*
X103999305Y-127691504D01*
X103988021Y-127605795D01*
X103981993Y-127560007D01*
X103905639Y-127275048D01*
X103792743Y-127002493D01*
X103692247Y-126828429D01*
X103645238Y-126747006D01*
X103465647Y-126512959D01*
X103465641Y-126512952D01*
X103257047Y-126304358D01*
X103257040Y-126304352D01*
X103022993Y-126124761D01*
X102767510Y-125977258D01*
X102767500Y-125977254D01*
X102494961Y-125864364D01*
X102494954Y-125864362D01*
X102494952Y-125864361D01*
X102209993Y-125788007D01*
X102161113Y-125781571D01*
X101917513Y-125749500D01*
X101917506Y-125749500D01*
X101622494Y-125749500D01*
X101622486Y-125749500D01*
X101344085Y-125786153D01*
X101330007Y-125788007D01*
X101045048Y-125864361D01*
X101045038Y-125864364D01*
X100772499Y-125977254D01*
X100772489Y-125977258D01*
X100517006Y-126124761D01*
X100282959Y-126304352D01*
X100282952Y-126304358D01*
X100074358Y-126512952D01*
X100074352Y-126512959D01*
X99894761Y-126747006D01*
X99747258Y-127002489D01*
X99747254Y-127002499D01*
X99634364Y-127275038D01*
X99634361Y-127275048D01*
X99560705Y-127549940D01*
X99558008Y-127560004D01*
X99558006Y-127560015D01*
X99519500Y-127852486D01*
X98567816Y-127852486D01*
X98550649Y-127503032D01*
X98550500Y-127496948D01*
X98550500Y-127445417D01*
X98550432Y-127444666D01*
X98545501Y-123361504D01*
X105660000Y-123361504D01*
X105660000Y-123760000D01*
X106360000Y-123760000D01*
X106360000Y-124260000D01*
X105660000Y-124260000D01*
X105660000Y-124658495D01*
X105698427Y-124851681D01*
X105698430Y-124851693D01*
X105773807Y-125033671D01*
X105773814Y-125033684D01*
X105883248Y-125197462D01*
X105883251Y-125197466D01*
X106022533Y-125336748D01*
X106022537Y-125336751D01*
X106186315Y-125446185D01*
X106186328Y-125446192D01*
X106368308Y-125521569D01*
X106410000Y-125529862D01*
X106410000Y-124726988D01*
X106419940Y-124744205D01*
X106475795Y-124800060D01*
X106544204Y-124839556D01*
X106620504Y-124860000D01*
X106699496Y-124860000D01*
X106775796Y-124839556D01*
X106844205Y-124800060D01*
X106900060Y-124744205D01*
X106910000Y-124726988D01*
X106910000Y-125529862D01*
X106951690Y-125521569D01*
X106951692Y-125521569D01*
X107133671Y-125446192D01*
X107133684Y-125446185D01*
X107297462Y-125336751D01*
X107297466Y-125336748D01*
X107436748Y-125197466D01*
X107436751Y-125197462D01*
X107546185Y-125033684D01*
X107546187Y-125033680D01*
X107592942Y-124920802D01*
X107636783Y-124866399D01*
X107703077Y-124844333D01*
X107770776Y-124861612D01*
X107795185Y-124880573D01*
X107801106Y-124886494D01*
X107908394Y-124948436D01*
X108028057Y-124980500D01*
X108028060Y-124980500D01*
X108151940Y-124980500D01*
X108151943Y-124980500D01*
X108271606Y-124948436D01*
X108378894Y-124886494D01*
X108466494Y-124798894D01*
X108528436Y-124691606D01*
X108547314Y-124621153D01*
X109399500Y-124621153D01*
X109399500Y-124778846D01*
X109430261Y-124933489D01*
X109430264Y-124933501D01*
X109490602Y-125079172D01*
X109490609Y-125079185D01*
X109578210Y-125210288D01*
X109578213Y-125210292D01*
X109689707Y-125321786D01*
X109689711Y-125321789D01*
X109820814Y-125409390D01*
X109820827Y-125409397D01*
X109966498Y-125469735D01*
X109966503Y-125469737D01*
X110121153Y-125500499D01*
X110121156Y-125500500D01*
X110121158Y-125500500D01*
X110278844Y-125500500D01*
X110278845Y-125500499D01*
X110433497Y-125469737D01*
X110493392Y-125444926D01*
X110562861Y-125437457D01*
X110609740Y-125456387D01*
X110619047Y-125462606D01*
X110619058Y-125462612D01*
X110761395Y-125521569D01*
X110764734Y-125522952D01*
X110919384Y-125553714D01*
X110919387Y-125553715D01*
X110919389Y-125553715D01*
X111077075Y-125553715D01*
X111077076Y-125553714D01*
X111231728Y-125522952D01*
X111377410Y-125462609D01*
X111508520Y-125375004D01*
X111620020Y-125263504D01*
X111707625Y-125132394D01*
X111767968Y-124986712D01*
X111798731Y-124832057D01*
X111798731Y-124674373D01*
X111798731Y-124674370D01*
X111798730Y-124674368D01*
X111785984Y-124610289D01*
X111767968Y-124519718D01*
X111727884Y-124422947D01*
X111707628Y-124374042D01*
X111707621Y-124374029D01*
X111620020Y-124242926D01*
X111620017Y-124242922D01*
X111508523Y-124131428D01*
X111508519Y-124131425D01*
X111377416Y-124043824D01*
X111377403Y-124043817D01*
X111231732Y-123983479D01*
X111231720Y-123983476D01*
X111077076Y-123952715D01*
X111077073Y-123952715D01*
X110919389Y-123952715D01*
X110919386Y-123952715D01*
X110764742Y-123983475D01*
X110764737Y-123983477D01*
X110764735Y-123983477D01*
X110764734Y-123983478D01*
X110747518Y-123990609D01*
X110704834Y-124008289D01*
X110635365Y-124015756D01*
X110588491Y-123996828D01*
X110579177Y-123990604D01*
X110433501Y-123930264D01*
X110433489Y-123930261D01*
X110278845Y-123899500D01*
X110278842Y-123899500D01*
X110121158Y-123899500D01*
X110121155Y-123899500D01*
X109966510Y-123930261D01*
X109966498Y-123930264D01*
X109820827Y-123990602D01*
X109820814Y-123990609D01*
X109689711Y-124078210D01*
X109689707Y-124078213D01*
X109578213Y-124189707D01*
X109578210Y-124189711D01*
X109490609Y-124320814D01*
X109490602Y-124320827D01*
X109430264Y-124466498D01*
X109430261Y-124466510D01*
X109399500Y-124621153D01*
X108547314Y-124621153D01*
X108560500Y-124571943D01*
X108560500Y-124448057D01*
X108528436Y-124328394D01*
X108466494Y-124221106D01*
X108378894Y-124133506D01*
X108271606Y-124071564D01*
X108271607Y-124071564D01*
X108241690Y-124063548D01*
X108151943Y-124039500D01*
X108028057Y-124039500D01*
X107938309Y-124063548D01*
X107908393Y-124071564D01*
X107801107Y-124133505D01*
X107801104Y-124133507D01*
X107710931Y-124223681D01*
X107649608Y-124257166D01*
X107623250Y-124260000D01*
X106960000Y-124260000D01*
X106960000Y-123760000D01*
X107660000Y-123760000D01*
X107660000Y-123361508D01*
X107659999Y-123361504D01*
X107621572Y-123168318D01*
X107621569Y-123168306D01*
X107546192Y-122986328D01*
X107546185Y-122986315D01*
X107436751Y-122822537D01*
X107436748Y-122822533D01*
X107297466Y-122683251D01*
X107297462Y-122683248D01*
X107133684Y-122573814D01*
X107133671Y-122573807D01*
X106951691Y-122498429D01*
X106951683Y-122498427D01*
X106910000Y-122490135D01*
X106910000Y-123293011D01*
X106900060Y-123275795D01*
X106844205Y-123219940D01*
X106775796Y-123180444D01*
X106699496Y-123160000D01*
X106620504Y-123160000D01*
X106544204Y-123180444D01*
X106475795Y-123219940D01*
X106419940Y-123275795D01*
X106410000Y-123293011D01*
X106410000Y-122490136D01*
X106409999Y-122490135D01*
X106368316Y-122498427D01*
X106368308Y-122498429D01*
X106186328Y-122573807D01*
X106186315Y-122573814D01*
X106022537Y-122683248D01*
X106022533Y-122683251D01*
X105883251Y-122822533D01*
X105883248Y-122822537D01*
X105773814Y-122986315D01*
X105773807Y-122986328D01*
X105698430Y-123168306D01*
X105698427Y-123168318D01*
X105660000Y-123361504D01*
X98545501Y-123361504D01*
X98542433Y-120821153D01*
X101499500Y-120821153D01*
X101499500Y-120978846D01*
X101530261Y-121133489D01*
X101530264Y-121133501D01*
X101590602Y-121279172D01*
X101590609Y-121279185D01*
X101678210Y-121410288D01*
X101678213Y-121410292D01*
X101789707Y-121521786D01*
X101789711Y-121521789D01*
X101920814Y-121609390D01*
X101920827Y-121609397D01*
X102062867Y-121668231D01*
X102066503Y-121669737D01*
X102221153Y-121700499D01*
X102221156Y-121700500D01*
X102221158Y-121700500D01*
X102378844Y-121700500D01*
X102378845Y-121700499D01*
X102533497Y-121669737D01*
X102679179Y-121609394D01*
X102810289Y-121521789D01*
X102921789Y-121410289D01*
X103009394Y-121279179D01*
X103069737Y-121133497D01*
X103100500Y-120978842D01*
X103100500Y-120821158D01*
X103100500Y-120821155D01*
X103100499Y-120821153D01*
X103082393Y-120730128D01*
X103069737Y-120666503D01*
X103036114Y-120585329D01*
X103009397Y-120520827D01*
X103009390Y-120520814D01*
X102921789Y-120389711D01*
X102921786Y-120389707D01*
X102810292Y-120278213D01*
X102810288Y-120278210D01*
X102679185Y-120190609D01*
X102679172Y-120190602D01*
X102533501Y-120130264D01*
X102533489Y-120130261D01*
X102378845Y-120099500D01*
X102378842Y-120099500D01*
X102221158Y-120099500D01*
X102221155Y-120099500D01*
X102066510Y-120130261D01*
X102066498Y-120130264D01*
X101920827Y-120190602D01*
X101920814Y-120190609D01*
X101789711Y-120278210D01*
X101789707Y-120278213D01*
X101678213Y-120389707D01*
X101678210Y-120389711D01*
X101590609Y-120520814D01*
X101590602Y-120520827D01*
X101530264Y-120666498D01*
X101530261Y-120666510D01*
X101499500Y-120821153D01*
X98542433Y-120821153D01*
X98513155Y-96578543D01*
X99049499Y-96578543D01*
X99087947Y-96771829D01*
X99087950Y-96771839D01*
X99153474Y-96930028D01*
X99163368Y-96953914D01*
X99196113Y-97002920D01*
X99224971Y-97046110D01*
X99245848Y-97112787D01*
X99227363Y-97180167D01*
X99224971Y-97183890D01*
X99163366Y-97276089D01*
X99087950Y-97458160D01*
X99087947Y-97458170D01*
X99049500Y-97651456D01*
X99049500Y-97651459D01*
X99049500Y-97848541D01*
X99049500Y-97848543D01*
X99049499Y-97848543D01*
X99087947Y-98041829D01*
X99087950Y-98041839D01*
X99162441Y-98221677D01*
X99163368Y-98223914D01*
X99178955Y-98247241D01*
X99224971Y-98316110D01*
X99245848Y-98382787D01*
X99227363Y-98450167D01*
X99224971Y-98453890D01*
X99163366Y-98546089D01*
X99087950Y-98728160D01*
X99087947Y-98728170D01*
X99049500Y-98921456D01*
X99049500Y-98921459D01*
X99049500Y-99118541D01*
X99049500Y-99118543D01*
X99049499Y-99118543D01*
X99087947Y-99311829D01*
X99087950Y-99311839D01*
X99163365Y-99493907D01*
X99163368Y-99493914D01*
X99180605Y-99519711D01*
X99224971Y-99586110D01*
X99245848Y-99652787D01*
X99227363Y-99720167D01*
X99224971Y-99723890D01*
X99163366Y-99816089D01*
X99087950Y-99998160D01*
X99087947Y-99998170D01*
X99049500Y-100191456D01*
X99049500Y-100191459D01*
X99049500Y-100388541D01*
X99049500Y-100388543D01*
X99049499Y-100388543D01*
X99087947Y-100581829D01*
X99087950Y-100581839D01*
X99153212Y-100739395D01*
X99163368Y-100763914D01*
X99203102Y-100823380D01*
X99224971Y-100856110D01*
X99245848Y-100922787D01*
X99227363Y-100990167D01*
X99224971Y-100993890D01*
X99163366Y-101086089D01*
X99087950Y-101268160D01*
X99087947Y-101268170D01*
X99049500Y-101461456D01*
X99049500Y-101461459D01*
X99049500Y-101658541D01*
X99049500Y-101658543D01*
X99049499Y-101658543D01*
X99087947Y-101851829D01*
X99087950Y-101851839D01*
X99163192Y-102033489D01*
X99163368Y-102033914D01*
X99207352Y-102099740D01*
X99224971Y-102126110D01*
X99245848Y-102192787D01*
X99227363Y-102260167D01*
X99224971Y-102263890D01*
X99163366Y-102356089D01*
X99087950Y-102538160D01*
X99087947Y-102538170D01*
X99049500Y-102731456D01*
X99049500Y-102731459D01*
X99049500Y-102928541D01*
X99049500Y-102928543D01*
X99049499Y-102928543D01*
X99087947Y-103121829D01*
X99087950Y-103121839D01*
X99161999Y-103300609D01*
X99163368Y-103303914D01*
X99207352Y-103369740D01*
X99224971Y-103396110D01*
X99245848Y-103462787D01*
X99227363Y-103530167D01*
X99224971Y-103533890D01*
X99163366Y-103626089D01*
X99087950Y-103808160D01*
X99087947Y-103808170D01*
X99049500Y-104001456D01*
X99049500Y-104001459D01*
X99049500Y-104198541D01*
X99049500Y-104198543D01*
X99049499Y-104198543D01*
X99087947Y-104391829D01*
X99087950Y-104391839D01*
X99157714Y-104560264D01*
X99163368Y-104573914D01*
X99194564Y-104620602D01*
X99224971Y-104666110D01*
X99245848Y-104732787D01*
X99227363Y-104800167D01*
X99224971Y-104803890D01*
X99163366Y-104896089D01*
X99087950Y-105078160D01*
X99087947Y-105078170D01*
X99049500Y-105271456D01*
X99049500Y-105271459D01*
X99049500Y-105468541D01*
X99049500Y-105468543D01*
X99049499Y-105468543D01*
X99087947Y-105661829D01*
X99087950Y-105661839D01*
X99155763Y-105825554D01*
X99163368Y-105843914D01*
X99180922Y-105870185D01*
X99224971Y-105936110D01*
X99245848Y-106002787D01*
X99227363Y-106070167D01*
X99224971Y-106073890D01*
X99163366Y-106166089D01*
X99087950Y-106348160D01*
X99087947Y-106348170D01*
X99049500Y-106541456D01*
X99049500Y-106541459D01*
X99049500Y-106738541D01*
X99049500Y-106738543D01*
X99049499Y-106738543D01*
X99087947Y-106931829D01*
X99087950Y-106931839D01*
X99156306Y-107096865D01*
X99163368Y-107113914D01*
X99203885Y-107174552D01*
X99225271Y-107206559D01*
X99246148Y-107273236D01*
X99227663Y-107340616D01*
X99225271Y-107344339D01*
X99163809Y-107436325D01*
X99088430Y-107618306D01*
X99088427Y-107618318D01*
X99050000Y-107811504D01*
X99050000Y-108008495D01*
X99088427Y-108201681D01*
X99088430Y-108201693D01*
X99163807Y-108383671D01*
X99163814Y-108383684D01*
X99225270Y-108475659D01*
X99246148Y-108542337D01*
X99227663Y-108609717D01*
X99225271Y-108613440D01*
X99163370Y-108706082D01*
X99163364Y-108706093D01*
X99087950Y-108888160D01*
X99087947Y-108888170D01*
X99049500Y-109081456D01*
X99049500Y-109081459D01*
X99049500Y-109278541D01*
X99049500Y-109278543D01*
X99049499Y-109278543D01*
X99087947Y-109471829D01*
X99087950Y-109471839D01*
X99142168Y-109602733D01*
X99163368Y-109653914D01*
X99177606Y-109675222D01*
X99224971Y-109746110D01*
X99245848Y-109812787D01*
X99227363Y-109880167D01*
X99224971Y-109883890D01*
X99163366Y-109976089D01*
X99087950Y-110158160D01*
X99087947Y-110158170D01*
X99049500Y-110351456D01*
X99049500Y-110351459D01*
X99049500Y-110548541D01*
X99049500Y-110548543D01*
X99049499Y-110548543D01*
X99087947Y-110741829D01*
X99087950Y-110741839D01*
X99144838Y-110879179D01*
X99163368Y-110923914D01*
X99182771Y-110952952D01*
X99224971Y-111016110D01*
X99245848Y-111082787D01*
X99227363Y-111150167D01*
X99224971Y-111153890D01*
X99163366Y-111246089D01*
X99087950Y-111428160D01*
X99087947Y-111428170D01*
X99049500Y-111621456D01*
X99049500Y-111621459D01*
X99049500Y-111818541D01*
X99049500Y-111818543D01*
X99049499Y-111818543D01*
X99087947Y-112011829D01*
X99087950Y-112011839D01*
X99156864Y-112178213D01*
X99163368Y-112193914D01*
X99184807Y-112226000D01*
X99224971Y-112286110D01*
X99245848Y-112352787D01*
X99227363Y-112420167D01*
X99224971Y-112423890D01*
X99163366Y-112516089D01*
X99087950Y-112698160D01*
X99087947Y-112698170D01*
X99049500Y-112891456D01*
X99049500Y-112891459D01*
X99049500Y-113088541D01*
X99049500Y-113088543D01*
X99049499Y-113088543D01*
X99087947Y-113281829D01*
X99087950Y-113281839D01*
X99163366Y-113463910D01*
X99163368Y-113463914D01*
X99194162Y-113510001D01*
X99224971Y-113556110D01*
X99245848Y-113622787D01*
X99227363Y-113690167D01*
X99224971Y-113693890D01*
X99163366Y-113786089D01*
X99087950Y-113968160D01*
X99087947Y-113968170D01*
X99049500Y-114161456D01*
X99049500Y-114161459D01*
X99049500Y-114358541D01*
X99049500Y-114358543D01*
X99049499Y-114358543D01*
X99087947Y-114551829D01*
X99087950Y-114551839D01*
X99126335Y-114644508D01*
X99163368Y-114733914D01*
X99175731Y-114752416D01*
X99224971Y-114826110D01*
X99245848Y-114892787D01*
X99227363Y-114960167D01*
X99224971Y-114963890D01*
X99163366Y-115056089D01*
X99087950Y-115238160D01*
X99087947Y-115238170D01*
X99049500Y-115431456D01*
X99049500Y-115431459D01*
X99049500Y-115628541D01*
X99049500Y-115628543D01*
X99049499Y-115628543D01*
X99087947Y-115821829D01*
X99087950Y-115821839D01*
X99163365Y-116003907D01*
X99163368Y-116003914D01*
X99189291Y-116042710D01*
X99224971Y-116096110D01*
X99245848Y-116162787D01*
X99227363Y-116230167D01*
X99224971Y-116233890D01*
X99163366Y-116326089D01*
X99087950Y-116508160D01*
X99087947Y-116508170D01*
X99049500Y-116701456D01*
X99049500Y-116701459D01*
X99049500Y-116898541D01*
X99049500Y-116898543D01*
X99049499Y-116898543D01*
X99087947Y-117091829D01*
X99087950Y-117091839D01*
X99163364Y-117273907D01*
X99163371Y-117273920D01*
X99272860Y-117437781D01*
X99272863Y-117437785D01*
X99412214Y-117577136D01*
X99412218Y-117577139D01*
X99576079Y-117686628D01*
X99576092Y-117686635D01*
X99758160Y-117762049D01*
X99758165Y-117762051D01*
X99758169Y-117762051D01*
X99758170Y-117762052D01*
X99951456Y-117800500D01*
X99951459Y-117800500D01*
X100148543Y-117800500D01*
X100278582Y-117774632D01*
X100341835Y-117762051D01*
X100523914Y-117686632D01*
X100687782Y-117577139D01*
X100827139Y-117437782D01*
X100936632Y-117273914D01*
X101012051Y-117091835D01*
X101038154Y-116960607D01*
X101050500Y-116898543D01*
X101050500Y-116701456D01*
X101012052Y-116508170D01*
X101012051Y-116508169D01*
X101012051Y-116508165D01*
X101012049Y-116508160D01*
X100936635Y-116326092D01*
X100936633Y-116326088D01*
X100936632Y-116326086D01*
X100924484Y-116307906D01*
X100875029Y-116233891D01*
X100854151Y-116167214D01*
X100872635Y-116099834D01*
X100875029Y-116096109D01*
X100910709Y-116042710D01*
X100936632Y-116003914D01*
X101012051Y-115821835D01*
X101035593Y-115703485D01*
X101050500Y-115628543D01*
X101050500Y-115430096D01*
X101070185Y-115363057D01*
X101086819Y-115342415D01*
X101373148Y-115056086D01*
X101676819Y-114752415D01*
X101738141Y-114718931D01*
X101807833Y-114723915D01*
X101863766Y-114765787D01*
X101888183Y-114831251D01*
X101888499Y-114840097D01*
X101888499Y-116162917D01*
X101888499Y-116162919D01*
X101888498Y-116162919D01*
X101917339Y-116307906D01*
X101917342Y-116307916D01*
X101973913Y-116444491D01*
X102006811Y-116493726D01*
X102006812Y-116493729D01*
X102056045Y-116567413D01*
X102056051Y-116567420D01*
X103353926Y-117865293D01*
X103380805Y-117905519D01*
X103390603Y-117929172D01*
X103390606Y-117929178D01*
X103390609Y-117929185D01*
X103478210Y-118060288D01*
X103478213Y-118060292D01*
X103589707Y-118171786D01*
X103589711Y-118171789D01*
X103720814Y-118259390D01*
X103720827Y-118259397D01*
X103866498Y-118319735D01*
X103866503Y-118319737D01*
X104021153Y-118350499D01*
X104021156Y-118350500D01*
X104021158Y-118350500D01*
X104178844Y-118350500D01*
X104178845Y-118350499D01*
X104333497Y-118319737D01*
X104479179Y-118259394D01*
X104610289Y-118171789D01*
X104721789Y-118060289D01*
X104809394Y-117929179D01*
X104869737Y-117783497D01*
X104900500Y-117628842D01*
X104900500Y-117471158D01*
X104900500Y-117471155D01*
X104900499Y-117471153D01*
X104893861Y-117437781D01*
X104869737Y-117316503D01*
X104852093Y-117273907D01*
X104809397Y-117170827D01*
X104809390Y-117170814D01*
X104721789Y-117039711D01*
X104721786Y-117039707D01*
X104610292Y-116928213D01*
X104610288Y-116928210D01*
X104479185Y-116840609D01*
X104479180Y-116840607D01*
X104479179Y-116840606D01*
X104455519Y-116830805D01*
X104415293Y-116803926D01*
X103425818Y-115814450D01*
X103392333Y-115753127D01*
X103389499Y-115726769D01*
X103389499Y-111850228D01*
X103409184Y-111783189D01*
X103461988Y-111737434D01*
X103531146Y-111727490D01*
X103594702Y-111756515D01*
X103601180Y-111762547D01*
X105461707Y-113623074D01*
X105461728Y-113623097D01*
X106053927Y-114215295D01*
X106080806Y-114255521D01*
X106090606Y-114279179D01*
X106090607Y-114279181D01*
X106178207Y-114410284D01*
X106178213Y-114410292D01*
X106204085Y-114436164D01*
X106237570Y-114497487D01*
X106232586Y-114567179D01*
X106219507Y-114592735D01*
X106184914Y-114644508D01*
X106128343Y-114781082D01*
X106128340Y-114781092D01*
X106099500Y-114926079D01*
X106099500Y-114926082D01*
X106099500Y-120273918D01*
X106099500Y-120273920D01*
X106099499Y-120273920D01*
X106128340Y-120418907D01*
X106128343Y-120418917D01*
X106184913Y-120555490D01*
X106184914Y-120555491D01*
X106184916Y-120555495D01*
X106204852Y-120585331D01*
X106228560Y-120620814D01*
X106267051Y-120678420D01*
X106267052Y-120678421D01*
X106863181Y-121274549D01*
X106896666Y-121335872D01*
X106899500Y-121362230D01*
X106899500Y-121585993D01*
X106899500Y-121585995D01*
X106899499Y-121585995D01*
X106928340Y-121730982D01*
X106928343Y-121730992D01*
X106984913Y-121867565D01*
X106984918Y-121867574D01*
X106992448Y-121878843D01*
X106992450Y-121878845D01*
X107028457Y-121932735D01*
X107067051Y-121990495D01*
X108009503Y-122932947D01*
X108009510Y-122932953D01*
X108067629Y-122971786D01*
X108067631Y-122971787D01*
X108067634Y-122971789D01*
X108132430Y-123015084D01*
X108269012Y-123071658D01*
X108269016Y-123071658D01*
X108269017Y-123071659D01*
X108414004Y-123100500D01*
X108414007Y-123100500D01*
X108414008Y-123100500D01*
X108561842Y-123100500D01*
X113295396Y-123100500D01*
X113342844Y-123109937D01*
X113366503Y-123119737D01*
X113366508Y-123119738D01*
X113366511Y-123119739D01*
X113521153Y-123150499D01*
X113521156Y-123150500D01*
X113521158Y-123150500D01*
X113678844Y-123150500D01*
X113678845Y-123150499D01*
X113833497Y-123119737D01*
X113979179Y-123059394D01*
X114110289Y-122971789D01*
X114197907Y-122884170D01*
X114259228Y-122850687D01*
X114328920Y-122855671D01*
X114384854Y-122897542D01*
X114409271Y-122963006D01*
X114400148Y-123019305D01*
X114338430Y-123168306D01*
X114338427Y-123168318D01*
X114300000Y-123361504D01*
X114300000Y-123760000D01*
X115000000Y-123760000D01*
X115000000Y-124260000D01*
X114336750Y-124260000D01*
X114310448Y-124252276D01*
X114283385Y-124247929D01*
X114274670Y-124241771D01*
X114269711Y-124240315D01*
X114254013Y-124228361D01*
X114247115Y-124222181D01*
X114246494Y-124221106D01*
X114158894Y-124133506D01*
X114128605Y-124116018D01*
X114128603Y-124116017D01*
X114051606Y-124071564D01*
X114051607Y-124071564D01*
X114021690Y-124063548D01*
X113931943Y-124039500D01*
X113808057Y-124039500D01*
X113718309Y-124063548D01*
X113688393Y-124071564D01*
X113581107Y-124133505D01*
X113581104Y-124133507D01*
X113493507Y-124221104D01*
X113493505Y-124221107D01*
X113431564Y-124328393D01*
X113420876Y-124368281D01*
X113399500Y-124448057D01*
X113399500Y-124571943D01*
X113431564Y-124691606D01*
X113493506Y-124798894D01*
X113581106Y-124886494D01*
X113688394Y-124948436D01*
X113808057Y-124980500D01*
X113808060Y-124980500D01*
X113931940Y-124980500D01*
X113931943Y-124980500D01*
X114051606Y-124948436D01*
X114158894Y-124886494D01*
X114164812Y-124880575D01*
X114226132Y-124847089D01*
X114295824Y-124852070D01*
X114351759Y-124893939D01*
X114367056Y-124920802D01*
X114413807Y-125033671D01*
X114413814Y-125033684D01*
X114523248Y-125197462D01*
X114523251Y-125197466D01*
X114662533Y-125336748D01*
X114662537Y-125336751D01*
X114826315Y-125446185D01*
X114826328Y-125446192D01*
X115008308Y-125521569D01*
X115050000Y-125529862D01*
X115050000Y-124726988D01*
X115059940Y-124744205D01*
X115115795Y-124800060D01*
X115184204Y-124839556D01*
X115260504Y-124860000D01*
X115339496Y-124860000D01*
X115415796Y-124839556D01*
X115484205Y-124800060D01*
X115540060Y-124744205D01*
X115550000Y-124726988D01*
X115550000Y-125529862D01*
X115591690Y-125521569D01*
X115591692Y-125521569D01*
X115773671Y-125446192D01*
X115773684Y-125446185D01*
X115937462Y-125336751D01*
X115937466Y-125336748D01*
X116076748Y-125197466D01*
X116076751Y-125197462D01*
X116186185Y-125033684D01*
X116186192Y-125033671D01*
X116261569Y-124851693D01*
X116261572Y-124851681D01*
X116299999Y-124658495D01*
X116300000Y-124658492D01*
X116300000Y-124260000D01*
X115600000Y-124260000D01*
X115600000Y-124021153D01*
X122999500Y-124021153D01*
X122999500Y-124178846D01*
X123030261Y-124333489D01*
X123030264Y-124333501D01*
X123090602Y-124479172D01*
X123090609Y-124479185D01*
X123178210Y-124610288D01*
X123178213Y-124610292D01*
X123289707Y-124721786D01*
X123289711Y-124721789D01*
X123420814Y-124809390D01*
X123420827Y-124809397D01*
X123546887Y-124861612D01*
X123566503Y-124869737D01*
X123650736Y-124886492D01*
X123721153Y-124900499D01*
X123721156Y-124900500D01*
X123721158Y-124900500D01*
X123878844Y-124900500D01*
X123878845Y-124900499D01*
X124033497Y-124869737D01*
X124179179Y-124809394D01*
X124310289Y-124721789D01*
X124421789Y-124610289D01*
X124509394Y-124479179D01*
X124569737Y-124333497D01*
X124600500Y-124178842D01*
X124600500Y-124021158D01*
X124600500Y-124021155D01*
X124600499Y-124021153D01*
X124593005Y-123983477D01*
X124569737Y-123866503D01*
X124569735Y-123866498D01*
X124509397Y-123720827D01*
X124509390Y-123720814D01*
X124421789Y-123589711D01*
X124421786Y-123589707D01*
X124310292Y-123478213D01*
X124310288Y-123478210D01*
X124179185Y-123390609D01*
X124179172Y-123390602D01*
X124033501Y-123330264D01*
X124033489Y-123330261D01*
X123878845Y-123299500D01*
X123878842Y-123299500D01*
X123721158Y-123299500D01*
X123721155Y-123299500D01*
X123566510Y-123330261D01*
X123566498Y-123330264D01*
X123420827Y-123390602D01*
X123420814Y-123390609D01*
X123289711Y-123478210D01*
X123289707Y-123478213D01*
X123178213Y-123589707D01*
X123178210Y-123589711D01*
X123090609Y-123720814D01*
X123090602Y-123720827D01*
X123030264Y-123866498D01*
X123030261Y-123866510D01*
X122999500Y-124021153D01*
X115600000Y-124021153D01*
X115600000Y-123760000D01*
X116300000Y-123760000D01*
X116300000Y-123361508D01*
X116299999Y-123361504D01*
X116261572Y-123168318D01*
X116261569Y-123168306D01*
X116186192Y-122986328D01*
X116186185Y-122986315D01*
X116076751Y-122822537D01*
X116076748Y-122822533D01*
X115937466Y-122683251D01*
X115937462Y-122683248D01*
X115773684Y-122573814D01*
X115773671Y-122573807D01*
X115591691Y-122498429D01*
X115591683Y-122498427D01*
X115550000Y-122490135D01*
X115550000Y-123293011D01*
X115540060Y-123275795D01*
X115484205Y-123219940D01*
X115415796Y-123180444D01*
X115339496Y-123160000D01*
X115260504Y-123160000D01*
X115184204Y-123180444D01*
X115115795Y-123219940D01*
X115059940Y-123275795D01*
X115050000Y-123293011D01*
X115050000Y-122490136D01*
X115049999Y-122490135D01*
X115008316Y-122498427D01*
X115008308Y-122498429D01*
X114826328Y-122573807D01*
X114826315Y-122573814D01*
X114662537Y-122683248D01*
X114532964Y-122812821D01*
X114471641Y-122846305D01*
X114401949Y-122841321D01*
X114346016Y-122799449D01*
X114321599Y-122733985D01*
X114330721Y-122677689D01*
X114369737Y-122583497D01*
X114400500Y-122428842D01*
X114400500Y-122271158D01*
X114400500Y-122271155D01*
X114400499Y-122271153D01*
X114382204Y-122179179D01*
X114369737Y-122116503D01*
X114335352Y-122033489D01*
X114309397Y-121970827D01*
X114309390Y-121970814D01*
X114221789Y-121839711D01*
X114221786Y-121839707D01*
X114110286Y-121728207D01*
X114107570Y-121725978D01*
X114106529Y-121724450D01*
X114105982Y-121723903D01*
X114106085Y-121723799D01*
X114068237Y-121668231D01*
X114066369Y-121598386D01*
X114102559Y-121538619D01*
X114127793Y-121520765D01*
X114132266Y-121518373D01*
X114132277Y-121518369D01*
X114263387Y-121430764D01*
X114374887Y-121319264D01*
X114462492Y-121188154D01*
X114466611Y-121178211D01*
X114522833Y-121042476D01*
X114522835Y-121042472D01*
X114553598Y-120887817D01*
X114553598Y-120730133D01*
X114553598Y-120730130D01*
X114553597Y-120730128D01*
X114543312Y-120678421D01*
X114522835Y-120575478D01*
X114500193Y-120520814D01*
X114462495Y-120429802D01*
X114462488Y-120429789D01*
X114374887Y-120298686D01*
X114374884Y-120298682D01*
X114263390Y-120187188D01*
X114263386Y-120187185D01*
X114132283Y-120099584D01*
X114132273Y-120099579D01*
X114108621Y-120089782D01*
X114068393Y-120062902D01*
X110286819Y-116281328D01*
X110253334Y-116220005D01*
X110250500Y-116193647D01*
X110250500Y-115654604D01*
X110259939Y-115607151D01*
X110261742Y-115602799D01*
X110269737Y-115583497D01*
X110300500Y-115428842D01*
X110300500Y-115324500D01*
X110320185Y-115257461D01*
X110372989Y-115211706D01*
X110424500Y-115200500D01*
X110987770Y-115200500D01*
X111054809Y-115220185D01*
X111075451Y-115236819D01*
X112213181Y-116374548D01*
X112246666Y-116435871D01*
X112249500Y-116462229D01*
X112249500Y-117073918D01*
X112249500Y-117073920D01*
X112249499Y-117073920D01*
X112278340Y-117218907D01*
X112278343Y-117218917D01*
X112334914Y-117355492D01*
X112367812Y-117404727D01*
X112367813Y-117404730D01*
X112417046Y-117478414D01*
X112417052Y-117478421D01*
X116853926Y-121915293D01*
X116880805Y-121955519D01*
X116890603Y-121979172D01*
X116890606Y-121979178D01*
X116890609Y-121979185D01*
X116978210Y-122110288D01*
X116978213Y-122110292D01*
X117089707Y-122221786D01*
X117089711Y-122221789D01*
X117220814Y-122309390D01*
X117220827Y-122309397D01*
X117366498Y-122369735D01*
X117366503Y-122369737D01*
X117521153Y-122400499D01*
X117521156Y-122400500D01*
X117521158Y-122400500D01*
X117678844Y-122400500D01*
X117678845Y-122400499D01*
X117833497Y-122369737D01*
X117979179Y-122309394D01*
X118110289Y-122221789D01*
X118221789Y-122110289D01*
X118309394Y-121979179D01*
X118312854Y-121970827D01*
X118350954Y-121878843D01*
X118369737Y-121833497D01*
X118390127Y-121730992D01*
X118392084Y-121721153D01*
X122899500Y-121721153D01*
X122899500Y-121878843D01*
X122930261Y-122033489D01*
X122930264Y-122033501D01*
X122990602Y-122179172D01*
X122990609Y-122179185D01*
X123078210Y-122310288D01*
X123078213Y-122310292D01*
X123189707Y-122421786D01*
X123189711Y-122421789D01*
X123320814Y-122509390D01*
X123320827Y-122509397D01*
X123466498Y-122569735D01*
X123466503Y-122569737D01*
X123621153Y-122600499D01*
X123621156Y-122600500D01*
X123621158Y-122600500D01*
X123778844Y-122600500D01*
X123778845Y-122600499D01*
X123933497Y-122569737D01*
X124079179Y-122509394D01*
X124210289Y-122421789D01*
X124321789Y-122310289D01*
X124409394Y-122179179D01*
X124469737Y-122033497D01*
X124493249Y-121915293D01*
X124500500Y-121878843D01*
X124500500Y-121721155D01*
X124500499Y-121721153D01*
X124478269Y-121609397D01*
X124469737Y-121566503D01*
X124450955Y-121521158D01*
X124409397Y-121420827D01*
X124409390Y-121420814D01*
X124321789Y-121289711D01*
X124321786Y-121289707D01*
X124210292Y-121178213D01*
X124210288Y-121178210D01*
X124079185Y-121090609D01*
X124079172Y-121090602D01*
X123933501Y-121030264D01*
X123933489Y-121030261D01*
X123778845Y-120999500D01*
X123778842Y-120999500D01*
X123621158Y-120999500D01*
X123621155Y-120999500D01*
X123466510Y-121030261D01*
X123466498Y-121030264D01*
X123320827Y-121090602D01*
X123320814Y-121090609D01*
X123189711Y-121178210D01*
X123189707Y-121178213D01*
X123078213Y-121289707D01*
X123078210Y-121289711D01*
X122990609Y-121420814D01*
X122990602Y-121420827D01*
X122930264Y-121566498D01*
X122930261Y-121566510D01*
X122899500Y-121721153D01*
X118392084Y-121721153D01*
X118398107Y-121690875D01*
X118398107Y-121690874D01*
X118400500Y-121678844D01*
X118400500Y-121521155D01*
X118400499Y-121521153D01*
X118380543Y-121420827D01*
X118369737Y-121366503D01*
X118357049Y-121335872D01*
X118309397Y-121220827D01*
X118309390Y-121220814D01*
X118221789Y-121089711D01*
X118221786Y-121089707D01*
X118110292Y-120978213D01*
X118110288Y-120978210D01*
X117979185Y-120890609D01*
X117979180Y-120890607D01*
X117979179Y-120890606D01*
X117955519Y-120880805D01*
X117915293Y-120853926D01*
X117473548Y-120412181D01*
X117440063Y-120350858D01*
X117445047Y-120281166D01*
X117486919Y-120225233D01*
X117552383Y-120200816D01*
X117561229Y-120200500D01*
X117578844Y-120200500D01*
X117578845Y-120200499D01*
X117733497Y-120169737D01*
X117879179Y-120109394D01*
X118010289Y-120021789D01*
X118121789Y-119910289D01*
X118209394Y-119779179D01*
X118269737Y-119633497D01*
X118300500Y-119478842D01*
X118300500Y-119321158D01*
X118300500Y-119321155D01*
X118300499Y-119321153D01*
X118269738Y-119166510D01*
X118269737Y-119166503D01*
X118269735Y-119166498D01*
X118209397Y-119020827D01*
X118209390Y-119020814D01*
X118121789Y-118889711D01*
X118121786Y-118889707D01*
X118010292Y-118778213D01*
X118010288Y-118778210D01*
X117879185Y-118690609D01*
X117879175Y-118690604D01*
X117855523Y-118680807D01*
X117815295Y-118653927D01*
X116437819Y-117276451D01*
X116404334Y-117215128D01*
X116401500Y-117188770D01*
X116401500Y-115415169D01*
X116421185Y-115348130D01*
X116473989Y-115302375D01*
X116525500Y-115291169D01*
X118695326Y-115291169D01*
X118795924Y-115271158D01*
X118840319Y-115262327D01*
X118976901Y-115205753D01*
X119043454Y-115161284D01*
X119043457Y-115161281D01*
X119043459Y-115161281D01*
X119071826Y-115142326D01*
X119099822Y-115123621D01*
X119887819Y-114335621D01*
X119949142Y-114302137D01*
X120018833Y-114307121D01*
X120074767Y-114348992D01*
X120099184Y-114414457D01*
X120099500Y-114423303D01*
X120099500Y-115500001D01*
X120099501Y-115500018D01*
X120110000Y-115602796D01*
X120110001Y-115602799D01*
X120165185Y-115769331D01*
X120165187Y-115769336D01*
X120193014Y-115814450D01*
X120257288Y-115918656D01*
X120381344Y-116042712D01*
X120530666Y-116134814D01*
X120697203Y-116189999D01*
X120799991Y-116200500D01*
X122400008Y-116200499D01*
X122502797Y-116189999D01*
X122669334Y-116134814D01*
X122818656Y-116042712D01*
X122942712Y-115918656D01*
X123034814Y-115769334D01*
X123089999Y-115602797D01*
X123100500Y-115500009D01*
X123100499Y-114199992D01*
X123089999Y-114097203D01*
X123034814Y-113930666D01*
X122942712Y-113781344D01*
X122818656Y-113657288D01*
X122669334Y-113565186D01*
X122669332Y-113565185D01*
X122663440Y-113561551D01*
X122616716Y-113509603D01*
X122605493Y-113440641D01*
X122633337Y-113376558D01*
X122640856Y-113368330D01*
X122779728Y-113229458D01*
X122904620Y-113057557D01*
X123001095Y-112868217D01*
X123066757Y-112666129D01*
X123066757Y-112666126D01*
X123077231Y-112600000D01*
X122033012Y-112600000D01*
X122065925Y-112542993D01*
X122100000Y-112415826D01*
X122100000Y-112284174D01*
X122065925Y-112157007D01*
X122033012Y-112100000D01*
X123077231Y-112100000D01*
X123066757Y-112033873D01*
X123066757Y-112033870D01*
X123001095Y-111831782D01*
X122904620Y-111642442D01*
X122779727Y-111470540D01*
X122779723Y-111470535D01*
X122629464Y-111320276D01*
X122629459Y-111320272D01*
X122457557Y-111195379D01*
X122268217Y-111098904D01*
X122066129Y-111033242D01*
X121856246Y-111000000D01*
X121850000Y-111000000D01*
X121850000Y-111916988D01*
X121792993Y-111884075D01*
X121665826Y-111850000D01*
X121534174Y-111850000D01*
X121407007Y-111884075D01*
X121350000Y-111916988D01*
X121350000Y-111000000D01*
X121343754Y-111000000D01*
X121133872Y-111033242D01*
X121133869Y-111033242D01*
X120931782Y-111098904D01*
X120742442Y-111195379D01*
X120570540Y-111320272D01*
X120570535Y-111320276D01*
X120513181Y-111377631D01*
X120451858Y-111411116D01*
X120382166Y-111406132D01*
X120326233Y-111364260D01*
X120301816Y-111298796D01*
X120301500Y-111289950D01*
X120301500Y-110511228D01*
X120321185Y-110444189D01*
X120337814Y-110423551D01*
X121515295Y-109246070D01*
X121555519Y-109219193D01*
X121579179Y-109209394D01*
X121710289Y-109121789D01*
X121821789Y-109010289D01*
X121909394Y-108879179D01*
X121969737Y-108733497D01*
X122000500Y-108578842D01*
X122000500Y-108421158D01*
X122000500Y-108421155D01*
X122000499Y-108421153D01*
X121994355Y-108390264D01*
X121969737Y-108266503D01*
X121955935Y-108233181D01*
X121909397Y-108120827D01*
X121909390Y-108120814D01*
X121821789Y-107989711D01*
X121821786Y-107989707D01*
X121710292Y-107878213D01*
X121710288Y-107878210D01*
X121626453Y-107822193D01*
X121581648Y-107768581D01*
X121572941Y-107699256D01*
X121594370Y-107647118D01*
X121600363Y-107638709D01*
X121615032Y-107624041D01*
X121677064Y-107531202D01*
X121697164Y-107501120D01*
X121753738Y-107364538D01*
X121782580Y-107219543D01*
X121783077Y-107217045D01*
X121790134Y-107193782D01*
X121801815Y-107165582D01*
X121801815Y-107165581D01*
X121801817Y-107165577D01*
X121832580Y-107010922D01*
X121832580Y-106853238D01*
X121832580Y-106853235D01*
X121832579Y-106853233D01*
X121820517Y-106792594D01*
X121801817Y-106698583D01*
X121779079Y-106643688D01*
X121741477Y-106552907D01*
X121741470Y-106552894D01*
X121653869Y-106421791D01*
X121653866Y-106421787D01*
X121542372Y-106310293D01*
X121542368Y-106310290D01*
X121411265Y-106222689D01*
X121411252Y-106222682D01*
X121265581Y-106162344D01*
X121265569Y-106162341D01*
X121110925Y-106131580D01*
X121110922Y-106131580D01*
X120953238Y-106131580D01*
X120953235Y-106131580D01*
X120798590Y-106162341D01*
X120798578Y-106162344D01*
X120652907Y-106222682D01*
X120652894Y-106222689D01*
X120521791Y-106310290D01*
X120521787Y-106310293D01*
X120410293Y-106421787D01*
X120410290Y-106421791D01*
X120322689Y-106552894D01*
X120322682Y-106552907D01*
X120262344Y-106698578D01*
X120262341Y-106698588D01*
X120231091Y-106855692D01*
X120198706Y-106917603D01*
X120197155Y-106919181D01*
X119237325Y-107879011D01*
X119209489Y-107894210D01*
X119182516Y-107910893D01*
X119179047Y-107910833D01*
X119176002Y-107912496D01*
X119144361Y-107910233D01*
X119112657Y-107909685D01*
X119108428Y-107907663D01*
X119106310Y-107907512D01*
X119080811Y-107894471D01*
X119080420Y-107894210D01*
X118966994Y-107818421D01*
X118966631Y-107818270D01*
X118961260Y-107814686D01*
X118942555Y-107792329D01*
X118921769Y-107771893D01*
X118920400Y-107765849D01*
X118916425Y-107761098D01*
X118912776Y-107732183D01*
X118906338Y-107703749D01*
X118908454Y-107697924D01*
X118907679Y-107691778D01*
X118920244Y-107665476D01*
X118930199Y-107638080D01*
X118937259Y-107629862D01*
X118937798Y-107628734D01*
X118938715Y-107628166D01*
X118942404Y-107623872D01*
X119922591Y-106643688D01*
X120001648Y-106506757D01*
X120042572Y-106354029D01*
X120042572Y-106195914D01*
X120042572Y-106188319D01*
X120042571Y-106188301D01*
X120042571Y-105642168D01*
X120062256Y-105575129D01*
X120078885Y-105554492D01*
X122161506Y-103471870D01*
X122161511Y-103471867D01*
X122171714Y-103461663D01*
X122171716Y-103461663D01*
X122283520Y-103349859D01*
X122353198Y-103229172D01*
X122356808Y-103222920D01*
X122356809Y-103222919D01*
X122359149Y-103218864D01*
X122362577Y-103212928D01*
X122403501Y-103060200D01*
X122403501Y-102902086D01*
X122403501Y-102894491D01*
X122403500Y-102894473D01*
X122403500Y-97889800D01*
X122401995Y-97884186D01*
X122401992Y-97884175D01*
X122387826Y-97831305D01*
X122375148Y-97783991D01*
X122362577Y-97737073D01*
X122346325Y-97708924D01*
X122283524Y-97600147D01*
X122283521Y-97600143D01*
X122283520Y-97600141D01*
X122171716Y-97488337D01*
X122171715Y-97488336D01*
X122167385Y-97484006D01*
X122167374Y-97483996D01*
X120472423Y-95789045D01*
X120472421Y-95789042D01*
X120353550Y-95670171D01*
X120353542Y-95670165D01*
X120251116Y-95611030D01*
X120251114Y-95611029D01*
X120216623Y-95591115D01*
X120216622Y-95591114D01*
X120204096Y-95587757D01*
X120063890Y-95550189D01*
X119905776Y-95550189D01*
X119898180Y-95550189D01*
X119898164Y-95550190D01*
X119824849Y-95550190D01*
X119757810Y-95530505D01*
X119712055Y-95477701D01*
X119702111Y-95408543D01*
X119710288Y-95378738D01*
X119738027Y-95311767D01*
X119749737Y-95283497D01*
X119780500Y-95128842D01*
X119780500Y-94971158D01*
X119780500Y-94971155D01*
X119780499Y-94971153D01*
X119749737Y-94816503D01*
X119733860Y-94778172D01*
X119689397Y-94670827D01*
X119689390Y-94670814D01*
X119601789Y-94539711D01*
X119601786Y-94539707D01*
X119490292Y-94428213D01*
X119490288Y-94428210D01*
X119359185Y-94340609D01*
X119359172Y-94340602D01*
X119213501Y-94280264D01*
X119213489Y-94280261D01*
X119058845Y-94249500D01*
X119058842Y-94249500D01*
X118901158Y-94249500D01*
X118901155Y-94249500D01*
X118746510Y-94280261D01*
X118746498Y-94280264D01*
X118600827Y-94340602D01*
X118600814Y-94340609D01*
X118469711Y-94428210D01*
X118469707Y-94428213D01*
X118358213Y-94539707D01*
X118358210Y-94539711D01*
X118270609Y-94670814D01*
X118270602Y-94670827D01*
X118210264Y-94816498D01*
X118210261Y-94816510D01*
X118179500Y-94971153D01*
X118179500Y-95128846D01*
X118210261Y-95283489D01*
X118210264Y-95283501D01*
X118249712Y-95378738D01*
X118257181Y-95448208D01*
X118225905Y-95510687D01*
X118165816Y-95546338D01*
X118135151Y-95550190D01*
X116083943Y-95550190D01*
X116082306Y-95549937D01*
X116081472Y-95550165D01*
X116075045Y-95548820D01*
X116046644Y-95544447D01*
X116041484Y-95542819D01*
X116031068Y-95538505D01*
X116022231Y-95536747D01*
X116015763Y-95534707D01*
X115992151Y-95518859D01*
X115966957Y-95505679D01*
X115962276Y-95498808D01*
X115957749Y-95495769D01*
X115953465Y-95485871D01*
X115938501Y-95463902D01*
X115910397Y-95396052D01*
X115910390Y-95396039D01*
X115822789Y-95264936D01*
X115822786Y-95264932D01*
X115711292Y-95153438D01*
X115711288Y-95153435D01*
X115580185Y-95065834D01*
X115580172Y-95065827D01*
X115434501Y-95005489D01*
X115434489Y-95005486D01*
X115279845Y-94974725D01*
X115279842Y-94974725D01*
X115122158Y-94974725D01*
X115122153Y-94974725D01*
X115019651Y-94995114D01*
X114950059Y-94988887D01*
X114894882Y-94946024D01*
X114873843Y-94897688D01*
X114857695Y-94816510D01*
X114849737Y-94776503D01*
X114805965Y-94670827D01*
X114789397Y-94630827D01*
X114789390Y-94630814D01*
X114701789Y-94499711D01*
X114701786Y-94499707D01*
X114590292Y-94388213D01*
X114590288Y-94388210D01*
X114459185Y-94300609D01*
X114459172Y-94300602D01*
X114313501Y-94240264D01*
X114313489Y-94240261D01*
X114158845Y-94209500D01*
X114158842Y-94209500D01*
X114001158Y-94209500D01*
X114001155Y-94209500D01*
X113846511Y-94240260D01*
X113846506Y-94240262D01*
X113846504Y-94240262D01*
X113846503Y-94240263D01*
X113822844Y-94250062D01*
X113814670Y-94251688D01*
X113810331Y-94254477D01*
X113775396Y-94259500D01*
X113615921Y-94259500D01*
X113548882Y-94239815D01*
X113528240Y-94223181D01*
X113227240Y-93922181D01*
X113193755Y-93860858D01*
X113198739Y-93791166D01*
X113240611Y-93735233D01*
X113306075Y-93710816D01*
X113314921Y-93710500D01*
X113590234Y-93710500D01*
X113657273Y-93730185D01*
X113659125Y-93731398D01*
X113790814Y-93819390D01*
X113790827Y-93819397D01*
X113936498Y-93879735D01*
X113936503Y-93879737D01*
X114091153Y-93910499D01*
X114091156Y-93910500D01*
X114091158Y-93910500D01*
X114248844Y-93910500D01*
X114248845Y-93910499D01*
X114403497Y-93879737D01*
X114549179Y-93819394D01*
X114680289Y-93731789D01*
X114791789Y-93620289D01*
X114879394Y-93489179D01*
X114939737Y-93343497D01*
X114970500Y-93188842D01*
X114970500Y-93031158D01*
X114970500Y-93031155D01*
X114970499Y-93031153D01*
X114939738Y-92876510D01*
X114939737Y-92876503D01*
X114939735Y-92876498D01*
X114879397Y-92730827D01*
X114879390Y-92730814D01*
X114791789Y-92599711D01*
X114791786Y-92599707D01*
X114680292Y-92488213D01*
X114680288Y-92488210D01*
X114549185Y-92400609D01*
X114549172Y-92400602D01*
X114403501Y-92340264D01*
X114403489Y-92340261D01*
X114248845Y-92309500D01*
X114248842Y-92309500D01*
X114091158Y-92309500D01*
X114091155Y-92309500D01*
X113936510Y-92340261D01*
X113936498Y-92340264D01*
X113790827Y-92400602D01*
X113790814Y-92400609D01*
X113659125Y-92488602D01*
X113592447Y-92509480D01*
X113590234Y-92509500D01*
X111371881Y-92509500D01*
X111330960Y-92520464D01*
X111330960Y-92520465D01*
X111293692Y-92530451D01*
X111219155Y-92550423D01*
X111219150Y-92550426D01*
X111082231Y-92629475D01*
X111082223Y-92629481D01*
X110970419Y-92741286D01*
X109689329Y-94022375D01*
X109628006Y-94055860D01*
X109558314Y-94050876D01*
X109502381Y-94009004D01*
X109498546Y-94003585D01*
X109421789Y-93888711D01*
X109421786Y-93888707D01*
X109310292Y-93777213D01*
X109310288Y-93777210D01*
X109179185Y-93689609D01*
X109179172Y-93689602D01*
X109033501Y-93629264D01*
X109033489Y-93629261D01*
X108878845Y-93598500D01*
X108878842Y-93598500D01*
X108721158Y-93598500D01*
X108721155Y-93598500D01*
X108566510Y-93629261D01*
X108566498Y-93629264D01*
X108420827Y-93689602D01*
X108420814Y-93689609D01*
X108289711Y-93777210D01*
X108289707Y-93777213D01*
X108178213Y-93888707D01*
X108178210Y-93888711D01*
X108090609Y-94019814D01*
X108090602Y-94019827D01*
X108030264Y-94165498D01*
X108030261Y-94165510D01*
X107999500Y-94320153D01*
X107999500Y-94477846D01*
X108030261Y-94632489D01*
X108030264Y-94632501D01*
X108090602Y-94778172D01*
X108090609Y-94778185D01*
X108178210Y-94909288D01*
X108178213Y-94909292D01*
X108289707Y-95020786D01*
X108289711Y-95020789D01*
X108420814Y-95108390D01*
X108420827Y-95108397D01*
X108508230Y-95144599D01*
X108566503Y-95168737D01*
X108569687Y-95169370D01*
X108571199Y-95170161D01*
X108572336Y-95170506D01*
X108572270Y-95170721D01*
X108597813Y-95184082D01*
X108626701Y-95197274D01*
X108628557Y-95200163D01*
X108631599Y-95201754D01*
X108647309Y-95229340D01*
X108664476Y-95256052D01*
X108665136Y-95260643D01*
X108666175Y-95262468D01*
X108669499Y-95290987D01*
X108669499Y-95369998D01*
X108669499Y-95370000D01*
X108669500Y-95379994D01*
X108669500Y-95446106D01*
X108649815Y-95513145D01*
X108597011Y-95558900D01*
X108545500Y-95570106D01*
X108450393Y-95570106D01*
X108343037Y-95598872D01*
X108297660Y-95611031D01*
X108297659Y-95611032D01*
X108247546Y-95639966D01*
X108247545Y-95639967D01*
X108226776Y-95651958D01*
X108160735Y-95690086D01*
X108160732Y-95690088D01*
X108048928Y-95801893D01*
X106170397Y-97680423D01*
X106109074Y-97713908D01*
X106039382Y-97708924D01*
X105983449Y-97667052D01*
X105979624Y-97661648D01*
X105948262Y-97614711D01*
X105948260Y-97614708D01*
X105836765Y-97503213D01*
X105836761Y-97503210D01*
X105705658Y-97415609D01*
X105705645Y-97415602D01*
X105559974Y-97355264D01*
X105559962Y-97355261D01*
X105405318Y-97324500D01*
X105405315Y-97324500D01*
X105247631Y-97324500D01*
X105247628Y-97324500D01*
X105092983Y-97355261D01*
X105092971Y-97355264D01*
X104947300Y-97415602D01*
X104947287Y-97415609D01*
X104816184Y-97503210D01*
X104816180Y-97503213D01*
X104704686Y-97614707D01*
X104704683Y-97614711D01*
X104617082Y-97745814D01*
X104617077Y-97745824D01*
X104602244Y-97781635D01*
X104558403Y-97836038D01*
X104492108Y-97858103D01*
X104424409Y-97840824D01*
X104400002Y-97821863D01*
X104362130Y-97783991D01*
X104362126Y-97783988D01*
X104231023Y-97696387D01*
X104231010Y-97696380D01*
X104085339Y-97636042D01*
X104085327Y-97636039D01*
X103930683Y-97605278D01*
X103930680Y-97605278D01*
X103772996Y-97605278D01*
X103772993Y-97605278D01*
X103618348Y-97636039D01*
X103618336Y-97636042D01*
X103472665Y-97696380D01*
X103472652Y-97696387D01*
X103341549Y-97783988D01*
X103341545Y-97783991D01*
X103230051Y-97895485D01*
X103230048Y-97895489D01*
X103142447Y-98026592D01*
X103142442Y-98026601D01*
X103086049Y-98162748D01*
X103042208Y-98217151D01*
X103016526Y-98230827D01*
X103006365Y-98234787D01*
X103000066Y-98236041D01*
X102950736Y-98256473D01*
X102949538Y-98256941D01*
X102915967Y-98259838D01*
X102882483Y-98263439D01*
X102881273Y-98262833D01*
X102879927Y-98262950D01*
X102850124Y-98247241D01*
X102820004Y-98232164D01*
X102819314Y-98231001D01*
X102818118Y-98230371D01*
X102801538Y-98201042D01*
X102784352Y-98172075D01*
X102784120Y-98170228D01*
X102783735Y-98169547D01*
X102783828Y-98167904D01*
X102780500Y-98141409D01*
X102780500Y-97041161D01*
X102751659Y-96896174D01*
X102751658Y-96896173D01*
X102751658Y-96896169D01*
X102719501Y-96818534D01*
X102695087Y-96759593D01*
X102695083Y-96759586D01*
X102662009Y-96710087D01*
X102662008Y-96710085D01*
X102612956Y-96636671D01*
X102612952Y-96636666D01*
X101086818Y-95110532D01*
X101053333Y-95049209D01*
X101050499Y-95022851D01*
X101050499Y-94662129D01*
X101050498Y-94662123D01*
X101050497Y-94662116D01*
X101044091Y-94602517D01*
X101020664Y-94539707D01*
X100993797Y-94467671D01*
X100993793Y-94467664D01*
X100907547Y-94352455D01*
X100907544Y-94352452D01*
X100792335Y-94266206D01*
X100792328Y-94266202D01*
X100657482Y-94215908D01*
X100657483Y-94215908D01*
X100597883Y-94209501D01*
X100597881Y-94209500D01*
X100597873Y-94209500D01*
X100597864Y-94209500D01*
X99502129Y-94209500D01*
X99502123Y-94209501D01*
X99442516Y-94215908D01*
X99307671Y-94266202D01*
X99307664Y-94266206D01*
X99192455Y-94352452D01*
X99192452Y-94352455D01*
X99106206Y-94467664D01*
X99106202Y-94467671D01*
X99055908Y-94602517D01*
X99052685Y-94632501D01*
X99049501Y-94662123D01*
X99049500Y-94662135D01*
X99049500Y-95757870D01*
X99049501Y-95757876D01*
X99055908Y-95817483D01*
X99106202Y-95952328D01*
X99106206Y-95952335D01*
X99115023Y-95964113D01*
X99139440Y-96029578D01*
X99130318Y-96085874D01*
X99087948Y-96188168D01*
X99087947Y-96188171D01*
X99049500Y-96381456D01*
X99049500Y-96381459D01*
X99049500Y-96578541D01*
X99049500Y-96578543D01*
X99049499Y-96578543D01*
X98513155Y-96578543D01*
X98507205Y-91652486D01*
X99499500Y-91652486D01*
X99499500Y-91947513D01*
X99531571Y-92191113D01*
X99538007Y-92239993D01*
X99613159Y-92520465D01*
X99614361Y-92524951D01*
X99614364Y-92524961D01*
X99727254Y-92797500D01*
X99727258Y-92797510D01*
X99874761Y-93052993D01*
X100054352Y-93287040D01*
X100054358Y-93287047D01*
X100262952Y-93495641D01*
X100262959Y-93495647D01*
X100497006Y-93675238D01*
X100752489Y-93822741D01*
X100752490Y-93822741D01*
X100752493Y-93822743D01*
X100844511Y-93860858D01*
X100992557Y-93922181D01*
X101025048Y-93935639D01*
X101310007Y-94011993D01*
X101602494Y-94050500D01*
X101602501Y-94050500D01*
X101897499Y-94050500D01*
X101897506Y-94050500D01*
X102189993Y-94011993D01*
X102474952Y-93935639D01*
X102747507Y-93822743D01*
X103002994Y-93675238D01*
X103237042Y-93495646D01*
X103445646Y-93287042D01*
X103625238Y-93052994D01*
X103772743Y-92797507D01*
X103885639Y-92524952D01*
X103961993Y-92239993D01*
X104000500Y-91947506D01*
X104000500Y-91652494D01*
X104000499Y-91652486D01*
X119449500Y-91652486D01*
X119449500Y-91947513D01*
X119481571Y-92191113D01*
X119488007Y-92239993D01*
X119563159Y-92520465D01*
X119564361Y-92524951D01*
X119564364Y-92524961D01*
X119677254Y-92797500D01*
X119677258Y-92797510D01*
X119824761Y-93052993D01*
X120004352Y-93287040D01*
X120004358Y-93287047D01*
X120212952Y-93495641D01*
X120212959Y-93495647D01*
X120447006Y-93675238D01*
X120702489Y-93822741D01*
X120702490Y-93822741D01*
X120702493Y-93822743D01*
X120794511Y-93860858D01*
X120942557Y-93922181D01*
X120975048Y-93935639D01*
X121260007Y-94011993D01*
X121552494Y-94050500D01*
X121552501Y-94050500D01*
X121847499Y-94050500D01*
X121847506Y-94050500D01*
X122139993Y-94011993D01*
X122424952Y-93935639D01*
X122697507Y-93822743D01*
X122952994Y-93675238D01*
X123187042Y-93495646D01*
X123395646Y-93287042D01*
X123575238Y-93052994D01*
X123722743Y-92797507D01*
X123835639Y-92524952D01*
X123911993Y-92239993D01*
X123950500Y-91947506D01*
X123950500Y-91652494D01*
X123911993Y-91360007D01*
X123835639Y-91075048D01*
X123722743Y-90802493D01*
X123575238Y-90547006D01*
X123395646Y-90312958D01*
X123395641Y-90312952D01*
X123187047Y-90104358D01*
X123187040Y-90104352D01*
X122952993Y-89924761D01*
X122697510Y-89777258D01*
X122697500Y-89777254D01*
X122424961Y-89664364D01*
X122424954Y-89664362D01*
X122424952Y-89664361D01*
X122139993Y-89588007D01*
X122091113Y-89581571D01*
X121847513Y-89549500D01*
X121847506Y-89549500D01*
X121552494Y-89549500D01*
X121552486Y-89549500D01*
X121274085Y-89586153D01*
X121260007Y-89588007D01*
X120975048Y-89664361D01*
X120975038Y-89664364D01*
X120702499Y-89777254D01*
X120702489Y-89777258D01*
X120447006Y-89924761D01*
X120212959Y-90104352D01*
X120212952Y-90104358D01*
X120004358Y-90312952D01*
X120004352Y-90312959D01*
X119824761Y-90547006D01*
X119677258Y-90802489D01*
X119677254Y-90802499D01*
X119564364Y-91075038D01*
X119564361Y-91075048D01*
X119488008Y-91360004D01*
X119488006Y-91360015D01*
X119449500Y-91652486D01*
X104000499Y-91652486D01*
X103961993Y-91360007D01*
X103885639Y-91075048D01*
X103772743Y-90802493D01*
X103625238Y-90547006D01*
X103445646Y-90312958D01*
X103445641Y-90312952D01*
X103237047Y-90104358D01*
X103237040Y-90104352D01*
X103002993Y-89924761D01*
X102747510Y-89777258D01*
X102747500Y-89777254D01*
X102474961Y-89664364D01*
X102474954Y-89664362D01*
X102474952Y-89664361D01*
X102189993Y-89588007D01*
X102141113Y-89581571D01*
X101897513Y-89549500D01*
X101897506Y-89549500D01*
X101602494Y-89549500D01*
X101602486Y-89549500D01*
X101324085Y-89586153D01*
X101310007Y-89588007D01*
X101025048Y-89664361D01*
X101025038Y-89664364D01*
X100752499Y-89777254D01*
X100752489Y-89777258D01*
X100497006Y-89924761D01*
X100262959Y-90104352D01*
X100262952Y-90104358D01*
X100054358Y-90312952D01*
X100054352Y-90312959D01*
X99874761Y-90547006D01*
X99727258Y-90802489D01*
X99727254Y-90802499D01*
X99614364Y-91075038D01*
X99614361Y-91075048D01*
X99538008Y-91360004D01*
X99538006Y-91360015D01*
X99499500Y-91652486D01*
X98507205Y-91652486D01*
X98504333Y-89274149D01*
X98523937Y-89207087D01*
X98576685Y-89161268D01*
X98628333Y-89150000D01*
X124725500Y-89150000D01*
X124792539Y-89169685D01*
G37*
%TD.AperFunction*%
%TD*%
M02*
