%TF.GenerationSoftware,KiCad,Pcbnew,9.0.7*%
%TF.CreationDate,2026-03-25T18:17:34+01:00*%
%TF.ProjectId,SnapCore-Devboard-Rev1,536e6170-436f-4726-952d-446576626f61,rev?*%
%TF.SameCoordinates,Original*%
%TF.FileFunction,Legend,Bot*%
%TF.FilePolarity,Positive*%
%FSLAX46Y46*%
G04 Gerber Fmt 4.6, Leading zero omitted, Abs format (unit mm)*
G04 Created by KiCad (PCBNEW 9.0.7) date 2026-03-25 18:17:34*
%MOMM*%
%LPD*%
G01*
G04 APERTURE LIST*
G04 Aperture macros list*
%AMRoundRect*
0 Rectangle with rounded corners*
0 $1 Rounding radius*
0 $2 $3 $4 $5 $6 $7 $8 $9 X,Y pos of 4 corners*
0 Add a 4 corners polygon primitive as box body*
4,1,4,$2,$3,$4,$5,$6,$7,$8,$9,$2,$3,0*
0 Add four circle primitives for the rounded corners*
1,1,$1+$1,$2,$3*
1,1,$1+$1,$4,$5*
1,1,$1+$1,$6,$7*
1,1,$1+$1,$8,$9*
0 Add four rect primitives between the rounded corners*
20,1,$1+$1,$2,$3,$4,$5,0*
20,1,$1+$1,$4,$5,$6,$7,0*
20,1,$1+$1,$6,$7,$8,$9,0*
20,1,$1+$1,$8,$9,$2,$3,0*%
G04 Aperture macros list end*
%ADD10C,0.200000*%
%ADD11C,0.000000*%
%ADD12C,0.120000*%
%ADD13C,2.000000*%
%ADD14C,3.500000*%
%ADD15RoundRect,0.250000X0.750000X-0.600000X0.750000X0.600000X-0.750000X0.600000X-0.750000X-0.600000X0*%
%ADD16O,2.000000X1.700000*%
%ADD17C,0.650000*%
%ADD18O,1.000000X2.100000*%
%ADD19O,1.000000X1.800000*%
%ADD20R,1.000000X1.000000*%
%ADD21C,1.000000*%
G04 APERTURE END LIST*
D10*
X112673183Y-128567219D02*
X112339850Y-129567219D01*
X112339850Y-129567219D02*
X112006517Y-128567219D01*
X111339850Y-129043409D02*
X111196993Y-129091028D01*
X111196993Y-129091028D02*
X111149374Y-129138647D01*
X111149374Y-129138647D02*
X111101755Y-129233885D01*
X111101755Y-129233885D02*
X111101755Y-129376742D01*
X111101755Y-129376742D02*
X111149374Y-129471980D01*
X111149374Y-129471980D02*
X111196993Y-129519600D01*
X111196993Y-129519600D02*
X111292231Y-129567219D01*
X111292231Y-129567219D02*
X111673183Y-129567219D01*
X111673183Y-129567219D02*
X111673183Y-128567219D01*
X111673183Y-128567219D02*
X111339850Y-128567219D01*
X111339850Y-128567219D02*
X111244612Y-128614838D01*
X111244612Y-128614838D02*
X111196993Y-128662457D01*
X111196993Y-128662457D02*
X111149374Y-128757695D01*
X111149374Y-128757695D02*
X111149374Y-128852933D01*
X111149374Y-128852933D02*
X111196993Y-128948171D01*
X111196993Y-128948171D02*
X111244612Y-128995790D01*
X111244612Y-128995790D02*
X111339850Y-129043409D01*
X111339850Y-129043409D02*
X111673183Y-129043409D01*
X110673183Y-128567219D02*
X110673183Y-129376742D01*
X110673183Y-129376742D02*
X110625564Y-129471980D01*
X110625564Y-129471980D02*
X110577945Y-129519600D01*
X110577945Y-129519600D02*
X110482707Y-129567219D01*
X110482707Y-129567219D02*
X110292231Y-129567219D01*
X110292231Y-129567219D02*
X110196993Y-129519600D01*
X110196993Y-129519600D02*
X110149374Y-129471980D01*
X110149374Y-129471980D02*
X110101755Y-129376742D01*
X110101755Y-129376742D02*
X110101755Y-128567219D01*
X109673183Y-129519600D02*
X109530326Y-129567219D01*
X109530326Y-129567219D02*
X109292231Y-129567219D01*
X109292231Y-129567219D02*
X109196993Y-129519600D01*
X109196993Y-129519600D02*
X109149374Y-129471980D01*
X109149374Y-129471980D02*
X109101755Y-129376742D01*
X109101755Y-129376742D02*
X109101755Y-129281504D01*
X109101755Y-129281504D02*
X109149374Y-129186266D01*
X109149374Y-129186266D02*
X109196993Y-129138647D01*
X109196993Y-129138647D02*
X109292231Y-129091028D01*
X109292231Y-129091028D02*
X109482707Y-129043409D01*
X109482707Y-129043409D02*
X109577945Y-128995790D01*
X109577945Y-128995790D02*
X109625564Y-128948171D01*
X109625564Y-128948171D02*
X109673183Y-128852933D01*
X109673183Y-128852933D02*
X109673183Y-128757695D01*
X109673183Y-128757695D02*
X109625564Y-128662457D01*
X109625564Y-128662457D02*
X109577945Y-128614838D01*
X109577945Y-128614838D02*
X109482707Y-128567219D01*
X109482707Y-128567219D02*
X109244612Y-128567219D01*
X109244612Y-128567219D02*
X109101755Y-128614838D01*
X102006517Y-120414838D02*
X102101755Y-120367219D01*
X102101755Y-120367219D02*
X102244612Y-120367219D01*
X102244612Y-120367219D02*
X102387469Y-120414838D01*
X102387469Y-120414838D02*
X102482707Y-120510076D01*
X102482707Y-120510076D02*
X102530326Y-120605314D01*
X102530326Y-120605314D02*
X102577945Y-120795790D01*
X102577945Y-120795790D02*
X102577945Y-120938647D01*
X102577945Y-120938647D02*
X102530326Y-121129123D01*
X102530326Y-121129123D02*
X102482707Y-121224361D01*
X102482707Y-121224361D02*
X102387469Y-121319600D01*
X102387469Y-121319600D02*
X102244612Y-121367219D01*
X102244612Y-121367219D02*
X102149374Y-121367219D01*
X102149374Y-121367219D02*
X102006517Y-121319600D01*
X102006517Y-121319600D02*
X101958898Y-121271980D01*
X101958898Y-121271980D02*
X101958898Y-120938647D01*
X101958898Y-120938647D02*
X102149374Y-120938647D01*
X101530326Y-121367219D02*
X101530326Y-120367219D01*
X101530326Y-120367219D02*
X100958898Y-121367219D01*
X100958898Y-121367219D02*
X100958898Y-120367219D01*
X100482707Y-121367219D02*
X100482707Y-120367219D01*
X100482707Y-120367219D02*
X100244612Y-120367219D01*
X100244612Y-120367219D02*
X100101755Y-120414838D01*
X100101755Y-120414838D02*
X100006517Y-120510076D01*
X100006517Y-120510076D02*
X99958898Y-120605314D01*
X99958898Y-120605314D02*
X99911279Y-120795790D01*
X99911279Y-120795790D02*
X99911279Y-120938647D01*
X99911279Y-120938647D02*
X99958898Y-121129123D01*
X99958898Y-121129123D02*
X100006517Y-121224361D01*
X100006517Y-121224361D02*
X100101755Y-121319600D01*
X100101755Y-121319600D02*
X100244612Y-121367219D01*
X100244612Y-121367219D02*
X100482707Y-121367219D01*
X105858898Y-120067219D02*
X106192231Y-119591028D01*
X106430326Y-120067219D02*
X106430326Y-119067219D01*
X106430326Y-119067219D02*
X106049374Y-119067219D01*
X106049374Y-119067219D02*
X105954136Y-119114838D01*
X105954136Y-119114838D02*
X105906517Y-119162457D01*
X105906517Y-119162457D02*
X105858898Y-119257695D01*
X105858898Y-119257695D02*
X105858898Y-119400552D01*
X105858898Y-119400552D02*
X105906517Y-119495790D01*
X105906517Y-119495790D02*
X105954136Y-119543409D01*
X105954136Y-119543409D02*
X106049374Y-119591028D01*
X106049374Y-119591028D02*
X106430326Y-119591028D01*
X105430326Y-119543409D02*
X105096993Y-119543409D01*
X104954136Y-120067219D02*
X105430326Y-120067219D01*
X105430326Y-120067219D02*
X105430326Y-119067219D01*
X105430326Y-119067219D02*
X104954136Y-119067219D01*
X104573183Y-120019600D02*
X104430326Y-120067219D01*
X104430326Y-120067219D02*
X104192231Y-120067219D01*
X104192231Y-120067219D02*
X104096993Y-120019600D01*
X104096993Y-120019600D02*
X104049374Y-119971980D01*
X104049374Y-119971980D02*
X104001755Y-119876742D01*
X104001755Y-119876742D02*
X104001755Y-119781504D01*
X104001755Y-119781504D02*
X104049374Y-119686266D01*
X104049374Y-119686266D02*
X104096993Y-119638647D01*
X104096993Y-119638647D02*
X104192231Y-119591028D01*
X104192231Y-119591028D02*
X104382707Y-119543409D01*
X104382707Y-119543409D02*
X104477945Y-119495790D01*
X104477945Y-119495790D02*
X104525564Y-119448171D01*
X104525564Y-119448171D02*
X104573183Y-119352933D01*
X104573183Y-119352933D02*
X104573183Y-119257695D01*
X104573183Y-119257695D02*
X104525564Y-119162457D01*
X104525564Y-119162457D02*
X104477945Y-119114838D01*
X104477945Y-119114838D02*
X104382707Y-119067219D01*
X104382707Y-119067219D02*
X104144612Y-119067219D01*
X104144612Y-119067219D02*
X104001755Y-119114838D01*
X103573183Y-119543409D02*
X103239850Y-119543409D01*
X103096993Y-120067219D02*
X103573183Y-120067219D01*
X103573183Y-120067219D02*
X103573183Y-119067219D01*
X103573183Y-119067219D02*
X103096993Y-119067219D01*
X102811278Y-119067219D02*
X102239850Y-119067219D01*
X102525564Y-120067219D02*
X102525564Y-119067219D01*
X112325564Y-114567219D02*
X111706517Y-114567219D01*
X111706517Y-114567219D02*
X112039850Y-114948171D01*
X112039850Y-114948171D02*
X111896993Y-114948171D01*
X111896993Y-114948171D02*
X111801755Y-114995790D01*
X111801755Y-114995790D02*
X111754136Y-115043409D01*
X111754136Y-115043409D02*
X111706517Y-115138647D01*
X111706517Y-115138647D02*
X111706517Y-115376742D01*
X111706517Y-115376742D02*
X111754136Y-115471980D01*
X111754136Y-115471980D02*
X111801755Y-115519600D01*
X111801755Y-115519600D02*
X111896993Y-115567219D01*
X111896993Y-115567219D02*
X112182707Y-115567219D01*
X112182707Y-115567219D02*
X112277945Y-115519600D01*
X112277945Y-115519600D02*
X112325564Y-115471980D01*
X111420802Y-114567219D02*
X111087469Y-115567219D01*
X111087469Y-115567219D02*
X110754136Y-114567219D01*
X110516040Y-114567219D02*
X109896993Y-114567219D01*
X109896993Y-114567219D02*
X110230326Y-114948171D01*
X110230326Y-114948171D02*
X110087469Y-114948171D01*
X110087469Y-114948171D02*
X109992231Y-114995790D01*
X109992231Y-114995790D02*
X109944612Y-115043409D01*
X109944612Y-115043409D02*
X109896993Y-115138647D01*
X109896993Y-115138647D02*
X109896993Y-115376742D01*
X109896993Y-115376742D02*
X109944612Y-115471980D01*
X109944612Y-115471980D02*
X109992231Y-115519600D01*
X109992231Y-115519600D02*
X110087469Y-115567219D01*
X110087469Y-115567219D02*
X110373183Y-115567219D01*
X110373183Y-115567219D02*
X110468421Y-115519600D01*
X110468421Y-115519600D02*
X110516040Y-115471980D01*
X113030326Y-110067219D02*
X113030326Y-109067219D01*
X113030326Y-109067219D02*
X112649374Y-109067219D01*
X112649374Y-109067219D02*
X112554136Y-109114838D01*
X112554136Y-109114838D02*
X112506517Y-109162457D01*
X112506517Y-109162457D02*
X112458898Y-109257695D01*
X112458898Y-109257695D02*
X112458898Y-109400552D01*
X112458898Y-109400552D02*
X112506517Y-109495790D01*
X112506517Y-109495790D02*
X112554136Y-109543409D01*
X112554136Y-109543409D02*
X112649374Y-109591028D01*
X112649374Y-109591028D02*
X113030326Y-109591028D01*
X111458898Y-110067219D02*
X111792231Y-109591028D01*
X112030326Y-110067219D02*
X112030326Y-109067219D01*
X112030326Y-109067219D02*
X111649374Y-109067219D01*
X111649374Y-109067219D02*
X111554136Y-109114838D01*
X111554136Y-109114838D02*
X111506517Y-109162457D01*
X111506517Y-109162457D02*
X111458898Y-109257695D01*
X111458898Y-109257695D02*
X111458898Y-109400552D01*
X111458898Y-109400552D02*
X111506517Y-109495790D01*
X111506517Y-109495790D02*
X111554136Y-109543409D01*
X111554136Y-109543409D02*
X111649374Y-109591028D01*
X111649374Y-109591028D02*
X112030326Y-109591028D01*
X110839850Y-109067219D02*
X110649374Y-109067219D01*
X110649374Y-109067219D02*
X110554136Y-109114838D01*
X110554136Y-109114838D02*
X110458898Y-109210076D01*
X110458898Y-109210076D02*
X110411279Y-109400552D01*
X110411279Y-109400552D02*
X110411279Y-109733885D01*
X110411279Y-109733885D02*
X110458898Y-109924361D01*
X110458898Y-109924361D02*
X110554136Y-110019600D01*
X110554136Y-110019600D02*
X110649374Y-110067219D01*
X110649374Y-110067219D02*
X110839850Y-110067219D01*
X110839850Y-110067219D02*
X110935088Y-110019600D01*
X110935088Y-110019600D02*
X111030326Y-109924361D01*
X111030326Y-109924361D02*
X111077945Y-109733885D01*
X111077945Y-109733885D02*
X111077945Y-109400552D01*
X111077945Y-109400552D02*
X111030326Y-109210076D01*
X111030326Y-109210076D02*
X110935088Y-109114838D01*
X110935088Y-109114838D02*
X110839850Y-109067219D01*
X109458898Y-109114838D02*
X109554136Y-109067219D01*
X109554136Y-109067219D02*
X109696993Y-109067219D01*
X109696993Y-109067219D02*
X109839850Y-109114838D01*
X109839850Y-109114838D02*
X109935088Y-109210076D01*
X109935088Y-109210076D02*
X109982707Y-109305314D01*
X109982707Y-109305314D02*
X110030326Y-109495790D01*
X110030326Y-109495790D02*
X110030326Y-109638647D01*
X110030326Y-109638647D02*
X109982707Y-109829123D01*
X109982707Y-109829123D02*
X109935088Y-109924361D01*
X109935088Y-109924361D02*
X109839850Y-110019600D01*
X109839850Y-110019600D02*
X109696993Y-110067219D01*
X109696993Y-110067219D02*
X109601755Y-110067219D01*
X109601755Y-110067219D02*
X109458898Y-110019600D01*
X109458898Y-110019600D02*
X109411279Y-109971980D01*
X109411279Y-109971980D02*
X109411279Y-109638647D01*
X109411279Y-109638647D02*
X109601755Y-109638647D01*
X107158898Y-91567219D02*
X107492231Y-91091028D01*
X107730326Y-91567219D02*
X107730326Y-90567219D01*
X107730326Y-90567219D02*
X107349374Y-90567219D01*
X107349374Y-90567219D02*
X107254136Y-90614838D01*
X107254136Y-90614838D02*
X107206517Y-90662457D01*
X107206517Y-90662457D02*
X107158898Y-90757695D01*
X107158898Y-90757695D02*
X107158898Y-90900552D01*
X107158898Y-90900552D02*
X107206517Y-90995790D01*
X107206517Y-90995790D02*
X107254136Y-91043409D01*
X107254136Y-91043409D02*
X107349374Y-91091028D01*
X107349374Y-91091028D02*
X107730326Y-91091028D01*
X106396993Y-91043409D02*
X106730326Y-91043409D01*
X106730326Y-91567219D02*
X106730326Y-90567219D01*
X106730326Y-90567219D02*
X106254136Y-90567219D01*
D11*
%TO.C,G\u002A\u002A\u002A*%
G36*
X108996501Y-100960001D02*
G01*
X109102803Y-101021331D01*
X109202633Y-101079001D01*
X109294029Y-101131870D01*
X109375027Y-101178802D01*
X109443664Y-101218655D01*
X109497977Y-101250291D01*
X109536001Y-101272570D01*
X109555775Y-101284354D01*
X109558186Y-101285919D01*
X109550757Y-101295166D01*
X109527631Y-101319996D01*
X109490347Y-101358837D01*
X109440445Y-101410118D01*
X109379464Y-101472267D01*
X109308945Y-101543713D01*
X109230427Y-101622885D01*
X109145449Y-101708211D01*
X109092177Y-101761532D01*
X108621308Y-102232285D01*
X108064484Y-101911228D01*
X107958182Y-101849898D01*
X107858351Y-101792228D01*
X107766956Y-101739358D01*
X107685957Y-101692427D01*
X107617321Y-101652574D01*
X107563008Y-101620938D01*
X107524983Y-101598659D01*
X107505210Y-101586875D01*
X107502799Y-101585310D01*
X107510228Y-101576063D01*
X107533354Y-101551233D01*
X107570638Y-101512392D01*
X107620540Y-101461111D01*
X107681520Y-101398962D01*
X107752039Y-101327516D01*
X107830558Y-101248344D01*
X107915536Y-101163018D01*
X107968807Y-101109697D01*
X108439676Y-100638944D01*
X108996501Y-100960001D01*
G37*
G36*
X106008376Y-99234647D02*
G01*
X106117167Y-99297497D01*
X106219552Y-99356727D01*
X106313609Y-99411222D01*
X106397416Y-99459864D01*
X106469052Y-99501535D01*
X106526595Y-99535118D01*
X106568122Y-99559496D01*
X106591713Y-99573551D01*
X106596500Y-99576602D01*
X106589479Y-99586143D01*
X106567000Y-99610819D01*
X106530963Y-99648734D01*
X106483268Y-99697992D01*
X106425813Y-99756697D01*
X106360499Y-99822951D01*
X106289225Y-99894858D01*
X106213891Y-99970523D01*
X106136396Y-100048048D01*
X106058639Y-100125538D01*
X105982520Y-100201095D01*
X105909939Y-100272823D01*
X105842796Y-100338826D01*
X105782989Y-100397208D01*
X105732418Y-100446072D01*
X105692983Y-100483521D01*
X105666583Y-100507660D01*
X105655119Y-100516591D01*
X105654965Y-100516604D01*
X105642440Y-100510480D01*
X105610843Y-100493235D01*
X105562120Y-100465976D01*
X105498218Y-100429812D01*
X105421084Y-100385851D01*
X105332665Y-100335202D01*
X105234906Y-100278971D01*
X105129756Y-100218269D01*
X105062257Y-100179194D01*
X104481766Y-99842795D01*
X104953874Y-99370608D01*
X105425982Y-98898422D01*
X106008376Y-99234647D01*
G37*
G36*
X114887658Y-99370371D02*
G01*
X114996566Y-99433384D01*
X115098896Y-99492807D01*
X115192756Y-99547525D01*
X115276251Y-99596424D01*
X115347490Y-99638391D01*
X115404579Y-99672312D01*
X115445624Y-99697071D01*
X115468733Y-99711556D01*
X115473240Y-99714948D01*
X115464873Y-99724430D01*
X115440744Y-99749607D01*
X115402311Y-99789005D01*
X115351033Y-99841147D01*
X115288367Y-99904560D01*
X115215773Y-99977768D01*
X115134707Y-100059295D01*
X115046630Y-100147668D01*
X114952997Y-100241410D01*
X114935208Y-100259198D01*
X114397175Y-100797089D01*
X113819626Y-100461407D01*
X113711265Y-100398374D01*
X113609210Y-100338910D01*
X113515401Y-100284151D01*
X113431776Y-100235234D01*
X113360275Y-100193296D01*
X113302838Y-100159474D01*
X113261402Y-100134903D01*
X113237907Y-100120721D01*
X113233236Y-100117679D01*
X113240040Y-100107914D01*
X113262671Y-100082492D01*
X113299699Y-100042886D01*
X113349694Y-99990572D01*
X113411225Y-99927025D01*
X113482863Y-99853721D01*
X113563179Y-99772135D01*
X113650741Y-99683741D01*
X113744120Y-99590016D01*
X113763236Y-99570893D01*
X114302077Y-99032155D01*
X114887658Y-99370371D01*
G37*
G36*
X119266755Y-99733571D02*
G01*
X119375007Y-99796266D01*
X119476763Y-99855458D01*
X119570101Y-99910011D01*
X119653103Y-99958792D01*
X119723847Y-100000664D01*
X119780413Y-100034493D01*
X119820881Y-100059145D01*
X119843330Y-100073485D01*
X119847349Y-100076658D01*
X119839268Y-100086192D01*
X119814924Y-100111918D01*
X119775282Y-100152864D01*
X119721305Y-100208059D01*
X119653957Y-100276529D01*
X119574201Y-100357304D01*
X119483000Y-100449410D01*
X119381320Y-100551876D01*
X119270122Y-100663729D01*
X119150370Y-100783997D01*
X119023029Y-100911708D01*
X118889062Y-101045889D01*
X118749432Y-101185569D01*
X118625448Y-101309459D01*
X117400430Y-102532912D01*
X116820001Y-102197044D01*
X116711608Y-102134216D01*
X116609792Y-102074996D01*
X116516454Y-102020502D01*
X116433494Y-101971856D01*
X116362814Y-101930175D01*
X116306315Y-101896580D01*
X116265896Y-101872190D01*
X116243459Y-101858124D01*
X116239412Y-101855075D01*
X116247836Y-101845919D01*
X116272503Y-101820551D01*
X116312448Y-101779939D01*
X116366706Y-101725055D01*
X116434310Y-101656868D01*
X116514297Y-101576347D01*
X116605701Y-101484463D01*
X116707556Y-101382185D01*
X116818897Y-101270483D01*
X116938760Y-101150327D01*
X117066178Y-101022686D01*
X117200188Y-100888532D01*
X117339822Y-100748832D01*
X117464265Y-100624402D01*
X118689276Y-99399832D01*
X119266755Y-99733571D01*
G37*
G36*
X105975130Y-101599995D02*
G01*
X106181844Y-101719423D01*
X106382937Y-101835636D01*
X106577398Y-101948046D01*
X106764213Y-102056067D01*
X106942368Y-102159113D01*
X107110851Y-102256596D01*
X107268649Y-102347929D01*
X107414748Y-102432526D01*
X107548135Y-102509800D01*
X107667798Y-102579165D01*
X107772723Y-102640032D01*
X107861897Y-102691817D01*
X107934307Y-102733931D01*
X107988940Y-102765788D01*
X108024782Y-102786801D01*
X108040821Y-102796383D01*
X108041612Y-102796917D01*
X108034806Y-102806674D01*
X108012546Y-102831569D01*
X107976729Y-102869703D01*
X107929249Y-102919176D01*
X107872005Y-102978087D01*
X107806892Y-103044538D01*
X107735806Y-103116628D01*
X107660643Y-103192458D01*
X107583301Y-103270126D01*
X107505675Y-103347734D01*
X107429662Y-103423382D01*
X107357158Y-103495169D01*
X107290059Y-103561196D01*
X107230262Y-103619562D01*
X107179664Y-103668369D01*
X107140159Y-103705715D01*
X107113645Y-103729701D01*
X107102018Y-103738427D01*
X107101878Y-103738431D01*
X107090275Y-103732307D01*
X107058644Y-103714593D01*
X107008006Y-103685877D01*
X106939382Y-103646744D01*
X106853792Y-103597784D01*
X106752259Y-103539581D01*
X106635802Y-103472725D01*
X106505444Y-103397801D01*
X106362204Y-103315397D01*
X106207105Y-103226101D01*
X106041166Y-103130499D01*
X105865410Y-103029179D01*
X105680856Y-102922728D01*
X105488527Y-102811732D01*
X105289444Y-102696780D01*
X105084626Y-102578457D01*
X105053039Y-102560204D01*
X104847239Y-102441257D01*
X104646933Y-102325446D01*
X104453149Y-102213368D01*
X104266915Y-102105619D01*
X104089259Y-102002796D01*
X103921209Y-101905493D01*
X103763794Y-101814307D01*
X103618041Y-101729834D01*
X103484978Y-101652670D01*
X103365633Y-101583412D01*
X103261036Y-101522654D01*
X103172212Y-101470994D01*
X103100192Y-101429027D01*
X103046002Y-101397349D01*
X103010671Y-101376556D01*
X102995226Y-101367244D01*
X102994709Y-101366890D01*
X102991154Y-101362169D01*
X102991537Y-101354804D01*
X102997119Y-101343434D01*
X103009157Y-101326698D01*
X103028912Y-101303235D01*
X103057642Y-101271683D01*
X103096608Y-101230680D01*
X103147068Y-101178866D01*
X103210282Y-101114880D01*
X103287509Y-101037359D01*
X103380008Y-100944942D01*
X103444590Y-100880553D01*
X103916179Y-100410604D01*
X105975130Y-101599995D01*
G37*
G36*
X106959710Y-97399686D02*
G01*
X106971679Y-97406448D01*
X107004050Y-97424995D01*
X107056167Y-97454947D01*
X107127374Y-97495926D01*
X107217015Y-97547555D01*
X107324435Y-97609454D01*
X107448977Y-97681245D01*
X107589986Y-97762550D01*
X107746806Y-97852990D01*
X107918781Y-97952187D01*
X108105256Y-98059762D01*
X108305573Y-98175337D01*
X108519078Y-98298534D01*
X108745115Y-98428974D01*
X108983028Y-98566278D01*
X109232161Y-98710068D01*
X109491858Y-98859966D01*
X109761463Y-99015593D01*
X110040321Y-99176572D01*
X110327775Y-99342522D01*
X110623170Y-99513067D01*
X110925850Y-99687827D01*
X111235159Y-99866424D01*
X111550441Y-100048479D01*
X111871041Y-100233615D01*
X111909490Y-100255819D01*
X116835682Y-103100630D01*
X116364261Y-103572167D01*
X116275868Y-103660454D01*
X116192652Y-103743320D01*
X116116193Y-103819213D01*
X116048066Y-103886577D01*
X115989849Y-103943860D01*
X115943120Y-103989508D01*
X115909454Y-104021968D01*
X115890431Y-104039684D01*
X115886702Y-104042592D01*
X115875880Y-104036499D01*
X115844654Y-104018617D01*
X115793677Y-103989324D01*
X115723602Y-103948994D01*
X115635082Y-103898006D01*
X115528768Y-103836736D01*
X115405314Y-103765560D01*
X115265372Y-103684856D01*
X115109594Y-103594999D01*
X114938634Y-103496367D01*
X114753144Y-103389336D01*
X114553777Y-103274283D01*
X114341184Y-103151585D01*
X114116020Y-103021617D01*
X113878936Y-102884758D01*
X113630585Y-102741382D01*
X113371619Y-102591868D01*
X113102692Y-102436592D01*
X112824456Y-102275930D01*
X112537563Y-102110259D01*
X112242666Y-101939956D01*
X111940418Y-101765398D01*
X111631471Y-101586960D01*
X111316478Y-101405021D01*
X110996091Y-101219955D01*
X110953159Y-101195156D01*
X110559612Y-100967807D01*
X110186626Y-100752304D01*
X109833693Y-100548350D01*
X109500303Y-100355649D01*
X109185949Y-100173903D01*
X108890122Y-100002817D01*
X108612312Y-99842094D01*
X108352012Y-99691439D01*
X108108713Y-99550553D01*
X107881906Y-99419141D01*
X107671082Y-99296907D01*
X107475733Y-99183555D01*
X107295350Y-99078787D01*
X107129425Y-98982307D01*
X106977449Y-98893819D01*
X106838913Y-98813027D01*
X106713309Y-98739633D01*
X106600128Y-98673343D01*
X106498861Y-98613859D01*
X106409000Y-98560884D01*
X106330036Y-98514123D01*
X106261461Y-98473279D01*
X106202765Y-98438056D01*
X106153441Y-98408157D01*
X106112979Y-98383286D01*
X106080871Y-98363146D01*
X106056609Y-98347441D01*
X106039683Y-98335875D01*
X106029585Y-98328150D01*
X106025807Y-98323972D01*
X106025753Y-98323660D01*
X106034224Y-98308718D01*
X106059704Y-98277741D01*
X106102296Y-98230622D01*
X106162106Y-98167249D01*
X106239234Y-98087516D01*
X106333785Y-97991313D01*
X106445863Y-97878530D01*
X106480938Y-97843426D01*
X106582530Y-97742003D01*
X106668422Y-97656626D01*
X106739984Y-97586025D01*
X106798589Y-97528928D01*
X106845609Y-97484065D01*
X106882413Y-97450163D01*
X106910375Y-97425952D01*
X106930865Y-97410161D01*
X106945255Y-97401519D01*
X106954917Y-97398754D01*
X106959710Y-97399686D01*
G37*
D12*
%TO.C,TP7*%
X112700000Y-111900000D02*
G75*
G02*
X110300000Y-111900000I-1200000J0D01*
G01*
X110300000Y-111900000D02*
G75*
G02*
X112700000Y-111900000I1200000J0D01*
G01*
%TO.C,TP6*%
X108400000Y-93300000D02*
G75*
G02*
X106000000Y-93300000I-1200000J0D01*
G01*
X106000000Y-93300000D02*
G75*
G02*
X108400000Y-93300000I1200000J0D01*
G01*
%TO.C,TP5*%
X105700000Y-121800000D02*
G75*
G02*
X103300000Y-121800000I-1200000J0D01*
G01*
X103300000Y-121800000D02*
G75*
G02*
X105700000Y-121800000I1200000J0D01*
G01*
%TO.C,TP4*%
X102200000Y-123100000D02*
G75*
G02*
X99800000Y-123100000I-1200000J0D01*
G01*
X99800000Y-123100000D02*
G75*
G02*
X102200000Y-123100000I1200000J0D01*
G01*
%TO.C,TP3*%
X112500000Y-117300000D02*
G75*
G02*
X110100000Y-117300000I-1200000J0D01*
G01*
X110100000Y-117300000D02*
G75*
G02*
X112500000Y-117300000I1200000J0D01*
G01*
%TO.C,TP1*%
X112200000Y-127000000D02*
G75*
G02*
X109800000Y-127000000I-1200000J0D01*
G01*
X109800000Y-127000000D02*
G75*
G02*
X112200000Y-127000000I1200000J0D01*
G01*
%TD*%
%LPC*%
D13*
%TO.C,TP7*%
X111500000Y-111900000D03*
%TD*%
%TO.C,TP6*%
X107200000Y-93300000D03*
%TD*%
%TO.C,TP5*%
X104500000Y-121800000D03*
%TD*%
%TO.C,TP4*%
X101000000Y-123100000D03*
%TD*%
%TO.C,TP3*%
X111300000Y-117300000D03*
%TD*%
%TO.C,TP1*%
X111000000Y-127000000D03*
%TD*%
D14*
%TO.C,H2*%
X121700000Y-91800000D03*
%TD*%
%TO.C,H3*%
X121700000Y-128000000D03*
%TD*%
D15*
%TO.C,BAT*%
X121600000Y-114850000D03*
D16*
X121600000Y-112350000D03*
%TD*%
D17*
%TO.C,J2*%
X108090000Y-124510000D03*
X113870000Y-124510000D03*
D18*
X106660000Y-124010000D03*
D19*
X106660000Y-128190000D03*
D18*
X115300000Y-124010000D03*
D19*
X115300000Y-128190000D03*
%TD*%
D14*
%TO.C,H4*%
X101750000Y-91800000D03*
%TD*%
%TO.C,H1*%
X101770000Y-128000000D03*
%TD*%
D20*
%TO.C,J3*%
X100050000Y-95210000D03*
D21*
X100050000Y-96480000D03*
X100050000Y-97750000D03*
X100050000Y-99020000D03*
X100050000Y-100290000D03*
X100050000Y-101560000D03*
X100050000Y-102830000D03*
X100050000Y-104100000D03*
X100050000Y-105370000D03*
X100050000Y-106640000D03*
X100050000Y-107910000D03*
X100050000Y-109180000D03*
X100050000Y-110450000D03*
X100050000Y-111720000D03*
X100050000Y-112990000D03*
X100050000Y-114260000D03*
X100050000Y-115530000D03*
X100050000Y-116800000D03*
%TD*%
%LPD*%
M02*
