%TF.GenerationSoftware,KiCad,Pcbnew,9.0.7*%
%TF.CreationDate,2026-03-25T18:17:34+01:00*%
%TF.ProjectId,SnapCore-Devboard-Rev1,536e6170-436f-4726-952d-446576626f61,rev?*%
%TF.SameCoordinates,Original*%
%TF.FileFunction,Soldermask,Top*%
%TF.FilePolarity,Negative*%
%FSLAX46Y46*%
G04 Gerber Fmt 4.6, Leading zero omitted, Abs format (unit mm)*
G04 Created by KiCad (PCBNEW 9.0.7) date 2026-03-25 18:17:34*
%MOMM*%
%LPD*%
G01*
G04 APERTURE LIST*
G04 Aperture macros list*
%AMRoundRect*
0 Rectangle with rounded corners*
0 $1 Rounding radius*
0 $2 $3 $4 $5 $6 $7 $8 $9 X,Y pos of 4 corners*
0 Add a 4 corners polygon primitive as box body*
4,1,4,$2,$3,$4,$5,$6,$7,$8,$9,$2,$3,0*
0 Add four circle primitives for the rounded corners*
1,1,$1+$1,$2,$3*
1,1,$1+$1,$4,$5*
1,1,$1+$1,$6,$7*
1,1,$1+$1,$8,$9*
0 Add four rect primitives between the rounded corners*
20,1,$1+$1,$2,$3,$4,$5,0*
20,1,$1+$1,$4,$5,$6,$7,0*
20,1,$1+$1,$6,$7,$8,$9,0*
20,1,$1+$1,$8,$9,$2,$3,0*%
G04 Aperture macros list end*
%ADD10C,2.000000*%
%ADD11RoundRect,0.135000X-0.185000X0.135000X-0.185000X-0.135000X0.185000X-0.135000X0.185000X0.135000X0*%
%ADD12RoundRect,0.135000X0.185000X-0.135000X0.185000X0.135000X-0.185000X0.135000X-0.185000X-0.135000X0*%
%ADD13RoundRect,0.140000X-0.170000X0.140000X-0.170000X-0.140000X0.170000X-0.140000X0.170000X0.140000X0*%
%ADD14RoundRect,0.150000X-0.587500X-0.150000X0.587500X-0.150000X0.587500X0.150000X-0.587500X0.150000X0*%
%ADD15RoundRect,0.250000X-0.475000X0.250000X-0.475000X-0.250000X0.475000X-0.250000X0.475000X0.250000X0*%
%ADD16RoundRect,0.218750X-0.256250X0.218750X-0.256250X-0.218750X0.256250X-0.218750X0.256250X0.218750X0*%
%ADD17RoundRect,0.243750X0.243750X0.456250X-0.243750X0.456250X-0.243750X-0.456250X0.243750X-0.456250X0*%
%ADD18C,0.250000*%
%ADD19R,4.850000X4.850000*%
%ADD20C,3.500000*%
%ADD21RoundRect,0.140000X0.140000X0.170000X-0.140000X0.170000X-0.140000X-0.170000X0.140000X-0.170000X0*%
%ADD22RoundRect,0.200000X-0.275000X0.200000X-0.275000X-0.200000X0.275000X-0.200000X0.275000X0.200000X0*%
%ADD23RoundRect,0.150000X0.150000X0.200000X-0.150000X0.200000X-0.150000X-0.200000X0.150000X-0.200000X0*%
%ADD24RoundRect,0.140000X-0.140000X-0.170000X0.140000X-0.170000X0.140000X0.170000X-0.140000X0.170000X0*%
%ADD25RoundRect,0.147500X-0.147500X-0.172500X0.147500X-0.172500X0.147500X0.172500X-0.147500X0.172500X0*%
%ADD26RoundRect,0.150000X-0.512500X-0.150000X0.512500X-0.150000X0.512500X0.150000X-0.512500X0.150000X0*%
%ADD27RoundRect,0.200000X-0.200000X-0.275000X0.200000X-0.275000X0.200000X0.275000X-0.200000X0.275000X0*%
%ADD28RoundRect,0.250000X0.375000X0.625000X-0.375000X0.625000X-0.375000X-0.625000X0.375000X-0.625000X0*%
%ADD29RoundRect,0.140000X0.170000X-0.140000X0.170000X0.140000X-0.170000X0.140000X-0.170000X-0.140000X0*%
%ADD30RoundRect,0.225000X0.250000X-0.225000X0.250000X0.225000X-0.250000X0.225000X-0.250000X-0.225000X0*%
%ADD31R,1.000000X1.800000*%
%ADD32R,0.750000X1.000000*%
%ADD33RoundRect,0.135000X-0.135000X-0.185000X0.135000X-0.185000X0.135000X0.185000X-0.135000X0.185000X0*%
%ADD34RoundRect,0.250000X0.750000X-0.600000X0.750000X0.600000X-0.750000X0.600000X-0.750000X-0.600000X0*%
%ADD35O,2.000000X1.700000*%
%ADD36RoundRect,0.225000X0.225000X0.250000X-0.225000X0.250000X-0.225000X-0.250000X0.225000X-0.250000X0*%
%ADD37RoundRect,0.200000X0.053033X-0.335876X0.335876X-0.053033X-0.053033X0.335876X-0.335876X0.053033X0*%
%ADD38RoundRect,0.150000X-0.150000X-0.425000X0.150000X-0.425000X0.150000X0.425000X-0.150000X0.425000X0*%
%ADD39RoundRect,0.075000X-0.075000X-0.500000X0.075000X-0.500000X0.075000X0.500000X-0.075000X0.500000X0*%
%ADD40O,1.000000X2.100000*%
%ADD41O,1.000000X1.800000*%
%ADD42RoundRect,0.135000X0.135000X0.185000X-0.135000X0.185000X-0.135000X-0.185000X0.135000X-0.185000X0*%
%ADD43RoundRect,0.102000X0.800000X-0.400000X0.800000X0.400000X-0.800000X0.400000X-0.800000X-0.400000X0*%
%ADD44RoundRect,0.250000X-0.250000X-0.475000X0.250000X-0.475000X0.250000X0.475000X-0.250000X0.475000X0*%
%ADD45RoundRect,0.147500X0.172500X-0.147500X0.172500X0.147500X-0.172500X0.147500X-0.172500X-0.147500X0*%
%ADD46RoundRect,0.200000X0.250000X0.200000X-0.250000X0.200000X-0.250000X-0.200000X0.250000X-0.200000X0*%
%ADD47R,1.000000X1.000000*%
%ADD48C,1.000000*%
%ADD49RoundRect,0.225000X-0.225000X-0.250000X0.225000X-0.250000X0.225000X0.250000X-0.225000X0.250000X0*%
G04 APERTURE END LIST*
D10*
%TO.C,TP2*%
X123100000Y-107500000D03*
%TD*%
D11*
%TO.C,R17*%
X112200000Y-106040000D03*
X112200000Y-107060000D03*
%TD*%
D12*
%TO.C,R9*%
X104100000Y-116650000D03*
X104100000Y-115630000D03*
%TD*%
D13*
%TO.C,C19*%
X106100000Y-92845000D03*
X106100000Y-93805000D03*
%TD*%
D14*
%TO.C,Q1*%
X114962500Y-119350000D03*
X114962500Y-121250000D03*
X116837500Y-120300000D03*
%TD*%
D15*
%TO.C,C7*%
X117570000Y-93150000D03*
X117570000Y-95050000D03*
%TD*%
D16*
%TO.C,RED1*%
X104090000Y-112782500D03*
X104090000Y-114357500D03*
%TD*%
D17*
%TO.C,D4*%
X122137500Y-121800000D03*
X120262500Y-121800000D03*
%TD*%
D13*
%TO.C,C21*%
X105800000Y-95970000D03*
X105800000Y-96930000D03*
%TD*%
D18*
%TO.C,U1*%
X107892500Y-101837500D03*
X107892500Y-101337500D03*
X107892500Y-100837500D03*
X107892500Y-100337500D03*
X107892500Y-99837500D03*
X107892500Y-99337500D03*
X107892500Y-98837500D03*
X107892500Y-98337500D03*
X107892500Y-97837500D03*
X113392500Y-97337500D03*
X113642500Y-103337500D03*
X113892500Y-102587500D03*
X113892500Y-101587500D03*
X113892500Y-101087500D03*
X113892500Y-100587500D03*
X113892500Y-100087500D03*
X113892500Y-99587500D03*
X113892500Y-99087500D03*
X113892500Y-98587500D03*
X113892500Y-97337500D03*
X114392500Y-103337500D03*
X114392500Y-102837500D03*
X114392500Y-102337500D03*
X114392500Y-101837500D03*
X114392500Y-101337500D03*
X114392500Y-100837500D03*
X114392500Y-100337500D03*
X114392500Y-99837500D03*
X114392500Y-99337500D03*
X114392500Y-98837500D03*
X114392500Y-98337500D03*
X114392500Y-97837500D03*
X108392500Y-103837500D03*
X108392500Y-103087500D03*
X108392500Y-102587500D03*
X108392500Y-102087500D03*
X108392500Y-101587500D03*
X108392500Y-101087500D03*
X108392500Y-100587500D03*
X108392500Y-100087500D03*
X108392500Y-99587500D03*
X108392500Y-99087500D03*
X108392500Y-97337500D03*
X108892500Y-103837500D03*
X109142500Y-103337500D03*
X109142500Y-97837500D03*
X109392500Y-97337500D03*
D19*
X111142500Y-100587500D03*
D18*
X109642500Y-103337500D03*
X109642500Y-97837500D03*
X109892500Y-103837500D03*
X110142500Y-103337500D03*
X110142500Y-97837500D03*
X110392500Y-103837500D03*
X110392500Y-97337500D03*
X110642500Y-103337500D03*
X110892500Y-103837500D03*
X110892500Y-97337500D03*
X111142500Y-103337500D03*
X111392500Y-103837500D03*
X111392500Y-97337500D03*
X111642500Y-103337500D03*
X111642500Y-97837500D03*
X111892500Y-103837500D03*
X111892500Y-97337500D03*
X112142500Y-103337500D03*
X112142500Y-97837500D03*
X112392500Y-103837500D03*
X112392500Y-97337500D03*
X112642500Y-97837500D03*
X112892500Y-103837500D03*
X112892500Y-97337500D03*
X113142500Y-103337500D03*
X113142500Y-97837500D03*
%TD*%
D20*
%TO.C,H2*%
X121700000Y-91800000D03*
%TD*%
D21*
%TO.C,C16*%
X110885000Y-90850000D03*
X109925000Y-90850000D03*
%TD*%
D22*
%TO.C,R7*%
X117600000Y-122875000D03*
X117600000Y-124525000D03*
%TD*%
D23*
%TO.C,D5*%
X112650000Y-115150000D03*
X114050000Y-115150000D03*
%TD*%
D24*
%TO.C,C20*%
X103690000Y-94200000D03*
X104650000Y-94200000D03*
%TD*%
D25*
%TO.C,L1*%
X109930000Y-92300000D03*
X110900000Y-92300000D03*
%TD*%
D26*
%TO.C,U4*%
X109962500Y-111550000D03*
X109962500Y-112500000D03*
X109962500Y-113450000D03*
X112237500Y-113450000D03*
X112237500Y-112500000D03*
X112237500Y-111550000D03*
%TD*%
D27*
%TO.C,R11*%
X117875000Y-100300000D03*
X119525000Y-100300000D03*
%TD*%
D28*
%TO.C,F1*%
X123200000Y-119300000D03*
X120400000Y-119300000D03*
%TD*%
D29*
%TO.C,C3*%
X107900000Y-117780000D03*
X107900000Y-116820000D03*
%TD*%
%TO.C,C5*%
X118900000Y-115780000D03*
X118900000Y-114820000D03*
%TD*%
D30*
%TO.C,C18*%
X107410000Y-93960000D03*
X107410000Y-92410000D03*
%TD*%
D17*
%TO.C,D3*%
X122137500Y-124100000D03*
X120262500Y-124100000D03*
%TD*%
D31*
%TO.C,Y1*%
X108950000Y-106670000D03*
X106450000Y-106670000D03*
%TD*%
D24*
%TO.C,C15*%
X109920000Y-93775000D03*
X110880000Y-93775000D03*
%TD*%
D32*
%TO.C,SW2*%
X100715000Y-124960000D03*
X100715000Y-118960000D03*
X104465000Y-124960000D03*
X104465000Y-118960000D03*
%TD*%
D20*
%TO.C,H3*%
X121700000Y-128000000D03*
%TD*%
D33*
%TO.C,R6*%
X107630000Y-119800000D03*
X108650000Y-119800000D03*
%TD*%
D21*
%TO.C,C13*%
X117730000Y-104250000D03*
X116770000Y-104250000D03*
%TD*%
D34*
%TO.C,BAT*%
X121600000Y-114850000D03*
D35*
X121600000Y-112350000D03*
%TD*%
D21*
%TO.C,C10*%
X108780000Y-108500000D03*
X107820000Y-108500000D03*
%TD*%
D36*
%TO.C,C11*%
X116725000Y-106450000D03*
X115175000Y-106450000D03*
%TD*%
D37*
%TO.C,R10*%
X103216637Y-100883363D03*
X104383363Y-99716637D03*
%TD*%
D13*
%TO.C,C14*%
X112800000Y-93890000D03*
X112800000Y-94850000D03*
%TD*%
D36*
%TO.C,C6*%
X117375000Y-114500000D03*
X115825000Y-114500000D03*
%TD*%
D38*
%TO.C,J2*%
X107780000Y-123435000D03*
X108580000Y-123435000D03*
D39*
X109730000Y-123435000D03*
X110730000Y-123435000D03*
X111230000Y-123435000D03*
X112230000Y-123435000D03*
D38*
X113380000Y-123435000D03*
X114180000Y-123435000D03*
X114180000Y-123435000D03*
X113380000Y-123435000D03*
D39*
X112730000Y-123435000D03*
X111730000Y-123435000D03*
X110230000Y-123435000D03*
X109230000Y-123435000D03*
D38*
X108580000Y-123435000D03*
X107780000Y-123435000D03*
D40*
X106660000Y-124010000D03*
D41*
X106660000Y-128190000D03*
D40*
X115300000Y-124010000D03*
D41*
X115300000Y-128190000D03*
%TD*%
D20*
%TO.C,H4*%
X101750000Y-91800000D03*
%TD*%
D42*
%TO.C,R2*%
X112470000Y-121670000D03*
X111450000Y-121670000D03*
%TD*%
D13*
%TO.C,C1*%
X114000000Y-117240000D03*
X114000000Y-118200000D03*
%TD*%
D42*
%TO.C,R19*%
X118510000Y-101810000D03*
X117490000Y-101810000D03*
%TD*%
D20*
%TO.C,H1*%
X101770000Y-128000000D03*
%TD*%
D42*
%TO.C,R20*%
X118510000Y-102850000D03*
X117490000Y-102850000D03*
%TD*%
D26*
%TO.C,U2*%
X109872500Y-116610000D03*
X109872500Y-117560000D03*
X109872500Y-118510000D03*
X112147500Y-118510000D03*
X112147500Y-116610000D03*
%TD*%
D43*
%TO.C,AE2*%
X111700000Y-88150000D03*
X111700000Y-84750000D03*
%TD*%
D44*
%TO.C,C4*%
X116550000Y-117600000D03*
X118450000Y-117600000D03*
%TD*%
D33*
%TO.C,R1*%
X109470000Y-121680000D03*
X110490000Y-121680000D03*
%TD*%
D45*
%TO.C,L2*%
X105250000Y-102935000D03*
X105250000Y-101965000D03*
%TD*%
D29*
%TO.C,C22*%
X115070000Y-94370000D03*
X115070000Y-93410000D03*
%TD*%
D27*
%TO.C,R8*%
X114275000Y-111500000D03*
X115925000Y-111500000D03*
%TD*%
D11*
%TO.C,R18*%
X119400000Y-95830000D03*
X119400000Y-96850000D03*
%TD*%
D46*
%TO.C,Y2*%
X104300000Y-95600000D03*
X102900000Y-95600000D03*
X102900000Y-96700000D03*
X104300000Y-96700000D03*
%TD*%
D24*
%TO.C,C8*%
X104870000Y-104050000D03*
X105830000Y-104050000D03*
%TD*%
D11*
%TO.C,R16*%
X111050000Y-106040000D03*
X111050000Y-107060000D03*
%TD*%
D13*
%TO.C,C9*%
X105100000Y-107120000D03*
X105100000Y-108080000D03*
%TD*%
D47*
%TO.C,J3*%
X100050000Y-95210000D03*
D48*
X100050000Y-96480000D03*
X100050000Y-97750000D03*
X100050000Y-99020000D03*
X100050000Y-100290000D03*
X100050000Y-101560000D03*
X100050000Y-102830000D03*
X100050000Y-104100000D03*
X100050000Y-105370000D03*
X100050000Y-106640000D03*
X100050000Y-107910000D03*
X100050000Y-109180000D03*
X100050000Y-110450000D03*
X100050000Y-111720000D03*
X100050000Y-112990000D03*
X100050000Y-114260000D03*
X100050000Y-115530000D03*
X100050000Y-116800000D03*
%TD*%
D49*
%TO.C,C12*%
X117775000Y-98550000D03*
X119325000Y-98550000D03*
%TD*%
M02*
