%TF.GenerationSoftware,KiCad,Pcbnew,9.0.7*%
%TF.CreationDate,2026-03-25T18:17:34+01:00*%
%TF.ProjectId,SnapCore-Devboard-Rev1,536e6170-436f-4726-952d-446576626f61,rev?*%
%TF.SameCoordinates,Original*%
%TF.FileFunction,Copper,L4,Bot*%
%TF.FilePolarity,Positive*%
%FSLAX46Y46*%
G04 Gerber Fmt 4.6, Leading zero omitted, Abs format (unit mm)*
G04 Created by KiCad (PCBNEW 9.0.7) date 2026-03-25 18:17:34*
%MOMM*%
%LPD*%
G01*
G04 APERTURE LIST*
G04 Aperture macros list*
%AMRoundRect*
0 Rectangle with rounded corners*
0 $1 Rounding radius*
0 $2 $3 $4 $5 $6 $7 $8 $9 X,Y pos of 4 corners*
0 Add a 4 corners polygon primitive as box body*
4,1,4,$2,$3,$4,$5,$6,$7,$8,$9,$2,$3,0*
0 Add four circle primitives for the rounded corners*
1,1,$1+$1,$2,$3*
1,1,$1+$1,$4,$5*
1,1,$1+$1,$6,$7*
1,1,$1+$1,$8,$9*
0 Add four rect primitives between the rounded corners*
20,1,$1+$1,$2,$3,$4,$5,0*
20,1,$1+$1,$4,$5,$6,$7,0*
20,1,$1+$1,$6,$7,$8,$9,0*
20,1,$1+$1,$8,$9,$2,$3,0*%
G04 Aperture macros list end*
%TA.AperFunction,SMDPad,CuDef*%
%ADD10C,2.000000*%
%TD*%
%TA.AperFunction,ComponentPad*%
%ADD11C,3.500000*%
%TD*%
%TA.AperFunction,ComponentPad*%
%ADD12RoundRect,0.250000X0.750000X-0.600000X0.750000X0.600000X-0.750000X0.600000X-0.750000X-0.600000X0*%
%TD*%
%TA.AperFunction,ComponentPad*%
%ADD13O,2.000000X1.700000*%
%TD*%
%TA.AperFunction,HeatsinkPad*%
%ADD14O,1.000000X2.100000*%
%TD*%
%TA.AperFunction,HeatsinkPad*%
%ADD15O,1.000000X1.800000*%
%TD*%
%TA.AperFunction,ComponentPad*%
%ADD16R,1.000000X1.000000*%
%TD*%
%TA.AperFunction,ComponentPad*%
%ADD17C,1.000000*%
%TD*%
%TA.AperFunction,ViaPad*%
%ADD18C,0.600000*%
%TD*%
%TA.AperFunction,Conductor*%
%ADD19C,0.500000*%
%TD*%
%TA.AperFunction,Conductor*%
%ADD20C,0.200000*%
%TD*%
%TA.AperFunction,Conductor*%
%ADD21C,0.150000*%
%TD*%
G04 APERTURE END LIST*
D10*
%TO.P,TP7,1,1*%
%TO.N,Net-(U4-PROG)*%
X111500000Y-111900000D03*
%TD*%
%TO.P,TP6,1,1*%
%TO.N,ANT_H23*%
X107200000Y-93300000D03*
%TD*%
%TO.P,TP5,1,1*%
%TO.N,RESET*%
X104500000Y-121800000D03*
%TD*%
%TO.P,TP4,1,1*%
%TO.N,GND*%
X101000000Y-123100000D03*
%TD*%
%TO.P,TP3,1,1*%
%TO.N,3V3*%
X111300000Y-117300000D03*
%TD*%
%TO.P,TP1,1,1*%
%TO.N,VBUS*%
X111000000Y-127000000D03*
%TD*%
D11*
%TO.P,H2,1*%
%TO.N,N/C*%
X121700000Y-91800000D03*
%TD*%
%TO.P,H3,1*%
%TO.N,N/C*%
X121700000Y-128000000D03*
%TD*%
D12*
%TO.P,BAT,1,Pin_1*%
%TO.N,Net-(BAT_CONN1-Pin_1)*%
X121600000Y-114850000D03*
D13*
%TO.P,BAT,2,Pin_2*%
%TO.N,GND*%
X121600000Y-112350000D03*
%TD*%
D14*
%TO.P,J2,S1,SHIELD*%
%TO.N,GND*%
X106660000Y-124010000D03*
D15*
X106660000Y-128190000D03*
D14*
X115300000Y-124010000D03*
D15*
X115300000Y-128190000D03*
%TD*%
D11*
%TO.P,H4,1*%
%TO.N,N/C*%
X101750000Y-91800000D03*
%TD*%
%TO.P,H1,1*%
%TO.N,N/C*%
X101770000Y-128000000D03*
%TD*%
D16*
%TO.P,J3,1,Pin_1*%
%TO.N,VBUS*%
X100050000Y-95210000D03*
D17*
%TO.P,J3,2,Pin_2*%
%TO.N,INTERNAL_I2C_SDA*%
X100050000Y-96480000D03*
%TO.P,J3,3,Pin_3*%
%TO.N,INTERNAL_I2C_SCL*%
X100050000Y-97750000D03*
%TO.P,J3,4,Pin_4*%
%TO.N,P0.16_PDM_DATA*%
X100050000Y-99020000D03*
%TO.P,J3,5,Pin_5*%
%TO.N,P1.00_PDM_CLK*%
X100050000Y-100290000D03*
%TO.P,J3,6,Pin_6*%
%TO.N,SWDCLK*%
X100050000Y-101560000D03*
%TO.P,J3,7,Pin_7*%
%TO.N,SWDIO*%
X100050000Y-102830000D03*
%TO.P,J3,8,Pin_8*%
%TO.N,P0.09{slash}NFC1*%
X100050000Y-104100000D03*
%TO.P,J3,9,Pin_9*%
%TO.N,P0.10{slash}NFC2*%
X100050000Y-105370000D03*
%TO.P,J3,10,Pin_10*%
%TO.N,3V3*%
X100050000Y-106640000D03*
%TO.P,J3,11,Pin_11*%
%TO.N,GND*%
X100050000Y-107910000D03*
%TO.P,J3,12,Pin_12*%
%TO.N,P0.23_QSPI_SIO_3*%
X100050000Y-109180000D03*
%TO.P,J3,13,Pin_13*%
%TO.N,P0.25_QSPI_CSN*%
X100050000Y-110450000D03*
%TO.P,J3,14,Pin_14*%
%TO.N,P0.21_QSPI_SCK*%
X100050000Y-111720000D03*
%TO.P,J3,15,Pin_15*%
%TO.N,P0.20_QSPI_SIO_0*%
X100050000Y-112990000D03*
%TO.P,J3,16,Pin_16*%
%TO.N,P0.22_QSPI_SIO_2*%
X100050000Y-114260000D03*
%TO.P,J3,17,Pin_17*%
%TO.N,P0.24_QSPI_SIO_1*%
X100050000Y-115530000D03*
%TO.P,J3,18,Pin_18*%
%TO.N,P0.04_AIN2_A4_D4*%
X100050000Y-116800000D03*
%TD*%
D18*
%TO.N,Net-(U4-PROG)*%
X115100000Y-112800000D03*
%TO.N,ANT_H23*%
X108800000Y-94399000D03*
%TO.N,BAT0*%
X121200000Y-108500000D03*
%TO.N,RESET*%
X118980000Y-95050000D03*
%TO.N,VBUS*%
X121032080Y-106932080D03*
%TO.N,VIN*%
X109500000Y-115350000D03*
X113753098Y-120808975D03*
%TO.N,3V3*%
X120350000Y-98500000D03*
X114080000Y-95010000D03*
X112960000Y-106931000D03*
X115150000Y-100030000D03*
X104235707Y-107175707D03*
X101750000Y-104010000D03*
X107900000Y-104300000D03*
X107100000Y-98450000D03*
X113850000Y-116350000D03*
X113550000Y-104500000D03*
X104100000Y-117550000D03*
%TO.N,VBUS*%
X114629923Y-114581667D03*
X113600000Y-122350000D03*
X104401000Y-110194972D03*
X102290000Y-102590000D03*
X117600000Y-121600000D03*
X115800000Y-109500000D03*
X107650000Y-121000000D03*
%TO.N,BAT0*%
X106800000Y-113900000D03*
X117500000Y-119400000D03*
X103389999Y-108021416D03*
X115100000Y-116200000D03*
%TO.N,RESET*%
X102300000Y-120900000D03*
X107600000Y-110500000D03*
X118587815Y-108527815D03*
%TO.N,Net-(U1-DEC1)*%
X106550000Y-103900000D03*
X107300000Y-105050000D03*
%TO.N,P0.31_AIN7_BAT*%
X107100000Y-100800000D03*
X120400000Y-99500000D03*
%TO.N,INTERNAL_I2C_SCL*%
X111210878Y-105249407D03*
%TO.N,P0.04_AIN2_A4_D4*%
X105400000Y-109900000D03*
%TO.N,INTERNAL_I2C_SDA*%
X112114429Y-105330000D03*
%TO.N,DEC4*%
X114170000Y-93110000D03*
X105959998Y-101469998D03*
X109270000Y-96170607D03*
%TO.N,USB_D-*%
X119500000Y-102850000D03*
X110200000Y-124700000D03*
%TO.N,USB_D+*%
X119500000Y-101800000D03*
X110998231Y-124753215D03*
%TO.N,P0.09{slash}NFC1*%
X103233563Y-99005778D03*
X111920000Y-95400000D03*
%TO.N,P1.00_PDM_CLK*%
X115201000Y-95775225D03*
%TO.N,P0.16_PDM_DATA*%
X116400000Y-101050000D03*
%TO.N,P0.22_QSPI_SIO_2*%
X115913397Y-98061927D03*
%TO.N,SWDCLK*%
X105326473Y-98125000D03*
X113200000Y-95850000D03*
%TO.N,SWDIO*%
X103851838Y-98405778D03*
X114000000Y-95850000D03*
%TO.N,P0.20_QSPI_SIO_0*%
X117014316Y-97152690D03*
%TO.N,P0.23_QSPI_SIO_3*%
X114344387Y-107693027D03*
%TO.N,P0.24_QSPI_SIO_1*%
X115797571Y-96308242D03*
%TO.N,P0.21_QSPI_SCK*%
X105070000Y-109160000D03*
%TO.N,P0.25_QSPI_CSN*%
X115272239Y-107425000D03*
%TO.N,P0.10{slash}NFC2*%
X111791932Y-94610316D03*
%TO.N,GND*%
X103700000Y-111930948D03*
X118750000Y-91175000D03*
X116190000Y-93140000D03*
X124100000Y-89700000D03*
X105800000Y-95200000D03*
X117850000Y-106450000D03*
X108800000Y-91000000D03*
X108650000Y-121450000D03*
X118800000Y-89700000D03*
X104091000Y-104146627D03*
X114225000Y-91150000D03*
X105100000Y-91125000D03*
X105350000Y-89650000D03*
X109450000Y-119800000D03*
X116375000Y-89700000D03*
X105600000Y-118900000D03*
X113640000Y-93840000D03*
X108500000Y-112300000D03*
X118800000Y-113300000D03*
X102950000Y-94250000D03*
X103450000Y-89650000D03*
X116000000Y-94750000D03*
X112200000Y-91150000D03*
X113350000Y-121500000D03*
X107100000Y-91000000D03*
X106080000Y-92050000D03*
X114800000Y-122050000D03*
X114200000Y-89700000D03*
X106000000Y-108400000D03*
X108700000Y-116750000D03*
X107050000Y-89650000D03*
X115900000Y-112800000D03*
X116500000Y-100000000D03*
X112675000Y-89675000D03*
X108750000Y-92600000D03*
X108575000Y-89650000D03*
X109975000Y-89650000D03*
X107300000Y-99350000D03*
X112200000Y-92650000D03*
X118550000Y-104250000D03*
X114900000Y-117700000D03*
X116400000Y-91175000D03*
X107169669Y-122180331D03*
X106600000Y-101950000D03*
X99350000Y-89650000D03*
%TO.N,Net-(D3-K)*%
X117600000Y-113100000D03*
X123800000Y-124100000D03*
%TO.N,Net-(D4-K)*%
X123700000Y-121800000D03*
X118300000Y-112500000D03*
%TD*%
D19*
%TO.N,3V3*%
X113100000Y-115600000D02*
X113000000Y-115600000D01*
X113000000Y-115600000D02*
X111300000Y-117300000D01*
D20*
%TO.N,Net-(U4-PROG)*%
X115100000Y-112800000D02*
X115230923Y-112930923D01*
X115230923Y-112930923D02*
X115230923Y-114830610D01*
X115230923Y-114830610D02*
X114878866Y-115182667D01*
X114878866Y-115182667D02*
X114380980Y-115182667D01*
X114380980Y-115182667D02*
X111500000Y-112301687D01*
X111500000Y-112301687D02*
X111500000Y-111900000D01*
%TO.N,ANT_H23*%
X108299000Y-94399000D02*
X107200000Y-93300000D01*
X108800000Y-94399000D02*
X108299000Y-94399000D01*
D19*
%TO.N,VBUS*%
X111000000Y-127000000D02*
X111000000Y-126360352D01*
X111000000Y-126360352D02*
X113600000Y-123760352D01*
X113600000Y-123760352D02*
X113600000Y-122350000D01*
D20*
%TO.N,RESET*%
X102300000Y-119800000D02*
X102300000Y-120900000D01*
X102300000Y-119800000D02*
X102500000Y-119800000D01*
X102500000Y-119800000D02*
X104500000Y-121800000D01*
%TO.N,P0.04_AIN2_A4_D4*%
X100050000Y-116800000D02*
X102308578Y-114541422D01*
X102308578Y-114541422D02*
X102441421Y-114541422D01*
D19*
%TO.N,3V3*%
X104235707Y-106495707D02*
X101750000Y-104010000D01*
X112400000Y-114300000D02*
X113100000Y-115000000D01*
X105850000Y-117550000D02*
X109100000Y-114300000D01*
X113100000Y-115600000D02*
X113100000Y-115000000D01*
X113850000Y-116350000D02*
X113100000Y-115600000D01*
X109100000Y-114300000D02*
X112400000Y-114300000D01*
X104235707Y-107175707D02*
X104235707Y-106495707D01*
X104100000Y-117550000D02*
X105850000Y-117550000D01*
D20*
X99790000Y-106830000D02*
X99970000Y-106830000D01*
D19*
%TO.N,VBUS*%
X115000000Y-109650000D02*
X114149000Y-110501000D01*
X115000000Y-109650000D02*
X115650000Y-109650000D01*
X114149000Y-110501000D02*
X114149000Y-114100744D01*
X114149000Y-114100744D02*
X114629923Y-114581667D01*
X115650000Y-109650000D02*
X115800000Y-109500000D01*
D20*
%TO.N,RESET*%
X119710000Y-95050000D02*
X118980000Y-95050000D01*
X105300000Y-112249943D02*
X107049943Y-110500000D01*
X102300000Y-115249943D02*
X102300000Y-119800000D01*
X122540000Y-102310000D02*
X122540000Y-99320000D01*
X122540000Y-99320000D02*
X122540000Y-97880000D01*
X121380000Y-105735630D02*
X121380000Y-103470000D01*
X121380000Y-103470000D02*
X122540000Y-102310000D01*
X107049943Y-110500000D02*
X107600000Y-110500000D01*
X105300000Y-112249943D02*
X102300000Y-115249943D01*
X118587815Y-108527815D02*
X121380000Y-105735630D01*
X122540000Y-97880000D02*
X119710000Y-95050000D01*
%TO.N,Net-(U1-DEC1)*%
X107300000Y-105050000D02*
X106550000Y-104300000D01*
X106550000Y-104300000D02*
X106550000Y-103900000D01*
%TO.N,P0.31_AIN7_BAT*%
X107100000Y-100800000D02*
X110700000Y-100800000D01*
X114600000Y-96900000D02*
X115600000Y-96900000D01*
X118200000Y-99500000D02*
X120400000Y-99500000D01*
X110700000Y-100800000D02*
X114600000Y-96900000D01*
X115600000Y-96900000D02*
X118200000Y-99500000D01*
%TO.N,INTERNAL_I2C_SCL*%
X101640000Y-97750000D02*
X100050000Y-97750000D01*
X103640742Y-100830000D02*
X102229000Y-99418258D01*
X110700000Y-104457100D02*
X109253900Y-103011000D01*
X102229000Y-98339000D02*
X101640000Y-97750000D01*
X110700000Y-104738529D02*
X111210878Y-105249407D01*
X110700000Y-104457100D02*
X110700000Y-104738529D01*
X103672900Y-100830000D02*
X103640742Y-100830000D01*
X102229000Y-99418258D02*
X102229000Y-98339000D01*
X109253900Y-103011000D02*
X105853900Y-103011000D01*
X105853900Y-103011000D02*
X103672900Y-100830000D01*
%TO.N,P0.04_AIN2_A4_D4*%
X105400000Y-111582843D02*
X102441421Y-114541422D01*
X105400000Y-109900000D02*
X105400000Y-111582843D01*
%TO.N,INTERNAL_I2C_SDA*%
X111800000Y-104990000D02*
X109420000Y-102610000D01*
X109420000Y-102610000D02*
X106020000Y-102610000D01*
X102630000Y-99252158D02*
X102630000Y-97850000D01*
X102630000Y-97850000D02*
X101260000Y-96480000D01*
X111800000Y-105015571D02*
X112114429Y-105330000D01*
X103016778Y-99606778D02*
X102984620Y-99606778D01*
X101260000Y-96480000D02*
X100050000Y-96480000D01*
X111800000Y-104990000D02*
X111800000Y-105015571D01*
X102984620Y-99606778D02*
X102630000Y-99252158D01*
X106020000Y-102610000D02*
X103016778Y-99606778D01*
%TO.N,USB_D-*%
X116500000Y-118100000D02*
X116500000Y-109200000D01*
X114800000Y-119800000D02*
X116500000Y-118100000D01*
X110200000Y-124700000D02*
X110200000Y-121950000D01*
X120000000Y-105700000D02*
X120000000Y-103350000D01*
X112350000Y-119800000D02*
X114800000Y-119800000D01*
X110200000Y-121950000D02*
X112350000Y-119800000D01*
X120000000Y-103350000D02*
X119500000Y-102850000D01*
%TO.N,USB_D+*%
X120401000Y-102701000D02*
X119500000Y-101800000D01*
X110601000Y-122116100D02*
X112516100Y-120201000D01*
X110998231Y-124447231D02*
X110601000Y-124050000D01*
X112516100Y-120201000D02*
X114966100Y-120201000D01*
X120401000Y-105866100D02*
X120401000Y-102701000D01*
X116901000Y-109366100D02*
X120401000Y-105866100D01*
X110601000Y-124050000D02*
X110601000Y-122116100D01*
X110998231Y-124753215D02*
X110998231Y-124447231D01*
X114966100Y-120201000D02*
X116901000Y-118266100D01*
X116901000Y-118266100D02*
X116901000Y-109366100D01*
%TO.N,P0.09{slash}NFC1*%
X105330057Y-95830000D02*
X106710000Y-95830000D01*
X106710000Y-95830000D02*
X107140000Y-95400000D01*
X107140000Y-95400000D02*
X111920000Y-95400000D01*
X103730028Y-97430028D02*
X105330057Y-95830000D01*
X103233563Y-97926493D02*
X103730028Y-97430028D01*
X103233563Y-99005778D02*
X103233563Y-97926493D01*
%TO.N,P1.00_PDM_CLK*%
X121780000Y-100360000D02*
X121020000Y-101120000D01*
X115268983Y-95707242D02*
X119787242Y-95707242D01*
X116801000Y-102630000D02*
X116801000Y-103616043D01*
X119787242Y-95707242D02*
X121780000Y-97700000D01*
X107123900Y-106331000D02*
X106025450Y-105232550D01*
X115201000Y-95775225D02*
X115268983Y-95707242D01*
X121780000Y-97700000D02*
X121780000Y-100360000D01*
X101082900Y-100290000D02*
X100050000Y-100290000D01*
X106025450Y-105232550D02*
X106025450Y-105225450D01*
X106025450Y-105225450D02*
X105198550Y-104398550D01*
X121020000Y-101120000D02*
X118311000Y-101120000D01*
X105198550Y-104398550D02*
X105191450Y-104398550D01*
X118311000Y-101120000D02*
X116801000Y-102630000D01*
X114086043Y-106331000D02*
X107123900Y-106331000D01*
X105191450Y-104398550D02*
X101082900Y-100290000D01*
X116801000Y-103616043D02*
X114086043Y-106331000D01*
%TO.N,P0.16_PDM_DATA*%
X105200000Y-103517100D02*
X106426450Y-104743550D01*
X101380000Y-99620000D02*
X100650000Y-99620000D01*
X113919943Y-105930000D02*
X107290000Y-105930000D01*
X116400000Y-103449943D02*
X113919943Y-105930000D01*
X105200000Y-103440000D02*
X105200000Y-103517100D01*
X116400000Y-101050000D02*
X116400000Y-103449943D01*
X105200000Y-103440000D02*
X101380000Y-99620000D01*
X107290000Y-105930000D02*
X106426450Y-105066450D01*
X106426450Y-104743550D02*
X106426450Y-105066450D01*
X100650000Y-99620000D02*
X100050000Y-99020000D01*
%TO.N,SWDCLK*%
X111230000Y-97820000D02*
X113200000Y-95850000D01*
X105631473Y-97820000D02*
X111230000Y-97820000D01*
X105326473Y-98125000D02*
X105631473Y-97820000D01*
%TO.N,SWDIO*%
X104195752Y-98405778D02*
X105182530Y-97419000D01*
X114000000Y-95800057D02*
X114000000Y-95850000D01*
X103851838Y-98405778D02*
X104195752Y-98405778D01*
X113448943Y-95249000D02*
X114000000Y-95800057D01*
X112951057Y-95249000D02*
X113448943Y-95249000D01*
X110781057Y-97419000D02*
X112951057Y-95249000D01*
X105182530Y-97419000D02*
X110781057Y-97419000D01*
D21*
%TO.N,P0.23_QSPI_SIO_3*%
X103044588Y-109180000D02*
X100050000Y-109180000D01*
X114344387Y-107693027D02*
X111706027Y-107693027D01*
X110720000Y-106707000D02*
X105517588Y-106707000D01*
X105517588Y-106707000D02*
X103044588Y-109180000D01*
X111706027Y-107693027D02*
X110720000Y-106707000D01*
%TO.N,P0.21_QSPI_SCK*%
X105070000Y-109160000D02*
X104057364Y-109160000D01*
X101497364Y-111720000D02*
X100050000Y-111720000D01*
X104057364Y-109160000D02*
X101497364Y-111720000D01*
%TO.N,P0.25_QSPI_CSN*%
X111785639Y-108269027D02*
X110574612Y-107058000D01*
X115272239Y-107579763D02*
X114582975Y-108269027D01*
X102270976Y-110450000D02*
X100050000Y-110450000D01*
X105662976Y-107058000D02*
X102270976Y-110450000D01*
X115272239Y-107425000D02*
X115272239Y-107579763D01*
X110574612Y-107058000D02*
X105662976Y-107058000D01*
X114582975Y-108269027D02*
X111785639Y-108269027D01*
D20*
%TO.N,P0.10{slash}NFC2*%
X103198943Y-94851000D02*
X101293000Y-94851000D01*
X99249000Y-94409000D02*
X98980000Y-94678000D01*
X98980000Y-104300000D02*
X100050000Y-105370000D01*
X111403248Y-94999000D02*
X108070000Y-94999000D01*
X108070000Y-94999000D02*
X107670000Y-94599000D01*
X111791932Y-94610316D02*
X111780616Y-94599000D01*
X111791932Y-94610316D02*
X111403248Y-94999000D01*
X103450943Y-94599000D02*
X103198943Y-94851000D01*
X101293000Y-94851000D02*
X100851000Y-94409000D01*
X107670000Y-94599000D02*
X103450943Y-94599000D01*
X98980000Y-94678000D02*
X98980000Y-104300000D01*
X100851000Y-94409000D02*
X99249000Y-94409000D01*
%TO.N,Net-(D3-K)*%
X123800000Y-124100000D02*
X117600000Y-117900000D01*
X117600000Y-117900000D02*
X117600000Y-113100000D01*
%TO.N,Net-(D4-K)*%
X118200000Y-112600000D02*
X118300000Y-112500000D01*
X118200000Y-116300000D02*
X118200000Y-112600000D01*
X123700000Y-121800000D02*
X118200000Y-116300000D01*
%TO.N,USB_D-*%
X116500000Y-109200000D02*
X120000000Y-105700000D01*
%TD*%
%TA.AperFunction,Conductor*%
%TO.N,GND*%
G36*
X124792539Y-89169685D02*
G01*
X124838294Y-89222489D01*
X124849500Y-89274000D01*
X124849500Y-127496948D01*
X124849351Y-127503033D01*
X124831743Y-127861432D01*
X124830550Y-127873542D01*
X124778347Y-128225467D01*
X124775973Y-128237402D01*
X124689526Y-128582518D01*
X124685994Y-128594162D01*
X124580142Y-128890000D01*
X124566142Y-128929127D01*
X124561485Y-128940370D01*
X124409366Y-129262000D01*
X124403629Y-129272732D01*
X124220729Y-129577881D01*
X124213969Y-129587999D01*
X124002028Y-129873769D01*
X123994308Y-129883175D01*
X123755388Y-130146783D01*
X123746783Y-130155388D01*
X123483175Y-130394308D01*
X123473769Y-130402028D01*
X123187999Y-130613969D01*
X123177881Y-130620729D01*
X122872732Y-130803629D01*
X122862000Y-130809366D01*
X122540370Y-130961485D01*
X122529134Y-130966139D01*
X122405442Y-131010397D01*
X122194162Y-131085994D01*
X122182518Y-131089526D01*
X121837402Y-131175973D01*
X121825467Y-131178347D01*
X121473542Y-131230550D01*
X121461432Y-131231743D01*
X121123927Y-131248324D01*
X121103031Y-131249351D01*
X121096949Y-131249500D01*
X102303051Y-131249500D01*
X102296968Y-131249351D01*
X102274856Y-131248264D01*
X101938567Y-131231743D01*
X101926457Y-131230550D01*
X101574532Y-131178347D01*
X101562597Y-131175973D01*
X101217481Y-131089526D01*
X101205837Y-131085994D01*
X100870858Y-130966136D01*
X100859629Y-130961485D01*
X100537999Y-130809366D01*
X100527272Y-130803631D01*
X100222118Y-130620729D01*
X100212000Y-130613969D01*
X99926230Y-130402028D01*
X99916824Y-130394308D01*
X99722650Y-130218319D01*
X99653209Y-130155381D01*
X99644618Y-130146790D01*
X99405691Y-129883175D01*
X99397971Y-129873769D01*
X99186030Y-129587999D01*
X99179270Y-129577881D01*
X99118316Y-129476185D01*
X98996363Y-129272720D01*
X98990639Y-129262012D01*
X98838511Y-128940363D01*
X98833867Y-128929151D01*
X98714000Y-128594147D01*
X98710473Y-128582518D01*
X98689929Y-128500500D01*
X98624023Y-128237389D01*
X98621652Y-128225467D01*
X98609644Y-128144517D01*
X98569448Y-127873541D01*
X98568257Y-127861439D01*
X98567917Y-127854527D01*
X98567917Y-127854525D01*
X98567916Y-127854523D01*
X98567816Y-127852486D01*
X99519500Y-127852486D01*
X99519500Y-128147513D01*
X99531335Y-128237402D01*
X99558007Y-128439993D01*
X99629228Y-128705796D01*
X99634361Y-128724951D01*
X99634364Y-128724961D01*
X99747254Y-128997500D01*
X99747258Y-128997510D01*
X99894761Y-129252993D01*
X100074352Y-129487040D01*
X100074358Y-129487047D01*
X100282952Y-129695641D01*
X100282959Y-129695647D01*
X100517006Y-129875238D01*
X100772489Y-130022741D01*
X100772490Y-130022741D01*
X100772493Y-130022743D01*
X101045048Y-130135639D01*
X101330007Y-130211993D01*
X101622494Y-130250500D01*
X101622501Y-130250500D01*
X101917499Y-130250500D01*
X101917506Y-130250500D01*
X102209993Y-130211993D01*
X102494952Y-130135639D01*
X102767507Y-130022743D01*
X103022994Y-129875238D01*
X103257042Y-129695646D01*
X103465646Y-129487042D01*
X103645238Y-129252994D01*
X103792743Y-128997507D01*
X103905639Y-128724952D01*
X103981993Y-128439993D01*
X104020500Y-128147506D01*
X104020500Y-127852494D01*
X103999964Y-127696512D01*
X103999305Y-127691504D01*
X105660000Y-127691504D01*
X105660000Y-127940000D01*
X106360000Y-127940000D01*
X106360000Y-128440000D01*
X105660000Y-128440000D01*
X105660000Y-128688495D01*
X105698427Y-128881681D01*
X105698430Y-128881693D01*
X105773807Y-129063671D01*
X105773814Y-129063684D01*
X105883248Y-129227462D01*
X105883251Y-129227466D01*
X106022533Y-129366748D01*
X106022537Y-129366751D01*
X106186315Y-129476185D01*
X106186328Y-129476192D01*
X106368308Y-129551569D01*
X106410000Y-129559862D01*
X106410000Y-128756988D01*
X106419940Y-128774205D01*
X106475795Y-128830060D01*
X106544204Y-128869556D01*
X106620504Y-128890000D01*
X106699496Y-128890000D01*
X106775796Y-128869556D01*
X106844205Y-128830060D01*
X106900060Y-128774205D01*
X106910000Y-128756988D01*
X106910000Y-129559862D01*
X106951690Y-129551569D01*
X106951692Y-129551569D01*
X107133671Y-129476192D01*
X107133684Y-129476185D01*
X107297462Y-129366751D01*
X107297466Y-129366748D01*
X107436748Y-129227466D01*
X107436751Y-129227462D01*
X107546185Y-129063684D01*
X107546192Y-129063671D01*
X107621569Y-128881693D01*
X107621572Y-128881681D01*
X107659999Y-128688495D01*
X107660000Y-128688492D01*
X107660000Y-128440000D01*
X106960000Y-128440000D01*
X106960000Y-127940000D01*
X107660000Y-127940000D01*
X107660000Y-127691508D01*
X107659999Y-127691504D01*
X107621572Y-127498318D01*
X107621569Y-127498306D01*
X107546192Y-127316328D01*
X107546185Y-127316315D01*
X107436751Y-127152537D01*
X107436748Y-127152533D01*
X107297466Y-127013251D01*
X107297462Y-127013248D01*
X107133684Y-126903814D01*
X107133671Y-126903807D01*
X106951691Y-126828429D01*
X106951683Y-126828427D01*
X106910000Y-126820135D01*
X106910000Y-127623011D01*
X106900060Y-127605795D01*
X106844205Y-127549940D01*
X106775796Y-127510444D01*
X106699496Y-127490000D01*
X106620504Y-127490000D01*
X106544204Y-127510444D01*
X106475795Y-127549940D01*
X106419940Y-127605795D01*
X106410000Y-127623011D01*
X106410000Y-126820136D01*
X106409999Y-126820135D01*
X106368316Y-126828427D01*
X106368308Y-126828429D01*
X106186328Y-126903807D01*
X106186315Y-126903814D01*
X106022537Y-127013248D01*
X106022533Y-127013251D01*
X105883251Y-127152533D01*
X105883248Y-127152537D01*
X105773814Y-127316315D01*
X105773807Y-127316328D01*
X105698430Y-127498306D01*
X105698427Y-127498318D01*
X105660000Y-127691504D01*
X103999305Y-127691504D01*
X103988021Y-127605795D01*
X103981993Y-127560007D01*
X103905639Y-127275048D01*
X103792743Y-127002493D01*
X103723123Y-126881908D01*
X103645238Y-126747006D01*
X103465647Y-126512959D01*
X103465641Y-126512952D01*
X103257047Y-126304358D01*
X103257040Y-126304352D01*
X103022993Y-126124761D01*
X102767510Y-125977258D01*
X102767500Y-125977254D01*
X102494961Y-125864364D01*
X102494954Y-125864362D01*
X102494952Y-125864361D01*
X102209993Y-125788007D01*
X102161113Y-125781571D01*
X101917513Y-125749500D01*
X101917506Y-125749500D01*
X101622494Y-125749500D01*
X101622486Y-125749500D01*
X101344085Y-125786153D01*
X101330007Y-125788007D01*
X101078181Y-125855483D01*
X101045048Y-125864361D01*
X101045038Y-125864364D01*
X100772499Y-125977254D01*
X100772489Y-125977258D01*
X100517006Y-126124761D01*
X100282959Y-126304352D01*
X100282952Y-126304358D01*
X100074358Y-126512952D01*
X100074352Y-126512959D01*
X99894761Y-126747006D01*
X99747258Y-127002489D01*
X99747254Y-127002499D01*
X99634364Y-127275038D01*
X99634361Y-127275048D01*
X99560705Y-127549940D01*
X99558008Y-127560004D01*
X99558006Y-127560015D01*
X99519500Y-127852486D01*
X98567816Y-127852486D01*
X98550649Y-127503032D01*
X98550500Y-127496948D01*
X98550500Y-127445417D01*
X98550432Y-127444666D01*
X98546661Y-124322658D01*
X100130893Y-124322658D01*
X100213828Y-124382914D01*
X100424197Y-124490102D01*
X100648752Y-124563065D01*
X100648751Y-124563065D01*
X100881948Y-124600000D01*
X101118052Y-124600000D01*
X101351247Y-124563065D01*
X101575802Y-124490102D01*
X101786163Y-124382918D01*
X101786169Y-124382914D01*
X101869104Y-124322658D01*
X101869105Y-124322658D01*
X101842766Y-124296319D01*
X101000000Y-123453554D01*
X100130893Y-124322658D01*
X98546661Y-124322658D01*
X98545042Y-122981947D01*
X99500000Y-122981947D01*
X99500000Y-123218052D01*
X99536934Y-123451247D01*
X99609897Y-123675802D01*
X99717087Y-123886174D01*
X99777338Y-123969104D01*
X99777340Y-123969105D01*
X100646446Y-123100000D01*
X100646445Y-123099999D01*
X101353554Y-123099999D01*
X101353554Y-123100000D01*
X102222658Y-123969105D01*
X102222658Y-123969104D01*
X102282914Y-123886169D01*
X102282918Y-123886163D01*
X102390102Y-123675802D01*
X102463065Y-123451247D01*
X102500000Y-123218052D01*
X102500000Y-122981947D01*
X102463065Y-122748752D01*
X102390102Y-122524197D01*
X102282914Y-122313828D01*
X102222658Y-122230894D01*
X102222658Y-122230893D01*
X101353554Y-123099999D01*
X100646445Y-123099999D01*
X99777340Y-122230894D01*
X99717084Y-122313830D01*
X99609897Y-122524197D01*
X99536934Y-122748752D01*
X99500000Y-122981947D01*
X98545042Y-122981947D01*
X98543708Y-121877340D01*
X100130894Y-121877340D01*
X101000000Y-122746446D01*
X101000001Y-122746446D01*
X101869105Y-121877340D01*
X101869104Y-121877338D01*
X101790265Y-121820058D01*
X101783446Y-121815695D01*
X101575805Y-121709898D01*
X101351247Y-121636934D01*
X101351248Y-121636934D01*
X101118052Y-121600000D01*
X100881948Y-121600000D01*
X100648752Y-121636934D01*
X100424197Y-121709897D01*
X100213830Y-121817084D01*
X100130894Y-121877340D01*
X98543708Y-121877340D01*
X98523316Y-104992062D01*
X98542920Y-104925000D01*
X98595668Y-104879181D01*
X98664815Y-104869154D01*
X98728405Y-104898102D01*
X98734997Y-104904232D01*
X99013181Y-105182416D01*
X99046666Y-105243739D01*
X99049500Y-105270097D01*
X99049500Y-105271459D01*
X99049500Y-105468541D01*
X99049500Y-105468543D01*
X99049499Y-105468543D01*
X99087947Y-105661829D01*
X99087950Y-105661839D01*
X99163365Y-105843907D01*
X99163368Y-105843914D01*
X99207352Y-105909740D01*
X99224971Y-105936110D01*
X99245848Y-106002787D01*
X99227363Y-106070167D01*
X99224971Y-106073890D01*
X99163368Y-106166086D01*
X99163366Y-106166087D01*
X99087950Y-106348160D01*
X99087947Y-106348170D01*
X99049500Y-106541456D01*
X99049500Y-106541459D01*
X99049500Y-106738541D01*
X99049500Y-106738543D01*
X99049499Y-106738543D01*
X99087947Y-106931829D01*
X99087950Y-106931839D01*
X99158816Y-107102925D01*
X99163368Y-107113914D01*
X99196804Y-107163955D01*
X99225271Y-107206559D01*
X99246148Y-107273236D01*
X99227663Y-107340616D01*
X99225271Y-107344339D01*
X99163809Y-107436325D01*
X99088430Y-107618306D01*
X99088427Y-107618318D01*
X99050000Y-107811504D01*
X99050000Y-108008495D01*
X99088427Y-108201681D01*
X99088430Y-108201693D01*
X99163807Y-108383671D01*
X99163814Y-108383684D01*
X99225270Y-108475659D01*
X99246148Y-108542337D01*
X99227663Y-108609717D01*
X99225271Y-108613440D01*
X99163370Y-108706082D01*
X99163364Y-108706093D01*
X99087950Y-108888160D01*
X99087947Y-108888170D01*
X99049500Y-109081456D01*
X99049500Y-109081459D01*
X99049500Y-109278541D01*
X99049500Y-109278543D01*
X99049499Y-109278543D01*
X99087947Y-109471829D01*
X99087950Y-109471839D01*
X99140687Y-109599157D01*
X99163368Y-109653914D01*
X99193828Y-109699500D01*
X99224971Y-109746110D01*
X99245848Y-109812787D01*
X99227363Y-109880167D01*
X99224971Y-109883890D01*
X99163366Y-109976089D01*
X99087950Y-110158160D01*
X99087947Y-110158170D01*
X99049500Y-110351456D01*
X99049500Y-110351459D01*
X99049500Y-110548541D01*
X99049500Y-110548543D01*
X99049499Y-110548543D01*
X99087947Y-110741829D01*
X99087950Y-110741839D01*
X99155269Y-110904362D01*
X99163368Y-110923914D01*
X99206280Y-110988137D01*
X99224971Y-111016110D01*
X99245848Y-111082787D01*
X99227363Y-111150167D01*
X99224971Y-111153890D01*
X99163366Y-111246089D01*
X99087950Y-111428160D01*
X99087947Y-111428170D01*
X99049500Y-111621456D01*
X99049500Y-111621459D01*
X99049500Y-111818541D01*
X99049500Y-111818543D01*
X99049499Y-111818543D01*
X99087947Y-112011829D01*
X99087950Y-112011839D01*
X99157818Y-112180515D01*
X99163368Y-112193914D01*
X99204679Y-112255740D01*
X99224971Y-112286110D01*
X99245848Y-112352787D01*
X99227363Y-112420167D01*
X99224971Y-112423890D01*
X99163366Y-112516089D01*
X99087950Y-112698160D01*
X99087947Y-112698170D01*
X99049500Y-112891456D01*
X99049500Y-112891459D01*
X99049500Y-113088541D01*
X99049500Y-113088543D01*
X99049499Y-113088543D01*
X99087947Y-113281829D01*
X99087950Y-113281839D01*
X99132632Y-113389711D01*
X99163368Y-113463914D01*
X99194162Y-113510001D01*
X99224971Y-113556110D01*
X99245848Y-113622787D01*
X99227363Y-113690167D01*
X99224971Y-113693890D01*
X99163366Y-113786089D01*
X99087950Y-113968160D01*
X99087947Y-113968170D01*
X99049500Y-114161456D01*
X99049500Y-114161459D01*
X99049500Y-114358541D01*
X99049500Y-114358543D01*
X99049499Y-114358543D01*
X99087947Y-114551829D01*
X99087950Y-114551839D01*
X99163366Y-114733910D01*
X99163368Y-114733914D01*
X99192819Y-114777991D01*
X99224971Y-114826110D01*
X99245848Y-114892787D01*
X99227363Y-114960167D01*
X99224971Y-114963890D01*
X99163366Y-115056089D01*
X99087950Y-115238160D01*
X99087947Y-115238170D01*
X99049500Y-115431456D01*
X99049500Y-115431459D01*
X99049500Y-115628541D01*
X99049500Y-115628543D01*
X99049499Y-115628543D01*
X99087947Y-115821829D01*
X99087950Y-115821839D01*
X99147872Y-115966503D01*
X99163368Y-116003914D01*
X99207352Y-116069740D01*
X99224971Y-116096110D01*
X99245848Y-116162787D01*
X99227363Y-116230167D01*
X99224971Y-116233890D01*
X99163366Y-116326089D01*
X99087950Y-116508160D01*
X99087947Y-116508170D01*
X99049500Y-116701456D01*
X99049500Y-116701459D01*
X99049500Y-116898541D01*
X99049500Y-116898543D01*
X99049499Y-116898543D01*
X99087947Y-117091829D01*
X99087950Y-117091839D01*
X99163364Y-117273907D01*
X99163371Y-117273920D01*
X99272860Y-117437781D01*
X99272863Y-117437785D01*
X99412214Y-117577136D01*
X99412218Y-117577139D01*
X99576079Y-117686628D01*
X99576092Y-117686635D01*
X99758160Y-117762049D01*
X99758165Y-117762051D01*
X99758169Y-117762051D01*
X99758170Y-117762052D01*
X99951456Y-117800500D01*
X99951459Y-117800500D01*
X100148543Y-117800500D01*
X100278582Y-117774632D01*
X100341835Y-117762051D01*
X100523914Y-117686632D01*
X100687782Y-117577139D01*
X100827139Y-117437782D01*
X100936632Y-117273914D01*
X101012051Y-117091835D01*
X101035930Y-116971789D01*
X101050500Y-116898543D01*
X101050500Y-116700096D01*
X101070185Y-116633057D01*
X101086819Y-116612415D01*
X101265737Y-116433497D01*
X101487820Y-116211414D01*
X101549142Y-116177930D01*
X101618834Y-116182914D01*
X101674767Y-116224786D01*
X101699184Y-116290250D01*
X101699500Y-116299096D01*
X101699500Y-120320234D01*
X101679815Y-120387273D01*
X101678602Y-120389125D01*
X101590609Y-120520814D01*
X101590602Y-120520827D01*
X101530264Y-120666498D01*
X101530261Y-120666510D01*
X101499500Y-120821153D01*
X101499500Y-120978846D01*
X101530261Y-121133489D01*
X101530264Y-121133501D01*
X101590602Y-121279172D01*
X101590609Y-121279185D01*
X101678210Y-121410288D01*
X101678213Y-121410292D01*
X101789710Y-121521789D01*
X101843001Y-121557396D01*
X101920821Y-121609394D01*
X101921799Y-121609799D01*
X101921802Y-121609801D01*
X102062536Y-121668094D01*
X102066503Y-121669737D01*
X102221153Y-121700499D01*
X102221156Y-121700500D01*
X102221158Y-121700500D01*
X102378844Y-121700500D01*
X102378845Y-121700499D01*
X102533497Y-121669737D01*
X102663197Y-121616014D01*
X102679172Y-121609397D01*
X102679172Y-121609396D01*
X102679179Y-121609394D01*
X102810289Y-121521789D01*
X102810290Y-121521787D01*
X102814543Y-121518946D01*
X102881220Y-121498068D01*
X102948600Y-121516552D01*
X102995291Y-121568531D01*
X103006467Y-121637501D01*
X103005908Y-121641444D01*
X102999500Y-121681906D01*
X102999500Y-121918097D01*
X103036446Y-122151368D01*
X103109433Y-122375996D01*
X103177405Y-122509397D01*
X103216657Y-122586433D01*
X103355483Y-122777510D01*
X103522490Y-122944517D01*
X103713567Y-123083343D01*
X103812991Y-123134002D01*
X103924003Y-123190566D01*
X103924005Y-123190566D01*
X103924008Y-123190568D01*
X104044412Y-123229689D01*
X104148631Y-123263553D01*
X104381903Y-123300500D01*
X104381908Y-123300500D01*
X104618097Y-123300500D01*
X104851368Y-123263553D01*
X105075992Y-123190568D01*
X105286433Y-123083343D01*
X105477510Y-122944517D01*
X105572087Y-122849939D01*
X105633406Y-122816457D01*
X105703098Y-122821441D01*
X105759032Y-122863312D01*
X105783449Y-122928776D01*
X105774326Y-122985075D01*
X105698430Y-123168306D01*
X105698427Y-123168318D01*
X105660000Y-123361504D01*
X105660000Y-123760000D01*
X106360000Y-123760000D01*
X106360000Y-124260000D01*
X105660000Y-124260000D01*
X105660000Y-124658495D01*
X105698427Y-124851681D01*
X105698430Y-124851693D01*
X105773807Y-125033671D01*
X105773814Y-125033684D01*
X105883248Y-125197462D01*
X105883251Y-125197466D01*
X106022533Y-125336748D01*
X106022537Y-125336751D01*
X106186315Y-125446185D01*
X106186328Y-125446192D01*
X106368308Y-125521569D01*
X106410000Y-125529862D01*
X106410000Y-124726988D01*
X106419940Y-124744205D01*
X106475795Y-124800060D01*
X106544204Y-124839556D01*
X106620504Y-124860000D01*
X106699496Y-124860000D01*
X106775796Y-124839556D01*
X106844205Y-124800060D01*
X106900060Y-124744205D01*
X106910000Y-124726988D01*
X106910000Y-125529862D01*
X106951690Y-125521569D01*
X106951692Y-125521569D01*
X107133671Y-125446192D01*
X107133684Y-125446185D01*
X107297462Y-125336751D01*
X107297466Y-125336748D01*
X107436748Y-125197466D01*
X107436751Y-125197462D01*
X107546185Y-125033684D01*
X107546187Y-125033680D01*
X107592942Y-124920802D01*
X107636783Y-124866399D01*
X107703077Y-124844333D01*
X107770776Y-124861612D01*
X107795185Y-124880573D01*
X107801106Y-124886494D01*
X107908394Y-124948436D01*
X108028057Y-124980500D01*
X108028060Y-124980500D01*
X108151940Y-124980500D01*
X108151943Y-124980500D01*
X108271606Y-124948436D01*
X108378894Y-124886494D01*
X108466494Y-124798894D01*
X108528436Y-124691606D01*
X108560500Y-124571943D01*
X108560500Y-124448057D01*
X108528436Y-124328394D01*
X108466494Y-124221106D01*
X108378894Y-124133506D01*
X108271606Y-124071564D01*
X108271607Y-124071564D01*
X108241690Y-124063548D01*
X108151943Y-124039500D01*
X108028057Y-124039500D01*
X107938309Y-124063548D01*
X107908393Y-124071564D01*
X107801107Y-124133505D01*
X107801104Y-124133507D01*
X107710931Y-124223681D01*
X107649608Y-124257166D01*
X107623250Y-124260000D01*
X106960000Y-124260000D01*
X106960000Y-123760000D01*
X107660000Y-123760000D01*
X107660000Y-123361508D01*
X107659999Y-123361504D01*
X107621572Y-123168318D01*
X107621569Y-123168306D01*
X107546192Y-122986328D01*
X107546185Y-122986315D01*
X107436751Y-122822537D01*
X107436748Y-122822533D01*
X107297466Y-122683251D01*
X107297462Y-122683248D01*
X107133684Y-122573814D01*
X107133671Y-122573807D01*
X106951691Y-122498429D01*
X106951683Y-122498427D01*
X106910000Y-122490135D01*
X106910000Y-123293011D01*
X106900060Y-123275795D01*
X106844205Y-123219940D01*
X106775796Y-123180444D01*
X106699496Y-123160000D01*
X106620504Y-123160000D01*
X106544204Y-123180444D01*
X106475795Y-123219940D01*
X106419940Y-123275795D01*
X106410000Y-123293011D01*
X106410000Y-122490136D01*
X106409999Y-122490135D01*
X106368316Y-122498427D01*
X106368308Y-122498429D01*
X106186328Y-122573807D01*
X106186315Y-122573814D01*
X106022537Y-122683248D01*
X106022532Y-122683252D01*
X105987878Y-122717906D01*
X105926555Y-122751391D01*
X105856863Y-122746405D01*
X105800930Y-122704533D01*
X105776514Y-122639068D01*
X105789712Y-122573932D01*
X105890568Y-122375992D01*
X105963553Y-122151368D01*
X105970059Y-122110289D01*
X106000500Y-121918097D01*
X106000500Y-121681902D01*
X105963553Y-121448631D01*
X105908492Y-121279172D01*
X105890568Y-121224008D01*
X105890566Y-121224005D01*
X105890566Y-121224003D01*
X105783342Y-121013565D01*
X105764733Y-120987953D01*
X105716200Y-120921153D01*
X106849500Y-120921153D01*
X106849500Y-121078846D01*
X106880261Y-121233489D01*
X106880264Y-121233501D01*
X106940602Y-121379172D01*
X106940609Y-121379185D01*
X107028210Y-121510288D01*
X107028213Y-121510292D01*
X107139707Y-121621786D01*
X107139711Y-121621789D01*
X107270814Y-121709390D01*
X107270827Y-121709397D01*
X107316254Y-121728213D01*
X107416503Y-121769737D01*
X107571153Y-121800499D01*
X107571156Y-121800500D01*
X107571158Y-121800500D01*
X107728844Y-121800500D01*
X107728845Y-121800499D01*
X107883497Y-121769737D01*
X108029179Y-121709394D01*
X108160289Y-121621789D01*
X108271789Y-121510289D01*
X108359394Y-121379179D01*
X108419737Y-121233497D01*
X108450500Y-121078842D01*
X108450500Y-120921158D01*
X108450500Y-120921155D01*
X108450499Y-120921153D01*
X108434842Y-120842440D01*
X108419737Y-120766503D01*
X108417282Y-120760575D01*
X108359397Y-120620827D01*
X108359390Y-120620814D01*
X108271789Y-120489711D01*
X108271786Y-120489707D01*
X108160292Y-120378213D01*
X108160288Y-120378210D01*
X108029185Y-120290609D01*
X108029172Y-120290602D01*
X107883501Y-120230264D01*
X107883489Y-120230261D01*
X107728845Y-120199500D01*
X107728842Y-120199500D01*
X107571158Y-120199500D01*
X107571155Y-120199500D01*
X107416510Y-120230261D01*
X107416498Y-120230264D01*
X107270827Y-120290602D01*
X107270814Y-120290609D01*
X107139711Y-120378210D01*
X107139707Y-120378213D01*
X107028213Y-120489707D01*
X107028210Y-120489711D01*
X106940609Y-120620814D01*
X106940602Y-120620827D01*
X106880264Y-120766498D01*
X106880261Y-120766510D01*
X106849500Y-120921153D01*
X105716200Y-120921153D01*
X105644517Y-120822490D01*
X105477510Y-120655483D01*
X105286433Y-120516657D01*
X105075996Y-120409433D01*
X104851368Y-120336446D01*
X104618097Y-120299500D01*
X104618092Y-120299500D01*
X104381908Y-120299500D01*
X104381903Y-120299500D01*
X104148628Y-120336447D01*
X104022433Y-120377450D01*
X103952592Y-120379445D01*
X103896435Y-120347200D01*
X102987589Y-119438354D01*
X102980520Y-119431285D01*
X102980520Y-119431284D01*
X102936818Y-119387582D01*
X102916665Y-119350674D01*
X102903334Y-119326260D01*
X102900500Y-119299902D01*
X102900500Y-115550040D01*
X102920185Y-115483001D01*
X102936819Y-115462359D01*
X104578026Y-113821153D01*
X105999500Y-113821153D01*
X105999500Y-113978846D01*
X106030261Y-114133489D01*
X106030264Y-114133501D01*
X106090602Y-114279172D01*
X106090609Y-114279185D01*
X106178210Y-114410288D01*
X106178213Y-114410292D01*
X106289707Y-114521786D01*
X106289711Y-114521789D01*
X106420814Y-114609390D01*
X106420827Y-114609397D01*
X106566498Y-114669735D01*
X106566503Y-114669737D01*
X106721153Y-114700499D01*
X106721156Y-114700500D01*
X106721158Y-114700500D01*
X106878844Y-114700500D01*
X106878845Y-114700499D01*
X107033497Y-114669737D01*
X107179179Y-114609394D01*
X107310289Y-114521789D01*
X107421789Y-114410289D01*
X107509394Y-114279179D01*
X107569737Y-114133497D01*
X107600500Y-113978842D01*
X107600500Y-113821158D01*
X107600500Y-113821155D01*
X107600499Y-113821153D01*
X107593524Y-113786086D01*
X107569737Y-113666503D01*
X107569735Y-113666498D01*
X107509397Y-113520827D01*
X107509390Y-113520814D01*
X107421789Y-113389711D01*
X107421786Y-113389707D01*
X107310292Y-113278213D01*
X107310288Y-113278210D01*
X107179185Y-113190609D01*
X107179172Y-113190602D01*
X107033501Y-113130264D01*
X107033489Y-113130261D01*
X106878845Y-113099500D01*
X106878842Y-113099500D01*
X106721158Y-113099500D01*
X106721155Y-113099500D01*
X106566510Y-113130261D01*
X106566498Y-113130264D01*
X106420827Y-113190602D01*
X106420814Y-113190609D01*
X106289711Y-113278210D01*
X106289707Y-113278213D01*
X106178213Y-113389707D01*
X106178210Y-113389711D01*
X106090609Y-113520814D01*
X106090602Y-113520827D01*
X106030264Y-113666498D01*
X106030261Y-113666510D01*
X105999500Y-113821153D01*
X104578026Y-113821153D01*
X104671794Y-113727385D01*
X105224851Y-113174328D01*
X105780520Y-112618659D01*
X105780520Y-112618657D01*
X105790724Y-112608454D01*
X105790728Y-112608449D01*
X107140289Y-111258887D01*
X107201610Y-111225404D01*
X107271302Y-111230388D01*
X107275378Y-111231992D01*
X107366503Y-111269737D01*
X107521153Y-111300499D01*
X107521156Y-111300500D01*
X107521158Y-111300500D01*
X107678844Y-111300500D01*
X107678845Y-111300499D01*
X107833497Y-111269737D01*
X107979179Y-111209394D01*
X108110289Y-111121789D01*
X108221789Y-111010289D01*
X108309394Y-110879179D01*
X108369737Y-110733497D01*
X108400500Y-110578842D01*
X108400500Y-110421158D01*
X108400500Y-110421155D01*
X108400499Y-110421153D01*
X108390567Y-110371223D01*
X108369737Y-110266503D01*
X108357139Y-110236089D01*
X108309397Y-110120827D01*
X108309390Y-110120814D01*
X108221789Y-109989711D01*
X108221786Y-109989707D01*
X108110292Y-109878213D01*
X108110288Y-109878210D01*
X107979185Y-109790609D01*
X107979172Y-109790602D01*
X107833501Y-109730264D01*
X107833489Y-109730261D01*
X107678845Y-109699500D01*
X107678842Y-109699500D01*
X107521158Y-109699500D01*
X107521155Y-109699500D01*
X107366510Y-109730261D01*
X107366498Y-109730264D01*
X107220827Y-109790602D01*
X107220814Y-109790609D01*
X107089125Y-109878602D01*
X107022447Y-109899480D01*
X107020234Y-109899500D01*
X106970886Y-109899500D01*
X106818156Y-109940423D01*
X106772817Y-109966601D01*
X106772816Y-109966601D01*
X106681230Y-110019477D01*
X106681225Y-110019481D01*
X106329484Y-110371223D01*
X106268161Y-110404708D01*
X106198469Y-110399724D01*
X106142536Y-110357852D01*
X106118119Y-110292388D01*
X106127242Y-110236089D01*
X106169737Y-110133497D01*
X106200500Y-109978842D01*
X106200500Y-109821158D01*
X106200500Y-109821155D01*
X106200499Y-109821153D01*
X106182419Y-109730261D01*
X106169737Y-109666503D01*
X106141842Y-109599157D01*
X106109397Y-109520827D01*
X106109390Y-109520814D01*
X106021789Y-109389711D01*
X106021786Y-109389707D01*
X105906819Y-109274740D01*
X105873334Y-109213417D01*
X105870500Y-109187059D01*
X105870500Y-109081155D01*
X105870499Y-109081153D01*
X105867693Y-109067048D01*
X105839737Y-108926503D01*
X105828315Y-108898928D01*
X105779397Y-108780827D01*
X105779390Y-108780814D01*
X105691789Y-108649711D01*
X105691786Y-108649707D01*
X105580292Y-108538213D01*
X105580288Y-108538210D01*
X105449185Y-108450609D01*
X105449176Y-108450604D01*
X105362586Y-108414738D01*
X105308183Y-108370897D01*
X105286118Y-108304603D01*
X105303397Y-108236904D01*
X105322353Y-108212501D01*
X105865037Y-107669819D01*
X105926360Y-107636334D01*
X105952718Y-107633500D01*
X110284870Y-107633500D01*
X110351909Y-107653185D01*
X110372551Y-107669819D01*
X111325124Y-108622392D01*
X111432274Y-108729542D01*
X111563504Y-108805308D01*
X111709873Y-108844527D01*
X111709875Y-108844527D01*
X114446169Y-108844527D01*
X114513208Y-108864212D01*
X114558963Y-108917016D01*
X114568907Y-108986174D01*
X114539882Y-109049730D01*
X114524841Y-109064374D01*
X114521587Y-109067044D01*
X113566047Y-110022584D01*
X113566042Y-110022590D01*
X113536619Y-110066629D01*
X113536617Y-110066632D01*
X113510175Y-110106204D01*
X113483914Y-110145507D01*
X113427343Y-110282082D01*
X113427340Y-110282092D01*
X113398500Y-110427079D01*
X113398500Y-113051590D01*
X113378815Y-113118629D01*
X113326011Y-113164384D01*
X113256853Y-113174328D01*
X113193297Y-113145303D01*
X113186819Y-113139271D01*
X112830385Y-112782837D01*
X112796900Y-112721514D01*
X112801884Y-112651822D01*
X112807582Y-112638861D01*
X112817876Y-112618659D01*
X112890564Y-112476000D01*
X112890565Y-112476000D01*
X112908204Y-112421715D01*
X112963553Y-112251368D01*
X112972653Y-112193914D01*
X113000500Y-112018097D01*
X113000500Y-111781902D01*
X112963553Y-111548631D01*
X112890566Y-111324003D01*
X112825028Y-111195379D01*
X112783343Y-111113567D01*
X112644517Y-110922490D01*
X112477510Y-110755483D01*
X112286433Y-110616657D01*
X112212221Y-110578844D01*
X112075996Y-110509433D01*
X111851368Y-110436446D01*
X111618097Y-110399500D01*
X111618092Y-110399500D01*
X111381908Y-110399500D01*
X111381903Y-110399500D01*
X111148631Y-110436446D01*
X110924003Y-110509433D01*
X110713566Y-110616657D01*
X110604550Y-110695862D01*
X110522490Y-110755483D01*
X110522488Y-110755485D01*
X110522487Y-110755485D01*
X110355485Y-110922487D01*
X110355485Y-110922488D01*
X110355483Y-110922490D01*
X110324808Y-110964711D01*
X110216657Y-111113566D01*
X110109433Y-111324003D01*
X110036446Y-111548631D01*
X109999500Y-111781902D01*
X109999500Y-112018097D01*
X110036446Y-112251368D01*
X110109433Y-112475996D01*
X110216657Y-112686433D01*
X110355483Y-112877510D01*
X110522490Y-113044517D01*
X110713567Y-113183343D01*
X110804073Y-113229458D01*
X110924003Y-113290566D01*
X110924005Y-113290566D01*
X110924008Y-113290568D01*
X110976334Y-113307569D01*
X111034008Y-113347007D01*
X111061206Y-113411366D01*
X111049291Y-113480212D01*
X111002047Y-113531688D01*
X110938014Y-113549500D01*
X109026080Y-113549500D01*
X108881092Y-113578340D01*
X108881082Y-113578343D01*
X108744511Y-113634912D01*
X108744499Y-113634919D01*
X108711024Y-113657287D01*
X108711023Y-113657288D01*
X108621579Y-113717051D01*
X108621578Y-113717052D01*
X105575451Y-116763181D01*
X105514128Y-116796666D01*
X105487770Y-116799500D01*
X104404604Y-116799500D01*
X104357155Y-116790062D01*
X104333497Y-116780263D01*
X104333493Y-116780262D01*
X104333488Y-116780260D01*
X104178845Y-116749500D01*
X104178842Y-116749500D01*
X104021158Y-116749500D01*
X104021155Y-116749500D01*
X103866510Y-116780261D01*
X103866498Y-116780264D01*
X103720827Y-116840602D01*
X103720814Y-116840609D01*
X103589711Y-116928210D01*
X103589707Y-116928213D01*
X103478213Y-117039707D01*
X103478210Y-117039711D01*
X103390609Y-117170814D01*
X103390602Y-117170827D01*
X103330264Y-117316498D01*
X103330261Y-117316510D01*
X103299500Y-117471153D01*
X103299500Y-117628846D01*
X103330261Y-117783489D01*
X103330264Y-117783501D01*
X103390602Y-117929172D01*
X103390609Y-117929185D01*
X103478210Y-118060288D01*
X103478213Y-118060292D01*
X103589707Y-118171786D01*
X103589711Y-118171789D01*
X103720814Y-118259390D01*
X103720827Y-118259397D01*
X103820060Y-118300500D01*
X103866503Y-118319737D01*
X104021153Y-118350499D01*
X104021156Y-118350500D01*
X104021158Y-118350500D01*
X104178844Y-118350500D01*
X104178845Y-118350499D01*
X104255152Y-118335320D01*
X104333488Y-118319739D01*
X104333489Y-118319738D01*
X104333497Y-118319737D01*
X104357155Y-118309937D01*
X104404604Y-118300500D01*
X105923920Y-118300500D01*
X106021462Y-118281096D01*
X106068913Y-118271658D01*
X106205495Y-118215084D01*
X106270291Y-118171789D01*
X106270294Y-118171786D01*
X106270296Y-118171786D01*
X106299547Y-118152240D01*
X106328416Y-118132952D01*
X108660369Y-115800997D01*
X108721690Y-115767514D01*
X108791381Y-115772498D01*
X108847315Y-115814370D01*
X108851140Y-115819774D01*
X108862280Y-115836446D01*
X108878212Y-115860291D01*
X108989707Y-115971786D01*
X108989711Y-115971789D01*
X109120814Y-116059390D01*
X109120827Y-116059397D01*
X109257795Y-116116130D01*
X109266503Y-116119737D01*
X109421153Y-116150499D01*
X109421156Y-116150500D01*
X109421158Y-116150500D01*
X109578844Y-116150500D01*
X109578845Y-116150499D01*
X109733497Y-116119737D01*
X109879179Y-116059394D01*
X110010289Y-115971789D01*
X110121789Y-115860289D01*
X110209394Y-115729179D01*
X110269737Y-115583497D01*
X110300500Y-115428842D01*
X110300500Y-115271158D01*
X110300500Y-115271155D01*
X110300499Y-115271153D01*
X110286086Y-115198691D01*
X110292313Y-115129100D01*
X110335176Y-115073922D01*
X110401066Y-115050678D01*
X110407703Y-115050500D01*
X112037770Y-115050500D01*
X112067210Y-115059144D01*
X112097197Y-115065668D01*
X112102212Y-115069422D01*
X112104809Y-115070185D01*
X112125451Y-115086819D01*
X112200950Y-115162318D01*
X112234435Y-115223641D01*
X112229451Y-115293333D01*
X112200950Y-115337680D01*
X111739911Y-115798719D01*
X111678588Y-115832204D01*
X111632832Y-115833511D01*
X111418097Y-115799500D01*
X111418092Y-115799500D01*
X111181908Y-115799500D01*
X111181903Y-115799500D01*
X110948631Y-115836446D01*
X110724003Y-115909433D01*
X110513566Y-116016657D01*
X110415946Y-116087583D01*
X110322490Y-116155483D01*
X110322488Y-116155485D01*
X110322487Y-116155485D01*
X110155485Y-116322487D01*
X110155485Y-116322488D01*
X110155483Y-116322490D01*
X110095862Y-116404550D01*
X110016657Y-116513566D01*
X109909433Y-116724003D01*
X109836446Y-116948631D01*
X109799500Y-117181902D01*
X109799500Y-117418097D01*
X109836446Y-117651368D01*
X109909433Y-117875996D01*
X110016657Y-118086433D01*
X110155483Y-118277510D01*
X110322490Y-118444517D01*
X110513567Y-118583343D01*
X110612991Y-118634002D01*
X110724003Y-118690566D01*
X110724005Y-118690566D01*
X110724008Y-118690568D01*
X110844412Y-118729689D01*
X110948631Y-118763553D01*
X111181903Y-118800500D01*
X111181908Y-118800500D01*
X111418097Y-118800500D01*
X111651368Y-118763553D01*
X111875992Y-118690568D01*
X112086433Y-118583343D01*
X112277510Y-118444517D01*
X112444517Y-118277510D01*
X112583343Y-118086433D01*
X112690568Y-117875992D01*
X112763553Y-117651368D01*
X112775310Y-117577136D01*
X112800500Y-117418097D01*
X112800500Y-117181902D01*
X112767221Y-116971790D01*
X112766488Y-116967163D01*
X112767189Y-116961739D01*
X112765277Y-116956613D01*
X112771618Y-116927462D01*
X112775442Y-116897872D01*
X112779274Y-116892266D01*
X112780129Y-116888340D01*
X112801277Y-116860089D01*
X112950287Y-116711079D01*
X113011608Y-116677596D01*
X113081300Y-116682580D01*
X113137233Y-116724452D01*
X113141068Y-116729871D01*
X113228210Y-116860288D01*
X113228213Y-116860292D01*
X113339707Y-116971786D01*
X113339711Y-116971789D01*
X113470814Y-117059390D01*
X113470827Y-117059397D01*
X113616498Y-117119735D01*
X113616503Y-117119737D01*
X113767312Y-117149735D01*
X113771153Y-117150499D01*
X113771156Y-117150500D01*
X113771158Y-117150500D01*
X113928844Y-117150500D01*
X113928845Y-117150499D01*
X114083497Y-117119737D01*
X114229179Y-117059394D01*
X114360289Y-116971789D01*
X114470144Y-116861933D01*
X114531465Y-116828450D01*
X114601157Y-116833434D01*
X114626713Y-116846512D01*
X114720821Y-116909394D01*
X114720823Y-116909395D01*
X114720827Y-116909397D01*
X114866498Y-116969735D01*
X114866503Y-116969737D01*
X115021153Y-117000499D01*
X115021156Y-117000500D01*
X115021158Y-117000500D01*
X115178844Y-117000500D01*
X115178845Y-117000499D01*
X115333497Y-116969737D01*
X115479179Y-116909394D01*
X115610289Y-116821789D01*
X115642016Y-116790062D01*
X115687819Y-116744260D01*
X115749142Y-116710775D01*
X115818834Y-116715759D01*
X115874767Y-116757631D01*
X115899184Y-116823095D01*
X115899500Y-116831941D01*
X115899500Y-117799903D01*
X115879815Y-117866942D01*
X115863181Y-117887584D01*
X114587584Y-119163181D01*
X114526261Y-119196666D01*
X114499903Y-119199500D01*
X112429057Y-119199500D01*
X112270943Y-119199500D01*
X112118215Y-119240423D01*
X112118214Y-119240423D01*
X112118212Y-119240424D01*
X112118209Y-119240425D01*
X112068096Y-119269359D01*
X112068095Y-119269360D01*
X112024689Y-119294420D01*
X111981285Y-119319479D01*
X111981282Y-119319481D01*
X109719481Y-121581282D01*
X109719479Y-121581285D01*
X109669361Y-121668094D01*
X109669359Y-121668096D01*
X109640425Y-121718209D01*
X109640424Y-121718210D01*
X109626617Y-121769738D01*
X109599499Y-121870943D01*
X109599499Y-121870945D01*
X109599499Y-122039046D01*
X109599500Y-122039059D01*
X109599500Y-124120234D01*
X109579815Y-124187273D01*
X109578602Y-124189125D01*
X109490609Y-124320814D01*
X109490602Y-124320827D01*
X109430264Y-124466498D01*
X109430261Y-124466510D01*
X109399500Y-124621153D01*
X109399500Y-124778846D01*
X109430261Y-124933489D01*
X109430264Y-124933501D01*
X109490602Y-125079172D01*
X109490609Y-125079185D01*
X109578210Y-125210288D01*
X109578213Y-125210292D01*
X109689707Y-125321786D01*
X109689711Y-125321789D01*
X109820814Y-125409390D01*
X109820827Y-125409397D01*
X109949294Y-125462609D01*
X109966503Y-125469737D01*
X110121153Y-125500499D01*
X110121156Y-125500500D01*
X110129449Y-125500500D01*
X110196488Y-125520185D01*
X110242243Y-125572989D01*
X110252187Y-125642147D01*
X110223162Y-125705703D01*
X110202337Y-125724815D01*
X110022490Y-125855483D01*
X110022488Y-125855485D01*
X110022487Y-125855485D01*
X109855485Y-126022487D01*
X109855485Y-126022488D01*
X109855483Y-126022490D01*
X109799131Y-126100051D01*
X109716657Y-126213566D01*
X109609433Y-126424003D01*
X109536446Y-126648631D01*
X109499500Y-126881902D01*
X109499500Y-127118097D01*
X109536446Y-127351368D01*
X109609433Y-127575996D01*
X109659473Y-127674204D01*
X109716657Y-127786433D01*
X109855483Y-127977510D01*
X110022490Y-128144517D01*
X110213567Y-128283343D01*
X110312991Y-128334002D01*
X110424003Y-128390566D01*
X110424005Y-128390566D01*
X110424008Y-128390568D01*
X110544412Y-128429689D01*
X110648631Y-128463553D01*
X110881903Y-128500500D01*
X110881908Y-128500500D01*
X111118097Y-128500500D01*
X111351368Y-128463553D01*
X111423856Y-128440000D01*
X111575992Y-128390568D01*
X111786433Y-128283343D01*
X111977510Y-128144517D01*
X112144517Y-127977510D01*
X112283343Y-127786433D01*
X112331712Y-127691504D01*
X114300000Y-127691504D01*
X114300000Y-127940000D01*
X115000000Y-127940000D01*
X115000000Y-128440000D01*
X114300000Y-128440000D01*
X114300000Y-128688495D01*
X114338427Y-128881681D01*
X114338430Y-128881693D01*
X114413807Y-129063671D01*
X114413814Y-129063684D01*
X114523248Y-129227462D01*
X114523251Y-129227466D01*
X114662533Y-129366748D01*
X114662537Y-129366751D01*
X114826315Y-129476185D01*
X114826328Y-129476192D01*
X115008308Y-129551569D01*
X115050000Y-129559862D01*
X115050000Y-128756988D01*
X115059940Y-128774205D01*
X115115795Y-128830060D01*
X115184204Y-128869556D01*
X115260504Y-128890000D01*
X115339496Y-128890000D01*
X115415796Y-128869556D01*
X115484205Y-128830060D01*
X115540060Y-128774205D01*
X115550000Y-128756988D01*
X115550000Y-129559862D01*
X115591690Y-129551569D01*
X115591692Y-129551569D01*
X115773671Y-129476192D01*
X115773684Y-129476185D01*
X115937462Y-129366751D01*
X115937466Y-129366748D01*
X116076748Y-129227466D01*
X116076751Y-129227462D01*
X116186185Y-129063684D01*
X116186192Y-129063671D01*
X116261569Y-128881693D01*
X116261572Y-128881681D01*
X116299999Y-128688495D01*
X116300000Y-128688492D01*
X116300000Y-128440000D01*
X115600000Y-128440000D01*
X115600000Y-127940000D01*
X116300000Y-127940000D01*
X116300000Y-127852486D01*
X119449500Y-127852486D01*
X119449500Y-128147513D01*
X119461335Y-128237402D01*
X119488007Y-128439993D01*
X119559228Y-128705796D01*
X119564361Y-128724951D01*
X119564364Y-128724961D01*
X119677254Y-128997500D01*
X119677258Y-128997510D01*
X119824761Y-129252993D01*
X120004352Y-129487040D01*
X120004358Y-129487047D01*
X120212952Y-129695641D01*
X120212959Y-129695647D01*
X120447006Y-129875238D01*
X120702489Y-130022741D01*
X120702490Y-130022741D01*
X120702493Y-130022743D01*
X120975048Y-130135639D01*
X121260007Y-130211993D01*
X121552494Y-130250500D01*
X121552501Y-130250500D01*
X121847499Y-130250500D01*
X121847506Y-130250500D01*
X122139993Y-130211993D01*
X122424952Y-130135639D01*
X122697507Y-130022743D01*
X122952994Y-129875238D01*
X123187042Y-129695646D01*
X123395646Y-129487042D01*
X123575238Y-129252994D01*
X123722743Y-128997507D01*
X123835639Y-128724952D01*
X123911993Y-128439993D01*
X123950500Y-128147506D01*
X123950500Y-127852494D01*
X123911993Y-127560007D01*
X123835639Y-127275048D01*
X123722743Y-127002493D01*
X123653123Y-126881908D01*
X123575238Y-126747006D01*
X123395647Y-126512959D01*
X123395641Y-126512952D01*
X123187047Y-126304358D01*
X123187040Y-126304352D01*
X122952993Y-126124761D01*
X122697510Y-125977258D01*
X122697500Y-125977254D01*
X122424961Y-125864364D01*
X122424954Y-125864362D01*
X122424952Y-125864361D01*
X122139993Y-125788007D01*
X122091113Y-125781571D01*
X121847513Y-125749500D01*
X121847506Y-125749500D01*
X121552494Y-125749500D01*
X121552486Y-125749500D01*
X121274085Y-125786153D01*
X121260007Y-125788007D01*
X121008181Y-125855483D01*
X120975048Y-125864361D01*
X120975038Y-125864364D01*
X120702499Y-125977254D01*
X120702489Y-125977258D01*
X120447006Y-126124761D01*
X120212959Y-126304352D01*
X120212952Y-126304358D01*
X120004358Y-126512952D01*
X120004352Y-126512959D01*
X119824761Y-126747006D01*
X119677258Y-127002489D01*
X119677254Y-127002499D01*
X119564364Y-127275038D01*
X119564361Y-127275048D01*
X119490705Y-127549940D01*
X119488008Y-127560004D01*
X119488006Y-127560015D01*
X119449500Y-127852486D01*
X116300000Y-127852486D01*
X116300000Y-127691508D01*
X116299999Y-127691504D01*
X116261572Y-127498318D01*
X116261569Y-127498306D01*
X116186192Y-127316328D01*
X116186185Y-127316315D01*
X116076751Y-127152537D01*
X116076748Y-127152533D01*
X115937466Y-127013251D01*
X115937462Y-127013248D01*
X115773684Y-126903814D01*
X115773671Y-126903807D01*
X115591691Y-126828429D01*
X115591683Y-126828427D01*
X115550000Y-126820135D01*
X115550000Y-127623011D01*
X115540060Y-127605795D01*
X115484205Y-127549940D01*
X115415796Y-127510444D01*
X115339496Y-127490000D01*
X115260504Y-127490000D01*
X115184204Y-127510444D01*
X115115795Y-127549940D01*
X115059940Y-127605795D01*
X115050000Y-127623011D01*
X115050000Y-126820136D01*
X115049999Y-126820135D01*
X115008316Y-126828427D01*
X115008308Y-126828429D01*
X114826328Y-126903807D01*
X114826315Y-126903814D01*
X114662537Y-127013248D01*
X114662533Y-127013251D01*
X114523251Y-127152533D01*
X114523248Y-127152537D01*
X114413814Y-127316315D01*
X114413807Y-127316328D01*
X114338430Y-127498306D01*
X114338427Y-127498318D01*
X114300000Y-127691504D01*
X112331712Y-127691504D01*
X112390568Y-127575992D01*
X112463553Y-127351368D01*
X112475641Y-127275048D01*
X112500500Y-127118097D01*
X112500500Y-126881902D01*
X112463553Y-126648631D01*
X112390566Y-126424003D01*
X112298863Y-126244027D01*
X112285967Y-126175358D01*
X112312243Y-126110617D01*
X112321659Y-126100059D01*
X113484739Y-124936978D01*
X113546060Y-124903495D01*
X113615752Y-124908479D01*
X113634417Y-124917273D01*
X113688394Y-124948436D01*
X113808057Y-124980500D01*
X113808060Y-124980500D01*
X113931940Y-124980500D01*
X113931943Y-124980500D01*
X114051606Y-124948436D01*
X114158894Y-124886494D01*
X114164812Y-124880575D01*
X114226132Y-124847089D01*
X114295824Y-124852070D01*
X114351759Y-124893939D01*
X114367056Y-124920802D01*
X114413807Y-125033671D01*
X114413814Y-125033684D01*
X114523248Y-125197462D01*
X114523251Y-125197466D01*
X114662533Y-125336748D01*
X114662537Y-125336751D01*
X114826315Y-125446185D01*
X114826328Y-125446192D01*
X115008308Y-125521569D01*
X115050000Y-125529862D01*
X115050000Y-124726988D01*
X115059940Y-124744205D01*
X115115795Y-124800060D01*
X115184204Y-124839556D01*
X115260504Y-124860000D01*
X115339496Y-124860000D01*
X115415796Y-124839556D01*
X115484205Y-124800060D01*
X115540060Y-124744205D01*
X115550000Y-124726988D01*
X115550000Y-125529862D01*
X115591690Y-125521569D01*
X115591692Y-125521569D01*
X115773671Y-125446192D01*
X115773684Y-125446185D01*
X115937462Y-125336751D01*
X115937466Y-125336748D01*
X116076748Y-125197466D01*
X116076751Y-125197462D01*
X116186185Y-125033684D01*
X116186192Y-125033671D01*
X116261569Y-124851693D01*
X116261572Y-124851681D01*
X116299999Y-124658495D01*
X116300000Y-124658492D01*
X116300000Y-124260000D01*
X115600000Y-124260000D01*
X115600000Y-123760000D01*
X116300000Y-123760000D01*
X116300000Y-123361508D01*
X116299999Y-123361504D01*
X116261572Y-123168318D01*
X116261569Y-123168306D01*
X116186192Y-122986328D01*
X116186185Y-122986315D01*
X116076751Y-122822537D01*
X116076748Y-122822533D01*
X115937466Y-122683251D01*
X115937462Y-122683248D01*
X115773684Y-122573814D01*
X115773671Y-122573807D01*
X115591691Y-122498429D01*
X115591683Y-122498427D01*
X115550000Y-122490135D01*
X115550000Y-123293011D01*
X115540060Y-123275795D01*
X115484205Y-123219940D01*
X115415796Y-123180444D01*
X115339496Y-123160000D01*
X115260504Y-123160000D01*
X115184204Y-123180444D01*
X115115795Y-123219940D01*
X115059940Y-123275795D01*
X115050000Y-123293011D01*
X115050000Y-122490136D01*
X115049999Y-122490135D01*
X115008316Y-122498427D01*
X115008308Y-122498429D01*
X114826328Y-122573807D01*
X114826315Y-122573814D01*
X114662537Y-122683248D01*
X114662533Y-122683251D01*
X114562181Y-122783604D01*
X114542744Y-122794216D01*
X114526011Y-122808717D01*
X114512679Y-122810633D01*
X114500858Y-122817089D01*
X114478771Y-122815509D01*
X114456853Y-122818661D01*
X114444601Y-122813065D01*
X114431166Y-122812105D01*
X114413439Y-122798834D01*
X114393297Y-122789636D01*
X114386014Y-122778304D01*
X114375233Y-122770233D01*
X114367495Y-122749487D01*
X114355523Y-122730858D01*
X114352371Y-122708939D01*
X114350816Y-122704769D01*
X114350500Y-122695923D01*
X114350500Y-122654604D01*
X114359939Y-122607151D01*
X114362694Y-122600500D01*
X114369737Y-122583497D01*
X114400500Y-122428842D01*
X114400500Y-122271158D01*
X114400500Y-122271155D01*
X114400499Y-122271153D01*
X114382204Y-122179179D01*
X114369737Y-122116503D01*
X114335352Y-122033489D01*
X114309397Y-121970827D01*
X114309390Y-121970814D01*
X114221789Y-121839711D01*
X114221786Y-121839707D01*
X114110286Y-121728207D01*
X114107570Y-121725978D01*
X114106529Y-121724450D01*
X114105982Y-121723903D01*
X114106085Y-121723799D01*
X114092762Y-121704238D01*
X114074970Y-121684859D01*
X114073403Y-121675816D01*
X114068237Y-121668231D01*
X114067533Y-121641931D01*
X114063044Y-121616014D01*
X114066614Y-121607561D01*
X114066369Y-121598386D01*
X114079996Y-121575880D01*
X114090231Y-121551651D01*
X114099067Y-121544384D01*
X114102559Y-121538619D01*
X114116229Y-121527782D01*
X114125918Y-121521153D01*
X116799500Y-121521153D01*
X116799500Y-121678846D01*
X116830261Y-121833489D01*
X116830264Y-121833501D01*
X116890602Y-121979172D01*
X116890609Y-121979185D01*
X116978210Y-122110288D01*
X116978213Y-122110292D01*
X117089707Y-122221786D01*
X117089711Y-122221789D01*
X117220814Y-122309390D01*
X117220827Y-122309397D01*
X117354668Y-122364835D01*
X117366503Y-122369737D01*
X117521153Y-122400499D01*
X117521156Y-122400500D01*
X117521158Y-122400500D01*
X117678844Y-122400500D01*
X117678845Y-122400499D01*
X117833497Y-122369737D01*
X117946166Y-122323067D01*
X117979172Y-122309397D01*
X117979172Y-122309396D01*
X117979179Y-122309394D01*
X118110289Y-122221789D01*
X118221789Y-122110289D01*
X118309394Y-121979179D01*
X118312854Y-121970827D01*
X118350954Y-121878844D01*
X118369737Y-121833497D01*
X118400500Y-121678842D01*
X118400500Y-121521158D01*
X118400500Y-121521155D01*
X118400499Y-121521153D01*
X118394450Y-121490741D01*
X118369737Y-121366503D01*
X118369735Y-121366498D01*
X118309397Y-121220827D01*
X118309390Y-121220814D01*
X118221789Y-121089711D01*
X118221786Y-121089707D01*
X118110292Y-120978213D01*
X118110288Y-120978210D01*
X117979185Y-120890609D01*
X117979172Y-120890602D01*
X117833501Y-120830264D01*
X117833489Y-120830261D01*
X117678845Y-120799500D01*
X117678842Y-120799500D01*
X117521158Y-120799500D01*
X117521155Y-120799500D01*
X117366510Y-120830261D01*
X117366498Y-120830264D01*
X117220827Y-120890602D01*
X117220814Y-120890609D01*
X117089711Y-120978210D01*
X117089707Y-120978213D01*
X116978213Y-121089707D01*
X116978210Y-121089711D01*
X116890609Y-121220814D01*
X116890602Y-121220827D01*
X116830264Y-121366498D01*
X116830261Y-121366510D01*
X116799500Y-121521153D01*
X114125918Y-121521153D01*
X114126478Y-121520770D01*
X114132277Y-121518369D01*
X114263387Y-121430764D01*
X114374887Y-121319264D01*
X114462492Y-121188154D01*
X114466611Y-121178211D01*
X114503270Y-121089707D01*
X114522835Y-121042472D01*
X114535617Y-120978213D01*
X114550915Y-120901308D01*
X114565629Y-120873177D01*
X114578819Y-120844297D01*
X114581708Y-120842440D01*
X114583300Y-120839397D01*
X114610892Y-120823684D01*
X114637597Y-120806523D01*
X114642190Y-120805862D01*
X114644016Y-120804823D01*
X114672532Y-120801500D01*
X114879431Y-120801500D01*
X114879447Y-120801501D01*
X114887043Y-120801501D01*
X115045154Y-120801501D01*
X115045157Y-120801501D01*
X115197885Y-120760577D01*
X115285043Y-120710256D01*
X115334816Y-120681520D01*
X115446620Y-120569716D01*
X115446620Y-120569714D01*
X115456824Y-120559511D01*
X115456828Y-120559506D01*
X116508583Y-119507750D01*
X116569904Y-119474267D01*
X116639596Y-119479251D01*
X116695529Y-119521123D01*
X116717879Y-119571241D01*
X116730261Y-119633491D01*
X116730264Y-119633501D01*
X116790602Y-119779172D01*
X116790609Y-119779185D01*
X116878210Y-119910288D01*
X116878213Y-119910292D01*
X116989707Y-120021786D01*
X116989711Y-120021789D01*
X117120814Y-120109390D01*
X117120827Y-120109397D01*
X117266498Y-120169735D01*
X117266503Y-120169737D01*
X117416131Y-120199500D01*
X117421153Y-120200499D01*
X117421156Y-120200500D01*
X117421158Y-120200500D01*
X117578844Y-120200500D01*
X117578845Y-120200499D01*
X117733497Y-120169737D01*
X117879179Y-120109394D01*
X118010289Y-120021789D01*
X118121789Y-119910289D01*
X118209394Y-119779179D01*
X118261552Y-119653258D01*
X118305392Y-119598854D01*
X118371687Y-119576789D01*
X118439386Y-119594068D01*
X118463794Y-119613029D01*
X122965425Y-124114660D01*
X122998910Y-124175983D01*
X122999361Y-124178149D01*
X123030261Y-124333491D01*
X123030264Y-124333501D01*
X123090602Y-124479172D01*
X123090609Y-124479185D01*
X123178210Y-124610288D01*
X123178213Y-124610292D01*
X123289707Y-124721786D01*
X123289711Y-124721789D01*
X123420814Y-124809390D01*
X123420827Y-124809397D01*
X123546887Y-124861612D01*
X123566503Y-124869737D01*
X123650736Y-124886492D01*
X123721153Y-124900499D01*
X123721156Y-124900500D01*
X123721158Y-124900500D01*
X123878844Y-124900500D01*
X123878845Y-124900499D01*
X124033497Y-124869737D01*
X124179179Y-124809394D01*
X124310289Y-124721789D01*
X124421789Y-124610289D01*
X124509394Y-124479179D01*
X124569737Y-124333497D01*
X124600500Y-124178842D01*
X124600500Y-124021158D01*
X124600500Y-124021155D01*
X124600499Y-124021153D01*
X124588215Y-123959399D01*
X124569737Y-123866503D01*
X124569735Y-123866498D01*
X124509397Y-123720827D01*
X124509390Y-123720814D01*
X124421789Y-123589711D01*
X124421786Y-123589707D01*
X124310292Y-123478213D01*
X124310288Y-123478210D01*
X124179185Y-123390609D01*
X124179172Y-123390602D01*
X124033501Y-123330264D01*
X124033491Y-123330261D01*
X123878149Y-123299361D01*
X123816238Y-123266976D01*
X123814660Y-123265425D01*
X123314033Y-122764798D01*
X123280548Y-122703475D01*
X123285532Y-122633783D01*
X123327404Y-122577850D01*
X123392868Y-122553433D01*
X123449166Y-122562555D01*
X123466503Y-122569737D01*
X123621153Y-122600499D01*
X123621156Y-122600500D01*
X123621158Y-122600500D01*
X123778844Y-122600500D01*
X123778845Y-122600499D01*
X123933497Y-122569737D01*
X124079179Y-122509394D01*
X124210289Y-122421789D01*
X124321789Y-122310289D01*
X124409394Y-122179179D01*
X124469737Y-122033497D01*
X124500500Y-121878842D01*
X124500500Y-121721158D01*
X124500500Y-121721155D01*
X124500499Y-121721153D01*
X124492691Y-121681902D01*
X124469737Y-121566503D01*
X124458187Y-121538619D01*
X124409397Y-121420827D01*
X124409390Y-121420814D01*
X124321789Y-121289711D01*
X124321786Y-121289707D01*
X124210292Y-121178213D01*
X124210288Y-121178210D01*
X124079185Y-121090609D01*
X124079172Y-121090602D01*
X123933501Y-121030264D01*
X123933491Y-121030261D01*
X123778151Y-120999362D01*
X123716241Y-120966977D01*
X123714662Y-120965426D01*
X118836819Y-116087583D01*
X118803334Y-116026260D01*
X118800500Y-115999902D01*
X118800500Y-114199983D01*
X120099500Y-114199983D01*
X120099500Y-115500001D01*
X120099501Y-115500018D01*
X120110000Y-115602796D01*
X120110001Y-115602799D01*
X120165185Y-115769331D01*
X120165187Y-115769336D01*
X120183311Y-115798719D01*
X120257288Y-115918656D01*
X120381344Y-116042712D01*
X120530666Y-116134814D01*
X120697203Y-116189999D01*
X120799991Y-116200500D01*
X122400008Y-116200499D01*
X122502797Y-116189999D01*
X122669334Y-116134814D01*
X122818656Y-116042712D01*
X122942712Y-115918656D01*
X123034814Y-115769334D01*
X123089999Y-115602797D01*
X123100500Y-115500009D01*
X123100499Y-114199992D01*
X123093706Y-114133497D01*
X123089999Y-114097203D01*
X123089998Y-114097200D01*
X123050779Y-113978846D01*
X123034814Y-113930666D01*
X122942712Y-113781344D01*
X122818656Y-113657288D01*
X122669334Y-113565186D01*
X122669332Y-113565185D01*
X122663440Y-113561551D01*
X122616716Y-113509603D01*
X122605493Y-113440641D01*
X122633337Y-113376558D01*
X122640856Y-113368330D01*
X122779728Y-113229458D01*
X122904620Y-113057557D01*
X123001095Y-112868217D01*
X123066757Y-112666129D01*
X123066757Y-112666126D01*
X123077231Y-112600000D01*
X122033012Y-112600000D01*
X122065925Y-112542993D01*
X122100000Y-112415826D01*
X122100000Y-112284174D01*
X122065925Y-112157007D01*
X122033012Y-112100000D01*
X123077231Y-112100000D01*
X123066757Y-112033873D01*
X123066757Y-112033870D01*
X123001095Y-111831782D01*
X122904620Y-111642442D01*
X122779727Y-111470540D01*
X122779723Y-111470535D01*
X122629464Y-111320276D01*
X122629459Y-111320272D01*
X122457557Y-111195379D01*
X122268217Y-111098904D01*
X122066129Y-111033242D01*
X121856246Y-111000000D01*
X121850000Y-111000000D01*
X121850000Y-111916988D01*
X121792993Y-111884075D01*
X121665826Y-111850000D01*
X121534174Y-111850000D01*
X121407007Y-111884075D01*
X121350000Y-111916988D01*
X121350000Y-111000000D01*
X121343754Y-111000000D01*
X121133872Y-111033242D01*
X121133869Y-111033242D01*
X120931782Y-111098904D01*
X120742442Y-111195379D01*
X120570540Y-111320272D01*
X120570535Y-111320276D01*
X120420276Y-111470535D01*
X120420272Y-111470540D01*
X120295379Y-111642442D01*
X120198904Y-111831782D01*
X120133242Y-112033870D01*
X120133242Y-112033873D01*
X120122769Y-112100000D01*
X121166988Y-112100000D01*
X121134075Y-112157007D01*
X121100000Y-112284174D01*
X121100000Y-112415826D01*
X121134075Y-112542993D01*
X121166988Y-112600000D01*
X120122769Y-112600000D01*
X120133242Y-112666126D01*
X120133242Y-112666129D01*
X120198904Y-112868217D01*
X120295379Y-113057557D01*
X120420272Y-113229459D01*
X120420276Y-113229464D01*
X120559143Y-113368331D01*
X120592628Y-113429654D01*
X120587644Y-113499346D01*
X120545772Y-113555279D01*
X120536559Y-113561551D01*
X120381342Y-113657289D01*
X120257289Y-113781342D01*
X120165187Y-113930663D01*
X120165186Y-113930666D01*
X120110001Y-114097203D01*
X120110001Y-114097204D01*
X120110000Y-114097204D01*
X120099500Y-114199983D01*
X118800500Y-114199983D01*
X118800500Y-113182940D01*
X118820185Y-113115901D01*
X118836814Y-113095263D01*
X118921789Y-113010289D01*
X119009394Y-112879179D01*
X119010085Y-112877512D01*
X119069735Y-112733501D01*
X119069737Y-112733497D01*
X119100500Y-112578842D01*
X119100500Y-112421158D01*
X119100500Y-112421155D01*
X119100499Y-112421153D01*
X119086900Y-112352787D01*
X119069737Y-112266503D01*
X119056729Y-112235098D01*
X119035778Y-112184516D01*
X119009395Y-112120824D01*
X119009394Y-112120821D01*
X119009392Y-112120818D01*
X119009390Y-112120814D01*
X118921789Y-111989711D01*
X118921786Y-111989707D01*
X118810292Y-111878213D01*
X118810288Y-111878210D01*
X118679185Y-111790609D01*
X118679172Y-111790602D01*
X118533501Y-111730264D01*
X118533489Y-111730261D01*
X118378845Y-111699500D01*
X118378842Y-111699500D01*
X118221158Y-111699500D01*
X118221155Y-111699500D01*
X118066510Y-111730261D01*
X118066498Y-111730264D01*
X117920827Y-111790602D01*
X117920814Y-111790609D01*
X117789711Y-111878210D01*
X117789707Y-111878213D01*
X117713181Y-111954740D01*
X117651858Y-111988225D01*
X117582166Y-111983241D01*
X117526233Y-111941369D01*
X117501816Y-111875905D01*
X117501500Y-111867059D01*
X117501500Y-109666196D01*
X117521185Y-109599157D01*
X117537815Y-109578519D01*
X117939152Y-109177181D01*
X118000473Y-109143698D01*
X118070164Y-109148682D01*
X118095720Y-109161761D01*
X118208636Y-109237209D01*
X118208638Y-109237210D01*
X118208642Y-109237212D01*
X118354313Y-109297550D01*
X118354318Y-109297552D01*
X118508968Y-109328314D01*
X118508971Y-109328315D01*
X118508973Y-109328315D01*
X118666659Y-109328315D01*
X118666660Y-109328314D01*
X118821312Y-109297552D01*
X118966994Y-109237209D01*
X119098104Y-109149604D01*
X119209604Y-109038104D01*
X119297209Y-108906994D01*
X119357552Y-108761312D01*
X119386966Y-108613440D01*
X119388453Y-108605965D01*
X119420838Y-108544054D01*
X119422335Y-108542529D01*
X120383417Y-107581446D01*
X120409031Y-107567460D01*
X120433189Y-107551065D01*
X120439339Y-107550910D01*
X120444738Y-107547963D01*
X120473851Y-107550045D01*
X120503037Y-107549313D01*
X120510440Y-107552661D01*
X120514429Y-107552947D01*
X120535499Y-107563166D01*
X120537777Y-107564550D01*
X120652901Y-107641474D01*
X120688818Y-107656351D01*
X120696962Y-107661301D01*
X120714333Y-107680361D01*
X120734413Y-107696542D01*
X120737481Y-107705760D01*
X120744026Y-107712941D01*
X120748335Y-107738366D01*
X120756480Y-107762835D01*
X120754077Y-107772248D01*
X120755701Y-107781828D01*
X120745578Y-107805548D01*
X120739202Y-107830535D01*
X120731406Y-107838760D01*
X120728278Y-107846092D01*
X120717570Y-107853358D01*
X120701454Y-107870364D01*
X120689708Y-107878212D01*
X120578213Y-107989707D01*
X120578210Y-107989711D01*
X120490609Y-108120814D01*
X120490602Y-108120827D01*
X120430264Y-108266498D01*
X120430261Y-108266510D01*
X120399500Y-108421153D01*
X120399500Y-108578846D01*
X120430261Y-108733489D01*
X120430264Y-108733501D01*
X120490602Y-108879172D01*
X120490609Y-108879185D01*
X120578210Y-109010288D01*
X120578213Y-109010292D01*
X120689707Y-109121786D01*
X120689711Y-109121789D01*
X120820814Y-109209390D01*
X120820827Y-109209397D01*
X120891915Y-109238842D01*
X120966503Y-109269737D01*
X121106338Y-109297552D01*
X121121153Y-109300499D01*
X121121156Y-109300500D01*
X121121158Y-109300500D01*
X121278844Y-109300500D01*
X121278845Y-109300499D01*
X121433497Y-109269737D01*
X121579179Y-109209394D01*
X121710289Y-109121789D01*
X121821789Y-109010289D01*
X121909394Y-108879179D01*
X121915594Y-108864212D01*
X121923748Y-108844526D01*
X121969737Y-108733497D01*
X122000500Y-108578842D01*
X122000500Y-108421158D01*
X122000500Y-108421155D01*
X122000499Y-108421153D01*
X121996408Y-108400588D01*
X121969737Y-108266503D01*
X121954586Y-108229924D01*
X121909397Y-108120827D01*
X121909390Y-108120814D01*
X121821789Y-107989711D01*
X121821786Y-107989707D01*
X121710292Y-107878213D01*
X121710288Y-107878210D01*
X121579185Y-107790609D01*
X121579173Y-107790603D01*
X121552068Y-107779376D01*
X121497664Y-107735536D01*
X121475599Y-107669242D01*
X121492878Y-107601542D01*
X121530630Y-107561712D01*
X121542369Y-107553869D01*
X121653869Y-107442369D01*
X121741474Y-107311259D01*
X121801817Y-107165577D01*
X121832580Y-107010922D01*
X121832580Y-106853238D01*
X121832580Y-106853235D01*
X121832579Y-106853233D01*
X121801817Y-106698583D01*
X121783874Y-106655264D01*
X121741477Y-106552907D01*
X121741475Y-106552903D01*
X121741474Y-106552901D01*
X121666026Y-106439986D01*
X121656539Y-106409687D01*
X121645445Y-106379942D01*
X121646174Y-106376586D01*
X121645149Y-106373310D01*
X121653548Y-106342691D01*
X121660297Y-106311669D01*
X121663077Y-106307954D01*
X121663633Y-106305930D01*
X121681444Y-106283419D01*
X121738506Y-106226358D01*
X121738511Y-106226354D01*
X121748714Y-106216150D01*
X121748716Y-106216150D01*
X121860520Y-106104346D01*
X121937795Y-105970501D01*
X121939577Y-105967415D01*
X121980501Y-105814687D01*
X121980501Y-105656573D01*
X121980501Y-105648978D01*
X121980500Y-105648960D01*
X121980500Y-103770097D01*
X122000185Y-103703058D01*
X122016819Y-103682416D01*
X122498027Y-103201208D01*
X123020520Y-102678716D01*
X123099577Y-102541784D01*
X123140501Y-102389057D01*
X123140501Y-102230942D01*
X123140501Y-102223347D01*
X123140500Y-102223329D01*
X123140500Y-97800943D01*
X123140499Y-97800936D01*
X123140113Y-97799497D01*
X123140106Y-97799473D01*
X123121264Y-97729155D01*
X123121264Y-97729154D01*
X123099577Y-97648216D01*
X123099576Y-97648213D01*
X123020524Y-97511290D01*
X123020521Y-97511286D01*
X123020520Y-97511284D01*
X122908716Y-97399480D01*
X122908715Y-97399479D01*
X122904385Y-97395149D01*
X122904374Y-97395139D01*
X120197590Y-94688355D01*
X120197588Y-94688352D01*
X120078717Y-94569481D01*
X120078709Y-94569475D01*
X119990382Y-94518480D01*
X119990381Y-94518480D01*
X119941785Y-94490423D01*
X119789057Y-94449499D01*
X119630943Y-94449499D01*
X119623347Y-94449499D01*
X119623331Y-94449500D01*
X119559766Y-94449500D01*
X119492727Y-94429815D01*
X119490875Y-94428602D01*
X119359185Y-94340609D01*
X119359172Y-94340602D01*
X119213501Y-94280264D01*
X119213489Y-94280261D01*
X119058845Y-94249500D01*
X119058842Y-94249500D01*
X118901158Y-94249500D01*
X118901155Y-94249500D01*
X118746510Y-94280261D01*
X118746498Y-94280264D01*
X118600827Y-94340602D01*
X118600814Y-94340609D01*
X118469711Y-94428210D01*
X118469707Y-94428213D01*
X118358213Y-94539707D01*
X118358210Y-94539711D01*
X118270609Y-94670814D01*
X118270602Y-94670827D01*
X118210264Y-94816498D01*
X118210261Y-94816510D01*
X118179500Y-94971153D01*
X118179500Y-94982742D01*
X118159815Y-95049781D01*
X118107011Y-95095536D01*
X118055500Y-95106742D01*
X115679021Y-95106742D01*
X115611982Y-95087057D01*
X115610167Y-95085868D01*
X115580179Y-95065831D01*
X115580175Y-95065829D01*
X115580171Y-95065827D01*
X115434501Y-95005489D01*
X115434489Y-95005486D01*
X115279845Y-94974725D01*
X115279842Y-94974725D01*
X115122158Y-94974725D01*
X115122153Y-94974725D01*
X115019651Y-94995114D01*
X114950059Y-94988887D01*
X114894882Y-94946024D01*
X114873843Y-94897688D01*
X114857695Y-94816510D01*
X114849737Y-94776503D01*
X114813558Y-94689158D01*
X114789397Y-94630827D01*
X114789390Y-94630814D01*
X114701789Y-94499711D01*
X114701786Y-94499707D01*
X114590292Y-94388213D01*
X114590288Y-94388210D01*
X114459185Y-94300609D01*
X114459172Y-94300602D01*
X114313501Y-94240264D01*
X114313489Y-94240261D01*
X114158845Y-94209500D01*
X114158842Y-94209500D01*
X114001158Y-94209500D01*
X114001155Y-94209500D01*
X113846510Y-94240261D01*
X113846498Y-94240264D01*
X113700827Y-94300602D01*
X113700814Y-94300609D01*
X113569711Y-94388210D01*
X113569707Y-94388213D01*
X113458213Y-94499707D01*
X113458207Y-94499715D01*
X113395616Y-94593390D01*
X113342004Y-94638196D01*
X113292514Y-94648500D01*
X112871997Y-94648500D01*
X112831076Y-94659464D01*
X112831076Y-94659465D01*
X112748524Y-94681584D01*
X112678676Y-94679922D01*
X112620814Y-94640760D01*
X112593309Y-94576532D01*
X112592432Y-94561810D01*
X112592432Y-94531471D01*
X112592431Y-94531469D01*
X112586113Y-94499707D01*
X112561669Y-94376819D01*
X112561477Y-94376356D01*
X112501329Y-94231143D01*
X112501322Y-94231130D01*
X112413721Y-94100027D01*
X112413718Y-94100023D01*
X112302224Y-93988529D01*
X112302220Y-93988526D01*
X112171117Y-93900925D01*
X112171104Y-93900918D01*
X112025433Y-93840580D01*
X112025421Y-93840577D01*
X111870777Y-93809816D01*
X111870774Y-93809816D01*
X111713090Y-93809816D01*
X111713087Y-93809816D01*
X111558442Y-93840577D01*
X111558430Y-93840580D01*
X111412759Y-93900918D01*
X111412746Y-93900925D01*
X111281643Y-93988526D01*
X111281639Y-93988529D01*
X111170145Y-94100023D01*
X111170142Y-94100027D01*
X111082541Y-94231130D01*
X111082534Y-94231143D01*
X111044921Y-94321952D01*
X111001080Y-94376356D01*
X110934786Y-94398421D01*
X110930360Y-94398500D01*
X109717848Y-94398500D01*
X109650809Y-94378815D01*
X109605054Y-94326011D01*
X109596231Y-94298692D01*
X109569738Y-94165508D01*
X109569737Y-94165507D01*
X109569737Y-94165503D01*
X109569735Y-94165498D01*
X109509397Y-94019827D01*
X109509390Y-94019814D01*
X109421789Y-93888711D01*
X109421786Y-93888707D01*
X109310292Y-93777213D01*
X109310288Y-93777210D01*
X109179185Y-93689609D01*
X109179172Y-93689602D01*
X109033501Y-93629264D01*
X109033489Y-93629261D01*
X108878845Y-93598500D01*
X108878842Y-93598500D01*
X108817111Y-93598500D01*
X108750072Y-93578815D01*
X108704317Y-93526011D01*
X108694373Y-93456853D01*
X108694638Y-93455102D01*
X108700500Y-93418091D01*
X108700500Y-93181902D01*
X108678732Y-93044464D01*
X108676624Y-93031153D01*
X113369500Y-93031153D01*
X113369500Y-93188846D01*
X113400261Y-93343489D01*
X113400264Y-93343501D01*
X113460602Y-93489172D01*
X113460609Y-93489185D01*
X113548210Y-93620288D01*
X113548213Y-93620292D01*
X113659707Y-93731786D01*
X113659711Y-93731789D01*
X113790814Y-93819390D01*
X113790827Y-93819397D01*
X113936498Y-93879735D01*
X113936503Y-93879737D01*
X114043022Y-93900925D01*
X114091153Y-93910499D01*
X114091156Y-93910500D01*
X114091158Y-93910500D01*
X114248844Y-93910500D01*
X114248845Y-93910499D01*
X114403497Y-93879737D01*
X114549179Y-93819394D01*
X114680289Y-93731789D01*
X114791789Y-93620289D01*
X114879394Y-93489179D01*
X114939737Y-93343497D01*
X114970500Y-93188842D01*
X114970500Y-93031158D01*
X114970500Y-93031155D01*
X114970499Y-93031153D01*
X114939738Y-92876510D01*
X114939737Y-92876503D01*
X114939735Y-92876498D01*
X114879397Y-92730827D01*
X114879390Y-92730814D01*
X114791789Y-92599711D01*
X114791786Y-92599707D01*
X114680292Y-92488213D01*
X114680288Y-92488210D01*
X114549185Y-92400609D01*
X114549172Y-92400602D01*
X114403501Y-92340264D01*
X114403489Y-92340261D01*
X114248845Y-92309500D01*
X114248842Y-92309500D01*
X114091158Y-92309500D01*
X114091155Y-92309500D01*
X113936510Y-92340261D01*
X113936498Y-92340264D01*
X113790827Y-92400602D01*
X113790814Y-92400609D01*
X113659711Y-92488210D01*
X113659707Y-92488213D01*
X113548213Y-92599707D01*
X113548210Y-92599711D01*
X113460609Y-92730814D01*
X113460602Y-92730827D01*
X113400264Y-92876498D01*
X113400261Y-92876510D01*
X113369500Y-93031153D01*
X108676624Y-93031153D01*
X108670447Y-92992160D01*
X108663553Y-92948632D01*
X108590568Y-92724008D01*
X108590566Y-92724005D01*
X108590566Y-92724003D01*
X108534002Y-92612991D01*
X108483343Y-92513567D01*
X108344517Y-92322490D01*
X108177510Y-92155483D01*
X107986433Y-92016657D01*
X107775996Y-91909433D01*
X107551368Y-91836446D01*
X107318097Y-91799500D01*
X107318092Y-91799500D01*
X107081908Y-91799500D01*
X107081903Y-91799500D01*
X106848631Y-91836446D01*
X106624003Y-91909433D01*
X106413566Y-92016657D01*
X106304550Y-92095862D01*
X106222490Y-92155483D01*
X106222488Y-92155485D01*
X106222487Y-92155485D01*
X106055485Y-92322487D01*
X106055485Y-92322488D01*
X106055483Y-92322490D01*
X105998731Y-92400602D01*
X105916657Y-92513566D01*
X105809433Y-92724003D01*
X105736446Y-92948631D01*
X105699500Y-93181902D01*
X105699500Y-93418097D01*
X105736446Y-93651368D01*
X105748871Y-93689606D01*
X105792130Y-93822743D01*
X105796497Y-93836181D01*
X105798492Y-93906023D01*
X105762412Y-93965856D01*
X105699711Y-93996684D01*
X105678566Y-93998500D01*
X103537612Y-93998500D01*
X103537596Y-93998499D01*
X103530000Y-93998499D01*
X103371886Y-93998499D01*
X103264530Y-94027265D01*
X103219153Y-94039424D01*
X103219152Y-94039425D01*
X103169039Y-94068359D01*
X103169038Y-94068360D01*
X103159841Y-94073670D01*
X103082228Y-94118479D01*
X103082225Y-94118481D01*
X102986526Y-94214181D01*
X102925203Y-94247666D01*
X102898845Y-94250500D01*
X102241744Y-94250500D01*
X102174705Y-94230815D01*
X102128950Y-94178011D01*
X102119006Y-94108853D01*
X102148031Y-94045297D01*
X102206809Y-94007523D01*
X102209597Y-94006740D01*
X102474952Y-93935639D01*
X102747507Y-93822743D01*
X103002994Y-93675238D01*
X103237042Y-93495646D01*
X103445646Y-93287042D01*
X103625238Y-93052994D01*
X103772743Y-92797507D01*
X103885639Y-92524952D01*
X103961993Y-92239993D01*
X104000500Y-91947506D01*
X104000500Y-91652494D01*
X104000499Y-91652486D01*
X119449500Y-91652486D01*
X119449500Y-91947513D01*
X119476881Y-92155483D01*
X119488007Y-92239993D01*
X119564361Y-92524951D01*
X119564364Y-92524961D01*
X119677254Y-92797500D01*
X119677258Y-92797510D01*
X119824761Y-93052993D01*
X120004352Y-93287040D01*
X120004358Y-93287047D01*
X120212952Y-93495641D01*
X120212959Y-93495647D01*
X120447006Y-93675238D01*
X120702489Y-93822741D01*
X120702490Y-93822741D01*
X120702493Y-93822743D01*
X120840084Y-93879735D01*
X120957764Y-93928480D01*
X120975048Y-93935639D01*
X121260007Y-94011993D01*
X121552494Y-94050500D01*
X121552501Y-94050500D01*
X121847499Y-94050500D01*
X121847506Y-94050500D01*
X122139993Y-94011993D01*
X122424952Y-93935639D01*
X122697507Y-93822743D01*
X122952994Y-93675238D01*
X123187042Y-93495646D01*
X123395646Y-93287042D01*
X123575238Y-93052994D01*
X123722743Y-92797507D01*
X123835639Y-92524952D01*
X123911993Y-92239993D01*
X123950500Y-91947506D01*
X123950500Y-91652494D01*
X123911993Y-91360007D01*
X123835639Y-91075048D01*
X123722743Y-90802493D01*
X123575238Y-90547006D01*
X123395646Y-90312958D01*
X123395641Y-90312952D01*
X123187047Y-90104358D01*
X123187040Y-90104352D01*
X122952993Y-89924761D01*
X122697510Y-89777258D01*
X122697500Y-89777254D01*
X122424961Y-89664364D01*
X122424954Y-89664362D01*
X122424952Y-89664361D01*
X122139993Y-89588007D01*
X122091113Y-89581571D01*
X121847513Y-89549500D01*
X121847506Y-89549500D01*
X121552494Y-89549500D01*
X121552486Y-89549500D01*
X121274085Y-89586153D01*
X121260007Y-89588007D01*
X120975048Y-89664361D01*
X120975038Y-89664364D01*
X120702499Y-89777254D01*
X120702489Y-89777258D01*
X120447006Y-89924761D01*
X120212959Y-90104352D01*
X120212952Y-90104358D01*
X120004358Y-90312952D01*
X120004352Y-90312959D01*
X119824761Y-90547006D01*
X119677258Y-90802489D01*
X119677254Y-90802499D01*
X119564364Y-91075038D01*
X119564361Y-91075048D01*
X119488008Y-91360004D01*
X119488006Y-91360015D01*
X119449500Y-91652486D01*
X104000499Y-91652486D01*
X103961993Y-91360007D01*
X103885639Y-91075048D01*
X103772743Y-90802493D01*
X103625238Y-90547006D01*
X103445646Y-90312958D01*
X103445641Y-90312952D01*
X103237047Y-90104358D01*
X103237040Y-90104352D01*
X103002993Y-89924761D01*
X102747510Y-89777258D01*
X102747500Y-89777254D01*
X102474961Y-89664364D01*
X102474954Y-89664362D01*
X102474952Y-89664361D01*
X102189993Y-89588007D01*
X102141113Y-89581571D01*
X101897513Y-89549500D01*
X101897506Y-89549500D01*
X101602494Y-89549500D01*
X101602486Y-89549500D01*
X101324085Y-89586153D01*
X101310007Y-89588007D01*
X101025048Y-89664361D01*
X101025038Y-89664364D01*
X100752499Y-89777254D01*
X100752489Y-89777258D01*
X100497006Y-89924761D01*
X100262959Y-90104352D01*
X100262952Y-90104358D01*
X100054358Y-90312952D01*
X100054352Y-90312959D01*
X99874761Y-90547006D01*
X99727258Y-90802489D01*
X99727254Y-90802499D01*
X99614364Y-91075038D01*
X99614361Y-91075048D01*
X99538008Y-91360004D01*
X99538006Y-91360015D01*
X99499500Y-91652486D01*
X99499500Y-91947513D01*
X99526881Y-92155483D01*
X99538007Y-92239993D01*
X99614361Y-92524951D01*
X99614364Y-92524961D01*
X99727254Y-92797500D01*
X99727258Y-92797510D01*
X99874761Y-93052993D01*
X100054352Y-93287040D01*
X100054358Y-93287047D01*
X100262952Y-93495641D01*
X100262956Y-93495644D01*
X100262958Y-93495646D01*
X100371346Y-93578815D01*
X100380871Y-93586124D01*
X100422073Y-93642552D01*
X100426228Y-93712298D01*
X100392015Y-93773219D01*
X100330298Y-93805971D01*
X100305384Y-93808500D01*
X99169941Y-93808500D01*
X99129285Y-93819393D01*
X99129286Y-93819394D01*
X99017214Y-93849423D01*
X99017209Y-93849426D01*
X98880290Y-93928475D01*
X98880282Y-93928481D01*
X98768478Y-94040286D01*
X98768477Y-94040287D01*
X98721720Y-94087043D01*
X98660397Y-94120527D01*
X98590705Y-94115542D01*
X98534772Y-94073670D01*
X98510356Y-94008206D01*
X98510040Y-93999511D01*
X98509954Y-93928475D01*
X98504333Y-89274149D01*
X98523937Y-89207087D01*
X98576685Y-89161268D01*
X98628333Y-89150000D01*
X124725500Y-89150000D01*
X124792539Y-89169685D01*
G37*
%TD.AperFunction*%
%TA.AperFunction,Conductor*%
G36*
X112900703Y-120821185D02*
G01*
X112946458Y-120873989D01*
X112955281Y-120901308D01*
X112983359Y-121042466D01*
X112983362Y-121042476D01*
X113043700Y-121188147D01*
X113043707Y-121188160D01*
X113131308Y-121319263D01*
X113131311Y-121319267D01*
X113242804Y-121430760D01*
X113245526Y-121432994D01*
X113246568Y-121434524D01*
X113247116Y-121435072D01*
X113247012Y-121435175D01*
X113284859Y-121490741D01*
X113286728Y-121560586D01*
X113250539Y-121620353D01*
X113225317Y-121638202D01*
X113220820Y-121640605D01*
X113089711Y-121728210D01*
X113089707Y-121728213D01*
X112978213Y-121839707D01*
X112978210Y-121839711D01*
X112890609Y-121970814D01*
X112890602Y-121970827D01*
X112830264Y-122116498D01*
X112830261Y-122116510D01*
X112799500Y-122271153D01*
X112799500Y-122428846D01*
X112830261Y-122583489D01*
X112830263Y-122583497D01*
X112837305Y-122600499D01*
X112840061Y-122607151D01*
X112849500Y-122654604D01*
X112849500Y-123398121D01*
X112829815Y-123465160D01*
X112813181Y-123485802D01*
X111901512Y-124397470D01*
X111840189Y-124430955D01*
X111770497Y-124425971D01*
X111714564Y-124384099D01*
X111710729Y-124378680D01*
X111620021Y-124242927D01*
X111598198Y-124221104D01*
X111521892Y-124144798D01*
X111516183Y-124138689D01*
X111508239Y-124129591D01*
X111478751Y-124078515D01*
X111366947Y-123966711D01*
X111366944Y-123966709D01*
X111237819Y-123837584D01*
X111204334Y-123776261D01*
X111201500Y-123749903D01*
X111201500Y-122416197D01*
X111221185Y-122349158D01*
X111237819Y-122328516D01*
X112728516Y-120837819D01*
X112755443Y-120823115D01*
X112781262Y-120806523D01*
X112787462Y-120805631D01*
X112789839Y-120804334D01*
X112816197Y-120801500D01*
X112833664Y-120801500D01*
X112900703Y-120821185D01*
G37*
%TD.AperFunction*%
%TA.AperFunction,Conductor*%
G36*
X103622708Y-110511047D02*
G01*
X103678642Y-110552919D01*
X103687335Y-110569529D01*
X103688736Y-110568781D01*
X103691609Y-110574157D01*
X103779210Y-110705260D01*
X103779213Y-110705264D01*
X103890707Y-110816758D01*
X103890711Y-110816761D01*
X104021814Y-110904362D01*
X104021827Y-110904369D01*
X104162324Y-110962564D01*
X104167503Y-110964709D01*
X104285283Y-110988137D01*
X104322153Y-110995471D01*
X104322156Y-110995472D01*
X104322158Y-110995472D01*
X104479844Y-110995472D01*
X104479845Y-110995471D01*
X104634497Y-110964709D01*
X104634511Y-110964702D01*
X104639498Y-110963191D01*
X104666461Y-110962949D01*
X104693147Y-110959112D01*
X104700872Y-110962640D01*
X104709365Y-110962564D01*
X104732176Y-110976935D01*
X104756703Y-110988137D01*
X104761294Y-110995281D01*
X104768480Y-110999809D01*
X104779899Y-111024231D01*
X104794477Y-111046915D01*
X104796240Y-111059180D01*
X104798074Y-111063102D01*
X104799500Y-111081850D01*
X104799500Y-111282745D01*
X104779815Y-111349784D01*
X104763181Y-111370426D01*
X102202697Y-113930909D01*
X102147111Y-113963002D01*
X102076800Y-113981842D01*
X102076787Y-113981848D01*
X101939868Y-114060897D01*
X101939860Y-114060903D01*
X101143936Y-114856826D01*
X101082613Y-114890311D01*
X101012921Y-114885327D01*
X100956988Y-114843455D01*
X100932571Y-114777991D01*
X100941694Y-114721692D01*
X100950472Y-114700500D01*
X101012051Y-114551835D01*
X101050500Y-114358541D01*
X101050500Y-114161459D01*
X101050500Y-114161456D01*
X101012052Y-113968170D01*
X101012051Y-113968169D01*
X101012051Y-113968165D01*
X101012049Y-113968160D01*
X100936635Y-113786092D01*
X100936633Y-113786088D01*
X100936632Y-113786086D01*
X100875029Y-113693891D01*
X100854151Y-113627214D01*
X100872635Y-113559834D01*
X100875029Y-113556109D01*
X100887872Y-113536887D01*
X100936632Y-113463914D01*
X101012051Y-113281835D01*
X101030199Y-113190602D01*
X101050500Y-113088543D01*
X101050500Y-112891456D01*
X101012052Y-112698170D01*
X101012051Y-112698169D01*
X101012051Y-112698165D01*
X101012049Y-112698160D01*
X100936635Y-112516092D01*
X100936631Y-112516085D01*
X100918127Y-112488392D01*
X100897249Y-112421715D01*
X100915733Y-112354334D01*
X100967711Y-112307644D01*
X101021229Y-112295500D01*
X101573128Y-112295500D01*
X101573130Y-112295500D01*
X101719499Y-112256281D01*
X101850729Y-112180515D01*
X103491696Y-110539546D01*
X103553017Y-110506063D01*
X103622708Y-110511047D01*
G37*
%TD.AperFunction*%
%TA.AperFunction,Conductor*%
G36*
X118605398Y-101762954D02*
G01*
X118618834Y-101763915D01*
X118636560Y-101777185D01*
X118656703Y-101786384D01*
X118663985Y-101797715D01*
X118674767Y-101805787D01*
X118682504Y-101826532D01*
X118694477Y-101845162D01*
X118697628Y-101867080D01*
X118699184Y-101871251D01*
X118699429Y-101878131D01*
X118699500Y-101878846D01*
X118730261Y-102033489D01*
X118730264Y-102033501D01*
X118790602Y-102179172D01*
X118790612Y-102179190D01*
X118842008Y-102256110D01*
X118862886Y-102322787D01*
X118844401Y-102390167D01*
X118842008Y-102393890D01*
X118790612Y-102470809D01*
X118790602Y-102470827D01*
X118730266Y-102616495D01*
X118730261Y-102616510D01*
X118699500Y-102771153D01*
X118699500Y-102928846D01*
X118730261Y-103083489D01*
X118730264Y-103083501D01*
X118790602Y-103229172D01*
X118790609Y-103229185D01*
X118878210Y-103360288D01*
X118878213Y-103360292D01*
X118989707Y-103471786D01*
X118989711Y-103471789D01*
X119120814Y-103559390D01*
X119120827Y-103559397D01*
X119197849Y-103591300D01*
X119266503Y-103619737D01*
X119299691Y-103626338D01*
X119361600Y-103658721D01*
X119396176Y-103719436D01*
X119399500Y-103747955D01*
X119399500Y-105399902D01*
X119379815Y-105466941D01*
X119363181Y-105487583D01*
X116152805Y-108697958D01*
X116091482Y-108731443D01*
X116039885Y-108729372D01*
X116039472Y-108731451D01*
X115878845Y-108699500D01*
X115878842Y-108699500D01*
X115721158Y-108699500D01*
X115721155Y-108699500D01*
X115566510Y-108730261D01*
X115566498Y-108730264D01*
X115420827Y-108790602D01*
X115420814Y-108790609D01*
X115289125Y-108878602D01*
X115271078Y-108884252D01*
X115255169Y-108894477D01*
X115224207Y-108898928D01*
X115222447Y-108899480D01*
X115220234Y-108899500D01*
X115065744Y-108899500D01*
X114998705Y-108879815D01*
X114952950Y-108827011D01*
X114943006Y-108757853D01*
X114972031Y-108694297D01*
X114978063Y-108687819D01*
X115089332Y-108576550D01*
X115435958Y-108229922D01*
X115497279Y-108196439D01*
X115499414Y-108195994D01*
X115505736Y-108194737D01*
X115651418Y-108134394D01*
X115782528Y-108046789D01*
X115894028Y-107935289D01*
X115981633Y-107804179D01*
X115989762Y-107784555D01*
X116026217Y-107696542D01*
X116041976Y-107658497D01*
X116072739Y-107503842D01*
X116072739Y-107346158D01*
X116072739Y-107346155D01*
X116072738Y-107346153D01*
X116053945Y-107251677D01*
X116041976Y-107191503D01*
X116030565Y-107163955D01*
X115981636Y-107045827D01*
X115981629Y-107045814D01*
X115894028Y-106914711D01*
X115894025Y-106914707D01*
X115782531Y-106803213D01*
X115782527Y-106803210D01*
X115651424Y-106715609D01*
X115651411Y-106715602D01*
X115505740Y-106655264D01*
X115505728Y-106655261D01*
X115351084Y-106624500D01*
X115351081Y-106624500D01*
X115193397Y-106624500D01*
X115193394Y-106624500D01*
X115038749Y-106655261D01*
X115038737Y-106655264D01*
X114887431Y-106717937D01*
X114886780Y-106716366D01*
X114826323Y-106728945D01*
X114761083Y-106703934D01*
X114719721Y-106647623D01*
X114715370Y-106577889D01*
X114748609Y-106517667D01*
X117159506Y-104106771D01*
X117159511Y-104106767D01*
X117169714Y-104096563D01*
X117169716Y-104096563D01*
X117281520Y-103984759D01*
X117355512Y-103856600D01*
X117360577Y-103847828D01*
X117401501Y-103695100D01*
X117401501Y-103536986D01*
X117401501Y-103529391D01*
X117401500Y-103529373D01*
X117401500Y-102930097D01*
X117421185Y-102863058D01*
X117437819Y-102842416D01*
X118487819Y-101792416D01*
X118507255Y-101781803D01*
X118523989Y-101767303D01*
X118537320Y-101765386D01*
X118549142Y-101758931D01*
X118571228Y-101760510D01*
X118593147Y-101757359D01*
X118605398Y-101762954D01*
G37*
%TD.AperFunction*%
%TA.AperFunction,Conductor*%
G36*
X103021203Y-103093386D02*
G01*
X103065552Y-103121887D01*
X104706589Y-104762924D01*
X104706610Y-104762947D01*
X104822731Y-104879068D01*
X104822733Y-104879069D01*
X104822734Y-104879070D01*
X104825075Y-104880421D01*
X104825391Y-104880604D01*
X104851079Y-104900314D01*
X105523685Y-105572920D01*
X105525824Y-105575112D01*
X105536007Y-105585811D01*
X105544930Y-105601266D01*
X105656734Y-105713070D01*
X105656736Y-105713071D01*
X105664898Y-105721233D01*
X105863484Y-105919819D01*
X105896969Y-105981142D01*
X105891985Y-106050834D01*
X105850113Y-106106767D01*
X105784649Y-106131184D01*
X105775803Y-106131500D01*
X105441821Y-106131500D01*
X105295451Y-106170719D01*
X105164223Y-106246485D01*
X105140298Y-106270410D01*
X105111489Y-106286139D01*
X105083285Y-106302875D01*
X105080990Y-106302793D01*
X105078974Y-106303894D01*
X105046247Y-106301552D01*
X105013459Y-106300382D01*
X105011572Y-106299071D01*
X105009282Y-106298908D01*
X104983022Y-106279249D01*
X104956067Y-106260534D01*
X104954504Y-106257900D01*
X104953350Y-106257036D01*
X104938057Y-106230180D01*
X104932245Y-106216150D01*
X104911508Y-106166086D01*
X104900791Y-106140212D01*
X104876826Y-106104346D01*
X104818661Y-106017295D01*
X104818660Y-106017294D01*
X104818658Y-106017291D01*
X104714123Y-105912756D01*
X102496071Y-103694703D01*
X102477118Y-103670309D01*
X102472589Y-103662679D01*
X102459394Y-103630821D01*
X102408291Y-103554341D01*
X102406602Y-103551494D01*
X102398742Y-103520716D01*
X102389256Y-103490420D01*
X102390162Y-103487117D01*
X102389314Y-103483796D01*
X102399342Y-103453654D01*
X102407741Y-103423040D01*
X102410289Y-103420750D01*
X102411371Y-103417500D01*
X102436096Y-103397570D01*
X102459720Y-103376350D01*
X102464322Y-103374818D01*
X102465769Y-103373652D01*
X102468809Y-103373324D01*
X102489040Y-103366590D01*
X102523497Y-103359737D01*
X102669179Y-103299394D01*
X102800289Y-103211789D01*
X102890191Y-103121886D01*
X102951512Y-103088402D01*
X103021203Y-103093386D01*
G37*
%TD.AperFunction*%
%TA.AperFunction,Conductor*%
G36*
X115098375Y-97501627D02*
G01*
X115102280Y-97500742D01*
X115131625Y-97511391D01*
X115161574Y-97520185D01*
X115164195Y-97523210D01*
X115167959Y-97524576D01*
X115186893Y-97549405D01*
X115207329Y-97572989D01*
X115207898Y-97576949D01*
X115210327Y-97580134D01*
X115212831Y-97611255D01*
X115217273Y-97642147D01*
X115215702Y-97646937D01*
X115215931Y-97649779D01*
X115206052Y-97677002D01*
X115206334Y-97677119D01*
X115143661Y-97828425D01*
X115143658Y-97828437D01*
X115112897Y-97983080D01*
X115112897Y-98140773D01*
X115143658Y-98295416D01*
X115143661Y-98295428D01*
X115203999Y-98441099D01*
X115204006Y-98441112D01*
X115291607Y-98572215D01*
X115291610Y-98572219D01*
X115403104Y-98683713D01*
X115403108Y-98683716D01*
X115534211Y-98771317D01*
X115534224Y-98771324D01*
X115673915Y-98829185D01*
X115679900Y-98831664D01*
X115834550Y-98862426D01*
X115834553Y-98862427D01*
X115834555Y-98862427D01*
X115992241Y-98862427D01*
X115992242Y-98862426D01*
X116146894Y-98831664D01*
X116292576Y-98771321D01*
X116357156Y-98728170D01*
X116405489Y-98695875D01*
X116472166Y-98674997D01*
X116539546Y-98693481D01*
X116562061Y-98711296D01*
X117715139Y-99864374D01*
X117715149Y-99864385D01*
X117719479Y-99868715D01*
X117719480Y-99868716D01*
X117831284Y-99980520D01*
X117897515Y-100018758D01*
X117968215Y-100059577D01*
X118120942Y-100100500D01*
X118120943Y-100100500D01*
X119820234Y-100100500D01*
X119887273Y-100120185D01*
X119889125Y-100121398D01*
X120020814Y-100209390D01*
X120020827Y-100209397D01*
X120117646Y-100249500D01*
X120166503Y-100269737D01*
X120176338Y-100271693D01*
X120187344Y-100273883D01*
X120249255Y-100306268D01*
X120283829Y-100366983D01*
X120280090Y-100436753D01*
X120239224Y-100493425D01*
X120174205Y-100519006D01*
X120163153Y-100519500D01*
X118231940Y-100519500D01*
X118191019Y-100530464D01*
X118191019Y-100530465D01*
X118156528Y-100539707D01*
X118079214Y-100560423D01*
X118079209Y-100560426D01*
X117942290Y-100639475D01*
X117942282Y-100639481D01*
X117412181Y-101169583D01*
X117350858Y-101203068D01*
X117281166Y-101198084D01*
X117225233Y-101156212D01*
X117200816Y-101090748D01*
X117200500Y-101081902D01*
X117200500Y-100971155D01*
X117200499Y-100971153D01*
X117192643Y-100931660D01*
X117169737Y-100816503D01*
X117149708Y-100768149D01*
X117109397Y-100670827D01*
X117109390Y-100670814D01*
X117021789Y-100539711D01*
X117021786Y-100539707D01*
X116910292Y-100428213D01*
X116910288Y-100428210D01*
X116779185Y-100340609D01*
X116779172Y-100340602D01*
X116633501Y-100280264D01*
X116633489Y-100280261D01*
X116478845Y-100249500D01*
X116478842Y-100249500D01*
X116321158Y-100249500D01*
X116321155Y-100249500D01*
X116166510Y-100280261D01*
X116166502Y-100280263D01*
X116108272Y-100304382D01*
X116038802Y-100311849D01*
X115976323Y-100280573D01*
X115940672Y-100220484D01*
X115939204Y-100165630D01*
X115950500Y-100108842D01*
X115950500Y-99951158D01*
X115950500Y-99951155D01*
X115950499Y-99951153D01*
X115934101Y-99868716D01*
X115919737Y-99796503D01*
X115919735Y-99796498D01*
X115859397Y-99650827D01*
X115859390Y-99650814D01*
X115771789Y-99519711D01*
X115771786Y-99519707D01*
X115660292Y-99408213D01*
X115660288Y-99408210D01*
X115529185Y-99320609D01*
X115529172Y-99320602D01*
X115383501Y-99260264D01*
X115383489Y-99260261D01*
X115228845Y-99229500D01*
X115228842Y-99229500D01*
X115071158Y-99229500D01*
X115071155Y-99229500D01*
X114916510Y-99260261D01*
X114916498Y-99260264D01*
X114770827Y-99320602D01*
X114770814Y-99320609D01*
X114639711Y-99408210D01*
X114639707Y-99408213D01*
X114528213Y-99519707D01*
X114528210Y-99519711D01*
X114440609Y-99650814D01*
X114440602Y-99650827D01*
X114380264Y-99796498D01*
X114380261Y-99796510D01*
X114349500Y-99951153D01*
X114349500Y-100108846D01*
X114380261Y-100263489D01*
X114380264Y-100263501D01*
X114440602Y-100409172D01*
X114440609Y-100409185D01*
X114528210Y-100540288D01*
X114528213Y-100540292D01*
X114639707Y-100651786D01*
X114639711Y-100651789D01*
X114770814Y-100739390D01*
X114770827Y-100739397D01*
X114840242Y-100768149D01*
X114916503Y-100799737D01*
X115071153Y-100830499D01*
X115071156Y-100830500D01*
X115071158Y-100830500D01*
X115228844Y-100830500D01*
X115228845Y-100830499D01*
X115383497Y-100799737D01*
X115441726Y-100775617D01*
X115511195Y-100768149D01*
X115573674Y-100799424D01*
X115609326Y-100859513D01*
X115610795Y-100914370D01*
X115599500Y-100971153D01*
X115599500Y-101128846D01*
X115630261Y-101283489D01*
X115630264Y-101283501D01*
X115690602Y-101429172D01*
X115690609Y-101429185D01*
X115778602Y-101560874D01*
X115799480Y-101627551D01*
X115799500Y-101629765D01*
X115799500Y-103149845D01*
X115779815Y-103216884D01*
X115763181Y-103237526D01*
X114552541Y-104448165D01*
X114491218Y-104481650D01*
X114421526Y-104476666D01*
X114365593Y-104434794D01*
X114343243Y-104384675D01*
X114319738Y-104266510D01*
X114319737Y-104266503D01*
X114300955Y-104221158D01*
X114259397Y-104120827D01*
X114259390Y-104120814D01*
X114171789Y-103989711D01*
X114171786Y-103989707D01*
X114060292Y-103878213D01*
X114060288Y-103878210D01*
X113929185Y-103790609D01*
X113929172Y-103790602D01*
X113783501Y-103730264D01*
X113783489Y-103730261D01*
X113628845Y-103699500D01*
X113628842Y-103699500D01*
X113471158Y-103699500D01*
X113471155Y-103699500D01*
X113316510Y-103730261D01*
X113316498Y-103730264D01*
X113170827Y-103790602D01*
X113170814Y-103790609D01*
X113039711Y-103878210D01*
X113039707Y-103878213D01*
X112928213Y-103989707D01*
X112928210Y-103989711D01*
X112840609Y-104120814D01*
X112840602Y-104120827D01*
X112780264Y-104266498D01*
X112780261Y-104266510D01*
X112749500Y-104421153D01*
X112749500Y-104559599D01*
X112729815Y-104626638D01*
X112677011Y-104672393D01*
X112607853Y-104682337D01*
X112556610Y-104662701D01*
X112493619Y-104620612D01*
X112493601Y-104620602D01*
X112347930Y-104560264D01*
X112347920Y-104560261D01*
X112224499Y-104535711D01*
X112162588Y-104503326D01*
X112161010Y-104501775D01*
X109907590Y-102248355D01*
X109907588Y-102248352D01*
X109788717Y-102129481D01*
X109788709Y-102129475D01*
X109699923Y-102078215D01*
X109699922Y-102078215D01*
X109651785Y-102050423D01*
X109499057Y-102009499D01*
X109340943Y-102009499D01*
X109333347Y-102009499D01*
X109333331Y-102009500D01*
X106788563Y-102009500D01*
X106759610Y-102000998D01*
X106730069Y-101994836D01*
X106726425Y-101991254D01*
X106721524Y-101989815D01*
X106701765Y-101967012D01*
X106680243Y-101945855D01*
X106679114Y-101940871D01*
X106675769Y-101937011D01*
X106671474Y-101907142D01*
X106664808Y-101877712D01*
X106666310Y-101871229D01*
X106665825Y-101867853D01*
X106672015Y-101843161D01*
X106672950Y-101840587D01*
X106729735Y-101703495D01*
X106738186Y-101661007D01*
X106741412Y-101652128D01*
X106756736Y-101631288D01*
X106768727Y-101608365D01*
X106777098Y-101603597D01*
X106782804Y-101595839D01*
X106806962Y-101586592D01*
X106829443Y-101573791D01*
X106840943Y-101573585D01*
X106848057Y-101570863D01*
X106859519Y-101573254D01*
X106882152Y-101572850D01*
X107021155Y-101600500D01*
X107021158Y-101600500D01*
X107178844Y-101600500D01*
X107178845Y-101600499D01*
X107333497Y-101569737D01*
X107479179Y-101509394D01*
X107550919Y-101461459D01*
X107610875Y-101421398D01*
X107677553Y-101400520D01*
X107679766Y-101400500D01*
X110613331Y-101400500D01*
X110613347Y-101400501D01*
X110620943Y-101400501D01*
X110779054Y-101400501D01*
X110779057Y-101400501D01*
X110931785Y-101359577D01*
X111001233Y-101319481D01*
X111068716Y-101280520D01*
X111180520Y-101168716D01*
X111180520Y-101168714D01*
X111190724Y-101158511D01*
X111190727Y-101158506D01*
X114812416Y-97536819D01*
X114873739Y-97503334D01*
X114900097Y-97500500D01*
X115094535Y-97500500D01*
X115098375Y-97501627D01*
G37*
%TD.AperFunction*%
%TA.AperFunction,Conductor*%
G36*
X113647453Y-96570425D02*
G01*
X113766503Y-96619737D01*
X113766515Y-96619739D01*
X113771481Y-96621246D01*
X113829922Y-96659540D01*
X113858382Y-96723351D01*
X113847826Y-96792418D01*
X113823174Y-96827590D01*
X110487584Y-100163181D01*
X110426261Y-100196666D01*
X110399903Y-100199500D01*
X107679766Y-100199500D01*
X107612727Y-100179815D01*
X107610875Y-100178602D01*
X107479185Y-100090609D01*
X107479172Y-100090602D01*
X107333501Y-100030264D01*
X107333489Y-100030261D01*
X107178845Y-99999500D01*
X107178842Y-99999500D01*
X107021158Y-99999500D01*
X107021155Y-99999500D01*
X106866510Y-100030261D01*
X106866498Y-100030264D01*
X106720827Y-100090602D01*
X106720814Y-100090609D01*
X106589711Y-100178210D01*
X106589707Y-100178213D01*
X106478213Y-100289707D01*
X106478210Y-100289711D01*
X106390609Y-100420814D01*
X106390602Y-100420827D01*
X106330264Y-100566498D01*
X106330262Y-100566506D01*
X106323654Y-100599724D01*
X106291267Y-100661634D01*
X106230551Y-100696207D01*
X106177846Y-100697147D01*
X106038844Y-100669498D01*
X106038840Y-100669498D01*
X105881156Y-100669498D01*
X105881153Y-100669498D01*
X105726508Y-100700259D01*
X105726496Y-100700262D01*
X105580825Y-100760600D01*
X105580812Y-100760607D01*
X105449709Y-100848208D01*
X105449705Y-100848211D01*
X105366257Y-100931660D01*
X105304934Y-100965145D01*
X105235242Y-100960161D01*
X105190895Y-100931660D01*
X103895246Y-99636011D01*
X103861761Y-99574688D01*
X103866745Y-99504996D01*
X103879823Y-99479442D01*
X103942957Y-99384957D01*
X103994607Y-99260263D01*
X103999352Y-99248807D01*
X104043193Y-99194403D01*
X104079960Y-99178796D01*
X104079502Y-99177284D01*
X104085324Y-99175517D01*
X104085335Y-99175515D01*
X104231017Y-99115172D01*
X104362127Y-99027567D01*
X104408426Y-98981267D01*
X104434098Y-98961566D01*
X104494080Y-98926936D01*
X104494082Y-98926934D01*
X104494085Y-98926934D01*
X104564461Y-98886302D01*
X104564460Y-98886302D01*
X104564468Y-98886298D01*
X104676272Y-98774494D01*
X104676273Y-98774491D01*
X104676961Y-98773802D01*
X104738284Y-98740318D01*
X104807976Y-98745302D01*
X104833534Y-98758382D01*
X104947287Y-98834390D01*
X104947300Y-98834397D01*
X105072602Y-98886298D01*
X105092976Y-98894737D01*
X105227316Y-98921459D01*
X105247626Y-98925499D01*
X105247629Y-98925500D01*
X105247631Y-98925500D01*
X105405317Y-98925500D01*
X105405318Y-98925499D01*
X105559970Y-98894737D01*
X105705652Y-98834394D01*
X105836762Y-98746789D01*
X105948262Y-98635289D01*
X106035867Y-98504179D01*
X106038820Y-98497050D01*
X106051363Y-98481484D01*
X106059669Y-98463297D01*
X106072839Y-98454832D01*
X106082660Y-98442646D01*
X106101627Y-98436332D01*
X106118447Y-98425523D01*
X106146003Y-98421560D01*
X106148953Y-98420579D01*
X106153382Y-98420500D01*
X106176442Y-98420500D01*
X106243481Y-98440185D01*
X106289236Y-98492989D01*
X106297341Y-98523060D01*
X106298311Y-98522868D01*
X106330261Y-98683489D01*
X106330264Y-98683501D01*
X106390602Y-98829172D01*
X106390609Y-98829185D01*
X106478210Y-98960288D01*
X106478213Y-98960292D01*
X106589707Y-99071786D01*
X106589711Y-99071789D01*
X106720814Y-99159390D01*
X106720827Y-99159397D01*
X106866498Y-99219735D01*
X106866503Y-99219737D01*
X107012647Y-99248807D01*
X107021153Y-99250499D01*
X107021156Y-99250500D01*
X107021158Y-99250500D01*
X107178844Y-99250500D01*
X107178845Y-99250499D01*
X107333497Y-99219737D01*
X107479179Y-99159394D01*
X107610289Y-99071789D01*
X107721789Y-98960289D01*
X107809394Y-98829179D01*
X107869737Y-98683497D01*
X107884488Y-98609334D01*
X107901689Y-98522868D01*
X107903812Y-98523290D01*
X107926315Y-98467560D01*
X107983349Y-98427200D01*
X108023558Y-98420500D01*
X111143331Y-98420500D01*
X111143347Y-98420501D01*
X111150943Y-98420501D01*
X111309054Y-98420501D01*
X111309057Y-98420501D01*
X111461785Y-98379577D01*
X111527374Y-98341709D01*
X111598716Y-98300520D01*
X111710520Y-98188716D01*
X111710520Y-98188714D01*
X111720724Y-98178511D01*
X111720727Y-98178506D01*
X113214664Y-96684571D01*
X113275985Y-96651088D01*
X113278152Y-96650637D01*
X113278841Y-96650500D01*
X113278842Y-96650500D01*
X113433497Y-96619737D01*
X113552548Y-96570425D01*
X113622017Y-96562956D01*
X113647453Y-96570425D01*
G37*
%TD.AperFunction*%
%TD*%
M02*
