%TF.GenerationSoftware,KiCad,Pcbnew,9.0.7*%
%TF.CreationDate,2026-03-22T15:46:58+01:00*%
%TF.ProjectId,SnapCore-Devboard-Rev1,536e6170-436f-4726-952d-446576626f61,rev?*%
%TF.SameCoordinates,Original*%
%TF.FileFunction,Copper,L4,Bot*%
%TF.FilePolarity,Positive*%
%FSLAX46Y46*%
G04 Gerber Fmt 4.6, Leading zero omitted, Abs format (unit mm)*
G04 Created by KiCad (PCBNEW 9.0.7) date 2026-03-22 15:46:58*
%MOMM*%
%LPD*%
G01*
G04 APERTURE LIST*
G04 Aperture macros list*
%AMRoundRect*
0 Rectangle with rounded corners*
0 $1 Rounding radius*
0 $2 $3 $4 $5 $6 $7 $8 $9 X,Y pos of 4 corners*
0 Add a 4 corners polygon primitive as box body*
4,1,4,$2,$3,$4,$5,$6,$7,$8,$9,$2,$3,0*
0 Add four circle primitives for the rounded corners*
1,1,$1+$1,$2,$3*
1,1,$1+$1,$4,$5*
1,1,$1+$1,$6,$7*
1,1,$1+$1,$8,$9*
0 Add four rect primitives between the rounded corners*
20,1,$1+$1,$2,$3,$4,$5,0*
20,1,$1+$1,$4,$5,$6,$7,0*
20,1,$1+$1,$6,$7,$8,$9,0*
20,1,$1+$1,$8,$9,$2,$3,0*%
G04 Aperture macros list end*
%TA.AperFunction,ComponentPad*%
%ADD10C,3.500000*%
%TD*%
%TA.AperFunction,ComponentPad*%
%ADD11RoundRect,0.250000X0.750000X-0.600000X0.750000X0.600000X-0.750000X0.600000X-0.750000X-0.600000X0*%
%TD*%
%TA.AperFunction,ComponentPad*%
%ADD12O,2.000000X1.700000*%
%TD*%
%TA.AperFunction,HeatsinkPad*%
%ADD13C,0.500000*%
%TD*%
%TA.AperFunction,HeatsinkPad*%
%ADD14R,1.900000X2.900000*%
%TD*%
%TA.AperFunction,HeatsinkPad*%
%ADD15O,1.000000X2.100000*%
%TD*%
%TA.AperFunction,HeatsinkPad*%
%ADD16O,1.000000X1.800000*%
%TD*%
%TA.AperFunction,ComponentPad*%
%ADD17R,1.000000X1.000000*%
%TD*%
%TA.AperFunction,ComponentPad*%
%ADD18C,1.000000*%
%TD*%
%TA.AperFunction,ViaPad*%
%ADD19C,0.600000*%
%TD*%
%TA.AperFunction,Conductor*%
%ADD20C,0.500000*%
%TD*%
%TA.AperFunction,Conductor*%
%ADD21C,0.200000*%
%TD*%
%TA.AperFunction,Conductor*%
%ADD22C,0.150000*%
%TD*%
G04 APERTURE END LIST*
D10*
%TO.P,H2,1*%
%TO.N,N/C*%
X121700000Y-91800000D03*
%TD*%
%TO.P,H3,1*%
%TO.N,N/C*%
X121700000Y-128000000D03*
%TD*%
D11*
%TO.P,BAT,1,Pin_1*%
%TO.N,Net-(BAT_CONN2-Pin_1)*%
X120100000Y-122350000D03*
D12*
%TO.P,BAT,2,Pin_2*%
%TO.N,GND*%
X120100000Y-119850000D03*
%TD*%
D13*
%TO.P,U5,9,EPAD*%
%TO.N,unconnected-(U5-EPAD-Pad9)*%
X110220000Y-110370000D03*
X110220000Y-111570000D03*
X110220000Y-112770000D03*
D14*
X110920000Y-111570000D03*
D13*
X111620000Y-110370000D03*
X111620000Y-111570000D03*
X111620000Y-112770000D03*
%TD*%
D15*
%TO.P,J2,S1,SHIELD*%
%TO.N,GND*%
X106660000Y-124010000D03*
D16*
X106660000Y-128190000D03*
D15*
X115300000Y-124010000D03*
D16*
X115300000Y-128190000D03*
%TD*%
D10*
%TO.P,H4,1*%
%TO.N,N/C*%
X101750000Y-91800000D03*
%TD*%
%TO.P,H1,1*%
%TO.N,N/C*%
X101770000Y-128000000D03*
%TD*%
D17*
%TO.P,J3,1,Pin_1*%
%TO.N,VBUS*%
X100050000Y-95210000D03*
D18*
%TO.P,J3,2,Pin_2*%
%TO.N,INTERNAL_I2C_SDA*%
X100050000Y-96480000D03*
%TO.P,J3,3,Pin_3*%
%TO.N,INTERNAL_I2C_SCL*%
X100050000Y-97750000D03*
%TO.P,J3,4,Pin_4*%
%TO.N,P0.16_PDM_DATA*%
X100050000Y-99020000D03*
%TO.P,J3,5,Pin_5*%
%TO.N,P1.00_PDM_CLK*%
X100050000Y-100290000D03*
%TO.P,J3,6,Pin_6*%
%TO.N,SWDCLK*%
X100050000Y-101560000D03*
%TO.P,J3,7,Pin_7*%
%TO.N,SWDIO*%
X100050000Y-102830000D03*
%TO.P,J3,8,Pin_8*%
%TO.N,P0.09{slash}NFC1*%
X100050000Y-104100000D03*
%TO.P,J3,9,Pin_9*%
%TO.N,P0.10{slash}NFC2*%
X100050000Y-105370000D03*
%TO.P,J3,10,Pin_10*%
%TO.N,3V3*%
X100050000Y-106640000D03*
%TO.P,J3,11,Pin_11*%
%TO.N,GND*%
X100050000Y-107910000D03*
%TO.P,J3,12,Pin_12*%
%TO.N,P0.23_QSPI_SIO_3*%
X100050000Y-109180000D03*
%TO.P,J3,13,Pin_13*%
%TO.N,P0.25_QSPI_CSN*%
X100050000Y-110450000D03*
%TO.P,J3,14,Pin_14*%
%TO.N,P0.21_QSPI_SCK*%
X100050000Y-111720000D03*
%TO.P,J3,15,Pin_15*%
%TO.N,P0.20_QSPI_SIO_0*%
X100050000Y-112990000D03*
%TO.P,J3,16,Pin_16*%
%TO.N,P0.22_QSPI_SIO_2*%
X100050000Y-114260000D03*
%TO.P,J3,17,Pin_17*%
%TO.N,P0.24_QSPI_SIO_1*%
X100050000Y-115530000D03*
%TO.P,J3,18,Pin_18*%
%TO.N,GND*%
X100050000Y-116800000D03*
%TD*%
D19*
%TO.N,GND*%
X105100000Y-91125000D03*
X107100000Y-91000000D03*
X116400000Y-91175000D03*
X114225000Y-91150000D03*
X108725000Y-89650000D03*
X124100000Y-89700000D03*
X118800000Y-89700000D03*
X116375000Y-89700000D03*
X114200000Y-89700000D03*
X99350000Y-89650000D03*
X103450000Y-89650000D03*
X105350000Y-89650000D03*
X107200000Y-89650000D03*
%TO.N,VIN*%
X109500000Y-115350000D03*
X113753098Y-120808975D03*
X105399000Y-115200000D03*
%TO.N,3V3*%
X120350000Y-98500000D03*
X114080000Y-95010000D03*
X112960000Y-106931000D03*
X115150000Y-100030000D03*
X104235707Y-107175707D03*
X101750000Y-104010000D03*
X107900000Y-104300000D03*
X107100000Y-98450000D03*
X113850000Y-116350000D03*
X113550000Y-104500000D03*
X104100000Y-117550000D03*
%TO.N,VBUS*%
X114629923Y-114581667D03*
X113600000Y-122350000D03*
X114985000Y-109665000D03*
X104401000Y-110194972D03*
X102290000Y-102590000D03*
X123770000Y-108960000D03*
X106850000Y-113900000D03*
X107650000Y-121000000D03*
%TO.N,BAT0*%
X119100000Y-114200000D03*
X117500000Y-119400000D03*
X103389999Y-108021416D03*
X115800000Y-113750000D03*
%TO.N,RESET*%
X118980000Y-95050000D03*
X105780000Y-109680000D03*
X102300000Y-120900000D03*
X118587815Y-108527815D03*
%TO.N,Net-(U1-DEC1)*%
X106550000Y-103900000D03*
X107300000Y-105050000D03*
%TO.N,P0.31_AIN7_BAT*%
X107100000Y-100800000D03*
X120400000Y-99500000D03*
%TO.N,INTERNAL_I2C_SCL*%
X110580000Y-104930000D03*
%TO.N,INTERNAL_I2C_SDA*%
X111800000Y-105070000D03*
%TO.N,DEC4*%
X114170000Y-93110000D03*
X105959998Y-101469998D03*
X109270000Y-96170607D03*
%TO.N,USB_D-*%
X119500000Y-102850000D03*
X110200000Y-124700000D03*
%TO.N,USB_D+*%
X119500000Y-101800000D03*
X110998231Y-124753215D03*
%TO.N,P0.09{slash}NFC1*%
X103233563Y-99005778D03*
X111920000Y-95400000D03*
%TO.N,P1.00_PDM_CLK*%
X115201000Y-95775225D03*
%TO.N,P0.16_PDM_DATA*%
X116400000Y-101050000D03*
%TO.N,P0.22_QSPI_SIO_2*%
X115913397Y-98061927D03*
%TO.N,SWDCLK*%
X105326473Y-98125000D03*
X113200000Y-95850000D03*
%TO.N,SWDIO*%
X103851838Y-98405778D03*
X114000000Y-95850000D03*
%TO.N,P0.20_QSPI_SIO_0*%
X117014316Y-97152690D03*
%TO.N,P0.23_QSPI_SIO_3*%
X114344387Y-107693027D03*
%TO.N,P0.24_QSPI_SIO_1*%
X115797571Y-96308242D03*
%TO.N,P0.21_QSPI_SCK*%
X105070000Y-109160000D03*
%TO.N,P0.25_QSPI_CSN*%
X115272239Y-107425000D03*
%TO.N,P0.10{slash}NFC2*%
X111791932Y-94610316D03*
%TO.N,GND*%
X103700000Y-111930948D03*
X106850000Y-109650000D03*
X109041587Y-108000233D03*
X106950000Y-112250000D03*
X116190000Y-93140000D03*
X117850000Y-106450000D03*
X120630000Y-112410000D03*
X108800000Y-91000000D03*
X105500000Y-108300000D03*
X108650000Y-121450000D03*
X104091000Y-104146627D03*
X109450000Y-119800000D03*
X105600000Y-118900000D03*
X113640000Y-93840000D03*
X102950000Y-94250000D03*
X116000000Y-94750000D03*
X108750000Y-94000000D03*
X112200000Y-91150000D03*
X113350000Y-121500000D03*
X123160000Y-105130000D03*
X118450000Y-115550000D03*
X106080000Y-92050000D03*
X114800000Y-122050000D03*
X108700000Y-116750000D03*
X120100000Y-118450000D03*
X116500000Y-100000000D03*
X112675000Y-89675000D03*
X108750000Y-92600000D03*
X107300000Y-99350000D03*
X114900000Y-110950000D03*
X112200000Y-92650000D03*
X118550000Y-104250000D03*
X114900000Y-117700000D03*
X107169669Y-122180331D03*
X106600000Y-101950000D03*
X105800000Y-95200000D03*
%TD*%
D20*
%TO.N,3V3*%
X104235707Y-106495707D02*
X101750000Y-104010000D01*
X112400000Y-114300000D02*
X113100000Y-115000000D01*
X105850000Y-117550000D02*
X109100000Y-114300000D01*
X112960000Y-113740000D02*
X112400000Y-114300000D01*
X113100000Y-115600000D02*
X113100000Y-115000000D01*
X113850000Y-116350000D02*
X113100000Y-115600000D01*
X109100000Y-114300000D02*
X112400000Y-114300000D01*
X104235707Y-107175707D02*
X104235707Y-106495707D01*
X104100000Y-117550000D02*
X105850000Y-117550000D01*
D21*
X99790000Y-106830000D02*
X99970000Y-106830000D01*
D20*
%TO.N,VBUS*%
X115000000Y-109650000D02*
X114149000Y-110501000D01*
X114149000Y-110501000D02*
X114149000Y-114100744D01*
X114149000Y-114100744D02*
X114629923Y-114581667D01*
D21*
%TO.N,RESET*%
X119710000Y-95050000D02*
X118980000Y-95050000D01*
X102300000Y-115249943D02*
X102300000Y-120900000D01*
X105780000Y-109680000D02*
X105300000Y-110160000D01*
X122540000Y-102310000D02*
X122540000Y-99320000D01*
X122540000Y-99320000D02*
X122540000Y-97880000D01*
X121380000Y-105735630D02*
X121380000Y-103470000D01*
X121380000Y-103470000D02*
X122540000Y-102310000D01*
X105300000Y-110160000D02*
X105300000Y-112249943D01*
X105300000Y-112249943D02*
X102300000Y-115249943D01*
X118587815Y-108527815D02*
X121380000Y-105735630D01*
X122540000Y-97880000D02*
X119710000Y-95050000D01*
%TO.N,Net-(U1-DEC1)*%
X107300000Y-105050000D02*
X106550000Y-104300000D01*
X106550000Y-104300000D02*
X106550000Y-103900000D01*
%TO.N,P0.31_AIN7_BAT*%
X107100000Y-100800000D02*
X110700000Y-100800000D01*
X114600000Y-96900000D02*
X115600000Y-96900000D01*
X118200000Y-99500000D02*
X120400000Y-99500000D01*
X110700000Y-100800000D02*
X114600000Y-96900000D01*
X115600000Y-96900000D02*
X118200000Y-99500000D01*
%TO.N,INTERNAL_I2C_SCL*%
X110580000Y-104930000D02*
X110580000Y-104337100D01*
X101640000Y-97750000D02*
X100050000Y-97750000D01*
X110580000Y-104337100D02*
X109253900Y-103011000D01*
X103640742Y-100830000D02*
X102229000Y-99418258D01*
X103672900Y-100830000D02*
X103640742Y-100830000D01*
X105853900Y-103011000D02*
X103672900Y-100830000D01*
X102229000Y-98339000D02*
X101640000Y-97750000D01*
X109253900Y-103011000D02*
X105853900Y-103011000D01*
X102229000Y-99418258D02*
X102229000Y-98339000D01*
%TO.N,INTERNAL_I2C_SDA*%
X111800000Y-104990000D02*
X109420000Y-102610000D01*
X109420000Y-102610000D02*
X106020000Y-102610000D01*
X102630000Y-99252158D02*
X102630000Y-97850000D01*
X102630000Y-97850000D02*
X101260000Y-96480000D01*
X103016778Y-99606778D02*
X102984620Y-99606778D01*
X111800000Y-105070000D02*
X111800000Y-104990000D01*
X101260000Y-96480000D02*
X100050000Y-96480000D01*
X102984620Y-99606778D02*
X102630000Y-99252158D01*
X106020000Y-102610000D02*
X103016778Y-99606778D01*
%TO.N,USB_D-*%
X116500000Y-118100000D02*
X116500000Y-109200000D01*
X114800000Y-119800000D02*
X116500000Y-118100000D01*
X110200000Y-124700000D02*
X110200000Y-121950000D01*
X120000000Y-105700000D02*
X120000000Y-103350000D01*
X112350000Y-119800000D02*
X114800000Y-119800000D01*
X116500000Y-109200000D02*
X120000000Y-105700000D01*
X110200000Y-121950000D02*
X112350000Y-119800000D01*
X120000000Y-103350000D02*
X119500000Y-102850000D01*
%TO.N,USB_D+*%
X120401000Y-102701000D02*
X119500000Y-101800000D01*
X110601000Y-122116100D02*
X112516100Y-120201000D01*
X110998231Y-124447231D02*
X110601000Y-124050000D01*
X112516100Y-120201000D02*
X114966100Y-120201000D01*
X120401000Y-105866100D02*
X120401000Y-102701000D01*
X116901000Y-109366100D02*
X120401000Y-105866100D01*
X110601000Y-124050000D02*
X110601000Y-122116100D01*
X110998231Y-124753215D02*
X110998231Y-124447231D01*
X114966100Y-120201000D02*
X116901000Y-118266100D01*
X116901000Y-118266100D02*
X116901000Y-109366100D01*
%TO.N,P0.09{slash}NFC1*%
X105330057Y-95830000D02*
X106710000Y-95830000D01*
X106710000Y-95830000D02*
X107140000Y-95400000D01*
X107140000Y-95400000D02*
X111920000Y-95400000D01*
X103730028Y-97430028D02*
X105330057Y-95830000D01*
X103233563Y-97926493D02*
X103730028Y-97430028D01*
X103233563Y-99005778D02*
X103233563Y-97926493D01*
%TO.N,P1.00_PDM_CLK*%
X121780000Y-100360000D02*
X121020000Y-101120000D01*
X115268983Y-95707242D02*
X119787242Y-95707242D01*
X116801000Y-102630000D02*
X116801000Y-103616043D01*
X119787242Y-95707242D02*
X121780000Y-97700000D01*
X107123900Y-106331000D02*
X106025450Y-105232550D01*
X115201000Y-95775225D02*
X115268983Y-95707242D01*
X121780000Y-97700000D02*
X121780000Y-100360000D01*
X101082900Y-100290000D02*
X100050000Y-100290000D01*
X106025450Y-105232550D02*
X106025450Y-105225450D01*
X106025450Y-105225450D02*
X105198550Y-104398550D01*
X121020000Y-101120000D02*
X118311000Y-101120000D01*
X105198550Y-104398550D02*
X105191450Y-104398550D01*
X118311000Y-101120000D02*
X116801000Y-102630000D01*
X114086043Y-106331000D02*
X107123900Y-106331000D01*
X105191450Y-104398550D02*
X101082900Y-100290000D01*
X116801000Y-103616043D02*
X114086043Y-106331000D01*
%TO.N,P0.16_PDM_DATA*%
X105200000Y-103517100D02*
X106426450Y-104743550D01*
X101380000Y-99620000D02*
X100650000Y-99620000D01*
X113919943Y-105930000D02*
X107290000Y-105930000D01*
X116400000Y-103449943D02*
X113919943Y-105930000D01*
X105200000Y-103440000D02*
X105200000Y-103517100D01*
X116400000Y-101050000D02*
X116400000Y-103449943D01*
X105200000Y-103440000D02*
X101380000Y-99620000D01*
X107290000Y-105930000D02*
X106426450Y-105066450D01*
X106426450Y-104743550D02*
X106426450Y-105066450D01*
X100650000Y-99620000D02*
X100050000Y-99020000D01*
%TO.N,SWDCLK*%
X111230000Y-97820000D02*
X113200000Y-95850000D01*
X105631473Y-97820000D02*
X111230000Y-97820000D01*
X105326473Y-98125000D02*
X105631473Y-97820000D01*
%TO.N,SWDIO*%
X104195752Y-98405778D02*
X105182530Y-97419000D01*
X114000000Y-95800057D02*
X114000000Y-95850000D01*
X103851838Y-98405778D02*
X104195752Y-98405778D01*
X113448943Y-95249000D02*
X114000000Y-95800057D01*
X112951057Y-95249000D02*
X113448943Y-95249000D01*
X110781057Y-97419000D02*
X112951057Y-95249000D01*
X105182530Y-97419000D02*
X110781057Y-97419000D01*
D22*
%TO.N,P0.23_QSPI_SIO_3*%
X103044588Y-109180000D02*
X100050000Y-109180000D01*
X114344387Y-107693027D02*
X111706027Y-107693027D01*
X110720000Y-106707000D02*
X105517588Y-106707000D01*
X105517588Y-106707000D02*
X103044588Y-109180000D01*
X111706027Y-107693027D02*
X110720000Y-106707000D01*
%TO.N,P0.21_QSPI_SCK*%
X105070000Y-109160000D02*
X104057364Y-109160000D01*
X101497364Y-111720000D02*
X100050000Y-111720000D01*
X104057364Y-109160000D02*
X101497364Y-111720000D01*
%TO.N,P0.25_QSPI_CSN*%
X111785639Y-108269027D02*
X110574612Y-107058000D01*
X115272239Y-107579763D02*
X114582975Y-108269027D01*
X102270976Y-110450000D02*
X100050000Y-110450000D01*
X105662976Y-107058000D02*
X102270976Y-110450000D01*
X115272239Y-107425000D02*
X115272239Y-107579763D01*
X110574612Y-107058000D02*
X105662976Y-107058000D01*
X114582975Y-108269027D02*
X111785639Y-108269027D01*
D21*
%TO.N,P0.10{slash}NFC2*%
X103198943Y-94851000D02*
X101293000Y-94851000D01*
X99249000Y-94409000D02*
X98980000Y-94678000D01*
X98980000Y-104300000D02*
X100050000Y-105370000D01*
X108070000Y-94999000D02*
X107670000Y-94599000D01*
X111791932Y-94610316D02*
X111780616Y-94599000D01*
X111791932Y-94610316D02*
X111403248Y-94999000D01*
X103450943Y-94599000D02*
X103198943Y-94851000D01*
X101293000Y-94851000D02*
X100851000Y-94409000D01*
X107670000Y-94599000D02*
X103450943Y-94599000D01*
X98980000Y-94678000D02*
X98980000Y-104300000D01*
X100851000Y-94409000D02*
X99249000Y-94409000D01*
X111403248Y-94999000D02*
X108070000Y-94999000D01*
%TD*%
%TA.AperFunction,Conductor*%
%TO.N,GND*%
G36*
X124792539Y-89169685D02*
G01*
X124838294Y-89222489D01*
X124849500Y-89274000D01*
X124849500Y-127496948D01*
X124849351Y-127503033D01*
X124831743Y-127861432D01*
X124830550Y-127873542D01*
X124778347Y-128225467D01*
X124775973Y-128237402D01*
X124689526Y-128582518D01*
X124685994Y-128594162D01*
X124580142Y-128890000D01*
X124566142Y-128929127D01*
X124561485Y-128940370D01*
X124409366Y-129262000D01*
X124403629Y-129272732D01*
X124220729Y-129577881D01*
X124213969Y-129587999D01*
X124002028Y-129873769D01*
X123994308Y-129883175D01*
X123755388Y-130146783D01*
X123746783Y-130155388D01*
X123483175Y-130394308D01*
X123473769Y-130402028D01*
X123187999Y-130613969D01*
X123177881Y-130620729D01*
X122872732Y-130803629D01*
X122862000Y-130809366D01*
X122540370Y-130961485D01*
X122529134Y-130966139D01*
X122405442Y-131010397D01*
X122194162Y-131085994D01*
X122182518Y-131089526D01*
X121837402Y-131175973D01*
X121825467Y-131178347D01*
X121473542Y-131230550D01*
X121461432Y-131231743D01*
X121123927Y-131248324D01*
X121103031Y-131249351D01*
X121096949Y-131249500D01*
X102303051Y-131249500D01*
X102296968Y-131249351D01*
X102274856Y-131248264D01*
X101938567Y-131231743D01*
X101926457Y-131230550D01*
X101574532Y-131178347D01*
X101562597Y-131175973D01*
X101217481Y-131089526D01*
X101205837Y-131085994D01*
X100870858Y-130966136D01*
X100859629Y-130961485D01*
X100537999Y-130809366D01*
X100527272Y-130803631D01*
X100222118Y-130620729D01*
X100212000Y-130613969D01*
X99926230Y-130402028D01*
X99916824Y-130394308D01*
X99722650Y-130218319D01*
X99653209Y-130155381D01*
X99644618Y-130146790D01*
X99405691Y-129883175D01*
X99397971Y-129873769D01*
X99186030Y-129587999D01*
X99179270Y-129577881D01*
X99118316Y-129476185D01*
X98996363Y-129272720D01*
X98990639Y-129262012D01*
X98838511Y-128940363D01*
X98833867Y-128929151D01*
X98714000Y-128594147D01*
X98710473Y-128582518D01*
X98624023Y-128237389D01*
X98621652Y-128225467D01*
X98569449Y-127873542D01*
X98568257Y-127861439D01*
X98567917Y-127854527D01*
X98567917Y-127854525D01*
X98567916Y-127854523D01*
X98567816Y-127852486D01*
X99519500Y-127852486D01*
X99519500Y-128147513D01*
X99531335Y-128237402D01*
X99558007Y-128439993D01*
X99629228Y-128705796D01*
X99634361Y-128724951D01*
X99634364Y-128724961D01*
X99747254Y-128997500D01*
X99747258Y-128997510D01*
X99894761Y-129252993D01*
X100074352Y-129487040D01*
X100074358Y-129487047D01*
X100282952Y-129695641D01*
X100282959Y-129695647D01*
X100517006Y-129875238D01*
X100772489Y-130022741D01*
X100772490Y-130022741D01*
X100772493Y-130022743D01*
X101045048Y-130135639D01*
X101330007Y-130211993D01*
X101622494Y-130250500D01*
X101622501Y-130250500D01*
X101917499Y-130250500D01*
X101917506Y-130250500D01*
X102209993Y-130211993D01*
X102494952Y-130135639D01*
X102767507Y-130022743D01*
X103022994Y-129875238D01*
X103257042Y-129695646D01*
X103465646Y-129487042D01*
X103645238Y-129252994D01*
X103792743Y-128997507D01*
X103905639Y-128724952D01*
X103981993Y-128439993D01*
X104020500Y-128147506D01*
X104020500Y-127852494D01*
X103999964Y-127696512D01*
X103999305Y-127691504D01*
X105660000Y-127691504D01*
X105660000Y-127940000D01*
X106360000Y-127940000D01*
X106360000Y-128440000D01*
X105660000Y-128440000D01*
X105660000Y-128688495D01*
X105698427Y-128881681D01*
X105698430Y-128881693D01*
X105773807Y-129063671D01*
X105773814Y-129063684D01*
X105883248Y-129227462D01*
X105883251Y-129227466D01*
X106022533Y-129366748D01*
X106022537Y-129366751D01*
X106186315Y-129476185D01*
X106186328Y-129476192D01*
X106368308Y-129551569D01*
X106410000Y-129559862D01*
X106410000Y-128756988D01*
X106419940Y-128774205D01*
X106475795Y-128830060D01*
X106544204Y-128869556D01*
X106620504Y-128890000D01*
X106699496Y-128890000D01*
X106775796Y-128869556D01*
X106844205Y-128830060D01*
X106900060Y-128774205D01*
X106910000Y-128756988D01*
X106910000Y-129559862D01*
X106951690Y-129551569D01*
X106951692Y-129551569D01*
X107133671Y-129476192D01*
X107133684Y-129476185D01*
X107297462Y-129366751D01*
X107297466Y-129366748D01*
X107436748Y-129227466D01*
X107436751Y-129227462D01*
X107546185Y-129063684D01*
X107546192Y-129063671D01*
X107621569Y-128881693D01*
X107621572Y-128881681D01*
X107659999Y-128688495D01*
X107660000Y-128688492D01*
X107660000Y-128440000D01*
X106960000Y-128440000D01*
X106960000Y-127940000D01*
X107660000Y-127940000D01*
X107660000Y-127691508D01*
X107659999Y-127691504D01*
X114300000Y-127691504D01*
X114300000Y-127940000D01*
X115000000Y-127940000D01*
X115000000Y-128440000D01*
X114300000Y-128440000D01*
X114300000Y-128688495D01*
X114338427Y-128881681D01*
X114338430Y-128881693D01*
X114413807Y-129063671D01*
X114413814Y-129063684D01*
X114523248Y-129227462D01*
X114523251Y-129227466D01*
X114662533Y-129366748D01*
X114662537Y-129366751D01*
X114826315Y-129476185D01*
X114826328Y-129476192D01*
X115008308Y-129551569D01*
X115050000Y-129559862D01*
X115050000Y-128756988D01*
X115059940Y-128774205D01*
X115115795Y-128830060D01*
X115184204Y-128869556D01*
X115260504Y-128890000D01*
X115339496Y-128890000D01*
X115415796Y-128869556D01*
X115484205Y-128830060D01*
X115540060Y-128774205D01*
X115550000Y-128756988D01*
X115550000Y-129559862D01*
X115591690Y-129551569D01*
X115591692Y-129551569D01*
X115773671Y-129476192D01*
X115773684Y-129476185D01*
X115937462Y-129366751D01*
X115937466Y-129366748D01*
X116076748Y-129227466D01*
X116076751Y-129227462D01*
X116186185Y-129063684D01*
X116186192Y-129063671D01*
X116261569Y-128881693D01*
X116261572Y-128881681D01*
X116299999Y-128688495D01*
X116300000Y-128688492D01*
X116300000Y-128440000D01*
X115600000Y-128440000D01*
X115600000Y-127940000D01*
X116300000Y-127940000D01*
X116300000Y-127852486D01*
X119449500Y-127852486D01*
X119449500Y-128147513D01*
X119461335Y-128237402D01*
X119488007Y-128439993D01*
X119559228Y-128705796D01*
X119564361Y-128724951D01*
X119564364Y-128724961D01*
X119677254Y-128997500D01*
X119677258Y-128997510D01*
X119824761Y-129252993D01*
X120004352Y-129487040D01*
X120004358Y-129487047D01*
X120212952Y-129695641D01*
X120212959Y-129695647D01*
X120447006Y-129875238D01*
X120702489Y-130022741D01*
X120702490Y-130022741D01*
X120702493Y-130022743D01*
X120975048Y-130135639D01*
X121260007Y-130211993D01*
X121552494Y-130250500D01*
X121552501Y-130250500D01*
X121847499Y-130250500D01*
X121847506Y-130250500D01*
X122139993Y-130211993D01*
X122424952Y-130135639D01*
X122697507Y-130022743D01*
X122952994Y-129875238D01*
X123187042Y-129695646D01*
X123395646Y-129487042D01*
X123575238Y-129252994D01*
X123722743Y-128997507D01*
X123835639Y-128724952D01*
X123911993Y-128439993D01*
X123950500Y-128147506D01*
X123950500Y-127852494D01*
X123911993Y-127560007D01*
X123835639Y-127275048D01*
X123722743Y-127002493D01*
X123622247Y-126828429D01*
X123575238Y-126747006D01*
X123395647Y-126512959D01*
X123395641Y-126512952D01*
X123187047Y-126304358D01*
X123187040Y-126304352D01*
X122952993Y-126124761D01*
X122697510Y-125977258D01*
X122697500Y-125977254D01*
X122424961Y-125864364D01*
X122424954Y-125864362D01*
X122424952Y-125864361D01*
X122139993Y-125788007D01*
X122091113Y-125781571D01*
X121847513Y-125749500D01*
X121847506Y-125749500D01*
X121552494Y-125749500D01*
X121552486Y-125749500D01*
X121274085Y-125786153D01*
X121260007Y-125788007D01*
X120975048Y-125864361D01*
X120975038Y-125864364D01*
X120702499Y-125977254D01*
X120702489Y-125977258D01*
X120447006Y-126124761D01*
X120212959Y-126304352D01*
X120212952Y-126304358D01*
X120004358Y-126512952D01*
X120004352Y-126512959D01*
X119824761Y-126747006D01*
X119677258Y-127002489D01*
X119677254Y-127002499D01*
X119564364Y-127275038D01*
X119564361Y-127275048D01*
X119490705Y-127549940D01*
X119488008Y-127560004D01*
X119488006Y-127560015D01*
X119449500Y-127852486D01*
X116300000Y-127852486D01*
X116300000Y-127691508D01*
X116299999Y-127691504D01*
X116261572Y-127498318D01*
X116261569Y-127498306D01*
X116186192Y-127316328D01*
X116186185Y-127316315D01*
X116076751Y-127152537D01*
X116076748Y-127152533D01*
X115937466Y-127013251D01*
X115937462Y-127013248D01*
X115773684Y-126903814D01*
X115773671Y-126903807D01*
X115591691Y-126828429D01*
X115591683Y-126828427D01*
X115550000Y-126820135D01*
X115550000Y-127623011D01*
X115540060Y-127605795D01*
X115484205Y-127549940D01*
X115415796Y-127510444D01*
X115339496Y-127490000D01*
X115260504Y-127490000D01*
X115184204Y-127510444D01*
X115115795Y-127549940D01*
X115059940Y-127605795D01*
X115050000Y-127623011D01*
X115050000Y-126820136D01*
X115049999Y-126820135D01*
X115008316Y-126828427D01*
X115008308Y-126828429D01*
X114826328Y-126903807D01*
X114826315Y-126903814D01*
X114662537Y-127013248D01*
X114662533Y-127013251D01*
X114523251Y-127152533D01*
X114523248Y-127152537D01*
X114413814Y-127316315D01*
X114413807Y-127316328D01*
X114338430Y-127498306D01*
X114338427Y-127498318D01*
X114300000Y-127691504D01*
X107659999Y-127691504D01*
X107621572Y-127498318D01*
X107621569Y-127498306D01*
X107546192Y-127316328D01*
X107546185Y-127316315D01*
X107436751Y-127152537D01*
X107436748Y-127152533D01*
X107297466Y-127013251D01*
X107297462Y-127013248D01*
X107133684Y-126903814D01*
X107133671Y-126903807D01*
X106951691Y-126828429D01*
X106951683Y-126828427D01*
X106910000Y-126820135D01*
X106910000Y-127623011D01*
X106900060Y-127605795D01*
X106844205Y-127549940D01*
X106775796Y-127510444D01*
X106699496Y-127490000D01*
X106620504Y-127490000D01*
X106544204Y-127510444D01*
X106475795Y-127549940D01*
X106419940Y-127605795D01*
X106410000Y-127623011D01*
X106410000Y-126820136D01*
X106409999Y-126820135D01*
X106368316Y-126828427D01*
X106368308Y-126828429D01*
X106186328Y-126903807D01*
X106186315Y-126903814D01*
X106022537Y-127013248D01*
X106022533Y-127013251D01*
X105883251Y-127152533D01*
X105883248Y-127152537D01*
X105773814Y-127316315D01*
X105773807Y-127316328D01*
X105698430Y-127498306D01*
X105698427Y-127498318D01*
X105660000Y-127691504D01*
X103999305Y-127691504D01*
X103988021Y-127605795D01*
X103981993Y-127560007D01*
X103905639Y-127275048D01*
X103792743Y-127002493D01*
X103692247Y-126828429D01*
X103645238Y-126747006D01*
X103465647Y-126512959D01*
X103465641Y-126512952D01*
X103257047Y-126304358D01*
X103257040Y-126304352D01*
X103022993Y-126124761D01*
X102767510Y-125977258D01*
X102767500Y-125977254D01*
X102494961Y-125864364D01*
X102494954Y-125864362D01*
X102494952Y-125864361D01*
X102209993Y-125788007D01*
X102161113Y-125781571D01*
X101917513Y-125749500D01*
X101917506Y-125749500D01*
X101622494Y-125749500D01*
X101622486Y-125749500D01*
X101344085Y-125786153D01*
X101330007Y-125788007D01*
X101045048Y-125864361D01*
X101045038Y-125864364D01*
X100772499Y-125977254D01*
X100772489Y-125977258D01*
X100517006Y-126124761D01*
X100282959Y-126304352D01*
X100282952Y-126304358D01*
X100074358Y-126512952D01*
X100074352Y-126512959D01*
X99894761Y-126747006D01*
X99747258Y-127002489D01*
X99747254Y-127002499D01*
X99634364Y-127275038D01*
X99634361Y-127275048D01*
X99560705Y-127549940D01*
X99558008Y-127560004D01*
X99558006Y-127560015D01*
X99519500Y-127852486D01*
X98567816Y-127852486D01*
X98550649Y-127503032D01*
X98550500Y-127496948D01*
X98550500Y-127445417D01*
X98550432Y-127444666D01*
X98545501Y-123361504D01*
X105660000Y-123361504D01*
X105660000Y-123760000D01*
X106360000Y-123760000D01*
X106360000Y-124260000D01*
X105660000Y-124260000D01*
X105660000Y-124658495D01*
X105698427Y-124851681D01*
X105698430Y-124851693D01*
X105773807Y-125033671D01*
X105773814Y-125033684D01*
X105883248Y-125197462D01*
X105883251Y-125197466D01*
X106022533Y-125336748D01*
X106022537Y-125336751D01*
X106186315Y-125446185D01*
X106186328Y-125446192D01*
X106368308Y-125521569D01*
X106410000Y-125529862D01*
X106410000Y-124726988D01*
X106419940Y-124744205D01*
X106475795Y-124800060D01*
X106544204Y-124839556D01*
X106620504Y-124860000D01*
X106699496Y-124860000D01*
X106775796Y-124839556D01*
X106844205Y-124800060D01*
X106900060Y-124744205D01*
X106910000Y-124726988D01*
X106910000Y-125529862D01*
X106951690Y-125521569D01*
X106951692Y-125521569D01*
X107133671Y-125446192D01*
X107133684Y-125446185D01*
X107297462Y-125336751D01*
X107297466Y-125336748D01*
X107436748Y-125197466D01*
X107436751Y-125197462D01*
X107546185Y-125033684D01*
X107546187Y-125033680D01*
X107592942Y-124920802D01*
X107636783Y-124866399D01*
X107703077Y-124844333D01*
X107770776Y-124861612D01*
X107795185Y-124880573D01*
X107801106Y-124886494D01*
X107908394Y-124948436D01*
X108028057Y-124980500D01*
X108028060Y-124980500D01*
X108151940Y-124980500D01*
X108151943Y-124980500D01*
X108271606Y-124948436D01*
X108378894Y-124886494D01*
X108466494Y-124798894D01*
X108528436Y-124691606D01*
X108560500Y-124571943D01*
X108560500Y-124448057D01*
X108528436Y-124328394D01*
X108466494Y-124221106D01*
X108378894Y-124133506D01*
X108271606Y-124071564D01*
X108271607Y-124071564D01*
X108241690Y-124063548D01*
X108151943Y-124039500D01*
X108028057Y-124039500D01*
X107938309Y-124063548D01*
X107908393Y-124071564D01*
X107801107Y-124133505D01*
X107801104Y-124133507D01*
X107710931Y-124223681D01*
X107649608Y-124257166D01*
X107623250Y-124260000D01*
X106960000Y-124260000D01*
X106960000Y-123760000D01*
X107660000Y-123760000D01*
X107660000Y-123361508D01*
X107659999Y-123361504D01*
X107621572Y-123168318D01*
X107621569Y-123168306D01*
X107546192Y-122986328D01*
X107546185Y-122986315D01*
X107436751Y-122822537D01*
X107436748Y-122822533D01*
X107297466Y-122683251D01*
X107297462Y-122683248D01*
X107133684Y-122573814D01*
X107133671Y-122573807D01*
X106951691Y-122498429D01*
X106951683Y-122498427D01*
X106910000Y-122490135D01*
X106910000Y-123293011D01*
X106900060Y-123275795D01*
X106844205Y-123219940D01*
X106775796Y-123180444D01*
X106699496Y-123160000D01*
X106620504Y-123160000D01*
X106544204Y-123180444D01*
X106475795Y-123219940D01*
X106419940Y-123275795D01*
X106410000Y-123293011D01*
X106410000Y-122490136D01*
X106409999Y-122490135D01*
X106368316Y-122498427D01*
X106368308Y-122498429D01*
X106186328Y-122573807D01*
X106186315Y-122573814D01*
X106022537Y-122683248D01*
X106022533Y-122683251D01*
X105883251Y-122822533D01*
X105883248Y-122822537D01*
X105773814Y-122986315D01*
X105773807Y-122986328D01*
X105698430Y-123168306D01*
X105698427Y-123168318D01*
X105660000Y-123361504D01*
X98545501Y-123361504D01*
X98538618Y-117662572D01*
X99540979Y-117662572D01*
X99576328Y-117686192D01*
X99758306Y-117761569D01*
X99758318Y-117761572D01*
X99951504Y-117799999D01*
X99951508Y-117800000D01*
X100148492Y-117800000D01*
X100148495Y-117799999D01*
X100341681Y-117761572D01*
X100341693Y-117761569D01*
X100523676Y-117686190D01*
X100523680Y-117686187D01*
X100559019Y-117662573D01*
X100559020Y-117662572D01*
X100050001Y-117153553D01*
X100050000Y-117153553D01*
X99540979Y-117662572D01*
X98538618Y-117662572D01*
X98523316Y-104992062D01*
X98542920Y-104925000D01*
X98595668Y-104879181D01*
X98664815Y-104869154D01*
X98728405Y-104898102D01*
X98734997Y-104904232D01*
X99013181Y-105182416D01*
X99046666Y-105243739D01*
X99049500Y-105270097D01*
X99049500Y-105271459D01*
X99049500Y-105468541D01*
X99049500Y-105468543D01*
X99049499Y-105468543D01*
X99087947Y-105661829D01*
X99087950Y-105661839D01*
X99163365Y-105843907D01*
X99163368Y-105843914D01*
X99207352Y-105909740D01*
X99224971Y-105936110D01*
X99245848Y-106002787D01*
X99227363Y-106070167D01*
X99224971Y-106073890D01*
X99163368Y-106166086D01*
X99163366Y-106166087D01*
X99087950Y-106348160D01*
X99087947Y-106348170D01*
X99049500Y-106541456D01*
X99049500Y-106541459D01*
X99049500Y-106738541D01*
X99049500Y-106738543D01*
X99049499Y-106738543D01*
X99087947Y-106931829D01*
X99087950Y-106931839D01*
X99158816Y-107102925D01*
X99163368Y-107113914D01*
X99196804Y-107163955D01*
X99225271Y-107206559D01*
X99246148Y-107273236D01*
X99227663Y-107340616D01*
X99225271Y-107344339D01*
X99163809Y-107436325D01*
X99088430Y-107618306D01*
X99088427Y-107618318D01*
X99050000Y-107811504D01*
X99050000Y-108008495D01*
X99088427Y-108201681D01*
X99088430Y-108201693D01*
X99163807Y-108383671D01*
X99163814Y-108383684D01*
X99225270Y-108475659D01*
X99246148Y-108542337D01*
X99227663Y-108609717D01*
X99225271Y-108613440D01*
X99163370Y-108706082D01*
X99163364Y-108706093D01*
X99087950Y-108888160D01*
X99087947Y-108888170D01*
X99049500Y-109081456D01*
X99049500Y-109081459D01*
X99049500Y-109278541D01*
X99049500Y-109278543D01*
X99049499Y-109278543D01*
X99087947Y-109471829D01*
X99087950Y-109471839D01*
X99151768Y-109625909D01*
X99163368Y-109653914D01*
X99178262Y-109676204D01*
X99224971Y-109746110D01*
X99245848Y-109812787D01*
X99227363Y-109880167D01*
X99224971Y-109883890D01*
X99163366Y-109976089D01*
X99087950Y-110158160D01*
X99087947Y-110158170D01*
X99049500Y-110351456D01*
X99049500Y-110351459D01*
X99049500Y-110548541D01*
X99049500Y-110548543D01*
X99049499Y-110548543D01*
X99087947Y-110741829D01*
X99087950Y-110741839D01*
X99155269Y-110904362D01*
X99163368Y-110923914D01*
X99190627Y-110964710D01*
X99224971Y-111016110D01*
X99245848Y-111082787D01*
X99227363Y-111150167D01*
X99224971Y-111153890D01*
X99163366Y-111246089D01*
X99087950Y-111428160D01*
X99087947Y-111428170D01*
X99049500Y-111621456D01*
X99049500Y-111621459D01*
X99049500Y-111818541D01*
X99049500Y-111818543D01*
X99049499Y-111818543D01*
X99087947Y-112011829D01*
X99087950Y-112011839D01*
X99157818Y-112180515D01*
X99163368Y-112193914D01*
X99205040Y-112256280D01*
X99224971Y-112286110D01*
X99245848Y-112352787D01*
X99227363Y-112420167D01*
X99224971Y-112423890D01*
X99163366Y-112516089D01*
X99087950Y-112698160D01*
X99087947Y-112698170D01*
X99049500Y-112891456D01*
X99049500Y-112891459D01*
X99049500Y-113088541D01*
X99049500Y-113088543D01*
X99049499Y-113088543D01*
X99087947Y-113281829D01*
X99087950Y-113281839D01*
X99163319Y-113463796D01*
X99163368Y-113463914D01*
X99201387Y-113520814D01*
X99224971Y-113556110D01*
X99245848Y-113622787D01*
X99227363Y-113690167D01*
X99224971Y-113693890D01*
X99163366Y-113786089D01*
X99087950Y-113968160D01*
X99087947Y-113968170D01*
X99049500Y-114161456D01*
X99049500Y-114161459D01*
X99049500Y-114358541D01*
X99049500Y-114358543D01*
X99049499Y-114358543D01*
X99087947Y-114551829D01*
X99087950Y-114551839D01*
X99163365Y-114733907D01*
X99163368Y-114733914D01*
X99207352Y-114799740D01*
X99224971Y-114826110D01*
X99245848Y-114892787D01*
X99227363Y-114960167D01*
X99224971Y-114963890D01*
X99163366Y-115056089D01*
X99087950Y-115238160D01*
X99087947Y-115238170D01*
X99049500Y-115431456D01*
X99049500Y-115431459D01*
X99049500Y-115628541D01*
X99049500Y-115628543D01*
X99049499Y-115628543D01*
X99087947Y-115821829D01*
X99087950Y-115821839D01*
X99149663Y-115970827D01*
X99163368Y-116003914D01*
X99200436Y-116059390D01*
X99225271Y-116096559D01*
X99246148Y-116163236D01*
X99227663Y-116230616D01*
X99225271Y-116234339D01*
X99163809Y-116326325D01*
X99088430Y-116508306D01*
X99088427Y-116508318D01*
X99050000Y-116701504D01*
X99050000Y-116898495D01*
X99088427Y-117091681D01*
X99088430Y-117091693D01*
X99163808Y-117273673D01*
X99163809Y-117273675D01*
X99187426Y-117309019D01*
X99725000Y-116771445D01*
X99725000Y-116842787D01*
X99747149Y-116925445D01*
X99789936Y-116999554D01*
X99850446Y-117060064D01*
X99924555Y-117102851D01*
X100007213Y-117125000D01*
X100092787Y-117125000D01*
X100175445Y-117102851D01*
X100249554Y-117060064D01*
X100310064Y-116999554D01*
X100352851Y-116925445D01*
X100375000Y-116842787D01*
X100375000Y-116771447D01*
X100912572Y-117309020D01*
X100912573Y-117309019D01*
X100936187Y-117273680D01*
X100936190Y-117273676D01*
X101011569Y-117091693D01*
X101011572Y-117091681D01*
X101049999Y-116898495D01*
X101050000Y-116898492D01*
X101050000Y-116701508D01*
X101049999Y-116701504D01*
X101011572Y-116508318D01*
X101011569Y-116508306D01*
X100936192Y-116326328D01*
X100936188Y-116326321D01*
X100874728Y-116234341D01*
X100853850Y-116167663D01*
X100872334Y-116100283D01*
X100874704Y-116096595D01*
X100936632Y-116003914D01*
X101012051Y-115821835D01*
X101024632Y-115758582D01*
X101050500Y-115628543D01*
X101050500Y-115431456D01*
X101012052Y-115238170D01*
X101012051Y-115238169D01*
X101012051Y-115238165D01*
X100997673Y-115203453D01*
X100936635Y-115056092D01*
X100936633Y-115056088D01*
X100936632Y-115056086D01*
X100932900Y-115050500D01*
X100875029Y-114963891D01*
X100854151Y-114897214D01*
X100872635Y-114829834D01*
X100875029Y-114826109D01*
X100912905Y-114769423D01*
X100936632Y-114733914D01*
X100946417Y-114710292D01*
X101000725Y-114579179D01*
X101012051Y-114551835D01*
X101030353Y-114459828D01*
X101050500Y-114358543D01*
X101050500Y-114161456D01*
X101012052Y-113968170D01*
X101012051Y-113968169D01*
X101012051Y-113968165D01*
X101012049Y-113968160D01*
X100936635Y-113786092D01*
X100936633Y-113786088D01*
X100936632Y-113786086D01*
X100875029Y-113693891D01*
X100854151Y-113627214D01*
X100872635Y-113559834D01*
X100875029Y-113556109D01*
X100901493Y-113516503D01*
X100936632Y-113463914D01*
X101012051Y-113281835D01*
X101042201Y-113130263D01*
X101050500Y-113088543D01*
X101050500Y-112891456D01*
X101012052Y-112698170D01*
X101012051Y-112698169D01*
X101012051Y-112698165D01*
X100979116Y-112618652D01*
X100936635Y-112516092D01*
X100936631Y-112516085D01*
X100918127Y-112488392D01*
X100897249Y-112421715D01*
X100915733Y-112354334D01*
X100967711Y-112307644D01*
X101021229Y-112295500D01*
X101573128Y-112295500D01*
X101573130Y-112295500D01*
X101719499Y-112256281D01*
X101850729Y-112180515D01*
X103491696Y-110539546D01*
X103553017Y-110506063D01*
X103622708Y-110511047D01*
X103678642Y-110552919D01*
X103687335Y-110569529D01*
X103688736Y-110568781D01*
X103691609Y-110574157D01*
X103779210Y-110705260D01*
X103779213Y-110705264D01*
X103890707Y-110816758D01*
X103890711Y-110816761D01*
X104021814Y-110904362D01*
X104021827Y-110904369D01*
X104167498Y-110964707D01*
X104167503Y-110964709D01*
X104281995Y-110987483D01*
X104322153Y-110995471D01*
X104322156Y-110995472D01*
X104322158Y-110995472D01*
X104479843Y-110995472D01*
X104496958Y-110992067D01*
X104551309Y-110981256D01*
X104620899Y-110987483D01*
X104676077Y-111030345D01*
X104699322Y-111096234D01*
X104699500Y-111102873D01*
X104699500Y-111949845D01*
X104679815Y-112016884D01*
X104663181Y-112037526D01*
X101819482Y-114881224D01*
X101819480Y-114881226D01*
X101819480Y-114881227D01*
X101773512Y-114960846D01*
X101773511Y-114960846D01*
X101740424Y-115018155D01*
X101740423Y-115018156D01*
X101730260Y-115056086D01*
X101699499Y-115170886D01*
X101699499Y-115170888D01*
X101699499Y-115338989D01*
X101699500Y-115339002D01*
X101699500Y-120320234D01*
X101679815Y-120387273D01*
X101678602Y-120389125D01*
X101590609Y-120520814D01*
X101590602Y-120520827D01*
X101530264Y-120666498D01*
X101530261Y-120666510D01*
X101499500Y-120821153D01*
X101499500Y-120978846D01*
X101530261Y-121133489D01*
X101530264Y-121133501D01*
X101590602Y-121279172D01*
X101590609Y-121279185D01*
X101678210Y-121410288D01*
X101678213Y-121410292D01*
X101789707Y-121521786D01*
X101789711Y-121521789D01*
X101920814Y-121609390D01*
X101920827Y-121609397D01*
X102037399Y-121657682D01*
X102066503Y-121669737D01*
X102182247Y-121692760D01*
X102221153Y-121700499D01*
X102221156Y-121700500D01*
X102221158Y-121700500D01*
X102378844Y-121700500D01*
X102378845Y-121700499D01*
X102533497Y-121669737D01*
X102679179Y-121609394D01*
X102810289Y-121521789D01*
X102921789Y-121410289D01*
X103009394Y-121279179D01*
X103069737Y-121133497D01*
X103100500Y-120978842D01*
X103100500Y-120921153D01*
X106849500Y-120921153D01*
X106849500Y-121078846D01*
X106880261Y-121233489D01*
X106880264Y-121233501D01*
X106940602Y-121379172D01*
X106940609Y-121379185D01*
X107028210Y-121510288D01*
X107028213Y-121510292D01*
X107139707Y-121621786D01*
X107139711Y-121621789D01*
X107270814Y-121709390D01*
X107270827Y-121709397D01*
X107316254Y-121728213D01*
X107416503Y-121769737D01*
X107571153Y-121800499D01*
X107571156Y-121800500D01*
X107571158Y-121800500D01*
X107728844Y-121800500D01*
X107728845Y-121800499D01*
X107883497Y-121769737D01*
X108029179Y-121709394D01*
X108160289Y-121621789D01*
X108271789Y-121510289D01*
X108359394Y-121379179D01*
X108419737Y-121233497D01*
X108450500Y-121078842D01*
X108450500Y-120921158D01*
X108450500Y-120921155D01*
X108450499Y-120921153D01*
X108434842Y-120842440D01*
X108419737Y-120766503D01*
X108404393Y-120729458D01*
X108359397Y-120620827D01*
X108359390Y-120620814D01*
X108271789Y-120489711D01*
X108271786Y-120489707D01*
X108160292Y-120378213D01*
X108160288Y-120378210D01*
X108029185Y-120290609D01*
X108029172Y-120290602D01*
X107883501Y-120230264D01*
X107883489Y-120230261D01*
X107728845Y-120199500D01*
X107728842Y-120199500D01*
X107571158Y-120199500D01*
X107571155Y-120199500D01*
X107416510Y-120230261D01*
X107416498Y-120230264D01*
X107270827Y-120290602D01*
X107270814Y-120290609D01*
X107139711Y-120378210D01*
X107139707Y-120378213D01*
X107028213Y-120489707D01*
X107028210Y-120489711D01*
X106940609Y-120620814D01*
X106940602Y-120620827D01*
X106880264Y-120766498D01*
X106880261Y-120766510D01*
X106849500Y-120921153D01*
X103100500Y-120921153D01*
X103100500Y-120821158D01*
X103100500Y-120821155D01*
X103100499Y-120821153D01*
X103089627Y-120766498D01*
X103069737Y-120666503D01*
X103025416Y-120559501D01*
X103009397Y-120520827D01*
X103009390Y-120520814D01*
X102921398Y-120389125D01*
X102900520Y-120322447D01*
X102900500Y-120320234D01*
X102900500Y-115550040D01*
X102920185Y-115483001D01*
X102936819Y-115462359D01*
X103278025Y-115121153D01*
X104598500Y-115121153D01*
X104598500Y-115278846D01*
X104629261Y-115433489D01*
X104629264Y-115433501D01*
X104689602Y-115579172D01*
X104689609Y-115579185D01*
X104777210Y-115710288D01*
X104777213Y-115710292D01*
X104888707Y-115821786D01*
X104888711Y-115821789D01*
X105019814Y-115909390D01*
X105019827Y-115909397D01*
X105165498Y-115969735D01*
X105165503Y-115969737D01*
X105320153Y-116000499D01*
X105320156Y-116000500D01*
X105320158Y-116000500D01*
X105477844Y-116000500D01*
X105477845Y-116000499D01*
X105632497Y-115969737D01*
X105778179Y-115909394D01*
X105909289Y-115821789D01*
X106020789Y-115710289D01*
X106108394Y-115579179D01*
X106168737Y-115433497D01*
X106199500Y-115278842D01*
X106199500Y-115121158D01*
X106199500Y-115121155D01*
X106199499Y-115121153D01*
X106193691Y-115091955D01*
X106168737Y-114966503D01*
X106133414Y-114881224D01*
X106108397Y-114820827D01*
X106108390Y-114820814D01*
X106020789Y-114689711D01*
X106020786Y-114689707D01*
X105909292Y-114578213D01*
X105909288Y-114578210D01*
X105778185Y-114490609D01*
X105778172Y-114490602D01*
X105632501Y-114430264D01*
X105632489Y-114430261D01*
X105477845Y-114399500D01*
X105477842Y-114399500D01*
X105320158Y-114399500D01*
X105320155Y-114399500D01*
X105165510Y-114430261D01*
X105165498Y-114430264D01*
X105019827Y-114490602D01*
X105019814Y-114490609D01*
X104888711Y-114578210D01*
X104888707Y-114578213D01*
X104777213Y-114689707D01*
X104777210Y-114689711D01*
X104689609Y-114820814D01*
X104689602Y-114820827D01*
X104629264Y-114966498D01*
X104629261Y-114966510D01*
X104598500Y-115121153D01*
X103278025Y-115121153D01*
X103371793Y-115027385D01*
X104578026Y-113821153D01*
X106049500Y-113821153D01*
X106049500Y-113978846D01*
X106080261Y-114133489D01*
X106080264Y-114133501D01*
X106140602Y-114279172D01*
X106140609Y-114279185D01*
X106228210Y-114410288D01*
X106228213Y-114410292D01*
X106339707Y-114521786D01*
X106339711Y-114521789D01*
X106470814Y-114609390D01*
X106470827Y-114609397D01*
X106594224Y-114660509D01*
X106616503Y-114669737D01*
X106771153Y-114700499D01*
X106771156Y-114700500D01*
X106771158Y-114700500D01*
X106928844Y-114700500D01*
X106928845Y-114700499D01*
X107083497Y-114669737D01*
X107229179Y-114609394D01*
X107360289Y-114521789D01*
X107471789Y-114410289D01*
X107559394Y-114279179D01*
X107619737Y-114133497D01*
X107650500Y-113978842D01*
X107650500Y-113821158D01*
X107650500Y-113821155D01*
X107650499Y-113821153D01*
X107650432Y-113820814D01*
X107619737Y-113666503D01*
X107606655Y-113634920D01*
X107559397Y-113520827D01*
X107559390Y-113520814D01*
X107471789Y-113389711D01*
X107471786Y-113389707D01*
X107360292Y-113278213D01*
X107360288Y-113278210D01*
X107229185Y-113190609D01*
X107229172Y-113190602D01*
X107083501Y-113130264D01*
X107083489Y-113130261D01*
X106928845Y-113099500D01*
X106928842Y-113099500D01*
X106771158Y-113099500D01*
X106771155Y-113099500D01*
X106616510Y-113130261D01*
X106616498Y-113130264D01*
X106470827Y-113190602D01*
X106470814Y-113190609D01*
X106339711Y-113278210D01*
X106339707Y-113278213D01*
X106228213Y-113389707D01*
X106228210Y-113389711D01*
X106140609Y-113520814D01*
X106140602Y-113520827D01*
X106080264Y-113666498D01*
X106080261Y-113666510D01*
X106049500Y-113821153D01*
X104578026Y-113821153D01*
X104671794Y-113727385D01*
X105208577Y-113190602D01*
X105780520Y-112618659D01*
X105859577Y-112481727D01*
X105900501Y-112329000D01*
X105900501Y-112170885D01*
X105900501Y-112163290D01*
X105900500Y-112163272D01*
X105900500Y-110573977D01*
X105920185Y-110506938D01*
X105972989Y-110461183D01*
X106000307Y-110452360D01*
X106013497Y-110449737D01*
X106159179Y-110389394D01*
X106290289Y-110301789D01*
X106401789Y-110190289D01*
X106489394Y-110059179D01*
X106491647Y-110053741D01*
X106549735Y-109913501D01*
X106549737Y-109913497D01*
X106580500Y-109758842D01*
X106580500Y-109601158D01*
X106580500Y-109601155D01*
X106580499Y-109601153D01*
X106575996Y-109578515D01*
X106549737Y-109446503D01*
X106543524Y-109431503D01*
X106489397Y-109300827D01*
X106489390Y-109300814D01*
X106401789Y-109169711D01*
X106401786Y-109169707D01*
X106290292Y-109058213D01*
X106290288Y-109058210D01*
X106159185Y-108970609D01*
X106159172Y-108970602D01*
X106013501Y-108910264D01*
X106013489Y-108910261D01*
X105881810Y-108884068D01*
X105819899Y-108851683D01*
X105791440Y-108809904D01*
X105779394Y-108780821D01*
X105779390Y-108780814D01*
X105691789Y-108649711D01*
X105691786Y-108649707D01*
X105580292Y-108538213D01*
X105580288Y-108538210D01*
X105449185Y-108450609D01*
X105449176Y-108450604D01*
X105362586Y-108414738D01*
X105308183Y-108370897D01*
X105286118Y-108304603D01*
X105303397Y-108236904D01*
X105322353Y-108212501D01*
X105865037Y-107669819D01*
X105926360Y-107636334D01*
X105952718Y-107633500D01*
X110284870Y-107633500D01*
X110351909Y-107653185D01*
X110372551Y-107669819D01*
X111325124Y-108622392D01*
X111432274Y-108729542D01*
X111563504Y-108805308D01*
X111709873Y-108844527D01*
X111709875Y-108844527D01*
X114374032Y-108844527D01*
X114441071Y-108864212D01*
X114486826Y-108917016D01*
X114496770Y-108986174D01*
X114467745Y-109049730D01*
X114461713Y-109056208D01*
X114363213Y-109154707D01*
X114363207Y-109154715D01*
X114275607Y-109285818D01*
X114275606Y-109285819D01*
X114265805Y-109309480D01*
X114238927Y-109349703D01*
X113566049Y-110022582D01*
X113566045Y-110022586D01*
X113532946Y-110072126D01*
X113532945Y-110072128D01*
X113483919Y-110145499D01*
X113483912Y-110145511D01*
X113427343Y-110282082D01*
X113427340Y-110282092D01*
X113398500Y-110427079D01*
X113398500Y-112923718D01*
X113378815Y-112990757D01*
X113326011Y-113036512D01*
X113256853Y-113046456D01*
X113227047Y-113038279D01*
X113178913Y-113018341D01*
X113178905Y-113018339D01*
X113033922Y-112989500D01*
X113033918Y-112989500D01*
X112886083Y-112989500D01*
X112886078Y-112989500D01*
X112741095Y-113018339D01*
X112741087Y-113018341D01*
X112604504Y-113074916D01*
X112563389Y-113102388D01*
X112496711Y-113123265D01*
X112429331Y-113104779D01*
X112382642Y-113052800D01*
X112370500Y-112999285D01*
X112370500Y-111486093D01*
X112370499Y-111486079D01*
X112370499Y-110443922D01*
X112370500Y-110443918D01*
X112370500Y-110296082D01*
X112370499Y-110296077D01*
X112370499Y-110072128D01*
X112364091Y-110012517D01*
X112350504Y-109976089D01*
X112313797Y-109877671D01*
X112313793Y-109877664D01*
X112227547Y-109762455D01*
X112227544Y-109762452D01*
X112112335Y-109676206D01*
X112112328Y-109676202D01*
X111977482Y-109625908D01*
X111977483Y-109625908D01*
X111917883Y-109619501D01*
X111917881Y-109619500D01*
X111917873Y-109619500D01*
X111693918Y-109619500D01*
X111546082Y-109619500D01*
X111546081Y-109619500D01*
X110293922Y-109619500D01*
X110293918Y-109619500D01*
X110146082Y-109619500D01*
X110146077Y-109619500D01*
X109922130Y-109619500D01*
X109922123Y-109619501D01*
X109862516Y-109625908D01*
X109727671Y-109676202D01*
X109727664Y-109676206D01*
X109612455Y-109762452D01*
X109612452Y-109762455D01*
X109526206Y-109877664D01*
X109526202Y-109877671D01*
X109475908Y-110012517D01*
X109469501Y-110072116D01*
X109469500Y-110072128D01*
X109469500Y-113067869D01*
X109469501Y-113067876D01*
X109475908Y-113127483D01*
X109526202Y-113262328D01*
X109526204Y-113262331D01*
X109592723Y-113351189D01*
X109617141Y-113416653D01*
X109602290Y-113484926D01*
X109552885Y-113534332D01*
X109493457Y-113549500D01*
X109026080Y-113549500D01*
X108881092Y-113578340D01*
X108881082Y-113578343D01*
X108744511Y-113634912D01*
X108744496Y-113634920D01*
X108697863Y-113666081D01*
X108697860Y-113666083D01*
X108621589Y-113717043D01*
X108621584Y-113717047D01*
X105575451Y-116763181D01*
X105514128Y-116796666D01*
X105487770Y-116799500D01*
X104404604Y-116799500D01*
X104357155Y-116790062D01*
X104333497Y-116780263D01*
X104333493Y-116780262D01*
X104333488Y-116780260D01*
X104178845Y-116749500D01*
X104178842Y-116749500D01*
X104021158Y-116749500D01*
X104021155Y-116749500D01*
X103866510Y-116780261D01*
X103866498Y-116780264D01*
X103720827Y-116840602D01*
X103720814Y-116840609D01*
X103589711Y-116928210D01*
X103589707Y-116928213D01*
X103478213Y-117039707D01*
X103478210Y-117039711D01*
X103390609Y-117170814D01*
X103390602Y-117170827D01*
X103330264Y-117316498D01*
X103330261Y-117316510D01*
X103299500Y-117471153D01*
X103299500Y-117628846D01*
X103330261Y-117783489D01*
X103330264Y-117783501D01*
X103390602Y-117929172D01*
X103390609Y-117929185D01*
X103478210Y-118060288D01*
X103478213Y-118060292D01*
X103589707Y-118171786D01*
X103589711Y-118171789D01*
X103720814Y-118259390D01*
X103720827Y-118259397D01*
X103820060Y-118300500D01*
X103866503Y-118319737D01*
X104021153Y-118350499D01*
X104021156Y-118350500D01*
X104021158Y-118350500D01*
X104178844Y-118350500D01*
X104178845Y-118350499D01*
X104255152Y-118335320D01*
X104333488Y-118319739D01*
X104333489Y-118319738D01*
X104333497Y-118319737D01*
X104357155Y-118309937D01*
X104404604Y-118300500D01*
X105923920Y-118300500D01*
X106021462Y-118281096D01*
X106068913Y-118271658D01*
X106205495Y-118215084D01*
X106270291Y-118171789D01*
X106270294Y-118171786D01*
X106270296Y-118171786D01*
X106299547Y-118152240D01*
X106328416Y-118132952D01*
X108660369Y-115800997D01*
X108721690Y-115767514D01*
X108791381Y-115772498D01*
X108847315Y-115814370D01*
X108851140Y-115819774D01*
X108852513Y-115821829D01*
X108878212Y-115860291D01*
X108989707Y-115971786D01*
X108989711Y-115971789D01*
X109120814Y-116059390D01*
X109120827Y-116059397D01*
X109258683Y-116116498D01*
X109266503Y-116119737D01*
X109421153Y-116150499D01*
X109421156Y-116150500D01*
X109421158Y-116150500D01*
X109578844Y-116150500D01*
X109578845Y-116150499D01*
X109733497Y-116119737D01*
X109879179Y-116059394D01*
X110010289Y-115971789D01*
X110121789Y-115860289D01*
X110209394Y-115729179D01*
X110269737Y-115583497D01*
X110300500Y-115428842D01*
X110300500Y-115271158D01*
X110300500Y-115271155D01*
X110300499Y-115271153D01*
X110286086Y-115198691D01*
X110292313Y-115129100D01*
X110335176Y-115073922D01*
X110401066Y-115050678D01*
X110407703Y-115050500D01*
X112037770Y-115050500D01*
X112104809Y-115070185D01*
X112125451Y-115086819D01*
X112313181Y-115274548D01*
X112346666Y-115335871D01*
X112349500Y-115362229D01*
X112349500Y-115673918D01*
X112349500Y-115673920D01*
X112349499Y-115673920D01*
X112378340Y-115818907D01*
X112378343Y-115818917D01*
X112434913Y-115955490D01*
X112434916Y-115955495D01*
X112444432Y-115969737D01*
X112448281Y-115975496D01*
X112448282Y-115975501D01*
X112448284Y-115975501D01*
X112517051Y-116078420D01*
X112517052Y-116078421D01*
X113103927Y-116665295D01*
X113130806Y-116705521D01*
X113140606Y-116729179D01*
X113140607Y-116729181D01*
X113228207Y-116860284D01*
X113228213Y-116860292D01*
X113339707Y-116971786D01*
X113339711Y-116971789D01*
X113470814Y-117059390D01*
X113470827Y-117059397D01*
X113548769Y-117091681D01*
X113616503Y-117119737D01*
X113771153Y-117150499D01*
X113771156Y-117150500D01*
X113771158Y-117150500D01*
X113928844Y-117150500D01*
X113928845Y-117150499D01*
X114083497Y-117119737D01*
X114196166Y-117073067D01*
X114229172Y-117059397D01*
X114229172Y-117059396D01*
X114229179Y-117059394D01*
X114360289Y-116971789D01*
X114471789Y-116860289D01*
X114559394Y-116729179D01*
X114619737Y-116583497D01*
X114650500Y-116428842D01*
X114650500Y-116271158D01*
X114650500Y-116271155D01*
X114650499Y-116271153D01*
X114619737Y-116116503D01*
X114573105Y-116003922D01*
X114559397Y-115970827D01*
X114559390Y-115970814D01*
X114471789Y-115839711D01*
X114471786Y-115839707D01*
X114360292Y-115728213D01*
X114360284Y-115728207D01*
X114229181Y-115640607D01*
X114229179Y-115640606D01*
X114205521Y-115630806D01*
X114165295Y-115603927D01*
X113886819Y-115325451D01*
X113872115Y-115298523D01*
X113855523Y-115272705D01*
X113854631Y-115266504D01*
X113853334Y-115264128D01*
X113850500Y-115237770D01*
X113850500Y-115233685D01*
X113870185Y-115166646D01*
X113922989Y-115120891D01*
X113992147Y-115110947D01*
X114055703Y-115139972D01*
X114062181Y-115146004D01*
X114119630Y-115203453D01*
X114119634Y-115203456D01*
X114250737Y-115291057D01*
X114250750Y-115291064D01*
X114396421Y-115351402D01*
X114396426Y-115351404D01*
X114551076Y-115382166D01*
X114551079Y-115382167D01*
X114551081Y-115382167D01*
X114708767Y-115382167D01*
X114708768Y-115382166D01*
X114863420Y-115351404D01*
X115009102Y-115291061D01*
X115140212Y-115203456D01*
X115251712Y-115091956D01*
X115339317Y-114960846D01*
X115399660Y-114815164D01*
X115430423Y-114660509D01*
X115430423Y-114643763D01*
X115435366Y-114626927D01*
X115435285Y-114609382D01*
X115445005Y-114594100D01*
X115450108Y-114576724D01*
X115463366Y-114565235D01*
X115472785Y-114550429D01*
X115489225Y-114542828D01*
X115502912Y-114530969D01*
X115520409Y-114528411D01*
X115536205Y-114521109D01*
X115565473Y-114521824D01*
X115571499Y-114520944D01*
X115575059Y-114521439D01*
X115721158Y-114550500D01*
X115784082Y-114550500D01*
X115792576Y-114551681D01*
X115816922Y-114562663D01*
X115842539Y-114570185D01*
X115848276Y-114576805D01*
X115856266Y-114580410D01*
X115870809Y-114602811D01*
X115888294Y-114622989D01*
X115890503Y-114633143D01*
X115894313Y-114639012D01*
X115894368Y-114650911D01*
X115899500Y-114674500D01*
X115899500Y-117799903D01*
X115879815Y-117866942D01*
X115863181Y-117887584D01*
X114587584Y-119163181D01*
X114526261Y-119196666D01*
X114499903Y-119199500D01*
X112429057Y-119199500D01*
X112270943Y-119199500D01*
X112118215Y-119240423D01*
X112118214Y-119240423D01*
X112118212Y-119240424D01*
X112118209Y-119240425D01*
X112068096Y-119269359D01*
X112068095Y-119269360D01*
X112024689Y-119294420D01*
X111981285Y-119319479D01*
X111981282Y-119319481D01*
X109719481Y-121581282D01*
X109719479Y-121581285D01*
X109709606Y-121598386D01*
X109692474Y-121628061D01*
X109669361Y-121668094D01*
X109669359Y-121668096D01*
X109640425Y-121718209D01*
X109640424Y-121718210D01*
X109626617Y-121769738D01*
X109599499Y-121870943D01*
X109599499Y-121870945D01*
X109599499Y-122039046D01*
X109599500Y-122039059D01*
X109599500Y-124120234D01*
X109579815Y-124187273D01*
X109578602Y-124189125D01*
X109490609Y-124320814D01*
X109490602Y-124320827D01*
X109430264Y-124466498D01*
X109430261Y-124466510D01*
X109399500Y-124621153D01*
X109399500Y-124778846D01*
X109430261Y-124933489D01*
X109430264Y-124933501D01*
X109490602Y-125079172D01*
X109490609Y-125079185D01*
X109578210Y-125210288D01*
X109578213Y-125210292D01*
X109689707Y-125321786D01*
X109689711Y-125321789D01*
X109820814Y-125409390D01*
X109820827Y-125409397D01*
X109966498Y-125469735D01*
X109966503Y-125469737D01*
X110121153Y-125500499D01*
X110121156Y-125500500D01*
X110121158Y-125500500D01*
X110278844Y-125500500D01*
X110278845Y-125500499D01*
X110433497Y-125469737D01*
X110493392Y-125444926D01*
X110562861Y-125437457D01*
X110609740Y-125456387D01*
X110619047Y-125462606D01*
X110619058Y-125462612D01*
X110761395Y-125521569D01*
X110764734Y-125522952D01*
X110919384Y-125553714D01*
X110919387Y-125553715D01*
X110919389Y-125553715D01*
X111077075Y-125553715D01*
X111077076Y-125553714D01*
X111231728Y-125522952D01*
X111377410Y-125462609D01*
X111508520Y-125375004D01*
X111620020Y-125263504D01*
X111707625Y-125132394D01*
X111767968Y-124986712D01*
X111798731Y-124832057D01*
X111798731Y-124674373D01*
X111798731Y-124674370D01*
X111798730Y-124674368D01*
X111778356Y-124571943D01*
X111767968Y-124519718D01*
X111727884Y-124422947D01*
X111707628Y-124374042D01*
X111707621Y-124374029D01*
X111620021Y-124242927D01*
X111585882Y-124208788D01*
X111521892Y-124144798D01*
X111516183Y-124138689D01*
X111508239Y-124129591D01*
X111478751Y-124078515D01*
X111366947Y-123966711D01*
X111366944Y-123966709D01*
X111237819Y-123837584D01*
X111204334Y-123776261D01*
X111201500Y-123749903D01*
X111201500Y-122416197D01*
X111221185Y-122349158D01*
X111237819Y-122328516D01*
X112728516Y-120837819D01*
X112755443Y-120823115D01*
X112781262Y-120806523D01*
X112787462Y-120805631D01*
X112789839Y-120804334D01*
X112816197Y-120801500D01*
X112833664Y-120801500D01*
X112900703Y-120821185D01*
X112946458Y-120873989D01*
X112955281Y-120901308D01*
X112983359Y-121042466D01*
X112983362Y-121042476D01*
X113043700Y-121188147D01*
X113043707Y-121188160D01*
X113131308Y-121319263D01*
X113131311Y-121319267D01*
X113242804Y-121430760D01*
X113245526Y-121432994D01*
X113246568Y-121434524D01*
X113247116Y-121435072D01*
X113247012Y-121435175D01*
X113284859Y-121490741D01*
X113286728Y-121560586D01*
X113250539Y-121620353D01*
X113225317Y-121638202D01*
X113220820Y-121640605D01*
X113089711Y-121728210D01*
X113089707Y-121728213D01*
X112978213Y-121839707D01*
X112978210Y-121839711D01*
X112890609Y-121970814D01*
X112890602Y-121970827D01*
X112830264Y-122116498D01*
X112830261Y-122116510D01*
X112799500Y-122271153D01*
X112799500Y-122428846D01*
X112830261Y-122583489D01*
X112830264Y-122583501D01*
X112890602Y-122729172D01*
X112890609Y-122729185D01*
X112978210Y-122860288D01*
X112978213Y-122860292D01*
X113089707Y-122971786D01*
X113089711Y-122971789D01*
X113220814Y-123059390D01*
X113220827Y-123059397D01*
X113366498Y-123119735D01*
X113366503Y-123119737D01*
X113521153Y-123150499D01*
X113521156Y-123150500D01*
X113521158Y-123150500D01*
X113678844Y-123150500D01*
X113678845Y-123150499D01*
X113833497Y-123119737D01*
X113979179Y-123059394D01*
X114110289Y-122971789D01*
X114197907Y-122884170D01*
X114259228Y-122850687D01*
X114328920Y-122855671D01*
X114384854Y-122897542D01*
X114409271Y-122963006D01*
X114400148Y-123019305D01*
X114338430Y-123168306D01*
X114338427Y-123168318D01*
X114300000Y-123361504D01*
X114300000Y-123760000D01*
X115000000Y-123760000D01*
X115000000Y-124260000D01*
X114336750Y-124260000D01*
X114269711Y-124240315D01*
X114249069Y-124223681D01*
X114158895Y-124133507D01*
X114158894Y-124133506D01*
X114051606Y-124071564D01*
X114051607Y-124071564D01*
X114021690Y-124063548D01*
X113931943Y-124039500D01*
X113808057Y-124039500D01*
X113718309Y-124063548D01*
X113688393Y-124071564D01*
X113581107Y-124133505D01*
X113581104Y-124133507D01*
X113493507Y-124221104D01*
X113493505Y-124221107D01*
X113431564Y-124328393D01*
X113431564Y-124328394D01*
X113399500Y-124448057D01*
X113399500Y-124571943D01*
X113431564Y-124691606D01*
X113493506Y-124798894D01*
X113581106Y-124886494D01*
X113688394Y-124948436D01*
X113808057Y-124980500D01*
X113808060Y-124980500D01*
X113931940Y-124980500D01*
X113931943Y-124980500D01*
X114051606Y-124948436D01*
X114158894Y-124886494D01*
X114164812Y-124880575D01*
X114226132Y-124847089D01*
X114295824Y-124852070D01*
X114351759Y-124893939D01*
X114367056Y-124920802D01*
X114413807Y-125033671D01*
X114413814Y-125033684D01*
X114523248Y-125197462D01*
X114523251Y-125197466D01*
X114662533Y-125336748D01*
X114662537Y-125336751D01*
X114826315Y-125446185D01*
X114826328Y-125446192D01*
X115008308Y-125521569D01*
X115050000Y-125529862D01*
X115050000Y-124726988D01*
X115059940Y-124744205D01*
X115115795Y-124800060D01*
X115184204Y-124839556D01*
X115260504Y-124860000D01*
X115339496Y-124860000D01*
X115415796Y-124839556D01*
X115484205Y-124800060D01*
X115540060Y-124744205D01*
X115550000Y-124726988D01*
X115550000Y-125529862D01*
X115591690Y-125521569D01*
X115591692Y-125521569D01*
X115773671Y-125446192D01*
X115773684Y-125446185D01*
X115937462Y-125336751D01*
X115937466Y-125336748D01*
X116076748Y-125197466D01*
X116076751Y-125197462D01*
X116186185Y-125033684D01*
X116186192Y-125033671D01*
X116261569Y-124851693D01*
X116261572Y-124851681D01*
X116299999Y-124658495D01*
X116300000Y-124658492D01*
X116300000Y-124260000D01*
X115600000Y-124260000D01*
X115600000Y-123760000D01*
X116300000Y-123760000D01*
X116300000Y-123361508D01*
X116299999Y-123361504D01*
X116261572Y-123168318D01*
X116261569Y-123168306D01*
X116186192Y-122986328D01*
X116186185Y-122986315D01*
X116076751Y-122822537D01*
X116076748Y-122822533D01*
X115937466Y-122683251D01*
X115937462Y-122683248D01*
X115773684Y-122573814D01*
X115773671Y-122573807D01*
X115591691Y-122498429D01*
X115591683Y-122498427D01*
X115550000Y-122490135D01*
X115550000Y-123293011D01*
X115540060Y-123275795D01*
X115484205Y-123219940D01*
X115415796Y-123180444D01*
X115339496Y-123160000D01*
X115260504Y-123160000D01*
X115184204Y-123180444D01*
X115115795Y-123219940D01*
X115059940Y-123275795D01*
X115050000Y-123293011D01*
X115050000Y-122490136D01*
X115049999Y-122490135D01*
X115008316Y-122498427D01*
X115008308Y-122498429D01*
X114826328Y-122573807D01*
X114826315Y-122573814D01*
X114662537Y-122683248D01*
X114532964Y-122812821D01*
X114471641Y-122846305D01*
X114401949Y-122841321D01*
X114346016Y-122799449D01*
X114321599Y-122733985D01*
X114330721Y-122677689D01*
X114369737Y-122583497D01*
X114400500Y-122428842D01*
X114400500Y-122271158D01*
X114400500Y-122271155D01*
X114400499Y-122271153D01*
X114369738Y-122116510D01*
X114369737Y-122116503D01*
X114337654Y-122039046D01*
X114309397Y-121970827D01*
X114309390Y-121970814D01*
X114221789Y-121839711D01*
X114221786Y-121839707D01*
X114167055Y-121784976D01*
X114167003Y-121784925D01*
X114110289Y-121728211D01*
X114106735Y-121725836D01*
X114099427Y-121718671D01*
X114088981Y-121699983D01*
X118599500Y-121699983D01*
X118599500Y-123000001D01*
X118599501Y-123000018D01*
X118610000Y-123102796D01*
X118610001Y-123102799D01*
X118648818Y-123219940D01*
X118665186Y-123269334D01*
X118757288Y-123418656D01*
X118881344Y-123542712D01*
X119030666Y-123634814D01*
X119197203Y-123689999D01*
X119299991Y-123700500D01*
X120900008Y-123700499D01*
X121002797Y-123689999D01*
X121169334Y-123634814D01*
X121318656Y-123542712D01*
X121442712Y-123418656D01*
X121534814Y-123269334D01*
X121589999Y-123102797D01*
X121600500Y-123000009D01*
X121600499Y-121699992D01*
X121597408Y-121669737D01*
X121589999Y-121597203D01*
X121589998Y-121597200D01*
X121561198Y-121510288D01*
X121534814Y-121430666D01*
X121442712Y-121281344D01*
X121318656Y-121157288D01*
X121169334Y-121065186D01*
X121169332Y-121065185D01*
X121163440Y-121061551D01*
X121116716Y-121009603D01*
X121105493Y-120940641D01*
X121133337Y-120876558D01*
X121140856Y-120868330D01*
X121279728Y-120729458D01*
X121404620Y-120557557D01*
X121501095Y-120368217D01*
X121566757Y-120166129D01*
X121566757Y-120166126D01*
X121577231Y-120100000D01*
X120533012Y-120100000D01*
X120565925Y-120042993D01*
X120600000Y-119915826D01*
X120600000Y-119784174D01*
X120565925Y-119657007D01*
X120533012Y-119600000D01*
X121577231Y-119600000D01*
X121566757Y-119533873D01*
X121566757Y-119533870D01*
X121501095Y-119331782D01*
X121404620Y-119142442D01*
X121279727Y-118970540D01*
X121279723Y-118970535D01*
X121129464Y-118820276D01*
X121129459Y-118820272D01*
X120957557Y-118695379D01*
X120768217Y-118598904D01*
X120566129Y-118533242D01*
X120356246Y-118500000D01*
X120350000Y-118500000D01*
X120350000Y-119416988D01*
X120292993Y-119384075D01*
X120165826Y-119350000D01*
X120034174Y-119350000D01*
X119907007Y-119384075D01*
X119850000Y-119416988D01*
X119850000Y-118500000D01*
X119843754Y-118500000D01*
X119633872Y-118533242D01*
X119633869Y-118533242D01*
X119431782Y-118598904D01*
X119242442Y-118695379D01*
X119070540Y-118820272D01*
X119070535Y-118820276D01*
X118920276Y-118970535D01*
X118920272Y-118970540D01*
X118795379Y-119142442D01*
X118698904Y-119331782D01*
X118633242Y-119533870D01*
X118633242Y-119533873D01*
X118622769Y-119600000D01*
X119666988Y-119600000D01*
X119634075Y-119657007D01*
X119600000Y-119784174D01*
X119600000Y-119915826D01*
X119634075Y-120042993D01*
X119666988Y-120100000D01*
X118622769Y-120100000D01*
X118633242Y-120166126D01*
X118633242Y-120166129D01*
X118698904Y-120368217D01*
X118795379Y-120557557D01*
X118920272Y-120729459D01*
X118920276Y-120729464D01*
X119059143Y-120868331D01*
X119092628Y-120929654D01*
X119087644Y-120999346D01*
X119045772Y-121055279D01*
X119036559Y-121061551D01*
X118881342Y-121157289D01*
X118757289Y-121281342D01*
X118665187Y-121430663D01*
X118665185Y-121430668D01*
X118637349Y-121514670D01*
X118610001Y-121597203D01*
X118610001Y-121597204D01*
X118610000Y-121597204D01*
X118599500Y-121699983D01*
X114088981Y-121699983D01*
X114084944Y-121692760D01*
X114068237Y-121668231D01*
X114068086Y-121662599D01*
X114065338Y-121657682D01*
X114067162Y-121628061D01*
X114066369Y-121598386D01*
X114069287Y-121593565D01*
X114069634Y-121587944D01*
X114087181Y-121564013D01*
X114102559Y-121538619D01*
X114109303Y-121533847D01*
X114110951Y-121531600D01*
X114114296Y-121530314D01*
X114127793Y-121520765D01*
X114132266Y-121518373D01*
X114132277Y-121518369D01*
X114263387Y-121430764D01*
X114374887Y-121319264D01*
X114462492Y-121188154D01*
X114522835Y-121042472D01*
X114535491Y-120978846D01*
X114550915Y-120901308D01*
X114565629Y-120873177D01*
X114578819Y-120844297D01*
X114581708Y-120842440D01*
X114583300Y-120839397D01*
X114610892Y-120823684D01*
X114637597Y-120806523D01*
X114642190Y-120805862D01*
X114644016Y-120804823D01*
X114672532Y-120801500D01*
X114879431Y-120801500D01*
X114879447Y-120801501D01*
X114887043Y-120801501D01*
X115045154Y-120801501D01*
X115045157Y-120801501D01*
X115197885Y-120760577D01*
X115285043Y-120710256D01*
X115334816Y-120681520D01*
X115446620Y-120569716D01*
X115446620Y-120569714D01*
X115456824Y-120559511D01*
X115456828Y-120559506D01*
X116508583Y-119507750D01*
X116569904Y-119474267D01*
X116639596Y-119479251D01*
X116695529Y-119521123D01*
X116717879Y-119571241D01*
X116730261Y-119633491D01*
X116730264Y-119633501D01*
X116790602Y-119779172D01*
X116790609Y-119779185D01*
X116878210Y-119910288D01*
X116878213Y-119910292D01*
X116989707Y-120021786D01*
X116989711Y-120021789D01*
X117120814Y-120109390D01*
X117120827Y-120109397D01*
X117257785Y-120166126D01*
X117266503Y-120169737D01*
X117416131Y-120199500D01*
X117421153Y-120200499D01*
X117421156Y-120200500D01*
X117421158Y-120200500D01*
X117578844Y-120200500D01*
X117578845Y-120200499D01*
X117733497Y-120169737D01*
X117879179Y-120109394D01*
X118010289Y-120021789D01*
X118121789Y-119910289D01*
X118209394Y-119779179D01*
X118269737Y-119633497D01*
X118300500Y-119478842D01*
X118300500Y-119321158D01*
X118300500Y-119321155D01*
X118300499Y-119321153D01*
X118284441Y-119240424D01*
X118269737Y-119166503D01*
X118259771Y-119142442D01*
X118209397Y-119020827D01*
X118209390Y-119020814D01*
X118121789Y-118889711D01*
X118121786Y-118889707D01*
X118010292Y-118778213D01*
X118010288Y-118778210D01*
X117879185Y-118690609D01*
X117879172Y-118690602D01*
X117733501Y-118630264D01*
X117733489Y-118630261D01*
X117572868Y-118598311D01*
X117573299Y-118596141D01*
X117517718Y-118573677D01*
X117477378Y-118516630D01*
X117474283Y-118446829D01*
X117474895Y-118444446D01*
X117501501Y-118345157D01*
X117501501Y-118187043D01*
X117501501Y-118179448D01*
X117501500Y-118179430D01*
X117501500Y-114121153D01*
X118299500Y-114121153D01*
X118299500Y-114278846D01*
X118330261Y-114433489D01*
X118330264Y-114433501D01*
X118390602Y-114579172D01*
X118390609Y-114579185D01*
X118478210Y-114710288D01*
X118478213Y-114710292D01*
X118589707Y-114821786D01*
X118589711Y-114821789D01*
X118720814Y-114909390D01*
X118720827Y-114909397D01*
X118852387Y-114963890D01*
X118866503Y-114969737D01*
X119021153Y-115000499D01*
X119021156Y-115000500D01*
X119021158Y-115000500D01*
X119178844Y-115000500D01*
X119178845Y-115000499D01*
X119333497Y-114969737D01*
X119479179Y-114909394D01*
X119610289Y-114821789D01*
X119721789Y-114710289D01*
X119809394Y-114579179D01*
X119869737Y-114433497D01*
X119900500Y-114278842D01*
X119900500Y-114121158D01*
X119900500Y-114121155D01*
X119900499Y-114121153D01*
X119872192Y-113978846D01*
X119869737Y-113966503D01*
X119822738Y-113853036D01*
X119809397Y-113820827D01*
X119809390Y-113820814D01*
X119721789Y-113689711D01*
X119721786Y-113689707D01*
X119610292Y-113578213D01*
X119610288Y-113578210D01*
X119479185Y-113490609D01*
X119479172Y-113490602D01*
X119333501Y-113430264D01*
X119333489Y-113430261D01*
X119178845Y-113399500D01*
X119178842Y-113399500D01*
X119021158Y-113399500D01*
X119021155Y-113399500D01*
X118866510Y-113430261D01*
X118866498Y-113430264D01*
X118720827Y-113490602D01*
X118720814Y-113490609D01*
X118589711Y-113578210D01*
X118589707Y-113578213D01*
X118478213Y-113689707D01*
X118478210Y-113689711D01*
X118390609Y-113820814D01*
X118390602Y-113820827D01*
X118330264Y-113966498D01*
X118330261Y-113966510D01*
X118299500Y-114121153D01*
X117501500Y-114121153D01*
X117501500Y-109666196D01*
X117521185Y-109599157D01*
X117537815Y-109578519D01*
X117939152Y-109177181D01*
X118000473Y-109143698D01*
X118070164Y-109148682D01*
X118095720Y-109161761D01*
X118208636Y-109237209D01*
X118208638Y-109237210D01*
X118208642Y-109237212D01*
X118352507Y-109296802D01*
X118354318Y-109297552D01*
X118508968Y-109328314D01*
X118508971Y-109328315D01*
X118508973Y-109328315D01*
X118666659Y-109328315D01*
X118666660Y-109328314D01*
X118821312Y-109297552D01*
X118966994Y-109237209D01*
X119098104Y-109149604D01*
X119209604Y-109038104D01*
X119297209Y-108906994D01*
X119297210Y-108906991D01*
X119297212Y-108906988D01*
X119307913Y-108881153D01*
X122969500Y-108881153D01*
X122969500Y-109038846D01*
X123000261Y-109193489D01*
X123000264Y-109193501D01*
X123060602Y-109339172D01*
X123060609Y-109339185D01*
X123148210Y-109470288D01*
X123148213Y-109470292D01*
X123259707Y-109581786D01*
X123259711Y-109581789D01*
X123390814Y-109669390D01*
X123390827Y-109669397D01*
X123536498Y-109729735D01*
X123536503Y-109729737D01*
X123682823Y-109758842D01*
X123691153Y-109760499D01*
X123691156Y-109760500D01*
X123691158Y-109760500D01*
X123848844Y-109760500D01*
X123848845Y-109760499D01*
X124003497Y-109729737D01*
X124149179Y-109669394D01*
X124280289Y-109581789D01*
X124391789Y-109470289D01*
X124479394Y-109339179D01*
X124539737Y-109193497D01*
X124570500Y-109038842D01*
X124570500Y-108881158D01*
X124570500Y-108881155D01*
X124570499Y-108881153D01*
X124564637Y-108851683D01*
X124539737Y-108726503D01*
X124531280Y-108706086D01*
X124479397Y-108580827D01*
X124479390Y-108580814D01*
X124391789Y-108449711D01*
X124391786Y-108449707D01*
X124280292Y-108338213D01*
X124280288Y-108338210D01*
X124149185Y-108250609D01*
X124149172Y-108250602D01*
X124003501Y-108190264D01*
X124003489Y-108190261D01*
X123848845Y-108159500D01*
X123848842Y-108159500D01*
X123691158Y-108159500D01*
X123691155Y-108159500D01*
X123536510Y-108190261D01*
X123536498Y-108190264D01*
X123390827Y-108250602D01*
X123390814Y-108250609D01*
X123259711Y-108338210D01*
X123259707Y-108338213D01*
X123148213Y-108449707D01*
X123148210Y-108449711D01*
X123060609Y-108580814D01*
X123060602Y-108580827D01*
X123000264Y-108726498D01*
X123000261Y-108726510D01*
X122969500Y-108881153D01*
X119307913Y-108881153D01*
X119330089Y-108827614D01*
X119330089Y-108827613D01*
X119357552Y-108761312D01*
X119386966Y-108613440D01*
X119388453Y-108605965D01*
X119420838Y-108544054D01*
X119422334Y-108542530D01*
X121738506Y-106226357D01*
X121738511Y-106226354D01*
X121748714Y-106216150D01*
X121748716Y-106216150D01*
X121860520Y-106104346D01*
X121937795Y-105970501D01*
X121939577Y-105967415D01*
X121980501Y-105814687D01*
X121980501Y-105656573D01*
X121980501Y-105648978D01*
X121980500Y-105648960D01*
X121980500Y-103770097D01*
X122000185Y-103703058D01*
X122016819Y-103682416D01*
X122498027Y-103201208D01*
X123020520Y-102678716D01*
X123099577Y-102541784D01*
X123140501Y-102389057D01*
X123140501Y-102230942D01*
X123140501Y-102223347D01*
X123140500Y-102223329D01*
X123140500Y-97800943D01*
X123140499Y-97800936D01*
X123140113Y-97799497D01*
X123140106Y-97799473D01*
X123121264Y-97729155D01*
X123121264Y-97729154D01*
X123099577Y-97648216D01*
X123099576Y-97648213D01*
X123020524Y-97511290D01*
X123020521Y-97511286D01*
X123020520Y-97511284D01*
X122908716Y-97399480D01*
X122908715Y-97399479D01*
X122904385Y-97395149D01*
X122904374Y-97395139D01*
X120197590Y-94688355D01*
X120197588Y-94688352D01*
X120078717Y-94569481D01*
X120078709Y-94569475D01*
X119990382Y-94518480D01*
X119990381Y-94518480D01*
X119941785Y-94490423D01*
X119789057Y-94449499D01*
X119630943Y-94449499D01*
X119623347Y-94449499D01*
X119623331Y-94449500D01*
X119559766Y-94449500D01*
X119492727Y-94429815D01*
X119490875Y-94428602D01*
X119359185Y-94340609D01*
X119359172Y-94340602D01*
X119213501Y-94280264D01*
X119213489Y-94280261D01*
X119058845Y-94249500D01*
X119058842Y-94249500D01*
X118901158Y-94249500D01*
X118901155Y-94249500D01*
X118746510Y-94280261D01*
X118746498Y-94280264D01*
X118600827Y-94340602D01*
X118600814Y-94340609D01*
X118469711Y-94428210D01*
X118469707Y-94428213D01*
X118358213Y-94539707D01*
X118358210Y-94539711D01*
X118270609Y-94670814D01*
X118270602Y-94670827D01*
X118210264Y-94816498D01*
X118210261Y-94816510D01*
X118179500Y-94971153D01*
X118179500Y-94982742D01*
X118159815Y-95049781D01*
X118107011Y-95095536D01*
X118055500Y-95106742D01*
X115679021Y-95106742D01*
X115611982Y-95087057D01*
X115610167Y-95085868D01*
X115580179Y-95065831D01*
X115580175Y-95065829D01*
X115580171Y-95065827D01*
X115434501Y-95005489D01*
X115434489Y-95005486D01*
X115279845Y-94974725D01*
X115279842Y-94974725D01*
X115122158Y-94974725D01*
X115122153Y-94974725D01*
X115019651Y-94995114D01*
X114950059Y-94988887D01*
X114894882Y-94946024D01*
X114873843Y-94897688D01*
X114857695Y-94816510D01*
X114849737Y-94776503D01*
X114813558Y-94689158D01*
X114789397Y-94630827D01*
X114789390Y-94630814D01*
X114701789Y-94499711D01*
X114701786Y-94499707D01*
X114590292Y-94388213D01*
X114590288Y-94388210D01*
X114459185Y-94300609D01*
X114459172Y-94300602D01*
X114313501Y-94240264D01*
X114313489Y-94240261D01*
X114158845Y-94209500D01*
X114158842Y-94209500D01*
X114001158Y-94209500D01*
X114001155Y-94209500D01*
X113846510Y-94240261D01*
X113846498Y-94240264D01*
X113700827Y-94300602D01*
X113700814Y-94300609D01*
X113569711Y-94388210D01*
X113569707Y-94388213D01*
X113458213Y-94499707D01*
X113458207Y-94499715D01*
X113395616Y-94593390D01*
X113342004Y-94638196D01*
X113292514Y-94648500D01*
X112871997Y-94648500D01*
X112831076Y-94659464D01*
X112831076Y-94659465D01*
X112748524Y-94681584D01*
X112678676Y-94679922D01*
X112620814Y-94640760D01*
X112593309Y-94576532D01*
X112592432Y-94561810D01*
X112592432Y-94531471D01*
X112592431Y-94531469D01*
X112586113Y-94499707D01*
X112561669Y-94376819D01*
X112555606Y-94362181D01*
X112501329Y-94231143D01*
X112501322Y-94231130D01*
X112413721Y-94100027D01*
X112413718Y-94100023D01*
X112302224Y-93988529D01*
X112302220Y-93988526D01*
X112171117Y-93900925D01*
X112171104Y-93900918D01*
X112025433Y-93840580D01*
X112025421Y-93840577D01*
X111870777Y-93809816D01*
X111870774Y-93809816D01*
X111713090Y-93809816D01*
X111713087Y-93809816D01*
X111558442Y-93840577D01*
X111558430Y-93840580D01*
X111412759Y-93900918D01*
X111412746Y-93900925D01*
X111281643Y-93988526D01*
X111281639Y-93988529D01*
X111170145Y-94100023D01*
X111170142Y-94100027D01*
X111082541Y-94231130D01*
X111082534Y-94231143D01*
X111044921Y-94321952D01*
X111001080Y-94376356D01*
X110934786Y-94398421D01*
X110930360Y-94398500D01*
X108370097Y-94398500D01*
X108340656Y-94389855D01*
X108310670Y-94383332D01*
X108305654Y-94379577D01*
X108303058Y-94378815D01*
X108282416Y-94362181D01*
X108157590Y-94237355D01*
X108157588Y-94237352D01*
X108038717Y-94118481D01*
X108038716Y-94118480D01*
X107951904Y-94068360D01*
X107951904Y-94068359D01*
X107951900Y-94068358D01*
X107901785Y-94039423D01*
X107749057Y-93998499D01*
X107590943Y-93998499D01*
X107583347Y-93998499D01*
X107583331Y-93998500D01*
X103537612Y-93998500D01*
X103537596Y-93998499D01*
X103530000Y-93998499D01*
X103371886Y-93998499D01*
X103264530Y-94027265D01*
X103219153Y-94039424D01*
X103219152Y-94039425D01*
X103169039Y-94068359D01*
X103169038Y-94068360D01*
X103159841Y-94073670D01*
X103082228Y-94118479D01*
X103082225Y-94118481D01*
X102986526Y-94214181D01*
X102925203Y-94247666D01*
X102898845Y-94250500D01*
X102241744Y-94250500D01*
X102174705Y-94230815D01*
X102128950Y-94178011D01*
X102119006Y-94108853D01*
X102148031Y-94045297D01*
X102206809Y-94007523D01*
X102209597Y-94006740D01*
X102474952Y-93935639D01*
X102747507Y-93822743D01*
X103002994Y-93675238D01*
X103237042Y-93495646D01*
X103445646Y-93287042D01*
X103625238Y-93052994D01*
X103637848Y-93031153D01*
X113369500Y-93031153D01*
X113369500Y-93188846D01*
X113400261Y-93343489D01*
X113400264Y-93343501D01*
X113460602Y-93489172D01*
X113460609Y-93489185D01*
X113548210Y-93620288D01*
X113548213Y-93620292D01*
X113659707Y-93731786D01*
X113659711Y-93731789D01*
X113790814Y-93819390D01*
X113790827Y-93819397D01*
X113863325Y-93849426D01*
X113936503Y-93879737D01*
X114043022Y-93900925D01*
X114091153Y-93910499D01*
X114091156Y-93910500D01*
X114091158Y-93910500D01*
X114248844Y-93910500D01*
X114248845Y-93910499D01*
X114403497Y-93879737D01*
X114549179Y-93819394D01*
X114680289Y-93731789D01*
X114791789Y-93620289D01*
X114879394Y-93489179D01*
X114939737Y-93343497D01*
X114970500Y-93188842D01*
X114970500Y-93031158D01*
X114970500Y-93031155D01*
X114970499Y-93031153D01*
X114939737Y-92876503D01*
X114939735Y-92876498D01*
X114879397Y-92730827D01*
X114879390Y-92730814D01*
X114791789Y-92599711D01*
X114791786Y-92599707D01*
X114680292Y-92488213D01*
X114680288Y-92488210D01*
X114549185Y-92400609D01*
X114549172Y-92400602D01*
X114403501Y-92340264D01*
X114403489Y-92340261D01*
X114248845Y-92309500D01*
X114248842Y-92309500D01*
X114091158Y-92309500D01*
X114091155Y-92309500D01*
X113936510Y-92340261D01*
X113936498Y-92340264D01*
X113790827Y-92400602D01*
X113790814Y-92400609D01*
X113659711Y-92488210D01*
X113659707Y-92488213D01*
X113548213Y-92599707D01*
X113548210Y-92599711D01*
X113460609Y-92730814D01*
X113460602Y-92730827D01*
X113400264Y-92876498D01*
X113400261Y-92876510D01*
X113369500Y-93031153D01*
X103637848Y-93031153D01*
X103772743Y-92797507D01*
X103885639Y-92524952D01*
X103961993Y-92239993D01*
X104000500Y-91947506D01*
X104000500Y-91652494D01*
X104000499Y-91652486D01*
X119449500Y-91652486D01*
X119449500Y-91947513D01*
X119481571Y-92191113D01*
X119488007Y-92239993D01*
X119554517Y-92488213D01*
X119564361Y-92524951D01*
X119564364Y-92524961D01*
X119677254Y-92797500D01*
X119677258Y-92797510D01*
X119824761Y-93052993D01*
X120004352Y-93287040D01*
X120004358Y-93287047D01*
X120212952Y-93495641D01*
X120212959Y-93495647D01*
X120447006Y-93675238D01*
X120702489Y-93822741D01*
X120702490Y-93822741D01*
X120702493Y-93822743D01*
X120840084Y-93879735D01*
X120957764Y-93928480D01*
X120975048Y-93935639D01*
X121260007Y-94011993D01*
X121552494Y-94050500D01*
X121552501Y-94050500D01*
X121847499Y-94050500D01*
X121847506Y-94050500D01*
X122139993Y-94011993D01*
X122424952Y-93935639D01*
X122697507Y-93822743D01*
X122952994Y-93675238D01*
X123187042Y-93495646D01*
X123395646Y-93287042D01*
X123575238Y-93052994D01*
X123722743Y-92797507D01*
X123835639Y-92524952D01*
X123911993Y-92239993D01*
X123950500Y-91947506D01*
X123950500Y-91652494D01*
X123911993Y-91360007D01*
X123835639Y-91075048D01*
X123722743Y-90802493D01*
X123575238Y-90547006D01*
X123395646Y-90312958D01*
X123395641Y-90312952D01*
X123187047Y-90104358D01*
X123187040Y-90104352D01*
X122952993Y-89924761D01*
X122697510Y-89777258D01*
X122697500Y-89777254D01*
X122424961Y-89664364D01*
X122424954Y-89664362D01*
X122424952Y-89664361D01*
X122139993Y-89588007D01*
X122091113Y-89581571D01*
X121847513Y-89549500D01*
X121847506Y-89549500D01*
X121552494Y-89549500D01*
X121552486Y-89549500D01*
X121274085Y-89586153D01*
X121260007Y-89588007D01*
X120975048Y-89664361D01*
X120975038Y-89664364D01*
X120702499Y-89777254D01*
X120702489Y-89777258D01*
X120447006Y-89924761D01*
X120212959Y-90104352D01*
X120212952Y-90104358D01*
X120004358Y-90312952D01*
X120004352Y-90312959D01*
X119824761Y-90547006D01*
X119677258Y-90802489D01*
X119677254Y-90802499D01*
X119564364Y-91075038D01*
X119564361Y-91075048D01*
X119488008Y-91360004D01*
X119488006Y-91360015D01*
X119449500Y-91652486D01*
X104000499Y-91652486D01*
X103961993Y-91360007D01*
X103885639Y-91075048D01*
X103772743Y-90802493D01*
X103625238Y-90547006D01*
X103445646Y-90312958D01*
X103445641Y-90312952D01*
X103237047Y-90104358D01*
X103237040Y-90104352D01*
X103002993Y-89924761D01*
X102747510Y-89777258D01*
X102747500Y-89777254D01*
X102474961Y-89664364D01*
X102474954Y-89664362D01*
X102474952Y-89664361D01*
X102189993Y-89588007D01*
X102141113Y-89581571D01*
X101897513Y-89549500D01*
X101897506Y-89549500D01*
X101602494Y-89549500D01*
X101602486Y-89549500D01*
X101324085Y-89586153D01*
X101310007Y-89588007D01*
X101025048Y-89664361D01*
X101025038Y-89664364D01*
X100752499Y-89777254D01*
X100752489Y-89777258D01*
X100497006Y-89924761D01*
X100262959Y-90104352D01*
X100262952Y-90104358D01*
X100054358Y-90312952D01*
X100054352Y-90312959D01*
X99874761Y-90547006D01*
X99727258Y-90802489D01*
X99727254Y-90802499D01*
X99614364Y-91075038D01*
X99614361Y-91075048D01*
X99538008Y-91360004D01*
X99538006Y-91360015D01*
X99499500Y-91652486D01*
X99499500Y-91947513D01*
X99531571Y-92191113D01*
X99538007Y-92239993D01*
X99604517Y-92488213D01*
X99614361Y-92524951D01*
X99614364Y-92524961D01*
X99727254Y-92797500D01*
X99727258Y-92797510D01*
X99874761Y-93052993D01*
X100054352Y-93287040D01*
X100054358Y-93287047D01*
X100262952Y-93495641D01*
X100262956Y-93495644D01*
X100262958Y-93495646D01*
X100380871Y-93586124D01*
X100422073Y-93642552D01*
X100426228Y-93712298D01*
X100392015Y-93773219D01*
X100330298Y-93805971D01*
X100305384Y-93808500D01*
X99169941Y-93808500D01*
X99129285Y-93819393D01*
X99129286Y-93819394D01*
X99017214Y-93849423D01*
X99017209Y-93849426D01*
X98880290Y-93928475D01*
X98880282Y-93928481D01*
X98768478Y-94040286D01*
X98768477Y-94040287D01*
X98721720Y-94087043D01*
X98660397Y-94120527D01*
X98590705Y-94115542D01*
X98534772Y-94073670D01*
X98510356Y-94008206D01*
X98510040Y-93999511D01*
X98509954Y-93928475D01*
X98504333Y-89274149D01*
X98523937Y-89207087D01*
X98576685Y-89161268D01*
X98628333Y-89150000D01*
X124725500Y-89150000D01*
X124792539Y-89169685D01*
G37*
%TD.AperFunction*%
%TA.AperFunction,Conductor*%
G36*
X115858363Y-110053741D02*
G01*
X115895082Y-110113185D01*
X115899500Y-110145990D01*
X115899500Y-112825500D01*
X115879815Y-112892539D01*
X115827011Y-112938294D01*
X115775500Y-112949500D01*
X115721155Y-112949500D01*
X115566510Y-112980261D01*
X115566498Y-112980264D01*
X115420827Y-113040602D01*
X115420814Y-113040609D01*
X115289711Y-113128210D01*
X115289707Y-113128213D01*
X115178213Y-113239707D01*
X115178210Y-113239711D01*
X115126602Y-113316948D01*
X115072989Y-113361753D01*
X115003664Y-113370460D01*
X114940637Y-113340305D01*
X114903918Y-113280862D01*
X114899500Y-113248057D01*
X114899500Y-110863229D01*
X114919185Y-110796190D01*
X114935815Y-110775552D01*
X115300297Y-110411069D01*
X115340524Y-110384191D01*
X115364179Y-110374394D01*
X115495289Y-110286789D01*
X115606789Y-110175289D01*
X115672398Y-110077099D01*
X115726010Y-110032294D01*
X115795335Y-110023587D01*
X115858363Y-110053741D01*
G37*
%TD.AperFunction*%
%TA.AperFunction,Conductor*%
G36*
X118605398Y-101762954D02*
G01*
X118618834Y-101763915D01*
X118636560Y-101777185D01*
X118656703Y-101786384D01*
X118663985Y-101797715D01*
X118674767Y-101805787D01*
X118682504Y-101826532D01*
X118694477Y-101845162D01*
X118697628Y-101867080D01*
X118699184Y-101871251D01*
X118699429Y-101878131D01*
X118699500Y-101878846D01*
X118730261Y-102033489D01*
X118730264Y-102033501D01*
X118790602Y-102179172D01*
X118790612Y-102179190D01*
X118842008Y-102256110D01*
X118862886Y-102322787D01*
X118844401Y-102390167D01*
X118842008Y-102393890D01*
X118790612Y-102470809D01*
X118790602Y-102470827D01*
X118730266Y-102616495D01*
X118730261Y-102616510D01*
X118699500Y-102771153D01*
X118699500Y-102928846D01*
X118730261Y-103083489D01*
X118730264Y-103083501D01*
X118790602Y-103229172D01*
X118790609Y-103229185D01*
X118878210Y-103360288D01*
X118878213Y-103360292D01*
X118989707Y-103471786D01*
X118989711Y-103471789D01*
X119120814Y-103559390D01*
X119120827Y-103559397D01*
X119197849Y-103591300D01*
X119266503Y-103619737D01*
X119299691Y-103626338D01*
X119361600Y-103658721D01*
X119396176Y-103719436D01*
X119399500Y-103747955D01*
X119399500Y-105399902D01*
X119379815Y-105466941D01*
X119363181Y-105487583D01*
X116019481Y-108831282D01*
X116019479Y-108831285D01*
X116011835Y-108844526D01*
X115981810Y-108896531D01*
X115940423Y-108968215D01*
X115899499Y-109120943D01*
X115899499Y-109120945D01*
X115899499Y-109184008D01*
X115879814Y-109251047D01*
X115827010Y-109296802D01*
X115757852Y-109306746D01*
X115694296Y-109277721D01*
X115672397Y-109252899D01*
X115606789Y-109154711D01*
X115606786Y-109154707D01*
X115495292Y-109043213D01*
X115495288Y-109043210D01*
X115364185Y-108955609D01*
X115364172Y-108955602D01*
X115218501Y-108895264D01*
X115218491Y-108895261D01*
X115072455Y-108866212D01*
X115010544Y-108833827D01*
X114975970Y-108773111D01*
X114979711Y-108703341D01*
X115008962Y-108656919D01*
X115435958Y-108229922D01*
X115497279Y-108196439D01*
X115499414Y-108195994D01*
X115505736Y-108194737D01*
X115651418Y-108134394D01*
X115782528Y-108046789D01*
X115894028Y-107935289D01*
X115981633Y-107804179D01*
X115989762Y-107784555D01*
X116041974Y-107658501D01*
X116041976Y-107658497D01*
X116072739Y-107503842D01*
X116072739Y-107346158D01*
X116072739Y-107346155D01*
X116072738Y-107346153D01*
X116053945Y-107251677D01*
X116041976Y-107191503D01*
X116030565Y-107163955D01*
X115981636Y-107045827D01*
X115981629Y-107045814D01*
X115894028Y-106914711D01*
X115894025Y-106914707D01*
X115782531Y-106803213D01*
X115782527Y-106803210D01*
X115651424Y-106715609D01*
X115651411Y-106715602D01*
X115505740Y-106655264D01*
X115505728Y-106655261D01*
X115351084Y-106624500D01*
X115351081Y-106624500D01*
X115193397Y-106624500D01*
X115193394Y-106624500D01*
X115038749Y-106655261D01*
X115038737Y-106655264D01*
X114887431Y-106717937D01*
X114886780Y-106716366D01*
X114826323Y-106728945D01*
X114761083Y-106703934D01*
X114719721Y-106647623D01*
X114715370Y-106577889D01*
X114748609Y-106517667D01*
X117159506Y-104106771D01*
X117159511Y-104106767D01*
X117169714Y-104096563D01*
X117169716Y-104096563D01*
X117281520Y-103984759D01*
X117354005Y-103859211D01*
X117360577Y-103847828D01*
X117401501Y-103695100D01*
X117401501Y-103536986D01*
X117401501Y-103529391D01*
X117401500Y-103529373D01*
X117401500Y-102930097D01*
X117421185Y-102863058D01*
X117437819Y-102842416D01*
X118487819Y-101792416D01*
X118507255Y-101781803D01*
X118523989Y-101767303D01*
X118537320Y-101765386D01*
X118549142Y-101758931D01*
X118571228Y-101760510D01*
X118593147Y-101757359D01*
X118605398Y-101762954D01*
G37*
%TD.AperFunction*%
%TA.AperFunction,Conductor*%
G36*
X103021203Y-103093386D02*
G01*
X103065552Y-103121887D01*
X104706589Y-104762924D01*
X104706610Y-104762947D01*
X104822731Y-104879068D01*
X104822733Y-104879069D01*
X104822734Y-104879070D01*
X104825075Y-104880421D01*
X104825391Y-104880604D01*
X104851079Y-104900314D01*
X105523685Y-105572920D01*
X105525824Y-105575112D01*
X105536007Y-105585811D01*
X105544930Y-105601266D01*
X105656734Y-105713070D01*
X105656736Y-105713071D01*
X105664898Y-105721233D01*
X105863484Y-105919819D01*
X105896969Y-105981142D01*
X105891985Y-106050834D01*
X105850113Y-106106767D01*
X105784649Y-106131184D01*
X105775803Y-106131500D01*
X105441821Y-106131500D01*
X105295451Y-106170719D01*
X105164223Y-106246485D01*
X105140298Y-106270410D01*
X105111489Y-106286139D01*
X105083285Y-106302875D01*
X105080990Y-106302793D01*
X105078974Y-106303894D01*
X105046247Y-106301552D01*
X105013459Y-106300382D01*
X105011572Y-106299071D01*
X105009282Y-106298908D01*
X104983022Y-106279249D01*
X104956067Y-106260534D01*
X104954504Y-106257900D01*
X104953350Y-106257036D01*
X104938057Y-106230180D01*
X104932245Y-106216150D01*
X104911508Y-106166086D01*
X104900791Y-106140212D01*
X104876826Y-106104346D01*
X104818661Y-106017295D01*
X104818660Y-106017294D01*
X104818658Y-106017291D01*
X104714123Y-105912756D01*
X102496071Y-103694703D01*
X102477118Y-103670309D01*
X102472589Y-103662679D01*
X102459394Y-103630821D01*
X102408291Y-103554341D01*
X102406602Y-103551494D01*
X102398742Y-103520716D01*
X102389256Y-103490420D01*
X102390162Y-103487117D01*
X102389314Y-103483796D01*
X102399342Y-103453654D01*
X102407741Y-103423040D01*
X102410289Y-103420750D01*
X102411371Y-103417500D01*
X102436096Y-103397570D01*
X102459720Y-103376350D01*
X102464322Y-103374818D01*
X102465769Y-103373652D01*
X102468809Y-103373324D01*
X102489040Y-103366590D01*
X102523497Y-103359737D01*
X102669179Y-103299394D01*
X102800289Y-103211789D01*
X102890191Y-103121886D01*
X102951512Y-103088402D01*
X103021203Y-103093386D01*
G37*
%TD.AperFunction*%
%TA.AperFunction,Conductor*%
G36*
X115161574Y-97520185D02*
G01*
X115207329Y-97572989D01*
X115217273Y-97642147D01*
X115205869Y-97676926D01*
X115206334Y-97677119D01*
X115143661Y-97828425D01*
X115143658Y-97828437D01*
X115112897Y-97983080D01*
X115112897Y-98140773D01*
X115143658Y-98295416D01*
X115143661Y-98295428D01*
X115203999Y-98441099D01*
X115204006Y-98441112D01*
X115291607Y-98572215D01*
X115291610Y-98572219D01*
X115403104Y-98683713D01*
X115403108Y-98683716D01*
X115534211Y-98771317D01*
X115534224Y-98771324D01*
X115673915Y-98829185D01*
X115679900Y-98831664D01*
X115834550Y-98862426D01*
X115834553Y-98862427D01*
X115834555Y-98862427D01*
X115992241Y-98862427D01*
X115992242Y-98862426D01*
X116146894Y-98831664D01*
X116292576Y-98771321D01*
X116357156Y-98728170D01*
X116405489Y-98695875D01*
X116472166Y-98674997D01*
X116539546Y-98693481D01*
X116562061Y-98711296D01*
X117715139Y-99864374D01*
X117715149Y-99864385D01*
X117719479Y-99868715D01*
X117719480Y-99868716D01*
X117831284Y-99980520D01*
X117897515Y-100018758D01*
X117968215Y-100059577D01*
X118120942Y-100100500D01*
X118120943Y-100100500D01*
X119820234Y-100100500D01*
X119887273Y-100120185D01*
X119889125Y-100121398D01*
X120020814Y-100209390D01*
X120020827Y-100209397D01*
X120117646Y-100249500D01*
X120166503Y-100269737D01*
X120176338Y-100271693D01*
X120187344Y-100273883D01*
X120249255Y-100306268D01*
X120283829Y-100366983D01*
X120280090Y-100436753D01*
X120239224Y-100493425D01*
X120174205Y-100519006D01*
X120163153Y-100519500D01*
X118231940Y-100519500D01*
X118191019Y-100530464D01*
X118191019Y-100530465D01*
X118156528Y-100539707D01*
X118079214Y-100560423D01*
X118079209Y-100560426D01*
X117942290Y-100639475D01*
X117942282Y-100639481D01*
X117412181Y-101169583D01*
X117350858Y-101203068D01*
X117281166Y-101198084D01*
X117225233Y-101156212D01*
X117200816Y-101090748D01*
X117200500Y-101081902D01*
X117200500Y-100971155D01*
X117200499Y-100971153D01*
X117192643Y-100931660D01*
X117169737Y-100816503D01*
X117149708Y-100768149D01*
X117109397Y-100670827D01*
X117109390Y-100670814D01*
X117021789Y-100539711D01*
X117021786Y-100539707D01*
X116910292Y-100428213D01*
X116910288Y-100428210D01*
X116779185Y-100340609D01*
X116779172Y-100340602D01*
X116633501Y-100280264D01*
X116633489Y-100280261D01*
X116478845Y-100249500D01*
X116478842Y-100249500D01*
X116321158Y-100249500D01*
X116321155Y-100249500D01*
X116166510Y-100280261D01*
X116166502Y-100280263D01*
X116108272Y-100304382D01*
X116038802Y-100311849D01*
X115976323Y-100280573D01*
X115940672Y-100220484D01*
X115939204Y-100165630D01*
X115950500Y-100108842D01*
X115950500Y-99951158D01*
X115950500Y-99951155D01*
X115950499Y-99951153D01*
X115934101Y-99868716D01*
X115919737Y-99796503D01*
X115919735Y-99796498D01*
X115859397Y-99650827D01*
X115859390Y-99650814D01*
X115771789Y-99519711D01*
X115771786Y-99519707D01*
X115660292Y-99408213D01*
X115660288Y-99408210D01*
X115529185Y-99320609D01*
X115529172Y-99320602D01*
X115383501Y-99260264D01*
X115383489Y-99260261D01*
X115228845Y-99229500D01*
X115228842Y-99229500D01*
X115071158Y-99229500D01*
X115071155Y-99229500D01*
X114916510Y-99260261D01*
X114916498Y-99260264D01*
X114770827Y-99320602D01*
X114770814Y-99320609D01*
X114639711Y-99408210D01*
X114639707Y-99408213D01*
X114528213Y-99519707D01*
X114528210Y-99519711D01*
X114440609Y-99650814D01*
X114440602Y-99650827D01*
X114380264Y-99796498D01*
X114380261Y-99796510D01*
X114349500Y-99951153D01*
X114349500Y-100108846D01*
X114380261Y-100263489D01*
X114380264Y-100263501D01*
X114440602Y-100409172D01*
X114440609Y-100409185D01*
X114528210Y-100540288D01*
X114528213Y-100540292D01*
X114639707Y-100651786D01*
X114639711Y-100651789D01*
X114770814Y-100739390D01*
X114770827Y-100739397D01*
X114840242Y-100768149D01*
X114916503Y-100799737D01*
X115071153Y-100830499D01*
X115071156Y-100830500D01*
X115071158Y-100830500D01*
X115228844Y-100830500D01*
X115228845Y-100830499D01*
X115383497Y-100799737D01*
X115441726Y-100775617D01*
X115511195Y-100768149D01*
X115573674Y-100799424D01*
X115609326Y-100859513D01*
X115610795Y-100914370D01*
X115599500Y-100971153D01*
X115599500Y-101128846D01*
X115630261Y-101283489D01*
X115630264Y-101283501D01*
X115690602Y-101429172D01*
X115690609Y-101429185D01*
X115778602Y-101560874D01*
X115799480Y-101627551D01*
X115799500Y-101629765D01*
X115799500Y-103149845D01*
X115779815Y-103216884D01*
X115763181Y-103237526D01*
X114552541Y-104448165D01*
X114491218Y-104481650D01*
X114421526Y-104476666D01*
X114365593Y-104434794D01*
X114343243Y-104384675D01*
X114338455Y-104360606D01*
X114319737Y-104266503D01*
X114315735Y-104256841D01*
X114259397Y-104120827D01*
X114259390Y-104120814D01*
X114171789Y-103989711D01*
X114171786Y-103989707D01*
X114060292Y-103878213D01*
X114060288Y-103878210D01*
X113929185Y-103790609D01*
X113929172Y-103790602D01*
X113783501Y-103730264D01*
X113783489Y-103730261D01*
X113628845Y-103699500D01*
X113628842Y-103699500D01*
X113471158Y-103699500D01*
X113471155Y-103699500D01*
X113316510Y-103730261D01*
X113316498Y-103730264D01*
X113170827Y-103790602D01*
X113170814Y-103790609D01*
X113039711Y-103878210D01*
X113039707Y-103878213D01*
X112928213Y-103989707D01*
X112928210Y-103989711D01*
X112840609Y-104120814D01*
X112840602Y-104120827D01*
X112780264Y-104266498D01*
X112780261Y-104266510D01*
X112749500Y-104421153D01*
X112749500Y-104578846D01*
X112768563Y-104674684D01*
X112762336Y-104744276D01*
X112750645Y-104759324D01*
X112752374Y-104760525D01*
X112764413Y-104763370D01*
X112780532Y-104780075D01*
X112799605Y-104793318D01*
X112809654Y-104810256D01*
X112812928Y-104813649D01*
X112817614Y-104823672D01*
X112840602Y-104879172D01*
X112840607Y-104879181D01*
X112928210Y-105010288D01*
X112928213Y-105010292D01*
X113035740Y-105117819D01*
X113046352Y-105137255D01*
X113060853Y-105153989D01*
X113062769Y-105167320D01*
X113069225Y-105179142D01*
X113067645Y-105201228D01*
X113070797Y-105223147D01*
X113065201Y-105235398D01*
X113064241Y-105248834D01*
X113050970Y-105266560D01*
X113041772Y-105286703D01*
X113030440Y-105293985D01*
X113022369Y-105304767D01*
X113001623Y-105312504D01*
X112982994Y-105324477D01*
X112961075Y-105327628D01*
X112956905Y-105329184D01*
X112948059Y-105329500D01*
X112715660Y-105329500D01*
X112648621Y-105309815D01*
X112602866Y-105257011D01*
X112592922Y-105187853D01*
X112594042Y-105181310D01*
X112600500Y-105148841D01*
X112600500Y-104991155D01*
X112581436Y-104895316D01*
X112583505Y-104872192D01*
X112581023Y-104849107D01*
X112586560Y-104838044D01*
X112587663Y-104825724D01*
X112599873Y-104810005D01*
X112585586Y-104806629D01*
X112537070Y-104756349D01*
X112532390Y-104746340D01*
X112509394Y-104690821D01*
X112509390Y-104690814D01*
X112421789Y-104559711D01*
X112421786Y-104559707D01*
X112310292Y-104448213D01*
X112310288Y-104448210D01*
X112179185Y-104360609D01*
X112179172Y-104360602D01*
X112033501Y-104300264D01*
X112033491Y-104300261D01*
X111978014Y-104289226D01*
X111916103Y-104256841D01*
X111914525Y-104255290D01*
X109907590Y-102248355D01*
X109907588Y-102248352D01*
X109788717Y-102129481D01*
X109788709Y-102129475D01*
X109699923Y-102078215D01*
X109699922Y-102078215D01*
X109651785Y-102050423D01*
X109499057Y-102009499D01*
X109340943Y-102009499D01*
X109333347Y-102009499D01*
X109333331Y-102009500D01*
X106788563Y-102009500D01*
X106759610Y-102000998D01*
X106730069Y-101994836D01*
X106726425Y-101991254D01*
X106721524Y-101989815D01*
X106701765Y-101967012D01*
X106680243Y-101945855D01*
X106679114Y-101940871D01*
X106675769Y-101937011D01*
X106671474Y-101907142D01*
X106664808Y-101877712D01*
X106666310Y-101871229D01*
X106665825Y-101867853D01*
X106672015Y-101843161D01*
X106672950Y-101840587D01*
X106729735Y-101703495D01*
X106738186Y-101661007D01*
X106741412Y-101652128D01*
X106756736Y-101631288D01*
X106768727Y-101608365D01*
X106777098Y-101603597D01*
X106782804Y-101595839D01*
X106806962Y-101586592D01*
X106829443Y-101573791D01*
X106840943Y-101573585D01*
X106848057Y-101570863D01*
X106859519Y-101573254D01*
X106882152Y-101572850D01*
X107021155Y-101600500D01*
X107021158Y-101600500D01*
X107178844Y-101600500D01*
X107178845Y-101600499D01*
X107333497Y-101569737D01*
X107479179Y-101509394D01*
X107550919Y-101461459D01*
X107610875Y-101421398D01*
X107677553Y-101400520D01*
X107679766Y-101400500D01*
X110613331Y-101400500D01*
X110613347Y-101400501D01*
X110620943Y-101400501D01*
X110779054Y-101400501D01*
X110779057Y-101400501D01*
X110931785Y-101359577D01*
X111001233Y-101319481D01*
X111068716Y-101280520D01*
X111180520Y-101168716D01*
X111180520Y-101168714D01*
X111190724Y-101158511D01*
X111190727Y-101158506D01*
X114812416Y-97536819D01*
X114839343Y-97522115D01*
X114865162Y-97505523D01*
X114871362Y-97504631D01*
X114873739Y-97503334D01*
X114900097Y-97500500D01*
X115094535Y-97500500D01*
X115161574Y-97520185D01*
G37*
%TD.AperFunction*%
%TA.AperFunction,Conductor*%
G36*
X113647453Y-96570425D02*
G01*
X113766503Y-96619737D01*
X113766515Y-96619739D01*
X113771481Y-96621246D01*
X113829922Y-96659540D01*
X113858382Y-96723351D01*
X113847826Y-96792418D01*
X113823174Y-96827590D01*
X110487584Y-100163181D01*
X110426261Y-100196666D01*
X110399903Y-100199500D01*
X107679766Y-100199500D01*
X107612727Y-100179815D01*
X107610875Y-100178602D01*
X107479185Y-100090609D01*
X107479172Y-100090602D01*
X107333501Y-100030264D01*
X107333489Y-100030261D01*
X107178845Y-99999500D01*
X107178842Y-99999500D01*
X107021158Y-99999500D01*
X107021155Y-99999500D01*
X106866510Y-100030261D01*
X106866498Y-100030264D01*
X106720827Y-100090602D01*
X106720814Y-100090609D01*
X106589711Y-100178210D01*
X106589707Y-100178213D01*
X106478213Y-100289707D01*
X106478210Y-100289711D01*
X106390609Y-100420814D01*
X106390602Y-100420827D01*
X106330264Y-100566498D01*
X106330262Y-100566506D01*
X106323654Y-100599724D01*
X106291267Y-100661634D01*
X106230551Y-100696207D01*
X106177846Y-100697147D01*
X106038844Y-100669498D01*
X106038840Y-100669498D01*
X105881156Y-100669498D01*
X105881153Y-100669498D01*
X105726508Y-100700259D01*
X105726496Y-100700262D01*
X105580825Y-100760600D01*
X105580812Y-100760607D01*
X105449709Y-100848208D01*
X105449705Y-100848211D01*
X105366257Y-100931660D01*
X105304934Y-100965145D01*
X105235242Y-100960161D01*
X105190895Y-100931660D01*
X103895246Y-99636011D01*
X103861761Y-99574688D01*
X103866745Y-99504996D01*
X103879823Y-99479442D01*
X103942957Y-99384957D01*
X103994607Y-99260263D01*
X103999352Y-99248807D01*
X104043193Y-99194403D01*
X104079960Y-99178796D01*
X104079502Y-99177284D01*
X104085324Y-99175517D01*
X104085335Y-99175515D01*
X104231017Y-99115172D01*
X104362127Y-99027567D01*
X104408426Y-98981267D01*
X104434098Y-98961566D01*
X104494080Y-98926936D01*
X104494082Y-98926934D01*
X104494085Y-98926934D01*
X104564461Y-98886302D01*
X104564460Y-98886302D01*
X104564468Y-98886298D01*
X104676272Y-98774494D01*
X104676273Y-98774491D01*
X104676961Y-98773802D01*
X104738284Y-98740318D01*
X104807976Y-98745302D01*
X104833534Y-98758382D01*
X104947287Y-98834390D01*
X104947300Y-98834397D01*
X105072602Y-98886298D01*
X105092976Y-98894737D01*
X105227316Y-98921459D01*
X105247626Y-98925499D01*
X105247629Y-98925500D01*
X105247631Y-98925500D01*
X105405317Y-98925500D01*
X105405318Y-98925499D01*
X105559970Y-98894737D01*
X105705652Y-98834394D01*
X105836762Y-98746789D01*
X105948262Y-98635289D01*
X106035867Y-98504179D01*
X106038820Y-98497050D01*
X106051363Y-98481484D01*
X106059669Y-98463297D01*
X106072839Y-98454832D01*
X106082660Y-98442646D01*
X106101627Y-98436332D01*
X106118447Y-98425523D01*
X106146003Y-98421560D01*
X106148953Y-98420579D01*
X106153382Y-98420500D01*
X106176442Y-98420500D01*
X106243481Y-98440185D01*
X106289236Y-98492989D01*
X106297341Y-98523060D01*
X106298311Y-98522868D01*
X106330261Y-98683489D01*
X106330264Y-98683501D01*
X106390602Y-98829172D01*
X106390609Y-98829185D01*
X106478210Y-98960288D01*
X106478213Y-98960292D01*
X106589707Y-99071786D01*
X106589711Y-99071789D01*
X106720814Y-99159390D01*
X106720827Y-99159397D01*
X106866498Y-99219735D01*
X106866503Y-99219737D01*
X107012647Y-99248807D01*
X107021153Y-99250499D01*
X107021156Y-99250500D01*
X107021158Y-99250500D01*
X107178844Y-99250500D01*
X107178845Y-99250499D01*
X107333497Y-99219737D01*
X107479179Y-99159394D01*
X107610289Y-99071789D01*
X107721789Y-98960289D01*
X107809394Y-98829179D01*
X107869737Y-98683497D01*
X107884488Y-98609334D01*
X107901689Y-98522868D01*
X107903812Y-98523290D01*
X107926315Y-98467560D01*
X107983349Y-98427200D01*
X108023558Y-98420500D01*
X111143331Y-98420500D01*
X111143347Y-98420501D01*
X111150943Y-98420501D01*
X111309054Y-98420501D01*
X111309057Y-98420501D01*
X111461785Y-98379577D01*
X111527374Y-98341709D01*
X111598716Y-98300520D01*
X111710520Y-98188716D01*
X111710520Y-98188714D01*
X111720724Y-98178511D01*
X111720727Y-98178506D01*
X113214664Y-96684571D01*
X113275985Y-96651088D01*
X113278152Y-96650637D01*
X113278841Y-96650500D01*
X113278842Y-96650500D01*
X113433497Y-96619737D01*
X113552548Y-96570425D01*
X113622017Y-96562956D01*
X113647453Y-96570425D01*
G37*
%TD.AperFunction*%
%TD*%
M02*
