%TF.GenerationSoftware,KiCad,Pcbnew,9.0.7*%
%TF.CreationDate,2026-03-22T17:03:30+01:00*%
%TF.ProjectId,SnapCore-Devboard-Rev1,536e6170-436f-4726-952d-446576626f61,rev?*%
%TF.SameCoordinates,Original*%
%TF.FileFunction,Legend,Top*%
%TF.FilePolarity,Positive*%
%FSLAX46Y46*%
G04 Gerber Fmt 4.6, Leading zero omitted, Abs format (unit mm)*
G04 Created by KiCad (PCBNEW 9.0.7) date 2026-03-22 17:03:30*
%MOMM*%
%LPD*%
G01*
G04 APERTURE LIST*
G04 Aperture macros list*
%AMRoundRect*
0 Rectangle with rounded corners*
0 $1 Rounding radius*
0 $2 $3 $4 $5 $6 $7 $8 $9 X,Y pos of 4 corners*
0 Add a 4 corners polygon primitive as box body*
4,1,4,$2,$3,$4,$5,$6,$7,$8,$9,$2,$3,0*
0 Add four circle primitives for the rounded corners*
1,1,$1+$1,$2,$3*
1,1,$1+$1,$4,$5*
1,1,$1+$1,$6,$7*
1,1,$1+$1,$8,$9*
0 Add four rect primitives between the rounded corners*
20,1,$1+$1,$2,$3,$4,$5,0*
20,1,$1+$1,$4,$5,$6,$7,0*
20,1,$1+$1,$6,$7,$8,$9,0*
20,1,$1+$1,$8,$9,$2,$3,0*%
G04 Aperture macros list end*
%ADD10C,0.187500*%
%ADD11C,0.100000*%
%ADD12C,0.250000*%
%ADD13C,0.150000*%
%ADD14C,0.120000*%
%ADD15C,0.127000*%
%ADD16C,0.200000*%
%ADD17RoundRect,0.140000X-0.170000X0.140000X-0.170000X-0.140000X0.170000X-0.140000X0.170000X0.140000X0*%
%ADD18RoundRect,0.102000X0.800000X-0.400000X0.800000X0.400000X-0.800000X0.400000X-0.800000X-0.400000X0*%
%ADD19RoundRect,0.135000X-0.185000X0.135000X-0.185000X-0.135000X0.185000X-0.135000X0.185000X0.135000X0*%
%ADD20RoundRect,0.135000X0.185000X-0.135000X0.185000X0.135000X-0.185000X0.135000X-0.185000X-0.135000X0*%
%ADD21RoundRect,0.200000X-0.275000X0.200000X-0.275000X-0.200000X0.275000X-0.200000X0.275000X0.200000X0*%
%ADD22RoundRect,0.140000X-0.140000X-0.170000X0.140000X-0.170000X0.140000X0.170000X-0.140000X0.170000X0*%
%ADD23RoundRect,0.140000X0.170000X-0.140000X0.170000X0.140000X-0.170000X0.140000X-0.170000X-0.140000X0*%
%ADD24RoundRect,0.243750X-0.243750X-0.456250X0.243750X-0.456250X0.243750X0.456250X-0.243750X0.456250X0*%
%ADD25RoundRect,0.150000X-0.587500X-0.150000X0.587500X-0.150000X0.587500X0.150000X-0.587500X0.150000X0*%
%ADD26RoundRect,0.250000X-0.475000X0.250000X-0.475000X-0.250000X0.475000X-0.250000X0.475000X0.250000X0*%
%ADD27RoundRect,0.218750X-0.256250X0.218750X-0.256250X-0.218750X0.256250X-0.218750X0.256250X0.218750X0*%
%ADD28C,0.250000*%
%ADD29R,4.850000X4.850000*%
%ADD30C,3.500000*%
%ADD31RoundRect,0.140000X0.140000X0.170000X-0.140000X0.170000X-0.140000X-0.170000X0.140000X-0.170000X0*%
%ADD32RoundRect,0.150000X0.150000X0.200000X-0.150000X0.200000X-0.150000X-0.200000X0.150000X-0.200000X0*%
%ADD33RoundRect,0.147500X-0.147500X-0.172500X0.147500X-0.172500X0.147500X0.172500X-0.147500X0.172500X0*%
%ADD34RoundRect,0.225000X0.250000X-0.225000X0.250000X0.225000X-0.250000X0.225000X-0.250000X-0.225000X0*%
%ADD35RoundRect,0.200000X0.250000X0.200000X-0.250000X0.200000X-0.250000X-0.200000X0.250000X-0.200000X0*%
%ADD36R,0.750000X1.000000*%
%ADD37RoundRect,0.135000X-0.135000X-0.185000X0.135000X-0.185000X0.135000X0.185000X-0.135000X0.185000X0*%
%ADD38O,2.000000X1.700000*%
%ADD39RoundRect,0.250000X0.750000X-0.600000X0.750000X0.600000X-0.750000X0.600000X-0.750000X-0.600000X0*%
%ADD40RoundRect,0.250000X0.375000X0.625000X-0.375000X0.625000X-0.375000X-0.625000X0.375000X-0.625000X0*%
%ADD41RoundRect,0.200000X0.200000X0.275000X-0.200000X0.275000X-0.200000X-0.275000X0.200000X-0.275000X0*%
%ADD42RoundRect,0.200000X0.275000X-0.200000X0.275000X0.200000X-0.275000X0.200000X-0.275000X-0.200000X0*%
%ADD43RoundRect,0.225000X0.225000X0.250000X-0.225000X0.250000X-0.225000X-0.250000X0.225000X-0.250000X0*%
%ADD44R,2.410000X3.300000*%
%ADD45RoundRect,0.150000X-0.825000X-0.150000X0.825000X-0.150000X0.825000X0.150000X-0.825000X0.150000X0*%
%ADD46O,1.000000X1.800000*%
%ADD47O,1.000000X2.100000*%
%ADD48RoundRect,0.150000X-0.150000X-0.425000X0.150000X-0.425000X0.150000X0.425000X-0.150000X0.425000X0*%
%ADD49RoundRect,0.075000X-0.075000X-0.500000X0.075000X-0.500000X0.075000X0.500000X-0.075000X0.500000X0*%
%ADD50C,0.650000*%
%ADD51RoundRect,0.200000X-0.200000X-0.275000X0.200000X-0.275000X0.200000X0.275000X-0.200000X0.275000X0*%
%ADD52RoundRect,0.135000X0.135000X0.185000X-0.135000X0.185000X-0.135000X-0.185000X0.135000X-0.185000X0*%
%ADD53RoundRect,0.150000X-0.512500X-0.150000X0.512500X-0.150000X0.512500X0.150000X-0.512500X0.150000X0*%
%ADD54RoundRect,0.147500X0.172500X-0.147500X0.172500X0.147500X-0.172500X0.147500X-0.172500X-0.147500X0*%
%ADD55RoundRect,0.250000X-0.250000X-0.475000X0.250000X-0.475000X0.250000X0.475000X-0.250000X0.475000X0*%
%ADD56C,1.000000*%
%ADD57R,1.000000X1.000000*%
%ADD58RoundRect,0.225000X-0.225000X-0.250000X0.225000X-0.250000X0.225000X0.250000X-0.225000X0.250000X0*%
G04 APERTURE END LIST*
D10*
X102942869Y-114638549D02*
X101942869Y-114638549D01*
X101942869Y-114638549D02*
X101942869Y-114257597D01*
X101942869Y-114257597D02*
X101990488Y-114162359D01*
X101990488Y-114162359D02*
X102038107Y-114114740D01*
X102038107Y-114114740D02*
X102133345Y-114067121D01*
X102133345Y-114067121D02*
X102276202Y-114067121D01*
X102276202Y-114067121D02*
X102371440Y-114114740D01*
X102371440Y-114114740D02*
X102419059Y-114162359D01*
X102419059Y-114162359D02*
X102466678Y-114257597D01*
X102466678Y-114257597D02*
X102466678Y-114638549D01*
X101942869Y-113733787D02*
X102942869Y-113495692D01*
X102942869Y-113495692D02*
X102228583Y-113305216D01*
X102228583Y-113305216D02*
X102942869Y-113114740D01*
X102942869Y-113114740D02*
X101942869Y-112876645D01*
X102942869Y-111924264D02*
X102466678Y-112257597D01*
X102942869Y-112495692D02*
X101942869Y-112495692D01*
X101942869Y-112495692D02*
X101942869Y-112114740D01*
X101942869Y-112114740D02*
X101990488Y-112019502D01*
X101990488Y-112019502D02*
X102038107Y-111971883D01*
X102038107Y-111971883D02*
X102133345Y-111924264D01*
X102133345Y-111924264D02*
X102276202Y-111924264D01*
X102276202Y-111924264D02*
X102371440Y-111971883D01*
X102371440Y-111971883D02*
X102419059Y-112019502D01*
X102419059Y-112019502D02*
X102466678Y-112114740D01*
X102466678Y-112114740D02*
X102466678Y-112495692D01*
D11*
X120175000Y-102651043D02*
X119850000Y-102476043D01*
X119850000Y-102326043D01*
X120175000Y-102176043D01*
X120175000Y-102651043D01*
G36*
X120175000Y-102651043D02*
G01*
X119850000Y-102476043D01*
X119850000Y-102326043D01*
X120175000Y-102176043D01*
X120175000Y-102651043D01*
G37*
X121100000Y-102251043D02*
X121025000Y-102601043D01*
X120500000Y-102801043D01*
X120200000Y-102776043D01*
X120200000Y-102026043D01*
X120400000Y-101976043D01*
X121100000Y-102251043D01*
G36*
X121100000Y-102251043D02*
G01*
X121025000Y-102601043D01*
X120500000Y-102801043D01*
X120200000Y-102776043D01*
X120200000Y-102026043D01*
X120400000Y-101976043D01*
X121100000Y-102251043D01*
G37*
X121150000Y-101001043D02*
X120150000Y-101401043D01*
X120150000Y-101701043D01*
X121150000Y-102101043D01*
X121150000Y-102701043D01*
X120150000Y-103076043D01*
X120150000Y-103401043D01*
X121150000Y-103801043D01*
X121150000Y-104101043D01*
X119850000Y-103501043D01*
X119850000Y-102901043D01*
X121150000Y-102401043D01*
X119850000Y-101901043D01*
X119850000Y-101251043D01*
X121150000Y-100701043D01*
X121150000Y-101001043D01*
G36*
X121150000Y-101001043D02*
G01*
X120150000Y-101401043D01*
X120150000Y-101701043D01*
X121150000Y-102101043D01*
X121150000Y-102701043D01*
X120150000Y-103076043D01*
X120150000Y-103401043D01*
X121150000Y-103801043D01*
X121150000Y-104101043D01*
X119850000Y-103501043D01*
X119850000Y-102901043D01*
X121150000Y-102401043D01*
X119850000Y-101901043D01*
X119850000Y-101251043D01*
X121150000Y-100701043D01*
X121150000Y-101001043D01*
G37*
D12*
X122854675Y-103998474D02*
X121854675Y-103998474D01*
X121854675Y-103998474D02*
X122568960Y-103665141D01*
X122568960Y-103665141D02*
X121854675Y-103331808D01*
X121854675Y-103331808D02*
X122854675Y-103331808D01*
X122854675Y-102427046D02*
X122330865Y-102427046D01*
X122330865Y-102427046D02*
X122235627Y-102474665D01*
X122235627Y-102474665D02*
X122188008Y-102569903D01*
X122188008Y-102569903D02*
X122188008Y-102760379D01*
X122188008Y-102760379D02*
X122235627Y-102855617D01*
X122807056Y-102427046D02*
X122854675Y-102522284D01*
X122854675Y-102522284D02*
X122854675Y-102760379D01*
X122854675Y-102760379D02*
X122807056Y-102855617D01*
X122807056Y-102855617D02*
X122711817Y-102903236D01*
X122711817Y-102903236D02*
X122616579Y-102903236D01*
X122616579Y-102903236D02*
X122521341Y-102855617D01*
X122521341Y-102855617D02*
X122473722Y-102760379D01*
X122473722Y-102760379D02*
X122473722Y-102522284D01*
X122473722Y-102522284D02*
X122426103Y-102427046D01*
X122188008Y-101522284D02*
X122997532Y-101522284D01*
X122997532Y-101522284D02*
X123092770Y-101569903D01*
X123092770Y-101569903D02*
X123140389Y-101617522D01*
X123140389Y-101617522D02*
X123188008Y-101712760D01*
X123188008Y-101712760D02*
X123188008Y-101855617D01*
X123188008Y-101855617D02*
X123140389Y-101950855D01*
X122807056Y-101522284D02*
X122854675Y-101617522D01*
X122854675Y-101617522D02*
X122854675Y-101807998D01*
X122854675Y-101807998D02*
X122807056Y-101903236D01*
X122807056Y-101903236D02*
X122759436Y-101950855D01*
X122759436Y-101950855D02*
X122664198Y-101998474D01*
X122664198Y-101998474D02*
X122378484Y-101998474D01*
X122378484Y-101998474D02*
X122283246Y-101950855D01*
X122283246Y-101950855D02*
X122235627Y-101903236D01*
X122235627Y-101903236D02*
X122188008Y-101807998D01*
X122188008Y-101807998D02*
X122188008Y-101617522D01*
X122188008Y-101617522D02*
X122235627Y-101522284D01*
X122188008Y-101046093D02*
X122854675Y-101046093D01*
X122283246Y-101046093D02*
X122235627Y-100998474D01*
X122235627Y-100998474D02*
X122188008Y-100903236D01*
X122188008Y-100903236D02*
X122188008Y-100760379D01*
X122188008Y-100760379D02*
X122235627Y-100665141D01*
X122235627Y-100665141D02*
X122330865Y-100617522D01*
X122330865Y-100617522D02*
X122854675Y-100617522D01*
X122807056Y-99760379D02*
X122854675Y-99855617D01*
X122854675Y-99855617D02*
X122854675Y-100046093D01*
X122854675Y-100046093D02*
X122807056Y-100141331D01*
X122807056Y-100141331D02*
X122711817Y-100188950D01*
X122711817Y-100188950D02*
X122330865Y-100188950D01*
X122330865Y-100188950D02*
X122235627Y-100141331D01*
X122235627Y-100141331D02*
X122188008Y-100046093D01*
X122188008Y-100046093D02*
X122188008Y-99855617D01*
X122188008Y-99855617D02*
X122235627Y-99760379D01*
X122235627Y-99760379D02*
X122330865Y-99712760D01*
X122330865Y-99712760D02*
X122426103Y-99712760D01*
X122426103Y-99712760D02*
X122521341Y-100188950D01*
X122188008Y-99427045D02*
X122188008Y-99046093D01*
X121854675Y-99284188D02*
X122711817Y-99284188D01*
X122711817Y-99284188D02*
X122807056Y-99236569D01*
X122807056Y-99236569D02*
X122854675Y-99141331D01*
X122854675Y-99141331D02*
X122854675Y-99046093D01*
X122854675Y-98712759D02*
X122188008Y-98712759D01*
X121854675Y-98712759D02*
X121902294Y-98760378D01*
X121902294Y-98760378D02*
X121949913Y-98712759D01*
X121949913Y-98712759D02*
X121902294Y-98665140D01*
X121902294Y-98665140D02*
X121854675Y-98712759D01*
X121854675Y-98712759D02*
X121949913Y-98712759D01*
X122854675Y-98093712D02*
X122807056Y-98188950D01*
X122807056Y-98188950D02*
X122711817Y-98236569D01*
X122711817Y-98236569D02*
X121854675Y-98236569D01*
X122807056Y-97331807D02*
X122854675Y-97427045D01*
X122854675Y-97427045D02*
X122854675Y-97617521D01*
X122854675Y-97617521D02*
X122807056Y-97712759D01*
X122807056Y-97712759D02*
X122711817Y-97760378D01*
X122711817Y-97760378D02*
X122330865Y-97760378D01*
X122330865Y-97760378D02*
X122235627Y-97712759D01*
X122235627Y-97712759D02*
X122188008Y-97617521D01*
X122188008Y-97617521D02*
X122188008Y-97427045D01*
X122188008Y-97427045D02*
X122235627Y-97331807D01*
X122235627Y-97331807D02*
X122330865Y-97284188D01*
X122330865Y-97284188D02*
X122426103Y-97284188D01*
X122426103Y-97284188D02*
X122521341Y-97760378D01*
X124464619Y-103427046D02*
X123988428Y-103760379D01*
X124464619Y-103998474D02*
X123464619Y-103998474D01*
X123464619Y-103998474D02*
X123464619Y-103617522D01*
X123464619Y-103617522D02*
X123512238Y-103522284D01*
X123512238Y-103522284D02*
X123559857Y-103474665D01*
X123559857Y-103474665D02*
X123655095Y-103427046D01*
X123655095Y-103427046D02*
X123797952Y-103427046D01*
X123797952Y-103427046D02*
X123893190Y-103474665D01*
X123893190Y-103474665D02*
X123940809Y-103522284D01*
X123940809Y-103522284D02*
X123988428Y-103617522D01*
X123988428Y-103617522D02*
X123988428Y-103998474D01*
X124417000Y-102617522D02*
X124464619Y-102712760D01*
X124464619Y-102712760D02*
X124464619Y-102903236D01*
X124464619Y-102903236D02*
X124417000Y-102998474D01*
X124417000Y-102998474D02*
X124321761Y-103046093D01*
X124321761Y-103046093D02*
X123940809Y-103046093D01*
X123940809Y-103046093D02*
X123845571Y-102998474D01*
X123845571Y-102998474D02*
X123797952Y-102903236D01*
X123797952Y-102903236D02*
X123797952Y-102712760D01*
X123797952Y-102712760D02*
X123845571Y-102617522D01*
X123845571Y-102617522D02*
X123940809Y-102569903D01*
X123940809Y-102569903D02*
X124036047Y-102569903D01*
X124036047Y-102569903D02*
X124131285Y-103046093D01*
X123797952Y-102236569D02*
X124464619Y-101998474D01*
X124464619Y-101998474D02*
X123797952Y-101760379D01*
X124464619Y-100093712D02*
X124464619Y-100665140D01*
X124464619Y-100379426D02*
X123464619Y-100379426D01*
X123464619Y-100379426D02*
X123607476Y-100474664D01*
X123607476Y-100474664D02*
X123702714Y-100569902D01*
X123702714Y-100569902D02*
X123750333Y-100665140D01*
D13*
X99629819Y-123652381D02*
X99153628Y-123985714D01*
X99629819Y-124223809D02*
X98629819Y-124223809D01*
X98629819Y-124223809D02*
X98629819Y-123842857D01*
X98629819Y-123842857D02*
X98677438Y-123747619D01*
X98677438Y-123747619D02*
X98725057Y-123700000D01*
X98725057Y-123700000D02*
X98820295Y-123652381D01*
X98820295Y-123652381D02*
X98963152Y-123652381D01*
X98963152Y-123652381D02*
X99058390Y-123700000D01*
X99058390Y-123700000D02*
X99106009Y-123747619D01*
X99106009Y-123747619D02*
X99153628Y-123842857D01*
X99153628Y-123842857D02*
X99153628Y-124223809D01*
X99106009Y-123223809D02*
X99106009Y-122890476D01*
X99629819Y-122747619D02*
X99629819Y-123223809D01*
X99629819Y-123223809D02*
X98629819Y-123223809D01*
X98629819Y-123223809D02*
X98629819Y-122747619D01*
X99582200Y-122366666D02*
X99629819Y-122223809D01*
X99629819Y-122223809D02*
X99629819Y-121985714D01*
X99629819Y-121985714D02*
X99582200Y-121890476D01*
X99582200Y-121890476D02*
X99534580Y-121842857D01*
X99534580Y-121842857D02*
X99439342Y-121795238D01*
X99439342Y-121795238D02*
X99344104Y-121795238D01*
X99344104Y-121795238D02*
X99248866Y-121842857D01*
X99248866Y-121842857D02*
X99201247Y-121890476D01*
X99201247Y-121890476D02*
X99153628Y-121985714D01*
X99153628Y-121985714D02*
X99106009Y-122176190D01*
X99106009Y-122176190D02*
X99058390Y-122271428D01*
X99058390Y-122271428D02*
X99010771Y-122319047D01*
X99010771Y-122319047D02*
X98915533Y-122366666D01*
X98915533Y-122366666D02*
X98820295Y-122366666D01*
X98820295Y-122366666D02*
X98725057Y-122319047D01*
X98725057Y-122319047D02*
X98677438Y-122271428D01*
X98677438Y-122271428D02*
X98629819Y-122176190D01*
X98629819Y-122176190D02*
X98629819Y-121938095D01*
X98629819Y-121938095D02*
X98677438Y-121795238D01*
X99106009Y-121366666D02*
X99106009Y-121033333D01*
X99629819Y-120890476D02*
X99629819Y-121366666D01*
X99629819Y-121366666D02*
X98629819Y-121366666D01*
X98629819Y-121366666D02*
X98629819Y-120890476D01*
X98629819Y-120604761D02*
X98629819Y-120033333D01*
X99629819Y-120319047D02*
X98629819Y-120319047D01*
X123731009Y-121638095D02*
X123778628Y-121495238D01*
X123778628Y-121495238D02*
X123826247Y-121447619D01*
X123826247Y-121447619D02*
X123921485Y-121400000D01*
X123921485Y-121400000D02*
X124064342Y-121400000D01*
X124064342Y-121400000D02*
X124159580Y-121447619D01*
X124159580Y-121447619D02*
X124207200Y-121495238D01*
X124207200Y-121495238D02*
X124254819Y-121590476D01*
X124254819Y-121590476D02*
X124254819Y-121971428D01*
X124254819Y-121971428D02*
X123254819Y-121971428D01*
X123254819Y-121971428D02*
X123254819Y-121638095D01*
X123254819Y-121638095D02*
X123302438Y-121542857D01*
X123302438Y-121542857D02*
X123350057Y-121495238D01*
X123350057Y-121495238D02*
X123445295Y-121447619D01*
X123445295Y-121447619D02*
X123540533Y-121447619D01*
X123540533Y-121447619D02*
X123635771Y-121495238D01*
X123635771Y-121495238D02*
X123683390Y-121542857D01*
X123683390Y-121542857D02*
X123731009Y-121638095D01*
X123731009Y-121638095D02*
X123731009Y-121971428D01*
X123969104Y-121019047D02*
X123969104Y-120542857D01*
X124254819Y-121114285D02*
X123254819Y-120780952D01*
X123254819Y-120780952D02*
X124254819Y-120447619D01*
X123254819Y-120257142D02*
X123254819Y-119685714D01*
X124254819Y-119971428D02*
X123254819Y-119971428D01*
D14*
%TO.C,C21*%
X106160000Y-96342164D02*
X106160000Y-96557836D01*
X105440000Y-96342164D02*
X105440000Y-96557836D01*
D15*
%TO.C,AE2*%
X112500000Y-87050000D02*
X112500000Y-85850000D01*
X110900000Y-87050000D02*
X110900000Y-85850000D01*
D16*
X111800000Y-89008000D02*
G75*
G02*
X111600000Y-89008000I-100000J0D01*
G01*
X111600000Y-89008000D02*
G75*
G02*
X111800000Y-89008000I100000J0D01*
G01*
D14*
%TO.C,R17*%
X112580000Y-106396359D02*
X112580000Y-106703641D01*
X111820000Y-106396359D02*
X111820000Y-106703641D01*
%TO.C,R9*%
X104480000Y-116293641D02*
X104480000Y-115986359D01*
X103720000Y-116293641D02*
X103720000Y-115986359D01*
%TO.C,R3*%
X116622500Y-109812742D02*
X116622500Y-110287258D01*
X115577500Y-109812742D02*
X115577500Y-110287258D01*
%TO.C,C24*%
X119372164Y-112770000D02*
X119587836Y-112770000D01*
X119372164Y-112050000D02*
X119587836Y-112050000D01*
%TO.C,C2*%
X122670000Y-105737836D02*
X122670000Y-105522164D01*
X121950000Y-105737836D02*
X121950000Y-105522164D01*
%TO.C,C19*%
X106460000Y-93217164D02*
X106460000Y-93432836D01*
X105740000Y-93217164D02*
X105740000Y-93432836D01*
%TO.C,D2*%
X122202500Y-109390000D02*
X119517500Y-109390000D01*
X119517500Y-111310000D02*
X122202500Y-111310000D01*
X119517500Y-109390000D02*
X119517500Y-111310000D01*
%TO.C,Q1*%
X114840000Y-120250000D02*
X114360000Y-120250000D01*
X114600000Y-119920000D01*
X114840000Y-120250000D01*
G36*
X114840000Y-120250000D02*
G01*
X114360000Y-120250000D01*
X114600000Y-119920000D01*
X114840000Y-120250000D01*
G37*
X116660000Y-121860000D02*
X115140000Y-121860000D01*
X116660000Y-120860000D02*
X116660000Y-121860000D01*
X116660000Y-118740000D02*
X116660000Y-119740000D01*
X115140000Y-121860000D02*
X115140000Y-121810000D01*
X115140000Y-120690000D02*
X115140000Y-119910000D01*
X115140000Y-118790000D02*
X115140000Y-118740000D01*
X115140000Y-118740000D02*
X116660000Y-118740000D01*
%TO.C,C7*%
X118305000Y-93838748D02*
X118305000Y-94361252D01*
X116835000Y-93838748D02*
X116835000Y-94361252D01*
%TO.C,RED1*%
X104825000Y-114370000D02*
X104825000Y-112085000D01*
X104825000Y-112085000D02*
X103355000Y-112085000D01*
X103355000Y-112085000D02*
X103355000Y-114370000D01*
%TO.C,R5*%
X106222500Y-111712742D02*
X106222500Y-112187258D01*
X105177500Y-111712742D02*
X105177500Y-112187258D01*
%TO.C,U1*%
X107532500Y-104697500D02*
X107032500Y-104197500D01*
X107532500Y-104197500D01*
X107532500Y-104697500D01*
G36*
X107532500Y-104697500D02*
G01*
X107032500Y-104197500D01*
X107532500Y-104197500D01*
X107532500Y-104697500D01*
G37*
X114752500Y-104197500D02*
X114752500Y-96977500D01*
X114752500Y-96977500D02*
X107532500Y-96977500D01*
X108662500Y-104197500D02*
X114752500Y-104197500D01*
X107532500Y-96977500D02*
X107532500Y-103067500D01*
%TO.C,C16*%
X110512836Y-91210000D02*
X110297164Y-91210000D01*
X110512836Y-90490000D02*
X110297164Y-90490000D01*
%TO.C,D5*%
X114050000Y-115750000D02*
X112090000Y-115750000D01*
X114050000Y-114550000D02*
X112090000Y-114550000D01*
X112090000Y-114550000D02*
X112090000Y-115750000D01*
%TO.C,C20*%
X104062164Y-94560000D02*
X104277836Y-94560000D01*
X104062164Y-93840000D02*
X104277836Y-93840000D01*
%TO.C,C3*%
X108260000Y-117407836D02*
X108260000Y-117192164D01*
X107540000Y-117407836D02*
X107540000Y-117192164D01*
%TO.C,C18*%
X107920000Y-93325580D02*
X107920000Y-93044420D01*
X106900000Y-93325580D02*
X106900000Y-93044420D01*
%TO.C,Y1*%
X109110000Y-107880000D02*
X109110000Y-105460000D01*
X109110000Y-105460000D02*
X106290000Y-105460000D01*
%TO.C,C15*%
X110292164Y-93415000D02*
X110507836Y-93415000D01*
X110292164Y-94135000D02*
X110507836Y-94135000D01*
%TO.C,RESET*%
X105340000Y-123260000D02*
X105340000Y-120660000D01*
X104890000Y-123710000D02*
X105340000Y-123260000D01*
X104890000Y-120210000D02*
X105340000Y-120660000D01*
X101590000Y-124710000D02*
X103590000Y-124710000D01*
X101590000Y-119210000D02*
X103590000Y-119210000D01*
X100290000Y-123710000D02*
X99840000Y-123260000D01*
X100290000Y-120210000D02*
X99840000Y-120660000D01*
X99840000Y-123260000D02*
X99840000Y-120660000D01*
%TO.C,R6*%
X107986359Y-120180000D02*
X108293641Y-120180000D01*
X107986359Y-119420000D02*
X108293641Y-119420000D01*
%TO.C,C13*%
X117357836Y-104610000D02*
X117142164Y-104610000D01*
X117357836Y-103890000D02*
X117142164Y-103890000D01*
%TO.C,BAT*%
X118390000Y-124960000D02*
X122410000Y-124960000D01*
X122410000Y-117240000D01*
X118390000Y-117240000D01*
X118390000Y-124960000D01*
X122710000Y-125260000D02*
X122710000Y-122760000D01*
X120910000Y-124960000D02*
X120910000Y-123960000D01*
X120910000Y-123960000D02*
X122410000Y-123960000D01*
X120910000Y-118240000D02*
X122410000Y-118240000D01*
X120910000Y-117240000D02*
X120910000Y-118240000D01*
X120210000Y-125260000D02*
X122710000Y-125260000D01*
X120100000Y-124960000D02*
X120100000Y-124460000D01*
X120100000Y-124460000D02*
X118890000Y-124460000D01*
X120100000Y-117740000D02*
X120100000Y-117240000D01*
X118890000Y-124460000D02*
X118890000Y-117740000D01*
X118890000Y-117740000D02*
X120100000Y-117740000D01*
%TO.C,F2*%
X122302064Y-115110000D02*
X121097936Y-115110000D01*
X122302064Y-113290000D02*
X121097936Y-113290000D01*
%TO.C,R4*%
X117087258Y-112972500D02*
X116612742Y-112972500D01*
X117087258Y-111927500D02*
X116612742Y-111927500D01*
%TO.C,C10*%
X110130000Y-107002164D02*
X110130000Y-107217836D01*
X109410000Y-107002164D02*
X109410000Y-107217836D01*
%TO.C,R22*%
X105822500Y-100087258D02*
X105822500Y-99612742D01*
X104777500Y-100087258D02*
X104777500Y-99612742D01*
%TO.C,C11*%
X116090580Y-106960000D02*
X115809420Y-106960000D01*
X116090580Y-105940000D02*
X115809420Y-105940000D01*
%TO.C,U5*%
X108320000Y-109100000D02*
X108080000Y-108770000D01*
X108560000Y-108770000D01*
X108320000Y-109100000D01*
G36*
X108320000Y-109100000D02*
G01*
X108080000Y-108770000D01*
X108560000Y-108770000D01*
X108320000Y-109100000D01*
G37*
X112980000Y-114130000D02*
X108860000Y-114130000D01*
X112980000Y-114035000D02*
X112980000Y-114130000D01*
X112980000Y-109010000D02*
X112980000Y-109105000D01*
X108860000Y-114130000D02*
X108860000Y-114035000D01*
X108860000Y-109105000D02*
X108860000Y-109010000D01*
X108860000Y-109010000D02*
X112980000Y-109010000D01*
%TO.C,C14*%
X113160000Y-94262164D02*
X113160000Y-94477836D01*
X112440000Y-94262164D02*
X112440000Y-94477836D01*
%TO.C,J2*%
X115650000Y-127015000D02*
X115650000Y-125315000D01*
X106310000Y-127015000D02*
X106310000Y-125315000D01*
%TO.C,R23*%
X118337742Y-100822500D02*
X118812258Y-100822500D01*
X118337742Y-99777500D02*
X118812258Y-99777500D01*
%TO.C,R2*%
X112113641Y-122050000D02*
X111806359Y-122050000D01*
X112113641Y-121290000D02*
X111806359Y-121290000D01*
%TO.C,C1*%
X114360000Y-117612164D02*
X114360000Y-117827836D01*
X113640000Y-117612164D02*
X113640000Y-117827836D01*
%TO.C,R19*%
X118153641Y-102190000D02*
X117846359Y-102190000D01*
X118153641Y-101430000D02*
X117846359Y-101430000D01*
%TO.C,R20*%
X118153641Y-103230000D02*
X117846359Y-103230000D01*
X118153641Y-102470000D02*
X117846359Y-102470000D01*
%TO.C,U2*%
X109560000Y-116050000D02*
X109320000Y-115720000D01*
X109800000Y-115720000D01*
X109560000Y-116050000D01*
G36*
X109560000Y-116050000D02*
G01*
X109320000Y-115720000D01*
X109800000Y-115720000D01*
X109560000Y-116050000D01*
G37*
X111920000Y-119120000D02*
X110100000Y-119120000D01*
X111920000Y-119070000D02*
X111920000Y-119120000D01*
X111920000Y-117170000D02*
X111920000Y-117950000D01*
X111920000Y-116000000D02*
X111920000Y-116050000D01*
X110100000Y-119120000D02*
X110100000Y-119070000D01*
X110100000Y-116050000D02*
X110100000Y-116000000D01*
X110100000Y-116000000D02*
X111920000Y-116000000D01*
%TO.C,R1*%
X109826359Y-122060000D02*
X110133641Y-122060000D01*
X109826359Y-121300000D02*
X110133641Y-121300000D01*
%TO.C,D1*%
X122220000Y-107200000D02*
X119535000Y-107200000D01*
X119535000Y-109120000D02*
X122220000Y-109120000D01*
X119535000Y-107200000D02*
X119535000Y-109120000D01*
%TO.C,C22*%
X115430000Y-93997836D02*
X115430000Y-93782164D01*
X114710000Y-93997836D02*
X114710000Y-93782164D01*
%TO.C,C23*%
X116138748Y-116285000D02*
X116661252Y-116285000D01*
X116138748Y-114815000D02*
X116661252Y-114815000D01*
%TO.C,R18*%
X119780000Y-96186359D02*
X119780000Y-96493641D01*
X119020000Y-96186359D02*
X119020000Y-96493641D01*
%TO.C,Y2*%
X105010000Y-97360000D02*
X105010000Y-94940000D01*
X105010000Y-94940000D02*
X102190000Y-94940000D01*
%TO.C,C8*%
X105242164Y-104410000D02*
X105457836Y-104410000D01*
X105242164Y-103690000D02*
X105457836Y-103690000D01*
%TO.C,R16*%
X111430000Y-106396359D02*
X111430000Y-106703641D01*
X110670000Y-106396359D02*
X110670000Y-106703641D01*
%TO.C,C9*%
X105860000Y-106992164D02*
X105860000Y-107207836D01*
X105140000Y-106992164D02*
X105140000Y-107207836D01*
%TO.C,J3*%
X101210000Y-96020000D02*
X101210000Y-117545000D01*
X100716708Y-96020000D02*
X101210000Y-96020000D01*
X100367923Y-117545000D02*
X101210000Y-117545000D01*
X98890000Y-117545000D02*
X99732077Y-117545000D01*
X98890000Y-96020000D02*
X99383292Y-96020000D01*
X98890000Y-96020000D02*
X98890000Y-117545000D01*
X98890000Y-95210000D02*
X98890000Y-94400000D01*
X98890000Y-94400000D02*
X100050000Y-94400000D01*
%TO.C,C12*%
X118409420Y-99060000D02*
X118690580Y-99060000D01*
X118409420Y-98040000D02*
X118690580Y-98040000D01*
%TD*%
%LPC*%
D17*
%TO.C,C21*%
X105800000Y-95970000D03*
X105800000Y-96930000D03*
%TD*%
D18*
%TO.C,AE2*%
X111700000Y-84750000D03*
X111700000Y-88150000D03*
%TD*%
D19*
%TO.C,R17*%
X112200000Y-107060000D03*
X112200000Y-106040000D03*
%TD*%
D20*
%TO.C,R9*%
X104100000Y-115630000D03*
X104100000Y-116650000D03*
%TD*%
D21*
%TO.C,R3*%
X116100000Y-110875000D03*
X116100000Y-109225000D03*
%TD*%
D22*
%TO.C,C24*%
X119960000Y-112410000D03*
X119000000Y-112410000D03*
%TD*%
D23*
%TO.C,C2*%
X122310000Y-105150000D03*
X122310000Y-106110000D03*
%TD*%
D17*
%TO.C,C19*%
X106100000Y-93805000D03*
X106100000Y-92845000D03*
%TD*%
D24*
%TO.C,D2*%
X122140000Y-110350000D03*
X120265000Y-110350000D03*
%TD*%
D25*
%TO.C,Q1*%
X116837500Y-120300000D03*
X114962500Y-121250000D03*
X114962500Y-119350000D03*
%TD*%
D26*
%TO.C,C7*%
X117570000Y-95050000D03*
X117570000Y-93150000D03*
%TD*%
D27*
%TO.C,RED1*%
X104090000Y-114357500D03*
X104090000Y-112782500D03*
%TD*%
D21*
%TO.C,R5*%
X105700000Y-112775000D03*
X105700000Y-111125000D03*
%TD*%
D28*
%TO.C,U1*%
X113142500Y-97837500D03*
X113142500Y-103337500D03*
X112892500Y-97337500D03*
X112892500Y-103837500D03*
X112642500Y-97837500D03*
X112392500Y-97337500D03*
X112392500Y-103837500D03*
X112142500Y-97837500D03*
X112142500Y-103337500D03*
X111892500Y-97337500D03*
X111892500Y-103837500D03*
X111642500Y-97837500D03*
X111642500Y-103337500D03*
X111392500Y-97337500D03*
X111392500Y-103837500D03*
X111142500Y-103337500D03*
X110892500Y-97337500D03*
X110892500Y-103837500D03*
X110642500Y-103337500D03*
X110392500Y-97337500D03*
X110392500Y-103837500D03*
X110142500Y-97837500D03*
X110142500Y-103337500D03*
X109892500Y-103837500D03*
X109642500Y-97837500D03*
X109642500Y-103337500D03*
D29*
X111142500Y-100587500D03*
D28*
X109392500Y-97337500D03*
X109142500Y-97837500D03*
X109142500Y-103337500D03*
X108892500Y-103837500D03*
X108392500Y-97337500D03*
X108392500Y-99087500D03*
X108392500Y-99587500D03*
X108392500Y-100087500D03*
X108392500Y-100587500D03*
X108392500Y-101087500D03*
X108392500Y-101587500D03*
X108392500Y-102087500D03*
X108392500Y-102587500D03*
X108392500Y-103087500D03*
X108392500Y-103837500D03*
X114392500Y-97837500D03*
X114392500Y-98337500D03*
X114392500Y-98837500D03*
X114392500Y-99337500D03*
X114392500Y-99837500D03*
X114392500Y-100337500D03*
X114392500Y-100837500D03*
X114392500Y-101337500D03*
X114392500Y-101837500D03*
X114392500Y-102337500D03*
X114392500Y-102837500D03*
X114392500Y-103337500D03*
X113892500Y-97337500D03*
X113892500Y-98587500D03*
X113892500Y-99087500D03*
X113892500Y-99587500D03*
X113892500Y-100087500D03*
X113892500Y-100587500D03*
X113892500Y-101087500D03*
X113892500Y-101587500D03*
X113892500Y-102587500D03*
X113642500Y-103337500D03*
X113392500Y-97337500D03*
X107892500Y-97837500D03*
X107892500Y-98337500D03*
X107892500Y-98837500D03*
X107892500Y-99337500D03*
X107892500Y-99837500D03*
X107892500Y-100337500D03*
X107892500Y-100837500D03*
X107892500Y-101337500D03*
X107892500Y-101837500D03*
%TD*%
D30*
%TO.C,H2*%
X121700000Y-91800000D03*
%TD*%
D31*
%TO.C,C16*%
X110885000Y-90850000D03*
X109925000Y-90850000D03*
%TD*%
D32*
%TO.C,D5*%
X114050000Y-115150000D03*
X112650000Y-115150000D03*
%TD*%
D22*
%TO.C,C20*%
X104650000Y-94200000D03*
X103690000Y-94200000D03*
%TD*%
D33*
%TO.C,L1*%
X110900000Y-92300000D03*
X109930000Y-92300000D03*
%TD*%
D23*
%TO.C,C3*%
X107900000Y-116820000D03*
X107900000Y-117780000D03*
%TD*%
D34*
%TO.C,C18*%
X107410000Y-92410000D03*
X107410000Y-93960000D03*
%TD*%
D35*
%TO.C,Y1*%
X108400000Y-107220000D03*
X107000000Y-107220000D03*
X107000000Y-106120000D03*
X108400000Y-106120000D03*
%TD*%
D22*
%TO.C,C15*%
X109920000Y-93775000D03*
X110880000Y-93775000D03*
%TD*%
D36*
%TO.C,RESET*%
X104465000Y-118960000D03*
X104465000Y-124960000D03*
X100715000Y-118960000D03*
X100715000Y-124960000D03*
%TD*%
D30*
%TO.C,H3*%
X121700000Y-128000000D03*
%TD*%
D37*
%TO.C,R6*%
X108650000Y-119800000D03*
X107630000Y-119800000D03*
%TD*%
D31*
%TO.C,C13*%
X116770000Y-104250000D03*
X117730000Y-104250000D03*
%TD*%
D38*
%TO.C,BAT*%
X120100000Y-119850000D03*
D39*
X120100000Y-122350000D03*
%TD*%
D40*
%TO.C,F2*%
X120300000Y-114200000D03*
X123100000Y-114200000D03*
%TD*%
D41*
%TO.C,R4*%
X116025000Y-112450000D03*
X117675000Y-112450000D03*
%TD*%
D17*
%TO.C,C10*%
X109770000Y-107590000D03*
X109770000Y-106630000D03*
%TD*%
D42*
%TO.C,R22*%
X105300000Y-99025000D03*
X105300000Y-100675000D03*
%TD*%
D43*
%TO.C,C11*%
X115175000Y-106450000D03*
X116725000Y-106450000D03*
%TD*%
D44*
%TO.C,U5*%
X110920000Y-111570000D03*
D45*
X113395000Y-109665000D03*
X113395000Y-110935000D03*
X113395000Y-112205000D03*
X113395000Y-113475000D03*
X108445000Y-113475000D03*
X108445000Y-112205000D03*
X108445000Y-110935000D03*
X108445000Y-109665000D03*
%TD*%
D17*
%TO.C,C14*%
X112800000Y-94850000D03*
X112800000Y-93890000D03*
%TD*%
D46*
%TO.C,J2*%
X115300000Y-128190000D03*
D47*
X115300000Y-124010000D03*
D46*
X106660000Y-128190000D03*
D47*
X106660000Y-124010000D03*
D48*
X107780000Y-123435000D03*
X108580000Y-123435000D03*
D49*
X109230000Y-123435000D03*
X110230000Y-123435000D03*
X111730000Y-123435000D03*
X112730000Y-123435000D03*
D48*
X113380000Y-123435000D03*
X114180000Y-123435000D03*
X114180000Y-123435000D03*
X113380000Y-123435000D03*
D49*
X112230000Y-123435000D03*
X111230000Y-123435000D03*
X110730000Y-123435000D03*
X109730000Y-123435000D03*
D48*
X108580000Y-123435000D03*
X107780000Y-123435000D03*
D50*
X113870000Y-124510000D03*
X108090000Y-124510000D03*
%TD*%
D51*
%TO.C,R23*%
X119400000Y-100300000D03*
X117750000Y-100300000D03*
%TD*%
D30*
%TO.C,H4*%
X101750000Y-91800000D03*
%TD*%
D52*
%TO.C,R2*%
X111450000Y-121670000D03*
X112470000Y-121670000D03*
%TD*%
D17*
%TO.C,C1*%
X114000000Y-118200000D03*
X114000000Y-117240000D03*
%TD*%
D52*
%TO.C,R19*%
X117490000Y-101810000D03*
X118510000Y-101810000D03*
%TD*%
D30*
%TO.C,H1*%
X101770000Y-128000000D03*
%TD*%
D52*
%TO.C,R20*%
X117490000Y-102850000D03*
X118510000Y-102850000D03*
%TD*%
D53*
%TO.C,U2*%
X112147500Y-116610000D03*
X112147500Y-118510000D03*
X109872500Y-118510000D03*
X109872500Y-117560000D03*
X109872500Y-116610000D03*
%TD*%
D37*
%TO.C,R1*%
X110490000Y-121680000D03*
X109470000Y-121680000D03*
%TD*%
D24*
%TO.C,D1*%
X122157500Y-108160000D03*
X120282500Y-108160000D03*
%TD*%
D54*
%TO.C,L2*%
X105250000Y-101965000D03*
X105250000Y-102935000D03*
%TD*%
D23*
%TO.C,C22*%
X115070000Y-93410000D03*
X115070000Y-94370000D03*
%TD*%
D55*
%TO.C,C23*%
X117350000Y-115550000D03*
X115450000Y-115550000D03*
%TD*%
D19*
%TO.C,R18*%
X119400000Y-96850000D03*
X119400000Y-95830000D03*
%TD*%
D35*
%TO.C,Y2*%
X104300000Y-96700000D03*
X102900000Y-96700000D03*
X102900000Y-95600000D03*
X104300000Y-95600000D03*
%TD*%
D22*
%TO.C,C8*%
X105830000Y-104050000D03*
X104870000Y-104050000D03*
%TD*%
D19*
%TO.C,R16*%
X111050000Y-107060000D03*
X111050000Y-106040000D03*
%TD*%
D17*
%TO.C,C9*%
X105500000Y-107580000D03*
X105500000Y-106620000D03*
%TD*%
D56*
%TO.C,J3*%
X100050000Y-116800000D03*
X100050000Y-115530000D03*
X100050000Y-114260000D03*
X100050000Y-112990000D03*
X100050000Y-111720000D03*
X100050000Y-110450000D03*
X100050000Y-109180000D03*
X100050000Y-107910000D03*
X100050000Y-106640000D03*
X100050000Y-105370000D03*
X100050000Y-104100000D03*
X100050000Y-102830000D03*
X100050000Y-101560000D03*
X100050000Y-100290000D03*
X100050000Y-99020000D03*
X100050000Y-97750000D03*
X100050000Y-96480000D03*
D57*
X100050000Y-95210000D03*
%TD*%
D58*
%TO.C,C12*%
X119325000Y-98550000D03*
X117775000Y-98550000D03*
%TD*%
%LPD*%
M02*
